<?plantuml 1.2026.2?><svg xmlns="http://www.w3.org/2000/svg" xmlns:xlink="http://www.w3.org/1999/xlink" contentStyleType="text/css" data-diagram-type="SEQUENCE" height="671px" preserveAspectRatio="none" style="width:595px;height:671px;background:#FFFFFF;" version="1.1" viewBox="0 0 595 671" width="595px" zoomAndPan="magnify"><defs/><g><g><title>Administrator</title><rect fill="#FFFFFF" height="488.9922" style="stroke:#181818;stroke-width:1;" width="10" x="64.8604" y="91.4883"/></g><g><title>.System</title><rect fill="#FFFFFF" height="29.3105" style="stroke:#181818;stroke-width:1;" width="10" x="344.6572" y="112.7988"/></g><g><title>.System</title><rect fill="#FFFFFF" height="409.0605" style="stroke:#181818;stroke-width:1;" width="10" x="344.6572" y="171.4199"/></g><rect fill="none" height="133.1973" style="stroke:#000000;stroke-width:1.5;" width="477.5566" x="10" y="440.2832"/><g class="participant-lifeline" data-entity-uid="part1" data-qualified-name="Admin" id="part1-lifeline"><g><title>Administrator</title><rect fill="#000000" fill-opacity="0.00000" height="508.9922" width="8" x="65.8604" y="81.4883"/><line style="stroke:#181818;stroke-width:0.5;stroke-dasharray:5,5;" x1="69" x2="69" y1="81.4883" y2="590.4805"/></g></g><g class="participant-lifeline" data-entity-uid="part2" data-qualified-name="System" id="part2-lifeline"><g><title>.System</title><rect fill="#000000" fill-opacity="0.00000" height="508.9922" width="8" x="345.6572" y="81.4883"/><line style="stroke:#181818;stroke-width:0.5;stroke-dasharray:5,5;" x1="349.3936" x2="349.3936" y1="81.4883" y2="590.4805"/></g></g><g class="participant participant-head" data-entity-uid="part1" data-qualified-name="Admin" id="part1-head"><text fill="#000000" font-family="sans-serif" font-size="14" lengthAdjust="spacing" textLength="93.7207" x="20" y="78.5352">Administrator</text><ellipse cx="69.8604" cy="13.5" fill="#E3E3E3" rx="8" ry="8" style="stroke:#181818;stroke-width:0.5;"/><path d="M69.8604,21.5 L69.8604,48.5 M56.8604,29.5 L82.8604,29.5 M69.8604,48.5 L56.8604,63.5 M69.8604,48.5 L82.8604,63.5" fill="none" style="stroke:#181818;stroke-width:0.5;"/></g><g class="participant participant-tail" data-entity-uid="part1" data-qualified-name="Admin" id="part1-tail"><text fill="#000000" font-family="sans-serif" font-size="14" lengthAdjust="spacing" textLength="93.7207" x="20" y="603.0156">Administrator</text><ellipse cx="69.8604" cy="614.4688" fill="#E3E3E3" rx="8" ry="8" style="stroke:#181818;stroke-width:0.5;"/><path d="M69.8604,622.4688 L69.8604,649.4688 M56.8604,630.4688 L82.8604,630.4688 M69.8604,649.4688 L56.8604,664.4688 M69.8604,649.4688 L82.8604,664.4688" fill="none" style="stroke:#181818;stroke-width:0.5;"/></g><g class="participant participant-head" data-entity-uid="part2" data-qualified-name="System" id="part2-head"><rect fill="#E3E3E3" height="30.4883" rx="2.5" ry="2.5" style="stroke:#181818;stroke-width:0.5;" width="66.5273" x="316.3936" y="50"/><text fill="#000000" font-family="sans-serif" font-size="14" lengthAdjust="spacing" textLength="52.5273" x="323.3936" y="70.5352">:System</text></g><g class="participant participant-tail" data-entity-uid="part2" data-qualified-name="System" id="part2-tail"><rect fill="#E3E3E3" height="30.4883" rx="2.5" ry="2.5" style="stroke:#181818;stroke-width:0.5;" width="66.5273" x="316.3936" y="589.4805"/><text fill="#000000" font-family="sans-serif" font-size="14" lengthAdjust="spacing" textLength="52.5273" x="323.3936" y="610.0156">:System</text></g><g><title>Administrator</title><rect fill="#FFFFFF" height="488.9922" style="stroke:#181818;stroke-width:1;" width="10" x="64.8604" y="91.4883"/></g><g><title>.System</title><rect fill="#FFFFFF" height="29.3105" style="stroke:#181818;stroke-width:1;" width="10" x="344.6572" y="112.7988"/></g><g><title>.System</title><rect fill="#FFFFFF" height="409.0605" style="stroke:#181818;stroke-width:1;" width="10" x="344.6572" y="171.4199"/></g><g class="message" data-entity-1="part1" data-entity-2="part2" id="msg1"><polygon fill="#181818" points="332.6572,108.7988,342.6572,112.7988,332.6572,116.7988,336.6572,112.7988" style="stroke:#181818;stroke-width:1;"/><line style="stroke:#181818;stroke-width:1;" x1="74.8604" x2="338.6572" y1="112.7988" y2="112.7988"/><text fill="#000000" font-family="sans-serif" font-size="13" font-weight="bold" lengthAdjust="spacing" textLength="8.5757" x="84.3604" y="108.0566">1</text><text fill="#000000" font-family="sans-serif" font-size="13" lengthAdjust="spacing" textLength="238.2212" x="96.936" y="108.0566">Requests to register a backoffice user</text></g><g class="message" data-entity-1="part2" data-entity-2="part1" id="msg2"><polygon fill="#181818" points="85.8604,138.1094,75.8604,142.1094,85.8604,146.1094,81.8604,142.1094" style="stroke:#181818;stroke-width:1;"/><line style="stroke:#181818;stroke-width:1;stroke-dasharray:2,2;" x1="79.8604" x2="348.6572" y1="142.1094" y2="142.1094"/><text fill="#000000" font-family="sans-serif" font-size="13" font-weight="bold" lengthAdjust="spacing" textLength="8.5757" x="145.9919" y="137.3672">2</text><text fill="#000000" font-family="sans-serif" font-size="13" lengthAdjust="spacing" textLength="119.958" x="158.5676" y="137.3672">Requests user data</text></g><g class="message" data-entity-1="part1" data-entity-2="part2" id="msg3"><polygon fill="#181818" points="332.6572,167.4199,342.6572,171.4199,332.6572,175.4199,336.6572,171.4199" style="stroke:#181818;stroke-width:1;"/><line style="stroke:#181818;stroke-width:1;" x1="74.8604" x2="338.6572" y1="171.4199" y2="171.4199"/><text fill="#000000" font-family="sans-serif" font-size="13" font-weight="bold" lengthAdjust="spacing" textLength="8.5757" x="145.5137" y="166.6777">3</text><text fill="#000000" font-family="sans-serif" font-size="13" lengthAdjust="spacing" textLength="115.9146" x="158.0894" y="166.6777">Provides user data</text></g><g class="message" data-entity-1="part2" data-entity-2="part2" id="msg4"><line style="stroke:#181818;stroke-width:1;stroke-dasharray:2,2;" x1="354.6572" x2="396.6572" y1="200.7305" y2="200.7305"/><line style="stroke:#181818;stroke-width:1;stroke-dasharray:2,2;" x1="396.6572" x2="396.6572" y1="200.7305" y2="213.7305"/><line style="stroke:#181818;stroke-width:1;stroke-dasharray:2,2;" x1="355.6572" x2="396.6572" y1="213.7305" y2="213.7305"/><polygon fill="#181818" points="365.6572,209.7305,355.6572,213.7305,365.6572,217.7305,361.6572,213.7305" style="stroke:#181818;stroke-width:1;"/><text fill="#000000" font-family="sans-serif" font-size="13" font-weight="bold" lengthAdjust="spacing" textLength="8.5757" x="361.6572" y="195.9883">4</text><text fill="#000000" font-family="sans-serif" font-size="13" lengthAdjust="spacing" textLength="139.604" x="374.2329" y="195.9883">Validate required data</text></g><g class="message" data-entity-1="part2" data-entity-2="part2" id="msg5"><line style="stroke:#181818;stroke-width:1;stroke-dasharray:2,2;" x1="354.6572" x2="396.6572" y1="243.041" y2="243.041"/><line style="stroke:#181818;stroke-width:1;stroke-dasharray:2,2;" x1="396.6572" x2="396.6572" y1="243.041" y2="256.041"/><line style="stroke:#181818;stroke-width:1;stroke-dasharray:2,2;" x1="355.6572" x2="396.6572" y1="256.041" y2="256.041"/><polygon fill="#181818" points="365.6572,252.041,355.6572,256.041,365.6572,260.041,361.6572,256.041" style="stroke:#181818;stroke-width:1;"/><text fill="#000000" font-family="sans-serif" font-size="13" font-weight="bold" lengthAdjust="spacing" textLength="8.5757" x="361.6572" y="238.2988">5</text><text fill="#000000" font-family="sans-serif" font-size="13" lengthAdjust="spacing" textLength="214.189" x="374.2329" y="238.2988">Validate email format and domain</text></g><g class="message" data-entity-1="part2" data-entity-2="part2" id="msg6"><line style="stroke:#181818;stroke-width:1;stroke-dasharray:2,2;" x1="354.6572" x2="396.6572" y1="285.3516" y2="285.3516"/><line style="stroke:#181818;stroke-width:1;stroke-dasharray:2,2;" x1="396.6572" x2="396.6572" y1="285.3516" y2="298.3516"/><line style="stroke:#181818;stroke-width:1;stroke-dasharray:2,2;" x1="355.6572" x2="396.6572" y1="298.3516" y2="298.3516"/><polygon fill="#181818" points="365.6572,294.3516,355.6572,298.3516,365.6572,302.3516,361.6572,298.3516" style="stroke:#181818;stroke-width:1;"/><text fill="#000000" font-family="sans-serif" font-size="13" font-weight="bold" lengthAdjust="spacing" textLength="8.5757" x="361.6572" y="280.6094">6</text><text fill="#000000" font-family="sans-serif" font-size="13" lengthAdjust="spacing" textLength="180.3687" x="374.2329" y="280.6094">Check if email already exists</text></g><g class="message" data-entity-1="part2" data-entity-2="part2" id="msg7"><line style="stroke:#181818;stroke-width:1;stroke-dasharray:2,2;" x1="354.6572" x2="396.6572" y1="327.6621" y2="327.6621"/><line style="stroke:#181818;stroke-width:1;stroke-dasharray:2,2;" x1="396.6572" x2="396.6572" y1="327.6621" y2="340.6621"/><line style="stroke:#181818;stroke-width:1;stroke-dasharray:2,2;" x1="355.6572" x2="396.6572" y1="340.6621" y2="340.6621"/><polygon fill="#181818" points="365.6572,336.6621,355.6572,340.6621,365.6572,344.6621,361.6572,340.6621" style="stroke:#181818;stroke-width:1;"/><text fill="#000000" font-family="sans-serif" font-size="13" font-weight="bold" lengthAdjust="spacing" textLength="8.5757" x="361.6572" y="322.9199">7</text><text fill="#000000" font-family="sans-serif" font-size="13" lengthAdjust="spacing" textLength="79.0791" x="374.2329" y="322.9199">Validate role</text></g><g class="message" data-entity-1="part2" data-entity-2="part2" id="msg8"><line style="stroke:#181818;stroke-width:1;stroke-dasharray:2,2;" x1="354.6572" x2="396.6572" y1="369.9727" y2="369.9727"/><line style="stroke:#181818;stroke-width:1;stroke-dasharray:2,2;" x1="396.6572" x2="396.6572" y1="369.9727" y2="382.9727"/><line style="stroke:#181818;stroke-width:1;stroke-dasharray:2,2;" x1="355.6572" x2="396.6572" y1="382.9727" y2="382.9727"/><polygon fill="#181818" points="365.6572,378.9727,355.6572,382.9727,365.6572,386.9727,361.6572,382.9727" style="stroke:#181818;stroke-width:1;"/><text fill="#000000" font-family="sans-serif" font-size="13" font-weight="bold" lengthAdjust="spacing" textLength="8.5757" x="361.6572" y="365.2305">8</text><text fill="#000000" font-family="sans-serif" font-size="13" lengthAdjust="spacing" textLength="167.521" x="374.2329" y="365.2305">Validate security clearance</text></g><g class="message" data-entity-1="part2" data-entity-2="part2" id="msg9"><line style="stroke:#181818;stroke-width:1;stroke-dasharray:2,2;" x1="354.6572" x2="396.6572" y1="412.2832" y2="412.2832"/><line style="stroke:#181818;stroke-width:1;stroke-dasharray:2,2;" x1="396.6572" x2="396.6572" y1="412.2832" y2="425.2832"/><line style="stroke:#181818;stroke-width:1;stroke-dasharray:2,2;" x1="355.6572" x2="396.6572" y1="425.2832" y2="425.2832"/><polygon fill="#181818" points="365.6572,421.2832,355.6572,425.2832,365.6572,429.2832,361.6572,425.2832" style="stroke:#181818;stroke-width:1;"/><text fill="#000000" font-family="sans-serif" font-size="13" font-weight="bold" lengthAdjust="spacing" textLength="8.5757" x="361.6572" y="407.541">9</text><text fill="#000000" font-family="sans-serif" font-size="13" lengthAdjust="spacing" textLength="164.252" x="374.2329" y="407.541">Validate skills assessment</text></g><path d="M10,440.2832 L72.1387,440.2832 L72.1387,447.5938 L62.1387,457.5938 L10,457.5938 L10,440.2832" fill="#EEEEEE" style="stroke:#000000;stroke-width:1.5;"/><rect fill="none" height="133.1973" style="stroke:#000000;stroke-width:1.5;" width="477.5566" x="10" y="440.2832"/><text fill="#000000" font-family="sans-serif" font-size="13" font-weight="bold" lengthAdjust="spacing" textLength="17.1387" x="25" y="453.8516">alt</text><text fill="#000000" font-family="sans-serif" font-size="11" font-weight="bold" lengthAdjust="spacing" textLength="105.832" x="87.1387" y="452.918">[user data is valid]</text><g class="message" data-entity-1="part2" data-entity-2="part2" id="msg10"><line style="stroke:#181818;stroke-width:1;stroke-dasharray:2,2;" x1="354.6572" x2="396.6572" y1="478.9043" y2="478.9043"/><line style="stroke:#181818;stroke-width:1;stroke-dasharray:2,2;" x1="396.6572" x2="396.6572" y1="478.9043" y2="491.9043"/><line style="stroke:#181818;stroke-width:1;stroke-dasharray:2,2;" x1="355.6572" x2="396.6572" y1="491.9043" y2="491.9043"/><polygon fill="#181818" points="365.6572,487.9043,355.6572,491.9043,365.6572,495.9043,361.6572,491.9043" style="stroke:#181818;stroke-width:1;"/><text fill="#000000" font-family="sans-serif" font-size="13" font-weight="bold" lengthAdjust="spacing" textLength="17.1514" x="361.6572" y="474.1621">10</text><text fill="#000000" font-family="sans-serif" font-size="13" lengthAdjust="spacing" textLength="82.748" x="382.8086" y="474.1621">Register user</text></g><g class="message" data-entity-1="part2" data-entity-2="part1" id="msg11"><polygon fill="#181818" points="85.8604,517.2148,75.8604,521.2148,85.8604,525.2148,81.8604,521.2148" style="stroke:#181818;stroke-width:1;"/><line style="stroke:#181818;stroke-width:1;stroke-dasharray:2,2;" x1="79.8604" x2="343.6572" y1="521.2148" y2="521.2148"/><text fill="#000000" font-family="sans-serif" font-size="13" font-weight="bold" lengthAdjust="spacing" textLength="17.1514" x="111.1887" y="516.4727">11</text><text fill="#000000" font-family="sans-serif" font-size="13" lengthAdjust="spacing" textLength="175.9888" x="132.3401" y="516.4727">User registered successfully</text></g><line style="stroke:#000000;stroke-width:1;stroke-dasharray:2,2;" x1="10" x2="487.5566" y1="530.2148" y2="530.2148"/><text fill="#000000" font-family="sans-serif" font-size="11" font-weight="bold" lengthAdjust="spacing" textLength="116.6333" x="15" y="540.8496">[user data is invalid]</text><g class="message" data-entity-1="part2" data-entity-2="part1" id="msg12"><polygon fill="#181818" points="85.8604,561.4805,75.8604,565.4805,85.8604,569.4805,81.8604,565.4805" style="stroke:#181818;stroke-width:1;"/><line style="stroke:#181818;stroke-width:1;stroke-dasharray:2,2;" x1="79.8604" x2="343.6572" y1="565.4805" y2="565.4805"/><text fill="#000000" font-family="sans-serif" font-size="13" font-weight="bold" lengthAdjust="spacing" textLength="17.1514" x="128.8796" y="560.7383">12</text><text fill="#000000" font-family="sans-serif" font-size="13" lengthAdjust="spacing" textLength="140.6069" x="150.031" y="560.7383">Display error message</text></g><?plantuml-src XLBBJWCn3BpdAwpU-O4Ua2gu8g5MS3U9TsirZn9x2_ltU1yjBLgLlMnYpumTU-J0-OWL4wIIYz_NaWYqTkJaaZcYFs1BE-qZGIMlcDju3P0zXlB5kOK6eznawBEZxEc5H4nY4xdDu2ahLOUTbjob3piwz5egh3OXSMRHYdPT0GgC4MTYofwFc1LMwrqlIcbCJyUHpoTKcl5k_C73umo0DMo7JaG5jDWRMYj25H0-x6sbQTWJT39tCYdDqhF0WsbDebTI0mC2Ahf0VtaBBRpMSk90rxnxvIwyTumS1aormbmfJDoxK4h84PfI4ofWDagnI5uaFUt97u2RcOIn4eOUwDk69FzqLCm8Tn52lgkiFVX8PWdpmZ_u0ySejbinooHpYiqewk_8W0LE0zY1VKjIs_DsnuN-GPrt-3RedNrW4vNEUolOT37sZip4jnKvBzOygpsp72FQo6er6wV9x8voS0lEk8fCRlq1?></g></svg>