<?plantuml 1.2026.2?><svg xmlns="http://www.w3.org/2000/svg" xmlns:xlink="http://www.w3.org/1999/xlink" contentStyleType="text/css" data-diagram-type="SEQUENCE" height="655px" preserveAspectRatio="none" style="width:592px;height:655px;background:#FFFFFF;" version="1.1" viewBox="0 0 592 655" width="592px" zoomAndPan="magnify"><defs/><g><g><title>Flight Process</title><rect fill="#FFFFFF" height="472.6816" style="stroke:#181818;stroke-width:1;" width="10" x="64.9971" y="91.4883"/></g><g><title>.Main Simulation Process</title><rect fill="#FFFFFF" height="451.3711" style="stroke:#181818;stroke-width:1;" width="10" x="326.3032" y="112.7988"/></g><rect fill="none" height="260.1289" style="stroke:#000000;stroke-width:1.5;" width="566.6938" x="10" y="297.041"/><g class="participant-lifeline" data-entity-uid="part1" data-qualified-name="FlightProcess" id="part1-lifeline"><g><title>Flight Process</title><rect fill="#000000" fill-opacity="0.00000" height="492.6816" width="8" x="65.9971" y="81.4883"/><line style="stroke:#181818;stroke-width:0.5;stroke-dasharray:5,5;" x1="69" x2="69" y1="81.4883" y2="574.1699"/></g></g><g class="participant-lifeline" data-entity-uid="part2" data-qualified-name="MainProcess" id="part2-lifeline"><g><title>.Main Simulation Process</title><rect fill="#000000" fill-opacity="0.00000" height="492.6816" width="8" x="327.3032" y="81.4883"/><line style="stroke:#181818;stroke-width:0.5;stroke-dasharray:5,5;" x1="330.8931" x2="330.8931" y1="81.4883" y2="574.1699"/></g></g><g class="participant participant-head" data-entity-uid="part1" data-qualified-name="FlightProcess" id="part1-head"><text fill="#000000" font-family="sans-serif" font-size="14" lengthAdjust="spacing" textLength="93.9941" x="20" y="78.5352">Flight Process</text><ellipse cx="69.9971" cy="13.5" fill="#E3E3E3" rx="8" ry="8" style="stroke:#181818;stroke-width:0.5;"/><path d="M69.9971,21.5 L69.9971,48.5 M56.9971,29.5 L82.9971,29.5 M69.9971,48.5 L56.9971,63.5 M69.9971,48.5 L82.9971,63.5" fill="none" style="stroke:#181818;stroke-width:0.5;"/></g><g class="participant participant-tail" data-entity-uid="part1" data-qualified-name="FlightProcess" id="part1-tail"><text fill="#000000" font-family="sans-serif" font-size="14" lengthAdjust="spacing" textLength="93.9941" x="20" y="586.7051">Flight Process</text><ellipse cx="69.9971" cy="598.1582" fill="#E3E3E3" rx="8" ry="8" style="stroke:#181818;stroke-width:0.5;"/><path d="M69.9971,606.1582 L69.9971,633.1582 M56.9971,614.1582 L82.9971,614.1582 M69.9971,633.1582 L56.9971,648.1582 M69.9971,633.1582 L82.9971,648.1582" fill="none" style="stroke:#181818;stroke-width:0.5;"/></g><g class="participant participant-head" data-entity-uid="part2" data-qualified-name="MainProcess" id="part2-head"><rect fill="#E3E3E3" height="30.4883" rx="2.5" ry="2.5" style="stroke:#181818;stroke-width:0.5;" width="182.8203" x="239.8931" y="50"/><text fill="#000000" font-family="sans-serif" font-size="14" lengthAdjust="spacing" textLength="168.8203" x="246.8931" y="70.5352">:Main Simulation Process</text></g><g class="participant participant-tail" data-entity-uid="part2" data-qualified-name="MainProcess" id="part2-tail"><rect fill="#E3E3E3" height="30.4883" rx="2.5" ry="2.5" style="stroke:#181818;stroke-width:0.5;" width="182.8203" x="239.8931" y="573.1699"/><text fill="#000000" font-family="sans-serif" font-size="14" lengthAdjust="spacing" textLength="168.8203" x="246.8931" y="593.7051">:Main Simulation Process</text></g><g><title>Flight Process</title><rect fill="#FFFFFF" height="472.6816" style="stroke:#181818;stroke-width:1;" width="10" x="64.9971" y="91.4883"/></g><g><title>.Main Simulation Process</title><rect fill="#FFFFFF" height="451.3711" style="stroke:#181818;stroke-width:1;" width="10" x="326.3032" y="112.7988"/></g><g class="message" data-entity-1="part1" data-entity-2="part2" id="msg1"><polygon fill="#181818" points="314.3032,108.7988,324.3032,112.7988,314.3032,116.7988,318.3032,112.7988" style="stroke:#181818;stroke-width:1;"/><line style="stroke:#181818;stroke-width:1;" x1="74.9971" x2="320.3032" y1="112.7988" y2="112.7988"/><text fill="#000000" font-family="sans-serif" font-size="13" font-weight="bold" lengthAdjust="spacing" textLength="8.5757" x="84.4971" y="108.0566">1</text><text fill="#000000" font-family="sans-serif" font-size="13" lengthAdjust="spacing" textLength="219.7305" x="97.0728" y="108.0566">Send position update through pipe</text></g><g class="message" data-entity-1="part2" data-entity-2="part2" id="msg2"><line style="stroke:#181818;stroke-width:1;stroke-dasharray:2,2;" x1="336.3032" x2="378.3032" y1="142.1094" y2="142.1094"/><line style="stroke:#181818;stroke-width:1;stroke-dasharray:2,2;" x1="378.3032" x2="378.3032" y1="142.1094" y2="155.1094"/><line style="stroke:#181818;stroke-width:1;stroke-dasharray:2,2;" x1="337.3032" x2="378.3032" y1="155.1094" y2="155.1094"/><polygon fill="#181818" points="347.3032,151.1094,337.3032,155.1094,347.3032,159.1094,343.3032,155.1094" style="stroke:#181818;stroke-width:1;"/><text fill="#000000" font-family="sans-serif" font-size="13" font-weight="bold" lengthAdjust="spacing" textLength="8.5757" x="343.3032" y="137.3672">2</text><text fill="#000000" font-family="sans-serif" font-size="13" lengthAdjust="spacing" textLength="226.4272" x="355.8789" y="137.3672">Read movement message from pipe</text></g><g class="message" data-entity-1="part2" data-entity-2="part2" id="msg3"><line style="stroke:#181818;stroke-width:1;stroke-dasharray:2,2;" x1="336.3032" x2="378.3032" y1="184.4199" y2="184.4199"/><line style="stroke:#181818;stroke-width:1;stroke-dasharray:2,2;" x1="378.3032" x2="378.3032" y1="184.4199" y2="197.4199"/><line style="stroke:#181818;stroke-width:1;stroke-dasharray:2,2;" x1="337.3032" x2="378.3032" y1="197.4199" y2="197.4199"/><polygon fill="#181818" points="347.3032,193.4199,337.3032,197.4199,347.3032,201.4199,343.3032,197.4199" style="stroke:#181818;stroke-width:1;"/><text fill="#000000" font-family="sans-serif" font-size="13" font-weight="bold" lengthAdjust="spacing" textLength="8.5757" x="343.3032" y="179.6777">3</text><text fill="#000000" font-family="sans-serif" font-size="13" lengthAdjust="spacing" textLength="180.4512" x="355.8789" y="179.6777">Validate movement message</text></g><g class="message" data-entity-1="part2" data-entity-2="part2" id="msg4"><line style="stroke:#181818;stroke-width:1;stroke-dasharray:2,2;" x1="336.3032" x2="378.3032" y1="226.7305" y2="226.7305"/><line style="stroke:#181818;stroke-width:1;stroke-dasharray:2,2;" x1="378.3032" x2="378.3032" y1="226.7305" y2="239.7305"/><line style="stroke:#181818;stroke-width:1;stroke-dasharray:2,2;" x1="337.3032" x2="378.3032" y1="239.7305" y2="239.7305"/><polygon fill="#181818" points="347.3032,235.7305,337.3032,239.7305,347.3032,243.7305,343.3032,239.7305" style="stroke:#181818;stroke-width:1;"/><text fill="#000000" font-family="sans-serif" font-size="13" font-weight="bold" lengthAdjust="spacing" textLength="8.5757" x="343.3032" y="221.9883">4</text><text fill="#000000" font-family="sans-serif" font-size="13" lengthAdjust="spacing" textLength="136.7476" x="355.8789" y="221.9883">Identify aircraft/flight</text></g><g class="message" data-entity-1="part2" data-entity-2="part2" id="msg5"><line style="stroke:#181818;stroke-width:1;stroke-dasharray:2,2;" x1="336.3032" x2="378.3032" y1="269.041" y2="269.041"/><line style="stroke:#181818;stroke-width:1;stroke-dasharray:2,2;" x1="378.3032" x2="378.3032" y1="269.041" y2="282.041"/><line style="stroke:#181818;stroke-width:1;stroke-dasharray:2,2;" x1="337.3032" x2="378.3032" y1="282.041" y2="282.041"/><polygon fill="#181818" points="347.3032,278.041,337.3032,282.041,347.3032,286.041,343.3032,282.041" style="stroke:#181818;stroke-width:1;"/><text fill="#000000" font-family="sans-serif" font-size="13" font-weight="bold" lengthAdjust="spacing" textLength="8.5757" x="343.3032" y="264.2988">5</text><text fill="#000000" font-family="sans-serif" font-size="13" lengthAdjust="spacing" textLength="229.3979" x="355.8789" y="264.2988">Extract timestamp and position data</text></g><path d="M10,297.041 L72.1387,297.041 L72.1387,304.3516 L62.1387,314.3516 L10,314.3516 L10,297.041" fill="#EEEEEE" style="stroke:#000000;stroke-width:1.5;"/><rect fill="none" height="260.1289" style="stroke:#000000;stroke-width:1.5;" width="566.6938" x="10" y="297.041"/><text fill="#000000" font-family="sans-serif" font-size="13" font-weight="bold" lengthAdjust="spacing" textLength="17.1387" x="25" y="310.6094">alt</text><text fill="#000000" font-family="sans-serif" font-size="11" font-weight="bold" lengthAdjust="spacing" textLength="165.4404" x="87.1387" y="309.6758">[movement message is valid]</text><g class="message" data-entity-1="part2" data-entity-2="part2" id="msg6"><line style="stroke:#181818;stroke-width:1;stroke-dasharray:2,2;" x1="336.3032" x2="378.3032" y1="335.6621" y2="335.6621"/><line style="stroke:#181818;stroke-width:1;stroke-dasharray:2,2;" x1="378.3032" x2="378.3032" y1="335.6621" y2="348.6621"/><line style="stroke:#181818;stroke-width:1;stroke-dasharray:2,2;" x1="337.3032" x2="378.3032" y1="348.6621" y2="348.6621"/><polygon fill="#181818" points="347.3032,344.6621,337.3032,348.6621,347.3032,352.6621,343.3032,348.6621" style="stroke:#181818;stroke-width:1;"/><text fill="#000000" font-family="sans-serif" font-size="13" font-weight="bold" lengthAdjust="spacing" textLength="8.5757" x="343.3032" y="330.9199">6</text><text fill="#000000" font-family="sans-serif" font-size="13" lengthAdjust="spacing" textLength="198.8149" x="355.8789" y="330.9199">Update current aircraft position</text></g><g class="message" data-entity-1="part2" data-entity-2="part2" id="msg7"><line style="stroke:#181818;stroke-width:1;stroke-dasharray:2,2;" x1="336.3032" x2="378.3032" y1="377.9727" y2="377.9727"/><line style="stroke:#181818;stroke-width:1;stroke-dasharray:2,2;" x1="378.3032" x2="378.3032" y1="377.9727" y2="390.9727"/><line style="stroke:#181818;stroke-width:1;stroke-dasharray:2,2;" x1="337.3032" x2="378.3032" y1="390.9727" y2="390.9727"/><polygon fill="#181818" points="347.3032,386.9727,337.3032,390.9727,347.3032,394.9727,343.3032,390.9727" style="stroke:#181818;stroke-width:1;"/><text fill="#000000" font-family="sans-serif" font-size="13" font-weight="bold" lengthAdjust="spacing" textLength="8.5757" x="343.3032" y="373.2305">7</text><text fill="#000000" font-family="sans-serif" font-size="13" lengthAdjust="spacing" textLength="151.2139" x="355.8789" y="373.2305">Store position in history</text></g><g class="message" data-entity-1="part2" data-entity-2="part1" id="msg8"><polygon fill="#181818" points="85.9971,416.2832,75.9971,420.2832,85.9971,424.2832,81.9971,420.2832" style="stroke:#181818;stroke-width:1;"/><line style="stroke:#181818;stroke-width:1;stroke-dasharray:2,2;" x1="79.9971" x2="325.3032" y1="420.2832" y2="420.2832"/><text fill="#000000" font-family="sans-serif" font-size="13" font-weight="bold" lengthAdjust="spacing" textLength="8.5757" x="91.4382" y="415.541">8</text><text fill="#000000" font-family="sans-serif" font-size="13" lengthAdjust="spacing" textLength="205.8481" x="104.0139" y="415.541">Acknowledge update, if required</text></g><line style="stroke:#000000;stroke-width:1;stroke-dasharray:2,2;" x1="10" x2="576.6938" y1="429.2832" y2="429.2832"/><text fill="#000000" font-family="sans-serif" font-size="11" font-weight="bold" lengthAdjust="spacing" textLength="176.2417" x="15" y="439.918">[movement message is invalid]</text><g class="message" data-entity-1="part2" data-entity-2="part2" id="msg9"><line style="stroke:#181818;stroke-width:1;stroke-dasharray:2,2;" x1="336.3032" x2="378.3032" y1="464.5488" y2="464.5488"/><line style="stroke:#181818;stroke-width:1;stroke-dasharray:2,2;" x1="378.3032" x2="378.3032" y1="464.5488" y2="477.5488"/><line style="stroke:#181818;stroke-width:1;stroke-dasharray:2,2;" x1="337.3032" x2="378.3032" y1="477.5488" y2="477.5488"/><polygon fill="#181818" points="347.3032,473.5488,337.3032,477.5488,347.3032,481.5488,343.3032,477.5488" style="stroke:#181818;stroke-width:1;"/><text fill="#000000" font-family="sans-serif" font-size="13" font-weight="bold" lengthAdjust="spacing" textLength="8.5757" x="343.3032" y="459.8066">9</text><text fill="#000000" font-family="sans-serif" font-size="13" lengthAdjust="spacing" textLength="167.9717" x="355.8789" y="459.8066">Reject movement message</text></g><g class="message" data-entity-1="part2" data-entity-2="part2" id="msg10"><line style="stroke:#181818;stroke-width:1;stroke-dasharray:2,2;" x1="336.3032" x2="378.3032" y1="506.8594" y2="506.8594"/><line style="stroke:#181818;stroke-width:1;stroke-dasharray:2,2;" x1="378.3032" x2="378.3032" y1="506.8594" y2="519.8594"/><line style="stroke:#181818;stroke-width:1;stroke-dasharray:2,2;" x1="337.3032" x2="378.3032" y1="519.8594" y2="519.8594"/><polygon fill="#181818" points="347.3032,515.8594,337.3032,519.8594,347.3032,523.8594,343.3032,519.8594" style="stroke:#181818;stroke-width:1;"/><text fill="#000000" font-family="sans-serif" font-size="13" font-weight="bold" lengthAdjust="spacing" textLength="17.1514" x="343.3032" y="502.1172">10</text><text fill="#000000" font-family="sans-serif" font-size="13" lengthAdjust="spacing" textLength="115.6543" x="364.4546" y="502.1172">Log warning/error</text></g><g class="message" data-entity-1="part2" data-entity-2="part1" id="msg11"><polygon fill="#181818" points="85.9971,545.1699,75.9971,549.1699,85.9971,553.1699,81.9971,549.1699" style="stroke:#181818;stroke-width:1;"/><line style="stroke:#181818;stroke-width:1;stroke-dasharray:2,2;" x1="79.9971" x2="325.3032" y1="549.1699" y2="549.1699"/><text fill="#000000" font-family="sans-serif" font-size="13" font-weight="bold" lengthAdjust="spacing" textLength="17.1514" x="87.4011" y="544.4277">11</text><text fill="#000000" font-family="sans-serif" font-size="13" lengthAdjust="spacing" textLength="205.3467" x="108.5525" y="544.4277">Notify invalid update, if required</text></g><?plantuml-src ZLF1Rjim3BthAuYS6_IUmu0SEc30EXGDrZihqJONMt8fAcd-ldJSTdOJDF599lKU-HwflENOes07NOh9Dv8w0fL2BdzcUlHRh6cZXvP0o2l6kfrUo0s6jETOGuLjdcNefL3qT4yv6yMwvJg2fwWa3ekcMBfdEphqcWGMFotVA3n8yWPO06OOG-yHPwpAddkC2elLFNA43NUbHUKKPxWXzu4Qw7c7Ib_OtEmNbZ-cA5Z1XcA0FcK-ifS-31Hg7fMwWPvxcZ1FwqrPbYUiZuJ1tDvHPpv0Dpe3bJa_SdwFViAMZtryPRY0-nNiBbS7G1OlMEbjTHH_0NRtgc8QGTdAA7OzuDGJwmJDX5PF1N66tT2h0_k-B_9tTDONaO7XeyFFCbTGR6n_w7zVjXSDPuiTpcBdSr_1sczZshSKhEznp3V0bUtwIs6XuCYs-gn2ZjTgVAH_zd9EftOP-JlLi4U9zhvkIIJ9LPB-fEEqtniyhoe6vmATNU59UFvctW00?></g></svg>