<?plantuml 1.2026.2?><svg xmlns="http://www.w3.org/2000/svg" xmlns:xlink="http://www.w3.org/1999/xlink" contentStyleType="text/css" data-diagram-type="CLASS" height="1631px" preserveAspectRatio="none" style="width:1307px;height:1631px;background:#FFFFFF;" version="1.1" viewBox="0 0 1307 1631" width="1307px" zoomAndPan="magnify"><title>US033-CD</title><defs/><g><g class="title" data-source-line="1"><text fill="#000000" font-family="sans-serif" font-size="14" font-weight="bold" lengthAdjust="spacing" textLength="76.0293" x="608.4854" y="23.5352">US033-CD</text></g><!--cluster ui--><g class="cluster" data-qualified-name="ui" data-source-line="9" id="ent0004"><rect fill="none" height="248.44" rx="2.5" ry="2.5" style="stroke:#000000;stroke-width:1.5;" width="364" x="37" y="44.4883"/><text fill="#000000" font-family="sans-serif" font-size="14" font-weight="bold" lengthAdjust="spacing" textLength="13.7471" x="212.1265" y="60.0234">ui</text></g><!--cluster console--><g class="cluster" data-qualified-name="ui.console" data-source-line="8" id="ent0002"><rect fill="#DDDDDD" height="181.44" rx="2.5" ry="2.5" style="stroke:#000000;stroke-width:1.5;" width="316" x="61" y="87.4883"/><text fill="#000000" font-family="sans-serif" font-size="14" font-weight="bold" lengthAdjust="spacing" textLength="55.2002" x="191.3999" y="103.0234">console</text></g><!--cluster controller--><g class="cluster" data-qualified-name="controller" data-source-line="18" id="ent0005"><rect fill="#DDDDDD" height="131.98" rx="2.5" ry="2.5" style="stroke:#000000;stroke-width:1.5;" width="274" x="82" y="341.9283"/><text fill="#000000" font-family="sans-serif" font-size="14" font-weight="bold" lengthAdjust="spacing" textLength="70.2393" x="183.8804" y="357.4634">controller</text></g><!--cluster application--><g class="cluster" data-qualified-name="application" data-source-line="25" id="ent0007"><rect fill="#DDDDDD" height="319.19" rx="2.5" ry="2.5" style="stroke:#000000;stroke-width:1.5;" width="388" x="7" y="522.9083"/><text fill="#000000" font-family="sans-serif" font-size="14" font-weight="bold" lengthAdjust="spacing" textLength="79.9326" x="161.0337" y="538.4434">application</text></g><!--cluster domain--><g class="cluster" data-qualified-name="domain" data-source-line="39" id="ent0012"><rect fill="none" height="734.77" rx="2.5" ry="2.5" style="stroke:#000000;stroke-width:1.5;" width="1237" x="64" y="891.0983"/><text fill="#000000" font-family="sans-serif" font-size="14" font-weight="bold" lengthAdjust="spacing" textLength="53.7715" x="655.6143" y="906.6334">domain</text></g><!--cluster user--><g class="cluster" data-qualified-name="domain.user" data-source-line="38" id="ent0010"><rect fill="#DDDDDD" height="525.79" rx="2.5" ry="2.5" style="stroke:#000000;stroke-width:1.5;" width="783" x="88" y="934.0983"/><text fill="#000000" font-family="sans-serif" font-size="14" font-weight="bold" lengthAdjust="spacing" textLength="31.6777" x="463.6611" y="949.6334">user</text></g><!--cluster auth--><g class="cluster" data-qualified-name="domain.auth" data-source-line="77" id="ent0017"><rect fill="#DDDDDD" height="290.44" rx="2.5" ry="2.5" style="stroke:#000000;stroke-width:1.5;" width="382" x="895" y="1311.4283"/><text fill="#000000" font-family="sans-serif" font-size="14" font-weight="bold" lengthAdjust="spacing" textLength="32.293" x="1069.8535" y="1326.9634">auth</text></g><!--cluster repository--><g class="cluster" data-qualified-name="repository" data-source-line="90" id="ent0020"><rect fill="#DDDDDD" height="115.49" rx="2.5" ry="2.5" style="stroke:#000000;stroke-width:1.5;" width="194" x="419" y="718.3683"/><text fill="#000000" font-family="sans-serif" font-size="14" font-weight="bold" lengthAdjust="spacing" textLength="74.3955" x="478.8022" y="733.9034">repository</text></g><!--class ListUsersUI--><g class="entity" data-qualified-name="ui.console.ListUsersUI" data-source-line="9" id="ent0003"><rect fill="#F1F1F1" height="130.4414" rx="2.5" ry="2.5" style="stroke:#181818;stroke-width:0.5;" width="284.3232" x="76.84" y="122.4883"/><ellipse cx="177.1916" cy="138.4883" fill="#C2C2C2" rx="11" ry="11" style="stroke:#181818;stroke-width:1;"/><path d="M180.1647,144.1313 Q179.5837,144.4302 178.9445,144.5796 Q178.3053,144.729 177.5998,144.729 Q175.0929,144.729 173.7731,143.0771 Q172.4533,141.4253 172.4533,138.3042 Q172.4533,135.1748 173.7731,133.5229 Q175.0929,131.8711 177.5998,131.8711 Q178.3053,131.8711 178.9528,132.0205 Q179.6003,132.1699 180.1647,132.4688 L180.1647,135.1914 Q179.5338,134.6104 178.9403,134.3406 Q178.3468,134.0708 177.716,134.0708 Q176.3713,134.0708 175.6864,135.1375 Q175.0016,136.2041 175.0016,138.3042 Q175.0016,140.396 175.6864,141.4626 Q176.3713,142.5293 177.716,142.5293 Q178.3468,142.5293 178.9403,142.2595 Q179.5338,141.9897 180.1647,141.4087 Z " fill="#000000"/><text fill="#000000" font-family="sans-serif" font-size="14" lengthAdjust="spacing" textLength="75.1201" x="197.6916" y="143.7793">ListUsersUI</text><line style="stroke:#181818;stroke-width:0.5;" x1="77.84" x2="360.1632" y1="154.4883" y2="154.4883"/><text fill="#000000" font-family="sans-serif" font-size="14" lengthAdjust="spacing" textLength="212.1533" x="82.84" y="172.0234">-controller: ListUsersController</text><line style="stroke:#181818;stroke-width:0.5;" x1="77.84" x2="360.1632" y1="178.9766" y2="178.9766"/><text fill="#000000" font-family="sans-serif" font-size="14" lengthAdjust="spacing" textLength="80.9033" x="82.84" y="196.5117">+run(): void</text><text fill="#000000" font-family="sans-serif" font-size="14" lengthAdjust="spacing" textLength="265.0566" x="82.84" y="213">+displayUsers(users: List&lt;User&gt;): void</text><text fill="#000000" font-family="sans-serif" font-size="14" lengthAdjust="spacing" textLength="272.3232" x="82.84" y="229.4883">+displayMessage(message: String): void</text><text fill="#000000" font-family="sans-serif" font-size="14" lengthAdjust="spacing" textLength="247.3037" x="82.84" y="245.9766">+displayError(message: String): void</text></g><!--class ListUsersController--><g class="entity" data-qualified-name="controller.ListUsersController" data-source-line="19" id="ent0006"><rect fill="#F1F1F1" height="80.9766" rx="2.5" ry="2.5" style="stroke:#181818;stroke-width:0.5;" width="242.9795" x="97.51" y="376.9283"/><ellipse cx="149.9758" cy="392.9283" fill="#C2C2C2" rx="11" ry="11" style="stroke:#181818;stroke-width:1;"/><path d="M152.949,398.5713 Q152.3679,398.8702 151.7288,399.0196 Q151.0896,399.169 150.384,399.169 Q147.8772,399.169 146.5574,397.5171 Q145.2375,395.8653 145.2375,392.7442 Q145.2375,389.6148 146.5574,387.9629 Q147.8772,386.3111 150.384,386.3111 Q151.0896,386.3111 151.7371,386.4605 Q152.3845,386.6099 152.949,386.9088 L152.949,389.6314 Q152.3181,389.0504 151.7246,388.7806 Q151.1311,388.5108 150.5002,388.5108 Q149.1555,388.5108 148.4707,389.5775 Q147.7859,390.6441 147.7859,392.7442 Q147.7859,394.836 148.4707,395.9026 Q149.1555,396.9693 150.5002,396.9693 Q151.1311,396.9693 151.7246,396.6995 Q152.3181,396.4297 152.949,395.8487 Z " fill="#000000"/><text fill="#000000" font-family="sans-serif" font-size="14" lengthAdjust="spacing" textLength="129.5479" x="170.4758" y="398.2193">ListUsersController</text><line style="stroke:#181818;stroke-width:0.5;" x1="98.51" x2="339.4895" y1="408.9283" y2="408.9283"/><text fill="#000000" font-family="sans-serif" font-size="14" lengthAdjust="spacing" textLength="230.9795" x="103.51" y="426.4634">-listUsersService: ListUsersService</text><line style="stroke:#181818;stroke-width:0.5;" x1="98.51" x2="339.4895" y1="433.4166" y2="433.4166"/><text fill="#000000" font-family="sans-serif" font-size="14" lengthAdjust="spacing" textLength="163.5703" x="103.51" y="450.9517">+listUsers(): List&lt;User&gt;</text></g><!--class ListUsersService--><g class="entity" data-qualified-name="application.ListUsersService" data-source-line="26" id="ent0008"><rect fill="#F1F1F1" height="97.4648" rx="2.5" ry="2.5" style="stroke:#181818;stroke-width:0.5;" width="307.6475" x="65.18" y="557.9083"/><ellipse cx="160.3944" cy="573.9083" fill="#C2C2C2" rx="11" ry="11" style="stroke:#181818;stroke-width:1;"/><path d="M163.3675,579.5513 Q162.7864,579.8502 162.1473,579.9996 Q161.5081,580.149 160.8026,580.149 Q158.2957,580.149 156.9759,578.4971 Q155.6561,576.8453 155.6561,573.7242 Q155.6561,570.5948 156.9759,568.9429 Q158.2957,567.2911 160.8026,567.2911 Q161.5081,567.2911 162.1556,567.4405 Q162.803,567.5899 163.3675,567.8888 L163.3675,570.6114 Q162.7366,570.0304 162.1431,569.7606 Q161.5496,569.4908 160.9188,569.4908 Q159.574,569.4908 158.8892,570.5575 Q158.2044,571.6241 158.2044,573.7242 Q158.2044,575.816 158.8892,576.8826 Q159.574,577.9493 160.9188,577.9493 Q161.5496,577.9493 162.1431,577.6795 Q162.7366,577.4097 163.3675,576.8287 Z " fill="#000000"/><text fill="#000000" font-family="sans-serif" font-size="14" lengthAdjust="spacing" textLength="108.7188" x="180.8944" y="579.1993">ListUsersService</text><line style="stroke:#181818;stroke-width:0.5;" x1="66.18" x2="371.8275" y1="589.9083" y2="589.9083"/><text fill="#000000" font-family="sans-serif" font-size="14" lengthAdjust="spacing" textLength="220.9307" x="71.18" y="607.4434">-userRepository: UserRepository</text><text fill="#000000" font-family="sans-serif" font-size="14" lengthAdjust="spacing" textLength="295.6475" x="71.18" y="623.9317">-authorizationService: AuthorizationService</text><line style="stroke:#181818;stroke-width:0.5;" x1="66.18" x2="371.8275" y1="630.8848" y2="630.8848"/><text fill="#000000" font-family="sans-serif" font-size="14" lengthAdjust="spacing" textLength="163.5703" x="71.18" y="648.42">+listUsers(): List&lt;User&gt;</text></g><!--class AuthorizationService--><g class="entity" data-qualified-name="application.AuthorizationService" data-source-line="32" id="ent0009"><rect fill="#F1F1F1" height="80.9766" rx="2.5" ry="2.5" style="stroke:#181818;stroke-width:0.5;" width="355.2324" x="23.38" y="745.1283"/><ellipse cx="126.5924" cy="761.1283" fill="#C2C2C2" rx="11" ry="11" style="stroke:#181818;stroke-width:1;"/><path d="M129.5655,766.7713 Q128.9845,767.0702 128.3453,767.2196 Q127.7062,767.369 127.0006,767.369 Q124.4938,767.369 123.1739,765.7171 Q121.8541,764.0653 121.8541,760.9442 Q121.8541,757.8148 123.1739,756.1629 Q124.4938,754.5111 127.0006,754.5111 Q127.7062,754.5111 128.3536,754.6605 Q129.0011,754.8099 129.5655,755.1088 L129.5655,757.8314 Q128.9347,757.2504 128.3412,756.9806 Q127.7477,756.7108 127.1168,756.7108 Q125.7721,756.7108 125.0873,757.7775 Q124.4025,758.8441 124.4025,760.9442 Q124.4025,763.036 125.0873,764.1026 Q125.7721,765.1693 127.1168,765.1693 Q127.7477,765.1693 128.3412,764.8995 Q128.9347,764.6297 129.5655,764.0487 Z " fill="#000000"/><text fill="#000000" font-family="sans-serif" font-size="14" lengthAdjust="spacing" textLength="140.3076" x="147.0924" y="766.4193">AuthorizationService</text><line style="stroke:#181818;stroke-width:0.5;" x1="24.38" x2="377.6124" y1="777.1283" y2="777.1283"/><line style="stroke:#181818;stroke-width:0.5;" x1="24.38" x2="377.6124" y1="785.1283" y2="785.1283"/><text fill="#000000" font-family="sans-serif" font-size="14" lengthAdjust="spacing" textLength="332.6777" x="29.38" y="802.6634">+isAuthorized(permissionName: String): boolean</text><text fill="#000000" font-family="sans-serif" font-size="14" lengthAdjust="spacing" textLength="343.2324" x="29.38" y="819.1517">+requirePermission(permissionName: String): void</text></g><!--class User--><g class="entity" data-qualified-name="domain.user.User" data-source-line="39" id="ent0011"><rect fill="#F1F1F1" height="295.3242" rx="2.5" ry="2.5" style="stroke:#181818;stroke-width:0.5;" width="350.8369" x="340.58" y="969.0983"/><ellipse cx="496.5658" cy="985.0983" fill="#C2C2C2" rx="11" ry="11" style="stroke:#181818;stroke-width:1;"/><path d="M499.539,990.7413 Q498.9579,991.0402 498.3188,991.1896 Q497.6796,991.339 496.974,991.339 Q494.4672,991.339 493.1474,989.6871 Q491.8276,988.0353 491.8276,984.9142 Q491.8276,981.7848 493.1474,980.1329 Q494.4672,978.4811 496.974,978.4811 Q497.6796,978.4811 498.3271,978.6305 Q498.9745,978.7799 499.539,979.0788 L499.539,981.8014 Q498.9081,981.2204 498.3146,980.9506 Q497.7211,980.6808 497.0903,980.6808 Q495.7455,980.6808 495.0607,981.7475 Q494.3759,982.8141 494.3759,984.9142 Q494.3759,987.006 495.0607,988.0726 Q495.7455,989.1393 497.0903,989.1393 Q497.7211,989.1393 498.3146,988.8695 Q498.9081,988.5997 499.539,988.0187 Z " fill="#000000"/><text fill="#000000" font-family="sans-serif" font-size="14" lengthAdjust="spacing" textLength="30.3652" x="517.0658" y="990.3893">User</text><line style="stroke:#181818;stroke-width:0.5;" x1="341.58" x2="690.4169" y1="1001.0983" y2="1001.0983"/><text fill="#000000" font-family="sans-serif" font-size="14" lengthAdjust="spacing" textLength="90.1387" x="346.58" y="1018.6334">-email: Email</text><text fill="#000000" font-family="sans-serif" font-size="14" lengthAdjust="spacing" textLength="94.2197" x="346.58" y="1035.1217">-name: String</text><text fill="#000000" font-family="sans-serif" font-size="14" lengthAdjust="spacing" textLength="209.9453" x="346.58" y="1051.61">-phoneNumber: PhoneNumber</text><text fill="#000000" font-family="sans-serif" font-size="14" lengthAdjust="spacing" textLength="124.9268" x="346.58" y="1068.0983">-enabled: boolean</text><text fill="#000000" font-family="sans-serif" font-size="14" lengthAdjust="spacing" textLength="122.4043" x="346.58" y="1084.5866">-roles: Set&lt;Role&gt;</text><text fill="#000000" font-family="sans-serif" font-size="14" lengthAdjust="spacing" textLength="256.375" x="346.58" y="1101.0748">-securityClearance: SecurityClearance</text><text fill="#000000" font-family="sans-serif" font-size="14" lengthAdjust="spacing" textLength="248.1582" x="346.58" y="1117.5631">-skillsAssessment: SkillsAssessment</text><line style="stroke:#181818;stroke-width:0.5;" x1="341.58" x2="690.4169" y1="1124.5163" y2="1124.5163"/><text fill="#000000" font-family="sans-serif" font-size="14" lengthAdjust="spacing" textLength="102.2725" x="346.58" y="1142.0514">+email(): Email</text><text fill="#000000" font-family="sans-serif" font-size="14" lengthAdjust="spacing" textLength="106.3535" x="346.58" y="1158.5397">+name(): String</text><text fill="#000000" font-family="sans-serif" font-size="14" lengthAdjust="spacing" textLength="222.0791" x="346.58" y="1175.028">+phoneNumber(): PhoneNumber</text><text fill="#000000" font-family="sans-serif" font-size="14" lengthAdjust="spacing" textLength="134.5381" x="346.58" y="1191.5163">+roles(): Set&lt;Role&gt;</text><text fill="#000000" font-family="sans-serif" font-size="14" lengthAdjust="spacing" textLength="110.2295" x="346.58" y="1208.0045">+status(): String</text><text fill="#000000" font-family="sans-serif" font-size="14" lengthAdjust="spacing" textLength="148.0322" x="346.58" y="1224.4928">+isEnabled(): boolean</text><text fill="#000000" font-family="sans-serif" font-size="14" lengthAdjust="spacing" textLength="153.4258" x="346.58" y="1240.9811">+isDisabled(): boolean</text><text fill="#000000" font-family="sans-serif" font-size="14" lengthAdjust="spacing" textLength="338.8369" x="346.58" y="1257.4694">+hasPermission(permission: Permission): boolean</text></g><!--class Email--><g class="entity" data-qualified-name="domain.user.Email" data-source-line="57" id="ent0013"><rect fill="#F1F1F1" height="80.9766" rx="2.5" ry="2.5" style="stroke:#181818;stroke-width:0.5;" width="116.5762" x="103.71" y="1362.9183"/><ellipse cx="140.3517" cy="1378.9183" fill="#C2C2C2" rx="11" ry="11" style="stroke:#181818;stroke-width:1;"/><path d="M143.3249,1384.5613 Q142.7438,1384.8602 142.1047,1385.0096 Q141.4655,1385.159 140.76,1385.159 Q138.2531,1385.159 136.9333,1383.5071 Q135.6135,1381.8553 135.6135,1378.7342 Q135.6135,1375.6048 136.9333,1373.9529 Q138.2531,1372.3011 140.76,1372.3011 Q141.4655,1372.3011 142.113,1372.4505 Q142.7604,1372.5999 143.3249,1372.8988 L143.3249,1375.6214 Q142.694,1375.0404 142.1005,1374.7706 Q141.507,1374.5008 140.8762,1374.5008 Q139.5314,1374.5008 138.8466,1375.5675 Q138.1618,1376.6341 138.1618,1378.7342 Q138.1618,1380.826 138.8466,1381.8926 Q139.5314,1382.9593 140.8762,1382.9593 Q141.507,1382.9593 142.1005,1382.6895 Q142.694,1382.4197 143.3249,1381.8387 Z " fill="#000000"/><text fill="#000000" font-family="sans-serif" font-size="14" lengthAdjust="spacing" textLength="36.4834" x="159.161" y="1384.2093">Email</text><line style="stroke:#181818;stroke-width:0.5;" x1="104.71" x2="219.2862" y1="1394.9183" y2="1394.9183"/><text fill="#000000" font-family="sans-serif" font-size="14" lengthAdjust="spacing" textLength="92.4424" x="109.71" y="1412.4534">-value: String</text><line style="stroke:#181818;stroke-width:0.5;" x1="104.71" x2="219.2862" y1="1419.4066" y2="1419.4066"/><text fill="#000000" font-family="sans-serif" font-size="14" lengthAdjust="spacing" textLength="104.5762" x="109.71" y="1436.9417">+value(): String</text></g><!--class PhoneNumber--><g class="entity" data-qualified-name="domain.user.PhoneNumber" data-source-line="62" id="ent0014"><rect fill="#F1F1F1" height="80.9766" rx="2.5" ry="2.5" style="stroke:#181818;stroke-width:0.5;" width="127.9561" x="255.02" y="1362.9183"/><ellipse cx="270.02" cy="1378.9183" fill="#C2C2C2" rx="11" ry="11" style="stroke:#181818;stroke-width:1;"/><path d="M272.9931,1384.5613 Q272.4121,1384.8602 271.7729,1385.0096 Q271.1338,1385.159 270.4282,1385.159 Q267.9214,1385.159 266.6015,1383.5071 Q265.2817,1381.8553 265.2817,1378.7342 Q265.2817,1375.6048 266.6015,1373.9529 Q267.9214,1372.3011 270.4282,1372.3011 Q271.1338,1372.3011 271.7812,1372.4505 Q272.4287,1372.5999 272.9931,1372.8988 L272.9931,1375.6214 Q272.3623,1375.0404 271.7688,1374.7706 Q271.1753,1374.5008 270.5444,1374.5008 Q269.1997,1374.5008 268.5149,1375.5675 Q267.8301,1376.6341 267.8301,1378.7342 Q267.8301,1380.826 268.5149,1381.8926 Q269.1997,1382.9593 270.5444,1382.9593 Q271.1753,1382.9593 271.7688,1382.6895 Q272.3623,1382.4197 272.9931,1381.8387 Z " fill="#000000"/><text fill="#000000" font-family="sans-serif" font-size="14" lengthAdjust="spacing" textLength="95.9561" x="284.02" y="1384.2093">PhoneNumber</text><line style="stroke:#181818;stroke-width:0.5;" x1="256.02" x2="381.9761" y1="1394.9183" y2="1394.9183"/><text fill="#000000" font-family="sans-serif" font-size="14" lengthAdjust="spacing" textLength="92.4424" x="261.02" y="1412.4534">-value: String</text><line style="stroke:#181818;stroke-width:0.5;" x1="256.02" x2="381.9761" y1="1419.4066" y2="1419.4066"/><text fill="#000000" font-family="sans-serif" font-size="14" lengthAdjust="spacing" textLength="104.5762" x="261.02" y="1436.9417">+value(): String</text></g><!--class SecurityClearance--><g class="entity" data-qualified-name="domain.user.SecurityClearance" data-source-line="67" id="ent0015"><rect fill="#F1F1F1" height="64.4883" rx="2.5" ry="2.5" style="stroke:#181818;stroke-width:0.5;" width="195.7568" x="418.12" y="1371.1583"/><ellipse cx="452.8514" cy="1387.1583" fill="#C2C2C2" rx="11" ry="11" style="stroke:#181818;stroke-width:1;"/><path d="M455.8246,1392.8013 Q455.2435,1393.1002 454.6044,1393.2496 Q453.9652,1393.399 453.2596,1393.399 Q450.7528,1393.399 449.433,1391.7471 Q448.1132,1390.0953 448.1132,1386.9742 Q448.1132,1383.8448 449.433,1382.1929 Q450.7528,1380.5411 453.2596,1380.5411 Q453.9652,1380.5411 454.6127,1380.6905 Q455.2601,1380.8399 455.8246,1381.1388 L455.8246,1383.8614 Q455.1937,1383.2804 454.6002,1383.0106 Q454.0067,1382.7408 453.3759,1382.7408 Q452.0311,1382.7408 451.3463,1383.8075 Q450.6615,1384.8741 450.6615,1386.9742 Q450.6615,1389.066 451.3463,1390.1326 Q452.0311,1391.1993 453.3759,1391.1993 Q454.0067,1391.1993 454.6002,1390.9295 Q455.1937,1390.6597 455.8246,1390.0787 Z " fill="#000000"/><text fill="#000000" font-family="sans-serif" font-size="14" lengthAdjust="spacing" textLength="119.9092" x="471.2362" y="1392.4493">SecurityClearance</text><line style="stroke:#181818;stroke-width:0.5;" x1="419.12" x2="612.8768" y1="1403.1583" y2="1403.1583"/><text fill="#000000" font-family="sans-serif" font-size="14" lengthAdjust="spacing" textLength="183.7568" x="424.12" y="1420.6934">-expirationDate: LocalDate</text><line style="stroke:#181818;stroke-width:0.5;" x1="419.12" x2="612.8768" y1="1427.6466" y2="1427.6466"/></g><!--class SkillsAssessment--><g class="entity" data-qualified-name="domain.user.SkillsAssessment" data-source-line="71" id="ent0016"><rect fill="#F1F1F1" height="80.9766" rx="2.5" ry="2.5" style="stroke:#181818;stroke-width:0.5;" width="205.3545" x="649.32" y="1362.9183"/><ellipse cx="690.2192" cy="1378.9183" fill="#C2C2C2" rx="11" ry="11" style="stroke:#181818;stroke-width:1;"/><path d="M693.1923,1384.5613 Q692.6113,1384.8602 691.9721,1385.0096 Q691.3329,1385.159 690.6274,1385.159 Q688.1205,1385.159 686.8007,1383.5071 Q685.4809,1381.8553 685.4809,1378.7342 Q685.4809,1375.6048 686.8007,1373.9529 Q688.1205,1372.3011 690.6274,1372.3011 Q691.3329,1372.3011 691.9804,1372.4505 Q692.6279,1372.5999 693.1923,1372.8988 L693.1923,1375.6214 Q692.5615,1375.0404 691.9679,1374.7706 Q691.3744,1374.5008 690.7436,1374.5008 Q689.3989,1374.5008 688.714,1375.5675 Q688.0292,1376.6341 688.0292,1378.7342 Q688.0292,1380.826 688.714,1381.8926 Q689.3989,1382.9593 690.7436,1382.9593 Q691.3744,1382.9593 691.9679,1382.6895 Q692.5615,1382.4197 693.1923,1381.8387 Z " fill="#000000"/><text fill="#000000" font-family="sans-serif" font-size="14" lengthAdjust="spacing" textLength="115.8008" x="709.9745" y="1384.2093">SkillsAssessment</text><line style="stroke:#181818;stroke-width:0.5;" x1="650.32" x2="853.6745" y1="1394.9183" y2="1394.9183"/><text fill="#000000" font-family="sans-serif" font-size="14" lengthAdjust="spacing" textLength="193.3545" x="655.32" y="1412.4534">-assessmentDate: LocalDate</text><text fill="#000000" font-family="sans-serif" font-size="14" lengthAdjust="spacing" textLength="189.2666" x="655.32" y="1428.9417">-validityPeriodInMonths: int</text><line style="stroke:#181818;stroke-width:0.5;" x1="650.32" x2="853.6745" y1="1435.8948" y2="1435.8948"/></g><!--class Role--><g class="entity" data-qualified-name="domain.auth.Role" data-source-line="78" id="ent0018"><rect fill="#F1F1F1" height="113.9531" rx="2.5" ry="2.5" style="stroke:#181818;stroke-width:0.5;" width="350.8369" x="910.58" y="1346.4283"/><ellipse cx="1067.099" cy="1362.4283" fill="#C2C2C2" rx="11" ry="11" style="stroke:#181818;stroke-width:1;"/><path d="M1070.0722,1368.0713 Q1069.4911,1368.3702 1068.852,1368.5196 Q1068.2128,1368.669 1067.5072,1368.669 Q1065.0004,1368.669 1063.6806,1367.0171 Q1062.3608,1365.3653 1062.3608,1362.2442 Q1062.3608,1359.1148 1063.6806,1357.4629 Q1065.0004,1355.8111 1067.5072,1355.8111 Q1068.2128,1355.8111 1068.8603,1355.9605 Q1069.5077,1356.1099 1070.0722,1356.4088 L1070.0722,1359.1314 Q1069.4413,1358.5504 1068.8478,1358.2806 Q1068.2543,1358.0108 1067.6235,1358.0108 Q1066.2787,1358.0108 1065.5939,1359.0775 Q1064.9091,1360.1441 1064.9091,1362.2442 Q1064.9091,1364.336 1065.5939,1365.4026 Q1066.2787,1366.4693 1067.6235,1366.4693 Q1068.2543,1366.4693 1068.8478,1366.1995 Q1069.4413,1365.9297 1070.0722,1365.3487 Z " fill="#000000"/><text fill="#000000" font-family="sans-serif" font-size="14" lengthAdjust="spacing" textLength="29.2988" x="1087.599" y="1367.7193">Role</text><line style="stroke:#181818;stroke-width:0.5;" x1="911.58" x2="1260.4169" y1="1378.4283" y2="1378.4283"/><text fill="#000000" font-family="sans-serif" font-size="14" lengthAdjust="spacing" textLength="94.2197" x="916.58" y="1395.9634">-name: String</text><text fill="#000000" font-family="sans-serif" font-size="14" lengthAdjust="spacing" textLength="215.9883" x="916.58" y="1412.4517">-permissions: Set&lt;Permission&gt;</text><line style="stroke:#181818;stroke-width:0.5;" x1="911.58" x2="1260.4169" y1="1419.4048" y2="1419.4048"/><text fill="#000000" font-family="sans-serif" font-size="14" lengthAdjust="spacing" textLength="106.3535" x="916.58" y="1436.94">+name(): String</text><text fill="#000000" font-family="sans-serif" font-size="14" lengthAdjust="spacing" textLength="338.8369" x="916.58" y="1453.4283">+hasPermission(permission: Permission): boolean</text></g><!--class Permission--><g class="entity" data-qualified-name="domain.auth.Permission" data-source-line="85" id="ent0019"><rect fill="#F1F1F1" height="64.4883" rx="2.5" ry="2.5" style="stroke:#181818;stroke-width:0.5;" width="106.2197" x="1032.89" y="1521.3783"/><ellipse cx="1047.9924" cy="1537.3783" fill="#C2C2C2" rx="11" ry="11" style="stroke:#181818;stroke-width:1;"/><path d="M1050.9655,1543.0213 Q1050.3845,1543.3202 1049.7453,1543.4696 Q1049.1062,1543.619 1048.4006,1543.619 Q1045.8938,1543.619 1044.5739,1541.9671 Q1043.2541,1540.3153 1043.2541,1537.1942 Q1043.2541,1534.0648 1044.5739,1532.4129 Q1045.8938,1530.7611 1048.4006,1530.7611 Q1049.1062,1530.7611 1049.7536,1530.9105 Q1050.4011,1531.0599 1050.9655,1531.3588 L1050.9655,1534.0814 Q1050.3347,1533.5004 1049.7412,1533.2306 Q1049.1477,1532.9608 1048.5168,1532.9608 Q1047.1721,1532.9608 1046.4873,1534.0275 Q1045.8025,1535.0941 1045.8025,1537.1942 Q1045.8025,1539.286 1046.4873,1540.3526 Q1047.1721,1541.4193 1048.5168,1541.4193 Q1049.1477,1541.4193 1049.7412,1541.1495 Q1050.3347,1540.8797 1050.9655,1540.2987 Z " fill="#000000"/><text fill="#000000" font-family="sans-serif" font-size="14" lengthAdjust="spacing" textLength="73.9922" x="1062.0151" y="1542.6693">Permission</text><line style="stroke:#181818;stroke-width:0.5;" x1="1033.89" x2="1138.1097" y1="1553.3783" y2="1553.3783"/><text fill="#000000" font-family="sans-serif" font-size="14" lengthAdjust="spacing" textLength="94.2197" x="1038.89" y="1570.9134">-name: String</text><line style="stroke:#181818;stroke-width:0.5;" x1="1033.89" x2="1138.1097" y1="1577.8666" y2="1577.8666"/></g><!--class UserRepository--><g class="entity" data-qualified-name="repository.UserRepository" data-source-line="91" id="ent0021"><rect fill="#F1F1F1" height="64.4883" rx="2.5" ry="2.5" style="stroke:#181818;stroke-width:0.5;" width="162.0488" x="434.98" y="753.3683"/><ellipse cx="462.3809" cy="769.3683" fill="#B1B1B1" rx="11" ry="11" style="stroke:#181818;stroke-width:1;"/><path d="M458.3087,765.1334 L458.3087,762.9752 L465.6881,762.9752 L465.6881,765.1334 L463.2227,765.1334 L463.2227,773.2101 L465.6881,773.2101 L465.6881,775.3683 L458.3087,775.3683 L458.3087,773.2101 L460.774,773.2101 L460.774,765.1334 Z " fill="#000000"/><text fill="#000000" font-family="sans-serif" font-size="14" font-style="italic" lengthAdjust="spacing" textLength="102.4912" x="479.1367" y="774.6593">UserRepository</text><line style="stroke:#181818;stroke-width:0.5;" x1="435.98" x2="596.0288" y1="785.3683" y2="785.3683"/><line style="stroke:#181818;stroke-width:0.5;" x1="435.98" x2="596.0288" y1="793.3683" y2="793.3683"/><text fill="#000000" font-family="sans-serif" font-size="14" lengthAdjust="spacing" textLength="150.0488" x="440.98" y="810.9034">+findAll(): List&lt;User&gt;</text></g><!--link ListUsersUI to ListUsersController--><g class="link" data-entity-1="ent0003" data-entity-2="ent0006" data-link-type="dependency" data-source-line="96" id="lnk22"><path codeLine="96" d="M219,253.3483 C219,293.0583 219,336.6583 219,370.6683" fill="none" id="ListUsersUI-to-ListUsersController" style="stroke:#181818;stroke-width:1;"/><polygon fill="#181818" points="219,376.6683,223,367.6683,219,371.6683,215,367.6683,219,376.6683" style="stroke:#181818;stroke-width:1;"/><polygon fill="#000000" points="224,322.5836,226.9389,313.5385,221.0611,313.5385,224,322.5836" style="stroke:#000000;stroke-width:1;"/><text fill="#000000" font-family="sans-serif" font-size="13" lengthAdjust="spacing" textLength="28.5645" x="233" y="322.4966">uses</text></g><!--link ListUsersController to ListUsersService--><g class="link" data-entity-1="ent0006" data-entity-2="ent0008" data-link-type="dependency" data-source-line="97" id="lnk23"><path codeLine="97" d="M219,458.1183 C219,487.2083 219,520.8383 219,551.6883" fill="none" id="ListUsersController-to-ListUsersService" style="stroke:#181818;stroke-width:1;"/><polygon fill="#181818" points="219,557.6883,223,548.6883,219,552.6883,215,548.6883,219,557.6883" style="stroke:#181818;stroke-width:1;"/><polygon fill="#000000" points="224,503.5636,226.9389,494.5185,221.0611,494.5185,224,503.5636" style="stroke:#000000;stroke-width:1;"/><text fill="#000000" font-family="sans-serif" font-size="13" lengthAdjust="spacing" textLength="28.5645" x="233" y="503.4766">uses</text></g><!--link ListUsersService to AuthorizationService--><g class="link" data-entity-1="ent0008" data-entity-2="ent0009" data-link-type="dependency" data-source-line="98" id="lnk24"><path codeLine="98" d="M214.13,655.5283 C211.29,683.4783 208.3473,712.3491 205.6573,738.7891" fill="none" id="ListUsersService-to-AuthorizationService" style="stroke:#181818;stroke-width:1;"/><polygon fill="#181818" points="205.05,744.7583,209.9404,736.2094,205.5561,739.784,201.9815,735.3996,205.05,744.7583" style="stroke:#181818;stroke-width:1;"/><polygon fill="#000000" points="215.5738,698.9979,219.4133,690.2968,213.5657,689.7017,215.5738,698.9979" style="stroke:#000000;stroke-width:1;"/><text fill="#000000" font-family="sans-serif" font-size="13" lengthAdjust="spacing" textLength="116.6699" x="225.08" y="698.9366">checks permission</text></g><!--link ListUsersService to UserRepository--><g class="link" data-entity-1="ent0008" data-entity-2="ent0021" data-link-type="dependency" data-source-line="99" id="lnk25"><path codeLine="99" d="M302.48,655.8683 C331.82,672.9383 364.95,692.3783 395,710.3683 C418.05,724.1683 438.3018,736.5308 459.8218,749.7908" fill="none" id="ListUsersService-to-UserRepository" style="stroke:#181818;stroke-width:1;"/><polygon fill="#181818" points="464.93,752.9383,459.3661,744.8116,460.6732,750.3154,455.1694,751.6225,464.93,752.9383" style="stroke:#181818;stroke-width:1;"/><polygon fill="#000000" points="390.1033,696.5863,383.843,689.4267,380.8303,694.4737,390.1033,696.5863" style="stroke:#000000;stroke-width:1;"/><text fill="#000000" font-family="sans-serif" font-size="13" lengthAdjust="spacing" textLength="54.3423" x="394.81" y="698.9366">retrieves</text></g><!--link UserRepository to User--><g class="link" data-entity-1="ent0021" data-entity-2="ent0011" data-link-type="dependency" data-source-line="100" id="lnk26"><path codeLine="100" d="M516,818.1783 C516,853.2483 516,906.4083 516,962.7783" fill="none" id="UserRepository-to-User" style="stroke:#181818;stroke-width:1;"/><polygon fill="#181818" points="516,968.7783,520,959.7783,516,963.7783,512,959.7783,516,968.7783" style="stroke:#181818;stroke-width:1;"/><polygon fill="#000000" points="521,871.7536,523.9389,862.7085,518.0611,862.7085,521,871.7536" style="stroke:#000000;stroke-width:1;"/><text fill="#000000" font-family="sans-serif" font-size="13" lengthAdjust="spacing" textLength="45.5063" x="530" y="871.6666">returns</text></g><!--reverse link User to Email--><g class="link" data-entity-1="ent0011" data-entity-2="ent0013" data-link-type="composition" data-source-line="102" id="lnk27"><path codeLine="102" d="M330.4732,1229.1881 C294.9632,1253.7681 268.93,1274.4783 238,1303.4283 C219.18,1321.0483 201.43,1343.6683 187.83,1362.8383" fill="none" id="User-backto-Email" style="stroke:#181818;stroke-width:1;"/><polygon fill="#181818" points="340.34,1222.3583,333.13,1222.4842,330.4732,1229.1881,337.6832,1229.0621,340.34,1222.3583" style="stroke:#181818;stroke-width:1;"/></g><!--reverse link User to PhoneNumber--><g class="link" data-entity-1="ent0011" data-entity-2="ent0014" data-link-type="composition" data-source-line="103" id="lnk28"><path codeLine="103" d="M407.5002,1274.5351 C382.4702,1310.6951 364.55,1336.5883 346.54,1362.6083" fill="none" id="User-backto-PhoneNumber" style="stroke:#181818;stroke-width:1;"/><polygon fill="#181818" points="414.33,1264.6683,407.6262,1267.3251,407.5002,1274.5351,414.204,1271.8783,414.33,1264.6683" style="stroke:#181818;stroke-width:1;"/></g><!--reverse link User to SecurityClearance--><g class="link" data-entity-1="ent0011" data-entity-2="ent0015" data-link-type="composition" data-source-line="104" id="lnk29"><path codeLine="104" d="M516,1276.6683 C516,1316.7683 516,1344.3883 516,1370.7583" fill="none" id="User-backto-SecurityClearance" style="stroke:#181818;stroke-width:1;"/><polygon fill="#181818" points="516,1264.6683,512,1270.6683,516,1276.6683,520,1270.6683,516,1264.6683" style="stroke:#181818;stroke-width:1;"/></g><!--reverse link User to SkillsAssessment--><g class="link" data-entity-1="ent0011" data-entity-2="ent0016" data-link-type="composition" data-source-line="105" id="lnk30"><path codeLine="105" d="M645.4591,1273.9062 C675.4391,1310.0662 697.43,1336.5883 719.01,1362.6083" fill="none" id="User-backto-SkillsAssessment" style="stroke:#181818;stroke-width:1;"/><polygon fill="#181818" points="637.8,1264.6683,638.5502,1271.8403,645.4591,1273.9062,644.7088,1266.7342,637.8,1264.6683" style="stroke:#181818;stroke-width:1;"/></g><!--reverse link User to Role--><g class="link" data-entity-1="ent0011" data-entity-2="ent0018" data-link-type="aggregation" data-source-line="106" id="lnk31"><path codeLine="106" d="M702.4057,1210.8497 C794.1557,1256.6697 893,1306.0283 973.33,1346.1383" fill="none" id="User-backto-Role" style="stroke:#181818;stroke-width:1;"/><polygon fill="none" points="691.67,1205.4883,695.2507,1211.7476,702.4057,1210.8497,698.825,1204.5904,691.67,1205.4883" style="stroke:#181818;stroke-width:1;"/><text fill="#000000" font-family="sans-serif" font-size="13" lengthAdjust="spacing" textLength="8.2202" x="699.2545" y="1206.49">1</text><text fill="#000000" font-family="sans-serif" font-size="13" lengthAdjust="spacing" textLength="22.7119" x="936.3013" y="1335.8321">1..*</text></g><!--reverse link Role to Permission--><g class="link" data-entity-1="ent0018" data-entity-2="ent0019" data-link-type="aggregation" data-source-line="107" id="lnk32"><path codeLine="107" d="M1086,1472.8583 C1086,1493.3183 1086,1503.6683 1086,1521.1983" fill="none" id="Role-backto-Permission" style="stroke:#181818;stroke-width:1;"/><polygon fill="none" points="1086,1460.8583,1082,1466.8583,1086,1472.8583,1090,1466.8583,1086,1460.8583" style="stroke:#181818;stroke-width:1;"/><text fill="#000000" font-family="sans-serif" font-size="13" lengthAdjust="spacing" textLength="8.2202" x="1077.5504" y="1480.9548">1</text><text fill="#000000" font-family="sans-serif" font-size="13" lengthAdjust="spacing" textLength="6.2651" x="1079.4086" y="1510.5643">*</text></g><?plantuml-src hLN1Rk8m4BtdAopsmXQ1MlKMLKYez51fMrMD-02J36I4OsTjXrswwh-lRK9Y1zDMsiq1afatatappnEDcW5PPTUtjzFxPPAe7VAQIbgHId2Hbr9KGBHimFFKDD_HBMJwO48bv9hoBVC1ggI5-8LyIpQKAT-JCwhKGck9wqR3OovuXcz0hfEaJKf63SwCMGa68_9jwIxo9o7cSi7a1ogzKY3Lwh6rssjAJ92MWZ6GQO-vxumTSa9amyVVKx8NM7ZM0bNDwC65ZHlxUynpPotpY_WdKChKFQwE_od933c-lOX_a5B8Zz3loRlNZPxL9ztecGPTOIT_1dAFENYzQIrUYHtOjgVd7YcBrZN3d6eK_9EwshS4HTdkla8j56eX3obP1SyUa3Qw51BVt8iw1ek8zSiil1fZURmw9mJL2GB5k0PPeL86-amhVt9hORHAkIym-DcWX9SkudBmXR4NegB8PxPHyVvQIa5FmGImb3pOFy_ClTTvvheK79wRQcrFoql_u2VaTCsWEESt9KPdO4v71lhkrTpEFPU2l96e3_ScH59knvKDJJvyXuofXLBcF5J0jK4FB5vR7KKxr93an96qzW7DYK_J-cD49qSsBloCpuGeJNMZeibHFHnRD8wA0DKIrGV-aggeG4oPtVqWC52lQq8WWJrb3KGATVO1XI2LrvV_a_1ivA5KVzSetQ5RKcqtaiWfixUHH0Cr17bePuxbwIXWOIenFKLHFF8dioPBerribHKzTdRjn8-TbKTGmwNprOsmFIVzJETV4Uw_YgD7VLnjI5zsEtZ8thGBv8QQGOQxEbYN6-J5Wh5B7m__mpsTpgEVhjH-6nIP9p5d47JQr-SH9u-5HrTyIl8IyftofdGfVi0sDQlTD0_sxeq3vmb_H3MIMum3aQlfj5rQtQE_YphZ-QhiNSEzw3oZcn4HnZkwcSskHawUYTDevp3MNWp9Nm00?></g></svg>