<?plantuml 1.2026.2?><svg xmlns="http://www.w3.org/2000/svg" xmlns:xlink="http://www.w3.org/1999/xlink" contentStyleType="text/css" data-diagram-type="CLASS" height="1382px" preserveAspectRatio="none" style="width:1468px;height:1382px;background:#FFFFFF;" version="1.1" viewBox="0 0 1468 1382" width="1468px" zoomAndPan="magnify"><title>US033-CD</title><defs/><g><g class="title" data-source-line="1"><text fill="#000000" font-family="sans-serif" font-size="14" font-weight="bold" lengthAdjust="spacing" textLength="76.0293" x="688.9854" y="23.5352">US033-CD</text></g><!--cluster ui--><g class="cluster" data-qualified-name="ui" data-source-line="9" id="ent0004"><rect fill="none" height="231.95" rx="2.5" ry="2.5" style="stroke:#000000;stroke-width:1.5;" width="350" x="364" y="44.4883"/><text fill="#000000" font-family="sans-serif" font-size="14" font-weight="bold" lengthAdjust="spacing" textLength="13.7471" x="532.1265" y="60.0234">ui</text></g><!--cluster console--><g class="cluster" data-qualified-name="ui.console" data-source-line="8" id="ent0002"><rect fill="#DDDDDD" height="164.95" rx="2.5" ry="2.5" style="stroke:#000000;stroke-width:1.5;" width="302" x="388" y="87.4883"/><text fill="#000000" font-family="sans-serif" font-size="14" font-weight="bold" lengthAdjust="spacing" textLength="55.2002" x="511.3999" y="103.0234">console</text></g><!--cluster controller--><g class="cluster" data-qualified-name="controller" data-source-line="17" id="ent0005"><rect fill="#DDDDDD" height="115.49" rx="2.5" ry="2.5" style="stroke:#000000;stroke-width:1.5;" width="238" x="420" y="325.4383"/><text fill="#000000" font-family="sans-serif" font-size="14" font-weight="bold" lengthAdjust="spacing" textLength="70.2393" x="503.8804" y="340.9734">controller</text></g><!--cluster application--><g class="cluster" data-qualified-name="application" data-source-line="23" id="ent0007"><rect fill="#DDDDDD" height="322.93" rx="2.5" ry="2.5" style="stroke:#000000;stroke-width:1.5;" width="651" x="7" y="489.9283"/><text fill="#000000" font-family="sans-serif" font-size="14" font-weight="bold" lengthAdjust="spacing" textLength="79.9326" x="292.5337" y="505.4634">application</text></g><!--cluster domain--><g class="cluster" data-qualified-name="domain" data-source-line="41" id="ent0011"><rect fill="#DDDDDD" height="514.86" rx="2.5" ry="2.5" style="stroke:#000000;stroke-width:1.5;" width="1064" x="398" y="861.8583"/><text fill="#000000" font-family="sans-serif" font-size="14" font-weight="bold" lengthAdjust="spacing" textLength="53.7715" x="903.1143" y="877.3934">domain</text></g><!--cluster repository--><g class="cluster" data-qualified-name="repository" data-source-line="80" id="ent0019"><rect fill="#DDDDDD" height="115.48" rx="2.5" ry="2.5" style="stroke:#000000;stroke-width:1.5;" width="300" x="682" y="664.3983"/><text fill="#000000" font-family="sans-serif" font-size="14" font-weight="bold" lengthAdjust="spacing" textLength="74.3955" x="794.8022" y="679.9334">repository</text></g><!--class ListUsersUI--><g class="entity" data-qualified-name="ui.console.ListUsersUI" data-source-line="9" id="ent0003"><rect fill="#F1F1F1" height="113.9531" rx="2.5" ry="2.5" style="stroke:#181818;stroke-width:0.5;" width="269.708" x="404.15" y="122.4883"/><ellipse cx="497.1939" cy="138.4883" fill="#C2C2C2" rx="11" ry="11" style="stroke:#181818;stroke-width:1;"/><path d="M500.1671,144.1313 Q499.586,144.4302 498.9469,144.5796 Q498.3077,144.729 497.6021,144.729 Q495.0953,144.729 493.7755,143.0771 Q492.4557,141.4253 492.4557,138.3042 Q492.4557,135.1748 493.7755,133.5229 Q495.0953,131.8711 497.6021,131.8711 Q498.3077,131.8711 498.9552,132.0205 Q499.6026,132.1699 500.1671,132.4688 L500.1671,135.1914 Q499.5362,134.6104 498.9427,134.3406 Q498.3492,134.0708 497.7184,134.0708 Q496.3736,134.0708 495.6888,135.1375 Q495.004,136.2041 495.004,138.3042 Q495.004,140.396 495.6888,141.4626 Q496.3736,142.5293 497.7184,142.5293 Q498.3492,142.5293 498.9427,142.2595 Q499.5362,141.9897 500.1671,141.4087 Z " fill="#000000"/><text fill="#000000" font-family="sans-serif" font-size="14" lengthAdjust="spacing" textLength="75.1201" x="517.6939" y="143.7793">ListUsersUI</text><line style="stroke:#181818;stroke-width:0.5;" x1="405.15" x2="672.858" y1="154.4883" y2="154.4883"/><line style="stroke:#181818;stroke-width:0.5;" x1="405.15" x2="672.858" y1="162.4883" y2="162.4883"/><text fill="#000000" font-family="sans-serif" font-size="14" lengthAdjust="spacing" textLength="125.6855" x="410.15" y="180.0234">+requestUserList()</text><text fill="#000000" font-family="sans-serif" font-size="14" lengthAdjust="spacing" textLength="257.708" x="410.15" y="196.5117">+displayUsers(users: List&lt;UserDTO&gt;)</text><text fill="#000000" font-family="sans-serif" font-size="14" lengthAdjust="spacing" textLength="234.7598" x="410.15" y="213">+displayMessage(message: String)</text><text fill="#000000" font-family="sans-serif" font-size="14" lengthAdjust="spacing" textLength="209.7402" x="410.15" y="229.4883">+displayError(message: String)</text></g><!--class ListUsersController--><g class="entity" data-qualified-name="controller.ListUsersController" data-source-line="18" id="ent0006"><rect fill="#F1F1F1" height="64.4883" rx="2.5" ry="2.5" style="stroke:#181818;stroke-width:0.5;" width="205.7852" x="436.11" y="360.4383"/><ellipse cx="471.0168" cy="376.4383" fill="#C2C2C2" rx="11" ry="11" style="stroke:#181818;stroke-width:1;"/><path d="M473.9899,382.0813 Q473.4089,382.3802 472.7697,382.5296 Q472.1306,382.679 471.425,382.679 Q468.9182,382.679 467.5983,381.0271 Q466.2785,379.3753 466.2785,376.2542 Q466.2785,373.1248 467.5983,371.4729 Q468.9182,369.8211 471.425,369.8211 Q472.1306,369.8211 472.778,369.9705 Q473.4255,370.1199 473.9899,370.4188 L473.9899,373.1414 Q473.3591,372.5604 472.7656,372.2906 Q472.1721,372.0208 471.5412,372.0208 Q470.1965,372.0208 469.5117,373.0875 Q468.8268,374.1541 468.8268,376.2542 Q468.8268,378.346 469.5117,379.4126 Q470.1965,380.4793 471.5412,380.4793 Q472.1721,380.4793 472.7656,380.2095 Q473.3591,379.9397 473.9899,379.3587 Z " fill="#000000"/><text fill="#000000" font-family="sans-serif" font-size="14" lengthAdjust="spacing" textLength="129.5479" x="489.4405" y="381.7293">ListUsersController</text><line style="stroke:#181818;stroke-width:0.5;" x1="437.11" x2="640.8952" y1="392.4383" y2="392.4383"/><line style="stroke:#181818;stroke-width:0.5;" x1="437.11" x2="640.8952" y1="400.4383" y2="400.4383"/><text fill="#000000" font-family="sans-serif" font-size="14" lengthAdjust="spacing" textLength="193.7852" x="442.11" y="417.9734">+listUsers(): List&lt;UserDTO&gt;</text></g><!--class ListUsersService--><g class="entity" data-qualified-name="application.ListUsersService" data-source-line="24" id="ent0008"><rect fill="#F1F1F1" height="64.4883" rx="2.5" ry="2.5" style="stroke:#181818;stroke-width:0.5;" width="205.7852" x="436.11" y="524.9283"/><ellipse cx="480.3932" cy="540.9283" fill="#C2C2C2" rx="11" ry="11" style="stroke:#181818;stroke-width:1;"/><path d="M483.3663,546.5713 Q482.7853,546.8702 482.1461,547.0196 Q481.507,547.169 480.8014,547.169 Q478.2946,547.169 476.9747,545.5171 Q475.6549,543.8653 475.6549,540.7442 Q475.6549,537.6148 476.9747,535.9629 Q478.2946,534.3111 480.8014,534.3111 Q481.507,534.3111 482.1544,534.4605 Q482.8019,534.6099 483.3663,534.9088 L483.3663,537.6314 Q482.7355,537.0504 482.142,536.7806 Q481.5485,536.5108 480.9176,536.5108 Q479.5729,536.5108 478.8881,537.5775 Q478.2033,538.6441 478.2033,540.7442 Q478.2033,542.836 478.8881,543.9026 Q479.5729,544.9693 480.9176,544.9693 Q481.5485,544.9693 482.142,544.6995 Q482.7355,544.4297 483.3663,543.8487 Z " fill="#000000"/><text fill="#000000" font-family="sans-serif" font-size="14" lengthAdjust="spacing" textLength="108.7188" x="500.8932" y="546.2193">ListUsersService</text><line style="stroke:#181818;stroke-width:0.5;" x1="437.11" x2="640.8952" y1="556.9283" y2="556.9283"/><line style="stroke:#181818;stroke-width:0.5;" x1="437.11" x2="640.8952" y1="564.9283" y2="564.9283"/><text fill="#000000" font-family="sans-serif" font-size="14" lengthAdjust="spacing" textLength="193.7852" x="442.11" y="582.4634">+listUsers(): List&lt;UserDTO&gt;</text></g><!--class AuthorizationService--><g class="entity" data-qualified-name="application.AuthorizationService" data-source-line="28" id="ent0009"><rect fill="#F1F1F1" height="64.4883" rx="2.5" ry="2.5" style="stroke:#181818;stroke-width:0.5;" width="417.1934" x="23.4" y="699.3983"/><ellipse cx="157.5929" cy="715.3983" fill="#C2C2C2" rx="11" ry="11" style="stroke:#181818;stroke-width:1;"/><path d="M160.566,721.0413 Q159.985,721.3402 159.3458,721.4896 Q158.7066,721.639 158.0011,721.639 Q155.4942,721.639 154.1744,719.9871 Q152.8546,718.3353 152.8546,715.2142 Q152.8546,712.0848 154.1744,710.4329 Q155.4942,708.7811 158.0011,708.7811 Q158.7066,708.7811 159.3541,708.9305 Q160.0016,709.0799 160.566,709.3788 L160.566,712.1014 Q159.9352,711.5204 159.3417,711.2506 Q158.7481,710.9808 158.1173,710.9808 Q156.7726,710.9808 156.0877,712.0475 Q155.4029,713.1141 155.4029,715.2142 Q155.4029,717.306 156.0877,718.3726 Q156.7726,719.4393 158.1173,719.4393 Q158.7481,719.4393 159.3417,719.1695 Q159.9352,718.8997 160.566,718.3187 Z " fill="#000000"/><text fill="#000000" font-family="sans-serif" font-size="14" lengthAdjust="spacing" textLength="140.3076" x="178.0929" y="720.6893">AuthorizationService</text><line style="stroke:#181818;stroke-width:0.5;" x1="24.4" x2="439.5934" y1="731.3983" y2="731.3983"/><line style="stroke:#181818;stroke-width:0.5;" x1="24.4" x2="439.5934" y1="739.3983" y2="739.3983"/><text fill="#000000" font-family="sans-serif" font-size="14" lengthAdjust="spacing" textLength="405.1934" x="29.4" y="756.9334">+isAuthorized(user: User, permission: Permission): boolean</text></g><!--class UserDTO--><g class="entity" data-qualified-name="application.UserDTO" data-source-line="32" id="ent0010"><rect fill="#F1F1F1" height="130.4414" rx="2.5" ry="2.5" style="stroke:#181818;stroke-width:0.5;" width="165.959" x="476.02" y="666.4183"/><ellipse cx="524.4595" cy="682.4183" fill="#C2C2C2" rx="11" ry="11" style="stroke:#181818;stroke-width:1;"/><path d="M527.4326,688.0613 Q526.8515,688.3602 526.2124,688.5096 Q525.5732,688.659 524.8677,688.659 Q522.3608,688.659 521.041,687.0071 Q519.7212,685.3553 519.7212,682.2342 Q519.7212,679.1048 521.041,677.4529 Q522.3608,675.8011 524.8677,675.8011 Q525.5732,675.8011 526.2207,675.9505 Q526.8681,676.0999 527.4326,676.3988 L527.4326,679.1214 Q526.8017,678.5404 526.2082,678.2706 Q525.6147,678.0008 524.9839,678.0008 Q523.6391,678.0008 522.9543,679.0675 Q522.2695,680.1341 522.2695,682.2342 Q522.2695,684.326 522.9543,685.3926 Q523.6391,686.4593 524.9839,686.4593 Q525.6147,686.4593 526.2082,686.1895 Q526.8017,685.9197 527.4326,685.3387 Z " fill="#000000"/><text fill="#000000" font-family="sans-serif" font-size="14" lengthAdjust="spacing" textLength="60.5801" x="544.9595" y="687.7093">UserDTO</text><line style="stroke:#181818;stroke-width:0.5;" x1="477.02" x2="640.979" y1="698.4183" y2="698.4183"/><text fill="#000000" font-family="sans-serif" font-size="14" lengthAdjust="spacing" textLength="93.625" x="482.02" y="715.9534">-email: String</text><text fill="#000000" font-family="sans-serif" font-size="14" lengthAdjust="spacing" textLength="94.2197" x="482.02" y="732.4417">-name: String</text><text fill="#000000" font-family="sans-serif" font-size="14" lengthAdjust="spacing" textLength="153.959" x="482.02" y="748.93">-phoneNumber: String</text><text fill="#000000" font-family="sans-serif" font-size="14" lengthAdjust="spacing" textLength="124.9268" x="482.02" y="765.4183">-enabled: boolean</text><text fill="#000000" font-family="sans-serif" font-size="14" lengthAdjust="spacing" textLength="136.3838" x="482.02" y="781.9066">-roles: List&lt;String&gt;</text><line style="stroke:#181818;stroke-width:0.5;" x1="477.02" x2="640.979" y1="788.8597" y2="788.8597"/></g><!--class User--><g class="entity" data-qualified-name="domain.User" data-source-line="42" id="ent0012"><rect fill="#F1F1F1" height="196.3945" rx="2.5" ry="2.5" style="stroke:#181818;stroke-width:0.5;" width="350.8369" x="656.58" y="896.8583"/><ellipse cx="812.5658" cy="912.8583" fill="#C2C2C2" rx="11" ry="11" style="stroke:#181818;stroke-width:1;"/><path d="M815.539,918.5013 Q814.9579,918.8002 814.3188,918.9496 Q813.6796,919.099 812.974,919.099 Q810.4672,919.099 809.1474,917.4471 Q807.8276,915.7953 807.8276,912.6742 Q807.8276,909.5448 809.1474,907.8929 Q810.4672,906.2411 812.974,906.2411 Q813.6796,906.2411 814.3271,906.3905 Q814.9745,906.5399 815.539,906.8388 L815.539,909.5614 Q814.9081,908.9804 814.3146,908.7106 Q813.7211,908.4408 813.0903,908.4408 Q811.7455,908.4408 811.0607,909.5075 Q810.3759,910.5741 810.3759,912.6742 Q810.3759,914.766 811.0607,915.8326 Q811.7455,916.8993 813.0903,916.8993 Q813.7211,916.8993 814.3146,916.6295 Q814.9081,916.3597 815.539,915.7787 Z " fill="#000000"/><text fill="#000000" font-family="sans-serif" font-size="14" lengthAdjust="spacing" textLength="30.3652" x="833.0658" y="918.1493">User</text><line style="stroke:#181818;stroke-width:0.5;" x1="657.58" x2="1006.4169" y1="928.8583" y2="928.8583"/><text fill="#000000" font-family="sans-serif" font-size="14" lengthAdjust="spacing" textLength="90.1387" x="662.58" y="946.3934">-email: Email</text><text fill="#000000" font-family="sans-serif" font-size="14" lengthAdjust="spacing" textLength="94.2197" x="662.58" y="962.8817">-name: String</text><text fill="#000000" font-family="sans-serif" font-size="14" lengthAdjust="spacing" textLength="209.9453" x="662.58" y="979.37">-phoneNumber: PhoneNumber</text><text fill="#000000" font-family="sans-serif" font-size="14" lengthAdjust="spacing" textLength="124.9268" x="662.58" y="995.8583">-enabled: boolean</text><text fill="#000000" font-family="sans-serif" font-size="14" lengthAdjust="spacing" textLength="125.7129" x="662.58" y="1012.3466">-roles: List&lt;Role&gt;</text><text fill="#000000" font-family="sans-serif" font-size="14" lengthAdjust="spacing" textLength="256.375" x="662.58" y="1028.8348">-securityClearance: SecurityClearance</text><text fill="#000000" font-family="sans-serif" font-size="14" lengthAdjust="spacing" textLength="248.1582" x="662.58" y="1045.3231">-skillsAssessment: SkillsAssessment</text><line style="stroke:#181818;stroke-width:0.5;" x1="657.58" x2="1006.4169" y1="1052.2763" y2="1052.2763"/><text fill="#000000" font-family="sans-serif" font-size="14" lengthAdjust="spacing" textLength="148.0322" x="662.58" y="1069.8114">+isEnabled(): boolean</text><text fill="#000000" font-family="sans-serif" font-size="14" lengthAdjust="spacing" textLength="338.8369" x="662.58" y="1086.2997">+hasPermission(permission: Permission): boolean</text></g><!--class Email--><g class="entity" data-qualified-name="domain.Email" data-source-line="54" id="ent0013"><rect fill="#F1F1F1" height="64.4883" rx="2.5" ry="2.5" style="stroke:#181818;stroke-width:0.5;" width="104.4424" x="413.78" y="1162.4983"/><ellipse cx="444.9615" cy="1178.4983" fill="#C2C2C2" rx="11" ry="11" style="stroke:#181818;stroke-width:1;"/><path d="M447.9347,1184.1413 Q447.3536,1184.4402 446.7145,1184.5896 Q446.0753,1184.739 445.3697,1184.739 Q442.8629,1184.739 441.5431,1183.0871 Q440.2233,1181.4353 440.2233,1178.3142 Q440.2233,1175.1848 441.5431,1173.5329 Q442.8629,1171.8811 445.3697,1171.8811 Q446.0753,1171.8811 446.7228,1172.0305 Q447.3702,1172.1799 447.9347,1172.4788 L447.9347,1175.2014 Q447.3038,1174.6204 446.7103,1174.3506 Q446.1168,1174.0808 445.486,1174.0808 Q444.1412,1174.0808 443.4564,1175.1475 Q442.7716,1176.2141 442.7716,1178.3142 Q442.7716,1180.406 443.4564,1181.4726 Q444.1412,1182.5393 445.486,1182.5393 Q446.1168,1182.5393 446.7103,1182.2695 Q447.3038,1181.9997 447.9347,1181.4187 Z " fill="#000000"/><text fill="#000000" font-family="sans-serif" font-size="14" lengthAdjust="spacing" textLength="36.4834" x="462.5574" y="1183.7893">Email</text><line style="stroke:#181818;stroke-width:0.5;" x1="414.78" x2="517.2224" y1="1194.4983" y2="1194.4983"/><text fill="#000000" font-family="sans-serif" font-size="14" lengthAdjust="spacing" textLength="92.4424" x="419.78" y="1212.0334">-value: String</text><line style="stroke:#181818;stroke-width:0.5;" x1="414.78" x2="517.2224" y1="1218.9866" y2="1218.9866"/></g><!--class PhoneNumber--><g class="entity" data-qualified-name="domain.PhoneNumber" data-source-line="58" id="ent0014"><rect fill="#F1F1F1" height="64.4883" rx="2.5" ry="2.5" style="stroke:#181818;stroke-width:0.5;" width="127.9561" x="553.02" y="1162.4983"/><ellipse cx="568.02" cy="1178.4983" fill="#C2C2C2" rx="11" ry="11" style="stroke:#181818;stroke-width:1;"/><path d="M570.9931,1184.1413 Q570.4121,1184.4402 569.7729,1184.5896 Q569.1338,1184.739 568.4282,1184.739 Q565.9214,1184.739 564.6015,1183.0871 Q563.2817,1181.4353 563.2817,1178.3142 Q563.2817,1175.1848 564.6015,1173.5329 Q565.9214,1171.8811 568.4282,1171.8811 Q569.1338,1171.8811 569.7812,1172.0305 Q570.4287,1172.1799 570.9931,1172.4788 L570.9931,1175.2014 Q570.3623,1174.6204 569.7688,1174.3506 Q569.1753,1174.0808 568.5444,1174.0808 Q567.1997,1174.0808 566.5149,1175.1475 Q565.8301,1176.2141 565.8301,1178.3142 Q565.8301,1180.406 566.5149,1181.4726 Q567.1997,1182.5393 568.5444,1182.5393 Q569.1753,1182.5393 569.7688,1182.2695 Q570.3623,1181.9997 570.9931,1181.4187 Z " fill="#000000"/><text fill="#000000" font-family="sans-serif" font-size="14" lengthAdjust="spacing" textLength="95.9561" x="582.02" y="1183.7893">PhoneNumber</text><line style="stroke:#181818;stroke-width:0.5;" x1="554.02" x2="679.9761" y1="1194.4983" y2="1194.4983"/><text fill="#000000" font-family="sans-serif" font-size="14" lengthAdjust="spacing" textLength="92.4424" x="559.02" y="1212.0334">-value: String</text><line style="stroke:#181818;stroke-width:0.5;" x1="554.02" x2="679.9761" y1="1218.9866" y2="1218.9866"/></g><!--class Role--><g class="entity" data-qualified-name="domain.Role" data-source-line="62" id="ent0015"><rect fill="#F1F1F1" height="80.9766" rx="2.5" ry="2.5" style="stroke:#181818;stroke-width:0.5;" width="231.2969" x="716.35" y="1154.2583"/><ellipse cx="813.099" cy="1170.2583" fill="#C2C2C2" rx="11" ry="11" style="stroke:#181818;stroke-width:1;"/><path d="M816.0722,1175.9013 Q815.4911,1176.2002 814.852,1176.3496 Q814.2128,1176.499 813.5072,1176.499 Q811.0004,1176.499 809.6806,1174.8471 Q808.3607,1173.1953 808.3607,1170.0742 Q808.3607,1166.9448 809.6806,1165.2929 Q811.0004,1163.6411 813.5072,1163.6411 Q814.2128,1163.6411 814.8603,1163.7905 Q815.5077,1163.9399 816.0722,1164.2388 L816.0722,1166.9614 Q815.4413,1166.3804 814.8478,1166.1106 Q814.2543,1165.8408 813.6234,1165.8408 Q812.2787,1165.8408 811.5939,1166.9075 Q810.9091,1167.9741 810.9091,1170.0742 Q810.9091,1172.166 811.5939,1173.2326 Q812.2787,1174.2993 813.6234,1174.2993 Q814.2543,1174.2993 814.8478,1174.0295 Q815.4413,1173.7597 816.0722,1173.1787 Z " fill="#000000"/><text fill="#000000" font-family="sans-serif" font-size="14" lengthAdjust="spacing" textLength="29.2988" x="833.599" y="1175.5493">Role</text><line style="stroke:#181818;stroke-width:0.5;" x1="717.35" x2="946.6469" y1="1186.2583" y2="1186.2583"/><text fill="#000000" font-family="sans-serif" font-size="14" lengthAdjust="spacing" textLength="94.2197" x="722.35" y="1203.7934">-name: String</text><text fill="#000000" font-family="sans-serif" font-size="14" lengthAdjust="spacing" textLength="219.2969" x="722.35" y="1220.2817">-permissions: List&lt;Permission&gt;</text><line style="stroke:#181818;stroke-width:0.5;" x1="717.35" x2="946.6469" y1="1227.2348" y2="1227.2348"/></g><!--class Permission--><g class="entity" data-qualified-name="domain.Permission" data-source-line="67" id="ent0016"><rect fill="#F1F1F1" height="64.4883" rx="2.5" ry="2.5" style="stroke:#181818;stroke-width:0.5;" width="106.2197" x="778.89" y="1296.2283"/><ellipse cx="793.9924" cy="1312.2283" fill="#C2C2C2" rx="11" ry="11" style="stroke:#181818;stroke-width:1;"/><path d="M796.9655,1317.8713 Q796.3845,1318.1702 795.7453,1318.3196 Q795.1062,1318.469 794.4006,1318.469 Q791.8938,1318.469 790.5739,1316.8171 Q789.2541,1315.1653 789.2541,1312.0442 Q789.2541,1308.9148 790.5739,1307.2629 Q791.8938,1305.6111 794.4006,1305.6111 Q795.1062,1305.6111 795.7536,1305.7605 Q796.4011,1305.9099 796.9655,1306.2088 L796.9655,1308.9314 Q796.3347,1308.3504 795.7412,1308.0806 Q795.1477,1307.8108 794.5168,1307.8108 Q793.1721,1307.8108 792.4873,1308.8775 Q791.8025,1309.9441 791.8025,1312.0442 Q791.8025,1314.136 792.4873,1315.2026 Q793.1721,1316.2693 794.5168,1316.2693 Q795.1477,1316.2693 795.7412,1315.9995 Q796.3347,1315.7297 796.9655,1315.1487 Z " fill="#000000"/><text fill="#000000" font-family="sans-serif" font-size="14" lengthAdjust="spacing" textLength="73.9922" x="808.0151" y="1317.5193">Permission</text><line style="stroke:#181818;stroke-width:0.5;" x1="779.89" x2="884.1097" y1="1328.2283" y2="1328.2283"/><text fill="#000000" font-family="sans-serif" font-size="14" lengthAdjust="spacing" textLength="94.2197" x="784.89" y="1345.7634">-name: String</text><line style="stroke:#181818;stroke-width:0.5;" x1="779.89" x2="884.1097" y1="1352.7166" y2="1352.7166"/></g><!--class SecurityClearance--><g class="entity" data-qualified-name="domain.SecurityClearance" data-source-line="71" id="ent0017"><rect fill="#F1F1F1" height="64.4883" rx="2.5" ry="2.5" style="stroke:#181818;stroke-width:0.5;" width="195.7568" x="983.12" y="1162.4983"/><ellipse cx="1017.8514" cy="1178.4983" fill="#C2C2C2" rx="11" ry="11" style="stroke:#181818;stroke-width:1;"/><path d="M1020.8246,1184.1413 Q1020.2435,1184.4402 1019.6044,1184.5896 Q1018.9652,1184.739 1018.2596,1184.739 Q1015.7528,1184.739 1014.433,1183.0871 Q1013.1132,1181.4353 1013.1132,1178.3142 Q1013.1132,1175.1848 1014.433,1173.5329 Q1015.7528,1171.8811 1018.2596,1171.8811 Q1018.9652,1171.8811 1019.6127,1172.0305 Q1020.2601,1172.1799 1020.8246,1172.4788 L1020.8246,1175.2014 Q1020.1937,1174.6204 1019.6002,1174.3506 Q1019.0067,1174.0808 1018.3759,1174.0808 Q1017.0311,1174.0808 1016.3463,1175.1475 Q1015.6615,1176.2141 1015.6615,1178.3142 Q1015.6615,1180.406 1016.3463,1181.4726 Q1017.0311,1182.5393 1018.3759,1182.5393 Q1019.0067,1182.5393 1019.6002,1182.2695 Q1020.1937,1181.9997 1020.8246,1181.4187 Z " fill="#000000"/><text fill="#000000" font-family="sans-serif" font-size="14" lengthAdjust="spacing" textLength="119.9092" x="1036.2362" y="1183.7893">SecurityClearance</text><line style="stroke:#181818;stroke-width:0.5;" x1="984.12" x2="1177.8768" y1="1194.4983" y2="1194.4983"/><text fill="#000000" font-family="sans-serif" font-size="14" lengthAdjust="spacing" textLength="183.7568" x="989.12" y="1212.0334">-expirationDate: LocalDate</text><line style="stroke:#181818;stroke-width:0.5;" x1="984.12" x2="1177.8768" y1="1218.9866" y2="1218.9866"/></g><!--class SkillsAssessment--><g class="entity" data-qualified-name="domain.SkillsAssessment" data-source-line="75" id="ent0018"><rect fill="#F1F1F1" height="64.4883" rx="2.5" ry="2.5" style="stroke:#181818;stroke-width:0.5;" width="231.4336" x="1214.28" y="1162.4983"/><ellipse cx="1267.8464" cy="1178.4983" fill="#C2C2C2" rx="11" ry="11" style="stroke:#181818;stroke-width:1;"/><path d="M1270.8196,1184.1413 Q1270.2385,1184.4402 1269.5993,1184.5896 Q1268.9602,1184.739 1268.2546,1184.739 Q1265.7478,1184.739 1264.4279,1183.0871 Q1263.1081,1181.4353 1263.1081,1178.3142 Q1263.1081,1175.1848 1264.4279,1173.5329 Q1265.7478,1171.8811 1268.2546,1171.8811 Q1268.9602,1171.8811 1269.6076,1172.0305 Q1270.2551,1172.1799 1270.8196,1172.4788 L1270.8196,1175.2014 Q1270.1887,1174.6204 1269.5952,1174.3506 Q1269.0017,1174.0808 1268.3708,1174.0808 Q1267.0261,1174.0808 1266.3413,1175.1475 Q1265.6565,1176.2141 1265.6565,1178.3142 Q1265.6565,1180.406 1266.3413,1181.4726 Q1267.0261,1182.5393 1268.3708,1182.5393 Q1269.0017,1182.5393 1269.5952,1182.2695 Q1270.1887,1181.9997 1270.8196,1181.4187 Z " fill="#000000"/><text fill="#000000" font-family="sans-serif" font-size="14" lengthAdjust="spacing" textLength="115.8008" x="1288.3464" y="1183.7893">SkillsAssessment</text><line style="stroke:#181818;stroke-width:0.5;" x1="1215.28" x2="1444.7136" y1="1194.4983" y2="1194.4983"/><text fill="#000000" font-family="sans-serif" font-size="14" lengthAdjust="spacing" textLength="219.4336" x="1220.28" y="1212.0334">-lastAssessmentDate: LocalDate</text><line style="stroke:#181818;stroke-width:0.5;" x1="1215.28" x2="1444.7136" y1="1218.9866" y2="1218.9866"/></g><!--class UserRepository--><g class="entity" data-qualified-name="repository.UserRepository" data-source-line="81" id="ent0020"><rect fill="#F1F1F1" height="64.4883" rx="2.5" ry="2.5" style="stroke:#181818;stroke-width:0.5;" width="268.6006" x="697.7" y="699.3983"/><ellipse cx="776.5047" cy="715.3983" fill="#B1B1B1" rx="11" ry="11" style="stroke:#181818;stroke-width:1;"/><path d="M772.4324,711.1634 L772.4324,709.0052 L779.8118,709.0052 L779.8118,711.1634 L777.3465,711.1634 L777.3465,719.2401 L779.8118,719.2401 L779.8118,721.3983 L772.4324,721.3983 L772.4324,719.2401 L774.8978,719.2401 L774.8978,711.1634 Z " fill="#000000"/><text fill="#000000" font-family="sans-serif" font-size="14" font-style="italic" lengthAdjust="spacing" textLength="102.4912" x="797.0047" y="720.6893">UserRepository</text><line style="stroke:#181818;stroke-width:0.5;" x1="698.7" x2="965.3006" y1="731.3983" y2="731.3983"/><line style="stroke:#181818;stroke-width:0.5;" x1="698.7" x2="965.3006" y1="739.3983" y2="739.3983"/><text fill="#000000" font-family="sans-serif" font-size="14" lengthAdjust="spacing" textLength="256.6006" x="703.7" y="756.9334">+findAllBackofficeUsers(): List&lt;User&gt;</text></g><!--link ListUsersUI to ListUsersController--><g class="link" data-entity-1="ent0003" data-entity-2="ent0006" data-link-type="dependency" data-source-line="86" id="lnk21"><path codeLine="86" d="M539,236.7883 C539,276.2683 539,321.5783 539,354.0883" fill="none" id="ListUsersUI-to-ListUsersController" style="stroke:#181818;stroke-width:1;"/><polygon fill="#181818" points="539,360.0883,543,351.0883,539,355.0883,535,351.0883,539,360.0883" style="stroke:#181818;stroke-width:1;"/><polygon fill="#000000" points="544,306.0936,546.9389,297.0485,541.0611,297.0485,544,306.0936" style="stroke:#000000;stroke-width:1;"/><text fill="#000000" font-family="sans-serif" font-size="13" lengthAdjust="spacing" textLength="28.5645" x="553" y="306.0066">uses</text></g><!--link ListUsersController to ListUsersService--><g class="link" data-entity-1="ent0006" data-entity-2="ent0008" data-link-type="dependency" data-source-line="87" id="lnk22"><path codeLine="87" d="M539,425.3983 C539,454.0283 539,489.9283 539,518.5383" fill="none" id="ListUsersController-to-ListUsersService" style="stroke:#181818;stroke-width:1;"/><polygon fill="#181818" points="539,524.5383,543,515.5383,539,519.5383,535,515.5383,539,524.5383" style="stroke:#181818;stroke-width:1;"/><polygon fill="#000000" points="544,470.5836,546.9389,461.5385,541.0611,461.5385,544,470.5836" style="stroke:#000000;stroke-width:1;"/><text fill="#000000" font-family="sans-serif" font-size="13" lengthAdjust="spacing" textLength="28.5645" x="553" y="470.4966">uses</text></g><!--link ListUsersService to AuthorizationService--><g class="link" data-entity-1="ent0008" data-entity-2="ent0009" data-link-type="dependency" data-source-line="88" id="lnk23"><path codeLine="88" d="M467.14,589.7783 C447.7,598.8683 426.83,609.1183 408,619.4183 C362.81,644.1283 318.3978,672.4783 283.4578,695.6883" fill="none" id="ListUsersService-to-AuthorizationService" style="stroke:#181818;stroke-width:1;"/><polygon fill="#181818" points="278.46,699.0083,288.17,697.3602,282.6248,696.2417,283.7434,690.6965,278.46,699.0083" style="stroke:#181818;stroke-width:1;"/><polygon fill="#000000" points="408.6685,630.5711,417.9723,628.599,415.0363,623.507,408.6685,630.5711" style="stroke:#000000;stroke-width:1;"/><text fill="#000000" font-family="sans-serif" font-size="13" lengthAdjust="spacing" textLength="116.6699" x="422" y="632.9866">checks permission</text></g><!--link ListUsersService to UserRepository--><g class="link" data-entity-1="ent0008" data-entity-2="ent0020" data-link-type="dependency" data-source-line="89" id="lnk24"><path codeLine="89" d="M592.74,589.8083 C645.44,620.8283 720.1797,664.8139 772.9297,695.8739" fill="none" id="ListUsersService-to-UserRepository" style="stroke:#181818;stroke-width:1;"/><polygon fill="#181818" points="778.1,698.9183,772.3741,690.9049,773.7914,696.3813,768.315,697.7986,778.1,698.9183" style="stroke:#181818;stroke-width:1;"/><polygon fill="#000000" points="677.2689,630.6099,670.9649,623.4889,667.9832,628.5543,677.2689,630.6099" style="stroke:#000000;stroke-width:1;"/><text fill="#000000" font-family="sans-serif" font-size="13" lengthAdjust="spacing" textLength="54.3423" x="681.96" y="632.9866">retrieves</text></g><!--link ListUsersService to UserDTO--><g class="link" data-entity-1="ent0008" data-entity-2="ent0010" data-link-type="dependency" data-source-line="90" id="lnk25"><path codeLine="90" d="M542.67,589.8083 C545.14,611.0983 547.7888,633.9882 550.8088,660.0282" fill="none" id="ListUsersService-to-UserDTO" style="stroke:#181818;stroke-width:1;"/><polygon fill="#181818" points="551.5,665.9883,554.4365,656.5874,550.924,661.0216,546.4898,657.509,551.5,665.9883" style="stroke:#181818;stroke-width:1;"/><polygon fill="#000000" points="553.3757,633.0403,555.2537,623.717,549.4149,624.3937,553.3757,633.0403" style="stroke:#000000;stroke-width:1;"/><text fill="#000000" font-family="sans-serif" font-size="13" lengthAdjust="spacing" textLength="45.1318" x="561.8" y="632.9866">creates</text></g><!--link UserRepository to User--><g class="link" data-entity-1="ent0020" data-entity-2="ent0012" data-link-type="dependency" data-source-line="91" id="lnk26"><path codeLine="91" d="M832,764.1683 C832,796.8983 832,843.7483 832,890.5283" fill="none" id="UserRepository-to-User" style="stroke:#181818;stroke-width:1;"/><polygon fill="#181818" points="832,896.5283,836,887.5283,832,891.5283,828,887.5283,832,896.5283" style="stroke:#181818;stroke-width:1;"/><polygon fill="#000000" points="837,842.5136,839.9389,833.4685,834.0611,833.4685,837,842.5136" style="stroke:#000000;stroke-width:1;"/><text fill="#000000" font-family="sans-serif" font-size="13" lengthAdjust="spacing" textLength="45.5063" x="846" y="842.4266">returns</text></g><!--reverse link User to Email--><g class="link" data-entity-1="ent0012" data-entity-2="ent0013" data-link-type="composition" data-source-line="93" id="lnk27"><path codeLine="93" d="M645.762,1094.7546 C606.092,1116.0046 574.82,1132.9383 536,1154.2583 C530.37,1157.3383 524.51,1160.5983 518.67,1163.8583" fill="none" id="User-backto-Email" style="stroke:#181818;stroke-width:1;"/><polygon fill="#181818" points="656.34,1089.0883,649.1623,1088.3954,645.762,1094.7546,652.9398,1095.4474,656.34,1089.0883" style="stroke:#181818;stroke-width:1;"/></g><!--reverse link User to PhoneNumber--><g class="link" data-entity-1="ent0012" data-entity-2="ent0014" data-link-type="composition" data-source-line="94" id="lnk28"><path codeLine="94" d="M716.9266,1101.8606 C689.8466,1126.7606 671.49,1143.6383 651.07,1162.4183" fill="none" id="User-backto-PhoneNumber" style="stroke:#181818;stroke-width:1;"/><polygon fill="#181818" points="725.76,1093.7383,718.6359,1094.855,716.9266,1101.8606,724.0507,1100.7439,725.76,1093.7383" style="stroke:#181818;stroke-width:1;"/></g><!--reverse link User to SecurityClearance--><g class="link" data-entity-1="ent0012" data-entity-2="ent0017" data-link-type="composition" data-source-line="95" id="lnk29"><path codeLine="95" d="M964.4371,1101.2012 C995.6771,1126.0112 1017.65,1143.4483 1041.27,1162.1983" fill="none" id="User-backto-SecurityClearance" style="stroke:#181818;stroke-width:1;"/><polygon fill="#181818" points="955.04,1093.7383,957.2509,1100.6021,964.4371,1101.2012,962.2262,1094.3374,955.04,1093.7383" style="stroke:#181818;stroke-width:1;"/></g><!--reverse link User to SkillsAssessment--><g class="link" data-entity-1="ent0012" data-entity-2="ent0018" data-link-type="composition" data-source-line="96" id="lnk30"><path codeLine="96" d="M1018.7333,1070.1759 C1101.4833,1103.0259 1184.96,1136.1683 1250.19,1162.0583" fill="none" id="User-backto-SkillsAssessment" style="stroke:#181818;stroke-width:1;"/><polygon fill="#181818" points="1007.58,1065.7483,1011.6808,1071.6799,1018.7333,1070.1759,1014.6325,1064.2443,1007.58,1065.7483" style="stroke:#181818;stroke-width:1;"/></g><!--reverse link User to Role--><g class="link" data-entity-1="ent0012" data-entity-2="ent0015" data-link-type="aggregation" data-source-line="97" id="lnk31"><path codeLine="97" d="M832,1105.7383 C832,1127.1383 832,1136.6183 832,1154.1483" fill="none" id="User-backto-Role" style="stroke:#181818;stroke-width:1;"/><polygon fill="none" points="832,1093.7383,828,1099.7383,832,1105.7383,836,1099.7383,832,1093.7383" style="stroke:#181818;stroke-width:1;"/><text fill="#000000" font-family="sans-serif" font-size="13" lengthAdjust="spacing" textLength="8.2202" x="823.7266" y="1113.7835">1</text><text fill="#000000" font-family="sans-serif" font-size="13" lengthAdjust="spacing" textLength="22.7119" x="808.1708" y="1143.4764">1..*</text></g><!--reverse link Role to Permission--><g class="link" data-entity-1="ent0015" data-entity-2="ent0016" data-link-type="aggregation" data-source-line="98" id="lnk32"><path codeLine="98" d="M832,1247.6183 C832,1267.0083 832,1277.9683 832,1296.0883" fill="none" id="Role-backto-Permission" style="stroke:#181818;stroke-width:1;"/><polygon fill="none" points="832,1235.6183,828,1241.6183,832,1247.6183,836,1241.6183,832,1235.6183" style="stroke:#181818;stroke-width:1;"/><text fill="#000000" font-family="sans-serif" font-size="13" lengthAdjust="spacing" textLength="8.2202" x="823.3803" y="1255.9206">1</text><text fill="#000000" font-family="sans-serif" font-size="13" lengthAdjust="spacing" textLength="6.2651" x="825.4086" y="1285.4626">*</text></g><?plantuml-src bLLHRzem47xFhx3OIzekg5NVeWc90G-LkgqgumUOv20MZftP3XkT-jztJaZY96OLUO1mttTtd-zyXs660zcixnyVeyKo2FI1YO8gcfDS2fbaIkP0Z2h1GGgQ7EWUrkQ4hWeIGyMUkmITqLJ-Pc9FTfHh5qaurNfkZ6BRqi1J8iMQlG6v3u9pK38fsHJDMdAOa4_BwY5_0u9FvKoUcJOR3Kfldivs-zoXa5ybr92bX3SEbZ9TS7ggtCBIViPLd2_MilpvO-OXVmEjKL2OrzynMQDgiVSmLqf9vUUz1-_EqV1SHadEGNrmj4LBx1sHDtXuCz3lIKQBWhE46YR51zdMe8uiWUjIEO7cfScaOczLBbymfXiAf5NvOsAZVIO5g9nfZMunUMdVCUDMOl-f6ESwgt32HmHoodXJTySkQ0uUSv590T_BV6jrZ50GTCiXxKke8Um8D1UdzlFLFPKevqB9hNgVz9NzkbBvI_VZUlcl-3vpC0r9gPWvBT17KP7Ox4EJIpymplLSQxppEGY3x86br_rLBIgy6Skw8ndLNUl3wsz4LRjUKO-Kb_tozHoSmbtZPalMurzgKgkwANPt3i_mTE3_W_USHhtfNwe_1LFLC2wfmIZFCg7Slde23ThMYuCCqq7-MExDLr18pOnKf-7jPyA0sb7KQIVWjUNrjiIEYNJE-LSC9tSxt27Z_UFCc_it44Kpx-wC2IuRJMQ13-mvDLjhxD4WbkvTT359CaWEscdy9V_1uMFypy86m_5oncRTOH85M7LB74HfQ7MuKWdBgKZaDehEgwNzwMwDrZWUzGuQpdM5J1ucH28wUPXERoVLQ0JLVBG0MhkR7Vm3?></g></svg>