<?plantuml 1.2026.2?><svg xmlns="http://www.w3.org/2000/svg" xmlns:xlink="http://www.w3.org/1999/xlink" contentStyleType="text/css" data-diagram-type="CLASS" height="1382px" preserveAspectRatio="none" style="width:1939px;height:1382px;background:#FFFFFF;" version="1.1" viewBox="0 0 1939 1382" width="1939px" zoomAndPan="magnify"><title>US043-CD</title><defs/><g><g class="title" data-source-line="1"><text fill="#000000" font-family="sans-serif" font-size="14" font-weight="bold" lengthAdjust="spacing" textLength="76.0293" x="924.4854" y="23.5352">US043-CD</text></g><!--cluster ui--><g class="cluster" data-qualified-name="ui" data-source-line="9" id="ent0004"><rect fill="none" height="264.93" rx="2.5" ry="2.5" style="stroke:#000000;stroke-width:1.5;" width="502" x="82" y="44.4883"/><text fill="#000000" font-family="sans-serif" font-size="14" font-weight="bold" lengthAdjust="spacing" textLength="13.7471" x="326.1265" y="60.0234">ui</text></g><!--cluster console--><g class="cluster" data-qualified-name="ui.console" data-source-line="8" id="ent0002"><rect fill="#DDDDDD" height="197.93" rx="2.5" ry="2.5" style="stroke:#000000;stroke-width:1.5;" width="454" x="106" y="87.4883"/><text fill="#000000" font-family="sans-serif" font-size="14" font-weight="bold" lengthAdjust="spacing" textLength="55.2002" x="305.3999" y="103.0234">console</text></g><!--cluster controller--><g class="cluster" data-qualified-name="controller" data-source-line="19" id="ent0005"><rect fill="#DDDDDD" height="115.49" rx="2.5" ry="2.5" style="stroke:#000000;stroke-width:1.5;" width="624" x="21" y="358.4183"/><text fill="#000000" font-family="sans-serif" font-size="14" font-weight="bold" lengthAdjust="spacing" textLength="70.2393" x="297.8804" y="373.9534">controller</text></g><!--cluster application--><g class="cluster" data-qualified-name="application" data-source-line="25" id="ent0007"><rect fill="#DDDDDD" height="355.9" rx="2.5" ry="2.5" style="stroke:#000000;stroke-width:1.5;" width="883" x="21" y="522.9083"/><text fill="#000000" font-family="sans-serif" font-size="14" font-weight="bold" lengthAdjust="spacing" textLength="79.9326" x="422.5337" y="538.4434">application</text></g><!--cluster domain--><g class="cluster" data-qualified-name="domain" data-source-line="49" id="ent0012"><rect fill="#DDDDDD" height="448.91" rx="2.5" ry="2.5" style="stroke:#000000;stroke-width:1.5;" width="1009" x="7" y="927.8083"/><text fill="#000000" font-family="sans-serif" font-size="14" font-weight="bold" lengthAdjust="spacing" textLength="53.7715" x="484.6143" y="943.3434">domain</text></g><!--cluster repository--><g class="cluster" data-qualified-name="repository" data-source-line="93" id="ent0021"><rect fill="#DDDDDD" height="115.49" rx="2.5" ry="2.5" style="stroke:#000000;stroke-width:1.5;" width="1005" x="928" y="722.0983"/><text fill="#000000" font-family="sans-serif" font-size="14" font-weight="bold" lengthAdjust="spacing" textLength="74.3955" x="1393.3022" y="737.6334">repository</text></g><!--class ConsultWeatherDataUI--><g class="entity" data-qualified-name="ui.console.ConsultWeatherDataUI" data-source-line="9" id="ent0003"><rect fill="#F1F1F1" height="146.9297" rx="2.5" ry="2.5" style="stroke:#181818;stroke-width:0.5;" width="422.6006" x="121.7" y="122.4883"/><ellipse cx="252.7688" cy="138.4883" fill="#C2C2C2" rx="11" ry="11" style="stroke:#181818;stroke-width:1;"/><path d="M255.742,144.1313 Q255.1609,144.4302 254.5218,144.5796 Q253.8826,144.729 253.1771,144.729 Q250.6702,144.729 249.3504,143.0771 Q248.0306,141.4253 248.0306,138.3042 Q248.0306,135.1748 249.3504,133.5229 Q250.6702,131.8711 253.1771,131.8711 Q253.8826,131.8711 254.5301,132.0205 Q255.1775,132.1699 255.742,132.4688 L255.742,135.1914 Q255.1111,134.6104 254.5176,134.3406 Q253.9241,134.0708 253.2933,134.0708 Q251.9485,134.0708 251.2637,135.1375 Q250.5789,136.2041 250.5789,138.3042 Q250.5789,140.396 251.2637,141.4626 Q251.9485,142.5293 253.2933,142.5293 Q253.9241,142.5293 254.5176,142.2595 Q255.1111,141.9897 255.742,141.4087 Z " fill="#000000"/><text fill="#000000" font-family="sans-serif" font-size="14" lengthAdjust="spacing" textLength="151.9629" x="273.2688" y="143.7793">ConsultWeatherDataUI</text><line style="stroke:#181818;stroke-width:0.5;" x1="122.7" x2="543.3006" y1="154.4883" y2="154.4883"/><text fill="#000000" font-family="sans-serif" font-size="14" lengthAdjust="spacing" textLength="190.8389" x="127.7" y="172.0234">-airControlAreaCode: String</text><text fill="#000000" font-family="sans-serif" font-size="14" lengthAdjust="spacing" textLength="112.8066" x="127.7" y="188.5117">-date: LocalDate</text><line style="stroke:#181818;stroke-width:0.5;" x1="122.7" x2="543.3006" y1="195.4648" y2="195.4648"/><text fill="#000000" font-family="sans-serif" font-size="14" lengthAdjust="spacing" textLength="102.6211" x="127.7" y="213">+requestData()</text><text fill="#000000" font-family="sans-serif" font-size="14" lengthAdjust="spacing" textLength="410.6006" x="127.7" y="229.4883">+displayWeatherData(weatherData: List&lt;WeatherDataDTO&gt;)</text><text fill="#000000" font-family="sans-serif" font-size="14" lengthAdjust="spacing" textLength="234.7598" x="127.7" y="245.9766">+displayMessage(message: String)</text><text fill="#000000" font-family="sans-serif" font-size="14" lengthAdjust="spacing" textLength="209.7402" x="127.7" y="262.4648">+displayError(message: String)</text></g><!--class ConsultWeatherDataController--><g class="entity" data-qualified-name="controller.ConsultWeatherDataController" data-source-line="20" id="ent0006"><rect fill="#F1F1F1" height="64.4883" rx="2.5" ry="2.5" style="stroke:#181818;stroke-width:0.5;" width="591.9268" x="37.04" y="393.4183"/><ellipse cx="225.5581" cy="409.4183" fill="#C2C2C2" rx="11" ry="11" style="stroke:#181818;stroke-width:1;"/><path d="M228.5312,415.0613 Q227.9502,415.3602 227.311,415.5096 Q226.6718,415.659 225.9663,415.659 Q223.4594,415.659 222.1396,414.0071 Q220.8198,412.3553 220.8198,409.2342 Q220.8198,406.1048 222.1396,404.4529 Q223.4594,402.8011 225.9663,402.8011 Q226.6718,402.8011 227.3193,402.9505 Q227.9668,403.0999 228.5312,403.3988 L228.5312,406.1214 Q227.9004,405.5404 227.3068,405.2706 Q226.7133,405.0008 226.0825,405.0008 Q224.7378,405.0008 224.0529,406.0675 Q223.3681,407.1341 223.3681,409.2342 Q223.3681,411.326 224.0529,412.3926 Q224.7378,413.4593 226.0825,413.4593 Q226.7133,413.4593 227.3068,413.1895 Q227.9004,412.9197 228.5312,412.3387 Z " fill="#000000"/><text fill="#000000" font-family="sans-serif" font-size="14" lengthAdjust="spacing" textLength="206.3906" x="246.0581" y="414.7093">ConsultWeatherDataController</text><line style="stroke:#181818;stroke-width:0.5;" x1="38.04" x2="627.9668" y1="425.4183" y2="425.4183"/><line style="stroke:#181818;stroke-width:0.5;" x1="38.04" x2="627.9668" y1="433.4183" y2="433.4183"/><text fill="#000000" font-family="sans-serif" font-size="14" lengthAdjust="spacing" textLength="579.9268" x="43.04" y="450.9534">+consultWeatherData(request: ConsultWeatherDataRequest): List&lt;WeatherDataDTO&gt;</text></g><!--class ConsultWeatherDataService--><g class="entity" data-qualified-name="application.ConsultWeatherDataService" data-source-line="26" id="ent0008"><rect fill="#F1F1F1" height="64.4883" rx="2.5" ry="2.5" style="stroke:#181818;stroke-width:0.5;" width="591.9268" x="37.04" y="566.1483"/><ellipse cx="235.9726" cy="582.1483" fill="#C2C2C2" rx="11" ry="11" style="stroke:#181818;stroke-width:1;"/><path d="M238.9458,587.7913 Q238.3647,588.0902 237.7255,588.2396 Q237.0864,588.389 236.3808,588.389 Q233.874,588.389 232.5542,586.7371 Q231.2343,585.0853 231.2343,581.9642 Q231.2343,578.8348 232.5542,577.1829 Q233.874,575.5311 236.3808,575.5311 Q237.0864,575.5311 237.7338,575.6805 Q238.3813,575.8299 238.9458,576.1288 L238.9458,578.8514 Q238.3149,578.2704 237.7214,578.0006 Q237.1279,577.7308 236.497,577.7308 Q235.1523,577.7308 234.4675,578.7975 Q233.7827,579.8641 233.7827,581.9642 Q233.7827,584.056 234.4675,585.1226 Q235.1523,586.1893 236.497,586.1893 Q237.1279,586.1893 237.7214,585.9195 Q238.3149,585.6497 238.9458,585.0687 Z " fill="#000000"/><text fill="#000000" font-family="sans-serif" font-size="14" lengthAdjust="spacing" textLength="185.5615" x="256.4726" y="587.4393">ConsultWeatherDataService</text><line style="stroke:#181818;stroke-width:0.5;" x1="38.04" x2="627.9668" y1="598.1483" y2="598.1483"/><line style="stroke:#181818;stroke-width:0.5;" x1="38.04" x2="627.9668" y1="606.1483" y2="606.1483"/><text fill="#000000" font-family="sans-serif" font-size="14" lengthAdjust="spacing" textLength="579.9268" x="43.04" y="623.6834">+consultWeatherData(request: ConsultWeatherDataRequest): List&lt;WeatherDataDTO&gt;</text></g><!--class AuthorizationService--><g class="entity" data-qualified-name="application.AuthorizationService" data-source-line="30" id="ent0009"><rect fill="#F1F1F1" height="64.4883" rx="2.5" ry="2.5" style="stroke:#181818;stroke-width:0.5;" width="417.1934" x="64.4" y="757.0983"/><ellipse cx="198.5929" cy="773.0983" fill="#C2C2C2" rx="11" ry="11" style="stroke:#181818;stroke-width:1;"/><path d="M201.566,778.7413 Q200.985,779.0402 200.3458,779.1896 Q199.7066,779.339 199.0011,779.339 Q196.4942,779.339 195.1744,777.6871 Q193.8546,776.0353 193.8546,772.9142 Q193.8546,769.7848 195.1744,768.1329 Q196.4942,766.4811 199.0011,766.4811 Q199.7066,766.4811 200.3541,766.6305 Q201.0016,766.7799 201.566,767.0788 L201.566,769.8014 Q200.9352,769.2204 200.3417,768.9506 Q199.7481,768.6808 199.1173,768.6808 Q197.7726,768.6808 197.0877,769.7475 Q196.4029,770.8141 196.4029,772.9142 Q196.4029,775.006 197.0877,776.0726 Q197.7726,777.1393 199.1173,777.1393 Q199.7481,777.1393 200.3417,776.8695 Q200.9352,776.5997 201.566,776.0187 Z " fill="#000000"/><text fill="#000000" font-family="sans-serif" font-size="14" lengthAdjust="spacing" textLength="140.3076" x="219.0929" y="778.3893">AuthorizationService</text><line style="stroke:#181818;stroke-width:0.5;" x1="65.4" x2="480.5934" y1="789.0983" y2="789.0983"/><line style="stroke:#181818;stroke-width:0.5;" x1="65.4" x2="480.5934" y1="797.0983" y2="797.0983"/><text fill="#000000" font-family="sans-serif" font-size="14" lengthAdjust="spacing" textLength="405.1934" x="70.4" y="814.6334">+isAuthorized(user: User, permission: Permission): boolean</text></g><!--class ConsultWeatherDataRequest--><g class="entity" data-qualified-name="application.ConsultWeatherDataRequest" data-source-line="34" id="ent0010"><rect fill="#F1F1F1" height="80.9766" rx="2.5" ry="2.5" style="stroke:#181818;stroke-width:0.5;" width="224.5547" x="663.72" y="557.9083"/><ellipse cx="678.72" cy="573.9083" fill="#C2C2C2" rx="11" ry="11" style="stroke:#181818;stroke-width:1;"/><path d="M681.6931,579.5513 Q681.1121,579.8502 680.4729,579.9996 Q679.8338,580.149 679.1282,580.149 Q676.6214,580.149 675.3015,578.4971 Q673.9817,576.8453 673.9817,573.7242 Q673.9817,570.5948 675.3015,568.9429 Q676.6214,567.2911 679.1282,567.2911 Q679.8338,567.2911 680.4812,567.4405 Q681.1287,567.5899 681.6931,567.8888 L681.6931,570.6114 Q681.0623,570.0304 680.4688,569.7606 Q679.8753,569.4908 679.2444,569.4908 Q677.8997,569.4908 677.2149,570.5575 Q676.5301,571.6241 676.5301,573.7242 Q676.5301,575.816 677.2149,576.8826 Q677.8997,577.9493 679.2444,577.9493 Q679.8753,577.9493 680.4688,577.6795 Q681.0623,577.4097 681.6931,576.8287 Z " fill="#000000"/><text fill="#000000" font-family="sans-serif" font-size="14" lengthAdjust="spacing" textLength="192.5547" x="692.72" y="579.1993">ConsultWeatherDataRequest</text><line style="stroke:#181818;stroke-width:0.5;" x1="664.72" x2="887.2747" y1="589.9083" y2="589.9083"/><text fill="#000000" font-family="sans-serif" font-size="14" lengthAdjust="spacing" textLength="190.8389" x="669.72" y="607.4434">-airControlAreaCode: String</text><text fill="#000000" font-family="sans-serif" font-size="14" lengthAdjust="spacing" textLength="112.8066" x="669.72" y="623.9317">-date: LocalDate</text><line style="stroke:#181818;stroke-width:0.5;" x1="664.72" x2="887.2747" y1="630.8848" y2="630.8848"/></g><!--class WeatherDataDTO--><g class="entity" data-qualified-name="application.WeatherDataDTO" data-source-line="39" id="ent0011"><rect fill="#F1F1F1" height="146.9297" rx="2.5" ry="2.5" style="stroke:#181818;stroke-width:0.5;" width="202.8389" x="516.58" y="715.8783"/><ellipse cx="556.0949" cy="731.8783" fill="#C2C2C2" rx="11" ry="11" style="stroke:#181818;stroke-width:1;"/><path d="M559.068,737.5213 Q558.487,737.8202 557.8478,737.9696 Q557.2087,738.119 556.5031,738.119 Q553.9963,738.119 552.6764,736.4671 Q551.3566,734.8153 551.3566,731.6942 Q551.3566,728.5648 552.6764,726.9129 Q553.9963,725.2611 556.5031,725.2611 Q557.2087,725.2611 557.8561,725.4105 Q558.5036,725.5599 559.068,725.8588 L559.068,728.5814 Q558.4372,728.0004 557.8437,727.7306 Q557.2502,727.4608 556.6193,727.4608 Q555.2746,727.4608 554.5898,728.5275 Q553.905,729.5941 553.905,731.6942 Q553.905,733.786 554.5898,734.8526 Q555.2746,735.9193 556.6193,735.9193 Q557.2502,735.9193 557.8437,735.6495 Q558.4372,735.3797 559.068,734.7987 Z " fill="#000000"/><text fill="#000000" font-family="sans-serif" font-size="14" lengthAdjust="spacing" textLength="116.3613" x="575.5426" y="737.1693">WeatherDataDTO</text><line style="stroke:#181818;stroke-width:0.5;" x1="517.58" x2="718.4189" y1="747.8783" y2="747.8783"/><text fill="#000000" font-family="sans-serif" font-size="14" lengthAdjust="spacing" textLength="190.8389" x="522.58" y="765.4134">-airControlAreaCode: String</text><text fill="#000000" font-family="sans-serif" font-size="14" lengthAdjust="spacing" textLength="180.3457" x="522.58" y="781.9017">-dateTime: LocalDateTime</text><text fill="#000000" font-family="sans-serif" font-size="14" lengthAdjust="spacing" textLength="157.8555" x="522.58" y="798.39">-windDirection: double</text><text fill="#000000" font-family="sans-serif" font-size="14" lengthAdjust="spacing" textLength="136.8145" x="522.58" y="814.8783">-windSpeed: double</text><text fill="#000000" font-family="sans-serif" font-size="14" lengthAdjust="spacing" textLength="134.832" x="522.58" y="831.3666">-sourceType: String</text><text fill="#000000" font-family="sans-serif" font-size="14" lengthAdjust="spacing" textLength="179.8057" x="522.58" y="847.8548">-sourceDescription: String</text><line style="stroke:#181818;stroke-width:0.5;" x1="517.58" x2="718.4189" y1="854.808" y2="854.808"/></g><!--class User--><g class="entity" data-qualified-name="domain.User" data-source-line="50" id="ent0013"><rect fill="#F1F1F1" height="97.4648" rx="2.5" ry="2.5" style="stroke:#181818;stroke-width:0.5;" width="350.8369" x="97.58" y="971.0583"/><ellipse cx="253.5658" cy="987.0583" fill="#C2C2C2" rx="11" ry="11" style="stroke:#181818;stroke-width:1;"/><path d="M256.539,992.7013 Q255.9579,993.0002 255.3188,993.1496 Q254.6796,993.299 253.974,993.299 Q251.4672,993.299 250.1474,991.6471 Q248.8276,989.9953 248.8276,986.8742 Q248.8276,983.7448 250.1474,982.0929 Q251.4672,980.4411 253.974,980.4411 Q254.6796,980.4411 255.3271,980.5905 Q255.9745,980.7399 256.539,981.0387 L256.539,983.7614 Q255.9081,983.1804 255.3146,982.9106 Q254.7211,982.6408 254.0903,982.6408 Q252.7455,982.6408 252.0607,983.7075 Q251.3759,984.7741 251.3759,986.8742 Q251.3759,988.966 252.0607,990.0326 Q252.7455,991.0993 254.0903,991.0993 Q254.7211,991.0993 255.3146,990.8295 Q255.9081,990.5597 256.539,989.9787 Z " fill="#000000"/><text fill="#000000" font-family="sans-serif" font-size="14" lengthAdjust="spacing" textLength="30.3652" x="274.0658" y="992.3493">User</text><line style="stroke:#181818;stroke-width:0.5;" x1="98.58" x2="447.4169" y1="1003.0583" y2="1003.0583"/><text fill="#000000" font-family="sans-serif" font-size="14" lengthAdjust="spacing" textLength="90.1387" x="103.58" y="1020.5934">-email: Email</text><text fill="#000000" font-family="sans-serif" font-size="14" lengthAdjust="spacing" textLength="125.7129" x="103.58" y="1037.0817">-roles: List&lt;Role&gt;</text><line style="stroke:#181818;stroke-width:0.5;" x1="98.58" x2="447.4169" y1="1044.0348" y2="1044.0348"/><text fill="#000000" font-family="sans-serif" font-size="14" lengthAdjust="spacing" textLength="338.8369" x="103.58" y="1061.57">+hasPermission(permission: Permission): boolean</text></g><!--class Role--><g class="entity" data-qualified-name="domain.Role" data-source-line="56" id="ent0014"><rect fill="#F1F1F1" height="80.9766" rx="2.5" ry="2.5" style="stroke:#181818;stroke-width:0.5;" width="231.2969" x="23.35" y="1146.0083"/><ellipse cx="120.099" cy="1162.0083" fill="#C2C2C2" rx="11" ry="11" style="stroke:#181818;stroke-width:1;"/><path d="M123.0722,1167.6513 Q122.4911,1167.9502 121.852,1168.0996 Q121.2128,1168.249 120.5072,1168.249 Q118.0004,1168.249 116.6806,1166.5971 Q115.3607,1164.9453 115.3607,1161.8242 Q115.3607,1158.6948 116.6806,1157.0429 Q118.0004,1155.3911 120.5072,1155.3911 Q121.2128,1155.3911 121.8603,1155.5405 Q122.5077,1155.6899 123.0722,1155.9888 L123.0722,1158.7114 Q122.4413,1158.1304 121.8478,1157.8606 Q121.2543,1157.5908 120.6234,1157.5908 Q119.2787,1157.5908 118.5939,1158.6575 Q117.9091,1159.7241 117.9091,1161.8242 Q117.9091,1163.916 118.5939,1164.9826 Q119.2787,1166.0493 120.6234,1166.0493 Q121.2543,1166.0493 121.8478,1165.7795 Q122.4413,1165.5097 123.0722,1164.9287 Z " fill="#000000"/><text fill="#000000" font-family="sans-serif" font-size="14" lengthAdjust="spacing" textLength="29.2988" x="140.599" y="1167.2993">Role</text><line style="stroke:#181818;stroke-width:0.5;" x1="24.35" x2="253.6469" y1="1178.0083" y2="1178.0083"/><text fill="#000000" font-family="sans-serif" font-size="14" lengthAdjust="spacing" textLength="94.2197" x="29.35" y="1195.5434">-name: String</text><text fill="#000000" font-family="sans-serif" font-size="14" lengthAdjust="spacing" textLength="219.2969" x="29.35" y="1212.0317">-permissions: List&lt;Permission&gt;</text><line style="stroke:#181818;stroke-width:0.5;" x1="24.35" x2="253.6469" y1="1218.9848" y2="1218.9848"/></g><!--class Permission--><g class="entity" data-qualified-name="domain.Permission" data-source-line="61" id="ent0015"><rect fill="#F1F1F1" height="64.4883" rx="2.5" ry="2.5" style="stroke:#181818;stroke-width:0.5;" width="106.2197" x="85.89" y="1296.2283"/><ellipse cx="100.9924" cy="1312.2283" fill="#C2C2C2" rx="11" ry="11" style="stroke:#181818;stroke-width:1;"/><path d="M103.9655,1317.8713 Q103.3845,1318.1702 102.7453,1318.3196 Q102.1062,1318.469 101.4006,1318.469 Q98.8938,1318.469 97.5739,1316.8171 Q96.2541,1315.1653 96.2541,1312.0442 Q96.2541,1308.9148 97.5739,1307.2629 Q98.8938,1305.6111 101.4006,1305.6111 Q102.1062,1305.6111 102.7536,1305.7605 Q103.4011,1305.9099 103.9655,1306.2088 L103.9655,1308.9314 Q103.3347,1308.3504 102.7412,1308.0806 Q102.1477,1307.8108 101.5168,1307.8108 Q100.1721,1307.8108 99.4873,1308.8775 Q98.8025,1309.9441 98.8025,1312.0442 Q98.8025,1314.136 99.4873,1315.2026 Q100.1721,1316.2693 101.5168,1316.2693 Q102.1477,1316.2693 102.7412,1315.9995 Q103.3347,1315.7297 103.9655,1315.1487 Z " fill="#000000"/><text fill="#000000" font-family="sans-serif" font-size="14" lengthAdjust="spacing" textLength="73.9922" x="115.0151" y="1317.5193">Permission</text><line style="stroke:#181818;stroke-width:0.5;" x1="86.89" x2="191.1097" y1="1328.2283" y2="1328.2283"/><text fill="#000000" font-family="sans-serif" font-size="14" lengthAdjust="spacing" textLength="94.2197" x="91.89" y="1345.7634">-name: String</text><line style="stroke:#181818;stroke-width:0.5;" x1="86.89" x2="191.1097" y1="1352.7166" y2="1352.7166"/></g><!--class AirControlArea--><g class="entity" data-qualified-name="domain.AirControlArea" data-source-line="65" id="ent0016"><rect fill="#F1F1F1" height="97.4648" rx="2.5" ry="2.5" style="stroke:#181818;stroke-width:0.5;" width="220.25" x="428.87" y="1137.7683"/><ellipse cx="484.2753" cy="1153.7683" fill="#C2C2C2" rx="11" ry="11" style="stroke:#181818;stroke-width:1;"/><path d="M487.2484,1159.4113 Q486.6674,1159.7102 486.0282,1159.8596 Q485.389,1160.009 484.6835,1160.009 Q482.1766,1160.009 480.8568,1158.3571 Q479.537,1156.7053 479.537,1153.5842 Q479.537,1150.4548 480.8568,1148.8029 Q482.1766,1147.1511 484.6835,1147.1511 Q485.389,1147.1511 486.0365,1147.3005 Q486.684,1147.4499 487.2484,1147.7488 L487.2484,1150.4714 Q486.6176,1149.8904 486.0241,1149.6206 Q485.4305,1149.3508 484.7997,1149.3508 Q483.455,1149.3508 482.7701,1150.4175 Q482.0853,1151.4841 482.0853,1153.5842 Q482.0853,1155.676 482.7701,1156.7426 Q483.455,1157.8093 484.7997,1157.8093 Q485.4305,1157.8093 486.0241,1157.5395 Q486.6176,1157.2697 487.2484,1156.6887 Z " fill="#000000"/><text fill="#000000" font-family="sans-serif" font-size="14" lengthAdjust="spacing" textLength="100.9395" x="504.7753" y="1159.0593">AirControlArea</text><line style="stroke:#181818;stroke-width:0.5;" x1="429.87" x2="648.12" y1="1169.7683" y2="1169.7683"/><text fill="#000000" font-family="sans-serif" font-size="14" lengthAdjust="spacing" textLength="89.3115" x="434.87" y="1187.3034">-code: String</text><text fill="#000000" font-family="sans-serif" font-size="14" lengthAdjust="spacing" textLength="94.2197" x="434.87" y="1203.7917">-name: String</text><text fill="#000000" font-family="sans-serif" font-size="14" lengthAdjust="spacing" textLength="208.25" x="434.87" y="1220.28">-geographicBoundaries: String</text><line style="stroke:#181818;stroke-width:0.5;" x1="429.87" x2="648.12" y1="1227.2331" y2="1227.2331"/></g><!--class WeatherData--><g class="entity" data-qualified-name="domain.WeatherData" data-source-line="71" id="ent0017"><rect fill="#F1F1F1" height="113.9531" rx="2.5" ry="2.5" style="stroke:#181818;stroke-width:0.5;" width="228.9111" x="637.54" y="962.8083"/><ellipse cx="704.6723" cy="978.8083" fill="#C2C2C2" rx="11" ry="11" style="stroke:#181818;stroke-width:1;"/><path d="M707.6455,984.4513 Q707.0644,984.7502 706.4253,984.8996 Q705.7861,985.049 705.0805,985.049 Q702.5737,985.049 701.2539,983.3971 Q699.934,981.7453 699.934,978.6242 Q699.934,975.4948 701.2539,973.8429 Q702.5737,972.1911 705.0805,972.1911 Q705.7861,972.1911 706.4336,972.3405 Q707.081,972.4899 707.6455,972.7887 L707.6455,975.5114 Q707.0146,974.9304 706.4211,974.6606 Q705.8276,974.3908 705.1967,974.3908 Q703.852,974.3908 703.1672,975.4575 Q702.4824,976.5241 702.4824,978.6242 Q702.4824,980.716 703.1672,981.7826 Q703.852,982.8493 705.1967,982.8493 Q705.8276,982.8493 706.4211,982.5795 Q707.0146,982.3097 707.6455,981.7287 Z " fill="#000000"/><text fill="#000000" font-family="sans-serif" font-size="14" lengthAdjust="spacing" textLength="86.1465" x="725.1723" y="984.0993">WeatherData</text><line style="stroke:#181818;stroke-width:0.5;" x1="638.54" x2="865.4511" y1="994.8083" y2="994.8083"/><text fill="#000000" font-family="sans-serif" font-size="14" lengthAdjust="spacing" textLength="216.9111" x="643.54" y="1012.3434">-airControlArea: AirControlArea</text><text fill="#000000" font-family="sans-serif" font-size="14" lengthAdjust="spacing" textLength="180.3457" x="643.54" y="1028.8317">-dateTime: LocalDateTime</text><text fill="#000000" font-family="sans-serif" font-size="14" lengthAdjust="spacing" textLength="82.8174" x="643.54" y="1045.32">-wind: Wind</text><text fill="#000000" font-family="sans-serif" font-size="14" lengthAdjust="spacing" textLength="162.5723" x="643.54" y="1061.8083">-source: WeatherSource</text><line style="stroke:#181818;stroke-width:0.5;" x1="638.54" x2="865.4511" y1="1068.7614" y2="1068.7614"/></g><!--class Wind--><g class="entity" data-qualified-name="domain.Wind" data-source-line="78" id="ent0018"><rect fill="#F1F1F1" height="80.9766" rx="2.5" ry="2.5" style="stroke:#181818;stroke-width:0.5;" width="135.8467" x="684.08" y="1146.0083"/><ellipse cx="730.9916" cy="1162.0083" fill="#C2C2C2" rx="11" ry="11" style="stroke:#181818;stroke-width:1;"/><path d="M733.9648,1167.6513 Q733.3837,1167.9502 732.7446,1168.0996 Q732.1054,1168.249 731.3998,1168.249 Q728.893,1168.249 727.5732,1166.5971 Q726.2533,1164.9453 726.2533,1161.8242 Q726.2533,1158.6948 727.5732,1157.0429 Q728.893,1155.3911 731.3998,1155.3911 Q732.1054,1155.3911 732.7529,1155.5405 Q733.4003,1155.6899 733.9648,1155.9888 L733.9648,1158.7114 Q733.3339,1158.1304 732.7404,1157.8606 Q732.1469,1157.5908 731.516,1157.5908 Q730.1713,1157.5908 729.4865,1158.6575 Q728.8017,1159.7241 728.8017,1161.8242 Q728.8017,1163.916 729.4865,1164.9826 Q730.1713,1166.0493 731.516,1166.0493 Q732.1469,1166.0493 732.7404,1165.7795 Q733.3339,1165.5097 733.9648,1164.9287 Z " fill="#000000"/><text fill="#000000" font-family="sans-serif" font-size="14" lengthAdjust="spacing" textLength="33.5234" x="751.4916" y="1167.2993">Wind</text><line style="stroke:#181818;stroke-width:0.5;" x1="685.08" x2="818.9267" y1="1178.0083" y2="1178.0083"/><text fill="#000000" font-family="sans-serif" font-size="14" lengthAdjust="spacing" textLength="123.8467" x="690.08" y="1195.5434">-direction: double</text><text fill="#000000" font-family="sans-serif" font-size="14" lengthAdjust="spacing" textLength="104.0771" x="690.08" y="1212.0317">-speed: double</text><line style="stroke:#181818;stroke-width:0.5;" x1="685.08" x2="818.9267" y1="1218.9848" y2="1218.9848"/></g><!--class WeatherSource--><g class="entity" data-qualified-name="domain.WeatherSource" data-source-line="83" id="ent0019"><rect fill="#F1F1F1" height="80.9766" rx="2.5" ry="2.5" style="stroke:#181818;stroke-width:0.5;" width="145.0068" x="854.5" y="1146.0083"/><ellipse cx="875.1333" cy="1162.0083" fill="#C2C2C2" rx="11" ry="11" style="stroke:#181818;stroke-width:1;"/><path d="M878.1065,1167.6513 Q877.5254,1167.9502 876.8863,1168.0996 Q876.2471,1168.249 875.5416,1168.249 Q873.0347,1168.249 871.7149,1166.5971 Q870.3951,1164.9453 870.3951,1161.8242 Q870.3951,1158.6948 871.7149,1157.0429 Q873.0347,1155.3911 875.5416,1155.3911 Q876.2471,1155.3911 876.8946,1155.5405 Q877.542,1155.6899 878.1065,1155.9888 L878.1065,1158.7114 Q877.4756,1158.1304 876.8821,1157.8606 Q876.2886,1157.5908 875.6578,1157.5908 Q874.313,1157.5908 873.6282,1158.6575 Q872.9434,1159.7241 872.9434,1161.8242 Q872.9434,1163.916 873.6282,1164.9826 Q874.313,1166.0493 875.6578,1166.0493 Q876.2886,1166.0493 876.8821,1165.7795 Q877.4756,1165.5097 878.1065,1164.9287 Z " fill="#000000"/><text fill="#000000" font-family="sans-serif" font-size="14" lengthAdjust="spacing" textLength="100.4883" x="890.3852" y="1167.2993">WeatherSource</text><line style="stroke:#181818;stroke-width:0.5;" x1="855.5" x2="998.5068" y1="1178.0083" y2="1178.0083"/><text fill="#000000" font-family="sans-serif" font-size="14" lengthAdjust="spacing" textLength="86.0918" x="860.5" y="1195.5434">-type: String</text><text fill="#000000" font-family="sans-serif" font-size="14" lengthAdjust="spacing" textLength="133.0068" x="860.5" y="1212.0317">-description: String</text><line style="stroke:#181818;stroke-width:0.5;" x1="855.5" x2="998.5068" y1="1218.9848" y2="1218.9848"/></g><!--class Email--><g class="entity" data-qualified-name="domain.Email" data-source-line="88" id="ent0020"><rect fill="#F1F1F1" height="64.4883" rx="2.5" ry="2.5" style="stroke:#181818;stroke-width:0.5;" width="104.4424" x="289.78" y="1154.2583"/><ellipse cx="320.9615" cy="1170.2583" fill="#C2C2C2" rx="11" ry="11" style="stroke:#181818;stroke-width:1;"/><path d="M323.9347,1175.9013 Q323.3536,1176.2002 322.7145,1176.3496 Q322.0753,1176.499 321.3697,1176.499 Q318.8629,1176.499 317.5431,1174.8471 Q316.2233,1173.1953 316.2233,1170.0742 Q316.2233,1166.9448 317.5431,1165.2929 Q318.8629,1163.6411 321.3697,1163.6411 Q322.0753,1163.6411 322.7228,1163.7905 Q323.3702,1163.9399 323.9347,1164.2388 L323.9347,1166.9614 Q323.3038,1166.3804 322.7103,1166.1106 Q322.1168,1165.8408 321.486,1165.8408 Q320.1412,1165.8408 319.4564,1166.9075 Q318.7716,1167.9741 318.7716,1170.0742 Q318.7716,1172.166 319.4564,1173.2326 Q320.1412,1174.2993 321.486,1174.2993 Q322.1168,1174.2993 322.7103,1174.0295 Q323.3038,1173.7597 323.9347,1173.1787 Z " fill="#000000"/><text fill="#000000" font-family="sans-serif" font-size="14" lengthAdjust="spacing" textLength="36.4834" x="338.5574" y="1175.5493">Email</text><line style="stroke:#181818;stroke-width:0.5;" x1="290.78" x2="393.2224" y1="1186.2583" y2="1186.2583"/><text fill="#000000" font-family="sans-serif" font-size="14" lengthAdjust="spacing" textLength="92.4424" x="295.78" y="1203.7934">-value: String</text><line style="stroke:#181818;stroke-width:0.5;" x1="290.78" x2="393.2224" y1="1210.7466" y2="1210.7466"/></g><!--class AirControlAreaRepository--><g class="entity" data-qualified-name="repository.AirControlAreaRepository" data-source-line="94" id="ent0022"><rect fill="#F1F1F1" height="64.4883" rx="2.5" ry="2.5" style="stroke:#181818;stroke-width:0.5;" width="380.498" x="943.75" y="757.0983"/><ellipse cx="1043.2163" cy="773.0983" fill="#B1B1B1" rx="11" ry="11" style="stroke:#181818;stroke-width:1;"/><path d="M1039.144,768.8634 L1039.144,766.7052 L1046.5234,766.7052 L1046.5234,768.8634 L1044.0581,768.8634 L1044.0581,776.9401 L1046.5234,776.9401 L1046.5234,779.0983 L1039.144,779.0983 L1039.144,776.9401 L1041.6094,776.9401 L1041.6094,768.8634 Z " fill="#000000"/><text fill="#000000" font-family="sans-serif" font-size="14" font-style="italic" lengthAdjust="spacing" textLength="173.0654" x="1063.7163" y="778.3893">AirControlAreaRepository</text><line style="stroke:#181818;stroke-width:0.5;" x1="944.75" x2="1323.248" y1="789.0983" y2="789.0983"/><line style="stroke:#181818;stroke-width:0.5;" x1="944.75" x2="1323.248" y1="797.0983" y2="797.0983"/><text fill="#000000" font-family="sans-serif" font-size="14" lengthAdjust="spacing" textLength="368.498" x="949.75" y="814.6334">+findByCode(code: String): Optional&lt;AirControlArea&gt;</text></g><!--class WeatherDataRepository--><g class="entity" data-qualified-name="repository.WeatherDataRepository" data-source-line="98" id="ent0023"><rect fill="#F1F1F1" height="64.4883" rx="2.5" ry="2.5" style="stroke:#181818;stroke-width:0.5;" width="557.1318" x="1359.43" y="757.0983"/><ellipse cx="1554.6097" cy="773.0983" fill="#B1B1B1" rx="11" ry="11" style="stroke:#181818;stroke-width:1;"/><path d="M1550.5374,768.8634 L1550.5374,766.7052 L1557.9168,766.7052 L1557.9168,768.8634 L1555.4515,768.8634 L1555.4515,776.9401 L1557.9168,776.9401 L1557.9168,779.0983 L1550.5374,779.0983 L1550.5374,776.9401 L1553.0028,776.9401 L1553.0028,768.8634 Z " fill="#000000"/><text fill="#000000" font-family="sans-serif" font-size="14" font-style="italic" lengthAdjust="spacing" textLength="158.2725" x="1575.1097" y="778.3893">WeatherDataRepository</text><line style="stroke:#181818;stroke-width:0.5;" x1="1360.43" x2="1915.5618" y1="789.0983" y2="789.0983"/><line style="stroke:#181818;stroke-width:0.5;" x1="1360.43" x2="1915.5618" y1="797.0983" y2="797.0983"/><text fill="#000000" font-family="sans-serif" font-size="14" lengthAdjust="spacing" textLength="545.1318" x="1365.43" y="814.6334">+findByAreaAndDate(area: AirControlArea, date: LocalDate): List&lt;WeatherData&gt;</text></g><!--link ConsultWeatherDataUI to ConsultWeatherDataController--><g class="link" data-entity-1="ent0003" data-entity-2="ent0006" data-link-type="dependency" data-source-line="103" id="lnk24"><path codeLine="103" d="M333,269.6283 C333,311.2783 333,355.4283 333,387.1783" fill="none" id="ConsultWeatherDataUI-to-ConsultWeatherDataController" style="stroke:#181818;stroke-width:1;"/><polygon fill="#181818" points="333,393.1783,337,384.1783,333,388.1783,329,384.1783,333,393.1783" style="stroke:#181818;stroke-width:1;"/><polygon fill="#000000" points="338,339.0736,340.9389,330.0285,335.0611,330.0285,338,339.0736" style="stroke:#000000;stroke-width:1;"/><text fill="#000000" font-family="sans-serif" font-size="13" lengthAdjust="spacing" textLength="28.5645" x="347" y="338.9866">uses</text></g><!--link ConsultWeatherDataController to ConsultWeatherDataService--><g class="link" data-entity-1="ent0006" data-entity-2="ent0008" data-link-type="dependency" data-source-line="104" id="lnk25"><path codeLine="104" d="M333,458.3783 C333,489.0383 333,529.2383 333,559.8483" fill="none" id="ConsultWeatherDataController-to-ConsultWeatherDataService" style="stroke:#181818;stroke-width:1;"/><polygon fill="#181818" points="333,565.8483,337,556.8483,333,560.8483,329,556.8483,333,565.8483" style="stroke:#181818;stroke-width:1;"/><polygon fill="#000000" points="338,503.5636,340.9389,494.5185,335.0611,494.5185,338,503.5636" style="stroke:#000000;stroke-width:1;"/><text fill="#000000" font-family="sans-serif" font-size="13" lengthAdjust="spacing" textLength="28.5645" x="347" y="503.4766">uses</text></g><!--link ConsultWeatherDataService to AuthorizationService--><g class="link" data-entity-1="ent0008" data-entity-2="ent0009" data-link-type="dependency" data-source-line="105" id="lnk26"><path codeLine="105" d="M322.96,631.0183 C311.88,665.8983 295.9746,715.9793 284.8946,750.8993" fill="none" id="ConsultWeatherDataService-to-AuthorizationService" style="stroke:#181818;stroke-width:1;"/><polygon fill="#181818" points="283.08,756.6183,289.6146,749.2495,284.5922,751.8524,281.9893,746.83,283.08,756.6183" style="stroke:#181818;stroke-width:1;"/><polygon fill="#000000" points="313.6268,682.2991,319.1653,674.5676,313.5631,672.7887,313.6268,682.2991" style="stroke:#000000;stroke-width:1;"/><text fill="#000000" font-family="sans-serif" font-size="13" lengthAdjust="spacing" textLength="116.6699" x="324.14" y="682.4466">checks permission</text></g><!--link ConsultWeatherDataService to AirControlAreaRepository--><g class="link" data-entity-1="ent0008" data-entity-2="ent0022" data-link-type="dependency" data-source-line="106" id="lnk27"><path codeLine="106" d="M518.41,631.1083 C630.72,651.6883 776.45,680.8183 904,714.0983 C950.69,726.2883 996.1624,740.5976 1038.3424,754.7676" fill="none" id="ConsultWeatherDataService-to-AirControlAreaRepository" style="stroke:#181818;stroke-width:1;"/><polygon fill="#181818" points="1044.03,756.6783,1036.7724,750.0205,1039.2903,755.086,1034.2247,757.604,1044.03,756.6783" style="stroke:#181818;stroke-width:1;"/><polygon fill="#000000" points="789.8643,678.6905,781.7447,673.7384,780.3847,679.4568,789.8643,678.6905" style="stroke:#000000;stroke-width:1;"/><text fill="#000000" font-family="sans-serif" font-size="13" lengthAdjust="spacing" textLength="76.4893" x="794" y="682.4466">verifies area</text></g><!--link ConsultWeatherDataService to WeatherDataRepository--><g class="link" data-entity-1="ent0008" data-entity-2="ent0023" data-link-type="dependency" data-source-line="107" id="lnk28"><path codeLine="107" d="M581.11,631.1083 C603.05,633.7883 624.92,636.4183 646,638.8783 C955.02,675.0683 1035.71,659.4083 1342,714.0983 C1403.8,725.1383 1466.014,740.3172 1521.244,755.0972" fill="none" id="ConsultWeatherDataService-to-WeatherDataRepository" style="stroke:#181818;stroke-width:1;"/><polygon fill="#181818" points="1527.04,756.6483,1519.38,750.4576,1522.21,755.3557,1517.3119,758.1857,1527.04,756.6483" style="stroke:#181818;stroke-width:1;"/><polygon fill="#000000" points="1164.1371,678.1873,1155.5539,674.091,1154.7854,679.9183,1164.1371,678.1873" style="stroke:#000000;stroke-width:1;"/><text fill="#000000" font-family="sans-serif" font-size="13" lengthAdjust="spacing" textLength="54.3423" x="1168.18" y="682.4466">retrieves</text></g><!--link ConsultWeatherDataService to WeatherDataDTO--><g class="link" data-entity-1="ent0008" data-entity-2="ent0011" data-link-type="dependency" data-source-line="108" id="lnk29"><path codeLine="108" d="M387.82,631.0783 C407.33,642.6583 429.33,656.0683 449,668.8783 C471.43,683.4983 490.1994,696.2707 512.5194,711.9407" fill="none" id="ConsultWeatherDataService-to-WeatherDataDTO" style="stroke:#181818;stroke-width:1;"/><polygon fill="#181818" points="517.43,715.3883,512.3624,706.9432,513.3378,712.5153,507.7657,713.4907,517.43,715.3883" style="stroke:#181818;stroke-width:1;"/><polygon fill="#000000" points="481.6552,680.254,475.665,672.8668,472.467,677.7986,481.6552,680.254" style="stroke:#000000;stroke-width:1;"/><text fill="#000000" font-family="sans-serif" font-size="13" lengthAdjust="spacing" textLength="45.1318" x="486.46" y="682.4466">creates</text></g><!--link AuthorizationService to User--><g class="link" data-entity-1="ent0009" data-entity-2="ent0013" data-link-type="dependency" data-source-line="110" id="lnk30"><path codeLine="110" d="M273,821.6283 C273,860.1283 273,919.8783 273,964.7783" fill="none" id="AuthorizationService-to-User" style="stroke:#181818;stroke-width:1;"/><polygon fill="#181818" points="273,970.7783,277,961.7783,273,965.7783,269,961.7783,273,970.7783" style="stroke:#181818;stroke-width:1;"/><polygon fill="#000000" points="278,908.4636,280.9389,899.4185,275.0611,899.4185,278,908.4636" style="stroke:#000000;stroke-width:1;"/><text fill="#000000" font-family="sans-serif" font-size="13" lengthAdjust="spacing" textLength="42.853" x="287" y="908.3766">checks</text></g><!--reverse link User to Role--><g class="link" data-entity-1="ent0013" data-entity-2="ent0014" data-link-type="aggregation" data-source-line="111" id="lnk31"><path codeLine="111" d="M226.309,1078.1785 C206.459,1102.5885 190.2,1122.5683 171.39,1145.6883" fill="none" id="User-backto-Role" style="stroke:#181818;stroke-width:1;"/><polygon fill="none" points="233.88,1068.8683,226.9911,1070.9997,226.309,1078.1785,233.1979,1076.0471,233.88,1068.8683" style="stroke:#181818;stroke-width:1;"/><text fill="#000000" font-family="sans-serif" font-size="13" lengthAdjust="spacing" textLength="8.2202" x="220.1008" y="1089.0601">1</text><text fill="#000000" font-family="sans-serif" font-size="13" lengthAdjust="spacing" textLength="22.7119" x="152.9919" y="1135.2813">1..*</text></g><!--reverse link Role to Permission--><g class="link" data-entity-1="ent0014" data-entity-2="ent0015" data-link-type="aggregation" data-source-line="112" id="lnk32"><path codeLine="112" d="M139,1239.2383 C139,1261.0583 139,1275.7383 139,1296.0883" fill="none" id="Role-backto-Permission" style="stroke:#181818;stroke-width:1;"/><polygon fill="none" points="139,1227.2383,135,1233.2383,139,1239.2383,143,1233.2383,139,1227.2383" style="stroke:#181818;stroke-width:1;"/><text fill="#000000" font-family="sans-serif" font-size="13" lengthAdjust="spacing" textLength="8.2202" x="130.3803" y="1247.5199">1</text><text fill="#000000" font-family="sans-serif" font-size="13" lengthAdjust="spacing" textLength="6.2651" x="132.4086" y="1285.4626">*</text></g><!--reverse link User to Email--><g class="link" data-entity-1="ent0013" data-entity-2="ent0020" data-link-type="composition" data-source-line="113" id="lnk33"><path codeLine="113" d="M297.7775,1079.936 C309.2375,1107.286 318.63,1129.6983 328.71,1153.7683" fill="none" id="User-backto-Email" style="stroke:#181818;stroke-width:1;"/><polygon fill="#181818" points="293.14,1068.8683,291.7695,1075.948,297.7775,1079.936,299.148,1072.8563,293.14,1068.8683" style="stroke:#181818;stroke-width:1;"/></g><!--link WeatherData to AirControlArea--><g class="link" data-entity-1="ent0017" data-entity-2="ent0016" data-link-type="dependency" data-source-line="115" id="lnk34"><path codeLine="115" d="M679,1077.2383 C653.71,1096.7983 630.3566,1114.8582 606.0166,1133.6782" fill="none" id="WeatherData-to-AirControlArea" style="stroke:#181818;stroke-width:1;"/><polygon fill="#181818" points="601.27,1137.3483,610.8366,1135.0075,605.2255,1134.2898,605.9431,1128.6787,601.27,1137.3483" style="stroke:#181818;stroke-width:1;"/><text fill="#000000" font-family="sans-serif" font-size="13" lengthAdjust="spacing" textLength="6.2651" x="664.2283" y="1097.3348">*</text><text fill="#000000" font-family="sans-serif" font-size="13" lengthAdjust="spacing" textLength="8.2202" x="601.4804" y="1126.9717">1</text></g><!--reverse link WeatherData to Wind--><g class="link" data-entity-1="ent0017" data-entity-2="ent0018" data-link-type="composition" data-source-line="116" id="lnk35"><path codeLine="116" d="M752,1089.0083 C752,1111.5683 752,1125.0383 752,1145.6283" fill="none" id="WeatherData-backto-Wind" style="stroke:#181818;stroke-width:1;"/><polygon fill="#181818" points="752,1077.0083,748,1083.0083,752,1089.0083,756,1083.0083,752,1077.0083" style="stroke:#181818;stroke-width:1;"/></g><!--reverse link WeatherData to WeatherSource--><g class="link" data-entity-1="ent0017" data-entity-2="ent0019" data-link-type="composition" data-source-line="117" id="lnk36"><path codeLine="117" d="M820.4767,1085.2345 C844.4367,1107.7945 862.76,1125.0383 884.64,1145.6283" fill="none" id="WeatherData-backto-WeatherSource" style="stroke:#181818;stroke-width:1;"/><polygon fill="#181818" points="811.74,1077.0083,813.3663,1084.0336,820.4767,1085.2345,818.8504,1078.2092,811.74,1077.0083" style="stroke:#181818;stroke-width:1;"/></g><?plantuml-src jLR9Rjim4BthAmZteYmEKhGd8J3Ws3a4Q94YJf3pX1hRH2XH9Ia7Jf5_xr3oGjgqig3LmP8uCsyMFZtQ2YkHtK_Elt_hZyP9Ofv4MO66WXMgL7okLO7CwXezImNy2MOuiKiArSWjb3FfEvWvvEfPb3Cs1Mby2vTWpD1QBHvhYzTSbHFnWkmyILQWh5UBCresIcAFVHat5_kJCBgQO3OYOotj0uATenw3XVlhbOEx-Wo49X-hbHngX97ACMCJobZEFASSB2t_K1maGU36Sa8D_QxHM0US7ddhkJ2LXAMNDttUFXEMCFR2iuxlRWQH-9ze3FMP5krzNLh4yqfhfUD-hychDp7UTYjHltTYeqs4DxaJnlSSqzKqiWZ8RMiwYhSUgHEgIWeELgZolOLEK2y4n_zTfLV3iBPpfSLBKsOilJ1h5ypJsg3Es3tzdh8ATI6CeR2C_TeyK-97HMI6SZ_NmMh_3P-3N67Zdqjm9me_YNlrFEY3pyV2wK4pWbpLZtBNFgaGyuZDg5fpl5jMiTIjSOo6Qr6ru9vFoB5S5I0EqCjjKz0uag_Cs9MxUSiq23GhljpIyy3R_JcOxTwc7zzoXnVKK48HwtcBlAvaYnzXxTRO3HvIFTZt8937IN2Ws1cgcOPgBlYbgiiSj73pEvJMOs873RETyZvCnOmzqEyUZR9r_adp6YcFeeAwyWvEcpq-nrfjKmMWDaxr_239FTI6hm7Q0cID7L-5naePOPLUxduPehIefq3LXUE-tKG4uZUbuLmkdKIaFaM8yJTDqI0lGfo0gzjaWUHrP78GGv8Lsk8K8gmutHM-YCvxHr7qlqE_F-W-8ZD6Cc_O8EdqYiEiJv0EZBMB0uYUFXdZS-HFnXE5ju4ExMR65gZ5bBvGvWRw9b1yfpBwcqGxZujtzBHpyb0tbDSsWKcqNnVKQFMcyK7IlFU-zfZgz-b-TdRSQxGqQGHrOw3LhHIsGSUqtYfyuYkFStM9NEYEqlXkBhhHaRt5G4N-0W00?></g></svg>