<?plantuml 1.2026.2?><svg xmlns="http://www.w3.org/2000/svg" xmlns:xlink="http://www.w3.org/1999/xlink" contentStyleType="text/css" data-diagram-type="CLASS" height="1505px" preserveAspectRatio="none" style="width:3612px;height:1505px;background:#FFFFFF;" version="1.1" viewBox="0 0 3612 1505" width="3612px" zoomAndPan="magnify"><title>US078-CD</title><defs/><g><g class="title" data-source-line="1"><text fill="#000000" font-family="sans-serif" font-size="14" font-weight="bold" lengthAdjust="spacing" textLength="76.0293" x="1760.9854" y="23.5352">US078-CD</text></g><!--cluster ui--><g class="cluster" data-qualified-name="ui" data-source-line="9" id="ent0004"><rect fill="none" height="427.42" rx="2.5" ry="2.5" style="stroke:#000000;stroke-width:1.5;" width="412" x="7" y="60.9783"/><text fill="#000000" font-family="sans-serif" font-size="14" font-weight="bold" lengthAdjust="spacing" textLength="13.7471" x="206.1265" y="76.5134">ui</text></g><!--cluster remote--><g class="cluster" data-qualified-name="ui.remote" data-source-line="8" id="ent0002"><rect fill="#DDDDDD" height="360.42" rx="2.5" ry="2.5" style="stroke:#000000;stroke-width:1.5;" width="364" x="31" y="103.9783"/><text fill="#000000" font-family="sans-serif" font-size="14" font-weight="bold" lengthAdjust="spacing" textLength="50.9619" x="187.519" y="119.5134">remote</text></g><!--cluster network--><g class="cluster" data-qualified-name="network" data-source-line="23" id="ent0008"><rect fill="none" height="825.35" rx="2.5" ry="2.5" style="stroke:#000000;stroke-width:1.5;" width="1346" x="443" y="44.4883"/><text fill="#000000" font-family="sans-serif" font-size="14" font-weight="bold" lengthAdjust="spacing" textLength="59.3154" x="1086.3423" y="60.0234">network</text></g><!--cluster client--><g class="cluster" data-qualified-name="network.client" data-source-line="22" id="ent0006"><rect fill="#DDDDDD" height="181.44" rx="2.5" ry="2.5" style="stroke:#000000;stroke-width:1.5;" width="388" x="508" y="282.9583"/><text fill="#000000" font-family="sans-serif" font-size="14" font-weight="bold" lengthAdjust="spacing" textLength="39.6279" x="682.186" y="298.4934">client</text></g><!--cluster protocol--><g class="cluster" data-qualified-name="network.protocol" data-source-line="32" id="ent0009"><rect fill="#DDDDDD" height="164.95" rx="2.5" ry="2.5" style="stroke:#000000;stroke-width:1.5;" width="874" x="467" y="537.3983"/><text fill="#000000" font-family="sans-serif" font-size="14" font-weight="bold" lengthAdjust="spacing" textLength="60.1426" x="873.9287" y="552.9334">protocol</text></g><!--cluster server--><g class="cluster" data-qualified-name="network.server" data-source-line="54" id="ent0013"><rect fill="#DDDDDD" height="758.35" rx="2.5" ry="2.5" style="stroke:#000000;stroke-width:1.5;" width="400" x="1365" y="87.4883"/><text fill="#000000" font-family="sans-serif" font-size="14" font-weight="bold" lengthAdjust="spacing" textLength="45.3564" x="1542.3218" y="103.0234">server</text></g><!--cluster application--><g class="cluster" data-qualified-name="application" data-source-line="75" id="ent0018"><rect fill="#DDDDDD" height="115.49" rx="2.5" ry="2.5" style="stroke:#000000;stroke-width:1.5;" width="2767" x="495" y="918.8383"/><text fill="#000000" font-family="sans-serif" font-size="14" font-weight="bold" lengthAdjust="spacing" textLength="79.9326" x="1838.5337" y="934.3734">application</text></g><!--cluster domain--><g class="cluster" data-qualified-name="domain" data-source-line="109" id="ent0029"><rect fill="#DDDDDD" height="415.93" rx="2.5" ry="2.5" style="stroke:#000000;stroke-width:1.5;" width="760" x="2846" y="1083.3283"/><text fill="#000000" font-family="sans-serif" font-size="14" font-weight="bold" lengthAdjust="spacing" textLength="53.7715" x="3199.1143" y="1098.8634">domain</text></g><!--cluster repository--><g class="cluster" data-qualified-name="repository" data-source-line="139" id="ent0036"><rect fill="#DDDDDD" height="115.49" rx="2.5" ry="2.5" style="stroke:#000000;stroke-width:1.5;" width="344" x="2408" y="1099.8183"/><text fill="#000000" font-family="sans-serif" font-size="14" font-weight="bold" lengthAdjust="spacing" textLength="74.3955" x="2542.8022" y="1115.3534">repository</text></g><!--class AirTransportCompanyApp--><g class="entity" data-qualified-name="ui.remote.AirTransportCompanyApp" data-source-line="9" id="ent0003"><rect fill="#F1F1F1" height="64.4883" rx="2.5" ry="2.5" style="stroke:#181818;stroke-width:0.5;" width="209.1328" x="153.43" y="138.9783"/><ellipse cx="168.43" cy="154.9783" fill="#C2C2C2" rx="11" ry="11" style="stroke:#181818;stroke-width:1;"/><path d="M171.4031,160.6213 Q170.8221,160.9202 170.1829,161.0696 Q169.5438,161.219 168.8382,161.219 Q166.3314,161.219 165.0115,159.5671 Q163.6917,157.9153 163.6917,154.7942 Q163.6917,151.6648 165.0115,150.0129 Q166.3314,148.3611 168.8382,148.3611 Q169.5438,148.3611 170.1912,148.5105 Q170.8387,148.6599 171.4031,148.9588 L171.4031,151.6814 Q170.7723,151.1004 170.1788,150.8306 Q169.5853,150.5608 168.9544,150.5608 Q167.6097,150.5608 166.9249,151.6275 Q166.2401,152.6941 166.2401,154.7942 Q166.2401,156.886 166.9249,157.9526 Q167.6097,159.0193 168.9544,159.0193 Q169.5853,159.0193 170.1788,158.7495 Q170.7723,158.4797 171.4031,157.8987 Z " fill="#000000"/><text fill="#000000" font-family="sans-serif" font-size="14" lengthAdjust="spacing" textLength="177.1328" x="182.43" y="160.2693">AirTransportCompanyApp</text><line style="stroke:#181818;stroke-width:0.5;" x1="154.43" x2="361.5628" y1="170.9783" y2="170.9783"/><line style="stroke:#181818;stroke-width:0.5;" x1="154.43" x2="361.5628" y1="178.9783" y2="178.9783"/><text fill="#000000" font-family="sans-serif" font-size="14" lengthAdjust="spacing" textLength="51.3037" x="159.43" y="196.5134">+start()</text></g><!--class RemoteAccessClientUI--><g class="entity" data-qualified-name="ui.remote.RemoteAccessClientUI" data-source-line="13" id="ent0005"><rect fill="#F1F1F1" height="130.4414" rx="2.5" ry="2.5" style="stroke:#181818;stroke-width:0.5;" width="331.7031" x="47.15" y="317.9583"/><ellipse cx="133.4161" cy="333.9583" fill="#C2C2C2" rx="11" ry="11" style="stroke:#181818;stroke-width:1;"/><path d="M136.3893,339.6013 Q135.8082,339.9002 135.169,340.0496 Q134.5299,340.199 133.8243,340.199 Q131.3175,340.199 129.9977,338.5471 Q128.6778,336.8953 128.6778,333.7742 Q128.6778,330.6448 129.9977,328.9929 Q131.3175,327.3411 133.8243,327.3411 Q134.5299,327.3411 135.1773,327.4905 Q135.8248,327.6399 136.3893,327.9388 L136.3893,330.6614 Q135.7584,330.0804 135.1649,329.8106 Q134.5714,329.5408 133.9405,329.5408 Q132.5958,329.5408 131.911,330.6075 Q131.2262,331.6741 131.2262,333.7742 Q131.2262,335.866 131.911,336.9326 Q132.5958,337.9993 133.9405,337.9993 Q134.5714,337.9993 135.1649,337.7295 Q135.7584,337.4597 136.3893,336.8787 Z " fill="#000000"/><text fill="#000000" font-family="sans-serif" font-size="14" lengthAdjust="spacing" textLength="150.6709" x="153.9161" y="339.2493">RemoteAccessClientUI</text><line style="stroke:#181818;stroke-width:0.5;" x1="48.15" x2="377.8531" y1="349.9583" y2="349.9583"/><line style="stroke:#181818;stroke-width:0.5;" x1="48.15" x2="377.8531" y1="357.9583" y2="357.9583"/><text fill="#000000" font-family="sans-serif" font-size="14" lengthAdjust="spacing" textLength="148.1484" x="53.15" y="375.4934">+requestCredentials()</text><text fill="#000000" font-family="sans-serif" font-size="14" lengthAdjust="spacing" textLength="203.9092" x="53.15" y="391.9817">+displayAvailableOperations()</text><text fill="#000000" font-family="sans-serif" font-size="14" lengthAdjust="spacing" textLength="170.1396" x="53.15" y="408.47">+requestOperationData()</text><text fill="#000000" font-family="sans-serif" font-size="14" lengthAdjust="spacing" textLength="319.7031" x="53.15" y="424.9583">+displayResponse(response: RemoteResponse)</text><text fill="#000000" font-family="sans-serif" font-size="14" lengthAdjust="spacing" textLength="209.7402" x="53.15" y="441.4466">+displayError(message: String)</text></g><!--class TcpClient--><g class="entity" data-qualified-name="network.client.TcpClient" data-source-line="23" id="ent0007"><rect fill="#F1F1F1" height="130.4414" rx="2.5" ry="2.5" style="stroke:#181818;stroke-width:0.5;" width="355.458" x="524.27" y="317.9583"/><ellipse cx="665.5791" cy="333.9583" fill="#C2C2C2" rx="11" ry="11" style="stroke:#181818;stroke-width:1;"/><path d="M668.5522,339.6013 Q667.9712,339.9002 667.332,340.0496 Q666.6929,340.199 665.9873,340.199 Q663.4804,340.199 662.1606,338.5471 Q660.8408,336.8953 660.8408,333.7742 Q660.8408,330.6448 662.1606,328.9929 Q663.4804,327.3411 665.9873,327.3411 Q666.6929,327.3411 667.3403,327.4905 Q667.9878,327.6399 668.5522,327.9388 L668.5522,330.6614 Q667.9214,330.0804 667.3279,329.8106 Q666.7344,329.5408 666.1035,329.5408 Q664.7588,329.5408 664.074,330.6075 Q663.3891,331.6741 663.3891,333.7742 Q663.3891,335.866 664.074,336.9326 Q664.7588,337.9993 666.1035,337.9993 Q666.7344,337.9993 667.3279,337.7295 Q667.9214,337.4597 668.5522,336.8787 Z " fill="#000000"/><text fill="#000000" font-family="sans-serif" font-size="14" lengthAdjust="spacing" textLength="64.3398" x="686.0791" y="339.2493">TcpClient</text><line style="stroke:#181818;stroke-width:0.5;" x1="525.27" x2="878.728" y1="349.9583" y2="349.9583"/><text fill="#000000" font-family="sans-serif" font-size="14" lengthAdjust="spacing" textLength="86.5908" x="530.27" y="367.4934">-host: String</text><text fill="#000000" font-family="sans-serif" font-size="14" lengthAdjust="spacing" textLength="63.3076" x="530.27" y="383.9817">-port: int</text><line style="stroke:#181818;stroke-width:0.5;" x1="525.27" x2="878.728" y1="390.9348" y2="390.9348"/><text fill="#000000" font-family="sans-serif" font-size="14" lengthAdjust="spacing" textLength="73.5889" x="530.27" y="408.47">+connect()</text><text fill="#000000" font-family="sans-serif" font-size="14" lengthAdjust="spacing" textLength="343.458" x="530.27" y="424.9583">+send(request: RemoteRequest): RemoteResponse</text><text fill="#000000" font-family="sans-serif" font-size="14" lengthAdjust="spacing" textLength="54.9883" x="530.27" y="441.4466">+close()</text></g><!--class RemoteRequest--><g class="entity" data-qualified-name="network.protocol.RemoteRequest" data-source-line="33" id="ent0010"><rect fill="#F1F1F1" height="97.4648" rx="2.5" ry="2.5" style="stroke:#181818;stroke-width:0.5;" width="208.6426" x="482.68" y="580.6383"/><ellipse cx="529.9095" cy="596.6383" fill="#C2C2C2" rx="11" ry="11" style="stroke:#181818;stroke-width:1;"/><path d="M532.8826,602.2813 Q532.3016,602.5802 531.6624,602.7296 Q531.0233,602.879 530.3177,602.879 Q527.8109,602.879 526.491,601.2271 Q525.1712,599.5753 525.1712,596.4542 Q525.1712,593.3248 526.491,591.6729 Q527.8109,590.0211 530.3177,590.0211 Q531.0233,590.0211 531.6707,590.1705 Q532.3182,590.3199 532.8826,590.6188 L532.8826,593.3414 Q532.2518,592.7604 531.6583,592.4906 Q531.0648,592.2208 530.4339,592.2208 Q529.0892,592.2208 528.4044,593.2875 Q527.7196,594.3541 527.7196,596.4542 Q527.7196,598.546 528.4044,599.6126 Q529.0892,600.6793 530.4339,600.6793 Q531.0648,600.6793 531.6583,600.4095 Q532.2518,600.1397 532.8826,599.5587 Z " fill="#000000"/><text fill="#000000" font-family="sans-serif" font-size="14" lengthAdjust="spacing" textLength="105.6836" x="550.4095" y="601.9293">RemoteRequest</text><line style="stroke:#181818;stroke-width:0.5;" x1="483.68" x2="690.3226" y1="612.6383" y2="612.6383"/><text fill="#000000" font-family="sans-serif" font-size="14" lengthAdjust="spacing" textLength="122.1719" x="488.68" y="630.1734">-operation: String</text><text fill="#000000" font-family="sans-serif" font-size="14" lengthAdjust="spacing" textLength="196.6426" x="488.68" y="646.6617">-authenticationToken: String</text><text fill="#000000" font-family="sans-serif" font-size="14" lengthAdjust="spacing" textLength="109.9766" x="488.68" y="663.15">-payload: String</text><line style="stroke:#181818;stroke-width:0.5;" x1="483.68" x2="690.3226" y1="670.1031" y2="670.1031"/></g><!--class RemoteResponse--><g class="entity" data-qualified-name="network.protocol.RemoteResponse" data-source-line="39" id="ent0011"><rect fill="#F1F1F1" height="113.9531" rx="2.5" ry="2.5" style="stroke:#181818;stroke-width:0.5;" width="160.9072" x="726.55" y="572.3983"/><ellipse cx="747.2756" cy="588.3983" fill="#C2C2C2" rx="11" ry="11" style="stroke:#181818;stroke-width:1;"/><path d="M750.2488,594.0413 Q749.6677,594.3402 749.0286,594.4896 Q748.3894,594.639 747.6838,594.639 Q745.177,594.639 743.8572,592.9871 Q742.5374,591.3353 742.5374,588.2142 Q742.5374,585.0848 743.8572,583.4329 Q745.177,581.7811 747.6838,581.7811 Q748.3894,581.7811 749.0369,581.9305 Q749.6843,582.0799 750.2488,582.3788 L750.2488,585.1014 Q749.6179,584.5204 749.0244,584.2506 Q748.4309,583.9808 747.8,583.9808 Q746.4553,583.9808 745.7705,585.0475 Q745.0857,586.1141 745.0857,588.2142 Q745.0857,590.306 745.7705,591.3726 Q746.4553,592.4393 747.8,592.4393 Q748.4309,592.4393 749.0244,592.1695 Q749.6179,591.8997 750.2488,591.3187 Z " fill="#000000"/><text fill="#000000" font-family="sans-serif" font-size="14" lengthAdjust="spacing" textLength="116.1836" x="762.548" y="593.6893">RemoteResponse</text><line style="stroke:#181818;stroke-width:0.5;" x1="727.55" x2="886.4572" y1="604.3983" y2="604.3983"/><text fill="#000000" font-family="sans-serif" font-size="14" lengthAdjust="spacing" textLength="123.4775" x="732.55" y="621.9334">-success: boolean</text><text fill="#000000" font-family="sans-serif" font-size="14" lengthAdjust="spacing" textLength="109.9766" x="732.55" y="638.4217">-payload: String</text><text fill="#000000" font-family="sans-serif" font-size="14" lengthAdjust="spacing" textLength="125.4121" x="732.55" y="654.91">-errorCode: String</text><text fill="#000000" font-family="sans-serif" font-size="14" lengthAdjust="spacing" textLength="148.9072" x="732.55" y="671.3983">-errorMessage: String</text><line style="stroke:#181818;stroke-width:0.5;" x1="727.55" x2="886.4572" y1="678.3514" y2="678.3514"/></g><!--class RemoteProtocolCodec--><g class="entity" data-qualified-name="network.protocol.RemoteProtocolCodec" data-source-line="46" id="ent0012"><rect fill="#F1F1F1" height="113.9531" rx="2.5" ry="2.5" style="stroke:#181818;stroke-width:0.5;" width="402.5645" x="922.72" y="572.3983"/><ellipse cx="1045.179" cy="588.3983" fill="#C2C2C2" rx="11" ry="11" style="stroke:#181818;stroke-width:1;"/><path d="M1048.1521,594.0413 Q1047.5711,594.3402 1046.9319,594.4896 Q1046.2928,594.639 1045.5872,594.639 Q1043.0804,594.639 1041.7605,592.9871 Q1040.4407,591.3353 1040.4407,588.2142 Q1040.4407,585.0848 1041.7605,583.4329 Q1043.0804,581.7811 1045.5872,581.7811 Q1046.2928,581.7811 1046.9402,581.9305 Q1047.5877,582.0799 1048.1521,582.3788 L1048.1521,585.1014 Q1047.5213,584.5204 1046.9278,584.2506 Q1046.3343,583.9808 1045.7034,583.9808 Q1044.3587,583.9808 1043.6739,585.0475 Q1042.989,586.1141 1042.989,588.2142 Q1042.989,590.306 1043.6739,591.3726 Q1044.3587,592.4393 1045.7034,592.4393 Q1046.3343,592.4393 1046.9278,592.1695 Q1047.5213,591.8997 1048.1521,591.3187 Z " fill="#000000"/><text fill="#000000" font-family="sans-serif" font-size="14" lengthAdjust="spacing" textLength="149.1465" x="1065.679" y="593.6893">RemoteProtocolCodec</text><line style="stroke:#181818;stroke-width:0.5;" x1="923.72" x2="1324.2845" y1="604.3983" y2="604.3983"/><line style="stroke:#181818;stroke-width:0.5;" x1="923.72" x2="1324.2845" y1="612.3983" y2="612.3983"/><text fill="#000000" font-family="sans-serif" font-size="14" lengthAdjust="spacing" textLength="283.6777" x="928.72" y="629.9334">+encode(request: RemoteRequest): String</text><text fill="#000000" font-family="sans-serif" font-size="14" lengthAdjust="spacing" textLength="369.5645" x="928.72" y="646.4217">+decodeRequest(rawMessage: String): RemoteRequest</text><text fill="#000000" font-family="sans-serif" font-size="14" lengthAdjust="spacing" textLength="304.6777" x="928.72" y="662.91">+encode(response: RemoteResponse): String</text><text fill="#000000" font-family="sans-serif" font-size="14" lengthAdjust="spacing" textLength="390.5645" x="928.72" y="679.3983">+decodeResponse(rawMessage: String): RemoteResponse</text></g><!--class EmbeddedTcpServer--><g class="entity" data-qualified-name="network.server.EmbeddedTcpServer" data-source-line="55" id="ent0014"><rect fill="#F1F1F1" height="97.4648" rx="2.5" ry="2.5" style="stroke:#181818;stroke-width:0.5;" width="170.1816" x="1430.91" y="122.4883"/><ellipse cx="1445.91" cy="138.4883" fill="#C2C2C2" rx="11" ry="11" style="stroke:#181818;stroke-width:1;"/><path d="M1448.8831,144.1313 Q1448.3021,144.4302 1447.6629,144.5796 Q1447.0238,144.729 1446.3182,144.729 Q1443.8114,144.729 1442.4915,143.0771 Q1441.1717,141.4253 1441.1717,138.3042 Q1441.1717,135.1748 1442.4915,133.5229 Q1443.8114,131.8711 1446.3182,131.8711 Q1447.0238,131.8711 1447.6712,132.0205 Q1448.3187,132.1699 1448.8831,132.4688 L1448.8831,135.1914 Q1448.2523,134.6104 1447.6588,134.3406 Q1447.0653,134.0708 1446.4344,134.0708 Q1445.0897,134.0708 1444.4049,135.1375 Q1443.7201,136.2041 1443.7201,138.3042 Q1443.7201,140.396 1444.4049,141.4626 Q1445.0897,142.5293 1446.4344,142.5293 Q1447.0653,142.5293 1447.6588,142.2595 Q1448.2523,141.9897 1448.8831,141.4087 Z " fill="#000000"/><text fill="#000000" font-family="sans-serif" font-size="14" lengthAdjust="spacing" textLength="138.1816" x="1459.91" y="143.7793">EmbeddedTcpServer</text><line style="stroke:#181818;stroke-width:0.5;" x1="1431.91" x2="1600.0916" y1="154.4883" y2="154.4883"/><text fill="#000000" font-family="sans-serif" font-size="14" lengthAdjust="spacing" textLength="63.3076" x="1436.91" y="172.0234">-port: int</text><line style="stroke:#181818;stroke-width:0.5;" x1="1431.91" x2="1600.0916" y1="178.9766" y2="178.9766"/><text fill="#000000" font-family="sans-serif" font-size="14" lengthAdjust="spacing" textLength="51.3037" x="1436.91" y="196.5117">+start()</text><text fill="#000000" font-family="sans-serif" font-size="14" lengthAdjust="spacing" textLength="50.0186" x="1436.91" y="213">+stop()</text></g><!--class RemoteClientSession--><g class="entity" data-qualified-name="network.server.RemoteClientSession" data-source-line="61" id="ent0015"><rect fill="#F1F1F1" height="80.9766" rx="2.5" ry="2.5" style="stroke:#181818;stroke-width:0.5;" width="173.8115" x="1429.09" y="342.6883"/><ellipse cx="1444.09" cy="358.6883" fill="#C2C2C2" rx="11" ry="11" style="stroke:#181818;stroke-width:1;"/><path d="M1447.0631,364.3313 Q1446.4821,364.6302 1445.8429,364.7796 Q1445.2038,364.929 1444.4982,364.929 Q1441.9914,364.929 1440.6715,363.2771 Q1439.3517,361.6253 1439.3517,358.5042 Q1439.3517,355.3748 1440.6715,353.7229 Q1441.9914,352.0711 1444.4982,352.0711 Q1445.2038,352.0711 1445.8512,352.2205 Q1446.4987,352.3699 1447.0631,352.6688 L1447.0631,355.3914 Q1446.4323,354.8104 1445.8388,354.5406 Q1445.2453,354.2708 1444.6144,354.2708 Q1443.2697,354.2708 1442.5849,355.3375 Q1441.9001,356.4041 1441.9001,358.5042 Q1441.9001,360.596 1442.5849,361.6626 Q1443.2697,362.7293 1444.6144,362.7293 Q1445.2453,362.7293 1445.8388,362.4595 Q1446.4323,362.1897 1447.0631,361.6087 Z " fill="#000000"/><text fill="#000000" font-family="sans-serif" font-size="14" lengthAdjust="spacing" textLength="141.8115" x="1458.09" y="363.9793">RemoteClientSession</text><line style="stroke:#181818;stroke-width:0.5;" x1="1430.09" x2="1601.9015" y1="374.6883" y2="374.6883"/><line style="stroke:#181818;stroke-width:0.5;" x1="1430.09" x2="1601.9015" y1="382.6883" y2="382.6883"/><text fill="#000000" font-family="sans-serif" font-size="14" lengthAdjust="spacing" textLength="143.2061" x="1435.09" y="400.2234">+handleConnection()</text><text fill="#000000" font-family="sans-serif" font-size="14" lengthAdjust="spacing" textLength="54.9883" x="1435.09" y="416.7117">+close()</text></g><!--class RemoteRequestHandler--><g class="entity" data-qualified-name="network.server.RemoteRequestHandler" data-source-line="66" id="ent0016"><rect fill="#F1F1F1" height="64.4883" rx="2.5" ry="2.5" style="stroke:#181818;stroke-width:0.5;" width="368.7881" x="1380.61" y="597.1283"/><ellipse cx="1481.3649" cy="613.1283" fill="#C2C2C2" rx="11" ry="11" style="stroke:#181818;stroke-width:1;"/><path d="M1484.338,618.7713 Q1483.757,619.0702 1483.1178,619.2196 Q1482.4787,619.369 1481.7731,619.369 Q1479.2663,619.369 1477.9464,617.7171 Q1476.6266,616.0653 1476.6266,612.9442 Q1476.6266,609.8148 1477.9464,608.1629 Q1479.2663,606.5111 1481.7731,606.5111 Q1482.4787,606.5111 1483.1261,606.6605 Q1483.7736,606.8099 1484.338,607.1088 L1484.338,609.8314 Q1483.7072,609.2504 1483.1137,608.9806 Q1482.5202,608.7108 1481.8893,608.7108 Q1480.5446,608.7108 1479.8598,609.7775 Q1479.1749,610.8441 1479.1749,612.9442 Q1479.1749,615.036 1479.8598,616.1026 Q1480.5446,617.1693 1481.8893,617.1693 Q1482.5202,617.1693 1483.1137,616.8995 Q1483.7072,616.6297 1484.338,616.0487 Z " fill="#000000"/><text fill="#000000" font-family="sans-serif" font-size="14" lengthAdjust="spacing" textLength="158.7783" x="1501.8649" y="618.4193">RemoteRequestHandler</text><line style="stroke:#181818;stroke-width:0.5;" x1="1381.61" x2="1748.3981" y1="629.1283" y2="629.1283"/><line style="stroke:#181818;stroke-width:0.5;" x1="1381.61" x2="1748.3981" y1="637.1283" y2="637.1283"/><text fill="#000000" font-family="sans-serif" font-size="14" lengthAdjust="spacing" textLength="356.7881" x="1386.61" y="654.6634">+handle(request: RemoteRequest): RemoteResponse</text></g><!--class RemoteOperationRouter--><g class="entity" data-qualified-name="network.server.RemoteOperationRouter" data-source-line="70" id="ent0017"><rect fill="#F1F1F1" height="64.4883" rx="2.5" ry="2.5" style="stroke:#181818;stroke-width:0.5;" width="359.0742" x="1381.46" y="765.3483"/><ellipse cx="1474.856" cy="781.3483" fill="#C2C2C2" rx="11" ry="11" style="stroke:#181818;stroke-width:1;"/><path d="M1477.8291,786.9913 Q1477.2481,787.2902 1476.6089,787.4396 Q1475.9698,787.589 1475.2642,787.589 Q1472.7574,787.589 1471.4375,785.9371 Q1470.1177,784.2853 1470.1177,781.1642 Q1470.1177,778.0348 1471.4375,776.3829 Q1472.7574,774.7311 1475.2642,774.7311 Q1475.9698,774.7311 1476.6172,774.8805 Q1477.2647,775.0299 1477.8291,775.3288 L1477.8291,778.0514 Q1477.1983,777.4704 1476.6048,777.2006 Q1476.0113,776.9308 1475.3804,776.9308 Q1474.0357,776.9308 1473.3509,777.9975 Q1472.6661,779.0641 1472.6661,781.1642 Q1472.6661,783.256 1473.3509,784.3226 Q1474.0357,785.3893 1475.3804,785.3893 Q1476.0113,785.3893 1476.6048,785.1195 Q1477.1983,784.8497 1477.8291,784.2687 Z " fill="#000000"/><text fill="#000000" font-family="sans-serif" font-size="14" lengthAdjust="spacing" textLength="163.7822" x="1495.356" y="786.6393">RemoteOperationRouter</text><line style="stroke:#181818;stroke-width:0.5;" x1="1382.46" x2="1739.5342" y1="797.3483" y2="797.3483"/><line style="stroke:#181818;stroke-width:0.5;" x1="1382.46" x2="1739.5342" y1="805.3483" y2="805.3483"/><text fill="#000000" font-family="sans-serif" font-size="14" lengthAdjust="spacing" textLength="347.0742" x="1387.46" y="822.8834">+route(request: RemoteRequest): RemoteResponse</text></g><!--class AuthenticationService--><g class="entity" data-qualified-name="application.AuthenticationService" data-source-line="76" id="ent0019"><rect fill="#F1F1F1" height="64.4883" rx="2.5" ry="2.5" style="stroke:#181818;stroke-width:0.5;" width="426.5586" x="2366.72" y="953.8383"/><ellipse cx="2502.3245" cy="969.8383" fill="#C2C2C2" rx="11" ry="11" style="stroke:#181818;stroke-width:1;"/><path d="M2505.2976,975.4813 Q2504.7166,975.7802 2504.0774,975.9296 Q2503.4383,976.079 2502.7327,976.079 Q2500.2259,976.079 2498.906,974.4271 Q2497.5862,972.7753 2497.5862,969.6542 Q2497.5862,966.5248 2498.906,964.8729 Q2500.2259,963.2211 2502.7327,963.2211 Q2503.4383,963.2211 2504.0857,963.3705 Q2504.7332,963.5199 2505.2976,963.8188 L2505.2976,966.5414 Q2504.6668,965.9604 2504.0733,965.6906 Q2503.4798,965.4208 2502.8489,965.4208 Q2501.5042,965.4208 2500.8194,966.4875 Q2500.1346,967.5541 2500.1346,969.6542 Q2500.1346,971.746 2500.8194,972.8126 Q2501.5042,973.8793 2502.8489,973.8793 Q2503.4798,973.8793 2504.0733,973.6095 Q2504.6668,973.3397 2505.2976,972.7587 Z " fill="#000000"/><text fill="#000000" font-family="sans-serif" font-size="14" lengthAdjust="spacing" textLength="146.8496" x="2522.8245" y="975.1293">AuthenticationService</text><line style="stroke:#181818;stroke-width:0.5;" x1="2367.72" x2="2792.2786" y1="985.8383" y2="985.8383"/><line style="stroke:#181818;stroke-width:0.5;" x1="2367.72" x2="2792.2786" y1="993.8383" y2="993.8383"/><text fill="#000000" font-family="sans-serif" font-size="14" lengthAdjust="spacing" textLength="414.5586" x="2372.72" y="1011.3734">+authenticate(credentials: Credentials): AuthenticationToken</text></g><!--class AuthorizationService--><g class="entity" data-qualified-name="application.AuthorizationService" data-source-line="80" id="ent0020"><rect fill="#F1F1F1" height="64.4883" rx="2.5" ry="2.5" style="stroke:#181818;stroke-width:0.5;" width="417.1934" x="2828.4" y="953.8383"/><ellipse cx="2962.5929" cy="969.8383" fill="#C2C2C2" rx="11" ry="11" style="stroke:#181818;stroke-width:1;"/><path d="M2965.566,975.4813 Q2964.985,975.7802 2964.3458,975.9296 Q2963.7066,976.079 2963.0011,976.079 Q2960.4942,976.079 2959.1744,974.4271 Q2957.8546,972.7753 2957.8546,969.6542 Q2957.8546,966.5248 2959.1744,964.8729 Q2960.4942,963.2211 2963.0011,963.2211 Q2963.7066,963.2211 2964.3541,963.3705 Q2965.0016,963.5199 2965.566,963.8188 L2965.566,966.5414 Q2964.9352,965.9604 2964.3417,965.6906 Q2963.7481,965.4208 2963.1173,965.4208 Q2961.7726,965.4208 2961.0877,966.4875 Q2960.4029,967.5541 2960.4029,969.6542 Q2960.4029,971.746 2961.0877,972.8126 Q2961.7726,973.8793 2963.1173,973.8793 Q2963.7481,973.8793 2964.3417,973.6095 Q2964.9352,973.3397 2965.566,972.7587 Z " fill="#000000"/><text fill="#000000" font-family="sans-serif" font-size="14" lengthAdjust="spacing" textLength="140.3076" x="2983.0929" y="975.1293">AuthorizationService</text><line style="stroke:#181818;stroke-width:0.5;" x1="2829.4" x2="3244.5934" y1="985.8383" y2="985.8383"/><line style="stroke:#181818;stroke-width:0.5;" x1="2829.4" x2="3244.5934" y1="993.8383" y2="993.8383"/><text fill="#000000" font-family="sans-serif" font-size="14" lengthAdjust="spacing" textLength="405.1934" x="2834.4" y="1011.3734">+isAuthorized(user: User, permission: Permission): boolean</text></g><!--class AddAircraftToCompanyFleetService--><g class="entity" data-qualified-name="application.AddAircraftToCompanyFleetService" data-source-line="84" id="ent0021"><rect fill="#F1F1F1" height="48" rx="2.5" ry="2.5" style="stroke:#181818;stroke-width:0.5;" width="270.8066" x="1325.6" y="962.0883"/><ellipse cx="1340.6" cy="978.0883" fill="#C2C2C2" rx="11" ry="11" style="stroke:#181818;stroke-width:1;"/><path d="M1343.5731,983.7313 Q1342.9921,984.0302 1342.3529,984.1796 Q1341.7138,984.329 1341.0082,984.329 Q1338.5014,984.329 1337.1815,982.6771 Q1335.8617,981.0253 1335.8617,977.9042 Q1335.8617,974.7748 1337.1815,973.1229 Q1338.5014,971.4711 1341.0082,971.4711 Q1341.7138,971.4711 1342.3612,971.6205 Q1343.0087,971.7699 1343.5731,972.0688 L1343.5731,974.7914 Q1342.9423,974.2104 1342.3488,973.9406 Q1341.7553,973.6708 1341.1244,973.6708 Q1339.7797,973.6708 1339.0949,974.7375 Q1338.4101,975.8041 1338.4101,977.9042 Q1338.4101,979.996 1339.0949,981.0626 Q1339.7797,982.1293 1341.1244,982.1293 Q1341.7553,982.1293 1342.3488,981.8595 Q1342.9423,981.5897 1343.5731,981.0087 Z " fill="#000000"/><text fill="#000000" font-family="sans-serif" font-size="14" lengthAdjust="spacing" textLength="238.8066" x="1354.6" y="983.3793">AddAircraftToCompanyFleetService</text><line style="stroke:#181818;stroke-width:0.5;" x1="1326.6" x2="1595.4066" y1="994.0883" y2="994.0883"/><line style="stroke:#181818;stroke-width:0.5;" x1="1326.6" x2="1595.4066" y1="1002.0883" y2="1002.0883"/></g><!--class DecommissionAircraftService--><g class="entity" data-qualified-name="application.DecommissionAircraftService" data-source-line="87" id="ent0022"><rect fill="#F1F1F1" height="48" rx="2.5" ry="2.5" style="stroke:#181818;stroke-width:0.5;" width="229.6338" x="1631.18" y="962.0883"/><ellipse cx="1646.18" cy="978.0883" fill="#C2C2C2" rx="11" ry="11" style="stroke:#181818;stroke-width:1;"/><path d="M1649.1531,983.7313 Q1648.5721,984.0302 1647.9329,984.1796 Q1647.2938,984.329 1646.5882,984.329 Q1644.0814,984.329 1642.7615,982.6771 Q1641.4417,981.0253 1641.4417,977.9042 Q1641.4417,974.7748 1642.7615,973.1229 Q1644.0814,971.4711 1646.5882,971.4711 Q1647.2938,971.4711 1647.9412,971.6205 Q1648.5887,971.7699 1649.1531,972.0688 L1649.1531,974.7914 Q1648.5223,974.2104 1647.9288,973.9406 Q1647.3353,973.6708 1646.7044,973.6708 Q1645.3597,973.6708 1644.6749,974.7375 Q1643.9901,975.8041 1643.9901,977.9042 Q1643.9901,979.996 1644.6749,981.0626 Q1645.3597,982.1293 1646.7044,982.1293 Q1647.3353,982.1293 1647.9288,981.8595 Q1648.5223,981.5897 1649.1531,981.0087 Z " fill="#000000"/><text fill="#000000" font-family="sans-serif" font-size="14" lengthAdjust="spacing" textLength="197.6338" x="1660.18" y="983.3793">DecommissionAircraftService</text><line style="stroke:#181818;stroke-width:0.5;" x1="1632.18" x2="1859.8138" y1="994.0883" y2="994.0883"/><line style="stroke:#181818;stroke-width:0.5;" x1="1632.18" x2="1859.8138" y1="1002.0883" y2="1002.0883"/></g><!--class ListCompanyFleetService--><g class="entity" data-qualified-name="application.ListCompanyFleetService" data-source-line="90" id="ent0023"><rect fill="#F1F1F1" height="48" rx="2.5" ry="2.5" style="stroke:#181818;stroke-width:0.5;" width="199.5078" x="1896.25" y="962.0883"/><ellipse cx="1911.25" cy="978.0883" fill="#C2C2C2" rx="11" ry="11" style="stroke:#181818;stroke-width:1;"/><path d="M1914.2231,983.7313 Q1913.6421,984.0302 1913.0029,984.1796 Q1912.3638,984.329 1911.6582,984.329 Q1909.1514,984.329 1907.8315,982.6771 Q1906.5117,981.0253 1906.5117,977.9042 Q1906.5117,974.7748 1907.8315,973.1229 Q1909.1514,971.4711 1911.6582,971.4711 Q1912.3638,971.4711 1913.0112,971.6205 Q1913.6587,971.7699 1914.2231,972.0688 L1914.2231,974.7914 Q1913.5923,974.2104 1912.9988,973.9406 Q1912.4053,973.6708 1911.7744,973.6708 Q1910.4297,973.6708 1909.7449,974.7375 Q1909.0601,975.8041 1909.0601,977.9042 Q1909.0601,979.996 1909.7449,981.0626 Q1910.4297,982.1293 1911.7744,982.1293 Q1912.4053,982.1293 1912.9988,981.8595 Q1913.5923,981.5897 1914.2231,981.0087 Z " fill="#000000"/><text fill="#000000" font-family="sans-serif" font-size="14" lengthAdjust="spacing" textLength="167.5078" x="1925.25" y="983.3793">ListCompanyFleetService</text><line style="stroke:#181818;stroke-width:0.5;" x1="1897.25" x2="2094.7578" y1="994.0883" y2="994.0883"/><line style="stroke:#181818;stroke-width:0.5;" x1="1897.25" x2="2094.7578" y1="1002.0883" y2="1002.0883"/></g><!--class CreateFlightRouteService--><g class="entity" data-qualified-name="application.CreateFlightRouteService" data-source-line="93" id="ent0024"><rect fill="#F1F1F1" height="48" rx="2.5" ry="2.5" style="stroke:#181818;stroke-width:0.5;" width="200.7451" x="2130.63" y="962.0883"/><ellipse cx="2145.63" cy="978.0883" fill="#C2C2C2" rx="11" ry="11" style="stroke:#181818;stroke-width:1;"/><path d="M2148.6031,983.7313 Q2148.0221,984.0302 2147.3829,984.1796 Q2146.7438,984.329 2146.0382,984.329 Q2143.5314,984.329 2142.2115,982.6771 Q2140.8917,981.0253 2140.8917,977.9042 Q2140.8917,974.7748 2142.2115,973.1229 Q2143.5314,971.4711 2146.0382,971.4711 Q2146.7438,971.4711 2147.3912,971.6205 Q2148.0387,971.7699 2148.6031,972.0688 L2148.6031,974.7914 Q2147.9723,974.2104 2147.3788,973.9406 Q2146.7853,973.6708 2146.1544,973.6708 Q2144.8097,973.6708 2144.1249,974.7375 Q2143.4401,975.8041 2143.4401,977.9042 Q2143.4401,979.996 2144.1249,981.0626 Q2144.8097,982.1293 2146.1544,982.1293 Q2146.7853,982.1293 2147.3788,981.8595 Q2147.9723,981.5897 2148.6031,981.0087 Z " fill="#000000"/><text fill="#000000" font-family="sans-serif" font-size="14" lengthAdjust="spacing" textLength="168.7451" x="2159.63" y="983.3793">CreateFlightRouteService</text><line style="stroke:#181818;stroke-width:0.5;" x1="2131.63" x2="2330.3751" y1="994.0883" y2="994.0883"/><line style="stroke:#181818;stroke-width:0.5;" x1="2131.63" x2="2330.3751" y1="1002.0883" y2="1002.0883"/></g><!--class DeleteFlightRouteService--><g class="entity" data-qualified-name="application.DeleteFlightRouteService" data-source-line="96" id="ent0025"><rect fill="#F1F1F1" height="48" rx="2.5" ry="2.5" style="stroke:#181818;stroke-width:0.5;" width="199.9316" x="511.03" y="962.0883"/><ellipse cx="526.03" cy="978.0883" fill="#C2C2C2" rx="11" ry="11" style="stroke:#181818;stroke-width:1;"/><path d="M529.0031,983.7313 Q528.4221,984.0302 527.7829,984.1796 Q527.1438,984.329 526.4382,984.329 Q523.9314,984.329 522.6115,982.6771 Q521.2917,981.0253 521.2917,977.9042 Q521.2917,974.7748 522.6115,973.1229 Q523.9314,971.4711 526.4382,971.4711 Q527.1438,971.4711 527.7912,971.6205 Q528.4387,971.7699 529.0031,972.0688 L529.0031,974.7914 Q528.3723,974.2104 527.7788,973.9406 Q527.1853,973.6708 526.5544,973.6708 Q525.2097,973.6708 524.5249,974.7375 Q523.8401,975.8041 523.8401,977.9042 Q523.8401,979.996 524.5249,981.0626 Q525.2097,982.1293 526.5544,982.1293 Q527.1853,982.1293 527.7788,981.8595 Q528.3723,981.5897 529.0031,981.0087 Z " fill="#000000"/><text fill="#000000" font-family="sans-serif" font-size="14" lengthAdjust="spacing" textLength="167.9316" x="540.03" y="983.3793">DeleteFlightRouteService</text><line style="stroke:#181818;stroke-width:0.5;" x1="512.03" x2="709.9616" y1="994.0883" y2="994.0883"/><line style="stroke:#181818;stroke-width:0.5;" x1="512.03" x2="709.9616" y1="1002.0883" y2="1002.0883"/></g><!--class AddPilotService--><g class="entity" data-qualified-name="application.AddPilotService" data-source-line="99" id="ent0026"><rect fill="#F1F1F1" height="48" rx="2.5" ry="2.5" style="stroke:#181818;stroke-width:0.5;" width="136.2822" x="745.86" y="962.0883"/><ellipse cx="760.86" cy="978.0883" fill="#C2C2C2" rx="11" ry="11" style="stroke:#181818;stroke-width:1;"/><path d="M763.8331,983.7313 Q763.2521,984.0302 762.6129,984.1796 Q761.9738,984.329 761.2682,984.329 Q758.7614,984.329 757.4415,982.6771 Q756.1217,981.0253 756.1217,977.9042 Q756.1217,974.7748 757.4415,973.1229 Q758.7614,971.4711 761.2682,971.4711 Q761.9738,971.4711 762.6212,971.6205 Q763.2687,971.7699 763.8331,972.0688 L763.8331,974.7914 Q763.2023,974.2104 762.6088,973.9406 Q762.0153,973.6708 761.3844,973.6708 Q760.0397,973.6708 759.3549,974.7375 Q758.6701,975.8041 758.6701,977.9042 Q758.6701,979.996 759.3549,981.0626 Q760.0397,982.1293 761.3844,982.1293 Q762.0153,982.1293 762.6088,981.8595 Q763.2023,981.5897 763.8331,981.0087 Z " fill="#000000"/><text fill="#000000" font-family="sans-serif" font-size="14" lengthAdjust="spacing" textLength="104.2822" x="774.86" y="983.3793">AddPilotService</text><line style="stroke:#181818;stroke-width:0.5;" x1="746.86" x2="881.1422" y1="994.0883" y2="994.0883"/><line style="stroke:#181818;stroke-width:0.5;" x1="746.86" x2="881.1422" y1="1002.0883" y2="1002.0883"/></g><!--class ListPilotRosterService--><g class="entity" data-qualified-name="application.ListPilotRosterService" data-source-line="102" id="ent0027"><rect fill="#F1F1F1" height="48" rx="2.5" ry="2.5" style="stroke:#181818;stroke-width:0.5;" width="176.2383" x="916.88" y="962.0883"/><ellipse cx="931.88" cy="978.0883" fill="#C2C2C2" rx="11" ry="11" style="stroke:#181818;stroke-width:1;"/><path d="M934.8531,983.7313 Q934.2721,984.0302 933.6329,984.1796 Q932.9938,984.329 932.2882,984.329 Q929.7814,984.329 928.4615,982.6771 Q927.1417,981.0253 927.1417,977.9042 Q927.1417,974.7748 928.4615,973.1229 Q929.7814,971.4711 932.2882,971.4711 Q932.9938,971.4711 933.6412,971.6205 Q934.2887,971.7699 934.8531,972.0688 L934.8531,974.7914 Q934.2223,974.2104 933.6288,973.9406 Q933.0353,973.6708 932.4044,973.6708 Q931.0597,973.6708 930.3749,974.7375 Q929.6901,975.8041 929.6901,977.9042 Q929.6901,979.996 930.3749,981.0626 Q931.0597,982.1293 932.4044,982.1293 Q933.0353,982.1293 933.6288,981.8595 Q934.2223,981.5897 934.8531,981.0087 Z " fill="#000000"/><text fill="#000000" font-family="sans-serif" font-size="14" lengthAdjust="spacing" textLength="144.2383" x="945.88" y="983.3793">ListPilotRosterService</text><line style="stroke:#181818;stroke-width:0.5;" x1="917.88" x2="1092.1183" y1="994.0883" y2="994.0883"/><line style="stroke:#181818;stroke-width:0.5;" x1="917.88" x2="1092.1183" y1="1002.0883" y2="1002.0883"/></g><!--class RemovePilotService--><g class="entity" data-qualified-name="application.RemovePilotService" data-source-line="105" id="ent0028"><rect fill="#F1F1F1" height="48" rx="2.5" ry="2.5" style="stroke:#181818;stroke-width:0.5;" width="162.3682" x="1127.82" y="962.0883"/><ellipse cx="1142.82" cy="978.0883" fill="#C2C2C2" rx="11" ry="11" style="stroke:#181818;stroke-width:1;"/><path d="M1145.7931,983.7313 Q1145.2121,984.0302 1144.5729,984.1796 Q1143.9338,984.329 1143.2282,984.329 Q1140.7214,984.329 1139.4015,982.6771 Q1138.0817,981.0253 1138.0817,977.9042 Q1138.0817,974.7748 1139.4015,973.1229 Q1140.7214,971.4711 1143.2282,971.4711 Q1143.9338,971.4711 1144.5812,971.6205 Q1145.2287,971.7699 1145.7931,972.0688 L1145.7931,974.7914 Q1145.1623,974.2104 1144.5688,973.9406 Q1143.9753,973.6708 1143.3444,973.6708 Q1141.9997,973.6708 1141.3149,974.7375 Q1140.6301,975.8041 1140.6301,977.9042 Q1140.6301,979.996 1141.3149,981.0626 Q1141.9997,982.1293 1143.3444,982.1293 Q1143.9753,982.1293 1144.5688,981.8595 Q1145.1623,981.5897 1145.7931,981.0087 Z " fill="#000000"/><text fill="#000000" font-family="sans-serif" font-size="14" lengthAdjust="spacing" textLength="130.3682" x="1156.82" y="983.3793">RemovePilotService</text><line style="stroke:#181818;stroke-width:0.5;" x1="1128.82" x2="1289.1882" y1="994.0883" y2="994.0883"/><line style="stroke:#181818;stroke-width:0.5;" x1="1128.82" x2="1289.1882" y1="1002.0883" y2="1002.0883"/></g><!--class User--><g class="entity" data-qualified-name="domain.User" data-source-line="110" id="ent0030"><rect fill="#F1F1F1" height="97.4648" rx="2.5" ry="2.5" style="stroke:#181818;stroke-width:0.5;" width="350.8369" x="2861.58" y="1118.3283"/><ellipse cx="3017.5658" cy="1134.3283" fill="#C2C2C2" rx="11" ry="11" style="stroke:#181818;stroke-width:1;"/><path d="M3020.539,1139.9713 Q3019.9579,1140.2702 3019.3188,1140.4196 Q3018.6796,1140.569 3017.974,1140.569 Q3015.4672,1140.569 3014.1474,1138.9171 Q3012.8276,1137.2653 3012.8276,1134.1442 Q3012.8276,1131.0148 3014.1474,1129.3629 Q3015.4672,1127.7111 3017.974,1127.7111 Q3018.6796,1127.7111 3019.3271,1127.8605 Q3019.9745,1128.0099 3020.539,1128.3088 L3020.539,1131.0314 Q3019.9081,1130.4504 3019.3146,1130.1806 Q3018.7211,1129.9108 3018.0903,1129.9108 Q3016.7455,1129.9108 3016.0607,1130.9775 Q3015.3759,1132.0441 3015.3759,1134.1442 Q3015.3759,1136.236 3016.0607,1137.3026 Q3016.7455,1138.3693 3018.0903,1138.3693 Q3018.7211,1138.3693 3019.3146,1138.0995 Q3019.9081,1137.8297 3020.539,1137.2487 Z " fill="#000000"/><text fill="#000000" font-family="sans-serif" font-size="14" lengthAdjust="spacing" textLength="30.3652" x="3038.0658" y="1139.6193">User</text><line style="stroke:#181818;stroke-width:0.5;" x1="2862.58" x2="3211.4169" y1="1150.3283" y2="1150.3283"/><text fill="#000000" font-family="sans-serif" font-size="14" lengthAdjust="spacing" textLength="90.1387" x="2867.58" y="1167.8634">-email: Email</text><text fill="#000000" font-family="sans-serif" font-size="14" lengthAdjust="spacing" textLength="125.7129" x="2867.58" y="1184.3517">-roles: List&lt;Role&gt;</text><line style="stroke:#181818;stroke-width:0.5;" x1="2862.58" x2="3211.4169" y1="1191.3048" y2="1191.3048"/><text fill="#000000" font-family="sans-serif" font-size="14" lengthAdjust="spacing" textLength="338.8369" x="2867.58" y="1208.84">+hasPermission(permission: Permission): boolean</text></g><!--class Role--><g class="entity" data-qualified-name="domain.Role" data-source-line="116" id="ent0031"><rect fill="#F1F1F1" height="80.9766" rx="2.5" ry="2.5" style="stroke:#181818;stroke-width:0.5;" width="231.2969" x="2888.35" y="1276.7983"/><ellipse cx="2985.099" cy="1292.7983" fill="#C2C2C2" rx="11" ry="11" style="stroke:#181818;stroke-width:1;"/><path d="M2988.0722,1298.4413 Q2987.4911,1298.7402 2986.852,1298.8896 Q2986.2128,1299.039 2985.5072,1299.039 Q2983.0004,1299.039 2981.6806,1297.3871 Q2980.3607,1295.7353 2980.3607,1292.6142 Q2980.3607,1289.4848 2981.6806,1287.8329 Q2983.0004,1286.1811 2985.5072,1286.1811 Q2986.2128,1286.1811 2986.8603,1286.3305 Q2987.5077,1286.4799 2988.0722,1286.7788 L2988.0722,1289.5014 Q2987.4413,1288.9204 2986.8478,1288.6506 Q2986.2543,1288.3808 2985.6234,1288.3808 Q2984.2787,1288.3808 2983.5939,1289.4475 Q2982.9091,1290.5141 2982.9091,1292.6142 Q2982.9091,1294.706 2983.5939,1295.7726 Q2984.2787,1296.8393 2985.6234,1296.8393 Q2986.2543,1296.8393 2986.8478,1296.5695 Q2987.4413,1296.2997 2988.0722,1295.7187 Z " fill="#000000"/><text fill="#000000" font-family="sans-serif" font-size="14" lengthAdjust="spacing" textLength="29.2988" x="3005.599" y="1298.0893">Role</text><line style="stroke:#181818;stroke-width:0.5;" x1="2889.35" x2="3118.6469" y1="1308.7983" y2="1308.7983"/><text fill="#000000" font-family="sans-serif" font-size="14" lengthAdjust="spacing" textLength="94.2197" x="2894.35" y="1326.3334">-name: String</text><text fill="#000000" font-family="sans-serif" font-size="14" lengthAdjust="spacing" textLength="219.2969" x="2894.35" y="1342.8217">-permissions: List&lt;Permission&gt;</text><line style="stroke:#181818;stroke-width:0.5;" x1="2889.35" x2="3118.6469" y1="1349.7748" y2="1349.7748"/></g><!--class Permission--><g class="entity" data-qualified-name="domain.Permission" data-source-line="121" id="ent0032"><rect fill="#F1F1F1" height="64.4883" rx="2.5" ry="2.5" style="stroke:#181818;stroke-width:0.5;" width="106.2197" x="2950.89" y="1418.7683"/><ellipse cx="2965.9924" cy="1434.7683" fill="#C2C2C2" rx="11" ry="11" style="stroke:#181818;stroke-width:1;"/><path d="M2968.9655,1440.4113 Q2968.3845,1440.7102 2967.7453,1440.8596 Q2967.1062,1441.009 2966.4006,1441.009 Q2963.8938,1441.009 2962.5739,1439.3571 Q2961.2541,1437.7053 2961.2541,1434.5842 Q2961.2541,1431.4548 2962.5739,1429.8029 Q2963.8938,1428.1511 2966.4006,1428.1511 Q2967.1062,1428.1511 2967.7536,1428.3005 Q2968.4011,1428.4499 2968.9655,1428.7488 L2968.9655,1431.4714 Q2968.3347,1430.8904 2967.7412,1430.6206 Q2967.1477,1430.3508 2966.5168,1430.3508 Q2965.1721,1430.3508 2964.4873,1431.4175 Q2963.8025,1432.4841 2963.8025,1434.5842 Q2963.8025,1436.676 2964.4873,1437.7426 Q2965.1721,1438.8093 2966.5168,1438.8093 Q2967.1477,1438.8093 2967.7412,1438.5395 Q2968.3347,1438.2697 2968.9655,1437.6887 Z " fill="#000000"/><text fill="#000000" font-family="sans-serif" font-size="14" lengthAdjust="spacing" textLength="73.9922" x="2980.0151" y="1440.0593">Permission</text><line style="stroke:#181818;stroke-width:0.5;" x1="2951.89" x2="3056.1097" y1="1450.7683" y2="1450.7683"/><text fill="#000000" font-family="sans-serif" font-size="14" lengthAdjust="spacing" textLength="94.2197" x="2956.89" y="1468.3034">-name: String</text><line style="stroke:#181818;stroke-width:0.5;" x1="2951.89" x2="3056.1097" y1="1475.2566" y2="1475.2566"/></g><!--class Credentials--><g class="entity" data-qualified-name="domain.Credentials" data-source-line="125" id="ent0033"><rect fill="#F1F1F1" height="80.9766" rx="2.5" ry="2.5" style="stroke:#181818;stroke-width:0.5;" width="133.6729" x="3247.16" y="1126.5683"/><ellipse cx="3273.392" cy="1142.5683" fill="#C2C2C2" rx="11" ry="11" style="stroke:#181818;stroke-width:1;"/><path d="M3276.3651,1148.2113 Q3275.7841,1148.5102 3275.1449,1148.6596 Q3274.5058,1148.809 3273.8002,1148.809 Q3271.2933,1148.809 3269.9735,1147.1571 Q3268.6537,1145.5053 3268.6537,1142.3842 Q3268.6537,1139.2548 3269.9735,1137.6029 Q3271.2933,1135.9511 3273.8002,1135.9511 Q3274.5058,1135.9511 3275.1532,1136.1005 Q3275.8007,1136.2499 3276.3651,1136.5488 L3276.3651,1139.2714 Q3275.7343,1138.6904 3275.1408,1138.4206 Q3274.5473,1138.1508 3273.9164,1138.1508 Q3272.5717,1138.1508 3271.8869,1139.2175 Q3271.202,1140.2841 3271.202,1142.3842 Q3271.202,1144.476 3271.8869,1145.5426 Q3272.5717,1146.6093 3273.9164,1146.6093 Q3274.5473,1146.6093 3275.1408,1146.3395 Q3275.7343,1146.0697 3276.3651,1145.4887 Z " fill="#000000"/><text fill="#000000" font-family="sans-serif" font-size="14" lengthAdjust="spacing" textLength="76.7129" x="3289.888" y="1147.8593">Credentials</text><line style="stroke:#181818;stroke-width:0.5;" x1="3248.16" x2="3379.8329" y1="1158.5683" y2="1158.5683"/><text fill="#000000" font-family="sans-serif" font-size="14" lengthAdjust="spacing" textLength="93.625" x="3253.16" y="1176.1034">-email: String</text><text fill="#000000" font-family="sans-serif" font-size="14" lengthAdjust="spacing" textLength="121.6729" x="3253.16" y="1192.5917">-password: String</text><line style="stroke:#181818;stroke-width:0.5;" x1="3248.16" x2="3379.8329" y1="1199.5448" y2="1199.5448"/></g><!--class AuthenticationToken--><g class="entity" data-qualified-name="domain.AuthenticationToken" data-source-line="130" id="ent0034"><rect fill="#F1F1F1" height="64.4883" rx="2.5" ry="2.5" style="stroke:#181818;stroke-width:0.5;" width="173.6406" x="3416.18" y="1134.8183"/><ellipse cx="3431.18" cy="1150.8183" fill="#C2C2C2" rx="11" ry="11" style="stroke:#181818;stroke-width:1;"/><path d="M3434.1531,1156.4613 Q3433.5721,1156.7602 3432.9329,1156.9096 Q3432.2938,1157.059 3431.5882,1157.059 Q3429.0814,1157.059 3427.7615,1155.4071 Q3426.4417,1153.7553 3426.4417,1150.6342 Q3426.4417,1147.5048 3427.7615,1145.8529 Q3429.0814,1144.2011 3431.5882,1144.2011 Q3432.2938,1144.2011 3432.9412,1144.3505 Q3433.5887,1144.4999 3434.1531,1144.7988 L3434.1531,1147.5214 Q3433.5223,1146.9404 3432.9288,1146.6706 Q3432.3353,1146.4008 3431.7044,1146.4008 Q3430.3597,1146.4008 3429.6749,1147.4675 Q3428.9901,1148.5341 3428.9901,1150.6342 Q3428.9901,1152.726 3429.6749,1153.7926 Q3430.3597,1154.8593 3431.7044,1154.8593 Q3432.3353,1154.8593 3432.9288,1154.5895 Q3433.5223,1154.3197 3434.1531,1153.7387 Z " fill="#000000"/><text fill="#000000" font-family="sans-serif" font-size="14" lengthAdjust="spacing" textLength="141.6406" x="3445.18" y="1156.1093">AuthenticationToken</text><line style="stroke:#181818;stroke-width:0.5;" x1="3417.18" x2="3588.8206" y1="1166.8183" y2="1166.8183"/><text fill="#000000" font-family="sans-serif" font-size="14" lengthAdjust="spacing" textLength="92.4424" x="3422.18" y="1184.3534">-value: String</text><line style="stroke:#181818;stroke-width:0.5;" x1="3417.18" x2="3588.8206" y1="1191.3066" y2="1191.3066"/></g><!--class Email--><g class="entity" data-qualified-name="domain.Email" data-source-line="134" id="ent0035"><rect fill="#F1F1F1" height="64.4883" rx="2.5" ry="2.5" style="stroke:#181818;stroke-width:0.5;" width="104.4424" x="3154.78" y="1285.0383"/><ellipse cx="3185.9615" cy="1301.0383" fill="#C2C2C2" rx="11" ry="11" style="stroke:#181818;stroke-width:1;"/><path d="M3188.9347,1306.6813 Q3188.3536,1306.9802 3187.7145,1307.1296 Q3187.0753,1307.279 3186.3697,1307.279 Q3183.8629,1307.279 3182.5431,1305.6271 Q3181.2233,1303.9753 3181.2233,1300.8542 Q3181.2233,1297.7248 3182.5431,1296.0729 Q3183.8629,1294.4211 3186.3697,1294.4211 Q3187.0753,1294.4211 3187.7228,1294.5705 Q3188.3702,1294.7199 3188.9347,1295.0188 L3188.9347,1297.7414 Q3188.3038,1297.1604 3187.7103,1296.8906 Q3187.1168,1296.6208 3186.486,1296.6208 Q3185.1412,1296.6208 3184.4564,1297.6875 Q3183.7716,1298.7541 3183.7716,1300.8542 Q3183.7716,1302.946 3184.4564,1304.0126 Q3185.1412,1305.0793 3186.486,1305.0793 Q3187.1168,1305.0793 3187.7103,1304.8095 Q3188.3038,1304.5397 3188.9347,1303.9587 Z " fill="#000000"/><text fill="#000000" font-family="sans-serif" font-size="14" lengthAdjust="spacing" textLength="36.4834" x="3203.5574" y="1306.3293">Email</text><line style="stroke:#181818;stroke-width:0.5;" x1="3155.78" x2="3258.2224" y1="1317.0383" y2="1317.0383"/><text fill="#000000" font-family="sans-serif" font-size="14" lengthAdjust="spacing" textLength="92.4424" x="3160.78" y="1334.5734">-value: String</text><line style="stroke:#181818;stroke-width:0.5;" x1="3155.78" x2="3258.2224" y1="1341.5266" y2="1341.5266"/></g><!--class UserRepository--><g class="entity" data-qualified-name="repository.UserRepository" data-source-line="140" id="ent0037"><rect fill="#F1F1F1" height="64.4883" rx="2.5" ry="2.5" style="stroke:#181818;stroke-width:0.5;" width="312.3369" x="2423.83" y="1134.8183"/><ellipse cx="2524.5029" cy="1150.8183" fill="#B1B1B1" rx="11" ry="11" style="stroke:#181818;stroke-width:1;"/><path d="M2520.4306,1146.5834 L2520.4306,1144.4252 L2527.81,1144.4252 L2527.81,1146.5834 L2525.3446,1146.5834 L2525.3446,1154.6601 L2527.81,1154.6601 L2527.81,1156.8183 L2520.4306,1156.8183 L2520.4306,1154.6601 L2522.8959,1154.6601 L2522.8959,1146.5834 Z " fill="#000000"/><text fill="#000000" font-family="sans-serif" font-size="14" font-style="italic" lengthAdjust="spacing" textLength="102.4912" x="2545.0029" y="1156.1093">UserRepository</text><line style="stroke:#181818;stroke-width:0.5;" x1="2424.83" x2="2735.1669" y1="1166.8183" y2="1166.8183"/><line style="stroke:#181818;stroke-width:0.5;" x1="2424.83" x2="2735.1669" y1="1174.8183" y2="1174.8183"/><text fill="#000000" font-family="sans-serif" font-size="14" lengthAdjust="spacing" textLength="300.3369" x="2429.83" y="1192.3534">+findByEmail(email: Email): Optional&lt;User&gt;</text></g><!--link AirTransportCompanyApp to RemoteAccessClientUI--><g class="link" data-entity-1="ent0003" data-entity-2="ent0005" data-link-type="dependency" data-source-line="145" id="lnk38"><path codeLine="145" d="M251.26,203.6583 C244.84,233.6283 236.228,273.8016 228.118,311.6216" fill="none" id="AirTransportCompanyApp-to-RemoteAccessClientUI" style="stroke:#181818;stroke-width:1;"/><polygon fill="#181818" points="226.86,317.4883,232.6581,309.527,227.9084,312.5994,224.8359,307.8497,226.86,317.4883" style="stroke:#181818;stroke-width:1;"/><polygon fill="#000000" points="244.8021,263.5025,249.5715,255.2743,243.8242,254.0423,244.8021,263.5025" style="stroke:#000000;stroke-width:1;"/><text fill="#000000" font-family="sans-serif" font-size="13" lengthAdjust="spacing" textLength="28.5645" x="254.85" y="263.5266">uses</text></g><!--link AirTransportCompanyApp to TcpClient--><g class="link" data-entity-1="ent0003" data-entity-2="ent0007" data-link-type="dependency" data-source-line="146" id="lnk39"><path codeLine="146" d="M324.95,203.8883 C388.42,233.8983 480.2459,277.3133 560.0759,315.0633" fill="none" id="AirTransportCompanyApp-to-TcpClient" style="stroke:#181818;stroke-width:1;"/><polygon fill="#181818" points="565.5,317.6283,559.0738,310.1648,560.9799,315.4908,555.6539,317.3969,565.5,317.6283" style="stroke:#181818;stroke-width:1;"/><polygon fill="#000000" points="462.9402,260.7508,456.0194,254.2276,453.5068,259.5413,462.9402,260.7508" style="stroke:#000000;stroke-width:1;"/><text fill="#000000" font-family="sans-serif" font-size="13" lengthAdjust="spacing" textLength="28.5645" x="467.42" y="263.5266">uses</text></g><!--link RemoteAccessClientUI to RemoteRequest--><g class="link" data-entity-1="ent0005" data-entity-2="ent0010" data-link-type="dependency" data-source-line="147" id="lnk40"><path codeLine="147" d="M311.75,448.6583 C374.95,489.9183 450.5661,539.2879 508.1961,576.9179" fill="none" id="RemoteAccessClientUI-to-RemoteRequest" style="stroke:#181818;stroke-width:1;"/><polygon fill="#181818" points="513.22,580.1983,507.8711,571.9285,509.0335,577.4646,503.4973,578.627,513.22,580.1983" style="stroke:#181818;stroke-width:1;"/><polygon fill="#000000" points="431.5767,515.787,425.6096,508.3813,422.3962,513.303,431.5767,515.787" style="stroke:#000000;stroke-width:1;"/><text fill="#000000" font-family="sans-serif" font-size="13" lengthAdjust="spacing" textLength="45.1318" x="436.39" y="517.9666">creates</text></g><!--link TcpClient to RemoteProtocolCodec--><g class="link" data-entity-1="ent0007" data-entity-2="ent0012" data-link-type="dependency" data-source-line="148" id="lnk41"><path codeLine="148" d="M813.7,448.8183 C879.88,487.1083 957.7367,532.1633 1021.2667,568.9233" fill="none" id="TcpClient-to-RemoteProtocolCodec" style="stroke:#181818;stroke-width:1;"/><polygon fill="#181818" points="1026.46,571.9283,1020.6734,563.9586,1022.1323,569.4241,1016.6668,570.883,1026.46,571.9283" style="stroke:#181818;stroke-width:1;"/><polygon fill="#000000" points="947.5977,515.5577,941.2407,508.4839,938.2969,513.5714,947.5977,515.5577" style="stroke:#000000;stroke-width:1;"/><text fill="#000000" font-family="sans-serif" font-size="13" lengthAdjust="spacing" textLength="110.9443" x="952.27" y="517.9666">encodes/decodes</text></g><!--link TcpClient to RemoteRequest--><g class="link" data-entity-1="ent0007" data-entity-2="ent0010" data-link-type="dependency" data-source-line="149" id="lnk42"><path codeLine="149" d="M671.63,448.6583 C652.2,489.9183 629.9662,537.14 612.2462,574.77" fill="none" id="TcpClient-to-RemoteRequest" style="stroke:#181818;stroke-width:1;"/><polygon fill="#181818" points="609.69,580.1983,617.1431,573.76,611.8201,575.6747,609.9054,570.3518,609.69,580.1983" style="stroke:#181818;stroke-width:1;"/><polygon fill="#000000" points="647.3699,517.5771,653.8822,510.6459,648.5644,508.1419,647.3699,517.5771" style="stroke:#000000;stroke-width:1;"/><text fill="#000000" font-family="sans-serif" font-size="13" lengthAdjust="spacing" textLength="36.7466" x="658.5" y="517.9666">sends</text></g><!--link TcpClient to RemoteResponse--><g class="link" data-entity-1="ent0007" data-entity-2="ent0011" data-link-type="dependency" data-source-line="150" id="lnk43"><path codeLine="150" d="M729.72,448.6583 C746.25,487.0883 764.6611,529.8957 780.5011,566.7557" fill="none" id="TcpClient-to-RemoteResponse" style="stroke:#181818;stroke-width:1;"/><polygon fill="#181818" points="782.87,572.2683,782.9916,562.4202,780.8959,567.6745,775.6416,565.5787,782.87,572.2683" style="stroke:#181818;stroke-width:1;"/><polygon fill="#000000" points="767.7651,517.6469,766.892,508.1765,761.4922,510.4984,767.7651,517.6469" style="stroke:#000000;stroke-width:1;"/><text fill="#000000" font-family="sans-serif" font-size="13" lengthAdjust="spacing" textLength="50.8193" x="774.79" y="517.9666">receives</text></g><!--link EmbeddedTcpServer to RemoteClientSession--><g class="link" data-entity-1="ent0014" data-entity-2="ent0015" data-link-type="dependency" data-source-line="152" id="lnk44"><path codeLine="152" d="M1516,220.3883 C1516,257.3183 1516,301.6583 1516,336.3383" fill="none" id="EmbeddedTcpServer-to-RemoteClientSession" style="stroke:#181818;stroke-width:1;"/><polygon fill="#181818" points="1516,342.3383,1520,333.3383,1516,337.3383,1512,333.3383,1516,342.3383" style="stroke:#181818;stroke-width:1;"/><polygon fill="#000000" points="1521,263.6136,1523.9389,254.5685,1518.0611,254.5685,1521,263.6136" style="stroke:#000000;stroke-width:1;"/><text fill="#000000" font-family="sans-serif" font-size="13" lengthAdjust="spacing" textLength="45.1318" x="1530" y="263.5266">creates</text></g><!--link RemoteClientSession to RemoteProtocolCodec--><g class="link" data-entity-1="ent0015" data-entity-2="ent0012" data-link-type="dependency" data-source-line="153" id="lnk45"><path codeLine="153" d="M1452.15,423.9583 C1387.6,464.1583 1292.3728,523.486 1219.6328,568.796" fill="none" id="RemoteClientSession-to-RemoteProtocolCodec" style="stroke:#181818;stroke-width:1;"/><polygon fill="#181818" points="1214.54,571.9683,1224.294,570.605,1218.784,569.3247,1220.0643,563.8146,1214.54,571.9683" style="stroke:#181818;stroke-width:1;"/><polygon fill="#000000" points="1320.756,515.6972,1329.9873,513.4094,1326.8796,508.4203,1320.756,515.6972" style="stroke:#000000;stroke-width:1;"/><text fill="#000000" font-family="sans-serif" font-size="13" lengthAdjust="spacing" textLength="110.9443" x="1334" y="517.9666">encodes/decodes</text></g><!--link RemoteClientSession to RemoteRequestHandler--><g class="link" data-entity-1="ent0015" data-entity-2="ent0016" data-link-type="dependency" data-source-line="154" id="lnk46"><path codeLine="154" d="M1523.98,423.9583 C1533.66,472.2083 1548.61,546.6755 1557.48,590.8955" fill="none" id="RemoteClientSession-to-RemoteRequestHandler" style="stroke:#181818;stroke-width:1;"/><polygon fill="#181818" points="1558.66,596.7783,1560.8118,587.1674,1557.6766,591.8759,1552.9681,588.7407,1558.66,596.7783" style="stroke:#181818;stroke-width:1;"/><polygon fill="#000000" points="1549.4138,517.9558,1550.5156,508.5093,1544.7526,509.6658,1549.4138,517.9558" style="stroke:#000000;stroke-width:1;"/><text fill="#000000" font-family="sans-serif" font-size="13" lengthAdjust="spacing" textLength="60.4424" x="1557.43" y="517.9666">delegates</text></g><!--link RemoteRequestHandler to AuthenticationService--><g class="link" data-entity-1="ent0016" data-entity-2="ent0019" data-link-type="dependency" data-source-line="155" id="lnk47"><path codeLine="155" d="M1655.52,662.0083 C1848.17,729.3383 2291.2059,884.1588 2483.8359,951.4788" fill="none" id="RemoteRequestHandler-to-AuthenticationService" style="stroke:#181818;stroke-width:1;"/><polygon fill="#181818" points="2489.5,953.4583,2482.3235,946.713,2484.7799,951.8087,2479.6842,954.2651,2489.5,953.4583" style="stroke:#181818;stroke-width:1;"/><polygon fill="#000000" points="2280.4101,799.4031,2272.8409,793.6447,2270.9018,799.1935,2280.4101,799.4031" style="stroke:#000000;stroke-width:1;"/><text fill="#000000" font-family="sans-serif" font-size="13" lengthAdjust="spacing" textLength="84.6777" x="2284.69" y="802.6666">authenticates</text></g><!--link RemoteRequestHandler to AuthorizationService--><g class="link" data-entity-1="ent0016" data-entity-2="ent0020" data-link-type="dependency" data-source-line="156" id="lnk48"><path codeLine="156" d="M1749.52,652.5783 C1915.41,674.5383 2165.01,712.5083 2378,765.3483 C2590.31,818.0183 2826.9644,904.2189 2950.1644,951.2389" fill="none" id="RemoteRequestHandler-to-AuthorizationService" style="stroke:#181818;stroke-width:1;"/><polygon fill="#181818" points="2955.77,953.3783,2948.7879,946.4321,2951.0987,951.5954,2945.9353,953.9062,2955.77,953.3783" style="stroke:#181818;stroke-width:1;"/><polygon fill="#000000" points="2749.2721,798.9605,2741.204,793.9251,2739.7851,799.6291,2749.2721,798.9605" style="stroke:#000000;stroke-width:1;"/><text fill="#000000" font-family="sans-serif" font-size="13" lengthAdjust="spacing" textLength="66.5615" x="2753.42" y="802.6666">authorizes</text></g><!--link RemoteRequestHandler to RemoteOperationRouter--><g class="link" data-entity-1="ent0016" data-entity-2="ent0017" data-link-type="dependency" data-source-line="157" id="lnk49"><path codeLine="157" d="M1564.24,662.0283 C1563.53,691.6083 1562.6142,729.52 1561.9042,759.06" fill="none" id="RemoteRequestHandler-to-RemoteOperationRouter" style="stroke:#181818;stroke-width:1;"/><polygon fill="#181818" points="1561.76,765.0583,1565.9751,756.157,1561.8801,760.0597,1557.9774,755.9648,1561.76,765.0583" style="stroke:#181818;stroke-width:1;"/><polygon fill="#000000" points="1567.7597,732.0021,1570.9154,723.0304,1565.0393,722.8889,1567.7597,732.0021" style="stroke:#000000;stroke-width:1;"/><text fill="#000000" font-family="sans-serif" font-size="13" lengthAdjust="spacing" textLength="40.1045" x="1576.88" y="731.9166">routes</text></g><!--link RemoteOperationRouter to AddAircraftToCompanyFleetService--><g class="link" data-entity-1="ent0017" data-entity-2="ent0021" data-link-type="dependency" data-source-line="158" id="lnk50"><path codeLine="158" d="M1544.04,830.2283 C1524.03,867.5383 1494.0963,923.371 1476.2863,956.571" fill="none" id="RemoteOperationRouter-to-AddAircraftToCompanyFleetService" style="stroke:#181818;stroke-width:1;"/><polygon fill="#181818" points="1473.45,961.8583,1481.2293,955.8183,1475.8136,957.4522,1474.1797,952.0365,1473.45,961.8583" style="stroke:#181818;stroke-width:1;"/><polygon fill="#000000" points="1516.637,898.8999,1523.5017,892.3177,1518.3217,889.5398,1516.637,898.8999" style="stroke:#000000;stroke-width:1;"/><text fill="#000000" font-family="sans-serif" font-size="13" lengthAdjust="spacing" textLength="60.4424" x="1528" y="899.4066">delegates</text></g><!--link RemoteOperationRouter to DecommissionAircraftService--><g class="link" data-entity-1="ent0017" data-entity-2="ent0022" data-link-type="dependency" data-source-line="159" id="lnk51"><path codeLine="159" d="M1592.38,830.2283 C1629.39,867.5383 1685.8047,924.3984 1718.7347,957.5984" fill="none" id="RemoteOperationRouter-to-DecommissionAircraftService" style="stroke:#181818;stroke-width:1;"/><polygon fill="#181818" points="1722.96,961.8583,1719.462,952.6515,1719.4389,958.3083,1713.7821,958.2852,1722.96,961.8583" style="stroke:#181818;stroke-width:1;"/><polygon fill="#000000" points="1667.5714,898.0432,1663.2876,889.552,1659.1147,893.6916,1667.5714,898.0432" style="stroke:#000000;stroke-width:1;"/><text fill="#000000" font-family="sans-serif" font-size="13" lengthAdjust="spacing" textLength="60.4424" x="1673.05" y="899.4066">delegates</text></g><!--link RemoteOperationRouter to ListCompanyFleetService--><g class="link" data-entity-1="ent0017" data-entity-2="ent0023" data-link-type="dependency" data-source-line="160" id="lnk52"><path codeLine="160" d="M1669.06,830.2883 C1731.49,850.2083 1810.74,878.2683 1878,910.8383 C1908.28,925.4983 1935.5183,942.7399 1958.6083,958.5399" fill="none" id="RemoteOperationRouter-to-ListCompanyFleetService" style="stroke:#181818;stroke-width:1;"/><polygon fill="#181818" points="1963.56,961.9283,1958.3914,953.5447,1959.4336,959.1047,1953.8736,960.1469,1963.56,961.9283" style="stroke:#181818;stroke-width:1;"/><polygon fill="#000000" points="1862.8916,896.5185,1855.8117,890.1682,1853.4313,895.5425,1862.8916,896.5185" style="stroke:#000000;stroke-width:1;"/><text fill="#000000" font-family="sans-serif" font-size="13" lengthAdjust="spacing" textLength="60.4424" x="1867.32" y="899.4066">delegates</text></g><!--link RemoteOperationRouter to CreateFlightRouteService--><g class="link" data-entity-1="ent0017" data-entity-2="ent0024" data-link-type="dependency" data-source-line="161" id="lnk53"><path codeLine="161" d="M1740.98,818.4783 C1851.24,834.6983 1993.63,863.0083 2113,910.8383 C2144.9,923.6283 2172.8591,941.551 2195.7591,958.121" fill="none" id="RemoteOperationRouter-to-CreateFlightRouteService" style="stroke:#181818;stroke-width:1;"/><polygon fill="#181818" points="2200.62,961.6383,2195.6734,953.1217,2196.5692,958.7072,2190.9837,959.603,2200.62,961.6383" style="stroke:#181818;stroke-width:1;"/><polygon fill="#000000" points="2094.4997,895.9612,2086.7158,890.4967,2084.9904,896.1157,2094.4997,895.9612" style="stroke:#000000;stroke-width:1;"/><text fill="#000000" font-family="sans-serif" font-size="13" lengthAdjust="spacing" textLength="60.4424" x="2098.72" y="899.4066">delegates</text></g><!--link RemoteOperationRouter to DeleteFlightRouteService--><g class="link" data-entity-1="ent0017" data-entity-2="ent0025" data-link-type="dependency" data-source-line="162" id="lnk54"><path codeLine="162" d="M1381.19,816.5183 C1236.89,831.8883 1029.34,856.2083 849,885.8383 C794.81,894.7383 778.9,890.2383 728,910.8383 C696.33,923.6583 668.6483,941.5635 645.9483,958.1135" fill="none" id="RemoteOperationRouter-to-DeleteFlightRouteService" style="stroke:#181818;stroke-width:1;"/><polygon fill="#181818" points="641.1,961.6483,650.7289,959.5783,645.1402,958.7027,646.0159,953.114,641.1,961.6483" style="stroke:#181818;stroke-width:1;"/><polygon fill="#000000" points="849.0902,895.4391,858.5279,896.6145,857.4163,890.8427,849.0902,895.4391" style="stroke:#000000;stroke-width:1;"/><text fill="#000000" font-family="sans-serif" font-size="13" lengthAdjust="spacing" textLength="60.4424" x="863" y="899.4066">delegates</text></g><!--link RemoteOperationRouter to AddPilotService--><g class="link" data-entity-1="ent0017" data-entity-2="ent0026" data-link-type="dependency" data-source-line="163" id="lnk55"><path codeLine="163" d="M1380.97,802.7883 C1243.15,812.0983 1051.45,838.5183 899,910.8383 C873.51,922.9383 853.9047,940.532 838.0347,957.452" fill="none" id="RemoteOperationRouter-to-AddPilotService" style="stroke:#181818;stroke-width:1;"/><polygon fill="#181818" points="833.93,961.8283,843.0045,958.0004,837.3506,958.1814,837.1695,952.5274,833.93,961.8283" style="stroke:#181818;stroke-width:1;"/><polygon fill="#000000" points="948.9413,895.8634,958.4455,896.2118,956.8351,890.5589,948.9413,895.8634" style="stroke:#000000;stroke-width:1;"/><text fill="#000000" font-family="sans-serif" font-size="13" lengthAdjust="spacing" textLength="60.4424" x="962.75" y="899.4066">delegates</text></g><!--link RemoteOperationRouter to ListPilotRosterService--><g class="link" data-entity-1="ent0017" data-entity-2="ent0027" data-link-type="dependency" data-source-line="164" id="lnk56"><path codeLine="164" d="M1381.04,827.4283 C1296.32,844.9783 1195.36,871.7183 1110,910.8383 C1081.18,924.0483 1056.6882,941.6665 1036.4382,958.1065" fill="none" id="RemoteOperationRouter-to-ListPilotRosterService" style="stroke:#181818;stroke-width:1;"/><polygon fill="#181818" points="1031.78,961.8883,1041.2884,959.3211,1035.6618,958.7368,1036.2461,953.1102,1031.78,961.8883" style="stroke:#181818;stroke-width:1;"/><polygon fill="#000000" points="1168.5849,896.2664,1178.0843,895.8072,1176.0002,890.3113,1168.5849,896.2664" style="stroke:#000000;stroke-width:1;"/><text fill="#000000" font-family="sans-serif" font-size="13" lengthAdjust="spacing" textLength="60.4424" x="1182.26" y="899.4066">delegates</text></g><!--link RemoteOperationRouter to RemovePilotService--><g class="link" data-entity-1="ent0017" data-entity-2="ent0028" data-link-type="dependency" data-source-line="165" id="lnk57"><path codeLine="165" d="M1476.91,830.3183 C1426.53,850.6683 1361.99,879.1683 1308,910.8383 C1282.43,925.8383 1260.3191,942.4677 1241.0691,958.0877" fill="none" id="RemoteOperationRouter-to-RemovePilotService" style="stroke:#181818;stroke-width:1;"/><polygon fill="#181818" points="1236.41,961.8683,1245.9191,959.3035,1240.2926,958.7178,1240.8783,953.0914,1236.41,961.8683" style="stroke:#181818;stroke-width:1;"/><polygon fill="#000000" points="1348.2437,896.8753,1357.5966,895.1508,1354.7967,889.9826,1348.2437,896.8753" style="stroke:#000000;stroke-width:1;"/><text fill="#000000" font-family="sans-serif" font-size="13" lengthAdjust="spacing" textLength="60.4424" x="1361.64" y="899.4066">delegates</text></g><!--link AuthenticationService to UserRepository--><g class="link" data-entity-1="ent0019" data-entity-2="ent0037" data-link-type="dependency" data-source-line="167" id="lnk58"><path codeLine="167" d="M2580,1018.6683 C2580,1051.2883 2580,1095.8783 2580,1128.4883" fill="none" id="AuthenticationService-to-UserRepository" style="stroke:#181818;stroke-width:1;"/><polygon fill="#181818" points="2580,1134.4883,2584,1125.4883,2580,1129.4883,2576,1125.4883,2580,1134.4883" style="stroke:#181818;stroke-width:1;"/><polygon fill="#000000" points="2585,1063.9836,2587.9389,1054.9385,2582.0611,1054.9385,2585,1063.9836" style="stroke:#000000;stroke-width:1;"/><text fill="#000000" font-family="sans-serif" font-size="13" lengthAdjust="spacing" textLength="85.7124" x="2594" y="1063.8966">retrieves user</text></g><!--link AuthorizationService to User--><g class="link" data-entity-1="ent0020" data-entity-2="ent0030" data-link-type="dependency" data-source-line="168" id="lnk59"><path codeLine="168" d="M3037,1018.6683 C3037,1046.1683 3037,1080.4483 3037,1111.9483" fill="none" id="AuthorizationService-to-User" style="stroke:#181818;stroke-width:1;"/><polygon fill="#181818" points="3037,1117.9483,3041,1108.9483,3037,1112.9483,3033,1108.9483,3037,1117.9483" style="stroke:#181818;stroke-width:1;"/><polygon fill="#000000" points="3042,1063.9836,3044.9389,1054.9385,3039.0611,1054.9385,3042,1063.9836" style="stroke:#000000;stroke-width:1;"/><text fill="#000000" font-family="sans-serif" font-size="13" lengthAdjust="spacing" textLength="42.853" x="3051" y="1063.8966">checks</text></g><!--reverse link User to Role--><g class="link" data-entity-1="ent0030" data-entity-2="ent0031" data-link-type="aggregation" data-source-line="169" id="lnk60"><path codeLine="169" d="M3023.6811,1227.9012 C3019.3511,1247.3412 3017.02,1257.7983 3012.9,1276.3283" fill="none" id="User-backto-Role" style="stroke:#181818;stroke-width:1;"/><polygon fill="none" points="3026.29,1216.1883,3021.0812,1221.1751,3023.6811,1227.9012,3028.8899,1222.9144,3026.29,1216.1883" style="stroke:#181818;stroke-width:1;"/><text fill="#000000" font-family="sans-serif" font-size="13" lengthAdjust="spacing" textLength="8.2202" x="3016.3283" y="1236.3868">1</text><text fill="#000000" font-family="sans-serif" font-size="13" lengthAdjust="spacing" textLength="22.7119" x="2990.6223" y="1266.1983">1..*</text></g><!--reverse link Role to Permission--><g class="link" data-entity-1="ent0031" data-entity-2="ent0032" data-link-type="aggregation" data-source-line="170" id="lnk61"><path codeLine="170" d="M3004,1370.1583 C3004,1389.5483 3004,1400.5083 3004,1418.6283" fill="none" id="Role-backto-Permission" style="stroke:#181818;stroke-width:1;"/><polygon fill="none" points="3004,1358.1583,3000,1364.1583,3004,1370.1583,3008,1364.1583,3004,1358.1583" style="stroke:#181818;stroke-width:1;"/><text fill="#000000" font-family="sans-serif" font-size="13" lengthAdjust="spacing" textLength="8.2202" x="2995.3803" y="1378.4606">1</text><text fill="#000000" font-family="sans-serif" font-size="13" lengthAdjust="spacing" textLength="6.2651" x="2997.4086" y="1408.0026">*</text></g><!--reverse link User to Email--><g class="link" data-entity-1="ent0030" data-entity-2="ent0035" data-link-type="composition" data-source-line="171" id="lnk62"><path codeLine="171" d="M3101.2359,1224.0732 C3127.0259,1246.5532 3147.96,1264.8083 3170.82,1284.7383" fill="none" id="User-backto-Email" style="stroke:#181818;stroke-width:1;"/><polygon fill="#181818" points="3092.19,1216.1883,3094.0846,1223.146,3101.2359,1224.0732,3099.3413,1217.1154,3092.19,1216.1883" style="stroke:#181818;stroke-width:1;"/></g><?plantuml-src bLRTZjeu5BxFKrZi3TDTPhjNNKKL4ikqsagjEeAP1_0uPy32iREsOKHNVVSUEmcnWnE0Yncmp_dE__bikHL0djVlF_mzMpvacTbnML5DIr8ggTXMgnA8rNi8RYhATdG3Qtj4LGtCKhaHeO3PqaAzSRaXhrIOy8O9Qip2MirVzXQ-C2NN_0UGzrdMW9B9djzhA9M52VdjmN_8_nd1ZzSb2wwVD9McKjekLLbHULnKLIFYFhyJOwcsqpj_yZCBT5SUTy4O6BCK7AHz_X9fQlXl3yOkDHHuoT7v1gQ-BhYf13qk3fGB-YBWUmMQMgvaBDQWd6uVgAKfd1LW5DB0L3TVyiR3zYAXyqbhfQSb1e39oiaQCoatRQW_WpHAi6zAx-wPZpETooTMrMa8aZ0ZMsLiYnmSkuJdX4iRE8NrarZ_A3W3ifWsAUW2yZ_l-W66K49X9iOYgRIoYYcHZYKo5CMZsZeaWg9xktMLPbxWIUqW9LNHer2qY6uIZTL65LatUzzkENbHIW2L5s3h6t1LNge2Xkw-nGqmvD5Zap87nQ9E1ydmRBXEFRFOV-0K6e6ffcyz5-vw62bR0rq-OgqTa35pGIkb6yU0Fe1EjysdyWMA0WeSXRKNYugNwlbmkxGdgXfUD_M4hT5zxB2e1big2m7BUeRmCWADvs6eqV_r43e1UzC89WoSjjTAuQQEBMXtTAE1i32qgaGpSWDBFXfBLnZE878X65oOicvVvoHOtkZBudp0poDsGahp7uFMk6b5e9ZkiPzoyen__o2Of9BxokRayVJzBfxss5PH88KnJL_jase8xBC0iB7TIES1fw5ii5lb4V6ltDWhaJ5PcC3FWc-srXTwr0i1ryfYb8zSg4jUUfaLyWte4KdNJmT8ueLTLQYIye66SjMA9XjGLkGu_lWlEDPODUmXvzl75NwVHtDbkX9FRw-ymujyaBHCBVWEkVMamv-VmtQNu-3zkhT3aafBWW6DmLqwGe69GOkG3rJiHnpoXRYe49PRGwKCjqeV-oN7VGtwbMARkBAlJdBHIBzoMVnpz6QdOJDW1RzNBWGgFZhrUMTwuEavcytJBykSuAemP3wcs3t1Jj99hCv8-yJ92VF3wrGwb4ukvlwyOM7pPqsjGreTkdl73KirBvtSlV-17pnUTawcdKfCWw7pgVjRmXZNxn5bZayB0Pl8T4_4wQO9A8zevoB06QNK-fv6HfNJ39pNlDjfzWMytKlqaaf02cYCSwx562AYQ_K7sUdw80Oewrg0Fe_T4dc2tAvLJp1Uh9gb6zJfzdQUcr1SeU16rBrSt3fAzMQhwaPp2spdhFZVaxycHCrc-F_-_jt4irZcgUnqWQST2TLAx_2yvjPV?></g></svg>