<?plantuml 1.2026.2?><svg xmlns="http://www.w3.org/2000/svg" xmlns:xlink="http://www.w3.org/1999/xlink" contentStyleType="text/css" data-diagram-type="SEQUENCE" height="802px" preserveAspectRatio="none" style="width:683px;height:802px;background:#FFFFFF;" version="1.1" viewBox="0 0 683 802" width="683px" zoomAndPan="magnify"><defs/><g><g><title>Pilot</title><rect fill="#FFFFFF" height="619.8789" style="stroke:#181818;stroke-width:1;" width="10" x="32.834" y="91.4883"/></g><g><title>.System</title><rect fill="#FFFFFF" height="29.3105" style="stroke:#181818;stroke-width:1;" width="10" x="358.6577" y="112.7988"/></g><g><title>.System</title><rect fill="#FFFFFF" height="539.9473" style="stroke:#181818;stroke-width:1;" width="10" x="358.6577" y="171.4199"/></g><rect fill="none" height="306.3945" style="stroke:#000000;stroke-width:1.5;" width="655.8496" x="10" y="397.9727"/><rect fill="none" height="159.1973" style="stroke:#000000;stroke-width:1.5;" width="335.4556" x="320.394" y="464.5938"/><g class="participant-lifeline" data-entity-uid="part1" data-qualified-name="Pilot" id="part1-lifeline"><g><title>Pilot</title><rect fill="#000000" fill-opacity="0.00000" height="639.8789" width="8" x="33.834" y="81.4883"/><line style="stroke:#181818;stroke-width:0.5;stroke-dasharray:5,5;" x1="37" x2="37" y1="81.4883" y2="721.3672"/></g></g><g class="participant-lifeline" data-entity-uid="part2" data-qualified-name="System" id="part2-lifeline"><g><title>.System</title><rect fill="#000000" fill-opacity="0.00000" height="639.8789" width="8" x="359.6577" y="81.4883"/><line style="stroke:#181818;stroke-width:0.5;stroke-dasharray:5,5;" x1="363.394" x2="363.394" y1="81.4883" y2="721.3672"/></g></g><g class="participant participant-head" data-entity-uid="part1" data-qualified-name="Pilot" id="part1-head"><text fill="#000000" font-family="sans-serif" font-size="14" lengthAdjust="spacing" textLength="29.668" x="20" y="78.5352">Pilot</text><ellipse cx="37.834" cy="13.5" fill="#E3E3E3" rx="8" ry="8" style="stroke:#181818;stroke-width:0.5;"/><path d="M37.834,21.5 L37.834,48.5 M24.834,29.5 L50.834,29.5 M37.834,48.5 L24.834,63.5 M37.834,48.5 L50.834,63.5" fill="none" style="stroke:#181818;stroke-width:0.5;"/></g><g class="participant participant-tail" data-entity-uid="part1" data-qualified-name="Pilot" id="part1-tail"><text fill="#000000" font-family="sans-serif" font-size="14" lengthAdjust="spacing" textLength="29.668" x="20" y="733.9023">Pilot</text><ellipse cx="37.834" cy="745.3555" fill="#E3E3E3" rx="8" ry="8" style="stroke:#181818;stroke-width:0.5;"/><path d="M37.834,753.3555 L37.834,780.3555 M24.834,761.3555 L50.834,761.3555 M37.834,780.3555 L24.834,795.3555 M37.834,780.3555 L50.834,795.3555" fill="none" style="stroke:#181818;stroke-width:0.5;"/></g><g class="participant participant-head" data-entity-uid="part2" data-qualified-name="System" id="part2-head"><rect fill="#E3E3E3" height="30.4883" rx="2.5" ry="2.5" style="stroke:#181818;stroke-width:0.5;" width="66.5273" x="330.394" y="50"/><text fill="#000000" font-family="sans-serif" font-size="14" lengthAdjust="spacing" textLength="52.5273" x="337.394" y="70.5352">:System</text></g><g class="participant participant-tail" data-entity-uid="part2" data-qualified-name="System" id="part2-tail"><rect fill="#E3E3E3" height="30.4883" rx="2.5" ry="2.5" style="stroke:#181818;stroke-width:0.5;" width="66.5273" x="330.394" y="720.3672"/><text fill="#000000" font-family="sans-serif" font-size="14" lengthAdjust="spacing" textLength="52.5273" x="337.394" y="740.9023">:System</text></g><g><title>Pilot</title><rect fill="#FFFFFF" height="619.8789" style="stroke:#181818;stroke-width:1;" width="10" x="32.834" y="91.4883"/></g><g><title>.System</title><rect fill="#FFFFFF" height="29.3105" style="stroke:#181818;stroke-width:1;" width="10" x="358.6577" y="112.7988"/></g><g><title>.System</title><rect fill="#FFFFFF" height="539.9473" style="stroke:#181818;stroke-width:1;" width="10" x="358.6577" y="171.4199"/></g><g class="message" data-entity-1="part1" data-entity-2="part2" id="msg1"><polygon fill="#181818" points="346.6577,108.7988,356.6577,112.7988,346.6577,116.7988,350.6577,112.7988" style="stroke:#181818;stroke-width:1;"/><line style="stroke:#181818;stroke-width:1;" x1="42.834" x2="352.6577" y1="112.7988" y2="112.7988"/><text fill="#000000" font-family="sans-serif" font-size="13" font-weight="bold" lengthAdjust="spacing" textLength="8.5757" x="52.334" y="108.0566">1</text><text fill="#000000" font-family="sans-serif" font-size="13" lengthAdjust="spacing" textLength="284.248" x="64.9097" y="108.0566">Requests to add weather data to a flight plan</text></g><g class="message" data-entity-1="part2" data-entity-2="part1" id="msg2"><polygon fill="#181818" points="53.834,138.1094,43.834,142.1094,53.834,146.1094,49.834,142.1094" style="stroke:#181818;stroke-width:1;"/><line style="stroke:#181818;stroke-width:1;stroke-dasharray:2,2;" x1="47.834" x2="362.6577" y1="142.1094" y2="142.1094"/><text fill="#000000" font-family="sans-serif" font-size="13" font-weight="bold" lengthAdjust="spacing" textLength="8.5757" x="77.4983" y="137.3672">2</text><text fill="#000000" font-family="sans-serif" font-size="13" lengthAdjust="spacing" textLength="238.9194" x="90.074" y="137.3672">Requests flight plan and weather data</text></g><g class="message" data-entity-1="part1" data-entity-2="part2" id="msg3"><polygon fill="#181818" points="346.6577,167.4199,356.6577,171.4199,346.6577,175.4199,350.6577,171.4199" style="stroke:#181818;stroke-width:1;"/><line style="stroke:#181818;stroke-width:1;" x1="42.834" x2="352.6577" y1="171.4199" y2="171.4199"/><text fill="#000000" font-family="sans-serif" font-size="13" font-weight="bold" lengthAdjust="spacing" textLength="8.5757" x="77.02" y="166.6777">3</text><text fill="#000000" font-family="sans-serif" font-size="13" lengthAdjust="spacing" textLength="234.876" x="89.5957" y="166.6777">Provides flight plan and weather data</text></g><g class="message" data-entity-1="part2" data-entity-2="part2" id="msg4"><line style="stroke:#181818;stroke-width:1;stroke-dasharray:2,2;" x1="368.6577" x2="410.6577" y1="200.7305" y2="200.7305"/><line style="stroke:#181818;stroke-width:1;stroke-dasharray:2,2;" x1="410.6577" x2="410.6577" y1="200.7305" y2="213.7305"/><line style="stroke:#181818;stroke-width:1;stroke-dasharray:2,2;" x1="369.6577" x2="410.6577" y1="213.7305" y2="213.7305"/><polygon fill="#181818" points="379.6577,209.7305,369.6577,213.7305,379.6577,217.7305,375.6577,213.7305" style="stroke:#181818;stroke-width:1;"/><text fill="#000000" font-family="sans-serif" font-size="13" font-weight="bold" lengthAdjust="spacing" textLength="8.5757" x="375.6577" y="195.9883">4</text><text fill="#000000" font-family="sans-serif" font-size="13" lengthAdjust="spacing" textLength="288.4883" x="388.2334" y="195.9883">Check if pilot is authenticated and authorized</text></g><g class="message" data-entity-1="part2" data-entity-2="part2" id="msg5"><line style="stroke:#181818;stroke-width:1;stroke-dasharray:2,2;" x1="368.6577" x2="410.6577" y1="243.041" y2="243.041"/><line style="stroke:#181818;stroke-width:1;stroke-dasharray:2,2;" x1="410.6577" x2="410.6577" y1="243.041" y2="256.041"/><line style="stroke:#181818;stroke-width:1;stroke-dasharray:2,2;" x1="369.6577" x2="410.6577" y1="256.041" y2="256.041"/><polygon fill="#181818" points="379.6577,252.041,369.6577,256.041,379.6577,260.041,375.6577,256.041" style="stroke:#181818;stroke-width:1;"/><text fill="#000000" font-family="sans-serif" font-size="13" font-weight="bold" lengthAdjust="spacing" textLength="8.5757" x="375.6577" y="238.2988">5</text><text fill="#000000" font-family="sans-serif" font-size="13" lengthAdjust="spacing" textLength="119.4058" x="388.2334" y="238.2988">Validate flight plan</text></g><g class="message" data-entity-1="part2" data-entity-2="part2" id="msg6"><line style="stroke:#181818;stroke-width:1;stroke-dasharray:2,2;" x1="368.6577" x2="410.6577" y1="285.3516" y2="285.3516"/><line style="stroke:#181818;stroke-width:1;stroke-dasharray:2,2;" x1="410.6577" x2="410.6577" y1="285.3516" y2="298.3516"/><line style="stroke:#181818;stroke-width:1;stroke-dasharray:2,2;" x1="369.6577" x2="410.6577" y1="298.3516" y2="298.3516"/><polygon fill="#181818" points="379.6577,294.3516,369.6577,298.3516,379.6577,302.3516,375.6577,298.3516" style="stroke:#181818;stroke-width:1;"/><text fill="#000000" font-family="sans-serif" font-size="13" font-weight="bold" lengthAdjust="spacing" textLength="8.5757" x="375.6577" y="280.6094">6</text><text fill="#000000" font-family="sans-serif" font-size="13" lengthAdjust="spacing" textLength="223.6597" x="388.2334" y="280.6094">Check if flight plan belongs to pilot</text></g><g class="message" data-entity-1="part2" data-entity-2="part2" id="msg7"><line style="stroke:#181818;stroke-width:1;stroke-dasharray:2,2;" x1="368.6577" x2="410.6577" y1="327.6621" y2="327.6621"/><line style="stroke:#181818;stroke-width:1;stroke-dasharray:2,2;" x1="410.6577" x2="410.6577" y1="327.6621" y2="340.6621"/><line style="stroke:#181818;stroke-width:1;stroke-dasharray:2,2;" x1="369.6577" x2="410.6577" y1="340.6621" y2="340.6621"/><polygon fill="#181818" points="379.6577,336.6621,369.6577,340.6621,379.6577,344.6621,375.6577,340.6621" style="stroke:#181818;stroke-width:1;"/><text fill="#000000" font-family="sans-serif" font-size="13" font-weight="bold" lengthAdjust="spacing" textLength="8.5757" x="375.6577" y="322.9199">7</text><text fill="#000000" font-family="sans-serif" font-size="13" lengthAdjust="spacing" textLength="136.2207" x="388.2334" y="322.9199">Validate weather data</text></g><g class="message" data-entity-1="part2" data-entity-2="part2" id="msg8"><line style="stroke:#181818;stroke-width:1;stroke-dasharray:2,2;" x1="368.6577" x2="410.6577" y1="369.9727" y2="369.9727"/><line style="stroke:#181818;stroke-width:1;stroke-dasharray:2,2;" x1="410.6577" x2="410.6577" y1="369.9727" y2="382.9727"/><line style="stroke:#181818;stroke-width:1;stroke-dasharray:2,2;" x1="369.6577" x2="410.6577" y1="382.9727" y2="382.9727"/><polygon fill="#181818" points="379.6577,378.9727,369.6577,382.9727,379.6577,386.9727,375.6577,382.9727" style="stroke:#181818;stroke-width:1;"/><text fill="#000000" font-family="sans-serif" font-size="13" font-weight="bold" lengthAdjust="spacing" textLength="8.5757" x="375.6577" y="365.2305">8</text><text fill="#000000" font-family="sans-serif" font-size="13" lengthAdjust="spacing" textLength="259.6001" x="388.2334" y="365.2305">Check if flight plan was previously tested</text></g><path d="M10,397.9727 L72.1387,397.9727 L72.1387,405.2832 L62.1387,415.2832 L10,415.2832 L10,397.9727" fill="#EEEEEE" style="stroke:#000000;stroke-width:1.5;"/><rect fill="none" height="306.3945" style="stroke:#000000;stroke-width:1.5;" width="655.8496" x="10" y="397.9727"/><text fill="#000000" font-family="sans-serif" font-size="13" font-weight="bold" lengthAdjust="spacing" textLength="17.1387" x="25" y="411.541">alt</text><text fill="#000000" font-family="sans-serif" font-size="11" font-weight="bold" lengthAdjust="spacing" textLength="221.6543" x="87.1387" y="410.6074">[flight plan and weather data are valid]</text><g class="message" data-entity-1="part2" data-entity-2="part2" id="msg9"><line style="stroke:#181818;stroke-width:1;stroke-dasharray:2,2;" x1="368.6577" x2="410.6577" y1="436.5938" y2="436.5938"/><line style="stroke:#181818;stroke-width:1;stroke-dasharray:2,2;" x1="410.6577" x2="410.6577" y1="436.5938" y2="449.5938"/><line style="stroke:#181818;stroke-width:1;stroke-dasharray:2,2;" x1="369.6577" x2="410.6577" y1="449.5938" y2="449.5938"/><polygon fill="#181818" points="379.6577,445.5938,369.6577,449.5938,379.6577,453.5938,375.6577,449.5938" style="stroke:#181818;stroke-width:1;"/><text fill="#000000" font-family="sans-serif" font-size="13" font-weight="bold" lengthAdjust="spacing" textLength="8.5757" x="375.6577" y="431.8516">9</text><text fill="#000000" font-family="sans-serif" font-size="13" lengthAdjust="spacing" textLength="196.5996" x="388.2334" y="431.8516">Add weather data to flight plan</text></g><path d="M320.394,464.5938 L382.5327,464.5938 L382.5327,471.9043 L372.5327,481.9043 L320.394,481.9043 L320.394,464.5938" fill="#EEEEEE" style="stroke:#000000;stroke-width:1.5;"/><rect fill="none" height="159.1973" style="stroke:#000000;stroke-width:1.5;" width="335.4556" x="320.394" y="464.5938"/><text fill="#000000" font-family="sans-serif" font-size="13" font-weight="bold" lengthAdjust="spacing" textLength="17.1387" x="335.394" y="478.1621">alt</text><text fill="#000000" font-family="sans-serif" font-size="11" font-weight="bold" lengthAdjust="spacing" textLength="194.6538" x="397.5327" y="477.2285">[flight plan was previously tested]</text><g class="message" data-entity-1="part2" data-entity-2="part2" id="msg10"><line style="stroke:#181818;stroke-width:1;stroke-dasharray:2,2;" x1="368.6577" x2="410.6577" y1="503.2148" y2="503.2148"/><line style="stroke:#181818;stroke-width:1;stroke-dasharray:2,2;" x1="410.6577" x2="410.6577" y1="503.2148" y2="516.2148"/><line style="stroke:#181818;stroke-width:1;stroke-dasharray:2,2;" x1="369.6577" x2="410.6577" y1="516.2148" y2="516.2148"/><polygon fill="#181818" points="379.6577,512.2148,369.6577,516.2148,379.6577,520.2148,375.6577,516.2148" style="stroke:#181818;stroke-width:1;"/><text fill="#000000" font-family="sans-serif" font-size="13" font-weight="bold" lengthAdjust="spacing" textLength="17.1514" x="375.6577" y="498.4727">10</text><text fill="#000000" font-family="sans-serif" font-size="13" lengthAdjust="spacing" textLength="205.7021" x="396.8091" y="498.4727">Mark previous test result as void</text></g><g class="message" data-entity-1="part2" data-entity-2="part2" id="msg11"><line style="stroke:#181818;stroke-width:1;stroke-dasharray:2,2;" x1="368.6577" x2="410.6577" y1="545.5254" y2="545.5254"/><line style="stroke:#181818;stroke-width:1;stroke-dasharray:2,2;" x1="410.6577" x2="410.6577" y1="545.5254" y2="558.5254"/><line style="stroke:#181818;stroke-width:1;stroke-dasharray:2,2;" x1="369.6577" x2="410.6577" y1="558.5254" y2="558.5254"/><polygon fill="#181818" points="379.6577,554.5254,369.6577,558.5254,379.6577,562.5254,375.6577,558.5254" style="stroke:#181818;stroke-width:1;"/><text fill="#000000" font-family="sans-serif" font-size="13" font-weight="bold" lengthAdjust="spacing" textLength="17.1514" x="375.6577" y="540.7832">11</text><text fill="#000000" font-family="sans-serif" font-size="13" lengthAdjust="spacing" textLength="237.0405" x="396.8091" y="540.7832">Mark flight plan as requiring new test</text></g><line style="stroke:#000000;stroke-width:1;stroke-dasharray:2,2;" x1="320.394" x2="655.8496" y1="567.5254" y2="567.5254"/><text fill="#000000" font-family="sans-serif" font-size="11" font-weight="bold" lengthAdjust="spacing" textLength="216.9868" x="325.394" y="578.1602">[flight plan was not previously tested]</text><g class="message" data-entity-1="part2" data-entity-2="part2" id="msg12"><line style="stroke:#181818;stroke-width:1;stroke-dasharray:2,2;" x1="368.6577" x2="410.6577" y1="602.791" y2="602.791"/><line style="stroke:#181818;stroke-width:1;stroke-dasharray:2,2;" x1="410.6577" x2="410.6577" y1="602.791" y2="615.791"/><line style="stroke:#181818;stroke-width:1;stroke-dasharray:2,2;" x1="369.6577" x2="410.6577" y1="615.791" y2="615.791"/><polygon fill="#181818" points="379.6577,611.791,369.6577,615.791,379.6577,619.791,375.6577,615.791" style="stroke:#181818;stroke-width:1;"/><text fill="#000000" font-family="sans-serif" font-size="13" font-weight="bold" lengthAdjust="spacing" textLength="17.1514" x="375.6577" y="598.0488">12</text><text fill="#000000" font-family="sans-serif" font-size="13" lengthAdjust="spacing" textLength="208.9902" x="396.8091" y="598.0488">Keep flight plan as not yet tested</text></g><g class="message" data-entity-1="part2" data-entity-2="part1" id="msg13"><polygon fill="#181818" points="53.834,648.1016,43.834,652.1016,53.834,656.1016,49.834,652.1016" style="stroke:#181818;stroke-width:1;"/><line style="stroke:#181818;stroke-width:1;stroke-dasharray:2,2;" x1="47.834" x2="357.6577" y1="652.1016" y2="652.1016"/><text fill="#000000" font-family="sans-serif" font-size="13" font-weight="bold" lengthAdjust="spacing" textLength="17.1514" x="87.4651" y="647.3594">13</text><text fill="#000000" font-family="sans-serif" font-size="13" lengthAdjust="spacing" textLength="205.4102" x="108.6165" y="647.3594">Weather data added successfully</text></g><line style="stroke:#000000;stroke-width:1;stroke-dasharray:2,2;" x1="10" x2="665.8496" y1="661.1016" y2="661.1016"/><text fill="#000000" font-family="sans-serif" font-size="11" font-weight="bold" lengthAdjust="spacing" textLength="215.3862" x="15" y="671.7363">[flight plan or weather data is invalid]</text><g class="message" data-entity-1="part2" data-entity-2="part1" id="msg14"><polygon fill="#181818" points="53.834,692.3672,43.834,696.3672,53.834,700.3672,49.834,696.3672" style="stroke:#181818;stroke-width:1;"/><line style="stroke:#181818;stroke-width:1;stroke-dasharray:2,2;" x1="47.834" x2="357.6577" y1="696.3672" y2="696.3672"/><text fill="#000000" font-family="sans-serif" font-size="13" font-weight="bold" lengthAdjust="spacing" textLength="17.1514" x="119.8667" y="691.625">14</text><text fill="#000000" font-family="sans-serif" font-size="13" lengthAdjust="spacing" textLength="140.6069" x="141.0181" y="691.625">Display error message</text></g><?plantuml-src bLJDRkCW4Bxp5AFS-m8zh5IrjrMbQYkrvobCx54mk30uyZxzZeaRsOcLRNqn0huVvYyVEFIOi8CkXcZR53i2IOLCFf_qQ0_OqAkCdY2H5GoDNrx8BRfuvD307drUdT1deM3fcN9MYWVFJG1BGIWPB193wJvqQT1AJB1xOHzb1vYXheoI25lkCGZixb_7BDJLuzEoudX0eVc-gJ-u-pLVW7luCpd8aa4Ye7Dm99IM4ZWKh7kmLrEjGEynB0XdXPddJYbFt0l61H0mhAcDeqkg3NClAGxiw3zKjqoTgHvRiWVWFVHLXJDeV5kDD5j5kiewxSJ4VybjKhoXPpV9B2DoKsjf-uDy34sDSxLmMsBrm6zh73NrVQA1Oyb-1D4qw5iCUhaPGS14C4pI1lJRadlOA8rLOKp0IvrjEp1_MpBFc0vdI0LeG-MYl4erHFu6UlNGhF3FmcdglK37obWfIFlmoclGmlYPtzz4_QNYn3AIBE4KdBaCxLUxlAyIuPpMOYxMwa3O5-z7S-LK1y4g4rhA73QpzoNnn5cH8r1A2kvEiyPKKzTjkDWv3Or_?></g></svg>