<?plantuml 1.2026.2?><svg xmlns="http://www.w3.org/2000/svg" xmlns:xlink="http://www.w3.org/1999/xlink" contentStyleType="text/css" data-diagram-type="CLASS" height="818.4px" preserveAspectRatio="none" style="width:2097px;height:818px;background:#FFFFFF;" version="1.1" viewBox="0 0 2097 818" width="2097px" zoomAndPan="magnify"><title>US031-CD</title><defs/><g><g class="title" data-source-line="1"><text fill="#000000" font-family="sans-serif" font-size="8.4" font-weight="bold" lengthAdjust="spacing" textLength="45.6176" x="1021.4912" y="14.1211">US031-CD</text></g><!--cluster ui--><g class="cluster" data-qualified-name="ui" data-source-line="9" id="ent0004"><rect fill="none" height="188.64" rx="1.5" ry="1.5" style="stroke:#000000;stroke-width:0.9;" width="237.6" x="10.2" y="26.693"/><text fill="#000000" font-family="sans-serif" font-size="8.4" font-weight="bold" lengthAdjust="spacing" textLength="8.2482" x="124.8759" y="36.0141">ui</text></g><!--cluster console--><g class="cluster" data-qualified-name="ui.console" data-source-line="8" id="ent0002"><rect fill="#DDDDDD" height="148.44" rx="1.5" ry="1.5" style="stroke:#000000;stroke-width:0.9;" width="208.8" x="24.6" y="52.493"/><text fill="#000000" font-family="sans-serif" font-size="8.4" font-weight="bold" lengthAdjust="spacing" textLength="33.1201" x="112.4399" y="61.8141">console</text></g><!--cluster controller--><g class="cluster" data-qualified-name="controller" data-source-line="22" id="ent0005"><rect fill="#DDDDDD" height="69.294" rx="1.5" ry="1.5" style="stroke:#000000;stroke-width:0.9;" width="249.6" x="4.2" y="269.465"/><text fill="#000000" font-family="sans-serif" font-size="8.4" font-weight="bold" lengthAdjust="spacing" textLength="42.1436" x="107.9282" y="278.7861">controller</text></g><!--cluster application--><g class="cluster" data-qualified-name="application" data-source-line="28" id="ent0007"><rect fill="#DDDDDD" height="375.342" rx="1.5" ry="1.5" style="stroke:#000000;stroke-width:0.9;" width="390.6" x="268.2" y="244.733"/><text fill="#000000" font-family="sans-serif" font-size="8.4" font-weight="bold" lengthAdjust="spacing" textLength="47.9596" x="439.5202" y="254.0541">application</text></g><!--cluster domain--><g class="cluster" data-qualified-name="domain" data-source-line="59" id="ent0013"><rect fill="#DDDDDD" height="338.592" rx="1.5" ry="1.5" style="stroke:#000000;stroke-width:0.9;" width="987.6" x="673.2" y="476.585"/><text fill="#000000" font-family="sans-serif" font-size="8.4" font-weight="bold" lengthAdjust="spacing" textLength="32.2629" x="1150.8686" y="485.9061">domain</text></g><!--cluster repository--><g class="cluster" data-qualified-name="repository" data-source-line="110" id="ent0022"><rect fill="#DDDDDD" height="89.082" rx="1.5" ry="1.5" style="stroke:#000000;stroke-width:0.9;" width="418.2" x="1675.2" y="521.099"/><text fill="#000000" font-family="sans-serif" font-size="8.4" font-weight="bold" lengthAdjust="spacing" textLength="44.6373" x="1861.9813" y="530.4201">repository</text></g><!--class RegisterUserUI--><g class="entity" data-qualified-name="ui.console.RegisterUserUI" data-source-line="9" id="ent0003"><rect fill="#F1F1F1" height="117.8367" rx="1.5" ry="1.5" style="stroke:#181818;stroke-width:0.3;" width="189.0305" x="34.482" y="73.493"/><ellipse cx="96.6186" cy="83.093" fill="#C2C2C2" rx="6.6" ry="6.6" style="stroke:#181818;stroke-width:0.6;"/><path d="M98.4025,86.4788 Q98.0539,86.6581 97.6704,86.7478 Q97.2869,86.8374 96.8635,86.8374 Q95.3594,86.8374 94.5675,85.8463 Q93.7757,84.8552 93.7757,82.9825 Q93.7757,81.1049 94.5675,80.1138 Q95.3594,79.1227 96.8635,79.1227 Q97.2869,79.1227 97.6754,79.2123 Q98.0638,79.302 98.4025,79.4813 L98.4025,81.1148 Q98.024,80.7662 97.6679,80.6043 Q97.3118,80.4425 96.9333,80.4425 Q96.1264,80.4425 95.7155,81.0825 Q95.3047,81.7225 95.3047,82.9825 Q95.3047,84.2376 95.7155,84.8776 Q96.1264,85.5176 96.9333,85.5176 Q97.3118,85.5176 97.6679,85.3557 Q98.024,85.1938 98.4025,84.8452 Z " fill="#000000"/><text fill="#000000" font-family="sans-serif" font-size="8.4" lengthAdjust="spacing" textLength="59.6572" x="108.9186" y="86.2676">RegisterUserUI</text><line style="stroke:#181818;stroke-width:0.3;" x1="35.082" x2="222.9125" y1="92.693" y2="92.693"/><text fill="#000000" font-family="sans-serif" font-size="8.4" lengthAdjust="spacing" textLength="56.175" x="38.082" y="103.2141">-email: String</text><text fill="#000000" font-family="sans-serif" font-size="8.4" lengthAdjust="spacing" textLength="56.5318" x="38.082" y="113.107">-name: String</text><text fill="#000000" font-family="sans-serif" font-size="8.4" lengthAdjust="spacing" textLength="92.3754" x="38.082" y="123">-phoneNumber: String</text><text fill="#000000" font-family="sans-serif" font-size="8.4" lengthAdjust="spacing" textLength="117.1857" x="38.082" y="132.893">-selectedRoles: List&lt;String&gt;</text><text fill="#000000" font-family="sans-serif" font-size="8.4" lengthAdjust="spacing" textLength="181.8305" x="38.082" y="142.7859">-securityClearanceExpirationDate: LocalDate</text><text fill="#000000" font-family="sans-serif" font-size="8.4" lengthAdjust="spacing" textLength="152.6602" x="38.082" y="152.6789">-lastSkillsAssessmentDate: LocalDate</text><line style="stroke:#181818;stroke-width:0.3;" x1="35.082" x2="222.9125" y1="156.8508" y2="156.8508"/><text fill="#000000" font-family="sans-serif" font-size="8.4" lengthAdjust="spacing" textLength="61.5727" x="38.082" y="167.3719">+requestData()</text><text fill="#000000" font-family="sans-serif" font-size="8.4" lengthAdjust="spacing" textLength="140.8559" x="38.082" y="177.2648">+displayMessage(message: String)</text><text fill="#000000" font-family="sans-serif" font-size="8.4" lengthAdjust="spacing" textLength="125.8441" x="38.082" y="187.1578">+displayError(message: String)</text></g><!--class RegisterUserController--><g class="entity" data-qualified-name="controller.RegisterUserController" data-source-line="23" id="ent0006"><rect fill="#F1F1F1" height="38.693" rx="1.5" ry="1.5" style="stroke:#181818;stroke-width:0.3;" width="230.5957" x="13.704" y="290.465"/><ellipse cx="80.2949" cy="300.065" fill="#C2C2C2" rx="6.6" ry="6.6" style="stroke:#181818;stroke-width:0.6;"/><path d="M82.0788,303.4508 Q81.7302,303.6301 81.3467,303.7198 Q80.9632,303.8094 80.5398,303.8094 Q79.0357,303.8094 78.2438,302.8183 Q77.4519,301.8272 77.4519,299.9545 Q77.4519,298.0769 78.2438,297.0858 Q79.0357,296.0947 80.5398,296.0947 Q80.9632,296.0947 81.3517,296.1843 Q81.7401,296.274 82.0788,296.4533 L82.0788,298.0868 Q81.7003,297.7382 81.3442,297.5763 Q80.9881,297.4145 80.6096,297.4145 Q79.8027,297.4145 79.3918,298.0545 Q78.981,298.6945 78.981,299.9545 Q78.981,301.2096 79.3918,301.8496 Q79.8027,302.4896 80.6096,302.4896 Q80.9881,302.4896 81.3442,302.3277 Q81.7003,302.1658 82.0788,301.8172 Z " fill="#000000"/><text fill="#000000" font-family="sans-serif" font-size="8.4" lengthAdjust="spacing" textLength="92.3139" x="92.5949" y="303.2396">RegisterUserController</text><line style="stroke:#181818;stroke-width:0.3;" x1="14.304" x2="243.6997" y1="309.665" y2="309.665"/><line style="stroke:#181818;stroke-width:0.3;" x1="14.304" x2="243.6997" y1="314.465" y2="314.465"/><text fill="#000000" font-family="sans-serif" font-size="8.4" lengthAdjust="spacing" textLength="223.3957" x="17.304" y="324.9861">+registerUser(request: RegisterUserRequest): UserDTO</text></g><!--class RegisterUserService--><g class="entity" data-qualified-name="application.RegisterUserService" data-source-line="29" id="ent0008"><rect fill="#F1F1F1" height="38.693" rx="1.5" ry="1.5" style="stroke:#181818;stroke-width:0.3;" width="230.5957" x="418.704" y="400.091"/><ellipse cx="491.5436" cy="409.691" fill="#C2C2C2" rx="6.6" ry="6.6" style="stroke:#181818;stroke-width:0.6;"/><path d="M493.3275,413.0768 Q492.9789,413.2561 492.5954,413.3458 Q492.2119,413.4354 491.7886,413.4354 Q490.2845,413.4354 489.4926,412.4443 Q488.7007,411.4532 488.7007,409.5805 Q488.7007,407.7029 489.4926,406.7118 Q490.2845,405.7207 491.7886,405.7207 Q492.2119,405.7207 492.6004,405.8103 Q492.9889,405.9 493.3275,406.0793 L493.3275,407.7128 Q492.949,407.3642 492.5929,407.2023 Q492.2368,407.0405 491.8583,407.0405 Q491.0515,407.0405 490.6406,407.6805 Q490.2297,408.3205 490.2297,409.5805 Q490.2297,410.8356 490.6406,411.4756 Q491.0515,412.1156 491.8583,412.1156 Q492.2368,412.1156 492.5929,411.9537 Q492.949,411.7918 493.3275,411.4432 Z " fill="#000000"/><text fill="#000000" font-family="sans-serif" font-size="8.4" lengthAdjust="spacing" textLength="79.8164" x="503.8436" y="412.8656">RegisterUserService</text><line style="stroke:#181818;stroke-width:0.3;" x1="419.304" x2="648.6997" y1="419.291" y2="419.291"/><line style="stroke:#181818;stroke-width:0.3;" x1="419.304" x2="648.6997" y1="424.091" y2="424.091"/><text fill="#000000" font-family="sans-serif" font-size="8.4" lengthAdjust="spacing" textLength="223.3957" x="422.304" y="434.6121">+registerUser(request: RegisterUserRequest): UserDTO</text></g><!--class AuthorizationService--><g class="entity" data-qualified-name="application.AuthorizationService" data-source-line="33" id="ent0009"><rect fill="#F1F1F1" height="38.693" rx="1.5" ry="1.5" style="stroke:#181818;stroke-width:0.3;" width="250.316" x="278.04" y="551.993"/><ellipse cx="358.5557" cy="561.593" fill="#C2C2C2" rx="6.6" ry="6.6" style="stroke:#181818;stroke-width:0.6;"/><path d="M360.3396,564.9788 Q359.991,565.1581 359.6075,565.2478 Q359.224,565.3374 358.8006,565.3374 Q357.2965,565.3374 356.5046,564.3463 Q355.7128,563.3552 355.7128,561.4825 Q355.7128,559.6049 356.5046,558.6138 Q357.2965,557.6227 358.8006,557.6227 Q359.224,557.6227 359.6125,557.7123 Q360.0009,557.802 360.3396,557.9813 L360.3396,559.6148 Q359.9611,559.2662 359.605,559.1043 Q359.2489,558.9425 358.8704,558.9425 Q358.0635,558.9425 357.6526,559.5825 Q357.2418,560.2225 357.2418,561.4825 Q357.2418,562.7376 357.6526,563.3776 Q358.0635,564.0176 358.8704,564.0176 Q359.2489,564.0176 359.605,563.8557 Q359.9611,563.6938 360.3396,563.3452 Z " fill="#000000"/><text fill="#000000" font-family="sans-serif" font-size="8.4" lengthAdjust="spacing" textLength="84.1846" x="370.8557" y="564.7676">AuthorizationService</text><line style="stroke:#181818;stroke-width:0.3;" x1="278.64" x2="527.756" y1="571.193" y2="571.193"/><line style="stroke:#181818;stroke-width:0.3;" x1="278.64" x2="527.756" y1="575.993" y2="575.993"/><text fill="#000000" font-family="sans-serif" font-size="8.4" lengthAdjust="spacing" textLength="243.116" x="281.64" y="586.5141">+isAuthorized(user: User, permission: Permission): boolean</text></g><!--class RegisterUserRequest--><g class="entity" data-qualified-name="application.RegisterUserRequest" data-source-line="37" id="ent0010"><rect fill="#F1F1F1" height="88.1578" rx="1.5" ry="1.5" style="stroke:#181818;stroke-width:0.3;" width="189.0305" x="278.082" y="265.733"/><ellipse cx="328.0411" cy="275.333" fill="#C2C2C2" rx="6.6" ry="6.6" style="stroke:#181818;stroke-width:0.6;"/><path d="M329.825,278.7188 Q329.4763,278.8981 329.0928,278.9878 Q328.7093,279.0774 328.286,279.0774 Q326.7819,279.0774 325.99,278.0863 Q325.1981,277.0952 325.1981,275.2225 Q325.1981,273.3449 325.99,272.3538 Q326.7819,271.3627 328.286,271.3627 Q328.7093,271.3627 329.0978,271.4523 Q329.4863,271.542 329.825,271.7213 L329.825,273.3548 Q329.4465,273.0062 329.0903,272.8443 Q328.7342,272.6825 328.3557,272.6825 Q327.5489,272.6825 327.138,273.3225 Q326.7271,273.9625 326.7271,275.2225 Q326.7271,276.4776 327.138,277.1176 Q327.5489,277.7576 328.3557,277.7576 Q328.7342,277.7576 329.0903,277.5957 Q329.4465,277.4338 329.825,277.0852 Z " fill="#000000"/><text fill="#000000" font-family="sans-serif" font-size="8.4" lengthAdjust="spacing" textLength="84.0123" x="340.3411" y="278.5076">RegisterUserRequest</text><line style="stroke:#181818;stroke-width:0.3;" x1="278.682" x2="466.5125" y1="284.933" y2="284.933"/><text fill="#000000" font-family="sans-serif" font-size="8.4" lengthAdjust="spacing" textLength="56.175" x="281.682" y="295.4541">-email: String</text><text fill="#000000" font-family="sans-serif" font-size="8.4" lengthAdjust="spacing" textLength="56.5318" x="281.682" y="305.347">-name: String</text><text fill="#000000" font-family="sans-serif" font-size="8.4" lengthAdjust="spacing" textLength="92.3754" x="281.682" y="315.24">-phoneNumber: String</text><text fill="#000000" font-family="sans-serif" font-size="8.4" lengthAdjust="spacing" textLength="105.1969" x="281.682" y="325.133">-roleNames: List&lt;String&gt;</text><text fill="#000000" font-family="sans-serif" font-size="8.4" lengthAdjust="spacing" textLength="181.8305" x="281.682" y="335.0259">-securityClearanceExpirationDate: LocalDate</text><text fill="#000000" font-family="sans-serif" font-size="8.4" lengthAdjust="spacing" textLength="152.6602" x="281.682" y="344.9189">-lastSkillsAssessmentDate: LocalDate</text><line style="stroke:#181818;stroke-width:0.3;" x1="278.682" x2="466.5125" y1="349.0908" y2="349.0908"/></g><!--class UserDTO--><g class="entity" data-qualified-name="application.UserDTO" data-source-line="46" id="ent0011"><rect fill="#F1F1F1" height="78.2648" rx="1.5" ry="1.5" style="stroke:#181818;stroke-width:0.3;" width="99.5754" x="549.612" y="532.205"/><ellipse cx="578.6757" cy="541.805" fill="#C2C2C2" rx="6.6" ry="6.6" style="stroke:#181818;stroke-width:0.6;"/><path d="M580.4596,545.1908 Q580.1109,545.3701 579.7274,545.4598 Q579.3439,545.5494 578.9206,545.5494 Q577.4165,545.5494 576.6246,544.5583 Q575.8327,543.5672 575.8327,541.6945 Q575.8327,539.8169 576.6246,538.8258 Q577.4165,537.8347 578.9206,537.8347 Q579.3439,537.8347 579.7324,537.9243 Q580.1209,538.014 580.4596,538.1933 L580.4596,539.8268 Q580.081,539.4782 579.7249,539.3163 Q579.3688,539.1545 578.9903,539.1545 Q578.1835,539.1545 577.7726,539.7945 Q577.3617,540.4345 577.3617,541.6945 Q577.3617,542.9496 577.7726,543.5896 Q578.1835,544.2296 578.9903,544.2296 Q579.3688,544.2296 579.7249,544.0677 Q580.081,543.9058 580.4596,543.5572 Z " fill="#000000"/><text fill="#000000" font-family="sans-serif" font-size="8.4" lengthAdjust="spacing" textLength="36.348" x="590.9757" y="544.9796">UserDTO</text><line style="stroke:#181818;stroke-width:0.3;" x1="550.212" x2="648.5874" y1="551.405" y2="551.405"/><text fill="#000000" font-family="sans-serif" font-size="8.4" lengthAdjust="spacing" textLength="56.175" x="553.212" y="561.9261">-email: String</text><text fill="#000000" font-family="sans-serif" font-size="8.4" lengthAdjust="spacing" textLength="56.5318" x="553.212" y="571.819">-name: String</text><text fill="#000000" font-family="sans-serif" font-size="8.4" lengthAdjust="spacing" textLength="92.3754" x="553.212" y="581.712">-phoneNumber: String</text><text fill="#000000" font-family="sans-serif" font-size="8.4" lengthAdjust="spacing" textLength="81.8303" x="553.212" y="591.605">-roles: List&lt;String&gt;</text><text fill="#000000" font-family="sans-serif" font-size="8.4" lengthAdjust="spacing" textLength="74.9561" x="553.212" y="601.4979">-enabled: boolean</text><line style="stroke:#181818;stroke-width:0.3;" x1="550.212" x2="648.5874" y1="605.6698" y2="605.6698"/></g><!--class BootstrapUserLoader--><g class="entity" data-qualified-name="application.BootstrapUserLoader" data-source-line="54" id="ent0012"><rect fill="#F1F1F1" height="38.693" rx="1.5" ry="1.5" style="stroke:#181818;stroke-width:0.3;" width="111.3756" x="487.914" y="290.465"/><ellipse cx="500.1519" cy="300.065" fill="#C2C2C2" rx="6.6" ry="6.6" style="stroke:#181818;stroke-width:0.6;"/><path d="M501.9358,303.4508 Q501.5871,303.6301 501.2036,303.7198 Q500.8202,303.8094 500.3968,303.8094 Q498.8927,303.8094 498.1008,302.8183 Q497.3089,301.8272 497.3089,299.9545 Q497.3089,298.0769 498.1008,297.0858 Q498.8927,296.0947 500.3968,296.0947 Q500.8202,296.0947 501.2086,296.1843 Q501.5971,296.274 501.9358,296.4533 L501.9358,298.0868 Q501.5573,297.7382 501.2012,297.5763 Q500.8451,297.4145 500.4665,297.4145 Q499.6597,297.4145 499.2488,298.0545 Q498.8379,298.6945 498.8379,299.9545 Q498.8379,301.2096 499.2488,301.8496 Q499.6597,302.4896 500.4665,302.4896 Q500.8451,302.4896 501.2012,302.3277 Q501.5573,302.1658 501.9358,301.8172 Z " fill="#000000"/><text fill="#000000" font-family="sans-serif" font-size="8.4" lengthAdjust="spacing" textLength="84.9803" x="509.2714" y="303.2396">BootstrapUserLoader</text><line style="stroke:#181818;stroke-width:0.3;" x1="488.514" x2="598.6896" y1="309.665" y2="309.665"/><line style="stroke:#181818;stroke-width:0.3;" x1="488.514" x2="598.6896" y1="314.465" y2="314.465"/><text fill="#000000" font-family="sans-serif" font-size="8.4" lengthAdjust="spacing" textLength="104.1756" x="491.514" y="324.9861">+loadDefaultUsers(): void</text></g><!--class User--><g class="entity" data-qualified-name="domain.User" data-source-line="60" id="ent0014"><rect fill="#F1F1F1" height="147.5156" rx="1.5" ry="1.5" style="stroke:#181818;stroke-width:0.3;" width="161.025" x="938.886" y="497.585"/><ellipse cx="1007.7389" cy="507.185" fill="#C2C2C2" rx="6.6" ry="6.6" style="stroke:#181818;stroke-width:0.6;"/><path d="M1009.5228,510.5708 Q1009.1742,510.7501 1008.7907,510.8398 Q1008.4072,510.9294 1007.9839,510.9294 Q1006.4798,510.9294 1005.6879,509.9383 Q1004.896,508.9472 1004.896,507.0745 Q1004.896,505.1969 1005.6879,504.2058 Q1006.4798,503.2147 1007.9839,503.2147 Q1008.4072,503.2147 1008.7957,503.3043 Q1009.1841,503.394 1009.5228,503.5733 L1009.5228,505.2068 Q1009.1443,504.8582 1008.7882,504.6963 Q1008.4321,504.5345 1008.0536,504.5345 Q1007.2467,504.5345 1006.8359,505.1745 Q1006.425,505.8145 1006.425,507.0745 Q1006.425,508.3296 1006.8359,508.9696 Q1007.2467,509.6096 1008.0536,509.6096 Q1008.4321,509.6096 1008.7882,509.4477 Q1009.1443,509.2858 1009.5228,508.9372 Z " fill="#000000"/><text fill="#000000" font-family="sans-serif" font-size="8.4" lengthAdjust="spacing" textLength="18.2191" x="1020.0389" y="510.3596">User</text><line style="stroke:#181818;stroke-width:0.3;" x1="939.486" x2="1099.311" y1="516.785" y2="516.785"/><text fill="#000000" font-family="sans-serif" font-size="8.4" lengthAdjust="spacing" textLength="54.0832" x="942.486" y="527.3061">-email: Email</text><text fill="#000000" font-family="sans-serif" font-size="8.4" lengthAdjust="spacing" textLength="56.5318" x="942.486" y="537.199">-name: String</text><text fill="#000000" font-family="sans-serif" font-size="8.4" lengthAdjust="spacing" textLength="125.9672" x="942.486" y="547.092">-phoneNumber: PhoneNumber</text><text fill="#000000" font-family="sans-serif" font-size="8.4" lengthAdjust="spacing" textLength="74.9561" x="942.486" y="556.985">-enabled: boolean</text><text fill="#000000" font-family="sans-serif" font-size="8.4" lengthAdjust="spacing" textLength="75.4277" x="942.486" y="566.8779">-roles: List&lt;Role&gt;</text><text fill="#000000" font-family="sans-serif" font-size="8.4" lengthAdjust="spacing" textLength="92.158" x="942.486" y="576.7709">-credential: Credential</text><text fill="#000000" font-family="sans-serif" font-size="8.4" lengthAdjust="spacing" textLength="153.825" x="942.486" y="586.6639">-securityClearance: SecurityClearance</text><text fill="#000000" font-family="sans-serif" font-size="8.4" lengthAdjust="spacing" textLength="148.8949" x="942.486" y="596.5568">-skillsAssessment: SkillsAssessment</text><line style="stroke:#181818;stroke-width:0.3;" x1="939.486" x2="1099.311" y1="600.7287" y2="600.7287"/><text fill="#000000" font-family="sans-serif" font-size="8.4" lengthAdjust="spacing" textLength="38.3332" x="942.486" y="611.2498">+User(...)</text><text fill="#000000" font-family="sans-serif" font-size="8.4" lengthAdjust="spacing" textLength="61.6055" x="942.486" y="621.1428">+enable(): void</text><text fill="#000000" font-family="sans-serif" font-size="8.4" lengthAdjust="spacing" textLength="63.7096" x="942.486" y="631.0358">+disable(): void</text><text fill="#000000" font-family="sans-serif" font-size="8.4" lengthAdjust="spacing" textLength="120.3357" x="942.486" y="640.9287">+hasRole(role: Role): boolean</text></g><!--class Email--><g class="entity" data-qualified-name="domain.Email" data-source-line="75" id="ent0015"><rect fill="#F1F1F1" height="48.5859" rx="1.5" ry="1.5" style="stroke:#181818;stroke-width:0.3;" width="91.8357" x="683.082" y="681.701"/><ellipse cx="715.5049" cy="691.301" fill="#C2C2C2" rx="6.6" ry="6.6" style="stroke:#181818;stroke-width:0.6;"/><path d="M717.2887,694.6868 Q716.9401,694.8661 716.5566,694.9558 Q716.1731,695.0454 715.7498,695.0454 Q714.2457,695.0454 713.4538,694.0543 Q712.6619,693.0632 712.6619,691.1905 Q712.6619,689.3129 713.4538,688.3218 Q714.2457,687.3307 715.7498,687.3307 Q716.1731,687.3307 716.5616,687.4203 Q716.9501,687.51 717.2887,687.6893 L717.2887,689.3228 Q716.9102,688.9742 716.5541,688.8123 Q716.198,688.6505 715.8195,688.6505 Q715.0127,688.6505 714.6018,689.2905 Q714.1909,689.9305 714.1909,691.1905 Q714.1909,692.4456 714.6018,693.0856 Q715.0127,693.7256 715.8195,693.7256 Q716.198,693.7256 716.5541,693.5637 Q716.9102,693.4018 717.2887,693.0532 Z " fill="#000000"/><text fill="#000000" font-family="sans-serif" font-size="8.4" lengthAdjust="spacing" textLength="21.89" x="727.8049" y="694.4756">Email</text><line style="stroke:#181818;stroke-width:0.3;" x1="683.682" x2="774.3177" y1="700.901" y2="700.901"/><text fill="#000000" font-family="sans-serif" font-size="8.4" lengthAdjust="spacing" textLength="55.4654" x="686.682" y="711.4221">-value: String</text><line style="stroke:#181818;stroke-width:0.3;" x1="683.682" x2="774.3177" y1="715.5939" y2="715.5939"/><text fill="#000000" font-family="sans-serif" font-size="8.4" lengthAdjust="spacing" textLength="84.6357" x="686.682" y="726.115">+Email(value: String)</text></g><!--class PhoneNumber--><g class="entity" data-qualified-name="domain.PhoneNumber" data-source-line="80" id="ent0016"><rect fill="#F1F1F1" height="48.5859" rx="1.5" ry="1.5" style="stroke:#181818;stroke-width:0.3;" width="127.5193" x="796.038" y="681.701"/><ellipse cx="828.4609" cy="691.301" fill="#C2C2C2" rx="6.6" ry="6.6" style="stroke:#181818;stroke-width:0.6;"/><path d="M830.2447,694.6868 Q829.8961,694.8661 829.5126,694.9558 Q829.1291,695.0454 828.7058,695.0454 Q827.2017,695.0454 826.4098,694.0543 Q825.6179,693.0632 825.6179,691.1905 Q825.6179,689.3129 826.4098,688.3218 Q827.2017,687.3307 828.7058,687.3307 Q829.1291,687.3307 829.5176,687.4203 Q829.9061,687.51 830.2447,687.6893 L830.2447,689.3228 Q829.8662,688.9742 829.5101,688.8123 Q829.154,688.6505 828.7755,688.6505 Q827.9687,688.6505 827.5578,689.2905 Q827.1469,689.9305 827.1469,691.1905 Q827.1469,692.4456 827.5578,693.0856 Q827.9687,693.7256 828.7755,693.7256 Q829.154,693.7256 829.5101,693.5637 Q829.8662,693.4018 830.2447,693.0532 Z " fill="#000000"/><text fill="#000000" font-family="sans-serif" font-size="8.4" lengthAdjust="spacing" textLength="57.5736" x="840.7609" y="694.4756">PhoneNumber</text><line style="stroke:#181818;stroke-width:0.3;" x1="796.638" x2="922.9573" y1="700.901" y2="700.901"/><text fill="#000000" font-family="sans-serif" font-size="8.4" lengthAdjust="spacing" textLength="55.4654" x="799.638" y="711.4221">-value: String</text><line style="stroke:#181818;stroke-width:0.3;" x1="796.638" x2="922.9573" y1="715.5939" y2="715.5939"/><text fill="#000000" font-family="sans-serif" font-size="8.4" lengthAdjust="spacing" textLength="120.3193" x="799.638" y="726.115">+PhoneNumber(value: String)</text></g><!--class Credential--><g class="entity" data-qualified-name="domain.Credential" data-source-line="85" id="ent0017"><rect fill="#F1F1F1" height="48.5859" rx="1.5" ry="1.5" style="stroke:#181818;stroke-width:0.3;" width="149.5365" x="944.634" y="681.701"/><ellipse cx="995.9794" cy="691.301" fill="#C2C2C2" rx="6.6" ry="6.6" style="stroke:#181818;stroke-width:0.6;"/><path d="M997.7633,694.6868 Q997.4147,694.8661 997.0312,694.9558 Q996.6477,695.0454 996.2243,695.0454 Q994.7202,695.0454 993.9283,694.0543 Q993.1364,693.0632 993.1364,691.1905 Q993.1364,689.3129 993.9283,688.3218 Q994.7202,687.3307 996.2243,687.3307 Q996.6477,687.3307 997.0361,687.4203 Q997.4246,687.51 997.7633,687.6893 L997.7633,689.3228 Q997.3848,688.9742 997.0287,688.8123 Q996.6726,688.6505 996.2941,688.6505 Q995.4872,688.6505 995.0763,689.2905 Q994.6654,689.9305 994.6654,691.1905 Q994.6654,692.4456 995.0763,693.0856 Q995.4872,693.7256 996.2941,693.7256 Q996.6726,693.7256 997.0287,693.5637 Q997.3848,693.4018 997.7633,693.0532 Z " fill="#000000"/><text fill="#000000" font-family="sans-serif" font-size="8.4" lengthAdjust="spacing" textLength="41.7457" x="1008.2794" y="694.4756">Credential</text><line style="stroke:#181818;stroke-width:0.3;" x1="945.234" x2="1093.5705" y1="700.901" y2="700.901"/><text fill="#000000" font-family="sans-serif" font-size="8.4" lengthAdjust="spacing" textLength="93.3105" x="948.234" y="711.4221">-passwordHash: String</text><line style="stroke:#181818;stroke-width:0.3;" x1="945.234" x2="1093.5705" y1="715.5939" y2="715.5939"/><text fill="#000000" font-family="sans-serif" font-size="8.4" lengthAdjust="spacing" textLength="142.3365" x="948.234" y="726.115">+Credential(passwordHash: String)</text></g><!--class Role--><g class="entity" data-qualified-name="domain.Role" data-source-line="90" id="ent0018"><rect fill="#F1F1F1" height="48.5859" rx="1.5" ry="1.5" style="stroke:#181818;stroke-width:0.3;" width="138.7781" x="1115.01" y="681.701"/><ellipse cx="1173.0594" cy="691.301" fill="#C2C2C2" rx="6.6" ry="6.6" style="stroke:#181818;stroke-width:0.6;"/><path d="M1174.8433,694.6868 Q1174.4947,694.8661 1174.1112,694.9558 Q1173.7277,695.0454 1173.3043,695.0454 Q1171.8002,695.0454 1171.0083,694.0543 Q1170.2164,693.0632 1170.2164,691.1905 Q1170.2164,689.3129 1171.0083,688.3218 Q1171.8002,687.3307 1173.3043,687.3307 Q1173.7277,687.3307 1174.1162,687.4203 Q1174.5046,687.51 1174.8433,687.6893 L1174.8433,689.3228 Q1174.4648,688.9742 1174.1087,688.8123 Q1173.7526,688.6505 1173.3741,688.6505 Q1172.5672,688.6505 1172.1563,689.2905 Q1171.7454,689.9305 1171.7454,691.1905 Q1171.7454,692.4456 1172.1563,693.0856 Q1172.5672,693.7256 1173.3741,693.7256 Q1173.7526,693.7256 1174.1087,693.5637 Q1174.4648,693.4018 1174.8433,693.0532 Z " fill="#000000"/><text fill="#000000" font-family="sans-serif" font-size="8.4" lengthAdjust="spacing" textLength="17.5793" x="1185.3594" y="694.4756">Role</text><line style="stroke:#181818;stroke-width:0.3;" x1="1115.61" x2="1253.1881" y1="700.901" y2="700.901"/><text fill="#000000" font-family="sans-serif" font-size="8.4" lengthAdjust="spacing" textLength="56.5318" x="1118.61" y="711.4221">-name: String</text><text fill="#000000" font-family="sans-serif" font-size="8.4" lengthAdjust="spacing" textLength="131.5781" x="1118.61" y="721.315">-permissions: List&lt;Permission&gt;</text><line style="stroke:#181818;stroke-width:0.3;" x1="1115.61" x2="1253.1881" y1="725.4869" y2="725.4869"/></g><!--class Permission--><g class="entity" data-qualified-name="domain.Permission" data-source-line="95" id="ent0019"><rect fill="#F1F1F1" height="38.693" rx="1.5" ry="1.5" style="stroke:#181818;stroke-width:0.3;" width="63.7318" x="1152.534" y="766.883"/><ellipse cx="1161.5954" cy="776.483" fill="#C2C2C2" rx="6.6" ry="6.6" style="stroke:#181818;stroke-width:0.6;"/><path d="M1163.3793,779.8688 Q1163.0307,780.0481 1162.6472,780.1378 Q1162.2637,780.2274 1161.8404,780.2274 Q1160.3363,780.2274 1159.5444,779.2363 Q1158.7525,778.2452 1158.7525,776.3725 Q1158.7525,774.4949 1159.5444,773.5038 Q1160.3363,772.5127 1161.8404,772.5127 Q1162.2637,772.5127 1162.6522,772.6023 Q1163.0407,772.692 1163.3793,772.8713 L1163.3793,774.5048 Q1163.0008,774.1562 1162.6447,773.9943 Q1162.2886,773.8325 1161.9101,773.8325 Q1161.1032,773.8325 1160.6924,774.4725 Q1160.2815,775.1125 1160.2815,776.3725 Q1160.2815,777.6276 1160.6924,778.2676 Q1161.1032,778.9076 1161.9101,778.9076 Q1162.2886,778.9076 1162.6447,778.7457 Q1163.0008,778.5838 1163.3793,778.2352 Z " fill="#000000"/><text fill="#000000" font-family="sans-serif" font-size="8.4" lengthAdjust="spacing" textLength="44.3953" x="1170.0091" y="779.6576">Permission</text><line style="stroke:#181818;stroke-width:0.3;" x1="1153.134" x2="1215.6658" y1="786.083" y2="786.083"/><text fill="#000000" font-family="sans-serif" font-size="8.4" lengthAdjust="spacing" textLength="56.5318" x="1156.134" y="796.6041">-name: String</text><line style="stroke:#181818;stroke-width:0.3;" x1="1153.134" x2="1215.6658" y1="800.7759" y2="800.7759"/></g><!--class SecurityClearance--><g class="entity" data-qualified-name="domain.SecurityClearance" data-source-line="99" id="ent0020"><rect fill="#F1F1F1" height="48.5859" rx="1.5" ry="1.5" style="stroke:#181818;stroke-width:0.3;" width="177.46" x="1275.072" y="681.701"/><ellipse cx="1325.2792" cy="691.301" fill="#C2C2C2" rx="6.6" ry="6.6" style="stroke:#181818;stroke-width:0.6;"/><path d="M1327.0631,694.6868 Q1326.7145,694.8661 1326.331,694.9558 Q1325.9475,695.0454 1325.5241,695.0454 Q1324.02,695.0454 1323.2282,694.0543 Q1322.4363,693.0632 1322.4363,691.1905 Q1322.4363,689.3129 1323.2282,688.3218 Q1324.02,687.3307 1325.5241,687.3307 Q1325.9475,687.3307 1326.336,687.4203 Q1326.7244,687.51 1327.0631,687.6893 L1327.0631,689.3228 Q1326.6846,688.9742 1326.3285,688.8123 Q1325.9724,688.6505 1325.5939,688.6505 Q1324.787,688.6505 1324.3762,689.2905 Q1323.9653,689.9305 1323.9653,691.1905 Q1323.9653,692.4456 1324.3762,693.0856 Q1324.787,693.7256 1325.5939,693.7256 Q1325.9724,693.7256 1326.3285,693.5637 Q1326.6846,693.4018 1327.0631,693.0532 Z " fill="#000000"/><text fill="#000000" font-family="sans-serif" font-size="8.4" lengthAdjust="spacing" textLength="71.9455" x="1337.5792" y="694.4756">SecurityClearance</text><line style="stroke:#181818;stroke-width:0.3;" x1="1275.672" x2="1451.932" y1="700.901" y2="700.901"/><text fill="#000000" font-family="sans-serif" font-size="8.4" lengthAdjust="spacing" textLength="110.2541" x="1278.672" y="711.4221">-expirationDate: LocalDate</text><line style="stroke:#181818;stroke-width:0.3;" x1="1275.672" x2="1451.932" y1="715.5939" y2="715.5939"/><text fill="#000000" font-family="sans-serif" font-size="8.4" lengthAdjust="spacing" textLength="170.26" x="1278.672" y="726.115">+isValid(currentDate: LocalDate): boolean</text></g><!--class SkillsAssessment--><g class="entity" data-qualified-name="domain.SkillsAssessment" data-source-line="104" id="ent0021"><rect fill="#F1F1F1" height="48.5859" rx="1.5" ry="1.5" style="stroke:#181818;stroke-width:0.3;" width="177.46" x="1473.672" y="681.701"/><ellipse cx="1525.1117" cy="691.301" fill="#C2C2C2" rx="6.6" ry="6.6" style="stroke:#181818;stroke-width:0.6;"/><path d="M1526.8956,694.6868 Q1526.547,694.8661 1526.1635,694.9558 Q1525.78,695.0454 1525.3567,695.0454 Q1523.8526,695.0454 1523.0607,694.0543 Q1522.2688,693.0632 1522.2688,691.1905 Q1522.2688,689.3129 1523.0607,688.3218 Q1523.8526,687.3307 1525.3567,687.3307 Q1525.78,687.3307 1526.1685,687.4203 Q1526.557,687.51 1526.8956,687.6893 L1526.8956,689.3228 Q1526.5171,688.9742 1526.161,688.8123 Q1525.8049,688.6505 1525.4264,688.6505 Q1524.6196,688.6505 1524.2087,689.2905 Q1523.7978,689.9305 1523.7978,691.1905 Q1523.7978,692.4456 1524.2087,693.0856 Q1524.6196,693.7256 1525.4264,693.7256 Q1525.8049,693.7256 1526.161,693.5637 Q1526.5171,693.4018 1526.8956,693.0532 Z " fill="#000000"/><text fill="#000000" font-family="sans-serif" font-size="8.4" lengthAdjust="spacing" textLength="69.4805" x="1537.4117" y="694.4756">SkillsAssessment</text><line style="stroke:#181818;stroke-width:0.3;" x1="1474.272" x2="1650.532" y1="700.901" y2="700.901"/><text fill="#000000" font-family="sans-serif" font-size="8.4" lengthAdjust="spacing" textLength="131.6602" x="1477.272" y="711.4221">-lastAssessmentDate: LocalDate</text><line style="stroke:#181818;stroke-width:0.3;" x1="1474.272" x2="1650.532" y1="715.5939" y2="715.5939"/><text fill="#000000" font-family="sans-serif" font-size="8.4" lengthAdjust="spacing" textLength="170.26" x="1477.272" y="726.115">+isValid(currentDate: LocalDate): boolean</text></g><!--class UserRepository--><g class="entity" data-qualified-name="repository.UserRepository" data-source-line="111" id="ent0023"><rect fill="#F1F1F1" height="58.4789" rx="1.5" ry="1.5" style="stroke:#181818;stroke-width:0.3;" width="187.4021" x="1684.698" y="542.099"/><ellipse cx="1745.1017" cy="551.699" fill="#B1B1B1" rx="6.6" ry="6.6" style="stroke:#181818;stroke-width:0.6;"/><path d="M1742.6584,549.1581 L1742.6584,547.8631 L1747.086,547.8631 L1747.086,549.1581 L1745.6068,549.1581 L1745.6068,554.004 L1747.086,554.004 L1747.086,555.299 L1742.6584,555.299 L1742.6584,554.004 L1744.1376,554.004 L1744.1376,549.1581 Z " fill="#000000"/><text fill="#000000" font-family="sans-serif" font-size="8.4" font-style="italic" lengthAdjust="spacing" textLength="61.4947" x="1757.4017" y="554.8736">UserRepository</text><line style="stroke:#181818;stroke-width:0.3;" x1="1685.298" x2="1871.5001" y1="561.299" y2="561.299"/><line style="stroke:#181818;stroke-width:0.3;" x1="1685.298" x2="1871.5001" y1="566.099" y2="566.099"/><text fill="#000000" font-family="sans-serif" font-size="8.4" lengthAdjust="spacing" textLength="154.3213" x="1688.298" y="576.6201">+existsByEmail(email: Email): boolean</text><text fill="#000000" font-family="sans-serif" font-size="8.4" lengthAdjust="spacing" textLength="93.774" x="1688.298" y="586.513">+save(user: User): void</text><text fill="#000000" font-family="sans-serif" font-size="8.4" lengthAdjust="spacing" textLength="180.2021" x="1688.298" y="596.406">+findByEmail(email: Email): Optional&lt;User&gt;</text></g><!--class RoleRepository--><g class="entity" data-qualified-name="repository.RoleRepository" data-source-line="117" id="ent0024"><rect fill="#F1F1F1" height="38.693" rx="1.5" ry="1.5" style="stroke:#181818;stroke-width:0.3;" width="190.6875" x="1893.054" y="551.993"/><ellipse cx="1955.4203" cy="561.593" fill="#B1B1B1" rx="6.6" ry="6.6" style="stroke:#181818;stroke-width:0.6;"/><path d="M1952.9769,559.0521 L1952.9769,557.7571 L1957.4046,557.7571 L1957.4046,559.0521 L1955.9254,559.0521 L1955.9254,563.898 L1957.4046,563.898 L1957.4046,565.193 L1952.9769,565.193 L1952.9769,563.898 L1954.4561,563.898 L1954.4561,559.0521 Z " fill="#000000"/><text fill="#000000" font-family="sans-serif" font-size="8.4" font-style="italic" lengthAdjust="spacing" textLength="60.8549" x="1967.7203" y="564.7676">RoleRepository</text><line style="stroke:#181818;stroke-width:0.3;" x1="1893.654" x2="2083.1415" y1="571.193" y2="571.193"/><line style="stroke:#181818;stroke-width:0.3;" x1="1893.654" x2="2083.1415" y1="575.993" y2="575.993"/><text fill="#000000" font-family="sans-serif" font-size="8.4" lengthAdjust="spacing" textLength="183.4875" x="1896.654" y="586.5141">+findByName(name: String): Optional&lt;Role&gt;</text></g><!--link RegisterUserUI to RegisterUserController--><g class="link" data-entity-1="ent0003" data-entity-2="ent0006" data-link-type="dependency" data-source-line="122" id="lnk25"><path codeLine="122" d="M129,191.441 C129,225.701 129,263.135 129,286.613" fill="none" id="RegisterUserUI-to-RegisterUserController" style="stroke:#181818;stroke-width:0.6;"/><polygon fill="#181818" points="129,290.213,131.4,284.813,129,287.213,126.6,284.813,129,290.213" style="stroke:#181818;stroke-width:0.6;"/><polygon fill="#000000" points="132,233.1261,133.7634,227.6991,130.2366,227.6991,132,233.1261" style="stroke:#000000;stroke-width:0.6;"/><text fill="#000000" font-family="sans-serif" font-size="7.8" lengthAdjust="spacing" textLength="17.1387" x="137.4" y="233.074">uses</text></g><!--link RegisterUserController to RegisterUserService--><g class="link" data-entity-1="ent0006" data-entity-2="ent0008" data-link-type="dependency" data-source-line="123" id="lnk26"><path codeLine="123" d="M187.002,329.423 C211.896,337.355 241.368,346.427 268.2,353.891 C328.842,370.751 394.4086,386.737 446.9386,399.025" fill="none" id="RegisterUserController-to-RegisterUserService" style="stroke:#181818;stroke-width:0.6;"/><polygon fill="#181818" points="450.444,399.845,445.7326,396.2781,447.5229,399.1616,444.6393,400.9519,450.444,399.845" style="stroke:#181818;stroke-width:0.6;"/><polygon fill="#000000" points="375.9659,377.8601,371.1796,374.753,370.2674,378.1597,375.9659,377.8601" style="stroke:#000000;stroke-width:0.6;"/><text fill="#000000" font-family="sans-serif" font-size="7.8" lengthAdjust="spacing" textLength="17.1387" x="378.468" y="380.032">uses</text></g><!--link RegisterUserService to AuthorizationService--><g class="link" data-entity-1="ent0008" data-entity-2="ent0009" data-link-type="dependency" data-source-line="124" id="lnk27"><path codeLine="124" d="M491.808,438.989 C483.318,443.999 474.894,449.951 468,456.785 C439.872,484.661 421.3832,523.9442 411.5672,548.3942" fill="none" id="RegisterUserService-to-AuthorizationService" style="stroke:#181818;stroke-width:0.6;"/><polygon fill="#181818" points="410.226,551.735,414.4651,547.6179,411.3437,548.951,410.0107,545.8296,410.226,551.735" style="stroke:#181818;stroke-width:0.6;"/><polygon fill="#000000" points="469.2258,464.3972,473.8573,461.0639,471.0135,458.9782,469.2258,464.3972" style="stroke:#000000;stroke-width:0.6;"/><text fill="#000000" font-family="sans-serif" font-size="7.8" lengthAdjust="spacing" textLength="70.002" x="476.4" y="464.926">checks permission</text></g><!--link RegisterUserService to UserRepository--><g class="link" data-entity-1="ent0008" data-entity-2="ent0023" data-link-type="dependency" data-source-line="125" id="lnk28"><path codeLine="125" d="M649.368,424.361 C931.95,435.077 1637.484,462.665 1660.8,471.785 C1698.324,486.455 1730.063,515.5992 1751.777,539.2092" fill="none" id="RegisterUserService-to-UserRepository" style="stroke:#181818;stroke-width:0.6;"/><polygon fill="#181818" points="1754.214,541.859,1752.3251,536.2597,1752.1832,539.6508,1748.792,539.509,1754.214,541.859" style="stroke:#181818;stroke-width:0.6;"/><polygon fill="#000000" points="1613.8639,462.289,1608.6487,459.9728,1608.2833,463.4805,1613.8639,462.289" style="stroke:#000000;stroke-width:0.6;"/><text fill="#000000" font-family="sans-serif" font-size="7.8" lengthAdjust="spacing" textLength="50.4448" x="1616.28" y="464.926">checks/saves</text></g><!--link RegisterUserService to RoleRepository--><g class="link" data-entity-1="ent0008" data-entity-2="ent0024" data-link-type="dependency" data-source-line="126" id="lnk29"><path codeLine="126" d="M649.584,422.285 C855.312,426.617 1298.538,437.453 1672.2,456.785 C1765.914,461.633 1796.814,434.207 1882.8,471.785 C1922.628,489.191 1954.6629,525.405 1972.6689,548.913" fill="none" id="RegisterUserService-to-RoleRepository" style="stroke:#181818;stroke-width:0.6;"/><polygon fill="#181818" points="1974.858,551.771,1973.4797,546.0246,1973.0338,549.3893,1969.6691,548.9434,1974.858,551.771" style="stroke:#181818;stroke-width:0.6;"/><polygon fill="#000000" points="1873.8764,462.2639,1868.642,459.9916,1868.306,463.5022,1873.8764,462.2639" style="stroke:#000000;stroke-width:0.6;"/><text fill="#000000" font-family="sans-serif" font-size="7.8" lengthAdjust="spacing" textLength="53.6326" x="1876.29" y="464.926">retrieves roles</text></g><!--link RegisterUserService to User--><g class="link" data-entity-1="ent0008" data-entity-2="ent0014" data-link-type="dependency" data-source-line="127" id="lnk30"><path codeLine="127" d="M595.23,439.049 C682.332,466.091 838.6979,514.6375 935.3459,544.6435" fill="none" id="RegisterUserService-to-User" style="stroke:#181818;stroke-width:0.6;"/><polygon fill="#181818" points="938.784,545.711,934.3384,541.8178,935.9189,544.8215,932.9152,546.4019,938.784,545.711" style="stroke:#181818;stroke-width:0.6;"/><polygon fill="#000000" points="683.2951,462.8676,678.6349,459.5744,677.5892,462.9426,683.2951,462.8676" style="stroke:#000000;stroke-width:0.6;"/><text fill="#000000" font-family="sans-serif" font-size="7.8" lengthAdjust="spacing" textLength="27.0791" x="685.83" y="464.926">creates</text></g><!--link RegisterUserService to UserDTO--><g class="link" data-entity-1="ent0008" data-entity-2="ent0011" data-link-type="dependency" data-source-line="128" id="lnk31"><path codeLine="128" d="M542.214,438.971 C552.3,462.215 568.2246,498.9086 581.1786,528.7526" fill="none" id="RegisterUserService-to-UserDTO" style="stroke:#181818;stroke-width:0.6;"/><polygon fill="#181818" points="582.612,532.055,582.6635,526.1459,581.4175,529.303,578.2604,528.0571,582.612,532.055" style="stroke:#181818;stroke-width:0.6;"/><polygon fill="#000000" points="557.5204,464.7301,556.9773,459.0497,553.7422,460.4537,557.5204,464.7301" style="stroke:#000000;stroke-width:0.6;"/><text fill="#000000" font-family="sans-serif" font-size="7.8" lengthAdjust="spacing" textLength="27.3038" x="561.726" y="464.926">returns</text></g><!--link BootstrapUserLoader to RegisterUserService--><g class="link" data-entity-1="ent0012" data-entity-2="ent0008" data-link-type="dependency" data-source-line="129" id="lnk32"><path codeLine="129" d="M541.926,329.297 C540.174,349.079 537.7618,376.381 536.0038,396.217" fill="none" id="BootstrapUserLoader-to-RegisterUserService" style="stroke:#181818;stroke-width:0.6;"/><polygon fill="#181818" points="535.686,399.803,538.5533,394.6359,535.9508,396.8147,533.7721,394.2122,535.686,399.803" style="stroke:#181818;stroke-width:0.6;"/><polygon fill="#000000" points="540.6775,380.0725,542.9124,374.822,539.3995,374.5111,540.6775,380.0725" style="stroke:#000000;stroke-width:0.6;"/><text fill="#000000" font-family="sans-serif" font-size="7.8" lengthAdjust="spacing" textLength="17.1387" x="546.342" y="380.032">uses</text></g><!--reverse link User to Email--><g class="link" data-entity-1="ent0014" data-entity-2="ent0015" data-link-type="composition" data-source-line="131" id="lnk33"><path codeLine="131" d="M932.1578,612.0297 C879.4538,636.2517 819.066,664.001 775.182,684.167" fill="none" id="User-backto-Email" style="stroke:#181818;stroke-width:0.6;"/><polygon fill="#181818" points="938.7,609.023,934.4267,608.3456,932.1578,612.0297,936.4311,612.707,938.7,609.023" style="stroke:#181818;stroke-width:0.6;"/></g><!--reverse link User to PhoneNumber--><g class="link" data-entity-1="ent0014" data-entity-2="ent0016" data-link-type="composition" data-source-line="132" id="lnk34"><path codeLine="132" d="M933.1404,644.0673 C915.1284,659.1273 902.7,669.521 888.486,681.407" fill="none" id="User-backto-PhoneNumber" style="stroke:#181818;stroke-width:0.6;"/><polygon fill="#181818" points="938.664,639.449,934.3627,639.9169,933.1404,644.0673,937.4416,643.5994,938.664,639.449" style="stroke:#181818;stroke-width:0.6;"/></g><!--reverse link User to Credential--><g class="link" data-entity-1="ent0014" data-entity-2="ent0017" data-link-type="composition" data-source-line="133" id="lnk35"><path codeLine="133" d="M1019.4,652.505 C1019.4,665.585 1019.4,671.123 1019.4,681.479" fill="none" id="User-backto-Credential" style="stroke:#181818;stroke-width:0.6;"/><polygon fill="#181818" points="1019.4,645.305,1017,648.905,1019.4,652.505,1021.8,648.905,1019.4,645.305" style="stroke:#181818;stroke-width:0.6;"/></g><!--reverse link User to SecurityClearance--><g class="link" data-entity-1="ent0014" data-entity-2="ent0020" data-link-type="composition" data-source-line="134" id="lnk36"><path codeLine="134" d="M1106.8616,605.8285 C1168.5956,629.7505 1245.702,659.627 1302.12,681.491" fill="none" id="User-backto-SecurityClearance" style="stroke:#181818;stroke-width:0.6;"/><polygon fill="#181818" points="1100.148,603.227,1102.6376,606.7656,1106.8616,605.8285,1104.372,602.2899,1100.148,603.227" style="stroke:#181818;stroke-width:0.6;"/></g><!--reverse link User to SkillsAssessment--><g class="link" data-entity-1="ent0014" data-entity-2="ent0021" data-link-type="composition" data-source-line="135" id="lnk37"><path codeLine="135" d="M1107.0979,593.4916 C1207.1059,618.0736 1369.95,658.091 1473.57,683.561" fill="none" id="User-backto-SkillsAssessment" style="stroke:#181818;stroke-width:0.6;"/><polygon fill="#181818" points="1100.106,591.773,1103.0291,594.9629,1107.0979,593.4916,1104.1748,590.3016,1100.106,591.773" style="stroke:#181818;stroke-width:0.6;"/></g><!--reverse link User to Role--><g class="link" data-entity-1="ent0014" data-entity-2="ent0018" data-link-type="aggregation" data-source-line="136" id="lnk38"><path codeLine="136" d="M1105.8062,641.8227 C1125.3242,657.6087 1139.364,668.969 1154.76,681.419" fill="none" id="User-backto-Role" style="stroke:#181818;stroke-width:0.6;"/><polygon fill="none" points="1100.208,637.295,1101.4978,641.4249,1105.8062,641.8227,1104.5163,637.6928,1100.208,637.295" style="stroke:#181818;stroke-width:0.6;"/><text fill="#000000" font-family="sans-serif" font-size="7.8" lengthAdjust="spacing" textLength="4.9321" x="1104.7621" y="639.2017">1</text><text fill="#000000" font-family="sans-serif" font-size="7.8" lengthAdjust="spacing" textLength="13.6271" x="1135.8184" y="675.341">1..*</text></g><!--reverse link Role to Permission--><g class="link" data-entity-1="ent0018" data-entity-2="ent0019" data-link-type="aggregation" data-source-line="137" id="lnk39"><path codeLine="137" d="M1184.4,737.717 C1184.4,749.351 1184.4,755.927 1184.4,766.799" fill="none" id="Role-backto-Permission" style="stroke:#181818;stroke-width:0.6;"/><polygon fill="none" points="1184.4,730.517,1182,734.117,1184.4,737.717,1186.8,734.117,1184.4,730.517" style="stroke:#181818;stroke-width:0.6;"/><text fill="#000000" font-family="sans-serif" font-size="7.8" lengthAdjust="spacing" textLength="4.9321" x="1179.2282" y="742.6984">1</text><text fill="#000000" font-family="sans-serif" font-size="7.8" lengthAdjust="spacing" textLength="3.7591" x="1180.4452" y="760.4235">*</text></g><?plantuml-src nLRTJzim47_FNs5rB-bOEz3U8bG9MgGXCK1qxDrDhgrLnyvifr0c_lUTapPnlXgGXXQfJNBVzxlpNGmp7CZZ_FJRsMWwypozOIAXYiOabaA6QoLZ84Qbu70I6cxe2kPcXweAGaF5Yhi2UaqZ-SJ4YYmfroudv5Jh2sCKMwG6haCfvkm5oAddxOsIGSh6IDQImu1yccKN-UCHl39byW0hfWseHus_wptBNYC2CMKy87CqBrOENT0OMiZ9MWguJUC5g1Qk1ewfGVI0aUY0tA3JyrneKf4AKyNCRie14nGXN3qdJ573f9XHWrvlP4YvVNIKC0yptp3EzONMe7KCmdH9do32lrFGLe3wGuSUCPrmklk11X0uFyxlXqnQ9A-KagfTxjLxTKg0-1ibEGVLNu9f8UkKmWPTYlZx38AAuaDE70R4lir-thK4GfE4ip13ip-IEQWj2-4VXU4ukKZDMYhsaiNHveNfWmX4VgfjErbZNqW2AcPQerf0xejdzBMGs5LKD7srXFPnBOvrWrjK_4_jNKbyZ_x79jkTA0Ywu10TgSobb4ORHHCRwOsaKQtZEP9ciAGfDrP2-rZchMHHIrj74XFhw6YhsmR2bRsz4uFxygKlrIP6Tkwv28KA8YmaenZCj7W-rYiONftaYjSw1ALh50VSxFoEnsDtgkLvL60knbq7PqsrJSktUU8OmFzZPp63l5ABBULf4_MJNDAlS8TDUquvtcJLaU-rNLQaOZf1tfDKqNUgroqUIYs_JRB5ZyMiug6h3ujfT-YdSlvDMg0fcCUDLvGQtLKzDxsJoWxkNvIpo4SxgZcaZlL6lLShhkq0VCjcVwTxTuGeIAHcHgfTVOmmWUjZIH6DV8SSv2h32fwn9FfobpUkEsA6pRbmGZJTWhFOcWThoKJKOUqkiJMW_DngLafVHcgxgYFItBBTKhxR3QxXSb9b6DK-44UZITS7Iq0m9qqcNWU_hdhO_Qrw1wPLQlrY24YuXd2ZdRDnn4IjU0VbhxOKnrpNe0pm4mW10wkKJVSUbzQH0ko-Fa6xgpFZgH9MjcqzzkBdPIu_ZqRxzLQykfkh83fRfw0rDqp9gg-JZ3Cu6n29tC7PUFnvaC7bPKEjO22r74VUNm00?></g></svg>