<?plantuml 1.2026.2?><svg xmlns="http://www.w3.org/2000/svg" xmlns:xlink="http://www.w3.org/1999/xlink" contentStyleType="text/css" data-diagram-type="CLASS" height="1364px" preserveAspectRatio="none" style="width:3495px;height:1364px;background:#FFFFFF;" version="1.1" viewBox="0 0 3495 1364" width="3495px" zoomAndPan="magnify"><title>US031-CD</title><defs/><g><g class="title" data-source-line="1"><text fill="#000000" font-family="sans-serif" font-size="14" font-weight="bold" lengthAdjust="spacing" textLength="76.0293" x="1702.4854" y="23.5352">US031-CD</text></g><!--cluster ui--><g class="cluster" data-qualified-name="ui" data-source-line="9" id="ent0004"><rect fill="none" height="314.4" rx="2.5" ry="2.5" style="stroke:#000000;stroke-width:1.5;" width="396" x="17" y="44.4883"/><text fill="#000000" font-family="sans-serif" font-size="14" font-weight="bold" lengthAdjust="spacing" textLength="13.7471" x="208.1265" y="60.0234">ui</text></g><!--cluster console--><g class="cluster" data-qualified-name="ui.console" data-source-line="8" id="ent0002"><rect fill="#DDDDDD" height="247.4" rx="2.5" ry="2.5" style="stroke:#000000;stroke-width:1.5;" width="348" x="41" y="87.4883"/><text fill="#000000" font-family="sans-serif" font-size="14" font-weight="bold" lengthAdjust="spacing" textLength="55.2002" x="187.3999" y="103.0234">console</text></g><!--cluster controller--><g class="cluster" data-qualified-name="controller" data-source-line="22" id="ent0005"><rect fill="#DDDDDD" height="115.49" rx="2.5" ry="2.5" style="stroke:#000000;stroke-width:1.5;" width="416" x="7" y="449.1083"/><text fill="#000000" font-family="sans-serif" font-size="14" font-weight="bold" lengthAdjust="spacing" textLength="70.2393" x="179.8804" y="464.6434">controller</text></g><!--cluster application--><g class="cluster" data-qualified-name="application" data-source-line="28" id="ent0007"><rect fill="#DDDDDD" height="625.57" rx="2.5" ry="2.5" style="stroke:#000000;stroke-width:1.5;" width="651" x="447" y="407.8883"/><text fill="#000000" font-family="sans-serif" font-size="14" font-weight="bold" lengthAdjust="spacing" textLength="79.9326" x="732.5337" y="423.4234">application</text></g><!--cluster domain--><g class="cluster" data-qualified-name="domain" data-source-line="59" id="ent0013"><rect fill="#DDDDDD" height="564.32" rx="2.5" ry="2.5" style="stroke:#000000;stroke-width:1.5;" width="1646" x="1122" y="794.3083"/><text fill="#000000" font-family="sans-serif" font-size="14" font-weight="bold" lengthAdjust="spacing" textLength="53.7715" x="1918.1143" y="809.8434">domain</text></g><!--cluster repository--><g class="cluster" data-qualified-name="repository" data-source-line="110" id="ent0022"><rect fill="#DDDDDD" height="148.47" rx="2.5" ry="2.5" style="stroke:#000000;stroke-width:1.5;" width="697" x="2792" y="868.4983"/><text fill="#000000" font-family="sans-serif" font-size="14" font-weight="bold" lengthAdjust="spacing" textLength="74.3955" x="3103.3022" y="884.0334">repository</text></g><!--class RegisterUserUI--><g class="entity" data-qualified-name="ui.console.RegisterUserUI" data-source-line="9" id="ent0003"><rect fill="#F1F1F1" height="196.3945" rx="2.5" ry="2.5" style="stroke:#181818;stroke-width:0.5;" width="315.0508" x="57.47" y="122.4883"/><ellipse cx="161.031" cy="138.4883" fill="#C2C2C2" rx="11" ry="11" style="stroke:#181818;stroke-width:1;"/><path d="M164.0042,144.1313 Q163.4231,144.4302 162.784,144.5796 Q162.1448,144.729 161.4392,144.729 Q158.9324,144.729 157.6126,143.0771 Q156.2928,141.4253 156.2928,138.3042 Q156.2928,135.1748 157.6126,133.5229 Q158.9324,131.8711 161.4392,131.8711 Q162.1448,131.8711 162.7923,132.0205 Q163.4397,132.1699 164.0042,132.4688 L164.0042,135.1914 Q163.3733,134.6104 162.7798,134.3406 Q162.1863,134.0708 161.5554,134.0708 Q160.2107,134.0708 159.5259,135.1375 Q158.8411,136.2041 158.8411,138.3042 Q158.8411,140.396 159.5259,141.4626 Q160.2107,142.5293 161.5554,142.5293 Q162.1863,142.5293 162.7798,142.2595 Q163.3733,141.9897 164.0042,141.4087 Z " fill="#000000"/><text fill="#000000" font-family="sans-serif" font-size="14" lengthAdjust="spacing" textLength="99.4287" x="181.531" y="143.7793">RegisterUserUI</text><line style="stroke:#181818;stroke-width:0.5;" x1="58.47" x2="371.5208" y1="154.4883" y2="154.4883"/><text fill="#000000" font-family="sans-serif" font-size="14" lengthAdjust="spacing" textLength="93.625" x="63.47" y="172.0234">-email: String</text><text fill="#000000" font-family="sans-serif" font-size="14" lengthAdjust="spacing" textLength="94.2197" x="63.47" y="188.5117">-name: String</text><text fill="#000000" font-family="sans-serif" font-size="14" lengthAdjust="spacing" textLength="153.959" x="63.47" y="205">-phoneNumber: String</text><text fill="#000000" font-family="sans-serif" font-size="14" lengthAdjust="spacing" textLength="195.3096" x="63.47" y="221.4883">-selectedRoles: List&lt;String&gt;</text><text fill="#000000" font-family="sans-serif" font-size="14" lengthAdjust="spacing" textLength="303.0508" x="63.47" y="237.9766">-securityClearanceExpirationDate: LocalDate</text><text fill="#000000" font-family="sans-serif" font-size="14" lengthAdjust="spacing" textLength="254.4336" x="63.47" y="254.4648">-lastSkillsAssessmentDate: LocalDate</text><line style="stroke:#181818;stroke-width:0.5;" x1="58.47" x2="371.5208" y1="261.418" y2="261.418"/><text fill="#000000" font-family="sans-serif" font-size="14" lengthAdjust="spacing" textLength="102.6211" x="63.47" y="278.9531">+requestData()</text><text fill="#000000" font-family="sans-serif" font-size="14" lengthAdjust="spacing" textLength="234.7598" x="63.47" y="295.4414">+displayMessage(message: String)</text><text fill="#000000" font-family="sans-serif" font-size="14" lengthAdjust="spacing" textLength="209.7402" x="63.47" y="311.9297">+displayError(message: String)</text></g><!--class RegisterUserController--><g class="entity" data-qualified-name="controller.RegisterUserController" data-source-line="23" id="ent0006"><rect fill="#F1F1F1" height="64.4883" rx="2.5" ry="2.5" style="stroke:#181818;stroke-width:0.5;" width="384.3262" x="22.84" y="484.1083"/><ellipse cx="133.8249" cy="500.1083" fill="#C2C2C2" rx="11" ry="11" style="stroke:#181818;stroke-width:1;"/><path d="M136.798,505.7513 Q136.217,506.0502 135.5778,506.1996 Q134.9386,506.349 134.2331,506.349 Q131.7262,506.349 130.4064,504.6971 Q129.0866,503.0453 129.0866,499.9242 Q129.0866,496.7948 130.4064,495.1429 Q131.7262,493.4911 134.2331,493.4911 Q134.9386,493.4911 135.5861,493.6405 Q136.2336,493.7899 136.798,494.0888 L136.798,496.8114 Q136.1671,496.2304 135.5736,495.9606 Q134.9801,495.6908 134.3493,495.6908 Q133.0046,495.6908 132.3197,496.7575 Q131.6349,497.8241 131.6349,499.9242 Q131.6349,502.016 132.3197,503.0826 Q133.0046,504.1493 134.3493,504.1493 Q134.9801,504.1493 135.5736,503.8795 Q136.1671,503.6097 136.798,503.0287 Z " fill="#000000"/><text fill="#000000" font-family="sans-serif" font-size="14" lengthAdjust="spacing" textLength="153.8564" x="154.3249" y="505.3993">RegisterUserController</text><line style="stroke:#181818;stroke-width:0.5;" x1="23.84" x2="406.1662" y1="516.1083" y2="516.1083"/><line style="stroke:#181818;stroke-width:0.5;" x1="23.84" x2="406.1662" y1="524.1083" y2="524.1083"/><text fill="#000000" font-family="sans-serif" font-size="14" lengthAdjust="spacing" textLength="372.3262" x="28.84" y="541.6434">+registerUser(request: RegisterUserRequest): UserDTO</text></g><!--class RegisterUserService--><g class="entity" data-qualified-name="application.RegisterUserService" data-source-line="29" id="ent0008"><rect fill="#F1F1F1" height="64.4883" rx="2.5" ry="2.5" style="stroke:#181818;stroke-width:0.5;" width="384.3262" x="697.84" y="666.8183"/><ellipse cx="819.2394" cy="682.8183" fill="#C2C2C2" rx="11" ry="11" style="stroke:#181818;stroke-width:1;"/><path d="M822.2126,688.4613 Q821.6315,688.7602 820.9923,688.9096 Q820.3532,689.059 819.6476,689.059 Q817.1408,689.059 815.821,687.4071 Q814.5011,685.7553 814.5011,682.6342 Q814.5011,679.5048 815.821,677.8529 Q817.1408,676.2011 819.6476,676.2011 Q820.3532,676.2011 821.0006,676.3505 Q821.6481,676.4999 822.2126,676.7988 L822.2126,679.5214 Q821.5817,678.9404 820.9882,678.6706 Q820.3947,678.4008 819.7638,678.4008 Q818.4191,678.4008 817.7343,679.4675 Q817.0495,680.5341 817.0495,682.6342 Q817.0495,684.726 817.7343,685.7926 Q818.4191,686.8593 819.7638,686.8593 Q820.3947,686.8593 820.9882,686.5895 Q821.5817,686.3197 822.2126,685.7387 Z " fill="#000000"/><text fill="#000000" font-family="sans-serif" font-size="14" lengthAdjust="spacing" textLength="133.0273" x="839.7394" y="688.1093">RegisterUserService</text><line style="stroke:#181818;stroke-width:0.5;" x1="698.84" x2="1081.1662" y1="698.8183" y2="698.8183"/><line style="stroke:#181818;stroke-width:0.5;" x1="698.84" x2="1081.1662" y1="706.8183" y2="706.8183"/><text fill="#000000" font-family="sans-serif" font-size="14" lengthAdjust="spacing" textLength="372.3262" x="703.84" y="724.3534">+registerUser(request: RegisterUserRequest): UserDTO</text></g><!--class AuthorizationService--><g class="entity" data-qualified-name="application.AuthorizationService" data-source-line="33" id="ent0009"><rect fill="#F1F1F1" height="64.4883" rx="2.5" ry="2.5" style="stroke:#181818;stroke-width:0.5;" width="417.1934" x="463.4" y="919.9883"/><ellipse cx="597.5929" cy="935.9883" fill="#C2C2C2" rx="11" ry="11" style="stroke:#181818;stroke-width:1;"/><path d="M600.566,941.6313 Q599.985,941.9302 599.3458,942.0796 Q598.7066,942.229 598.0011,942.229 Q595.4942,942.229 594.1744,940.5771 Q592.8546,938.9253 592.8546,935.8042 Q592.8546,932.6748 594.1744,931.0229 Q595.4942,929.3711 598.0011,929.3711 Q598.7066,929.3711 599.3541,929.5205 Q600.0016,929.6699 600.566,929.9688 L600.566,932.6914 Q599.9352,932.1104 599.3417,931.8406 Q598.7481,931.5708 598.1173,931.5708 Q596.7726,931.5708 596.0877,932.6375 Q595.4029,933.7041 595.4029,935.8042 Q595.4029,937.896 596.0877,938.9626 Q596.7726,940.0293 598.1173,940.0293 Q598.7481,940.0293 599.3417,939.7595 Q599.9352,939.4897 600.566,938.9087 Z " fill="#000000"/><text fill="#000000" font-family="sans-serif" font-size="14" lengthAdjust="spacing" textLength="140.3076" x="618.0929" y="941.2793">AuthorizationService</text><line style="stroke:#181818;stroke-width:0.5;" x1="464.4" x2="879.5934" y1="951.9883" y2="951.9883"/><line style="stroke:#181818;stroke-width:0.5;" x1="464.4" x2="879.5934" y1="959.9883" y2="959.9883"/><text fill="#000000" font-family="sans-serif" font-size="14" lengthAdjust="spacing" textLength="405.1934" x="469.4" y="977.5234">+isAuthorized(user: User, permission: Permission): boolean</text></g><!--class RegisterUserRequest--><g class="entity" data-qualified-name="application.RegisterUserRequest" data-source-line="37" id="ent0010"><rect fill="#F1F1F1" height="146.9297" rx="2.5" ry="2.5" style="stroke:#181818;stroke-width:0.5;" width="315.0508" x="463.47" y="442.8883"/><ellipse cx="546.7351" cy="458.8883" fill="#C2C2C2" rx="11" ry="11" style="stroke:#181818;stroke-width:1;"/><path d="M549.7083,464.5313 Q549.1272,464.8302 548.4881,464.9796 Q547.8489,465.129 547.1433,465.129 Q544.6365,465.129 543.3167,463.4771 Q541.9969,461.8253 541.9969,458.7042 Q541.9969,455.5748 543.3167,453.9229 Q544.6365,452.2711 547.1433,452.2711 Q547.8489,452.2711 548.4964,452.4205 Q549.1438,452.5699 549.7083,452.8688 L549.7083,455.5914 Q549.0774,455.0104 548.4839,454.7406 Q547.8904,454.4708 547.2596,454.4708 Q545.9148,454.4708 545.23,455.5375 Q544.5452,456.6041 544.5452,458.7042 Q544.5452,460.796 545.23,461.8626 Q545.9148,462.9293 547.2596,462.9293 Q547.8904,462.9293 548.4839,462.6595 Q549.0774,462.3897 549.7083,461.8087 Z " fill="#000000"/><text fill="#000000" font-family="sans-serif" font-size="14" lengthAdjust="spacing" textLength="140.0205" x="567.2351" y="464.1793">RegisterUserRequest</text><line style="stroke:#181818;stroke-width:0.5;" x1="464.47" x2="777.5208" y1="474.8883" y2="474.8883"/><text fill="#000000" font-family="sans-serif" font-size="14" lengthAdjust="spacing" textLength="93.625" x="469.47" y="492.4234">-email: String</text><text fill="#000000" font-family="sans-serif" font-size="14" lengthAdjust="spacing" textLength="94.2197" x="469.47" y="508.9117">-name: String</text><text fill="#000000" font-family="sans-serif" font-size="14" lengthAdjust="spacing" textLength="153.959" x="469.47" y="525.4">-phoneNumber: String</text><text fill="#000000" font-family="sans-serif" font-size="14" lengthAdjust="spacing" textLength="175.3281" x="469.47" y="541.8883">-roleNames: List&lt;String&gt;</text><text fill="#000000" font-family="sans-serif" font-size="14" lengthAdjust="spacing" textLength="303.0508" x="469.47" y="558.3766">-securityClearanceExpirationDate: LocalDate</text><text fill="#000000" font-family="sans-serif" font-size="14" lengthAdjust="spacing" textLength="254.4336" x="469.47" y="574.8648">-lastSkillsAssessmentDate: LocalDate</text><line style="stroke:#181818;stroke-width:0.5;" x1="464.47" x2="777.5208" y1="581.818" y2="581.818"/></g><!--class UserDTO--><g class="entity" data-qualified-name="application.UserDTO" data-source-line="46" id="ent0011"><rect fill="#F1F1F1" height="130.4414" rx="2.5" ry="2.5" style="stroke:#181818;stroke-width:0.5;" width="165.959" x="916.02" y="887.0083"/><ellipse cx="964.4595" cy="903.0083" fill="#C2C2C2" rx="11" ry="11" style="stroke:#181818;stroke-width:1;"/><path d="M967.4326,908.6513 Q966.8515,908.9502 966.2124,909.0996 Q965.5732,909.249 964.8677,909.249 Q962.3608,909.249 961.041,907.5971 Q959.7212,905.9453 959.7212,902.8242 Q959.7212,899.6948 961.041,898.0429 Q962.3608,896.3911 964.8677,896.3911 Q965.5732,896.3911 966.2207,896.5405 Q966.8681,896.6899 967.4326,896.9888 L967.4326,899.7114 Q966.8017,899.1304 966.2082,898.8606 Q965.6147,898.5908 964.9839,898.5908 Q963.6391,898.5908 962.9543,899.6575 Q962.2695,900.7241 962.2695,902.8242 Q962.2695,904.916 962.9543,905.9826 Q963.6391,907.0493 964.9839,907.0493 Q965.6147,907.0493 966.2082,906.7795 Q966.8017,906.5097 967.4326,905.9287 Z " fill="#000000"/><text fill="#000000" font-family="sans-serif" font-size="14" lengthAdjust="spacing" textLength="60.5801" x="984.9595" y="908.2993">UserDTO</text><line style="stroke:#181818;stroke-width:0.5;" x1="917.02" x2="1080.979" y1="919.0083" y2="919.0083"/><text fill="#000000" font-family="sans-serif" font-size="14" lengthAdjust="spacing" textLength="93.625" x="922.02" y="936.5434">-email: String</text><text fill="#000000" font-family="sans-serif" font-size="14" lengthAdjust="spacing" textLength="94.2197" x="922.02" y="953.0317">-name: String</text><text fill="#000000" font-family="sans-serif" font-size="14" lengthAdjust="spacing" textLength="153.959" x="922.02" y="969.52">-phoneNumber: String</text><text fill="#000000" font-family="sans-serif" font-size="14" lengthAdjust="spacing" textLength="136.3838" x="922.02" y="986.0083">-roles: List&lt;String&gt;</text><text fill="#000000" font-family="sans-serif" font-size="14" lengthAdjust="spacing" textLength="124.9268" x="922.02" y="1002.4966">-enabled: boolean</text><line style="stroke:#181818;stroke-width:0.5;" x1="917.02" x2="1080.979" y1="1009.4497" y2="1009.4497"/></g><!--class BootstrapUserLoader--><g class="entity" data-qualified-name="application.BootstrapUserLoader" data-source-line="54" id="ent0012"><rect fill="#F1F1F1" height="64.4883" rx="2.5" ry="2.5" style="stroke:#181818;stroke-width:0.5;" width="185.626" x="813.19" y="484.1083"/><ellipse cx="833.5865" cy="500.1083" fill="#C2C2C2" rx="11" ry="11" style="stroke:#181818;stroke-width:1;"/><path d="M836.5596,505.7513 Q835.9786,506.0502 835.3394,506.1996 Q834.7003,506.349 833.9947,506.349 Q831.4879,506.349 830.168,504.6971 Q828.8482,503.0453 828.8482,499.9242 Q828.8482,496.7948 830.168,495.1429 Q831.4879,493.4911 833.9947,493.4911 Q834.7003,493.4911 835.3477,493.6405 Q835.9952,493.7899 836.5596,494.0888 L836.5596,496.8114 Q835.9288,496.2304 835.3353,495.9606 Q834.7418,495.6908 834.1109,495.6908 Q832.7662,495.6908 832.0814,496.7575 Q831.3965,497.8241 831.3965,499.9242 Q831.3965,502.016 832.0814,503.0826 Q832.7662,504.1493 834.1109,504.1493 Q834.7418,504.1493 835.3353,503.8795 Q835.9288,503.6097 836.5596,503.0287 Z " fill="#000000"/><text fill="#000000" font-family="sans-serif" font-size="14" lengthAdjust="spacing" textLength="141.6338" x="848.7857" y="505.3993">BootstrapUserLoader</text><line style="stroke:#181818;stroke-width:0.5;" x1="814.19" x2="997.816" y1="516.1083" y2="516.1083"/><line style="stroke:#181818;stroke-width:0.5;" x1="814.19" x2="997.816" y1="524.1083" y2="524.1083"/><text fill="#000000" font-family="sans-serif" font-size="14" lengthAdjust="spacing" textLength="173.626" x="819.19" y="541.6434">+loadDefaultUsers(): void</text></g><!--class User--><g class="entity" data-qualified-name="domain.User" data-source-line="60" id="ent0014"><rect fill="#F1F1F1" height="245.8594" rx="2.5" ry="2.5" style="stroke:#181818;stroke-width:0.5;" width="268.375" x="1564.81" y="829.3083"/><ellipse cx="1679.5649" cy="845.3083" fill="#C2C2C2" rx="11" ry="11" style="stroke:#181818;stroke-width:1;"/><path d="M1682.538,850.9513 Q1681.957,851.2502 1681.3178,851.3996 Q1680.6787,851.549 1679.9731,851.549 Q1677.4663,851.549 1676.1464,849.8971 Q1674.8266,848.2453 1674.8266,845.1242 Q1674.8266,841.9948 1676.1464,840.3429 Q1677.4663,838.6911 1679.9731,838.6911 Q1680.6787,838.6911 1681.3261,838.8405 Q1681.9736,838.9899 1682.538,839.2888 L1682.538,842.0114 Q1681.9072,841.4304 1681.3137,841.1606 Q1680.7202,840.8908 1680.0893,840.8908 Q1678.7446,840.8908 1678.0598,841.9575 Q1677.3749,843.0241 1677.3749,845.1242 Q1677.3749,847.216 1678.0598,848.2826 Q1678.7446,849.3493 1680.0893,849.3493 Q1680.7202,849.3493 1681.3137,849.0795 Q1681.9072,848.8097 1682.538,848.2287 Z " fill="#000000"/><text fill="#000000" font-family="sans-serif" font-size="14" lengthAdjust="spacing" textLength="30.3652" x="1700.0649" y="850.5993">User</text><line style="stroke:#181818;stroke-width:0.5;" x1="1565.81" x2="1832.185" y1="861.3083" y2="861.3083"/><text fill="#000000" font-family="sans-serif" font-size="14" lengthAdjust="spacing" textLength="90.1387" x="1570.81" y="878.8434">-email: Email</text><text fill="#000000" font-family="sans-serif" font-size="14" lengthAdjust="spacing" textLength="94.2197" x="1570.81" y="895.3317">-name: String</text><text fill="#000000" font-family="sans-serif" font-size="14" lengthAdjust="spacing" textLength="209.9453" x="1570.81" y="911.82">-phoneNumber: PhoneNumber</text><text fill="#000000" font-family="sans-serif" font-size="14" lengthAdjust="spacing" textLength="124.9268" x="1570.81" y="928.3083">-enabled: boolean</text><text fill="#000000" font-family="sans-serif" font-size="14" lengthAdjust="spacing" textLength="125.7129" x="1570.81" y="944.7966">-roles: List&lt;Role&gt;</text><text fill="#000000" font-family="sans-serif" font-size="14" lengthAdjust="spacing" textLength="153.5967" x="1570.81" y="961.2848">-credential: Credential</text><text fill="#000000" font-family="sans-serif" font-size="14" lengthAdjust="spacing" textLength="256.375" x="1570.81" y="977.7731">-securityClearance: SecurityClearance</text><text fill="#000000" font-family="sans-serif" font-size="14" lengthAdjust="spacing" textLength="248.1582" x="1570.81" y="994.2614">-skillsAssessment: SkillsAssessment</text><line style="stroke:#181818;stroke-width:0.5;" x1="1565.81" x2="1832.185" y1="1001.2145" y2="1001.2145"/><text fill="#000000" font-family="sans-serif" font-size="14" lengthAdjust="spacing" textLength="63.8887" x="1570.81" y="1018.7497">+User(...)</text><text fill="#000000" font-family="sans-serif" font-size="14" lengthAdjust="spacing" textLength="102.6758" x="1570.81" y="1035.238">+enable(): void</text><text fill="#000000" font-family="sans-serif" font-size="14" lengthAdjust="spacing" textLength="106.1826" x="1570.81" y="1051.7263">+disable(): void</text><text fill="#000000" font-family="sans-serif" font-size="14" lengthAdjust="spacing" textLength="200.5596" x="1570.81" y="1068.2145">+hasRole(role: Role): boolean</text></g><!--class Email--><g class="entity" data-qualified-name="domain.Email" data-source-line="75" id="ent0015"><rect fill="#F1F1F1" height="80.9766" rx="2.5" ry="2.5" style="stroke:#181818;stroke-width:0.5;" width="153.0596" x="1138.47" y="1136.1683"/><ellipse cx="1192.5081" cy="1152.1683" fill="#C2C2C2" rx="11" ry="11" style="stroke:#181818;stroke-width:1;"/><path d="M1195.4812,1157.8113 Q1194.9002,1158.1102 1194.261,1158.2596 Q1193.6219,1158.409 1192.9163,1158.409 Q1190.4095,1158.409 1189.0896,1156.7571 Q1187.7698,1155.1053 1187.7698,1151.9842 Q1187.7698,1148.8548 1189.0896,1147.2029 Q1190.4095,1145.5511 1192.9163,1145.5511 Q1193.6219,1145.5511 1194.2693,1145.7005 Q1194.9168,1145.8499 1195.4812,1146.1488 L1195.4812,1148.8714 Q1194.8504,1148.2904 1194.2569,1148.0206 Q1193.6634,1147.7508 1193.0325,1147.7508 Q1191.6878,1147.7508 1191.003,1148.8175 Q1190.3181,1149.8841 1190.3181,1151.9842 Q1190.3181,1154.076 1191.003,1155.1426 Q1191.6878,1156.2093 1193.0325,1156.2093 Q1193.6634,1156.2093 1194.2569,1155.9395 Q1194.8504,1155.6697 1195.4812,1155.0887 Z " fill="#000000"/><text fill="#000000" font-family="sans-serif" font-size="14" lengthAdjust="spacing" textLength="36.4834" x="1213.0081" y="1157.4593">Email</text><line style="stroke:#181818;stroke-width:0.5;" x1="1139.47" x2="1290.5296" y1="1168.1683" y2="1168.1683"/><text fill="#000000" font-family="sans-serif" font-size="14" lengthAdjust="spacing" textLength="92.4424" x="1144.47" y="1185.7034">-value: String</text><line style="stroke:#181818;stroke-width:0.5;" x1="1139.47" x2="1290.5296" y1="1192.6566" y2="1192.6566"/><text fill="#000000" font-family="sans-serif" font-size="14" lengthAdjust="spacing" textLength="141.0596" x="1144.47" y="1210.1917">+Email(value: String)</text></g><!--class PhoneNumber--><g class="entity" data-qualified-name="domain.PhoneNumber" data-source-line="80" id="ent0016"><rect fill="#F1F1F1" height="80.9766" rx="2.5" ry="2.5" style="stroke:#181818;stroke-width:0.5;" width="212.5322" x="1326.73" y="1136.1683"/><ellipse cx="1380.7681" cy="1152.1683" fill="#C2C2C2" rx="11" ry="11" style="stroke:#181818;stroke-width:1;"/><path d="M1383.7412,1157.8113 Q1383.1602,1158.1102 1382.521,1158.2596 Q1381.8819,1158.409 1381.1763,1158.409 Q1378.6695,1158.409 1377.3496,1156.7571 Q1376.0298,1155.1053 1376.0298,1151.9842 Q1376.0298,1148.8548 1377.3496,1147.2029 Q1378.6695,1145.5511 1381.1763,1145.5511 Q1381.8819,1145.5511 1382.5293,1145.7005 Q1383.1768,1145.8499 1383.7412,1146.1488 L1383.7412,1148.8714 Q1383.1104,1148.2904 1382.5169,1148.0206 Q1381.9234,1147.7508 1381.2925,1147.7508 Q1379.9478,1147.7508 1379.263,1148.8175 Q1378.5781,1149.8841 1378.5781,1151.9842 Q1378.5781,1154.076 1379.263,1155.1426 Q1379.9478,1156.2093 1381.2925,1156.2093 Q1381.9234,1156.2093 1382.5169,1155.9395 Q1383.1104,1155.6697 1383.7412,1155.0887 Z " fill="#000000"/><text fill="#000000" font-family="sans-serif" font-size="14" lengthAdjust="spacing" textLength="95.9561" x="1401.2681" y="1157.4593">PhoneNumber</text><line style="stroke:#181818;stroke-width:0.5;" x1="1327.73" x2="1538.2622" y1="1168.1683" y2="1168.1683"/><text fill="#000000" font-family="sans-serif" font-size="14" lengthAdjust="spacing" textLength="92.4424" x="1332.73" y="1185.7034">-value: String</text><line style="stroke:#181818;stroke-width:0.5;" x1="1327.73" x2="1538.2622" y1="1192.6566" y2="1192.6566"/><text fill="#000000" font-family="sans-serif" font-size="14" lengthAdjust="spacing" textLength="200.5322" x="1332.73" y="1210.1917">+PhoneNumber(value: String)</text></g><!--class Credential--><g class="entity" data-qualified-name="domain.Credential" data-source-line="85" id="ent0017"><rect fill="#F1F1F1" height="80.9766" rx="2.5" ry="2.5" style="stroke:#181818;stroke-width:0.5;" width="249.2275" x="1574.39" y="1136.1683"/><ellipse cx="1659.9657" cy="1152.1683" fill="#C2C2C2" rx="11" ry="11" style="stroke:#181818;stroke-width:1;"/><path d="M1662.9388,1157.8113 Q1662.3578,1158.1102 1661.7186,1158.2596 Q1661.0795,1158.409 1660.3739,1158.409 Q1657.8671,1158.409 1656.5472,1156.7571 Q1655.2274,1155.1053 1655.2274,1151.9842 Q1655.2274,1148.8548 1656.5472,1147.2029 Q1657.8671,1145.5511 1660.3739,1145.5511 Q1661.0795,1145.5511 1661.7269,1145.7005 Q1662.3744,1145.8499 1662.9388,1146.1488 L1662.9388,1148.8714 Q1662.308,1148.2904 1661.7145,1148.0206 Q1661.121,1147.7508 1660.4901,1147.7508 Q1659.1454,1147.7508 1658.4606,1148.8175 Q1657.7757,1149.8841 1657.7757,1151.9842 Q1657.7757,1154.076 1658.4606,1155.1426 Q1659.1454,1156.2093 1660.4901,1156.2093 Q1661.121,1156.2093 1661.7145,1155.9395 Q1662.308,1155.6697 1662.9388,1155.0887 Z " fill="#000000"/><text fill="#000000" font-family="sans-serif" font-size="14" lengthAdjust="spacing" textLength="69.5762" x="1680.4657" y="1157.4593">Credential</text><line style="stroke:#181818;stroke-width:0.5;" x1="1575.39" x2="1822.6175" y1="1168.1683" y2="1168.1683"/><text fill="#000000" font-family="sans-serif" font-size="14" lengthAdjust="spacing" textLength="155.5176" x="1580.39" y="1185.7034">-passwordHash: String</text><line style="stroke:#181818;stroke-width:0.5;" x1="1575.39" x2="1822.6175" y1="1192.6566" y2="1192.6566"/><text fill="#000000" font-family="sans-serif" font-size="14" lengthAdjust="spacing" textLength="237.2275" x="1580.39" y="1210.1917">+Credential(passwordHash: String)</text></g><!--class Role--><g class="entity" data-qualified-name="domain.Role" data-source-line="90" id="ent0018"><rect fill="#F1F1F1" height="80.9766" rx="2.5" ry="2.5" style="stroke:#181818;stroke-width:0.5;" width="231.2969" x="1858.35" y="1136.1683"/><ellipse cx="1955.099" cy="1152.1683" fill="#C2C2C2" rx="11" ry="11" style="stroke:#181818;stroke-width:1;"/><path d="M1958.0722,1157.8113 Q1957.4911,1158.1102 1956.852,1158.2596 Q1956.2128,1158.409 1955.5072,1158.409 Q1953.0004,1158.409 1951.6806,1156.7571 Q1950.3607,1155.1053 1950.3607,1151.9842 Q1950.3607,1148.8548 1951.6806,1147.2029 Q1953.0004,1145.5511 1955.5072,1145.5511 Q1956.2128,1145.5511 1956.8603,1145.7005 Q1957.5077,1145.8499 1958.0722,1146.1488 L1958.0722,1148.8714 Q1957.4413,1148.2904 1956.8478,1148.0206 Q1956.2543,1147.7508 1955.6234,1147.7508 Q1954.2787,1147.7508 1953.5939,1148.8175 Q1952.9091,1149.8841 1952.9091,1151.9842 Q1952.9091,1154.076 1953.5939,1155.1426 Q1954.2787,1156.2093 1955.6234,1156.2093 Q1956.2543,1156.2093 1956.8478,1155.9395 Q1957.4413,1155.6697 1958.0722,1155.0887 Z " fill="#000000"/><text fill="#000000" font-family="sans-serif" font-size="14" lengthAdjust="spacing" textLength="29.2988" x="1975.599" y="1157.4593">Role</text><line style="stroke:#181818;stroke-width:0.5;" x1="1859.35" x2="2088.6469" y1="1168.1683" y2="1168.1683"/><text fill="#000000" font-family="sans-serif" font-size="14" lengthAdjust="spacing" textLength="94.2197" x="1864.35" y="1185.7034">-name: String</text><text fill="#000000" font-family="sans-serif" font-size="14" lengthAdjust="spacing" textLength="219.2969" x="1864.35" y="1202.1917">-permissions: List&lt;Permission&gt;</text><line style="stroke:#181818;stroke-width:0.5;" x1="1859.35" x2="2088.6469" y1="1209.1448" y2="1209.1448"/></g><!--class Permission--><g class="entity" data-qualified-name="domain.Permission" data-source-line="95" id="ent0019"><rect fill="#F1F1F1" height="64.4883" rx="2.5" ry="2.5" style="stroke:#181818;stroke-width:0.5;" width="106.2197" x="1920.89" y="1278.1383"/><ellipse cx="1935.9924" cy="1294.1383" fill="#C2C2C2" rx="11" ry="11" style="stroke:#181818;stroke-width:1;"/><path d="M1938.9655,1299.7813 Q1938.3845,1300.0802 1937.7453,1300.2296 Q1937.1062,1300.379 1936.4006,1300.379 Q1933.8938,1300.379 1932.5739,1298.7271 Q1931.2541,1297.0753 1931.2541,1293.9542 Q1931.2541,1290.8248 1932.5739,1289.1729 Q1933.8938,1287.5211 1936.4006,1287.5211 Q1937.1062,1287.5211 1937.7536,1287.6705 Q1938.4011,1287.8199 1938.9655,1288.1188 L1938.9655,1290.8414 Q1938.3347,1290.2604 1937.7412,1289.9906 Q1937.1477,1289.7208 1936.5168,1289.7208 Q1935.1721,1289.7208 1934.4873,1290.7875 Q1933.8025,1291.8541 1933.8025,1293.9542 Q1933.8025,1296.046 1934.4873,1297.1126 Q1935.1721,1298.1793 1936.5168,1298.1793 Q1937.1477,1298.1793 1937.7412,1297.9095 Q1938.3347,1297.6397 1938.9655,1297.0587 Z " fill="#000000"/><text fill="#000000" font-family="sans-serif" font-size="14" lengthAdjust="spacing" textLength="73.9922" x="1950.0151" y="1299.4293">Permission</text><line style="stroke:#181818;stroke-width:0.5;" x1="1921.89" x2="2026.1097" y1="1310.1383" y2="1310.1383"/><text fill="#000000" font-family="sans-serif" font-size="14" lengthAdjust="spacing" textLength="94.2197" x="1926.89" y="1327.6734">-name: String</text><line style="stroke:#181818;stroke-width:0.5;" x1="1921.89" x2="2026.1097" y1="1334.6266" y2="1334.6266"/></g><!--class SecurityClearance--><g class="entity" data-qualified-name="domain.SecurityClearance" data-source-line="99" id="ent0020"><rect fill="#F1F1F1" height="80.9766" rx="2.5" ry="2.5" style="stroke:#181818;stroke-width:0.5;" width="295.7666" x="2125.12" y="1136.1683"/><ellipse cx="2208.7987" cy="1152.1683" fill="#C2C2C2" rx="11" ry="11" style="stroke:#181818;stroke-width:1;"/><path d="M2211.7719,1157.8113 Q2211.1908,1158.1102 2210.5516,1158.2596 Q2209.9125,1158.409 2209.2069,1158.409 Q2206.7001,1158.409 2205.3803,1156.7571 Q2204.0604,1155.1053 2204.0604,1151.9842 Q2204.0604,1148.8548 2205.3803,1147.2029 Q2206.7001,1145.5511 2209.2069,1145.5511 Q2209.9125,1145.5511 2210.5599,1145.7005 Q2211.2074,1145.8499 2211.7719,1146.1488 L2211.7719,1148.8714 Q2211.141,1148.2904 2210.5475,1148.0206 Q2209.954,1147.7508 2209.3231,1147.7508 Q2207.9784,1147.7508 2207.2936,1148.8175 Q2206.6088,1149.8841 2206.6088,1151.9842 Q2206.6088,1154.076 2207.2936,1155.1426 Q2207.9784,1156.2093 2209.3231,1156.2093 Q2209.954,1156.2093 2210.5475,1155.9395 Q2211.141,1155.6697 2211.7719,1155.0887 Z " fill="#000000"/><text fill="#000000" font-family="sans-serif" font-size="14" lengthAdjust="spacing" textLength="119.9092" x="2229.2987" y="1157.4593">SecurityClearance</text><line style="stroke:#181818;stroke-width:0.5;" x1="2126.12" x2="2419.8866" y1="1168.1683" y2="1168.1683"/><text fill="#000000" font-family="sans-serif" font-size="14" lengthAdjust="spacing" textLength="183.7568" x="2131.12" y="1185.7034">-expirationDate: LocalDate</text><line style="stroke:#181818;stroke-width:0.5;" x1="2126.12" x2="2419.8866" y1="1192.6566" y2="1192.6566"/><text fill="#000000" font-family="sans-serif" font-size="14" lengthAdjust="spacing" textLength="283.7666" x="2131.12" y="1210.1917">+isValid(currentDate: LocalDate): boolean</text></g><!--class SkillsAssessment--><g class="entity" data-qualified-name="domain.SkillsAssessment" data-source-line="104" id="ent0021"><rect fill="#F1F1F1" height="80.9766" rx="2.5" ry="2.5" style="stroke:#181818;stroke-width:0.5;" width="295.7666" x="2456.12" y="1136.1683"/><ellipse cx="2541.8529" cy="1152.1683" fill="#C2C2C2" rx="11" ry="11" style="stroke:#181818;stroke-width:1;"/><path d="M2544.8261,1157.8113 Q2544.245,1158.1102 2543.6058,1158.2596 Q2542.9667,1158.409 2542.2611,1158.409 Q2539.7543,1158.409 2538.4345,1156.7571 Q2537.1146,1155.1053 2537.1146,1151.9842 Q2537.1146,1148.8548 2538.4345,1147.2029 Q2539.7543,1145.5511 2542.2611,1145.5511 Q2542.9667,1145.5511 2543.6141,1145.7005 Q2544.2616,1145.8499 2544.8261,1146.1488 L2544.8261,1148.8714 Q2544.1952,1148.2904 2543.6017,1148.0206 Q2543.0082,1147.7508 2542.3773,1147.7508 Q2541.0326,1147.7508 2540.3478,1148.8175 Q2539.663,1149.8841 2539.663,1151.9842 Q2539.663,1154.076 2540.3478,1155.1426 Q2541.0326,1156.2093 2542.3773,1156.2093 Q2543.0082,1156.2093 2543.6017,1155.9395 Q2544.1952,1155.6697 2544.8261,1155.0887 Z " fill="#000000"/><text fill="#000000" font-family="sans-serif" font-size="14" lengthAdjust="spacing" textLength="115.8008" x="2562.3529" y="1157.4593">SkillsAssessment</text><line style="stroke:#181818;stroke-width:0.5;" x1="2457.12" x2="2750.8866" y1="1168.1683" y2="1168.1683"/><text fill="#000000" font-family="sans-serif" font-size="14" lengthAdjust="spacing" textLength="219.4336" x="2462.12" y="1185.7034">-lastAssessmentDate: LocalDate</text><line style="stroke:#181818;stroke-width:0.5;" x1="2457.12" x2="2750.8866" y1="1192.6566" y2="1192.6566"/><text fill="#000000" font-family="sans-serif" font-size="14" lengthAdjust="spacing" textLength="283.7666" x="2462.12" y="1210.1917">+isValid(currentDate: LocalDate): boolean</text></g><!--class UserRepository--><g class="entity" data-qualified-name="repository.UserRepository" data-source-line="111" id="ent0023"><rect fill="#F1F1F1" height="97.4648" rx="2.5" ry="2.5" style="stroke:#181818;stroke-width:0.5;" width="312.3369" x="2807.83" y="903.4983"/><ellipse cx="2908.5029" cy="919.4983" fill="#B1B1B1" rx="11" ry="11" style="stroke:#181818;stroke-width:1;"/><path d="M2904.4306,915.2634 L2904.4306,913.1052 L2911.81,913.1052 L2911.81,915.2634 L2909.3446,915.2634 L2909.3446,923.3401 L2911.81,923.3401 L2911.81,925.4983 L2904.4306,925.4983 L2904.4306,923.3401 L2906.8959,923.3401 L2906.8959,915.2634 Z " fill="#000000"/><text fill="#000000" font-family="sans-serif" font-size="14" font-style="italic" lengthAdjust="spacing" textLength="102.4912" x="2929.0029" y="924.7893">UserRepository</text><line style="stroke:#181818;stroke-width:0.5;" x1="2808.83" x2="3119.1669" y1="935.4983" y2="935.4983"/><line style="stroke:#181818;stroke-width:0.5;" x1="2808.83" x2="3119.1669" y1="943.4983" y2="943.4983"/><text fill="#000000" font-family="sans-serif" font-size="14" lengthAdjust="spacing" textLength="257.2021" x="2813.83" y="961.0334">+existsByEmail(email: Email): boolean</text><text fill="#000000" font-family="sans-serif" font-size="14" lengthAdjust="spacing" textLength="156.29" x="2813.83" y="977.5217">+save(user: User): void</text><text fill="#000000" font-family="sans-serif" font-size="14" lengthAdjust="spacing" textLength="300.3369" x="2813.83" y="994.01">+findByEmail(email: Email): Optional&lt;User&gt;</text></g><!--class RoleRepository--><g class="entity" data-qualified-name="repository.RoleRepository" data-source-line="117" id="ent0024"><rect fill="#F1F1F1" height="64.4883" rx="2.5" ry="2.5" style="stroke:#181818;stroke-width:0.5;" width="317.8125" x="3155.09" y="919.9883"/><ellipse cx="3259.0338" cy="935.9883" fill="#B1B1B1" rx="11" ry="11" style="stroke:#181818;stroke-width:1;"/><path d="M3254.9616,931.7534 L3254.9616,929.5952 L3262.341,929.5952 L3262.341,931.7534 L3259.8756,931.7534 L3259.8756,939.8301 L3262.341,939.8301 L3262.341,941.9883 L3254.9616,941.9883 L3254.9616,939.8301 L3257.4269,939.8301 L3257.4269,931.7534 Z " fill="#000000"/><text fill="#000000" font-family="sans-serif" font-size="14" font-style="italic" lengthAdjust="spacing" textLength="101.4248" x="3279.5338" y="941.2793">RoleRepository</text><line style="stroke:#181818;stroke-width:0.5;" x1="3156.09" x2="3471.9025" y1="951.9883" y2="951.9883"/><line style="stroke:#181818;stroke-width:0.5;" x1="3156.09" x2="3471.9025" y1="959.9883" y2="959.9883"/><text fill="#000000" font-family="sans-serif" font-size="14" lengthAdjust="spacing" textLength="305.8125" x="3161.09" y="977.5234">+findByName(name: String): Optional&lt;Role&gt;</text></g><!--link RegisterUserUI to RegisterUserController--><g class="link" data-entity-1="ent0003" data-entity-2="ent0006" data-link-type="dependency" data-source-line="122" id="lnk25"><path codeLine="122" d="M215,319.0683 C215,376.1683 215,438.5583 215,477.6883" fill="none" id="RegisterUserUI-to-RegisterUserController" style="stroke:#181818;stroke-width:1;"/><polygon fill="#181818" points="215,483.6883,219,474.6883,215,478.6883,211,474.6883,215,483.6883" style="stroke:#181818;stroke-width:1;"/><polygon fill="#000000" points="220,388.5436,222.9389,379.4985,217.0611,379.4985,220,388.5436" style="stroke:#000000;stroke-width:1;"/><text fill="#000000" font-family="sans-serif" font-size="13" lengthAdjust="spacing" textLength="28.5645" x="229" y="388.4566">uses</text></g><!--link RegisterUserController to RegisterUserService--><g class="link" data-entity-1="ent0006" data-entity-2="ent0008" data-link-type="dependency" data-source-line="123" id="lnk26"><path codeLine="123" d="M311.67,549.0383 C353.16,562.2583 402.28,577.3783 447,589.8183 C548.07,617.9183 657.3477,644.5616 744.8977,665.0416" fill="none" id="RegisterUserController-to-RegisterUserService" style="stroke:#181818;stroke-width:1;"/><polygon fill="#181818" points="750.74,666.4083,742.8877,660.4635,745.8714,665.2694,741.0655,668.2532,750.74,666.4083" style="stroke:#181818;stroke-width:1;"/><polygon fill="#000000" points="626.6099,629.7668,618.6327,624.5884,617.1124,630.2662,626.6099,629.7668" style="stroke:#000000;stroke-width:1;"/><text fill="#000000" font-family="sans-serif" font-size="13" lengthAdjust="spacing" textLength="28.5645" x="630.78" y="633.3866">uses</text></g><!--link RegisterUserService to AuthorizationService--><g class="link" data-entity-1="ent0008" data-entity-2="ent0009" data-link-type="dependency" data-source-line="124" id="lnk27"><path codeLine="124" d="M819.68,731.6483 C805.53,739.9983 791.49,749.9183 780,761.3083 C733.12,807.7683 702.3054,873.2403 685.9454,913.9903" fill="none" id="RegisterUserService-to-AuthorizationService" style="stroke:#181818;stroke-width:1;"/><polygon fill="#181818" points="683.71,919.5583,690.7751,912.6965,685.5728,914.9183,683.3511,909.716,683.71,919.5583" style="stroke:#181818;stroke-width:1;"/><polygon fill="#000000" points="782.0429,773.9954,789.7622,768.4398,785.0225,764.9636,782.0429,773.9954" style="stroke:#000000;stroke-width:1;"/><text fill="#000000" font-family="sans-serif" font-size="13" lengthAdjust="spacing" textLength="116.6699" x="794" y="774.8766">checks permission</text></g><!--link RegisterUserService to UserRepository--><g class="link" data-entity-1="ent0008" data-entity-2="ent0023" data-link-type="dependency" data-source-line="125" id="lnk28"><path codeLine="125" d="M1082.28,707.2683 C1553.25,725.1283 2729.14,771.1083 2768,786.3083 C2830.54,810.7583 2883.4384,859.332 2919.6284,898.682" fill="none" id="RegisterUserService-to-UserRepository" style="stroke:#181818;stroke-width:1;"/><polygon fill="#181818" points="2923.69,903.0983,2920.5418,893.7662,2920.3053,899.4181,2914.6534,899.1816,2923.69,903.0983" style="stroke:#181818;stroke-width:1;"/><polygon fill="#000000" points="2689.7731,770.4816,2681.0812,766.6213,2680.4722,772.4675,2689.7731,770.4816" style="stroke:#000000;stroke-width:1;"/><text fill="#000000" font-family="sans-serif" font-size="13" lengthAdjust="spacing" textLength="84.0747" x="2693.8" y="774.8766">checks/saves</text></g><!--link RegisterUserService to RoleRepository--><g class="link" data-entity-1="ent0008" data-entity-2="ent0024" data-link-type="dependency" data-source-line="126" id="lnk29"><path codeLine="126" d="M1082.64,703.8083 C1425.52,711.0283 2164.23,729.0883 2787,761.3083 C2943.19,769.3883 2994.69,723.6783 3138,786.3083 C3204.38,815.3183 3257.7716,875.675 3287.7816,914.855" fill="none" id="RegisterUserService-to-RoleRepository" style="stroke:#181818;stroke-width:1;"/><polygon fill="#181818" points="3291.43,919.6183,3289.1329,910.0411,3288.3896,915.6489,3282.7818,914.9057,3291.43,919.6183" style="stroke:#181818;stroke-width:1;"/><polygon fill="#000000" points="3123.1273,770.4399,3114.4033,766.6526,3113.8433,772.5037,3123.1273,770.4399" style="stroke:#000000;stroke-width:1;"/><text fill="#000000" font-family="sans-serif" font-size="13" lengthAdjust="spacing" textLength="89.3877" x="3127.15" y="774.8766">retrieves roles</text></g><!--link RegisterUserService to User--><g class="link" data-entity-1="ent0008" data-entity-2="ent0014" data-link-type="dependency" data-source-line="127" id="lnk30"><path codeLine="127" d="M992.05,731.7483 C1137.22,776.8183 1397.8298,857.7292 1558.9098,907.7392" fill="none" id="RegisterUserService-to-User" style="stroke:#181818;stroke-width:1;"/><polygon fill="#181818" points="1564.64,909.5183,1557.2307,903.0296,1559.8648,908.0358,1554.8587,910.6699,1564.64,909.5183" style="stroke:#181818;stroke-width:1;"/><polygon fill="#000000" points="1138.8252,771.4461,1131.0582,765.9574,1129.3154,771.5709,1138.8252,771.4461" style="stroke:#000000;stroke-width:1;"/><text fill="#000000" font-family="sans-serif" font-size="13" lengthAdjust="spacing" textLength="45.1318" x="1143.05" y="774.8766">creates</text></g><!--link RegisterUserService to UserDTO--><g class="link" data-entity-1="ent0008" data-entity-2="ent0011" data-link-type="dependency" data-source-line="128" id="lnk31"><path codeLine="128" d="M903.69,731.6183 C920.5,770.3583 947.041,831.5144 968.631,881.2544" fill="none" id="RegisterUserService-to-UserDTO" style="stroke:#181818;stroke-width:1;"/><polygon fill="#181818" points="971.02,886.7583,971.1058,876.9098,969.0292,882.1717,963.7673,880.0951,971.02,886.7583" style="stroke:#181818;stroke-width:1;"/><polygon fill="#000000" points="929.2006,774.5502,928.2956,765.0828,922.9036,767.4229,929.2006,774.5502" style="stroke:#000000;stroke-width:1;"/><text fill="#000000" font-family="sans-serif" font-size="13" lengthAdjust="spacing" textLength="45.5063" x="936.21" y="774.8766">returns</text></g><!--link BootstrapUserLoader to RegisterUserService--><g class="link" data-entity-1="ent0012" data-entity-2="ent0008" data-link-type="dependency" data-source-line="129" id="lnk32"><path codeLine="129" d="M903.21,548.8283 C900.29,581.7983 896.2697,627.3017 893.3397,660.3617" fill="none" id="BootstrapUserLoader-to-RegisterUserService" style="stroke:#181818;stroke-width:1;"/><polygon fill="#181818" points="892.81,666.3383,897.5889,657.7265,893.2514,661.3578,889.6201,657.0203,892.81,666.3383" style="stroke:#181818;stroke-width:1;"/><polygon fill="#000000" points="901.1292,633.4541,904.8541,624.7033,898.9991,624.1851,901.1292,633.4541" style="stroke:#000000;stroke-width:1;"/><text fill="#000000" font-family="sans-serif" font-size="13" lengthAdjust="spacing" textLength="28.5645" x="910.57" y="633.3866">uses</text></g><!--reverse link User to Email--><g class="link" data-entity-1="ent0014" data-entity-2="ent0015" data-link-type="composition" data-source-line="131" id="lnk33"><path codeLine="131" d="M1553.5964,1020.0494 C1465.7564,1060.4194 1365.11,1106.6683 1291.97,1140.2783" fill="none" id="User-backto-Email" style="stroke:#181818;stroke-width:1;"/><polygon fill="#181818" points="1564.5,1015.0383,1557.3778,1013.9093,1553.5964,1020.0494,1560.7186,1021.1784,1564.5,1015.0383" style="stroke:#181818;stroke-width:1;"/></g><!--reverse link User to PhoneNumber--><g class="link" data-entity-1="ent0014" data-entity-2="ent0016" data-link-type="composition" data-source-line="132" id="lnk34"><path codeLine="132" d="M1555.2339,1073.4456 C1525.2139,1098.5456 1504.5,1115.8683 1480.81,1135.6783" fill="none" id="User-backto-PhoneNumber" style="stroke:#181818;stroke-width:1;"/><polygon fill="#181818" points="1564.44,1065.7483,1557.2712,1066.5282,1555.2339,1073.4456,1562.4027,1072.6656,1564.44,1065.7483" style="stroke:#181818;stroke-width:1;"/></g><!--reverse link User to Credential--><g class="link" data-entity-1="ent0014" data-entity-2="ent0017" data-link-type="composition" data-source-line="133" id="lnk35"><path codeLine="133" d="M1699,1087.5083 C1699,1109.3083 1699,1118.5383 1699,1135.7983" fill="none" id="User-backto-Credential" style="stroke:#181818;stroke-width:1;"/><polygon fill="#181818" points="1699,1075.5083,1695,1081.5083,1699,1087.5083,1703,1081.5083,1699,1075.5083" style="stroke:#181818;stroke-width:1;"/></g><!--reverse link User to SecurityClearance--><g class="link" data-entity-1="ent0014" data-entity-2="ent0020" data-link-type="composition" data-source-line="134" id="lnk36"><path codeLine="134" d="M1844.7693,1009.7141 C1947.6593,1049.5841 2076.17,1099.3783 2170.2,1135.8183" fill="none" id="User-backto-SecurityClearance" style="stroke:#181818;stroke-width:1;"/><polygon fill="#181818" points="1833.58,1005.3783,1837.7294,1011.276,1844.7693,1009.7141,1840.6199,1003.8164,1833.58,1005.3783" style="stroke:#181818;stroke-width:1;"/></g><!--reverse link User to SkillsAssessment--><g class="link" data-entity-1="ent0014" data-entity-2="ent0021" data-link-type="composition" data-source-line="135" id="lnk37"><path codeLine="135" d="M1845.1631,989.1526 C2011.8431,1030.1226 2283.25,1096.8183 2455.95,1139.2683" fill="none" id="User-backto-SkillsAssessment" style="stroke:#181818;stroke-width:1;"/><polygon fill="#181818" points="1833.51,986.2883,1838.3818,991.6048,1845.1631,989.1526,1840.2913,983.8361,1833.51,986.2883" style="stroke:#181818;stroke-width:1;"/></g><!--reverse link User to Role--><g class="link" data-entity-1="ent0014" data-entity-2="ent0018" data-link-type="aggregation" data-source-line="136" id="lnk38"><path codeLine="136" d="M1843.0103,1069.7045 C1875.5403,1096.0145 1898.94,1114.9483 1924.6,1135.6983" fill="none" id="User-backto-Role" style="stroke:#181818;stroke-width:1;"/><polygon fill="none" points="1833.68,1062.1583,1835.8297,1069.0415,1843.0103,1069.7045,1840.8606,1062.8213,1833.68,1062.1583" style="stroke:#181818;stroke-width:1;"/><text fill="#000000" font-family="sans-serif" font-size="13" lengthAdjust="spacing" textLength="8.2202" x="1841.2702" y="1065.3362">1</text><text fill="#000000" font-family="sans-serif" font-size="13" lengthAdjust="spacing" textLength="22.7119" x="1893.0307" y="1125.5683">1..*</text></g><!--reverse link Role to Permission--><g class="link" data-entity-1="ent0018" data-entity-2="ent0019" data-link-type="aggregation" data-source-line="137" id="lnk39"><path codeLine="137" d="M1974,1229.5283 C1974,1248.9183 1974,1259.8783 1974,1277.9983" fill="none" id="Role-backto-Permission" style="stroke:#181818;stroke-width:1;"/><polygon fill="none" points="1974,1217.5283,1970,1223.5283,1974,1229.5283,1978,1223.5283,1974,1217.5283" style="stroke:#181818;stroke-width:1;"/><text fill="#000000" font-family="sans-serif" font-size="13" lengthAdjust="spacing" textLength="8.2202" x="1965.3803" y="1237.8306">1</text><text fill="#000000" font-family="sans-serif" font-size="13" lengthAdjust="spacing" textLength="6.2651" x="1967.4086" y="1267.3726">*</text></g><?plantuml-src nLRTJzim47_FNs5rB-bOEz3U8bG9MgGXCK1qxDrDhgrLnyvifr0c_lUTapPnlXgGXXQfJNBVzxlpNGmp7CZZ_FJRsMWwypozOIAXYiOabaA6QoLZ84Qbu70I6cxe2kPcXweAGaF5Yhi2UaqZ-SJ4YYmfroudv5Jh2sCKMwG6haCfvkm5oAddxOsIGSh6IDQImu1yccKN-UCHl39byW0hfWseHus_wptBNYC2CMKy87CqBrOENT0OMiZ9MWguJUC5g1Qk1ewfGVI0aUY0tA3JyrneKf4AKyNCRie14nGXN3qdJ573f9XHWrvlP4YvVNIKC0yptp3EzONMe7KCmdH9do32lrFGLe3wGuSUCPrmklk11X0uFyxlXqnQ9A-KagfTxjLxTKg0-1ibEGVLNu9f8UkKmWPTYlZx38AAuaDE70R4lir-thK4GfE4ip13ip-IEQWj2-4VXU4ukKZDMYhsaiNHveNfWmX4VgfjErbZNqW2AcPQerf0xejdzBMGs5LKD7srXFPnBOvrWrjK_4_jNKbyZ_x79jkTA0Ywu10TgSobb4ORHHCRwOsaKQtZEP9ciAGfDrP2-rZchMHHIrj74XFhw6YhsmR2bRsz4uFxygKlrIP6Tkwv28KA8YmaenZCj7W-rYiONftaYjSw1ALh50VSxFoEnsDtgkLvL60knbq7PqsrJSktUU8OmFzZPp63l5ABBULf4_MJNDAlS8TDUquvtcJLaU-rNLQaOZf1tfDKqNUgroqUIYs_JRB5ZyMiug6h3ujfT-YdSlvDMg0fcCUDLvGQtLKzDxsJoWxkNvIpo4SxgZcaZlL6lLShhkq0VCjcVwTxTuGeIAHcHgfTVOmmWUjZIH6DV8SSv2h32fwn9FfobpUkEsA6pRbmGZJTWhFOcWThoKJKOUqkiJMW_DngLafVHcgxgYFItBBTKhxR3QxXSb9b6DK-44UZITS7Iq0m9qqcNWU_hdhO_Qrw1wPLQlrY24YuXd2ZdRDnn4IjU0VbhxOKnrpNe0pm4mW10wkKJVSUbzQH0ko-Fa6xgpFZgH9MjcqzzkBdPIu_ZqRxzLQykfkh83fRfw0rDqp9gg-JZ3Cu6n29tC7PUFnvaC7bPKEjO22r74VUNm00?></g></svg>