<?plantuml 1.2026.2?><svg xmlns="http://www.w3.org/2000/svg" xmlns:xlink="http://www.w3.org/1999/xlink" contentStyleType="text/css" data-diagram-type="CLASS" height="1362px" preserveAspectRatio="none" style="width:1909px;height:1362px;background:#FFFFFF;" version="1.1" viewBox="0 0 1909 1362" width="1909px" zoomAndPan="magnify"><title>US057-CD</title><defs/><g><g class="title" data-source-line="1"><text fill="#000000" font-family="sans-serif" font-size="14" font-weight="bold" lengthAdjust="spacing" textLength="76.0293" x="909.4854" y="23.5352">US057-CD</text></g><!--cluster ui--><g class="cluster" data-qualified-name="ui" data-source-line="9" id="ent0004"><rect fill="none" height="248.44" rx="2.5" ry="2.5" style="stroke:#000000;stroke-width:1.5;" width="350" x="209" y="44.4883"/><text fill="#000000" font-family="sans-serif" font-size="14" font-weight="bold" lengthAdjust="spacing" textLength="13.7471" x="377.1265" y="60.0234">ui</text></g><!--cluster console--><g class="cluster" data-qualified-name="ui.console" data-source-line="8" id="ent0002"><rect fill="#DDDDDD" height="181.44" rx="2.5" ry="2.5" style="stroke:#000000;stroke-width:1.5;" width="302" x="233" y="87.4883"/><text fill="#000000" font-family="sans-serif" font-size="14" font-weight="bold" lengthAdjust="spacing" textLength="55.2002" x="356.3999" y="103.0234">console</text></g><!--cluster controller--><g class="cluster" data-qualified-name="controller" data-source-line="18" id="ent0005"><rect fill="#DDDDDD" height="115.49" rx="2.5" ry="2.5" style="stroke:#000000;stroke-width:1.5;" width="754" x="7" y="341.9283"/><text fill="#000000" font-family="sans-serif" font-size="14" font-weight="bold" lengthAdjust="spacing" textLength="70.2393" x="348.8804" y="357.4634">controller</text></g><!--cluster application--><g class="cluster" data-qualified-name="application" data-source-line="24" id="ent0007"><rect fill="#DDDDDD" height="319.2" rx="2.5" ry="2.5" style="stroke:#000000;stroke-width:1.5;" width="1099" x="7" y="506.4183"/><text fill="#000000" font-family="sans-serif" font-size="14" font-weight="bold" lengthAdjust="spacing" textLength="79.9326" x="516.5337" y="521.9534">application</text></g><!--cluster domain--><g class="cluster" data-qualified-name="domain" data-source-line="45" id="ent0012"><rect fill="#DDDDDD" height="481.88" rx="2.5" ry="2.5" style="stroke:#000000;stroke-width:1.5;" width="1566" x="16" y="874.6183"/><text fill="#000000" font-family="sans-serif" font-size="14" font-weight="bold" lengthAdjust="spacing" textLength="53.7715" x="772.1143" y="890.1534">domain</text></g><!--cluster repository--><g class="cluster" data-qualified-name="repository" data-source-line="101" id="ent0024"><rect fill="#DDDDDD" height="131.97" rx="2.5" ry="2.5" style="stroke:#000000;stroke-width:1.5;" width="773" x="1130" y="685.3983"/><text fill="#000000" font-family="sans-serif" font-size="14" font-weight="bold" lengthAdjust="spacing" textLength="74.3955" x="1479.3022" y="700.9334">repository</text></g><!--class AddEngineModelToAircraftModelUI--><g class="entity" data-qualified-name="ui.console.AddEngineModelToAircraftModelUI" data-source-line="9" id="ent0003"><rect fill="#F1F1F1" height="130.4414" rx="2.5" ry="2.5" style="stroke:#181818;stroke-width:0.5;" width="269.0908" x="249.45" y="122.4883"/><ellipse cx="264.45" cy="138.4883" fill="#C2C2C2" rx="11" ry="11" style="stroke:#181818;stroke-width:1;"/><path d="M267.4231,144.1313 Q266.8421,144.4302 266.2029,144.5796 Q265.5638,144.729 264.8582,144.729 Q262.3514,144.729 261.0315,143.0771 Q259.7117,141.4253 259.7117,138.3042 Q259.7117,135.1748 261.0315,133.5229 Q262.3514,131.8711 264.8582,131.8711 Q265.5638,131.8711 266.2112,132.0205 Q266.8587,132.1699 267.4231,132.4688 L267.4231,135.1914 Q266.7923,134.6104 266.1988,134.3406 Q265.6053,134.0708 264.9744,134.0708 Q263.6297,134.0708 262.9449,135.1375 Q262.2601,136.2041 262.2601,138.3042 Q262.2601,140.396 262.9449,141.4626 Q263.6297,142.5293 264.9744,142.5293 Q265.6053,142.5293 266.1988,142.2595 Q266.7923,141.9897 267.4231,141.4087 Z " fill="#000000"/><text fill="#000000" font-family="sans-serif" font-size="14" lengthAdjust="spacing" textLength="237.0908" x="278.45" y="143.7793">AddEngineModelToAircraftModelUI</text><line style="stroke:#181818;stroke-width:0.5;" x1="250.45" x2="517.5408" y1="154.4883" y2="154.4883"/><text fill="#000000" font-family="sans-serif" font-size="14" lengthAdjust="spacing" textLength="159.6123" x="255.45" y="172.0234">-aircraftModelId: String</text><text fill="#000000" font-family="sans-serif" font-size="14" lengthAdjust="spacing" textLength="156.8438" x="255.45" y="188.5117">-engineModelId: String</text><line style="stroke:#181818;stroke-width:0.5;" x1="250.45" x2="517.5408" y1="195.4648" y2="195.4648"/><text fill="#000000" font-family="sans-serif" font-size="14" lengthAdjust="spacing" textLength="102.6211" x="255.45" y="213">+requestData()</text><text fill="#000000" font-family="sans-serif" font-size="14" lengthAdjust="spacing" textLength="234.7598" x="255.45" y="229.4883">+displayMessage(message: String)</text><text fill="#000000" font-family="sans-serif" font-size="14" lengthAdjust="spacing" textLength="209.7402" x="255.45" y="245.9766">+displayError(message: String)</text></g><!--class AddEngineModelToAircraftModelController--><g class="entity" data-qualified-name="controller.AddEngineModelToAircraftModelController" data-source-line="19" id="ent0006"><rect fill="#F1F1F1" height="64.4883" rx="2.5" ry="2.5" style="stroke:#181818;stroke-width:0.5;" width="722.2471" x="22.88" y="376.9283"/><ellipse cx="233.9943" cy="392.9283" fill="#C2C2C2" rx="11" ry="11" style="stroke:#181818;stroke-width:1;"/><path d="M236.9674,398.5713 Q236.3863,398.8702 235.7472,399.0196 Q235.108,399.169 234.4025,399.169 Q231.8956,399.169 230.5758,397.5171 Q229.256,395.8653 229.256,392.7442 Q229.256,389.6148 230.5758,387.9629 Q231.8956,386.3111 234.4025,386.3111 Q235.108,386.3111 235.7555,386.4605 Q236.4029,386.6099 236.9674,386.9087 L236.9674,389.6314 Q236.3365,389.0504 235.743,388.7806 Q235.1495,388.5108 234.5187,388.5108 Q233.1739,388.5108 232.4891,389.5775 Q231.8043,390.6441 231.8043,392.7442 Q231.8043,394.836 232.4891,395.9026 Q233.1739,396.9693 234.5187,396.9693 Q235.1495,396.9693 235.743,396.6995 Q236.3365,396.4297 236.9674,395.8487 Z " fill="#000000"/><text fill="#000000" font-family="sans-serif" font-size="14" lengthAdjust="spacing" textLength="291.5186" x="254.4943" y="398.2193">AddEngineModelToAircraftModelController</text><line style="stroke:#181818;stroke-width:0.5;" x1="23.88" x2="744.1271" y1="408.9283" y2="408.9283"/><line style="stroke:#181818;stroke-width:0.5;" x1="23.88" x2="744.1271" y1="416.9283" y2="416.9283"/><text fill="#000000" font-family="sans-serif" font-size="14" lengthAdjust="spacing" textLength="710.2471" x="28.88" y="434.4634">+addEngineModelToAircraftModel(request: AddEngineModelToAircraftModelRequest): AircraftModelDTO</text></g><!--class AddEngineModelToAircraftModelService--><g class="entity" data-qualified-name="application.AddEngineModelToAircraftModelService" data-source-line="25" id="ent0008"><rect fill="#F1F1F1" height="64.4883" rx="2.5" ry="2.5" style="stroke:#181818;stroke-width:0.5;" width="722.2471" x="22.88" y="549.6583"/><ellipse cx="244.4088" cy="565.6583" fill="#C2C2C2" rx="11" ry="11" style="stroke:#181818;stroke-width:1;"/><path d="M247.382,571.3013 Q246.8009,571.6002 246.1617,571.7496 Q245.5226,571.899 244.817,571.899 Q242.3102,571.899 240.9904,570.2471 Q239.6705,568.5953 239.6705,565.4742 Q239.6705,562.3448 240.9904,560.6929 Q242.3102,559.0411 244.817,559.0411 Q245.5226,559.0411 246.17,559.1905 Q246.8175,559.3399 247.382,559.6388 L247.382,562.3614 Q246.7511,561.7804 246.1576,561.5106 Q245.5641,561.2408 244.9332,561.2408 Q243.5885,561.2408 242.9037,562.3075 Q242.2189,563.3741 242.2189,565.4742 Q242.2189,567.566 242.9037,568.6326 Q243.5885,569.6993 244.9332,569.6993 Q245.5641,569.6993 246.1576,569.4295 Q246.7511,569.1597 247.382,568.5787 Z " fill="#000000"/><text fill="#000000" font-family="sans-serif" font-size="14" lengthAdjust="spacing" textLength="270.6895" x="264.9088" y="570.9493">AddEngineModelToAircraftModelService</text><line style="stroke:#181818;stroke-width:0.5;" x1="23.88" x2="744.1271" y1="581.6583" y2="581.6583"/><line style="stroke:#181818;stroke-width:0.5;" x1="23.88" x2="744.1271" y1="589.6583" y2="589.6583"/><text fill="#000000" font-family="sans-serif" font-size="14" lengthAdjust="spacing" textLength="710.2471" x="28.88" y="607.1934">+addEngineModelToAircraftModel(request: AddEngineModelToAircraftModelRequest): AircraftModelDTO</text></g><!--class AuthorizationService--><g class="entity" data-qualified-name="application.AuthorizationService" data-source-line="29" id="ent0009"><rect fill="#F1F1F1" height="64.4883" rx="2.5" ry="2.5" style="stroke:#181818;stroke-width:0.5;" width="417.1934" x="23.4" y="728.6383"/><ellipse cx="157.5929" cy="744.6383" fill="#C2C2C2" rx="11" ry="11" style="stroke:#181818;stroke-width:1;"/><path d="M160.566,750.2813 Q159.985,750.5802 159.3458,750.7296 Q158.7066,750.879 158.0011,750.879 Q155.4942,750.879 154.1744,749.2271 Q152.8546,747.5753 152.8546,744.4542 Q152.8546,741.3248 154.1744,739.6729 Q155.4942,738.0211 158.0011,738.0211 Q158.7066,738.0211 159.3541,738.1705 Q160.0016,738.3199 160.566,738.6188 L160.566,741.3414 Q159.9352,740.7604 159.3417,740.4906 Q158.7481,740.2208 158.1173,740.2208 Q156.7726,740.2208 156.0877,741.2875 Q155.4029,742.3541 155.4029,744.4542 Q155.4029,746.546 156.0877,747.6126 Q156.7726,748.6793 158.1173,748.6793 Q158.7481,748.6793 159.3417,748.4095 Q159.9352,748.1397 160.566,747.5587 Z " fill="#000000"/><text fill="#000000" font-family="sans-serif" font-size="14" lengthAdjust="spacing" textLength="140.3076" x="178.0929" y="749.9293">AuthorizationService</text><line style="stroke:#181818;stroke-width:0.5;" x1="24.4" x2="439.5934" y1="760.6383" y2="760.6383"/><line style="stroke:#181818;stroke-width:0.5;" x1="24.4" x2="439.5934" y1="768.6383" y2="768.6383"/><text fill="#000000" font-family="sans-serif" font-size="14" lengthAdjust="spacing" textLength="405.1934" x="29.4" y="786.1734">+isAuthorized(user: User, permission: Permission): boolean</text></g><!--class AddEngineModelToAircraftModelRequest--><g class="entity" data-qualified-name="application.AddEngineModelToAircraftModelRequest" data-source-line="33" id="ent0010"><rect fill="#F1F1F1" height="80.9766" rx="2.5" ry="2.5" style="stroke:#181818;stroke-width:0.5;" width="309.6826" x="780.16" y="541.4183"/><ellipse cx="795.16" cy="557.4183" fill="#C2C2C2" rx="11" ry="11" style="stroke:#181818;stroke-width:1;"/><path d="M798.1331,563.0613 Q797.5521,563.3602 796.9129,563.5096 Q796.2738,563.659 795.5682,563.659 Q793.0614,563.659 791.7415,562.0071 Q790.4217,560.3553 790.4217,557.2342 Q790.4217,554.1048 791.7415,552.4529 Q793.0614,550.8011 795.5682,550.8011 Q796.2738,550.8011 796.9212,550.9505 Q797.5687,551.0999 798.1331,551.3988 L798.1331,554.1214 Q797.5023,553.5404 796.9088,553.2706 Q796.3153,553.0008 795.6844,553.0008 Q794.3397,553.0008 793.6549,554.0675 Q792.9701,555.1341 792.9701,557.2342 Q792.9701,559.326 793.6549,560.3926 Q794.3397,561.4593 795.6844,561.4593 Q796.3153,561.4593 796.9088,561.1895 Q797.5023,560.9197 798.1331,560.3387 Z " fill="#000000"/><text fill="#000000" font-family="sans-serif" font-size="14" lengthAdjust="spacing" textLength="277.6826" x="809.16" y="562.7093">AddEngineModelToAircraftModelRequest</text><line style="stroke:#181818;stroke-width:0.5;" x1="781.16" x2="1088.8426" y1="573.4183" y2="573.4183"/><text fill="#000000" font-family="sans-serif" font-size="14" lengthAdjust="spacing" textLength="159.6123" x="786.16" y="590.9534">-aircraftModelId: String</text><text fill="#000000" font-family="sans-serif" font-size="14" lengthAdjust="spacing" textLength="156.8438" x="786.16" y="607.4417">-engineModelId: String</text><line style="stroke:#181818;stroke-width:0.5;" x1="781.16" x2="1088.8426" y1="614.3948" y2="614.3948"/></g><!--class AircraftModelDTO--><g class="entity" data-qualified-name="application.AircraftModelDTO" data-source-line="38" id="ent0011"><rect fill="#F1F1F1" height="97.4648" rx="2.5" ry="2.5" style="stroke:#181818;stroke-width:0.5;" width="264.8545" x="475.57" y="712.1483"/><ellipse cx="542.757" cy="728.1483" fill="#C2C2C2" rx="11" ry="11" style="stroke:#181818;stroke-width:1;"/><path d="M545.7302,733.7913 Q545.1491,734.0902 544.5099,734.2396 Q543.8708,734.389 543.1652,734.389 Q540.6584,734.389 539.3386,732.7371 Q538.0187,731.0853 538.0187,727.9642 Q538.0187,724.8348 539.3386,723.1829 Q540.6584,721.5311 543.1652,721.5311 Q543.8708,721.5311 544.5182,721.6805 Q545.1657,721.8299 545.7302,722.1288 L545.7302,724.8514 Q545.0993,724.2704 544.5058,724.0006 Q543.9123,723.7308 543.2814,723.7308 Q541.9367,723.7308 541.2519,724.7975 Q540.5671,725.8641 540.5671,727.9642 Q540.5671,730.056 541.2519,731.1226 Q541.9367,732.1893 543.2814,732.1893 Q543.9123,732.1893 544.5058,731.9195 Q545.0993,731.6497 545.7302,731.0687 Z " fill="#000000"/><text fill="#000000" font-family="sans-serif" font-size="14" lengthAdjust="spacing" textLength="121.9805" x="563.257" y="733.4393">AircraftModelDTO</text><line style="stroke:#181818;stroke-width:0.5;" x1="476.57" x2="739.4245" y1="744.1483" y2="744.1483"/><text fill="#000000" font-family="sans-serif" font-size="14" lengthAdjust="spacing" textLength="159.6123" x="481.57" y="761.6834">-aircraftModelId: String</text><text fill="#000000" font-family="sans-serif" font-size="14" lengthAdjust="spacing" textLength="138.2021" x="481.57" y="778.1717">-modelName: String</text><text fill="#000000" font-family="sans-serif" font-size="14" lengthAdjust="spacing" textLength="252.8545" x="481.57" y="794.66">-certifiedEngineModels: List&lt;String&gt;</text><line style="stroke:#181818;stroke-width:0.5;" x1="476.57" x2="739.4245" y1="801.6131" y2="801.6131"/></g><!--class User--><g class="entity" data-qualified-name="domain.User" data-source-line="46" id="ent0013"><rect fill="#F1F1F1" height="97.4648" rx="2.5" ry="2.5" style="stroke:#181818;stroke-width:0.5;" width="350.8369" x="31.58" y="934.3483"/><ellipse cx="187.5658" cy="950.3483" fill="#C2C2C2" rx="11" ry="11" style="stroke:#181818;stroke-width:1;"/><path d="M190.539,955.9913 Q189.9579,956.2902 189.3188,956.4396 Q188.6796,956.589 187.974,956.589 Q185.4672,956.589 184.1474,954.9371 Q182.8276,953.2853 182.8276,950.1642 Q182.8276,947.0348 184.1474,945.3829 Q185.4672,943.7311 187.974,943.7311 Q188.6796,943.7311 189.3271,943.8805 Q189.9745,944.0299 190.539,944.3288 L190.539,947.0514 Q189.9081,946.4704 189.3146,946.2006 Q188.7211,945.9308 188.0903,945.9308 Q186.7455,945.9308 186.0607,946.9975 Q185.3759,948.0641 185.3759,950.1642 Q185.3759,952.256 186.0607,953.3226 Q186.7455,954.3893 188.0903,954.3893 Q188.7211,954.3893 189.3146,954.1195 Q189.9081,953.8497 190.539,953.2687 Z " fill="#000000"/><text fill="#000000" font-family="sans-serif" font-size="14" lengthAdjust="spacing" textLength="30.3652" x="208.0658" y="955.6393">User</text><line style="stroke:#181818;stroke-width:0.5;" x1="32.58" x2="381.4169" y1="966.3483" y2="966.3483"/><text fill="#000000" font-family="sans-serif" font-size="14" lengthAdjust="spacing" textLength="90.1387" x="37.58" y="983.8834">-email: Email</text><text fill="#000000" font-family="sans-serif" font-size="14" lengthAdjust="spacing" textLength="125.7129" x="37.58" y="1000.3717">-roles: List&lt;Role&gt;</text><line style="stroke:#181818;stroke-width:0.5;" x1="32.58" x2="381.4169" y1="1007.3248" y2="1007.3248"/><text fill="#000000" font-family="sans-serif" font-size="14" lengthAdjust="spacing" textLength="338.8369" x="37.58" y="1024.86">+hasPermission(permission: Permission): boolean</text></g><!--class Role--><g class="entity" data-qualified-name="domain.Role" data-source-line="52" id="ent0014"><rect fill="#F1F1F1" height="80.9766" rx="2.5" ry="2.5" style="stroke:#181818;stroke-width:0.5;" width="231.2969" x="32.35" y="1125.7883"/><ellipse cx="129.099" cy="1141.7883" fill="#C2C2C2" rx="11" ry="11" style="stroke:#181818;stroke-width:1;"/><path d="M132.0722,1147.4313 Q131.4911,1147.7302 130.852,1147.8796 Q130.2128,1148.029 129.5072,1148.029 Q127.0004,1148.029 125.6806,1146.3771 Q124.3607,1144.7253 124.3607,1141.6042 Q124.3607,1138.4748 125.6806,1136.8229 Q127.0004,1135.1711 129.5072,1135.1711 Q130.2128,1135.1711 130.8603,1135.3205 Q131.5077,1135.4699 132.0722,1135.7688 L132.0722,1138.4914 Q131.4413,1137.9104 130.8478,1137.6406 Q130.2543,1137.3708 129.6234,1137.3708 Q128.2787,1137.3708 127.5939,1138.4375 Q126.9091,1139.5041 126.9091,1141.6042 Q126.9091,1143.696 127.5939,1144.7626 Q128.2787,1145.8293 129.6234,1145.8293 Q130.2543,1145.8293 130.8478,1145.5595 Q131.4413,1145.2897 132.0722,1144.7087 Z " fill="#000000"/><text fill="#000000" font-family="sans-serif" font-size="14" lengthAdjust="spacing" textLength="29.2988" x="149.599" y="1147.0793">Role</text><line style="stroke:#181818;stroke-width:0.5;" x1="33.35" x2="262.6469" y1="1157.7883" y2="1157.7883"/><text fill="#000000" font-family="sans-serif" font-size="14" lengthAdjust="spacing" textLength="94.2197" x="38.35" y="1175.3234">-name: String</text><text fill="#000000" font-family="sans-serif" font-size="14" lengthAdjust="spacing" textLength="219.2969" x="38.35" y="1191.8117">-permissions: List&lt;Permission&gt;</text><line style="stroke:#181818;stroke-width:0.5;" x1="33.35" x2="262.6469" y1="1198.7648" y2="1198.7648"/></g><!--class Permission--><g class="entity" data-qualified-name="domain.Permission" data-source-line="57" id="ent0015"><rect fill="#F1F1F1" height="64.4883" rx="2.5" ry="2.5" style="stroke:#181818;stroke-width:0.5;" width="106.2197" x="94.89" y="1276.0083"/><ellipse cx="109.9924" cy="1292.0083" fill="#C2C2C2" rx="11" ry="11" style="stroke:#181818;stroke-width:1;"/><path d="M112.9655,1297.6513 Q112.3845,1297.9502 111.7453,1298.0996 Q111.1062,1298.249 110.4006,1298.249 Q107.8938,1298.249 106.5739,1296.5971 Q105.2541,1294.9453 105.2541,1291.8242 Q105.2541,1288.6948 106.5739,1287.0429 Q107.8938,1285.3911 110.4006,1285.3911 Q111.1062,1285.3911 111.7536,1285.5405 Q112.4011,1285.6899 112.9655,1285.9888 L112.9655,1288.7114 Q112.3347,1288.1304 111.7412,1287.8606 Q111.1477,1287.5908 110.5168,1287.5908 Q109.1721,1287.5908 108.4873,1288.6575 Q107.8025,1289.7241 107.8025,1291.8242 Q107.8025,1293.916 108.4873,1294.9826 Q109.1721,1296.0493 110.5168,1296.0493 Q111.1477,1296.0493 111.7412,1295.7795 Q112.3347,1295.5097 112.9655,1294.9287 Z " fill="#000000"/><text fill="#000000" font-family="sans-serif" font-size="14" lengthAdjust="spacing" textLength="73.9922" x="124.0151" y="1297.2993">Permission</text><line style="stroke:#181818;stroke-width:0.5;" x1="95.89" x2="200.1097" y1="1308.0083" y2="1308.0083"/><text fill="#000000" font-family="sans-serif" font-size="14" lengthAdjust="spacing" textLength="94.2197" x="100.89" y="1325.5434">-name: String</text><line style="stroke:#181818;stroke-width:0.5;" x1="95.89" x2="200.1097" y1="1332.4966" y2="1332.4966"/></g><!--class AircraftModel--><g class="entity" data-qualified-name="domain.AircraftModel" data-source-line="61" id="ent0016"><rect fill="#F1F1F1" height="146.9297" rx="2.5" ry="2.5" style="stroke:#181818;stroke-width:0.5;" width="497.3242" x="417.34" y="909.6183"/><ellipse cx="615.8693" cy="925.6183" fill="#C2C2C2" rx="11" ry="11" style="stroke:#181818;stroke-width:1;"/><path d="M618.8424,931.2613 Q618.2614,931.5602 617.6222,931.7096 Q616.9831,931.859 616.2775,931.859 Q613.7707,931.859 612.4508,930.2071 Q611.131,928.5553 611.131,925.4342 Q611.131,922.3048 612.4508,920.6529 Q613.7707,919.0011 616.2775,919.0011 Q616.9831,919.0011 617.6305,919.1505 Q618.278,919.2999 618.8424,919.5988 L618.8424,922.3214 Q618.2116,921.7404 617.6181,921.4706 Q617.0246,921.2008 616.3937,921.2008 Q615.049,921.2008 614.3642,922.2675 Q613.6794,923.3341 613.6794,925.4342 Q613.6794,927.526 614.3642,928.5926 Q615.049,929.6593 616.3937,929.6593 Q617.0246,929.6593 617.6181,929.3895 Q618.2116,929.1197 618.8424,928.5387 Z " fill="#000000"/><text fill="#000000" font-family="sans-serif" font-size="14" lengthAdjust="spacing" textLength="91.7656" x="636.3693" y="930.9093">AircraftModel</text><line style="stroke:#181818;stroke-width:0.5;" x1="418.34" x2="913.6642" y1="941.6183" y2="941.6183"/><text fill="#000000" font-family="sans-serif" font-size="14" lengthAdjust="spacing" textLength="69.7881" x="423.34" y="959.1534">-id: String</text><text fill="#000000" font-family="sans-serif" font-size="14" lengthAdjust="spacing" textLength="228.9424" x="423.34" y="975.6417">-modelName: AircraftModelName</text><text fill="#000000" font-family="sans-serif" font-size="14" lengthAdjust="spacing" textLength="181.4873" x="423.34" y="992.13">-aircraftType: AircraftType</text><text fill="#000000" font-family="sans-serif" font-size="14" lengthAdjust="spacing" textLength="350.1914" x="423.34" y="1008.6183">-certifiedEngineModels: List&lt;AircraftEngineModel&gt;</text><line style="stroke:#181818;stroke-width:0.5;" x1="418.34" x2="913.6642" y1="1015.5714" y2="1015.5714"/><text fill="#000000" font-family="sans-serif" font-size="14" lengthAdjust="spacing" textLength="461.5488" x="423.34" y="1033.1066">+addCertifiedEngineModel(engineModel: AircraftEngineModel): void</text><text fill="#000000" font-family="sans-serif" font-size="14" lengthAdjust="spacing" textLength="485.3242" x="423.34" y="1049.5948">+hasCertifiedEngineModel(engineModel: AircraftEngineModel): boolean</text></g><!--class AircraftEngineModel--><g class="entity" data-qualified-name="domain.AircraftEngineModel" data-source-line="70" id="ent0017"><rect fill="#F1F1F1" height="97.4648" rx="2.5" ry="2.5" style="stroke:#181818;stroke-width:0.5;" width="236.0342" x="437.98" y="1117.5483"/><ellipse cx="483.0938" cy="1133.5483" fill="#C2C2C2" rx="11" ry="11" style="stroke:#181818;stroke-width:1;"/><path d="M486.0669,1139.1913 Q485.4859,1139.4902 484.8467,1139.6396 Q484.2075,1139.789 483.502,1139.789 Q480.9951,1139.789 479.6753,1138.1371 Q478.3555,1136.4853 478.3555,1133.3642 Q478.3555,1130.2348 479.6753,1128.5829 Q480.9951,1126.9311 483.502,1126.9311 Q484.2075,1126.9311 484.855,1127.0805 Q485.5025,1127.2299 486.0669,1127.5288 L486.0669,1130.2514 Q485.4361,1129.6704 484.8425,1129.4006 Q484.249,1129.1308 483.6182,1129.1308 Q482.2735,1129.1308 481.5886,1130.1975 Q480.9038,1131.2641 480.9038,1133.3642 Q480.9038,1135.456 481.5886,1136.5226 Q482.2735,1137.5893 483.6182,1137.5893 Q484.249,1137.5893 484.8425,1137.3195 Q485.4361,1137.0497 486.0669,1136.4687 Z " fill="#000000"/><text fill="#000000" font-family="sans-serif" font-size="14" lengthAdjust="spacing" textLength="137.3066" x="503.5938" y="1138.8393">AircraftEngineModel</text><line style="stroke:#181818;stroke-width:0.5;" x1="438.98" x2="673.0142" y1="1149.5483" y2="1149.5483"/><text fill="#000000" font-family="sans-serif" font-size="14" lengthAdjust="spacing" textLength="69.7881" x="443.98" y="1167.0834">-id: String</text><text fill="#000000" font-family="sans-serif" font-size="14" lengthAdjust="spacing" textLength="224.0342" x="443.98" y="1183.5717">-modelName: EngineModelName</text><text fill="#000000" font-family="sans-serif" font-size="14" lengthAdjust="spacing" textLength="173.8105" x="443.98" y="1200.06">-engineType: EngineType</text><line style="stroke:#181818;stroke-width:0.5;" x1="438.98" x2="673.0142" y1="1207.0131" y2="1207.0131"/></g><!--class EngineCompatibilityPolicy--><g class="entity" data-qualified-name="domain.EngineCompatibilityPolicy" data-source-line="76" id="ent0018"><rect fill="#F1F1F1" height="64.4883" rx="2.5" ry="2.5" style="stroke:#181818;stroke-width:0.5;" width="616.9531" x="949.52" y="950.8383"/><ellipse cx="1166.1748" cy="966.8383" fill="#C2C2C2" rx="11" ry="11" style="stroke:#181818;stroke-width:1;"/><path d="M1169.1479,972.4813 Q1168.5669,972.7802 1167.9277,972.9296 Q1167.2886,973.079 1166.583,973.079 Q1164.0762,973.079 1162.7563,971.4271 Q1161.4365,969.7753 1161.4365,966.6542 Q1161.4365,963.5248 1162.7563,961.8729 Q1164.0762,960.2211 1166.583,960.2211 Q1167.2886,960.2211 1167.936,960.3705 Q1168.5835,960.5199 1169.1479,960.8187 L1169.1479,963.5414 Q1168.5171,962.9604 1167.9236,962.6906 Q1167.3301,962.4208 1166.6992,962.4208 Q1165.3545,962.4208 1164.6697,963.4875 Q1163.9848,964.5541 1163.9848,966.6542 Q1163.9848,968.746 1164.6697,969.8126 Q1165.3545,970.8793 1166.6992,970.8793 Q1167.3301,970.8793 1167.9236,970.6095 Q1168.5171,970.3397 1169.1479,969.7587 Z " fill="#000000"/><text fill="#000000" font-family="sans-serif" font-size="14" lengthAdjust="spacing" textLength="175.1436" x="1186.6748" y="972.1293">EngineCompatibilityPolicy</text><line style="stroke:#181818;stroke-width:0.5;" x1="950.52" x2="1565.4731" y1="982.8383" y2="982.8383"/><line style="stroke:#181818;stroke-width:0.5;" x1="950.52" x2="1565.4731" y1="990.8383" y2="990.8383"/><text fill="#000000" font-family="sans-serif" font-size="14" lengthAdjust="spacing" textLength="604.9531" x="955.52" y="1008.3734">+isCompatible(aircraftModel: AircraftModel, engineModel: AircraftEngineModel): boolean</text></g><!--class AircraftModelName--><g class="entity" data-qualified-name="domain.AircraftModelName" data-source-line="80" id="ent0019"><rect fill="#F1F1F1" height="64.4883" rx="2.5" ry="2.5" style="stroke:#181818;stroke-width:0.5;" width="162.71" x="708.65" y="1134.0383"/><ellipse cx="723.65" cy="1150.0383" fill="#C2C2C2" rx="11" ry="11" style="stroke:#181818;stroke-width:1;"/><path d="M726.6231,1155.6813 Q726.0421,1155.9802 725.4029,1156.1296 Q724.7638,1156.279 724.0582,1156.279 Q721.5514,1156.279 720.2315,1154.6271 Q718.9117,1152.9753 718.9117,1149.8542 Q718.9117,1146.7248 720.2315,1145.0729 Q721.5514,1143.4211 724.0582,1143.4211 Q724.7638,1143.4211 725.4112,1143.5705 Q726.0587,1143.7199 726.6231,1144.0188 L726.6231,1146.7414 Q725.9923,1146.1604 725.3988,1145.8906 Q724.8053,1145.6208 724.1744,1145.6208 Q722.8297,1145.6208 722.1449,1146.6875 Q721.4601,1147.7541 721.4601,1149.8542 Q721.4601,1151.946 722.1449,1153.0126 Q722.8297,1154.0793 724.1744,1154.0793 Q724.8053,1154.0793 725.3988,1153.8095 Q725.9923,1153.5397 726.6231,1152.9587 Z " fill="#000000"/><text fill="#000000" font-family="sans-serif" font-size="14" lengthAdjust="spacing" textLength="130.71" x="737.65" y="1155.3293">AircraftModelName</text><line style="stroke:#181818;stroke-width:0.5;" x1="709.65" x2="870.36" y1="1166.0383" y2="1166.0383"/><text fill="#000000" font-family="sans-serif" font-size="14" lengthAdjust="spacing" textLength="92.4424" x="714.65" y="1183.5734">-value: String</text><line style="stroke:#181818;stroke-width:0.5;" x1="709.65" x2="870.36" y1="1190.5266" y2="1190.5266"/></g><!--class AircraftType--><g class="entity" data-qualified-name="domain.AircraftType" data-source-line="84" id="ent0020"><rect fill="#F1F1F1" height="64.4883" rx="2.5" ry="2.5" style="stroke:#181818;stroke-width:0.5;" width="115.2275" x="906.39" y="1134.0383"/><ellipse cx="921.39" cy="1150.0383" fill="#C2C2C2" rx="11" ry="11" style="stroke:#181818;stroke-width:1;"/><path d="M924.3631,1155.6813 Q923.7821,1155.9802 923.1429,1156.1296 Q922.5038,1156.279 921.7982,1156.279 Q919.2914,1156.279 917.9715,1154.6271 Q916.6517,1152.9753 916.6517,1149.8542 Q916.6517,1146.7248 917.9715,1145.0729 Q919.2914,1143.4211 921.7982,1143.4211 Q922.5038,1143.4211 923.1512,1143.5705 Q923.7987,1143.7199 924.3631,1144.0188 L924.3631,1146.7414 Q923.7323,1146.1604 923.1388,1145.8906 Q922.5453,1145.6208 921.9144,1145.6208 Q920.5697,1145.6208 919.8849,1146.6875 Q919.2001,1147.7541 919.2001,1149.8542 Q919.2001,1151.946 919.8849,1153.0126 Q920.5697,1154.0793 921.9144,1154.0793 Q922.5453,1154.0793 923.1388,1153.8095 Q923.7323,1153.5397 924.3631,1152.9587 Z " fill="#000000"/><text fill="#000000" font-family="sans-serif" font-size="14" lengthAdjust="spacing" textLength="83.2275" x="935.39" y="1155.3293">AircraftType</text><line style="stroke:#181818;stroke-width:0.5;" x1="907.39" x2="1020.6175" y1="1166.0383" y2="1166.0383"/><text fill="#000000" font-family="sans-serif" font-size="14" lengthAdjust="spacing" textLength="92.4424" x="912.39" y="1183.5734">-value: String</text><line style="stroke:#181818;stroke-width:0.5;" x1="907.39" x2="1020.6175" y1="1190.5266" y2="1190.5266"/></g><!--class EngineModelName--><g class="entity" data-qualified-name="domain.EngineModelName" data-source-line="88" id="ent0021"><rect fill="#F1F1F1" height="64.4883" rx="2.5" ry="2.5" style="stroke:#181818;stroke-width:0.5;" width="157.8018" x="413.1" y="1276.0083"/><ellipse cx="428.1" cy="1292.0083" fill="#C2C2C2" rx="11" ry="11" style="stroke:#181818;stroke-width:1;"/><path d="M431.0731,1297.6513 Q430.4921,1297.9502 429.8529,1298.0996 Q429.2138,1298.249 428.5082,1298.249 Q426.0014,1298.249 424.6815,1296.5971 Q423.3617,1294.9453 423.3617,1291.8242 Q423.3617,1288.6948 424.6815,1287.0429 Q426.0014,1285.3911 428.5082,1285.3911 Q429.2138,1285.3911 429.8612,1285.5405 Q430.5087,1285.6899 431.0731,1285.9888 L431.0731,1288.7114 Q430.4423,1288.1304 429.8488,1287.8606 Q429.2553,1287.5908 428.6244,1287.5908 Q427.2797,1287.5908 426.5949,1288.6575 Q425.9101,1289.7241 425.9101,1291.8242 Q425.9101,1293.916 426.5949,1294.9826 Q427.2797,1296.0493 428.6244,1296.0493 Q429.2553,1296.0493 429.8488,1295.7795 Q430.4423,1295.5097 431.0731,1294.9287 Z " fill="#000000"/><text fill="#000000" font-family="sans-serif" font-size="14" lengthAdjust="spacing" textLength="125.8018" x="442.1" y="1297.2993">EngineModelName</text><line style="stroke:#181818;stroke-width:0.5;" x1="414.1" x2="569.9018" y1="1308.0083" y2="1308.0083"/><text fill="#000000" font-family="sans-serif" font-size="14" lengthAdjust="spacing" textLength="92.4424" x="419.1" y="1325.5434">-value: String</text><line style="stroke:#181818;stroke-width:0.5;" x1="414.1" x2="569.9018" y1="1332.4966" y2="1332.4966"/></g><!--class EngineType--><g class="entity" data-qualified-name="domain.EngineType" data-source-line="92" id="ent0022"><rect fill="#F1F1F1" height="64.4883" rx="2.5" ry="2.5" style="stroke:#181818;stroke-width:0.5;" width="110.3193" x="605.84" y="1276.0083"/><ellipse cx="620.84" cy="1292.0083" fill="#C2C2C2" rx="11" ry="11" style="stroke:#181818;stroke-width:1;"/><path d="M623.8131,1297.6513 Q623.2321,1297.9502 622.5929,1298.0996 Q621.9538,1298.249 621.2482,1298.249 Q618.7414,1298.249 617.4215,1296.5971 Q616.1017,1294.9453 616.1017,1291.8242 Q616.1017,1288.6948 617.4215,1287.0429 Q618.7414,1285.3911 621.2482,1285.3911 Q621.9538,1285.3911 622.6012,1285.5405 Q623.2487,1285.6899 623.8131,1285.9888 L623.8131,1288.7114 Q623.1823,1288.1304 622.5888,1287.8606 Q621.9953,1287.5908 621.3644,1287.5908 Q620.0197,1287.5908 619.3349,1288.6575 Q618.6501,1289.7241 618.6501,1291.8242 Q618.6501,1293.916 619.3349,1294.9826 Q620.0197,1296.0493 621.3644,1296.0493 Q621.9953,1296.0493 622.5888,1295.7795 Q623.1823,1295.5097 623.8131,1294.9287 Z " fill="#000000"/><text fill="#000000" font-family="sans-serif" font-size="14" lengthAdjust="spacing" textLength="78.3193" x="634.84" y="1297.2993">EngineType</text><line style="stroke:#181818;stroke-width:0.5;" x1="606.84" x2="715.1593" y1="1308.0083" y2="1308.0083"/><text fill="#000000" font-family="sans-serif" font-size="14" lengthAdjust="spacing" textLength="92.4424" x="611.84" y="1325.5434">-value: String</text><line style="stroke:#181818;stroke-width:0.5;" x1="606.84" x2="715.1593" y1="1332.4966" y2="1332.4966"/></g><!--class Email--><g class="entity" data-qualified-name="domain.Email" data-source-line="96" id="ent0023"><rect fill="#F1F1F1" height="64.4883" rx="2.5" ry="2.5" style="stroke:#181818;stroke-width:0.5;" width="104.4424" x="298.78" y="1134.0383"/><ellipse cx="329.9615" cy="1150.0383" fill="#C2C2C2" rx="11" ry="11" style="stroke:#181818;stroke-width:1;"/><path d="M332.9347,1155.6813 Q332.3536,1155.9802 331.7145,1156.1296 Q331.0753,1156.279 330.3697,1156.279 Q327.8629,1156.279 326.5431,1154.6271 Q325.2233,1152.9753 325.2233,1149.8542 Q325.2233,1146.7248 326.5431,1145.0729 Q327.8629,1143.4211 330.3697,1143.4211 Q331.0753,1143.4211 331.7228,1143.5705 Q332.3702,1143.7199 332.9347,1144.0188 L332.9347,1146.7414 Q332.3038,1146.1604 331.7103,1145.8906 Q331.1168,1145.6208 330.486,1145.6208 Q329.1412,1145.6208 328.4564,1146.6875 Q327.7716,1147.7541 327.7716,1149.8542 Q327.7716,1151.946 328.4564,1153.0126 Q329.1412,1154.0793 330.486,1154.0793 Q331.1168,1154.0793 331.7103,1153.8095 Q332.3038,1153.5397 332.9347,1152.9587 Z " fill="#000000"/><text fill="#000000" font-family="sans-serif" font-size="14" lengthAdjust="spacing" textLength="36.4834" x="347.5574" y="1155.3293">Email</text><line style="stroke:#181818;stroke-width:0.5;" x1="299.78" x2="402.2224" y1="1166.0383" y2="1166.0383"/><text fill="#000000" font-family="sans-serif" font-size="14" lengthAdjust="spacing" textLength="92.4424" x="304.78" y="1183.5734">-value: String</text><line style="stroke:#181818;stroke-width:0.5;" x1="299.78" x2="402.2224" y1="1190.5266" y2="1190.5266"/></g><!--class AircraftModelRepository--><g class="entity" data-qualified-name="repository.AircraftModelRepository" data-source-line="102" id="ent0025"><rect fill="#F1F1F1" height="80.9766" rx="2.5" ry="2.5" style="stroke:#181818;stroke-width:0.5;" width="329.748" x="1146.13" y="720.3983"/><ellipse cx="1224.8082" cy="736.3983" fill="#B1B1B1" rx="11" ry="11" style="stroke:#181818;stroke-width:1;"/><path d="M1220.736,732.1634 L1220.736,730.0052 L1228.1154,730.0052 L1228.1154,732.1634 L1225.65,732.1634 L1225.65,740.2401 L1228.1154,740.2401 L1228.1154,742.3983 L1220.736,742.3983 L1220.736,740.2401 L1223.2013,740.2401 L1223.2013,732.1634 Z " fill="#000000"/><text fill="#000000" font-family="sans-serif" font-size="14" font-style="italic" lengthAdjust="spacing" textLength="163.8916" x="1245.3082" y="741.6893">AircraftModelRepository</text><line style="stroke:#181818;stroke-width:0.5;" x1="1147.13" x2="1474.878" y1="752.3983" y2="752.3983"/><line style="stroke:#181818;stroke-width:0.5;" x1="1147.13" x2="1474.878" y1="760.3983" y2="760.3983"/><text fill="#000000" font-family="sans-serif" font-size="14" lengthAdjust="spacing" textLength="317.748" x="1152.13" y="777.9334">+findById(id: String): Optional&lt;AircraftModel&gt;</text><text fill="#000000" font-family="sans-serif" font-size="14" lengthAdjust="spacing" textLength="278.1748" x="1152.13" y="794.4217">+save(aircraftModel: AircraftModel): void</text></g><!--class AircraftEngineModelRepository--><g class="entity" data-qualified-name="repository.AircraftEngineModelRepository" data-source-line="107" id="ent0026"><rect fill="#F1F1F1" height="64.4883" rx="2.5" ry="2.5" style="stroke:#181818;stroke-width:0.5;" width="375.2891" x="1511.36" y="728.6383"/><ellipse cx="1590.0382" cy="744.6383" fill="#B1B1B1" rx="11" ry="11" style="stroke:#181818;stroke-width:1;"/><path d="M1585.966,740.4034 L1585.966,738.2452 L1593.3454,738.2452 L1593.3454,740.4034 L1590.88,740.4034 L1590.88,748.4801 L1593.3454,748.4801 L1593.3454,750.6383 L1585.966,750.6383 L1585.966,748.4801 L1588.4313,748.4801 L1588.4313,740.4034 Z " fill="#000000"/><text fill="#000000" font-family="sans-serif" font-size="14" font-style="italic" lengthAdjust="spacing" textLength="209.4326" x="1610.5382" y="749.9293">AircraftEngineModelRepository</text><line style="stroke:#181818;stroke-width:0.5;" x1="1512.36" x2="1885.6491" y1="760.6383" y2="760.6383"/><line style="stroke:#181818;stroke-width:0.5;" x1="1512.36" x2="1885.6491" y1="768.6383" y2="768.6383"/><text fill="#000000" font-family="sans-serif" font-size="14" lengthAdjust="spacing" textLength="363.2891" x="1517.36" y="786.1734">+findById(id: String): Optional&lt;AircraftEngineModel&gt;</text></g><!--link AddEngineModelToAircraftModelUI to AddEngineModelToAircraftModelController--><g class="link" data-entity-1="ent0003" data-entity-2="ent0006" data-link-type="dependency" data-source-line="112" id="lnk27"><path codeLine="112" d="M384,253.3683 C384,293.9583 384,338.4983 384,370.5583" fill="none" id="AddEngineModelToAircraftModelUI-to-AddEngineModelToAircraftModelController" style="stroke:#181818;stroke-width:1;"/><polygon fill="#181818" points="384,376.5583,388,367.5583,384,371.5583,380,367.5583,384,376.5583" style="stroke:#181818;stroke-width:1;"/><polygon fill="#000000" points="389,322.5836,391.9389,313.5385,386.0611,313.5385,389,322.5836" style="stroke:#000000;stroke-width:1;"/><text fill="#000000" font-family="sans-serif" font-size="13" lengthAdjust="spacing" textLength="28.5645" x="398" y="322.4966">uses</text></g><!--link AddEngineModelToAircraftModelController to AddEngineModelToAircraftModelService--><g class="link" data-entity-1="ent0006" data-entity-2="ent0008" data-link-type="dependency" data-source-line="113" id="lnk28"><path codeLine="113" d="M384,441.8883 C384,472.5583 384,512.7583 384,543.3583" fill="none" id="AddEngineModelToAircraftModelController-to-AddEngineModelToAircraftModelService" style="stroke:#181818;stroke-width:1;"/><polygon fill="#181818" points="384,549.3583,388,540.3583,384,544.3583,380,540.3583,384,549.3583" style="stroke:#181818;stroke-width:1;"/><polygon fill="#000000" points="389,487.0736,391.9389,478.0285,386.0611,478.0285,389,487.0736" style="stroke:#000000;stroke-width:1;"/><text fill="#000000" font-family="sans-serif" font-size="13" lengthAdjust="spacing" textLength="28.5645" x="398" y="486.9866">uses</text></g><!--link AddEngineModelToAircraftModelService to AuthorizationService--><g class="link" data-entity-1="ent0008" data-entity-2="ent0009" data-link-type="dependency" data-source-line="114" id="lnk29"><path codeLine="114" d="M356.83,614.5483 C329.24,646.6583 290.6887,691.5461 263.1087,723.6661" fill="none" id="AddEngineModelToAircraftModelService-to-AuthorizationService" style="stroke:#181818;stroke-width:1;"/><polygon fill="#181818" points="259.2,728.2183,268.0978,723.9959,262.4573,724.4248,262.0283,718.7843,259.2,728.2183" style="stroke:#181818;stroke-width:1;"/><polygon fill="#000000" points="323.3522,664.8465,331.4751,659.8998,327.0161,656.0701,323.3522,664.8465" style="stroke:#000000;stroke-width:1;"/><text fill="#000000" font-family="sans-serif" font-size="13" lengthAdjust="spacing" textLength="116.6699" x="335.61" y="665.9666">checks permission</text></g><!--link AddEngineModelToAircraftModelService to AircraftModelRepository--><g class="link" data-entity-1="ent0008" data-entity-2="ent0025" data-link-type="dependency" data-source-line="115" id="lnk30"><path codeLine="115" d="M684.89,614.5983 C846.18,633.1183 1027.51,656.8183 1106,677.3983 C1146.45,687.9983 1184.1023,702.1714 1220.3423,717.6514" fill="none" id="AddEngineModelToAircraftModelService-to-AircraftModelRepository" style="stroke:#181818;stroke-width:1;"/><polygon fill="#181818" points="1225.86,720.0083,1219.1547,712.7945,1221.2619,718.0442,1216.0122,720.1514,1225.86,720.0083" style="stroke:#181818;stroke-width:1;"/><polygon fill="#000000" points="1070.9899,661.9985,1062.6632,657.4031,1061.5524,663.175,1070.9899,661.9985" style="stroke:#000000;stroke-width:1;"/><text fill="#000000" font-family="sans-serif" font-size="13" lengthAdjust="spacing" textLength="95.564" x="1075.08" y="665.9666">retrieves/saves</text></g><!--link AddEngineModelToAircraftModelService to AircraftEngineModelRepository--><g class="link" data-entity-1="ent0008" data-entity-2="ent0026" data-link-type="dependency" data-source-line="116" id="lnk31"><path codeLine="116" d="M679.78,614.6383 C707.9,617.3783 735.98,620.0183 763,622.3983 C1087.11,650.9583 1176.22,603.1683 1493,677.3983 C1542.14,688.9083 1589.4668,707.7576 1629.3068,725.8476" fill="none" id="AddEngineModelToAircraftModelService-to-AircraftEngineModelRepository" style="stroke:#181818;stroke-width:1;"/><polygon fill="#181818" points="1634.77,728.3283,1628.229,720.9652,1630.2173,726.2611,1624.9215,728.2494,1634.77,728.3283" style="stroke:#181818;stroke-width:1;"/><polygon fill="#000000" points="1466.0161,661.6352,1457.3742,657.664,1456.6905,663.502,1466.0161,661.6352" style="stroke:#000000;stroke-width:1;"/><text fill="#000000" font-family="sans-serif" font-size="13" lengthAdjust="spacing" textLength="54.3423" x="1470.05" y="665.9666">retrieves</text></g><!--link AddEngineModelToAircraftModelService to EngineCompatibilityPolicy--><g class="link" data-entity-1="ent0008" data-entity-2="ent0018" data-link-type="dependency" data-source-line="117" id="lnk32"><path codeLine="117" d="M562.41,614.5583 C625.8,629.2583 696.63,649.7583 758,677.3983 C870.34,727.9783 881.96,769.2283 987,833.6183 C1057.21,876.6483 1135.33,918.6839 1190.9,947.6639" fill="none" id="AddEngineModelToAircraftModelService-to-EngineCompatibilityPolicy" style="stroke:#181818;stroke-width:1;"/><polygon fill="#181818" points="1196.22,950.4383,1190.0896,942.73,1191.7866,948.1263,1186.3904,949.8233,1196.22,950.4383" style="stroke:#181818;stroke-width:1;"/><polygon fill="#000000" points="996.4178,763.3751,989.8022,756.5425,987.0496,761.736,996.4178,763.3751" style="stroke:#000000;stroke-width:1;"/><text fill="#000000" font-family="sans-serif" font-size="13" lengthAdjust="spacing" textLength="128.8384" x="1001" y="765.9466">checks compatibility</text></g><!--link AddEngineModelToAircraftModelService to AircraftModelDTO--><g class="link" data-entity-1="ent0008" data-entity-2="ent0011" data-link-type="dependency" data-source-line="118" id="lnk33"><path codeLine="118" d="M424.05,614.5483 C458.28,641.5883 503.342,677.1988 542.492,708.1288" fill="none" id="AddEngineModelToAircraftModelService-to-AircraftModelDTO" style="stroke:#181818;stroke-width:1;"/><polygon fill="#181818" points="547.2,711.8483,542.6177,703.1304,543.2767,708.7487,537.6583,709.4077,547.2,711.8483" style="stroke:#181818;stroke-width:1;"/><polygon fill="#000000" points="498.2032,664.1533,492.928,656.2398,489.2841,660.8518,498.2032,664.1533" style="stroke:#000000;stroke-width:1;"/><text fill="#000000" font-family="sans-serif" font-size="13" lengthAdjust="spacing" textLength="45.5063" x="503.28" y="665.9666">returns</text></g><!--link AuthorizationService to User--><g class="link" data-entity-1="ent0009" data-entity-2="ent0013" data-link-type="dependency" data-source-line="120" id="lnk34"><path codeLine="120" d="M228.42,793.4283 C224.25,830.1783 217.9875,885.3166 213.1375,927.9966" fill="none" id="AuthorizationService-to-User" style="stroke:#181818;stroke-width:1;"/><polygon fill="#181818" points="212.46,933.9583,217.4506,925.4675,213.0245,928.9903,209.5018,924.5642,212.46,933.9583" style="stroke:#181818;stroke-width:1;"/><polygon fill="#000000" points="226.9058,855.2416,230.8466,846.5859,225.0063,845.9227,226.9058,855.2416" style="stroke:#000000;stroke-width:1;"/><text fill="#000000" font-family="sans-serif" font-size="13" lengthAdjust="spacing" textLength="42.853" x="236.47" y="855.1866">checks</text></g><!--reverse link User to Role--><g class="link" data-entity-1="ent0013" data-entity-2="ent0014" data-link-type="aggregation" data-source-line="121" id="lnk35"><path codeLine="121" d="M187.6252,1043.5688 C178.1352,1072.7188 169.89,1098.0483 160.94,1125.5383" fill="none" id="User-backto-Role" style="stroke:#181818;stroke-width:1;"/><polygon fill="none" points="191.34,1032.1583,185.6791,1036.6253,187.6252,1043.5688,193.2861,1039.1018,191.34,1032.1583" style="stroke:#181818;stroke-width:1;"/><text fill="#000000" font-family="sans-serif" font-size="13" lengthAdjust="spacing" textLength="8.2202" x="180.7132" y="1052.3501">1</text><text fill="#000000" font-family="sans-serif" font-size="13" lengthAdjust="spacing" textLength="22.7119" x="139.3205" y="1115.1429">1..*</text></g><!--reverse link Role to Permission--><g class="link" data-entity-1="ent0014" data-entity-2="ent0015" data-link-type="aggregation" data-source-line="122" id="lnk36"><path codeLine="122" d="M148,1219.0183 C148,1240.8383 148,1255.5183 148,1275.8683" fill="none" id="Role-backto-Permission" style="stroke:#181818;stroke-width:1;"/><polygon fill="none" points="148,1207.0183,144,1213.0183,148,1219.0183,152,1213.0183,148,1207.0183" style="stroke:#181818;stroke-width:1;"/><text fill="#000000" font-family="sans-serif" font-size="13" lengthAdjust="spacing" textLength="8.2202" x="139.3803" y="1227.2999">1</text><text fill="#000000" font-family="sans-serif" font-size="13" lengthAdjust="spacing" textLength="6.2651" x="141.4086" y="1265.2426">*</text></g><!--reverse link User to Email--><g class="link" data-entity-1="ent0013" data-entity-2="ent0023" data-link-type="composition" data-source-line="123" id="lnk37"><path codeLine="123" d="M252.6756,1041.5532 C278.1756,1073.6432 303.51,1105.5283 325.79,1133.5483" fill="none" id="User-backto-Email" style="stroke:#181818;stroke-width:1;"/><polygon fill="#181818" points="245.21,1032.1583,245.8112,1039.3443,252.6756,1041.5532,252.0744,1034.3672,245.21,1032.1583" style="stroke:#181818;stroke-width:1;"/></g><!--reverse link AircraftModel to AircraftEngineModel--><g class="link" data-entity-1="ent0016" data-entity-2="ent0017" data-link-type="aggregation" data-source-line="125" id="lnk38"><path codeLine="125" d="M615.5062,1067.2581 C603.2162,1087.5181 596.39,1098.7383 585.2,1117.1883" fill="none" id="AircraftModel-backto-AircraftEngineModel" style="stroke:#181818;stroke-width:1;"/><polygon fill="none" points="621.73,1056.9983,615.1982,1060.0536,615.5062,1067.2581,622.0381,1064.2028,621.73,1056.9983" style="stroke:#181818;stroke-width:1;"/><text fill="#000000" font-family="sans-serif" font-size="13" lengthAdjust="spacing" textLength="8.2202" x="609.2901" y="1077.0864">1</text><text fill="#000000" font-family="sans-serif" font-size="13" lengthAdjust="spacing" textLength="22.7119" x="565.8098" y="1106.8202">1..*</text></g><!--reverse link AircraftModel to AircraftModelName--><g class="link" data-entity-1="ent0016" data-entity-2="ent0019" data-link-type="composition" data-source-line="126" id="lnk39"><path codeLine="126" d="M722.6755,1066.9024 C740.9755,1093.6524 753.97,1112.6283 768.48,1133.8383" fill="none" id="AircraftModel-backto-AircraftModelName" style="stroke:#181818;stroke-width:1;"/><polygon fill="#181818" points="715.9,1056.9983,715.9864,1064.2089,722.6755,1066.9024,722.5892,1059.6918,715.9,1056.9983" style="stroke:#181818;stroke-width:1;"/></g><!--reverse link AircraftModel to AircraftType--><g class="link" data-entity-1="ent0016" data-entity-2="ent0020" data-link-type="composition" data-source-line="127" id="lnk40"><path codeLine="127" d="M799.3455,1063.0729 C831.9455,1082.5929 856.75,1097.6383 889,1117.5483 C897.41,1122.7383 906.3,1128.3083 914.9,1133.7583" fill="none" id="AircraftModel-backto-AircraftType" style="stroke:#181818;stroke-width:1;"/><polygon fill="#181818" points="789.05,1056.9083,792.1429,1063.4224,799.3455,1063.0729,796.2526,1056.5588,789.05,1056.9083" style="stroke:#181818;stroke-width:1;"/></g><!--reverse link AircraftEngineModel to EngineModelName--><g class="link" data-entity-1="ent0017" data-entity-2="ent0021" data-link-type="composition" data-source-line="128" id="lnk41"><path codeLine="128" d="M528.9813,1226.3622 C519.8713,1246.2922 514.55,1257.9283 506.43,1275.6983" fill="none" id="AircraftEngineModel-backto-EngineModelName" style="stroke:#181818;stroke-width:1;"/><polygon fill="#181818" points="533.97,1215.4483,527.8377,1219.2423,528.9813,1226.3622,535.1136,1222.5681,533.97,1215.4483" style="stroke:#181818;stroke-width:1;"/></g><!--reverse link AircraftEngineModel to EngineType--><g class="link" data-entity-1="ent0017" data-entity-2="ent0022" data-link-type="composition" data-source-line="129" id="lnk42"><path codeLine="129" d="M599.3377,1225.05 C614.2777,1244.98 624,1257.9283 637.33,1275.6983" fill="none" id="AircraftEngineModel-backto-EngineType" style="stroke:#181818;stroke-width:1;"/><polygon fill="#181818" points="592.14,1215.4483,592.5383,1222.6484,599.3377,1225.05,598.9394,1217.8499,592.14,1215.4483" style="stroke:#181818;stroke-width:1;"/></g><?plantuml-src lLR9Rjim4BthAmZteYnEqqDHG0WCfBOF1fecY9CFOAInJOGYLP9oeHJvzvAK9L4olSWDgeCjSUQzsSWPAg8eeEVvzTTlm_4a2EGhOHaME4KfPpnU2Pu2KY87HvBX-1KlOQuA3HKGAyoMr5MGAvpmtuGjqG9JwKfYYgMyLKgGbrp1BEPiJju0NGV1XXGDSdAbboMdC42V9lP1VmAa7mj6jqaoPKl2u8udG9_uBH6nm0jbFvzd6rtp315sPRCaGdDjcIqT3MYeFF8B7Twl7AIQO8N3CsSz8JAZkBW3ARNNOLh-LmGUpQaGNFZrteDt9tuTl1ASKX0dn3-kmKuUBX3UXmatCKRxgHzBhJEjvYvFdkuzGU0ieoJ6Yd1sGXHp46iIm_yFmNKmLoiko9kDmUSGaPKA964kGKJeMVzUeWn4IgJKi0WzrE_Qw0lNcnepZwqZdFwmVTsstCb3JokfaVp4ANXaCGX55WJSq6I4VX2fRahbaMVZ93p5PCUUCUbjEGXQbqPeQlwSPNq0eBBqgDz7JjLMM3Or2VkNol2rV63-w1lcofE6VxHDsmZta-ykNWj73XIhXJHBdge_5PcZQRwEB6u5SKIZza4UUz2XisCRiuw2higQawHTorEPTX_5RVLUcNLmdRoMNfLPdTRlsnwKiZ5FCzrwNWWbgdZWkfaMdUvJQL08MmUrKzrBz17fg0Dg9MEDQNx4_ZHnzi5rSjWVsjkWQI070MwR4f1nIHGNHRTL4QP0BB0U5fqkNW5QPLmGbdmlPadOx2jTZllC31rCRreKxY6IUBs_xEvfsSIwxPcJw7_pR-kessmTkgaDXwEZRpCHqYDMeb5mBE0WUJNJZsEkj2sjxseGeNW5yQjqEdylpXsR9T8tK9rsM8FyR8ekJo7rrzcXxaEwkp_LAOXTuSbPCDSHwsCkcF4myERTmEp5eBO-2kptuCi0yU5G_rzTdG_iu0xizAu5UhMPkoNeNA-NrucWFLqxR9xCTW26QNlCxjQnmy0tVQnBdQcoNyzI_GK0?></g></svg>