<?plantuml 1.2026.2?><svg xmlns="http://www.w3.org/2000/svg" xmlns:xlink="http://www.w3.org/1999/xlink" contentStyleType="text/css" data-diagram-type="SEQUENCE" height="925px" preserveAspectRatio="none" style="width:873px;height:925px;background:#FFFFFF;" version="1.1" viewBox="0 0 873 925" width="873px" zoomAndPan="magnify"><defs/><g><g><title>Air Transport Company Collaborator</title><rect fill="#FFFFFF" height="742.8555" style="stroke:#181818;stroke-width:1;" width="10" x="141.8433" y="91.4883"/></g><g><title>.System</title><rect fill="#FFFFFF" height="29.3105" style="stroke:#181818;stroke-width:1;" width="10" x="527.917" y="112.7988"/></g><g><title>.System</title><rect fill="#FFFFFF" height="662.9238" style="stroke:#181818;stroke-width:1;" width="10" x="527.917" y="171.4199"/></g><rect fill="none" height="133.1973" style="stroke:#000000;stroke-width:1.5;" width="762.6455" x="10" y="694.1465"/><g class="participant-lifeline" data-entity-uid="part1" data-qualified-name="ATCC" id="part1-lifeline"><g><title>Air Transport Company Collaborator</title><rect fill="#000000" fill-opacity="0.00000" height="762.8555" width="8" x="142.8433" y="81.4883"/><line style="stroke:#181818;stroke-width:0.5;stroke-dasharray:5,5;" x1="146" x2="146" y1="81.4883" y2="844.3438"/></g></g><g class="participant-lifeline" data-entity-uid="part2" data-qualified-name="System" id="part2-lifeline"><g><title>.System</title><rect fill="#000000" fill-opacity="0.00000" height="762.8555" width="8" x="528.917" y="81.4883"/><line style="stroke:#181818;stroke-width:0.5;stroke-dasharray:5,5;" x1="532.6533" x2="532.6533" y1="81.4883" y2="844.3438"/></g></g><g class="participant participant-head" data-entity-uid="part1" data-qualified-name="ATCC" id="part1-head"><text fill="#000000" font-family="sans-serif" font-size="14" lengthAdjust="spacing" textLength="247.6865" x="20" y="78.5352">Air Transport Company Collaborator</text><ellipse cx="146.8433" cy="13.5" fill="#E3E3E3" rx="8" ry="8" style="stroke:#181818;stroke-width:0.5;"/><path d="M146.8433,21.5 L146.8433,48.5 M133.8433,29.5 L159.8433,29.5 M146.8433,48.5 L133.8433,63.5 M146.8433,48.5 L159.8433,63.5" fill="none" style="stroke:#181818;stroke-width:0.5;"/></g><g class="participant participant-tail" data-entity-uid="part1" data-qualified-name="ATCC" id="part1-tail"><text fill="#000000" font-family="sans-serif" font-size="14" lengthAdjust="spacing" textLength="247.6865" x="20" y="856.8789">Air Transport Company Collaborator</text><ellipse cx="146.8433" cy="868.332" fill="#E3E3E3" rx="8" ry="8" style="stroke:#181818;stroke-width:0.5;"/><path d="M146.8433,876.332 L146.8433,903.332 M133.8433,884.332 L159.8433,884.332 M146.8433,903.332 L133.8433,918.332 M146.8433,903.332 L159.8433,918.332" fill="none" style="stroke:#181818;stroke-width:0.5;"/></g><g class="participant participant-head" data-entity-uid="part2" data-qualified-name="System" id="part2-head"><rect fill="#E3E3E3" height="30.4883" rx="2.5" ry="2.5" style="stroke:#181818;stroke-width:0.5;" width="66.5273" x="499.6533" y="50"/><text fill="#000000" font-family="sans-serif" font-size="14" lengthAdjust="spacing" textLength="52.5273" x="506.6533" y="70.5352">:System</text></g><g class="participant participant-tail" data-entity-uid="part2" data-qualified-name="System" id="part2-tail"><rect fill="#E3E3E3" height="30.4883" rx="2.5" ry="2.5" style="stroke:#181818;stroke-width:0.5;" width="66.5273" x="499.6533" y="843.3438"/><text fill="#000000" font-family="sans-serif" font-size="14" lengthAdjust="spacing" textLength="52.5273" x="506.6533" y="863.8789">:System</text></g><g><title>Air Transport Company Collaborator</title><rect fill="#FFFFFF" height="742.8555" style="stroke:#181818;stroke-width:1;" width="10" x="141.8433" y="91.4883"/></g><g><title>.System</title><rect fill="#FFFFFF" height="29.3105" style="stroke:#181818;stroke-width:1;" width="10" x="527.917" y="112.7988"/></g><g><title>.System</title><rect fill="#FFFFFF" height="662.9238" style="stroke:#181818;stroke-width:1;" width="10" x="527.917" y="171.4199"/></g><g class="message" data-entity-1="part1" data-entity-2="part2" id="msg1"><polygon fill="#181818" points="515.917,108.7988,525.917,112.7988,515.917,116.7988,519.917,112.7988" style="stroke:#181818;stroke-width:1;"/><line style="stroke:#181818;stroke-width:1;" x1="151.8433" x2="521.917" y1="112.7988" y2="112.7988"/><text fill="#000000" font-family="sans-serif" font-size="13" font-weight="bold" lengthAdjust="spacing" textLength="8.5757" x="193.4456" y="108.0566">1</text><text fill="#000000" font-family="sans-serif" font-size="13" lengthAdjust="spacing" textLength="280.2935" x="206.0212" y="108.0566">Requests to add an aircraft to company fleet</text></g><g class="message" data-entity-1="part2" data-entity-2="part1" id="msg2"><polygon fill="#181818" points="162.8433,138.1094,152.8433,142.1094,162.8433,146.1094,158.8433,142.1094" style="stroke:#181818;stroke-width:1;"/><line style="stroke:#181818;stroke-width:1;stroke-dasharray:2,2;" x1="156.8433" x2="531.917" y1="142.1094" y2="142.1094"/><text fill="#000000" font-family="sans-serif" font-size="13" font-weight="bold" lengthAdjust="spacing" textLength="8.5757" x="166.3433" y="137.3672">2</text><text fill="#000000" font-family="sans-serif" font-size="13" lengthAdjust="spacing" textLength="339.498" x="178.9189" y="137.3672">Requests aircraft data, model and cabin configuration</text></g><g class="message" data-entity-1="part1" data-entity-2="part2" id="msg3"><polygon fill="#181818" points="515.917,167.4199,525.917,171.4199,515.917,175.4199,519.917,171.4199" style="stroke:#181818;stroke-width:1;"/><line style="stroke:#181818;stroke-width:1;" x1="151.8433" x2="521.917" y1="171.4199" y2="171.4199"/><text fill="#000000" font-family="sans-serif" font-size="13" font-weight="bold" lengthAdjust="spacing" textLength="8.5757" x="266.7356" y="166.6777">3</text><text fill="#000000" font-family="sans-serif" font-size="13" lengthAdjust="spacing" textLength="133.7134" x="279.3113" y="166.6777">Provides aircraft data</text></g><g class="message" data-entity-1="part2" data-entity-2="part2" id="msg4"><line style="stroke:#181818;stroke-width:1;stroke-dasharray:2,2;" x1="537.917" x2="579.917" y1="200.7305" y2="200.7305"/><line style="stroke:#181818;stroke-width:1;stroke-dasharray:2,2;" x1="579.917" x2="579.917" y1="200.7305" y2="213.7305"/><line style="stroke:#181818;stroke-width:1;stroke-dasharray:2,2;" x1="538.917" x2="579.917" y1="213.7305" y2="213.7305"/><polygon fill="#181818" points="548.917,209.7305,538.917,213.7305,548.917,217.7305,544.917,213.7305" style="stroke:#181818;stroke-width:1;"/><text fill="#000000" font-family="sans-serif" font-size="13" font-weight="bold" lengthAdjust="spacing" textLength="8.5757" x="544.917" y="195.9883">4</text><text fill="#000000" font-family="sans-serif" font-size="13" lengthAdjust="spacing" textLength="218.2261" x="557.4927" y="195.9883">Check if collaborator is authorized</text></g><g class="message" data-entity-1="part2" data-entity-2="part2" id="msg5"><line style="stroke:#181818;stroke-width:1;stroke-dasharray:2,2;" x1="537.917" x2="579.917" y1="243.041" y2="243.041"/><line style="stroke:#181818;stroke-width:1;stroke-dasharray:2,2;" x1="579.917" x2="579.917" y1="243.041" y2="256.041"/><line style="stroke:#181818;stroke-width:1;stroke-dasharray:2,2;" x1="538.917" x2="579.917" y1="256.041" y2="256.041"/><polygon fill="#181818" points="548.917,252.041,538.917,256.041,548.917,260.041,544.917,256.041" style="stroke:#181818;stroke-width:1;"/><text fill="#000000" font-family="sans-serif" font-size="13" font-weight="bold" lengthAdjust="spacing" textLength="8.5757" x="544.917" y="238.2988">5</text><text fill="#000000" font-family="sans-serif" font-size="13" lengthAdjust="spacing" textLength="194.6636" x="557.4927" y="238.2988">Validate air transport company</text></g><g class="message" data-entity-1="part2" data-entity-2="part2" id="msg6"><line style="stroke:#181818;stroke-width:1;stroke-dasharray:2,2;" x1="537.917" x2="579.917" y1="285.3516" y2="285.3516"/><line style="stroke:#181818;stroke-width:1;stroke-dasharray:2,2;" x1="579.917" x2="579.917" y1="285.3516" y2="298.3516"/><line style="stroke:#181818;stroke-width:1;stroke-dasharray:2,2;" x1="538.917" x2="579.917" y1="298.3516" y2="298.3516"/><polygon fill="#181818" points="548.917,294.3516,538.917,298.3516,548.917,302.3516,544.917,298.3516" style="stroke:#181818;stroke-width:1;"/><text fill="#000000" font-family="sans-serif" font-size="13" font-weight="bold" lengthAdjust="spacing" textLength="8.5757" x="544.917" y="280.6094">6</text><text fill="#000000" font-family="sans-serif" font-size="13" lengthAdjust="spacing" textLength="263.6563" x="557.4927" y="280.6094">Check if collaborator belongs to company</text></g><g class="message" data-entity-1="part2" data-entity-2="part2" id="msg7"><line style="stroke:#181818;stroke-width:1;stroke-dasharray:2,2;" x1="537.917" x2="579.917" y1="327.6621" y2="327.6621"/><line style="stroke:#181818;stroke-width:1;stroke-dasharray:2,2;" x1="579.917" x2="579.917" y1="327.6621" y2="340.6621"/><line style="stroke:#181818;stroke-width:1;stroke-dasharray:2,2;" x1="538.917" x2="579.917" y1="340.6621" y2="340.6621"/><polygon fill="#181818" points="548.917,336.6621,538.917,340.6621,548.917,344.6621,544.917,340.6621" style="stroke:#181818;stroke-width:1;"/><text fill="#000000" font-family="sans-serif" font-size="13" font-weight="bold" lengthAdjust="spacing" textLength="8.5757" x="544.917" y="322.9199">7</text><text fill="#000000" font-family="sans-serif" font-size="13" lengthAdjust="spacing" textLength="143.2476" x="557.4927" y="322.9199">Validate aircraft model</text></g><g class="message" data-entity-1="part2" data-entity-2="part2" id="msg8"><line style="stroke:#181818;stroke-width:1;stroke-dasharray:2,2;" x1="537.917" x2="579.917" y1="369.9727" y2="369.9727"/><line style="stroke:#181818;stroke-width:1;stroke-dasharray:2,2;" x1="579.917" x2="579.917" y1="369.9727" y2="382.9727"/><line style="stroke:#181818;stroke-width:1;stroke-dasharray:2,2;" x1="538.917" x2="579.917" y1="382.9727" y2="382.9727"/><polygon fill="#181818" points="548.917,378.9727,538.917,382.9727,548.917,386.9727,544.917,382.9727" style="stroke:#181818;stroke-width:1;"/><text fill="#000000" font-family="sans-serif" font-size="13" font-weight="bold" lengthAdjust="spacing" textLength="8.5757" x="544.917" y="365.2305">8</text><text fill="#000000" font-family="sans-serif" font-size="13" lengthAdjust="spacing" textLength="185.9673" x="557.4927" y="365.2305">Validate engine configuration</text></g><g class="message" data-entity-1="part2" data-entity-2="part2" id="msg9"><line style="stroke:#181818;stroke-width:1;stroke-dasharray:2,2;" x1="537.917" x2="579.917" y1="412.2832" y2="412.2832"/><line style="stroke:#181818;stroke-width:1;stroke-dasharray:2,2;" x1="579.917" x2="579.917" y1="412.2832" y2="425.2832"/><line style="stroke:#181818;stroke-width:1;stroke-dasharray:2,2;" x1="538.917" x2="579.917" y1="425.2832" y2="425.2832"/><polygon fill="#181818" points="548.917,421.2832,538.917,425.2832,548.917,429.2832,544.917,425.2832" style="stroke:#181818;stroke-width:1;"/><text fill="#000000" font-family="sans-serif" font-size="13" font-weight="bold" lengthAdjust="spacing" textLength="8.5757" x="544.917" y="407.541">9</text><text fill="#000000" font-family="sans-serif" font-size="13" lengthAdjust="spacing" textLength="180.9907" x="557.4927" y="407.541">Validate registration number</text></g><g class="message" data-entity-1="part2" data-entity-2="part2" id="msg10"><line style="stroke:#181818;stroke-width:1;stroke-dasharray:2,2;" x1="537.917" x2="579.917" y1="454.5938" y2="454.5938"/><line style="stroke:#181818;stroke-width:1;stroke-dasharray:2,2;" x1="579.917" x2="579.917" y1="454.5938" y2="467.5938"/><line style="stroke:#181818;stroke-width:1;stroke-dasharray:2,2;" x1="538.917" x2="579.917" y1="467.5938" y2="467.5938"/><polygon fill="#181818" points="548.917,463.5938,538.917,467.5938,548.917,471.5938,544.917,467.5938" style="stroke:#181818;stroke-width:1;"/><text fill="#000000" font-family="sans-serif" font-size="13" font-weight="bold" lengthAdjust="spacing" textLength="17.1514" x="544.917" y="449.8516">10</text><text fill="#000000" font-family="sans-serif" font-size="13" lengthAdjust="spacing" textLength="244.9561" x="566.0684" y="449.8516">Check registration number uniqueness</text></g><g class="message" data-entity-1="part2" data-entity-2="part2" id="msg11"><line style="stroke:#181818;stroke-width:1;stroke-dasharray:2,2;" x1="537.917" x2="579.917" y1="496.9043" y2="496.9043"/><line style="stroke:#181818;stroke-width:1;stroke-dasharray:2,2;" x1="579.917" x2="579.917" y1="496.9043" y2="509.9043"/><line style="stroke:#181818;stroke-width:1;stroke-dasharray:2,2;" x1="538.917" x2="579.917" y1="509.9043" y2="509.9043"/><polygon fill="#181818" points="548.917,505.9043,538.917,509.9043,548.917,513.9043,544.917,509.9043" style="stroke:#181818;stroke-width:1;"/><text fill="#000000" font-family="sans-serif" font-size="13" font-weight="bold" lengthAdjust="spacing" textLength="17.1514" x="544.917" y="492.1621">11</text><text fill="#000000" font-family="sans-serif" font-size="13" lengthAdjust="spacing" textLength="170.5425" x="566.0684" y="492.1621">Validate registered country</text></g><g class="message" data-entity-1="part2" data-entity-2="part2" id="msg12"><line style="stroke:#181818;stroke-width:1;stroke-dasharray:2,2;" x1="537.917" x2="579.917" y1="539.2148" y2="539.2148"/><line style="stroke:#181818;stroke-width:1;stroke-dasharray:2,2;" x1="579.917" x2="579.917" y1="539.2148" y2="552.2148"/><line style="stroke:#181818;stroke-width:1;stroke-dasharray:2,2;" x1="538.917" x2="579.917" y1="552.2148" y2="552.2148"/><polygon fill="#181818" points="548.917,548.2148,538.917,552.2148,548.917,556.2148,544.917,552.2148" style="stroke:#181818;stroke-width:1;"/><text fill="#000000" font-family="sans-serif" font-size="13" font-weight="bold" lengthAdjust="spacing" textLength="17.1514" x="544.917" y="534.4727">12</text><text fill="#000000" font-family="sans-serif" font-size="13" lengthAdjust="spacing" textLength="177.3281" x="566.0684" y="534.4727">Validate cabin configuration</text></g><g class="message" data-entity-1="part2" data-entity-2="part2" id="msg13"><line style="stroke:#181818;stroke-width:1;stroke-dasharray:2,2;" x1="537.917" x2="579.917" y1="581.5254" y2="581.5254"/><line style="stroke:#181818;stroke-width:1;stroke-dasharray:2,2;" x1="579.917" x2="579.917" y1="581.5254" y2="594.5254"/><line style="stroke:#181818;stroke-width:1;stroke-dasharray:2,2;" x1="538.917" x2="579.917" y1="594.5254" y2="594.5254"/><polygon fill="#181818" points="548.917,590.5254,538.917,594.5254,548.917,598.5254,544.917,594.5254" style="stroke:#181818;stroke-width:1;"/><text fill="#000000" font-family="sans-serif" font-size="13" font-weight="bold" lengthAdjust="spacing" textLength="17.1514" x="544.917" y="576.7832">13</text><text fill="#000000" font-family="sans-serif" font-size="13" lengthAdjust="spacing" textLength="300.7393" x="566.0684" y="576.7832">Check total seats do not exceed model capacity</text></g><g class="message" data-entity-1="part2" data-entity-2="part2" id="msg14"><line style="stroke:#181818;stroke-width:1;stroke-dasharray:2,2;" x1="537.917" x2="579.917" y1="623.8359" y2="623.8359"/><line style="stroke:#181818;stroke-width:1;stroke-dasharray:2,2;" x1="579.917" x2="579.917" y1="623.8359" y2="636.8359"/><line style="stroke:#181818;stroke-width:1;stroke-dasharray:2,2;" x1="538.917" x2="579.917" y1="636.8359" y2="636.8359"/><polygon fill="#181818" points="548.917,632.8359,538.917,636.8359,548.917,640.8359,544.917,636.8359" style="stroke:#181818;stroke-width:1;"/><text fill="#000000" font-family="sans-serif" font-size="13" font-weight="bold" lengthAdjust="spacing" textLength="17.1514" x="544.917" y="619.0938">14</text><text fill="#000000" font-family="sans-serif" font-size="13" lengthAdjust="spacing" textLength="254.4648" x="566.0684" y="619.0938">Validate number of flight crew members</text></g><g class="message" data-entity-1="part2" data-entity-2="part2" id="msg15"><line style="stroke:#181818;stroke-width:1;stroke-dasharray:2,2;" x1="537.917" x2="579.917" y1="666.1465" y2="666.1465"/><line style="stroke:#181818;stroke-width:1;stroke-dasharray:2,2;" x1="579.917" x2="579.917" y1="666.1465" y2="679.1465"/><line style="stroke:#181818;stroke-width:1;stroke-dasharray:2,2;" x1="538.917" x2="579.917" y1="679.1465" y2="679.1465"/><polygon fill="#181818" points="548.917,675.1465,538.917,679.1465,548.917,683.1465,544.917,679.1465" style="stroke:#181818;stroke-width:1;"/><text fill="#000000" font-family="sans-serif" font-size="13" font-weight="bold" lengthAdjust="spacing" textLength="17.1514" x="544.917" y="661.4043">15</text><text fill="#000000" font-family="sans-serif" font-size="13" lengthAdjust="spacing" textLength="168.6318" x="566.0684" y="661.4043">Validate operational status</text></g><path d="M10,694.1465 L72.1387,694.1465 L72.1387,701.457 L62.1387,711.457 L10,711.457 L10,694.1465" fill="#EEEEEE" style="stroke:#000000;stroke-width:1.5;"/><rect fill="none" height="133.1973" style="stroke:#000000;stroke-width:1.5;" width="762.6455" x="10" y="694.1465"/><text fill="#000000" font-family="sans-serif" font-size="13" font-weight="bold" lengthAdjust="spacing" textLength="17.1387" x="25" y="707.7148">alt</text><text fill="#000000" font-family="sans-serif" font-size="11" font-weight="bold" lengthAdjust="spacing" textLength="122.3267" x="87.1387" y="706.7813">[aircraft data is valid]</text><g class="message" data-entity-1="part2" data-entity-2="part2" id="msg16"><line style="stroke:#181818;stroke-width:1;stroke-dasharray:2,2;" x1="537.917" x2="579.917" y1="732.7676" y2="732.7676"/><line style="stroke:#181818;stroke-width:1;stroke-dasharray:2,2;" x1="579.917" x2="579.917" y1="732.7676" y2="745.7676"/><line style="stroke:#181818;stroke-width:1;stroke-dasharray:2,2;" x1="538.917" x2="579.917" y1="745.7676" y2="745.7676"/><polygon fill="#181818" points="548.917,741.7676,538.917,745.7676,548.917,749.7676,544.917,745.7676" style="stroke:#181818;stroke-width:1;"/><text fill="#000000" font-family="sans-serif" font-size="13" font-weight="bold" lengthAdjust="spacing" textLength="17.1514" x="544.917" y="728.0254">16</text><text fill="#000000" font-family="sans-serif" font-size="13" lengthAdjust="spacing" textLength="184.5771" x="566.0684" y="728.0254">Add aircraft to company fleet</text></g><g class="message" data-entity-1="part2" data-entity-2="part1" id="msg17"><polygon fill="#181818" points="162.8433,771.0781,152.8433,775.0781,162.8433,779.0781,158.8433,775.0781" style="stroke:#181818;stroke-width:1;"/><line style="stroke:#181818;stroke-width:1;stroke-dasharray:2,2;" x1="156.8433" x2="526.917" y1="775.0781" y2="775.0781"/><text fill="#000000" font-family="sans-serif" font-size="13" font-weight="bold" lengthAdjust="spacing" textLength="17.1514" x="244.4521" y="770.3359">17</text><text fill="#000000" font-family="sans-serif" font-size="13" lengthAdjust="spacing" textLength="169.7046" x="265.6035" y="770.3359">Aircraft added successfully</text></g><line style="stroke:#000000;stroke-width:1;stroke-dasharray:2,2;" x1="10" x2="772.6455" y1="784.0781" y2="784.0781"/><text fill="#000000" font-family="sans-serif" font-size="11" font-weight="bold" lengthAdjust="spacing" textLength="133.1279" x="15" y="794.7129">[aircraft data is invalid]</text><g class="message" data-entity-1="part2" data-entity-2="part1" id="msg18"><polygon fill="#181818" points="162.8433,815.3438,152.8433,819.3438,162.8433,823.3438,158.8433,819.3438" style="stroke:#181818;stroke-width:1;"/><line style="stroke:#181818;stroke-width:1;stroke-dasharray:2,2;" x1="156.8433" x2="526.917" y1="819.3438" y2="819.3438"/><text fill="#000000" font-family="sans-serif" font-size="13" font-weight="bold" lengthAdjust="spacing" textLength="17.1514" x="259.001" y="814.6016">18</text><text fill="#000000" font-family="sans-serif" font-size="13" lengthAdjust="spacing" textLength="140.6069" x="280.1523" y="814.6016">Display error message</text></g><?plantuml-src bLHDRzim3BtxLn0zht-WXm51TXqmhCNkZ4GxH6JIawXqsQyV7RjPcZh9veDjYEHx_7XKsR4CcB67NaN3DcjFOBbIKqwM0SCEEtgsGoB850obI-SEPOjHNrawQ36LTnRwMKa2VQLI76ALk1C894QvmMegjT_uRuF1DCF3YZEyP9GoQ3POQp-W7FoR4cuqe_iy01POlQpNZHCO1tOFWuUdvqCnwe_MwVU8oNiqcjoRyGsFdsSpFC7tCRTY1Km1OmGKGCuXOslZKPZPsqHaPsWp_0ppw8X7v3Ey4qf4mq_Us4Z9qIC4tB2Nhz9oLxqSLcaYNI9_pFHRrZr7ka2-cTCfThsbi0DkdVPl5u4TgzfMC_-ck1Zt0nF74TivNH1lCvcxyXzK6qegNJbhwLs-gSPZtsxxadGiTD7Hcn6PEYusUSAilkkrB7X35HurxOB-5oRAv7FNAfRlrBqaZkkPcHecNozqlKK5KGFw5SZ99ha5zArbkyCvbwIjgvoxhOytqolqD9xUAKy7cf8Sqp2qMboFoTvBTDJPVenem9yblDMuU5UtxY9gNhJLcxzlhHTSQWW-ZRQcT6Z8xv-FER0iPZ7ZVU4o93m0vUnwxQUhgY69pS9sdfqSxvK_?></g></svg>