<?plantuml 1.2026.2?><svg xmlns="http://www.w3.org/2000/svg" xmlns:xlink="http://www.w3.org/1999/xlink" contentStyleType="text/css" data-diagram-type="SEQUENCE" height="629px" preserveAspectRatio="none" style="width:663px;height:629px;background:#FFFFFF;" version="1.1" viewBox="0 0 663 629" width="663px" zoomAndPan="magnify"><defs/><g><g><title>Weather Person</title><rect fill="#FFFFFF" height="446.6816" style="stroke:#181818;stroke-width:1;" width="10" x="70.541" y="91.4883"/></g><g><title>.System</title><rect fill="#FFFFFF" height="29.3105" style="stroke:#181818;stroke-width:1;" width="10" x="387.4443" y="112.7988"/></g><g><title>.System</title><rect fill="#FFFFFF" height="366.75" style="stroke:#181818;stroke-width:1;" width="10" x="387.4443" y="171.4199"/></g><rect fill="none" height="133.1973" style="stroke:#000000;stroke-width:1.5;" width="565.958" x="10" y="397.9727"/><g class="participant-lifeline" data-entity-uid="part1" data-qualified-name="WeatherPerson" id="part1-lifeline"><g><title>Weather Person</title><rect fill="#000000" fill-opacity="0.00000" height="466.6816" width="8" x="71.541" y="81.4883"/><line style="stroke:#181818;stroke-width:0.5;stroke-dasharray:5,5;" x1="75" x2="75" y1="81.4883" y2="548.1699"/></g></g><g class="participant-lifeline" data-entity-uid="part2" data-qualified-name="System" id="part2-lifeline"><g><title>.System</title><rect fill="#000000" fill-opacity="0.00000" height="466.6816" width="8" x="388.4443" y="81.4883"/><line style="stroke:#181818;stroke-width:0.5;stroke-dasharray:5,5;" x1="392.1807" x2="392.1807" y1="81.4883" y2="548.1699"/></g></g><g class="participant participant-head" data-entity-uid="part1" data-qualified-name="WeatherPerson" id="part1-head"><text fill="#000000" font-family="sans-serif" font-size="14" lengthAdjust="spacing" textLength="105.082" x="20" y="78.5352">Weather Person</text><ellipse cx="75.541" cy="13.5" fill="#E3E3E3" rx="8" ry="8" style="stroke:#181818;stroke-width:0.5;"/><path d="M75.541,21.5 L75.541,48.5 M62.541,29.5 L88.541,29.5 M75.541,48.5 L62.541,63.5 M75.541,48.5 L88.541,63.5" fill="none" style="stroke:#181818;stroke-width:0.5;"/></g><g class="participant participant-tail" data-entity-uid="part1" data-qualified-name="WeatherPerson" id="part1-tail"><text fill="#000000" font-family="sans-serif" font-size="14" lengthAdjust="spacing" textLength="105.082" x="20" y="560.7051">Weather Person</text><ellipse cx="75.541" cy="572.1582" fill="#E3E3E3" rx="8" ry="8" style="stroke:#181818;stroke-width:0.5;"/><path d="M75.541,580.1582 L75.541,607.1582 M62.541,588.1582 L88.541,588.1582 M75.541,607.1582 L62.541,622.1582 M75.541,607.1582 L88.541,622.1582" fill="none" style="stroke:#181818;stroke-width:0.5;"/></g><g class="participant participant-head" data-entity-uid="part2" data-qualified-name="System" id="part2-head"><rect fill="#E3E3E3" height="30.4883" rx="2.5" ry="2.5" style="stroke:#181818;stroke-width:0.5;" width="66.5273" x="359.1807" y="50"/><text fill="#000000" font-family="sans-serif" font-size="14" lengthAdjust="spacing" textLength="52.5273" x="366.1807" y="70.5352">:System</text></g><g class="participant participant-tail" data-entity-uid="part2" data-qualified-name="System" id="part2-tail"><rect fill="#E3E3E3" height="30.4883" rx="2.5" ry="2.5" style="stroke:#181818;stroke-width:0.5;" width="66.5273" x="359.1807" y="547.1699"/><text fill="#000000" font-family="sans-serif" font-size="14" lengthAdjust="spacing" textLength="52.5273" x="366.1807" y="567.7051">:System</text></g><g><title>Weather Person</title><rect fill="#FFFFFF" height="446.6816" style="stroke:#181818;stroke-width:1;" width="10" x="70.541" y="91.4883"/></g><g><title>.System</title><rect fill="#FFFFFF" height="29.3105" style="stroke:#181818;stroke-width:1;" width="10" x="387.4443" y="112.7988"/></g><g><title>.System</title><rect fill="#FFFFFF" height="366.75" style="stroke:#181818;stroke-width:1;" width="10" x="387.4443" y="171.4199"/></g><g class="message" data-entity-1="part1" data-entity-2="part2" id="msg1"><polygon fill="#181818" points="375.4443,108.7988,385.4443,112.7988,375.4443,116.7988,379.4443,112.7988" style="stroke:#181818;stroke-width:1;"/><line style="stroke:#181818;stroke-width:1;" x1="80.541" x2="381.4443" y1="112.7988" y2="112.7988"/><text fill="#000000" font-family="sans-serif" font-size="13" font-weight="bold" lengthAdjust="spacing" textLength="8.5757" x="121.6133" y="108.0566">1</text><text fill="#000000" font-family="sans-serif" font-size="13" lengthAdjust="spacing" textLength="212.1831" x="134.189" y="108.0566">Requests to register weather data</text></g><g class="message" data-entity-1="part2" data-entity-2="part1" id="msg2"><polygon fill="#181818" points="91.541,138.1094,81.541,142.1094,91.541,146.1094,87.541,142.1094" style="stroke:#181818;stroke-width:1;"/><line style="stroke:#181818;stroke-width:1;stroke-dasharray:2,2;" x1="85.541" x2="391.4443" y1="142.1094" y2="142.1094"/><text fill="#000000" font-family="sans-serif" font-size="13" font-weight="bold" lengthAdjust="spacing" textLength="8.5757" x="95.041" y="137.3672">2</text><text fill="#000000" font-family="sans-serif" font-size="13" lengthAdjust="spacing" textLength="270.3276" x="107.6167" y="137.3672">Requests air control area and weather data</text></g><g class="message" data-entity-1="part1" data-entity-2="part2" id="msg3"><polygon fill="#181818" points="375.4443,167.4199,385.4443,171.4199,375.4443,175.4199,379.4443,171.4199" style="stroke:#181818;stroke-width:1;"/><line style="stroke:#181818;stroke-width:1;" x1="80.541" x2="381.4443" y1="171.4199" y2="171.4199"/><text fill="#000000" font-family="sans-serif" font-size="13" font-weight="bold" lengthAdjust="spacing" textLength="8.5757" x="94.5627" y="166.6777">3</text><text fill="#000000" font-family="sans-serif" font-size="13" lengthAdjust="spacing" textLength="266.2842" x="107.1384" y="166.6777">Provides air control area and weather data</text></g><g class="message" data-entity-1="part2" data-entity-2="part2" id="msg4"><line style="stroke:#181818;stroke-width:1;stroke-dasharray:2,2;" x1="397.4443" x2="439.4443" y1="200.7305" y2="200.7305"/><line style="stroke:#181818;stroke-width:1;stroke-dasharray:2,2;" x1="439.4443" x2="439.4443" y1="200.7305" y2="213.7305"/><line style="stroke:#181818;stroke-width:1;stroke-dasharray:2,2;" x1="398.4443" x2="439.4443" y1="213.7305" y2="213.7305"/><polygon fill="#181818" points="408.4443,209.7305,398.4443,213.7305,408.4443,217.7305,404.4443,213.7305" style="stroke:#181818;stroke-width:1;"/><text fill="#000000" font-family="sans-serif" font-size="13" font-weight="bold" lengthAdjust="spacing" textLength="8.5757" x="404.4443" y="195.9883">4</text><text fill="#000000" font-family="sans-serif" font-size="13" lengthAdjust="spacing" textLength="239.6304" x="417.02" y="195.9883">Check if Weather Person is authorized</text></g><g class="message" data-entity-1="part2" data-entity-2="part2" id="msg5"><line style="stroke:#181818;stroke-width:1;stroke-dasharray:2,2;" x1="397.4443" x2="439.4443" y1="243.041" y2="243.041"/><line style="stroke:#181818;stroke-width:1;stroke-dasharray:2,2;" x1="439.4443" x2="439.4443" y1="243.041" y2="256.041"/><line style="stroke:#181818;stroke-width:1;stroke-dasharray:2,2;" x1="398.4443" x2="439.4443" y1="256.041" y2="256.041"/><polygon fill="#181818" points="408.4443,252.041,398.4443,256.041,408.4443,260.041,404.4443,256.041" style="stroke:#181818;stroke-width:1;"/><text fill="#000000" font-family="sans-serif" font-size="13" font-weight="bold" lengthAdjust="spacing" textLength="8.5757" x="404.4443" y="238.2988">5</text><text fill="#000000" font-family="sans-serif" font-size="13" lengthAdjust="spacing" textLength="150.814" x="417.02" y="238.2988">Validate air control area</text></g><g class="message" data-entity-1="part2" data-entity-2="part2" id="msg6"><line style="stroke:#181818;stroke-width:1;stroke-dasharray:2,2;" x1="397.4443" x2="439.4443" y1="285.3516" y2="285.3516"/><line style="stroke:#181818;stroke-width:1;stroke-dasharray:2,2;" x1="439.4443" x2="439.4443" y1="285.3516" y2="298.3516"/><line style="stroke:#181818;stroke-width:1;stroke-dasharray:2,2;" x1="398.4443" x2="439.4443" y1="298.3516" y2="298.3516"/><polygon fill="#181818" points="408.4443,294.3516,398.4443,298.3516,408.4443,302.3516,404.4443,298.3516" style="stroke:#181818;stroke-width:1;"/><text fill="#000000" font-family="sans-serif" font-size="13" font-weight="bold" lengthAdjust="spacing" textLength="8.5757" x="404.4443" y="280.6094">6</text><text fill="#000000" font-family="sans-serif" font-size="13" lengthAdjust="spacing" textLength="193.6479" x="417.02" y="280.6094">Validate required weather data</text></g><g class="message" data-entity-1="part2" data-entity-2="part2" id="msg7"><line style="stroke:#181818;stroke-width:1;stroke-dasharray:2,2;" x1="397.4443" x2="439.4443" y1="327.6621" y2="327.6621"/><line style="stroke:#181818;stroke-width:1;stroke-dasharray:2,2;" x1="439.4443" x2="439.4443" y1="327.6621" y2="340.6621"/><line style="stroke:#181818;stroke-width:1;stroke-dasharray:2,2;" x1="398.4443" x2="439.4443" y1="340.6621" y2="340.6621"/><polygon fill="#181818" points="408.4443,336.6621,398.4443,340.6621,408.4443,344.6621,404.4443,340.6621" style="stroke:#181818;stroke-width:1;"/><text fill="#000000" font-family="sans-serif" font-size="13" font-weight="bold" lengthAdjust="spacing" textLength="8.5757" x="404.4443" y="322.9199">7</text><text fill="#000000" font-family="sans-serif" font-size="13" lengthAdjust="spacing" textLength="144.7456" x="417.02" y="322.9199">Validate wind direction</text></g><g class="message" data-entity-1="part2" data-entity-2="part2" id="msg8"><line style="stroke:#181818;stroke-width:1;stroke-dasharray:2,2;" x1="397.4443" x2="439.4443" y1="369.9727" y2="369.9727"/><line style="stroke:#181818;stroke-width:1;stroke-dasharray:2,2;" x1="439.4443" x2="439.4443" y1="369.9727" y2="382.9727"/><line style="stroke:#181818;stroke-width:1;stroke-dasharray:2,2;" x1="398.4443" x2="439.4443" y1="382.9727" y2="382.9727"/><polygon fill="#181818" points="408.4443,378.9727,398.4443,382.9727,408.4443,386.9727,404.4443,382.9727" style="stroke:#181818;stroke-width:1;"/><text fill="#000000" font-family="sans-serif" font-size="13" font-weight="bold" lengthAdjust="spacing" textLength="8.5757" x="404.4443" y="365.2305">8</text><text fill="#000000" font-family="sans-serif" font-size="13" lengthAdjust="spacing" textLength="126.3882" x="417.02" y="365.2305">Validate wind speed</text></g><path d="M10,397.9727 L72.1387,397.9727 L72.1387,405.2832 L62.1387,415.2832 L10,415.2832 L10,397.9727" fill="#EEEEEE" style="stroke:#000000;stroke-width:1.5;"/><rect fill="none" height="133.1973" style="stroke:#000000;stroke-width:1.5;" width="565.958" x="10" y="397.9727"/><text fill="#000000" font-family="sans-serif" font-size="13" font-weight="bold" lengthAdjust="spacing" textLength="17.1387" x="25" y="411.541">alt</text><text fill="#000000" font-family="sans-serif" font-size="11" font-weight="bold" lengthAdjust="spacing" textLength="126.4731" x="87.1387" y="410.6074">[weather data is valid]</text><g class="message" data-entity-1="part2" data-entity-2="part2" id="msg9"><line style="stroke:#181818;stroke-width:1;stroke-dasharray:2,2;" x1="397.4443" x2="439.4443" y1="436.5938" y2="436.5938"/><line style="stroke:#181818;stroke-width:1;stroke-dasharray:2,2;" x1="439.4443" x2="439.4443" y1="436.5938" y2="449.5938"/><line style="stroke:#181818;stroke-width:1;stroke-dasharray:2,2;" x1="398.4443" x2="439.4443" y1="449.5938" y2="449.5938"/><polygon fill="#181818" points="408.4443,445.5938,398.4443,449.5938,408.4443,453.5938,404.4443,449.5938" style="stroke:#181818;stroke-width:1;"/><text fill="#000000" font-family="sans-serif" font-size="13" font-weight="bold" lengthAdjust="spacing" textLength="8.5757" x="404.4443" y="431.8516">9</text><text fill="#000000" font-family="sans-serif" font-size="13" lengthAdjust="spacing" textLength="136.938" x="417.02" y="431.8516">Register weather data</text></g><g class="message" data-entity-1="part2" data-entity-2="part1" id="msg10"><polygon fill="#181818" points="91.541,474.9043,81.541,478.9043,91.541,482.9043,87.541,478.9043" style="stroke:#181818;stroke-width:1;"/><line style="stroke:#181818;stroke-width:1;stroke-dasharray:2,2;" x1="85.541" x2="386.4443" y1="478.9043" y2="478.9043"/><text fill="#000000" font-family="sans-serif" font-size="13" font-weight="bold" lengthAdjust="spacing" textLength="17.1514" x="108.2451" y="474.1621">10</text><text fill="#000000" font-family="sans-serif" font-size="13" lengthAdjust="spacing" textLength="230.3438" x="129.3965" y="474.1621">Weather data registered successfully</text></g><line style="stroke:#000000;stroke-width:1;stroke-dasharray:2,2;" x1="10" x2="575.958" y1="487.9043" y2="487.9043"/><text fill="#000000" font-family="sans-serif" font-size="11" font-weight="bold" lengthAdjust="spacing" textLength="137.2744" x="15" y="498.5391">[weather data is invalid]</text><g class="message" data-entity-1="part2" data-entity-2="part1" id="msg11"><polygon fill="#181818" points="91.541,519.1699,81.541,523.1699,91.541,527.1699,87.541,523.1699" style="stroke:#181818;stroke-width:1;"/><line style="stroke:#181818;stroke-width:1;stroke-dasharray:2,2;" x1="85.541" x2="386.4443" y1="523.1699" y2="523.1699"/><text fill="#000000" font-family="sans-serif" font-size="13" font-weight="bold" lengthAdjust="spacing" textLength="17.1514" x="153.1135" y="518.4277">11</text><text fill="#000000" font-family="sans-serif" font-size="13" lengthAdjust="spacing" textLength="140.6069" x="174.2649" y="518.4277">Display error message</text></g><?plantuml-src ZPF1Ri8m38RlUGgBEo_0OTAqNISXaBQpbvZM8aqwnmMnfvyB7MeBOkifTUpFlsExx3crADX0arFsjUI6GAKZLwutBVezLhJLKoGGyegfYcE7KcF8HquLx32MoGrzTPGylL4fXdYEN2Nmb9J4OQSvTSsd7HrwpGAB3qAjIM1DKd9Q01OOJ1UBCwgovnQJmcArFHMbvknsEPv1V42bMPoR_CBoQGY05MnwYKKBQBRYAZQpm74G4b1n11so3B5Bmqov8ngoWCz99KT08GHCOOeDDES-KBcMVE10_-4-adlblTJazy0xc3uvi6NejCx2tnJkHhvZvD3JvqeUUuiz30lDj3uCiOaA4BYVEBOU_krRMZBH3gDEilH57Nf71_RTmspkzdtcFM_rnpZ5x-HOWQNptiPzryLuScJxS2E6qrqvymIlNDg89o0HMuxciaAEafLuEpiZotJqVm00?></g></svg>