<?plantuml 1.2026.2?><svg xmlns="http://www.w3.org/2000/svg" xmlns:xlink="http://www.w3.org/1999/xlink" contentStyleType="text/css" data-diagram-type="SEQUENCE" height="713px" preserveAspectRatio="none" style="width:836px;height:713px;background:#FFFFFF;" version="1.1" viewBox="0 0 836 713" width="836px" zoomAndPan="magnify"><defs/><g><g><title>Backoffice Operator</title><rect fill="#FFFFFF" height="531.3027" style="stroke:#181818;stroke-width:1;" width="10" x="84.9956" y="91.4883"/></g><g><title>.System</title><rect fill="#FFFFFF" height="29.3105" style="stroke:#181818;stroke-width:1;" width="10" x="486.2212" y="112.7988"/></g><g><title>.System</title><rect fill="#FFFFFF" height="451.3711" style="stroke:#181818;stroke-width:1;" width="10" x="486.2212" y="171.4199"/></g><rect fill="none" height="133.1973" style="stroke:#000000;stroke-width:1.5;" width="680.3374" x="10" y="482.5938"/><g class="participant-lifeline" data-entity-uid="part1" data-qualified-name="BackofficeOperator" id="part1-lifeline"><g><title>Backoffice Operator</title><rect fill="#000000" fill-opacity="0.00000" height="551.3027" width="8" x="85.9956" y="81.4883"/><line style="stroke:#181818;stroke-width:0.5;stroke-dasharray:5,5;" x1="89" x2="89" y1="81.4883" y2="632.791"/></g></g><g class="participant-lifeline" data-entity-uid="part2" data-qualified-name="System" id="part2-lifeline"><g><title>.System</title><rect fill="#000000" fill-opacity="0.00000" height="551.3027" width="8" x="487.2212" y="81.4883"/><line style="stroke:#181818;stroke-width:0.5;stroke-dasharray:5,5;" x1="490.9575" x2="490.9575" y1="81.4883" y2="632.791"/></g></g><g class="participant participant-head" data-entity-uid="part1" data-qualified-name="BackofficeOperator" id="part1-head"><text fill="#000000" font-family="sans-serif" font-size="14" lengthAdjust="spacing" textLength="133.9912" x="20" y="78.5352">Backoffice Operator</text><ellipse cx="89.9956" cy="13.5" fill="#E3E3E3" rx="8" ry="8" style="stroke:#181818;stroke-width:0.5;"/><path d="M89.9956,21.5 L89.9956,48.5 M76.9956,29.5 L102.9956,29.5 M89.9956,48.5 L76.9956,63.5 M89.9956,48.5 L102.9956,63.5" fill="none" style="stroke:#181818;stroke-width:0.5;"/></g><g class="participant participant-tail" data-entity-uid="part1" data-qualified-name="BackofficeOperator" id="part1-tail"><text fill="#000000" font-family="sans-serif" font-size="14" lengthAdjust="spacing" textLength="133.9912" x="20" y="645.3262">Backoffice Operator</text><ellipse cx="89.9956" cy="656.7793" fill="#E3E3E3" rx="8" ry="8" style="stroke:#181818;stroke-width:0.5;"/><path d="M89.9956,664.7793 L89.9956,691.7793 M76.9956,672.7793 L102.9956,672.7793 M89.9956,691.7793 L76.9956,706.7793 M89.9956,691.7793 L102.9956,706.7793" fill="none" style="stroke:#181818;stroke-width:0.5;"/></g><g class="participant participant-head" data-entity-uid="part2" data-qualified-name="System" id="part2-head"><rect fill="#E3E3E3" height="30.4883" rx="2.5" ry="2.5" style="stroke:#181818;stroke-width:0.5;" width="66.5273" x="457.9575" y="50"/><text fill="#000000" font-family="sans-serif" font-size="14" lengthAdjust="spacing" textLength="52.5273" x="464.9575" y="70.5352">:System</text></g><g class="participant participant-tail" data-entity-uid="part2" data-qualified-name="System" id="part2-tail"><rect fill="#E3E3E3" height="30.4883" rx="2.5" ry="2.5" style="stroke:#181818;stroke-width:0.5;" width="66.5273" x="457.9575" y="631.791"/><text fill="#000000" font-family="sans-serif" font-size="14" lengthAdjust="spacing" textLength="52.5273" x="464.9575" y="652.3262">:System</text></g><g><title>Backoffice Operator</title><rect fill="#FFFFFF" height="531.3027" style="stroke:#181818;stroke-width:1;" width="10" x="84.9956" y="91.4883"/></g><g><title>.System</title><rect fill="#FFFFFF" height="29.3105" style="stroke:#181818;stroke-width:1;" width="10" x="486.2212" y="112.7988"/></g><g><title>.System</title><rect fill="#FFFFFF" height="451.3711" style="stroke:#181818;stroke-width:1;" width="10" x="486.2212" y="171.4199"/></g><g class="message" data-entity-1="part1" data-entity-2="part2" id="msg1"><polygon fill="#181818" points="474.2212,108.7988,484.2212,112.7988,474.2212,116.7988,478.2212,112.7988" style="stroke:#181818;stroke-width:1;"/><line style="stroke:#181818;stroke-width:1;" x1="94.9956" x2="480.2212" y1="112.7988" y2="112.7988"/><text fill="#000000" font-family="sans-serif" font-size="13" font-weight="bold" lengthAdjust="spacing" textLength="8.5757" x="165.0354" y="108.0566">1</text><text fill="#000000" font-family="sans-serif" font-size="13" lengthAdjust="spacing" textLength="238.5703" x="177.6111" y="108.0566">Requests to register an aircraft model</text></g><g class="message" data-entity-1="part2" data-entity-2="part1" id="msg2"><polygon fill="#181818" points="105.9956,138.1094,95.9956,142.1094,105.9956,146.1094,101.9956,142.1094" style="stroke:#181818;stroke-width:1;"/><line style="stroke:#181818;stroke-width:1;stroke-dasharray:2,2;" x1="99.9956" x2="490.2212" y1="142.1094" y2="142.1094"/><text fill="#000000" font-family="sans-serif" font-size="13" font-weight="bold" lengthAdjust="spacing" textLength="8.5757" x="109.4956" y="137.3672">2</text><text fill="#000000" font-family="sans-serif" font-size="13" lengthAdjust="spacing" textLength="354.6499" x="122.0713" y="137.3672">Requests aircraft model data and certified engine model</text></g><g class="message" data-entity-1="part1" data-entity-2="part2" id="msg3"><polygon fill="#181818" points="474.2212,167.4199,484.2212,171.4199,474.2212,175.4199,478.2212,171.4199" style="stroke:#181818;stroke-width:1;"/><line style="stroke:#181818;stroke-width:1;" x1="94.9956" x2="480.2212" y1="171.4199" y2="171.4199"/><text fill="#000000" font-family="sans-serif" font-size="13" font-weight="bold" lengthAdjust="spacing" textLength="8.5757" x="195.7549" y="166.6777">3</text><text fill="#000000" font-family="sans-serif" font-size="13" lengthAdjust="spacing" textLength="177.1313" x="208.3306" y="166.6777">Provides aircraft model data</text></g><g class="message" data-entity-1="part2" data-entity-2="part2" id="msg4"><line style="stroke:#181818;stroke-width:1;stroke-dasharray:2,2;" x1="496.2212" x2="538.2212" y1="200.7305" y2="200.7305"/><line style="stroke:#181818;stroke-width:1;stroke-dasharray:2,2;" x1="538.2212" x2="538.2212" y1="200.7305" y2="213.7305"/><line style="stroke:#181818;stroke-width:1;stroke-dasharray:2,2;" x1="497.2212" x2="538.2212" y1="213.7305" y2="213.7305"/><polygon fill="#181818" points="507.2212,209.7305,497.2212,213.7305,507.2212,217.7305,503.2212,213.7305" style="stroke:#181818;stroke-width:1;"/><text fill="#000000" font-family="sans-serif" font-size="13" font-weight="bold" lengthAdjust="spacing" textLength="8.5757" x="503.2212" y="195.9883">4</text><text fill="#000000" font-family="sans-serif" font-size="13" lengthAdjust="spacing" textLength="266.4746" x="515.7969" y="195.9883">Check if Backoffice Operator is authorized</text></g><g class="message" data-entity-1="part2" data-entity-2="part2" id="msg5"><line style="stroke:#181818;stroke-width:1;stroke-dasharray:2,2;" x1="496.2212" x2="538.2212" y1="243.041" y2="243.041"/><line style="stroke:#181818;stroke-width:1;stroke-dasharray:2,2;" x1="538.2212" x2="538.2212" y1="243.041" y2="256.041"/><line style="stroke:#181818;stroke-width:1;stroke-dasharray:2,2;" x1="497.2212" x2="538.2212" y1="256.041" y2="256.041"/><polygon fill="#181818" points="507.2212,252.041,497.2212,256.041,507.2212,260.041,503.2212,256.041" style="stroke:#181818;stroke-width:1;"/><text fill="#000000" font-family="sans-serif" font-size="13" font-weight="bold" lengthAdjust="spacing" textLength="8.5757" x="503.2212" y="238.2988">5</text><text fill="#000000" font-family="sans-serif" font-size="13" lengthAdjust="spacing" textLength="139.604" x="515.7969" y="238.2988">Validate required data</text></g><g class="message" data-entity-1="part2" data-entity-2="part2" id="msg6"><line style="stroke:#181818;stroke-width:1;stroke-dasharray:2,2;" x1="496.2212" x2="538.2212" y1="285.3516" y2="285.3516"/><line style="stroke:#181818;stroke-width:1;stroke-dasharray:2,2;" x1="538.2212" x2="538.2212" y1="285.3516" y2="298.3516"/><line style="stroke:#181818;stroke-width:1;stroke-dasharray:2,2;" x1="497.2212" x2="538.2212" y1="298.3516" y2="298.3516"/><polygon fill="#181818" points="507.2212,294.3516,497.2212,298.3516,507.2212,302.3516,503.2212,298.3516" style="stroke:#181818;stroke-width:1;"/><text fill="#000000" font-family="sans-serif" font-size="13" font-weight="bold" lengthAdjust="spacing" textLength="8.5757" x="503.2212" y="280.6094">6</text><text fill="#000000" font-family="sans-serif" font-size="13" lengthAdjust="spacing" textLength="139.6548" x="515.7969" y="280.6094">Validate manufacturer</text></g><g class="message" data-entity-1="part2" data-entity-2="part2" id="msg7"><line style="stroke:#181818;stroke-width:1;stroke-dasharray:2,2;" x1="496.2212" x2="538.2212" y1="327.6621" y2="327.6621"/><line style="stroke:#181818;stroke-width:1;stroke-dasharray:2,2;" x1="538.2212" x2="538.2212" y1="327.6621" y2="340.6621"/><line style="stroke:#181818;stroke-width:1;stroke-dasharray:2,2;" x1="497.2212" x2="538.2212" y1="340.6621" y2="340.6621"/><polygon fill="#181818" points="507.2212,336.6621,497.2212,340.6621,507.2212,344.6621,503.2212,340.6621" style="stroke:#181818;stroke-width:1;"/><text fill="#000000" font-family="sans-serif" font-size="13" font-weight="bold" lengthAdjust="spacing" textLength="8.5757" x="503.2212" y="322.9199">7</text><text fill="#000000" font-family="sans-serif" font-size="13" lengthAdjust="spacing" textLength="131.022" x="515.7969" y="322.9199">Validate aircraft type</text></g><g class="message" data-entity-1="part2" data-entity-2="part2" id="msg8"><line style="stroke:#181818;stroke-width:1;stroke-dasharray:2,2;" x1="496.2212" x2="538.2212" y1="369.9727" y2="369.9727"/><line style="stroke:#181818;stroke-width:1;stroke-dasharray:2,2;" x1="538.2212" x2="538.2212" y1="369.9727" y2="382.9727"/><line style="stroke:#181818;stroke-width:1;stroke-dasharray:2,2;" x1="497.2212" x2="538.2212" y1="382.9727" y2="382.9727"/><polygon fill="#181818" points="507.2212,378.9727,497.2212,382.9727,507.2212,386.9727,503.2212,382.9727" style="stroke:#181818;stroke-width:1;"/><text fill="#000000" font-family="sans-serif" font-size="13" font-weight="bold" lengthAdjust="spacing" textLength="8.5757" x="503.2212" y="365.2305">8</text><text fill="#000000" font-family="sans-serif" font-size="13" lengthAdjust="spacing" textLength="313.3203" x="515.7969" y="365.2305">Check model name and manufacturer uniqueness</text></g><g class="message" data-entity-1="part2" data-entity-2="part2" id="msg9"><line style="stroke:#181818;stroke-width:1;stroke-dasharray:2,2;" x1="496.2212" x2="538.2212" y1="412.2832" y2="412.2832"/><line style="stroke:#181818;stroke-width:1;stroke-dasharray:2,2;" x1="538.2212" x2="538.2212" y1="412.2832" y2="425.2832"/><line style="stroke:#181818;stroke-width:1;stroke-dasharray:2,2;" x1="497.2212" x2="538.2212" y1="425.2832" y2="425.2832"/><polygon fill="#181818" points="507.2212,421.2832,497.2212,425.2832,507.2212,429.2832,503.2212,425.2832" style="stroke:#181818;stroke-width:1;"/><text fill="#000000" font-family="sans-serif" font-size="13" font-weight="bold" lengthAdjust="spacing" textLength="8.5757" x="503.2212" y="407.541">9</text><text fill="#000000" font-family="sans-serif" font-size="13" lengthAdjust="spacing" textLength="196.5933" x="515.7969" y="407.541">Validate certified engine model</text></g><g class="message" data-entity-1="part2" data-entity-2="part2" id="msg10"><line style="stroke:#181818;stroke-width:1;stroke-dasharray:2,2;" x1="496.2212" x2="538.2212" y1="454.5938" y2="454.5938"/><line style="stroke:#181818;stroke-width:1;stroke-dasharray:2,2;" x1="538.2212" x2="538.2212" y1="454.5938" y2="467.5938"/><line style="stroke:#181818;stroke-width:1;stroke-dasharray:2,2;" x1="497.2212" x2="538.2212" y1="467.5938" y2="467.5938"/><polygon fill="#181818" points="507.2212,463.5938,497.2212,467.5938,507.2212,471.5938,503.2212,467.5938" style="stroke:#181818;stroke-width:1;"/><text fill="#000000" font-family="sans-serif" font-size="13" font-weight="bold" lengthAdjust="spacing" textLength="17.1514" x="503.2212" y="449.8516">10</text><text fill="#000000" font-family="sans-serif" font-size="13" lengthAdjust="spacing" textLength="182.9966" x="524.3726" y="449.8516">Validate flight characteristics</text></g><path d="M10,482.5938 L72.1387,482.5938 L72.1387,489.9043 L62.1387,499.9043 L10,499.9043 L10,482.5938" fill="#EEEEEE" style="stroke:#000000;stroke-width:1.5;"/><rect fill="none" height="133.1973" style="stroke:#000000;stroke-width:1.5;" width="680.3374" x="10" y="482.5938"/><text fill="#000000" font-family="sans-serif" font-size="13" font-weight="bold" lengthAdjust="spacing" textLength="17.1387" x="25" y="496.1621">alt</text><text fill="#000000" font-family="sans-serif" font-size="11" font-weight="bold" lengthAdjust="spacing" textLength="160.9556" x="87.1387" y="495.2285">[aircraft model data is valid]</text><g class="message" data-entity-1="part2" data-entity-2="part2" id="msg11"><line style="stroke:#181818;stroke-width:1;stroke-dasharray:2,2;" x1="496.2212" x2="538.2212" y1="521.2148" y2="521.2148"/><line style="stroke:#181818;stroke-width:1;stroke-dasharray:2,2;" x1="538.2212" x2="538.2212" y1="521.2148" y2="534.2148"/><line style="stroke:#181818;stroke-width:1;stroke-dasharray:2,2;" x1="497.2212" x2="538.2212" y1="534.2148" y2="534.2148"/><polygon fill="#181818" points="507.2212,530.2148,497.2212,534.2148,507.2212,538.2148,503.2212,534.2148" style="stroke:#181818;stroke-width:1;"/><text fill="#000000" font-family="sans-serif" font-size="13" font-weight="bold" lengthAdjust="spacing" textLength="17.1514" x="503.2212" y="516.4727">11</text><text fill="#000000" font-family="sans-serif" font-size="13" lengthAdjust="spacing" textLength="143.9648" x="524.3726" y="516.4727">Register aircraft model</text></g><g class="message" data-entity-1="part2" data-entity-2="part1" id="msg12"><polygon fill="#181818" points="105.9956,559.5254,95.9956,563.5254,105.9956,567.5254,101.9956,563.5254" style="stroke:#181818;stroke-width:1;"/><line style="stroke:#181818;stroke-width:1;stroke-dasharray:2,2;" x1="99.9956" x2="485.2212" y1="563.5254" y2="563.5254"/><text fill="#000000" font-family="sans-serif" font-size="13" font-weight="bold" lengthAdjust="spacing" textLength="17.1514" x="161.0046" y="558.7832">12</text><text fill="#000000" font-family="sans-serif" font-size="13" lengthAdjust="spacing" textLength="238.0562" x="182.156" y="558.7832">Aircraft model registered successfully</text></g><line style="stroke:#000000;stroke-width:1;stroke-dasharray:2,2;" x1="10" x2="690.3374" y1="572.5254" y2="572.5254"/><text fill="#000000" font-family="sans-serif" font-size="11" font-weight="bold" lengthAdjust="spacing" textLength="171.7568" x="15" y="583.1602">[aircraft model data is invalid]</text><g class="message" data-entity-1="part2" data-entity-2="part1" id="msg13"><polygon fill="#181818" points="105.9956,603.791,95.9956,607.791,105.9956,611.791,101.9956,607.791" style="stroke:#181818;stroke-width:1;"/><line style="stroke:#181818;stroke-width:1;stroke-dasharray:2,2;" x1="99.9956" x2="485.2212" y1="607.791" y2="607.791"/><text fill="#000000" font-family="sans-serif" font-size="13" font-weight="bold" lengthAdjust="spacing" textLength="17.1514" x="209.7292" y="603.0488">13</text><text fill="#000000" font-family="sans-serif" font-size="13" lengthAdjust="spacing" textLength="140.6069" x="230.8806" y="603.0488">Display error message</text></g><?plantuml-src XLF1Rjim3BthAuZS-mCz3EYswx2X1NRd9Cec8aiUHMNmldvqacPEfte-oHJv7X_rM8-SPnISO2gv-57AHA3IoDNRpOp-Y0Ezw988XBnY7j8seOuOoY_E0qHCzUw6VZRAdhvGhGRnb7Z8u2ahYSEc9RVfXnqTUYq2Xu_6L69aJ_1r9a4B7W0h_8s_XftXAtkUCIiS7b-MgZITSo_7CoIVKAbNxFwDmSE7QoaymlFQTjKAMapmm1OMm0p8uWMZsh02fGt7bVGAy61O7OODxZqG15Gq_62ZCLMHAG3bWJDTYGAzPVgVWczIJXoeoxJRzmtXqqZ-21oXyoZ01jnqBCA_ANJBlsFYi5A8QMOnHMVgtTG9SulMMnFpn6xcJPKkC-sqVn6TqKozZdTB02tpQavpvZxNEs-oMnFDwAE27sqBl9d77CI-sk2JTj_UvdbQQntOrqD-lhdmte9lyhkkUxedV3Mq2QhDUzCVMqgB8rlTzvhZt6slI_UPwvnm0HAn_-co-OvoS1qVRoATFVq3?></g></svg>