<?plantuml 1.2026.2?><svg xmlns="http://www.w3.org/2000/svg" xmlns:xlink="http://www.w3.org/1999/xlink" contentStyleType="text/css" data-diagram-type="SEQUENCE" height="925px" preserveAspectRatio="none" style="width:906px;height:925px;background:#FFFFFF;" version="1.1" viewBox="0 0 906 925" width="906px" zoomAndPan="magnify"><defs/><g><g><title>Air Transport Company Collaborator</title><rect fill="#FFFFFF" height="742.8555" style="stroke:#181818;stroke-width:1;" width="10" x="141.8433" y="91.4883"/></g><g><title>.System</title><rect fill="#FFFFFF" height="29.3105" style="stroke:#181818;stroke-width:1;" width="10" x="580.6533" y="112.7988"/></g><g><title>.System</title><rect fill="#FFFFFF" height="662.9238" style="stroke:#181818;stroke-width:1;" width="10" x="580.6533" y="171.4199"/></g><rect fill="none" height="90.8867" style="stroke:#000000;stroke-width:1.5;" width="618.917" x="10" y="736.457"/><g class="participant-lifeline" data-entity-uid="part1" data-qualified-name="ATCC" id="part1-lifeline"><g><title>Air Transport Company Collaborator</title><rect fill="#000000" fill-opacity="0.00000" height="762.8555" width="8" x="142.8433" y="81.4883"/><line style="stroke:#181818;stroke-width:0.5;stroke-dasharray:5,5;" x1="146" x2="146" y1="81.4883" y2="844.3438"/></g></g><g class="participant-lifeline" data-entity-uid="part2" data-qualified-name="System" id="part2-lifeline"><g><title>.System</title><rect fill="#000000" fill-opacity="0.00000" height="762.8555" width="8" x="581.6533" y="81.4883"/><line style="stroke:#181818;stroke-width:0.5;stroke-dasharray:5,5;" x1="585.3896" x2="585.3896" y1="81.4883" y2="844.3438"/></g></g><g class="participant participant-head" data-entity-uid="part1" data-qualified-name="ATCC" id="part1-head"><text fill="#000000" font-family="sans-serif" font-size="14" lengthAdjust="spacing" textLength="247.6865" x="20" y="78.5352">Air Transport Company Collaborator</text><ellipse cx="146.8433" cy="13.5" fill="#E3E3E3" rx="8" ry="8" style="stroke:#181818;stroke-width:0.5;"/><path d="M146.8433,21.5 L146.8433,48.5 M133.8433,29.5 L159.8433,29.5 M146.8433,48.5 L133.8433,63.5 M146.8433,48.5 L159.8433,63.5" fill="none" style="stroke:#181818;stroke-width:0.5;"/></g><g class="participant participant-tail" data-entity-uid="part1" data-qualified-name="ATCC" id="part1-tail"><text fill="#000000" font-family="sans-serif" font-size="14" lengthAdjust="spacing" textLength="247.6865" x="20" y="856.8789">Air Transport Company Collaborator</text><ellipse cx="146.8433" cy="868.332" fill="#E3E3E3" rx="8" ry="8" style="stroke:#181818;stroke-width:0.5;"/><path d="M146.8433,876.332 L146.8433,903.332 M133.8433,884.332 L159.8433,884.332 M146.8433,903.332 L133.8433,918.332 M146.8433,903.332 L159.8433,918.332" fill="none" style="stroke:#181818;stroke-width:0.5;"/></g><g class="participant participant-head" data-entity-uid="part2" data-qualified-name="System" id="part2-head"><rect fill="#E3E3E3" height="30.4883" rx="2.5" ry="2.5" style="stroke:#181818;stroke-width:0.5;" width="66.5273" x="552.3896" y="50"/><text fill="#000000" font-family="sans-serif" font-size="14" lengthAdjust="spacing" textLength="52.5273" x="559.3896" y="70.5352">:System</text></g><g class="participant participant-tail" data-entity-uid="part2" data-qualified-name="System" id="part2-tail"><rect fill="#E3E3E3" height="30.4883" rx="2.5" ry="2.5" style="stroke:#181818;stroke-width:0.5;" width="66.5273" x="552.3896" y="843.3438"/><text fill="#000000" font-family="sans-serif" font-size="14" lengthAdjust="spacing" textLength="52.5273" x="559.3896" y="863.8789">:System</text></g><g><title>Air Transport Company Collaborator</title><rect fill="#FFFFFF" height="742.8555" style="stroke:#181818;stroke-width:1;" width="10" x="141.8433" y="91.4883"/></g><g><title>.System</title><rect fill="#FFFFFF" height="29.3105" style="stroke:#181818;stroke-width:1;" width="10" x="580.6533" y="112.7988"/></g><g><title>.System</title><rect fill="#FFFFFF" height="662.9238" style="stroke:#181818;stroke-width:1;" width="10" x="580.6533" y="171.4199"/></g><g class="message" data-entity-1="part1" data-entity-2="part2" id="msg1"><polygon fill="#181818" points="568.6533,108.7988,578.6533,112.7988,568.6533,116.7988,572.6533,112.7988" style="stroke:#181818;stroke-width:1;"/><line style="stroke:#181818;stroke-width:1;" x1="151.8433" x2="574.6533" y1="112.7988" y2="112.7988"/><text fill="#000000" font-family="sans-serif" font-size="13" font-weight="bold" lengthAdjust="spacing" textLength="8.5757" x="248.1021" y="108.0566">1</text><text fill="#000000" font-family="sans-serif" font-size="13" lengthAdjust="spacing" textLength="223.7168" x="260.6777" y="108.0566">Requests to add a pilot to company</text></g><g class="message" data-entity-1="part2" data-entity-2="part1" id="msg2"><polygon fill="#181818" points="162.8433,138.1094,152.8433,142.1094,162.8433,146.1094,158.8433,142.1094" style="stroke:#181818;stroke-width:1;"/><line style="stroke:#181818;stroke-width:1;stroke-dasharray:2,2;" x1="156.8433" x2="584.6533" y1="142.1094" y2="142.1094"/><text fill="#000000" font-family="sans-serif" font-size="13" font-weight="bold" lengthAdjust="spacing" textLength="8.5757" x="166.3433" y="137.3672">2</text><text fill="#000000" font-family="sans-serif" font-size="13" lengthAdjust="spacing" textLength="392.2344" x="178.9189" y="137.3672">Requests company, pilot data and aircraft model certifications</text></g><g class="message" data-entity-1="part1" data-entity-2="part2" id="msg3"><polygon fill="#181818" points="568.6533,167.4199,578.6533,171.4199,568.6533,175.4199,572.6533,171.4199" style="stroke:#181818;stroke-width:1;"/><line style="stroke:#181818;stroke-width:1;" x1="151.8433" x2="574.6533" y1="171.4199" y2="171.4199"/><text fill="#000000" font-family="sans-serif" font-size="13" font-weight="bold" lengthAdjust="spacing" textLength="8.5757" x="244.7727" y="166.6777">3</text><text fill="#000000" font-family="sans-serif" font-size="13" lengthAdjust="spacing" textLength="230.3755" x="257.3484" y="166.6777">Provides pilot data and certifications</text></g><g class="message" data-entity-1="part2" data-entity-2="part2" id="msg4"><line style="stroke:#181818;stroke-width:1;stroke-dasharray:2,2;" x1="590.6533" x2="632.6533" y1="200.7305" y2="200.7305"/><line style="stroke:#181818;stroke-width:1;stroke-dasharray:2,2;" x1="632.6533" x2="632.6533" y1="200.7305" y2="213.7305"/><line style="stroke:#181818;stroke-width:1;stroke-dasharray:2,2;" x1="591.6533" x2="632.6533" y1="213.7305" y2="213.7305"/><polygon fill="#181818" points="601.6533,209.7305,591.6533,213.7305,601.6533,217.7305,597.6533,213.7305" style="stroke:#181818;stroke-width:1;"/><text fill="#000000" font-family="sans-serif" font-size="13" font-weight="bold" lengthAdjust="spacing" textLength="8.5757" x="597.6533" y="195.9883">4</text><text fill="#000000" font-family="sans-serif" font-size="13" lengthAdjust="spacing" textLength="218.2261" x="610.229" y="195.9883">Check if collaborator is authorized</text></g><g class="message" data-entity-1="part2" data-entity-2="part2" id="msg5"><line style="stroke:#181818;stroke-width:1;stroke-dasharray:2,2;" x1="590.6533" x2="632.6533" y1="243.041" y2="243.041"/><line style="stroke:#181818;stroke-width:1;stroke-dasharray:2,2;" x1="632.6533" x2="632.6533" y1="243.041" y2="256.041"/><line style="stroke:#181818;stroke-width:1;stroke-dasharray:2,2;" x1="591.6533" x2="632.6533" y1="256.041" y2="256.041"/><polygon fill="#181818" points="601.6533,252.041,591.6533,256.041,601.6533,260.041,597.6533,256.041" style="stroke:#181818;stroke-width:1;"/><text fill="#000000" font-family="sans-serif" font-size="13" font-weight="bold" lengthAdjust="spacing" textLength="8.5757" x="597.6533" y="238.2988">5</text><text fill="#000000" font-family="sans-serif" font-size="13" lengthAdjust="spacing" textLength="194.6636" x="610.229" y="238.2988">Validate air transport company</text></g><g class="message" data-entity-1="part2" data-entity-2="part2" id="msg6"><line style="stroke:#181818;stroke-width:1;stroke-dasharray:2,2;" x1="590.6533" x2="632.6533" y1="285.3516" y2="285.3516"/><line style="stroke:#181818;stroke-width:1;stroke-dasharray:2,2;" x1="632.6533" x2="632.6533" y1="285.3516" y2="298.3516"/><line style="stroke:#181818;stroke-width:1;stroke-dasharray:2,2;" x1="591.6533" x2="632.6533" y1="298.3516" y2="298.3516"/><polygon fill="#181818" points="601.6533,294.3516,591.6533,298.3516,601.6533,302.3516,597.6533,298.3516" style="stroke:#181818;stroke-width:1;"/><text fill="#000000" font-family="sans-serif" font-size="13" font-weight="bold" lengthAdjust="spacing" textLength="8.5757" x="597.6533" y="280.6094">6</text><text fill="#000000" font-family="sans-serif" font-size="13" lengthAdjust="spacing" textLength="263.6563" x="610.229" y="280.6094">Check if collaborator belongs to company</text></g><g class="message" data-entity-1="part2" data-entity-2="part2" id="msg7"><line style="stroke:#181818;stroke-width:1;stroke-dasharray:2,2;" x1="590.6533" x2="632.6533" y1="327.6621" y2="327.6621"/><line style="stroke:#181818;stroke-width:1;stroke-dasharray:2,2;" x1="632.6533" x2="632.6533" y1="327.6621" y2="340.6621"/><line style="stroke:#181818;stroke-width:1;stroke-dasharray:2,2;" x1="591.6533" x2="632.6533" y1="340.6621" y2="340.6621"/><polygon fill="#181818" points="601.6533,336.6621,591.6533,340.6621,601.6533,344.6621,597.6533,340.6621" style="stroke:#181818;stroke-width:1;"/><text fill="#000000" font-family="sans-serif" font-size="13" font-weight="bold" lengthAdjust="spacing" textLength="8.5757" x="597.6533" y="322.9199">7</text><text fill="#000000" font-family="sans-serif" font-size="13" lengthAdjust="spacing" textLength="172.2627" x="610.229" y="322.9199">Validate pilot required data</text></g><g class="message" data-entity-1="part2" data-entity-2="part2" id="msg8"><line style="stroke:#181818;stroke-width:1;stroke-dasharray:2,2;" x1="590.6533" x2="632.6533" y1="369.9727" y2="369.9727"/><line style="stroke:#181818;stroke-width:1;stroke-dasharray:2,2;" x1="632.6533" x2="632.6533" y1="369.9727" y2="382.9727"/><line style="stroke:#181818;stroke-width:1;stroke-dasharray:2,2;" x1="591.6533" x2="632.6533" y1="382.9727" y2="382.9727"/><polygon fill="#181818" points="601.6533,378.9727,591.6533,382.9727,601.6533,386.9727,597.6533,382.9727" style="stroke:#181818;stroke-width:1;"/><text fill="#000000" font-family="sans-serif" font-size="13" font-weight="bold" lengthAdjust="spacing" textLength="8.5757" x="597.6533" y="365.2305">8</text><text fill="#000000" font-family="sans-serif" font-size="13" lengthAdjust="spacing" textLength="88.8481" x="610.229" y="365.2305">Validate email</text></g><g class="message" data-entity-1="part2" data-entity-2="part2" id="msg9"><line style="stroke:#181818;stroke-width:1;stroke-dasharray:2,2;" x1="590.6533" x2="632.6533" y1="412.2832" y2="412.2832"/><line style="stroke:#181818;stroke-width:1;stroke-dasharray:2,2;" x1="632.6533" x2="632.6533" y1="412.2832" y2="425.2832"/><line style="stroke:#181818;stroke-width:1;stroke-dasharray:2,2;" x1="591.6533" x2="632.6533" y1="425.2832" y2="425.2832"/><polygon fill="#181818" points="601.6533,421.2832,591.6533,425.2832,601.6533,429.2832,597.6533,425.2832" style="stroke:#181818;stroke-width:1;"/><text fill="#000000" font-family="sans-serif" font-size="13" font-weight="bold" lengthAdjust="spacing" textLength="8.5757" x="597.6533" y="407.541">9</text><text fill="#000000" font-family="sans-serif" font-size="13" lengthAdjust="spacing" textLength="289.3516" x="610.229" y="407.541">Check if email already exists as a system user</text></g><g class="message" data-entity-1="part2" data-entity-2="part2" id="msg10"><line style="stroke:#181818;stroke-width:1;stroke-dasharray:2,2;" x1="590.6533" x2="632.6533" y1="454.5938" y2="454.5938"/><line style="stroke:#181818;stroke-width:1;stroke-dasharray:2,2;" x1="632.6533" x2="632.6533" y1="454.5938" y2="467.5938"/><line style="stroke:#181818;stroke-width:1;stroke-dasharray:2,2;" x1="591.6533" x2="632.6533" y1="467.5938" y2="467.5938"/><polygon fill="#181818" points="601.6533,463.5938,591.6533,467.5938,601.6533,471.5938,597.6533,467.5938" style="stroke:#181818;stroke-width:1;"/><text fill="#000000" font-family="sans-serif" font-size="13" font-weight="bold" lengthAdjust="spacing" textLength="17.1514" x="597.6533" y="449.8516">10</text><text fill="#000000" font-family="sans-serif" font-size="13" lengthAdjust="spacing" textLength="147.4497" x="618.8047" y="449.8516">Validate phone number</text></g><g class="message" data-entity-1="part2" data-entity-2="part2" id="msg11"><line style="stroke:#181818;stroke-width:1;stroke-dasharray:2,2;" x1="590.6533" x2="632.6533" y1="496.9043" y2="496.9043"/><line style="stroke:#181818;stroke-width:1;stroke-dasharray:2,2;" x1="632.6533" x2="632.6533" y1="496.9043" y2="509.9043"/><line style="stroke:#181818;stroke-width:1;stroke-dasharray:2,2;" x1="591.6533" x2="632.6533" y1="509.9043" y2="509.9043"/><polygon fill="#181818" points="601.6533,505.9043,591.6533,509.9043,601.6533,513.9043,597.6533,509.9043" style="stroke:#181818;stroke-width:1;"/><text fill="#000000" font-family="sans-serif" font-size="13" font-weight="bold" lengthAdjust="spacing" textLength="17.1514" x="597.6533" y="492.1621">11</text><text fill="#000000" font-family="sans-serif" font-size="13" lengthAdjust="spacing" textLength="151.2583" x="618.8047" y="492.1621">Validate license number</text></g><g class="message" data-entity-1="part2" data-entity-2="part2" id="msg12"><line style="stroke:#181818;stroke-width:1;stroke-dasharray:2,2;" x1="590.6533" x2="632.6533" y1="539.2148" y2="539.2148"/><line style="stroke:#181818;stroke-width:1;stroke-dasharray:2,2;" x1="632.6533" x2="632.6533" y1="539.2148" y2="552.2148"/><line style="stroke:#181818;stroke-width:1;stroke-dasharray:2,2;" x1="591.6533" x2="632.6533" y1="552.2148" y2="552.2148"/><polygon fill="#181818" points="601.6533,548.2148,591.6533,552.2148,601.6533,556.2148,597.6533,552.2148" style="stroke:#181818;stroke-width:1;"/><text fill="#000000" font-family="sans-serif" font-size="13" font-weight="bold" lengthAdjust="spacing" textLength="17.1514" x="597.6533" y="534.4727">12</text><text fill="#000000" font-family="sans-serif" font-size="13" lengthAdjust="spacing" textLength="215.2236" x="618.8047" y="534.4727">Check license number uniqueness</text></g><g class="message" data-entity-1="part2" data-entity-2="part2" id="msg13"><line style="stroke:#181818;stroke-width:1;stroke-dasharray:2,2;" x1="590.6533" x2="632.6533" y1="581.5254" y2="581.5254"/><line style="stroke:#181818;stroke-width:1;stroke-dasharray:2,2;" x1="632.6533" x2="632.6533" y1="581.5254" y2="594.5254"/><line style="stroke:#181818;stroke-width:1;stroke-dasharray:2,2;" x1="591.6533" x2="632.6533" y1="594.5254" y2="594.5254"/><polygon fill="#181818" points="601.6533,590.5254,591.6533,594.5254,601.6533,598.5254,597.6533,594.5254" style="stroke:#181818;stroke-width:1;"/><text fill="#000000" font-family="sans-serif" font-size="13" font-weight="bold" lengthAdjust="spacing" textLength="17.1514" x="597.6533" y="576.7832">13</text><text fill="#000000" font-family="sans-serif" font-size="13" lengthAdjust="spacing" textLength="228.8774" x="618.8047" y="576.7832">Validate aircraft model certifications</text></g><g class="message" data-entity-1="part2" data-entity-2="part2" id="msg14"><line style="stroke:#181818;stroke-width:1;stroke-dasharray:2,2;" x1="590.6533" x2="632.6533" y1="623.8359" y2="623.8359"/><line style="stroke:#181818;stroke-width:1;stroke-dasharray:2,2;" x1="632.6533" x2="632.6533" y1="623.8359" y2="636.8359"/><line style="stroke:#181818;stroke-width:1;stroke-dasharray:2,2;" x1="591.6533" x2="632.6533" y1="636.8359" y2="636.8359"/><polygon fill="#181818" points="601.6533,632.8359,591.6533,636.8359,601.6533,640.8359,597.6533,636.8359" style="stroke:#181818;stroke-width:1;"/><text fill="#000000" font-family="sans-serif" font-size="13" font-weight="bold" lengthAdjust="spacing" textLength="17.1514" x="597.6533" y="619.0938">14</text><text fill="#000000" font-family="sans-serif" font-size="13" lengthAdjust="spacing" textLength="181.7271" x="618.8047" y="619.0938">Register pilot as system user</text></g><g class="message" data-entity-1="part2" data-entity-2="part2" id="msg15"><line style="stroke:#181818;stroke-width:1;stroke-dasharray:2,2;" x1="590.6533" x2="632.6533" y1="666.1465" y2="666.1465"/><line style="stroke:#181818;stroke-width:1;stroke-dasharray:2,2;" x1="632.6533" x2="632.6533" y1="666.1465" y2="679.1465"/><line style="stroke:#181818;stroke-width:1;stroke-dasharray:2,2;" x1="591.6533" x2="632.6533" y1="679.1465" y2="679.1465"/><polygon fill="#181818" points="601.6533,675.1465,591.6533,679.1465,601.6533,683.1465,597.6533,679.1465" style="stroke:#181818;stroke-width:1;"/><text fill="#000000" font-family="sans-serif" font-size="13" font-weight="bold" lengthAdjust="spacing" textLength="17.1514" x="597.6533" y="661.4043">15</text><text fill="#000000" font-family="sans-serif" font-size="13" lengthAdjust="spacing" textLength="73.4995" x="618.8047" y="661.4043">Create pilot</text></g><g class="message" data-entity-1="part2" data-entity-2="part2" id="msg16"><line style="stroke:#181818;stroke-width:1;stroke-dasharray:2,2;" x1="590.6533" x2="632.6533" y1="708.457" y2="708.457"/><line style="stroke:#181818;stroke-width:1;stroke-dasharray:2,2;" x1="632.6533" x2="632.6533" y1="708.457" y2="721.457"/><line style="stroke:#181818;stroke-width:1;stroke-dasharray:2,2;" x1="591.6533" x2="632.6533" y1="721.457" y2="721.457"/><polygon fill="#181818" points="601.6533,717.457,591.6533,721.457,601.6533,725.457,597.6533,721.457" style="stroke:#181818;stroke-width:1;"/><text fill="#000000" font-family="sans-serif" font-size="13" font-weight="bold" lengthAdjust="spacing" textLength="17.1514" x="597.6533" y="703.7148">16</text><text fill="#000000" font-family="sans-serif" font-size="13" lengthAdjust="spacing" textLength="184.501" x="618.8047" y="703.7148">Associate pilot with company</text></g><path d="M10,736.457 L72.1387,736.457 L72.1387,743.7676 L62.1387,753.7676 L10,753.7676 L10,736.457" fill="#EEEEEE" style="stroke:#000000;stroke-width:1.5;"/><rect fill="none" height="90.8867" style="stroke:#000000;stroke-width:1.5;" width="618.917" x="10" y="736.457"/><text fill="#000000" font-family="sans-serif" font-size="13" font-weight="bold" lengthAdjust="spacing" textLength="17.1387" x="25" y="750.0254">alt</text><text fill="#000000" font-family="sans-serif" font-size="11" font-weight="bold" lengthAdjust="spacing" textLength="106.8687" x="87.1387" y="749.0918">[pilot data is valid]</text><g class="message" data-entity-1="part2" data-entity-2="part1" id="msg17"><polygon fill="#181818" points="162.8433,771.0781,152.8433,775.0781,162.8433,779.0781,158.8433,775.0781" style="stroke:#181818;stroke-width:1;"/><line style="stroke:#181818;stroke-width:1;stroke-dasharray:2,2;" x1="156.8433" x2="579.6533" y1="775.0781" y2="775.0781"/><text fill="#000000" font-family="sans-serif" font-size="13" font-weight="bold" lengthAdjust="spacing" textLength="17.1514" x="280.4688" y="770.3359">17</text><text fill="#000000" font-family="sans-serif" font-size="13" lengthAdjust="spacing" textLength="150.4077" x="301.6201" y="770.3359">Pilot added successfully</text></g><line style="stroke:#000000;stroke-width:1;stroke-dasharray:2,2;" x1="10" x2="628.917" y1="784.0781" y2="784.0781"/><text fill="#000000" font-family="sans-serif" font-size="11" font-weight="bold" lengthAdjust="spacing" textLength="117.6699" x="15" y="794.7129">[pilot data is invalid]</text><g class="message" data-entity-1="part2" data-entity-2="part1" id="msg18"><polygon fill="#181818" points="162.8433,815.3438,152.8433,819.3438,162.8433,823.3438,158.8433,819.3438" style="stroke:#181818;stroke-width:1;"/><line style="stroke:#181818;stroke-width:1;stroke-dasharray:2,2;" x1="156.8433" x2="579.6533" y1="819.3438" y2="819.3438"/><text fill="#000000" font-family="sans-serif" font-size="13" font-weight="bold" lengthAdjust="spacing" textLength="17.1514" x="285.3691" y="814.6016">18</text><text fill="#000000" font-family="sans-serif" font-size="13" lengthAdjust="spacing" textLength="140.6069" x="306.5205" y="814.6016">Display error message</text></g><?plantuml-src ZLJBRkCm3BphAuYSjp_GmmA1zxf0qHPxPoJ69Y9BNf5Er_twqe-qRXgucqDYHyFXa1nAJfmwBDX2crFsJSajWPQUdBoVTEXFMDEJ3f6Wa5TCTLm3fC6GNpZLSCGedqxeRq_9qsyICOfzv3g1fwHK7FQQKzyUxD6XrrnWj-S2pmMJTBaeLBdjC0ts6oCUSa73x005zizLvIo1icT3AEpkdmPHQgVJ-N7Yv3CgpN0tViFTp-KOxk5nr2Oge1am143eE6OTN_sSUSMna2x1TyOpyQrObfWV2qj0HS1aj5nymQDQWmD5Azva7zcZSaxY0bsd-2hqeUGp1v9hvYkgBR7lN5L3_WHyDBaVJGKMi6aqkV0hXPjnVp1o6Bcj7FF7PKINHlr_gWF5d6fPTtaptrnpiIvpeJ0Llnr0BNBS5ZH106CX30FGFnxdPyv1a1dRYvboMrQJ4y5YtqraPFExR69dOP-1q2SUTySMvzk1RFZhLkWZrLQnfPXxQuL_LtPbdRhCuYPWBv8zVyphXRLPRL7KjNVDRUTHlGFxVDseXrbL23PkwRst3Xpx60T7ThTSyN3QOlh5qaMq2PTYpcldEyXH2kx6tgt-cIwCDm00?></g></svg>