<?plantuml 1.2026.2?><svg xmlns="http://www.w3.org/2000/svg" xmlns:xlink="http://www.w3.org/1999/xlink" contentStyleType="text/css" data-diagram-type="CLASS" height="912px" preserveAspectRatio="none" style="width:2178px;height:912px;background:#FFFFFF;" version="1.1" viewBox="0 0 2178 912" width="2178px" zoomAndPan="magnify"><title>US107-CD</title><defs/><g><g class="title" data-source-line="1"><text fill="#000000" font-family="sans-serif" font-size="14" font-weight="bold" lengthAdjust="spacing" textLength="76.0293" x="1043.9854" y="23.5352">US107-CD</text></g><!--cluster c--><g class="cluster" data-qualified-name="c" data-source-line="9" id="ent0004"><rect fill="none" height="862.32" rx="2.5" ry="2.5" style="stroke:#000000;stroke-width:1.5;" width="2165" x="7" y="44.4883"/><text fill="#000000" font-family="sans-serif" font-size="14" font-weight="bold" lengthAdjust="spacing" textLength="7.4512" x="1085.7744" y="60.0234">c</text></g><!--cluster simulation--><g class="cluster" data-qualified-name="c.simulation" data-source-line="9" id="ent0005"><rect fill="none" height="795.32" rx="2.5" ry="2.5" style="stroke:#000000;stroke-width:1.5;" width="2117" x="31" y="87.4883"/><text fill="#000000" font-family="sans-serif" font-size="14" font-weight="bold" lengthAdjust="spacing" textLength="76.3848" x="1051.3076" y="103.0234">simulation</text></g><!--cluster thread--><g class="cluster" data-qualified-name="c.simulation.thread" data-source-line="8" id="ent0002"><rect fill="#DDDDDD" height="148.46" rx="2.5" ry="2.5" style="stroke:#000000;stroke-width:1.5;" width="647" x="409" y="130.4883"/><text fill="#000000" font-family="sans-serif" font-size="14" font-weight="bold" lengthAdjust="spacing" textLength="46.9424" x="709.0288" y="146.0234">thread</text></g><!--cluster safety--><g class="cluster" data-qualified-name="c.simulation.safety" data-source-line="22" id="ent0007"><rect fill="#DDDDDD" height="530.86" rx="2.5" ry="2.5" style="stroke:#000000;stroke-width:1.5;" width="332" x="265" y="327.9483"/><text fill="#000000" font-family="sans-serif" font-size="14" font-weight="bold" lengthAdjust="spacing" textLength="43.9893" x="409.0054" y="343.4834">safety</text></g><!--cluster sync--><g class="cluster" data-qualified-name="c.simulation.sync" data-source-line="45" id="ent0011"><rect fill="#DDDDDD" height="314.69" rx="2.5" ry="2.5" style="stroke:#000000;stroke-width:1.5;" width="831" x="621" y="336.1883"/><text fill="#000000" font-family="sans-serif" font-size="14" font-weight="bold" lengthAdjust="spacing" textLength="32.7236" x="1020.1382" y="351.7234">sync</text></g><!--cluster report--><g class="cluster" data-qualified-name="c.simulation.report" data-source-line="66" id="ent0016"><rect fill="#DDDDDD" height="306.44" rx="2.5" ry="2.5" style="stroke:#000000;stroke-width:1.5;" width="374" x="1750" y="344.4383"/><text fill="#000000" font-family="sans-serif" font-size="14" font-weight="bold" lengthAdjust="spacing" textLength="44.8232" x="1914.5884" y="359.9734">report</text></g><!--cluster logging--><g class="cluster" data-qualified-name="c.simulation.logging" data-source-line="77" id="ent0019"><rect fill="#DDDDDD" height="148.47" rx="2.5" ry="2.5" style="stroke:#000000;stroke-width:1.5;" width="250" x="1476" y="336.1883"/><text fill="#000000" font-family="sans-serif" font-size="14" font-weight="bold" lengthAdjust="spacing" textLength="54.9473" x="1573.5264" y="351.7234">logging</text></g><!--class SafetyViolationDetectionThread--><g class="entity" data-qualified-name="c.simulation.thread.SafetyViolationDetectionThread" data-source-line="9" id="ent0003"><rect fill="#F1F1F1" height="97.4648" rx="2.5" ry="2.5" style="stroke:#181818;stroke-width:0.5;" width="374.5918" x="424.7" y="165.4883"/><ellipse cx="500.948" cy="181.4883" fill="#C2C2C2" rx="11" ry="11" style="stroke:#181818;stroke-width:1;"/><path d="M503.9212,187.1313 Q503.3401,187.4302 502.701,187.5796 Q502.0618,187.729 501.3563,187.729 Q498.8494,187.729 497.5296,186.0771 Q496.2098,184.4253 496.2098,181.3042 Q496.2098,178.1748 497.5296,176.5229 Q498.8494,174.8711 501.3563,174.8711 Q502.0618,174.8711 502.7093,175.0205 Q503.3567,175.1699 503.9212,175.4688 L503.9212,178.1914 Q503.2903,177.6104 502.6968,177.3406 Q502.1033,177.0708 501.4725,177.0708 Q500.1277,177.0708 499.4429,178.1375 Q498.7581,179.2041 498.7581,181.3042 Q498.7581,183.396 499.4429,184.4626 Q500.1277,185.5293 501.4725,185.5293 Q502.1033,185.5293 502.6968,185.2595 Q503.2903,184.9897 503.9212,184.4087 Z " fill="#000000"/><text fill="#000000" font-family="sans-serif" font-size="14" lengthAdjust="spacing" textLength="213.5957" x="521.448" y="186.7793">SafetyViolationDetectionThread</text><line style="stroke:#181818;stroke-width:0.5;" x1="425.7" x2="798.2918" y1="197.4883" y2="197.4883"/><text fill="#000000" font-family="sans-serif" font-size="14" lengthAdjust="spacing" textLength="103.8652" x="430.7" y="215.0234">-threadId: long</text><line style="stroke:#181818;stroke-width:0.5;" x1="425.7" x2="798.2918" y1="221.9766" y2="221.9766"/><text fill="#000000" font-family="sans-serif" font-size="14" lengthAdjust="spacing" textLength="43.3398" x="430.7" y="239.5117">+run()</text><text fill="#000000" font-family="sans-serif" font-size="14" lengthAdjust="spacing" textLength="362.5918" x="430.7" y="256">+onViolationDetected(violation: SafetyViolationEvent)</text></g><!--class ReportGenerationThread--><g class="entity" data-qualified-name="c.simulation.thread.ReportGenerationThread" data-source-line="15" id="ent0006"><rect fill="#F1F1F1" height="97.4648" rx="2.5" ry="2.5" style="stroke:#181818;stroke-width:0.5;" width="206.4072" x="833.8" y="165.4883"/><ellipse cx="852.0985" cy="181.4883" fill="#C2C2C2" rx="11" ry="11" style="stroke:#181818;stroke-width:1;"/><path d="M855.0717,187.1313 Q854.4906,187.4302 853.8515,187.5796 Q853.2123,187.729 852.5067,187.729 Q849.9999,187.729 848.6801,186.0771 Q847.3603,184.4253 847.3603,181.3042 Q847.3603,178.1748 848.6801,176.5229 Q849.9999,174.8711 852.5067,174.8711 Q853.2123,174.8711 853.8598,175.0205 Q854.5072,175.1699 855.0717,175.4688 L855.0717,178.1914 Q854.4408,177.6104 853.8473,177.3406 Q853.2538,177.0708 852.6229,177.0708 Q851.2782,177.0708 850.5934,178.1375 Q849.9086,179.2041 849.9086,181.3042 Q849.9086,183.396 850.5934,184.4626 Q851.2782,185.5293 852.6229,185.5293 Q853.2538,185.5293 853.8473,185.2595 Q854.4408,184.9897 855.0717,184.4087 Z " fill="#000000"/><text fill="#000000" font-family="sans-serif" font-size="14" lengthAdjust="spacing" textLength="167.0771" x="866.8315" y="186.7793">ReportGenerationThread</text><line style="stroke:#181818;stroke-width:0.5;" x1="834.8" x2="1039.2072" y1="197.4883" y2="197.4883"/><text fill="#000000" font-family="sans-serif" font-size="14" lengthAdjust="spacing" textLength="103.8652" x="839.8" y="215.0234">-threadId: long</text><line style="stroke:#181818;stroke-width:0.5;" x1="834.8" x2="1039.2072" y1="221.9766" y2="221.9766"/><text fill="#000000" font-family="sans-serif" font-size="14" lengthAdjust="spacing" textLength="43.3398" x="839.8" y="239.5117">+run()</text><text fill="#000000" font-family="sans-serif" font-size="14" lengthAdjust="spacing" textLength="194.4072" x="839.8" y="256">+processPendingViolations()</text></g><!--class SafetyViolationEvent--><g class="entity" data-qualified-name="c.simulation.safety.SafetyViolationEvent" data-source-line="23" id="ent0008"><rect fill="#F1F1F1" height="130.4414" rx="2.5" ry="2.5" style="stroke:#181818;stroke-width:0.5;" width="204.9512" x="352.52" y="712.3683"/><ellipse cx="383.4831" cy="728.3683" fill="#C2C2C2" rx="11" ry="11" style="stroke:#181818;stroke-width:1;"/><path d="M386.4563,734.0113 Q385.8752,734.3102 385.2361,734.4596 Q384.5969,734.609 383.8913,734.609 Q381.3845,734.609 380.0647,732.9571 Q378.7449,731.3053 378.7449,728.1842 Q378.7449,725.0548 380.0647,723.4029 Q381.3845,721.7511 383.8913,721.7511 Q384.5969,721.7511 385.2444,721.9005 Q385.8918,722.0499 386.4563,722.3488 L386.4563,725.0714 Q385.8254,724.4904 385.2319,724.2206 Q384.6384,723.9508 384.0075,723.9508 Q382.6628,723.9508 381.978,725.0175 Q381.2932,726.0841 381.2932,728.1842 Q381.2932,730.276 381.978,731.3426 Q382.6628,732.4093 384.0075,732.4093 Q384.6384,732.4093 385.2319,732.1395 Q385.8254,731.8697 386.4563,731.2887 Z " fill="#000000"/><text fill="#000000" font-family="sans-serif" font-size="14" lengthAdjust="spacing" textLength="137.4775" x="401.0305" y="733.6593">SafetyViolationEvent</text><line style="stroke:#181818;stroke-width:0.5;" x1="353.52" x2="556.4712" y1="744.3683" y2="744.3683"/><text fill="#000000" font-family="sans-serif" font-size="14" lengthAdjust="spacing" textLength="128.0166" x="358.52" y="761.9034">-violationId: String</text><text fill="#000000" font-family="sans-serif" font-size="14" lengthAdjust="spacing" textLength="119.1641" x="358.52" y="778.3917">-timestamp: long</text><text fill="#000000" font-family="sans-serif" font-size="14" lengthAdjust="spacing" textLength="192.9512" x="358.52" y="794.88">-involvedAircraftIds: String[]</text><text fill="#000000" font-family="sans-serif" font-size="14" lengthAdjust="spacing" textLength="109.2383" x="358.52" y="811.3683">-severity: String</text><text fill="#000000" font-family="sans-serif" font-size="14" lengthAdjust="spacing" textLength="133.0068" x="358.52" y="827.8566">-description: String</text><line style="stroke:#181818;stroke-width:0.5;" x1="353.52" x2="556.4712" y1="834.8097" y2="834.8097"/></g><!--class SharedViolationState--><g class="entity" data-qualified-name="c.simulation.safety.SharedViolationState" data-source-line="31" id="ent0009"><rect fill="#F1F1F1" height="113.9531" rx="2.5" ry="2.5" style="stroke:#181818;stroke-width:0.5;" width="244.5313" x="336.73" y="362.9483"/><ellipse cx="384.749" cy="378.9483" fill="#C2C2C2" rx="11" ry="11" style="stroke:#181818;stroke-width:1;"/><path d="M387.7222,384.5913 Q387.1411,384.8902 386.502,385.0396 Q385.8628,385.189 385.1572,385.189 Q382.6504,385.189 381.3306,383.5371 Q380.0108,381.8853 380.0108,378.7642 Q380.0108,375.6348 381.3306,373.9829 Q382.6504,372.3311 385.1572,372.3311 Q385.8628,372.3311 386.5103,372.4805 Q387.1577,372.6299 387.7222,372.9288 L387.7222,375.6514 Q387.0913,375.0704 386.4978,374.8006 Q385.9043,374.5308 385.2735,374.5308 Q383.9287,374.5308 383.2439,375.5975 Q382.5591,376.6641 382.5591,378.7642 Q382.5591,380.856 383.2439,381.9226 Q383.9287,382.9893 385.2735,382.9893 Q385.9043,382.9893 386.4978,382.7195 Q387.0913,382.4497 387.7222,381.8687 Z " fill="#000000"/><text fill="#000000" font-family="sans-serif" font-size="14" lengthAdjust="spacing" textLength="139.9932" x="405.249" y="384.2393">SharedViolationState</text><line style="stroke:#181818;stroke-width:0.5;" x1="337.73" x2="580.2613" y1="394.9483" y2="394.9483"/><text fill="#000000" font-family="sans-serif" font-size="14" lengthAdjust="spacing" textLength="191.5566" x="342.73" y="412.4834">-pendingViolationCount: int</text><text fill="#000000" font-family="sans-serif" font-size="14" lengthAdjust="spacing" textLength="208.8105" x="342.73" y="428.9717">-shutdownRequested: boolean</text><line style="stroke:#181818;stroke-width:0.5;" x1="337.73" x2="580.2613" y1="435.9248" y2="435.9248"/><text fill="#000000" font-family="sans-serif" font-size="14" lengthAdjust="spacing" textLength="228.7168" x="342.73" y="453.46">+hasPendingViolations(): boolean</text><text fill="#000000" font-family="sans-serif" font-size="14" lengthAdjust="spacing" textLength="232.5313" x="342.73" y="469.9483">+isShutdownRequested(): boolean</text></g><!--class PendingViolationQueue--><g class="entity" data-qualified-name="c.simulation.safety.PendingViolationQueue" data-source-line="38" id="ent0010"><rect fill="#F1F1F1" height="97.4648" rx="2.5" ry="2.5" style="stroke:#181818;stroke-width:0.5;" width="300.4492" x="280.78" y="553.8983"/><ellipse cx="347.5022" cy="569.8983" fill="#C2C2C2" rx="11" ry="11" style="stroke:#181818;stroke-width:1;"/><path d="M350.4753,575.5413 Q349.8943,575.8402 349.2551,575.9896 Q348.6159,576.139 347.9104,576.139 Q345.4035,576.139 344.0837,574.4871 Q342.7639,572.8353 342.7639,569.7142 Q342.7639,566.5848 344.0837,564.9329 Q345.4035,563.2811 347.9104,563.2811 Q348.6159,563.2811 349.2634,563.4305 Q349.9109,563.5799 350.4753,563.8788 L350.4753,566.6014 Q349.8445,566.0204 349.2509,565.7506 Q348.6574,565.4808 348.0266,565.4808 Q346.6819,565.4808 345.997,566.5475 Q345.3122,567.6141 345.3122,569.7142 Q345.3122,571.806 345.997,572.8726 Q346.6819,573.9393 348.0266,573.9393 Q348.6574,573.9393 349.2509,573.6695 Q349.8445,573.3997 350.4753,572.8187 Z " fill="#000000"/><text fill="#000000" font-family="sans-serif" font-size="14" lengthAdjust="spacing" textLength="158.5049" x="368.0022" y="575.1893">PendingViolationQueue</text><line style="stroke:#181818;stroke-width:0.5;" x1="281.78" x2="580.2292" y1="585.8983" y2="585.8983"/><line style="stroke:#181818;stroke-width:0.5;" x1="281.78" x2="580.2292" y1="593.8983" y2="593.8983"/><text fill="#000000" font-family="sans-serif" font-size="14" lengthAdjust="spacing" textLength="288.4492" x="286.78" y="611.4334">+enqueue(event: SafetyViolationEvent): int</text><text fill="#000000" font-family="sans-serif" font-size="14" lengthAdjust="spacing" textLength="224.9707" x="286.78" y="627.9217">+dequeue(): SafetyViolationEvent</text><text fill="#000000" font-family="sans-serif" font-size="14" lengthAdjust="spacing" textLength="136.5752" x="286.78" y="644.41">+isEmpty(): boolean</text></g><!--class ViolationMutex--><g class="entity" data-qualified-name="c.simulation.sync.ViolationMutex" data-source-line="46" id="ent0012"><rect fill="#F1F1F1" height="64.4883" rx="2.5" ry="2.5" style="stroke:#181818;stroke-width:0.5;" width="149.7646" x="886.12" y="570.3883"/><ellipse cx="907.9807" cy="586.3883" fill="#C2C2C2" rx="11" ry="11" style="stroke:#181818;stroke-width:1;"/><path d="M910.9539,592.0313 Q910.3728,592.3302 909.7337,592.4796 Q909.0945,592.629 908.3889,592.629 Q905.8821,592.629 904.5623,590.9771 Q903.2425,589.3253 903.2425,586.2042 Q903.2425,583.0748 904.5623,581.4229 Q905.8821,579.7711 908.3889,579.7711 Q909.0945,579.7711 909.742,579.9205 Q910.3894,580.0699 910.9539,580.3688 L910.9539,583.0914 Q910.323,582.5104 909.7295,582.2406 Q909.136,581.9708 908.5052,581.9708 Q907.1604,581.9708 906.4756,583.0375 Q905.7908,584.1041 905.7908,586.2042 Q905.7908,588.296 906.4756,589.3626 Q907.1604,590.4293 908.5052,590.4293 Q909.136,590.4293 909.7295,590.1595 Q910.323,589.8897 910.9539,589.3087 Z " fill="#000000"/><text fill="#000000" font-family="sans-serif" font-size="14" lengthAdjust="spacing" textLength="102.5186" x="923.5054" y="591.6793">ViolationMutex</text><line style="stroke:#181818;stroke-width:0.5;" x1="887.12" x2="1034.8846" y1="602.3883" y2="602.3883"/><text fill="#000000" font-family="sans-serif" font-size="14" lengthAdjust="spacing" textLength="137.7646" x="892.12" y="619.9234">-initialized: boolean</text><line style="stroke:#181818;stroke-width:0.5;" x1="887.12" x2="1034.8846" y1="626.8766" y2="626.8766"/></g><!--class ViolationConditionVariable--><g class="entity" data-qualified-name="c.simulation.sync.ViolationConditionVariable" data-source-line="50" id="ent0013"><rect fill="#F1F1F1" height="64.4883" rx="2.5" ry="2.5" style="stroke:#181818;stroke-width:0.5;" width="213.6035" x="637.2" y="570.3883"/><ellipse cx="652.2" cy="586.3883" fill="#C2C2C2" rx="11" ry="11" style="stroke:#181818;stroke-width:1;"/><path d="M655.1731,592.0313 Q654.5921,592.3302 653.9529,592.4796 Q653.3138,592.629 652.6082,592.629 Q650.1014,592.629 648.7815,590.9771 Q647.4617,589.3253 647.4617,586.2042 Q647.4617,583.0748 648.7815,581.4229 Q650.1014,579.7711 652.6082,579.7711 Q653.3138,579.7711 653.9612,579.9205 Q654.6087,580.0699 655.1731,580.3688 L655.1731,583.0914 Q654.5423,582.5104 653.9488,582.2406 Q653.3553,581.9708 652.7244,581.9708 Q651.3797,581.9708 650.6949,583.0375 Q650.0101,584.1041 650.0101,586.2042 Q650.0101,588.296 650.6949,589.3626 Q651.3797,590.4293 652.7244,590.4293 Q653.3553,590.4293 653.9488,590.1595 Q654.5423,589.8897 655.1731,589.3087 Z " fill="#000000"/><text fill="#000000" font-family="sans-serif" font-size="14" lengthAdjust="spacing" textLength="181.6035" x="666.2" y="591.6793">ViolationConditionVariable</text><line style="stroke:#181818;stroke-width:0.5;" x1="638.2" x2="849.8035" y1="602.3883" y2="602.3883"/><text fill="#000000" font-family="sans-serif" font-size="14" lengthAdjust="spacing" textLength="137.7646" x="643.2" y="619.9234">-initialized: boolean</text><line style="stroke:#181818;stroke-width:0.5;" x1="638.2" x2="849.8035" y1="626.8766" y2="626.8766"/></g><!--class MutexManager--><g class="entity" data-qualified-name="c.simulation.sync.MutexManager" data-source-line="54" id="ent0014"><rect fill="#F1F1F1" height="80.9766" rx="2.5" ry="2.5" style="stroke:#181818;stroke-width:0.5;" width="259.2012" x="1176.4" y="379.4383"/><ellipse cx="1251.3321" cy="395.4383" fill="#C2C2C2" rx="11" ry="11" style="stroke:#181818;stroke-width:1;"/><path d="M1254.3053,401.0813 Q1253.7242,401.3802 1253.0851,401.5296 Q1252.4459,401.679 1251.7403,401.679 Q1249.2335,401.679 1247.9137,400.0271 Q1246.5938,398.3753 1246.5938,395.2542 Q1246.5938,392.1248 1247.9137,390.4729 Q1249.2335,388.8211 1251.7403,388.8211 Q1252.4459,388.8211 1253.0934,388.9705 Q1253.7408,389.1199 1254.3053,389.4188 L1254.3053,392.1414 Q1253.6744,391.5604 1253.0809,391.2906 Q1252.4874,391.0208 1251.8565,391.0208 Q1250.5118,391.0208 1249.827,392.0875 Q1249.1422,393.1541 1249.1422,395.2542 Q1249.1422,397.346 1249.827,398.4126 Q1250.5118,399.4793 1251.8565,399.4793 Q1252.4874,399.4793 1253.0809,399.2095 Q1253.6744,398.9397 1254.3053,398.3587 Z " fill="#000000"/><text fill="#000000" font-family="sans-serif" font-size="14" lengthAdjust="spacing" textLength="100.8369" x="1271.8321" y="400.7293">MutexManager</text><line style="stroke:#181818;stroke-width:0.5;" x1="1177.4" x2="1434.6012" y1="411.4383" y2="411.4383"/><line style="stroke:#181818;stroke-width:0.5;" x1="1177.4" x2="1434.6012" y1="419.4383" y2="419.4383"/><text fill="#000000" font-family="sans-serif" font-size="14" lengthAdjust="spacing" textLength="229.8242" x="1182.4" y="436.9734">+lock(mutex: ViolationMutex): int</text><text fill="#000000" font-family="sans-serif" font-size="14" lengthAdjust="spacing" textLength="247.2012" x="1182.4" y="453.4617">+unlock(mutex: ViolationMutex): int</text></g><!--class ConditionVariableManager--><g class="entity" data-qualified-name="c.simulation.sync.ConditionVariableManager" data-source-line="59" id="ent0015"><rect fill="#F1F1F1" height="97.4648" rx="2.5" ry="2.5" style="stroke:#181818;stroke-width:0.5;" width="504.8369" x="636.58" y="371.1883"/><ellipse cx="794.7875" cy="387.1883" fill="#C2C2C2" rx="11" ry="11" style="stroke:#181818;stroke-width:1;"/><path d="M797.7607,392.8313 Q797.1796,393.1302 796.5404,393.2796 Q795.9013,393.429 795.1957,393.429 Q792.6889,393.429 791.3691,391.7771 Q790.0492,390.1253 790.0492,387.0042 Q790.0492,383.8748 791.3691,382.2229 Q792.6889,380.5711 795.1957,380.5711 Q795.9013,380.5711 796.5488,380.7205 Q797.1962,380.8699 797.7607,381.1688 L797.7607,383.8914 Q797.1298,383.3104 796.5363,383.0406 Q795.9428,382.7708 795.3119,382.7708 Q793.9672,382.7708 793.2824,383.8375 Q792.5976,384.9041 792.5976,387.0042 Q792.5976,389.096 793.2824,390.1626 Q793.9672,391.2293 795.3119,391.2293 Q795.9428,391.2293 796.5363,390.9595 Q797.1298,390.6897 797.7607,390.1087 Z " fill="#000000"/><text fill="#000000" font-family="sans-serif" font-size="14" lengthAdjust="spacing" textLength="179.9219" x="815.2875" y="392.4793">ConditionVariableManager</text><line style="stroke:#181818;stroke-width:0.5;" x1="637.58" x2="1140.4169" y1="403.1883" y2="403.1883"/><line style="stroke:#181818;stroke-width:0.5;" x1="637.58" x2="1140.4169" y1="411.1883" y2="411.1883"/><text fill="#000000" font-family="sans-serif" font-size="14" lengthAdjust="spacing" textLength="492.8369" x="642.58" y="428.7234">+wait(condition: ViolationConditionVariable, mutex: ViolationMutex): int</text><text fill="#000000" font-family="sans-serif" font-size="14" lengthAdjust="spacing" textLength="341.7969" x="642.58" y="445.2117">+signal(condition: ViolationConditionVariable): int</text><text fill="#000000" font-family="sans-serif" font-size="14" lengthAdjust="spacing" textLength="368.375" x="642.58" y="461.7">+broadcast(condition: ViolationConditionVariable): int</text></g><!--class ReportDataBuilder--><g class="entity" data-qualified-name="c.simulation.report.ReportDataBuilder" data-source-line="67" id="ent0017"><rect fill="#F1F1F1" height="80.9766" rx="2.5" ry="2.5" style="stroke:#181818;stroke-width:0.5;" width="341.6152" x="1766.19" y="379.4383"/><ellipse cx="1871.0533" cy="395.4383" fill="#C2C2C2" rx="11" ry="11" style="stroke:#181818;stroke-width:1;"/><path d="M1874.0264,401.0813 Q1873.4454,401.3802 1872.8062,401.5296 Q1872.1671,401.679 1871.4615,401.679 Q1868.9546,401.679 1867.6348,400.0271 Q1866.315,398.3753 1866.315,395.2542 Q1866.315,392.1248 1867.6348,390.4729 Q1868.9546,388.8211 1871.4615,388.8211 Q1872.1671,388.8211 1872.8145,388.9705 Q1873.462,389.1199 1874.0264,389.4188 L1874.0264,392.1414 Q1873.3956,391.5604 1872.8021,391.2906 Q1872.2086,391.0208 1871.5777,391.0208 Q1870.233,391.0208 1869.5482,392.0875 Q1868.8633,393.1541 1868.8633,395.2542 Q1868.8633,397.346 1869.5482,398.4126 Q1870.233,399.4793 1871.5777,399.4793 Q1872.2086,399.4793 1872.8021,399.2095 Q1873.3956,398.9397 1874.0264,398.3587 Z " fill="#000000"/><text fill="#000000" font-family="sans-serif" font-size="14" lengthAdjust="spacing" textLength="123.3887" x="1891.5533" y="400.7293">ReportDataBuilder</text><line style="stroke:#181818;stroke-width:0.5;" x1="1767.19" x2="2106.8052" y1="411.4383" y2="411.4383"/><line style="stroke:#181818;stroke-width:0.5;" x1="1767.19" x2="2106.8052" y1="419.4383" y2="419.4383"/><text fill="#000000" font-family="sans-serif" font-size="14" lengthAdjust="spacing" textLength="329.6152" x="1772.19" y="436.9734">+addSafetyViolation(event: SafetyViolationEvent)</text><text fill="#000000" font-family="sans-serif" font-size="14" lengthAdjust="spacing" textLength="161.0684" x="1772.19" y="453.4617">+compilePartialReport()</text></g><!--class ReportData--><g class="entity" data-qualified-name="c.simulation.report.ReportData" data-source-line="72" id="ent0018"><rect fill="#F1F1F1" height="64.4883" rx="2.5" ry="2.5" style="stroke:#181818;stroke-width:0.5;" width="322.2832" x="1770.86" y="570.3883"/><ellipse cx="1889.6447" cy="586.3883" fill="#C2C2C2" rx="11" ry="11" style="stroke:#181818;stroke-width:1;"/><path d="M1892.6178,592.0313 Q1892.0368,592.3302 1891.3976,592.4796 Q1890.7584,592.629 1890.0529,592.629 Q1887.546,592.629 1886.2262,590.9771 Q1884.9064,589.3253 1884.9064,586.2042 Q1884.9064,583.0748 1886.2262,581.4229 Q1887.546,579.7711 1890.0529,579.7711 Q1890.7584,579.7711 1891.4059,579.9205 Q1892.0534,580.0699 1892.6178,580.3688 L1892.6178,583.0914 Q1891.987,582.5104 1891.3934,582.2406 Q1890.7999,581.9708 1890.1691,581.9708 Q1888.8244,581.9708 1888.1395,583.0375 Q1887.4547,584.1041 1887.4547,586.2042 Q1887.4547,588.296 1888.1395,589.3626 Q1888.8244,590.4293 1890.1691,590.4293 Q1890.7999,590.4293 1891.3934,590.1595 Q1891.987,589.8897 1892.6178,589.3087 Z " fill="#000000"/><text fill="#000000" font-family="sans-serif" font-size="14" lengthAdjust="spacing" textLength="76.2139" x="1910.1447" y="591.6793">ReportData</text><line style="stroke:#181818;stroke-width:0.5;" x1="1771.86" x2="2092.1432" y1="602.3883" y2="602.3883"/><text fill="#000000" font-family="sans-serif" font-size="14" lengthAdjust="spacing" textLength="310.2832" x="1776.86" y="619.9234">-safetyViolationEntries: SafetyViolationEvent[]</text><line style="stroke:#181818;stroke-width:0.5;" x1="1771.86" x2="2092.1432" y1="626.8766" y2="626.8766"/></g><!--class SimulationLogger--><g class="entity" data-qualified-name="c.simulation.logging.SimulationLogger" data-source-line="78" id="ent0020"><rect fill="#F1F1F1" height="97.4648" rx="2.5" ry="2.5" style="stroke:#181818;stroke-width:0.5;" width="217.4336" x="1492.28" y="371.1883"/><ellipse cx="1537.3733" cy="387.1883" fill="#C2C2C2" rx="11" ry="11" style="stroke:#181818;stroke-width:1;"/><path d="M1540.3464,392.8313 Q1539.7654,393.1302 1539.1262,393.2796 Q1538.487,393.429 1537.7815,393.429 Q1535.2746,393.429 1533.9548,391.7771 Q1532.635,390.1253 1532.635,387.0042 Q1532.635,383.8748 1533.9548,382.2229 Q1535.2746,380.5711 1537.7815,380.5711 Q1538.487,380.5711 1539.1345,380.7205 Q1539.782,380.8699 1540.3464,381.1688 L1540.3464,383.8914 Q1539.7155,383.3104 1539.122,383.0406 Q1538.5285,382.7708 1537.8977,382.7708 Q1536.5529,382.7708 1535.8681,383.8375 Q1535.1833,384.9041 1535.1833,387.0042 Q1535.1833,389.096 1535.8681,390.1626 Q1536.5529,391.2293 1537.8977,391.2293 Q1538.5285,391.2293 1539.122,390.9595 Q1539.7155,390.6897 1540.3464,390.1087 Z " fill="#000000"/><text fill="#000000" font-family="sans-serif" font-size="14" lengthAdjust="spacing" textLength="118.7471" x="1557.8733" y="392.4793">SimulationLogger</text><line style="stroke:#181818;stroke-width:0.5;" x1="1493.28" x2="1708.7136" y1="403.1883" y2="403.1883"/><line style="stroke:#181818;stroke-width:0.5;" x1="1493.28" x2="1708.7136" y1="411.1883" y2="411.1883"/><text fill="#000000" font-family="sans-serif" font-size="14" lengthAdjust="spacing" textLength="176.3125" x="1498.28" y="428.7234">+logInfo(message: String)</text><text fill="#000000" font-family="sans-serif" font-size="14" lengthAdjust="spacing" textLength="205.4336" x="1498.28" y="445.2117">+logWarning(message: String)</text><text fill="#000000" font-family="sans-serif" font-size="14" lengthAdjust="spacing" textLength="183.2168" x="1498.28" y="461.7">+logError(message: String)</text></g><!--link SafetyViolationDetectionThread to SharedViolationState--><g class="link" data-entity-1="ent0003" data-entity-2="ent0009" data-link-type="dependency" data-source-line="85" id="lnk21"><path codeLine="85" d="M436.27,263.2683 C424.21,272.1083 413.5,282.5683 405,294.9483 C390.85,315.5583 394.7828,335.3038 407.7428,357.3838" fill="none" id="SafetyViolationDetectionThread-to-SharedViolationState" style="stroke:#181818;stroke-width:1;"/><polygon fill="#181818" points="410.78,362.5583,409.6739,352.7717,408.249,358.2462,402.7745,356.8213,410.78,362.5583" style="stroke:#181818;stroke-width:1;"/><polygon fill="#000000" points="408.5496,308.3886,413.9859,300.5849,408.3608,298.8799,408.5496,308.3886" style="stroke:#000000;stroke-width:1;"/><text fill="#000000" font-family="sans-serif" font-size="13" lengthAdjust="spacing" textLength="50.3433" x="419" y="308.5166">updates</text></g><!--link SafetyViolationDetectionThread to PendingViolationQueue--><g class="link" data-entity-1="ent0003" data-entity-2="ent0010" data-link-type="dependency" data-source-line="86" id="lnk22"><path codeLine="86" d="M424.37,229.9083 C298.56,244.1083 148.85,270.9483 109,319.9483 C60.57,379.4983 64.26,430.2883 109,492.6583 C148.3,547.4483 210.7955,573.7705 274.4455,587.5305" fill="none" id="SafetyViolationDetectionThread-to-PendingViolationQueue" style="stroke:#181818;stroke-width:1;"/><polygon fill="#181818" points="280.31,588.7983,272.3584,582.9869,275.4229,587.7418,270.668,590.8063,280.31,588.7983" style="stroke:#181818;stroke-width:1;"/><polygon fill="#000000" points="112.0669,424.6947,118.2743,417.4893,112.8535,415.2168,112.0669,424.6947" style="stroke:#000000;stroke-width:1;"/><text fill="#000000" font-family="sans-serif" font-size="13" lengthAdjust="spacing" textLength="60.7407" x="123" y="424.9966">enqueues</text></g><!--link SafetyViolationDetectionThread to MutexManager--><g class="link" data-entity-1="ent0003" data-entity-2="ent0014" data-link-type="dependency" data-source-line="87" id="lnk23"><path codeLine="87" d="M597.17,263.3683 C594.9,280.8483 596.62,299.3883 609,311.9483 C619.73,322.8283 1144.42,315.3783 1159,319.9483 C1197.02,331.8583 1229.5065,353.298 1256.9565,375.278" fill="none" id="SafetyViolationDetectionThread-to-MutexManager" style="stroke:#181818;stroke-width:1;"/><polygon fill="#181818" points="1261.64,379.0283,1257.1148,370.2805,1257.737,375.9031,1252.1145,376.5253,1261.64,379.0283" style="stroke:#181818;stroke-width:1;"/><polygon fill="#000000" points="618.9296,304.4397,610.5033,300.0296,609.5204,305.8247,618.9296,304.4397" style="stroke:#000000;stroke-width:1;"/><text fill="#000000" font-family="sans-serif" font-size="13" lengthAdjust="spacing" textLength="88.207" x="623" y="308.5166">locks/unlocks</text></g><!--link SafetyViolationDetectionThread to ConditionVariableManager--><g class="link" data-entity-1="ent0003" data-entity-2="ent0015" data-link-type="dependency" data-source-line="88" id="lnk24"><path codeLine="88" d="M521.13,263.2783 C503.69,278.3883 494.95,295.4483 510,311.9483 C523.08,326.2883 578.01,315.9183 597,319.9483 C654.33,332.1283 710.3978,349.9473 762.2578,368.7073" fill="none" id="SafetyViolationDetectionThread-to-ConditionVariableManager" style="stroke:#181818;stroke-width:1;"/><polygon fill="#181818" points="767.9,370.7483,760.7974,363.9253,763.1982,369.0474,758.076,371.4482,767.9,370.7483" style="stroke:#181818;stroke-width:1;"/><polygon fill="#000000" points="519.5812,305.6066,512.4711,299.2903,510.1163,304.6758,519.5812,305.6066" style="stroke:#000000;stroke-width:1;"/><text fill="#000000" font-family="sans-serif" font-size="13" lengthAdjust="spacing" textLength="44.1226" x="524" y="308.5166">signals</text></g><!--link SafetyViolationDetectionThread to SimulationLogger--><g class="link" data-entity-1="ent0003" data-entity-2="ent0020" data-link-type="dependency" data-source-line="89" id="lnk25"><path codeLine="89" d="M675.29,263.2983 C705.07,284.8083 737.76,306.5583 755,311.9483 C828.92,335.0683 1377.98,297.1383 1452,319.9483 C1485.68,330.3283 1513.9843,347.3659 1540.4043,367.1159" fill="none" id="SafetyViolationDetectionThread-to-SimulationLogger" style="stroke:#181818;stroke-width:1;"/><polygon fill="#181818" points="1545.21,370.7083,1540.3964,362.1159,1541.2053,367.7146,1535.6065,368.5234,1545.21,370.7083" style="stroke:#181818;stroke-width:1;"/><polygon fill="#000000" points="764.9644,304.1993,756.3339,300.2036,755.6336,306.0396,764.9644,304.1993" style="stroke:#000000;stroke-width:1;"/><text fill="#000000" font-family="sans-serif" font-size="13" lengthAdjust="spacing" textLength="26.4761" x="769" y="308.5166">logs</text></g><!--link ReportGenerationThread to SharedViolationState--><g class="link" data-entity-1="ent0006" data-entity-2="ent0009" data-link-type="dependency" data-source-line="91" id="lnk26"><path codeLine="91" d="M885.81,263.3483 C862.63,282.0983 833.78,301.5383 804,311.9483 C765.57,325.3783 659.93,308.0683 621,319.9483 C590.42,329.2783 564.8112,342.5101 538.5112,359.3701" fill="none" id="ReportGenerationThread-to-SharedViolationState" style="stroke:#181818;stroke-width:1;"/><polygon fill="#181818" points="533.46,362.6083,543.1955,361.1185,537.6693,359.9098,538.878,354.3836,533.46,362.6083" style="stroke:#181818;stroke-width:1;"/><polygon fill="#000000" points="836.6708,304.936,846.172,305.3583,844.6056,299.693,836.6708,304.936" style="stroke:#000000;stroke-width:1;"/><text fill="#000000" font-family="sans-serif" font-size="13" lengthAdjust="spacing" textLength="42.853" x="850.49" y="308.5166">checks</text></g><!--link ReportGenerationThread to PendingViolationQueue--><g class="link" data-entity-1="ent0006" data-entity-2="ent0010" data-link-type="dependency" data-source-line="92" id="lnk27"><path codeLine="92" d="M855.11,263.3383 C831.87,277.4183 811.57,290.2983 807,294.9483 C800.86,301.2083 804.58,307.5383 797,311.9483 C783.72,319.6683 254.78,309.0083 244,319.9483 C190.12,374.6183 205.75,426.1083 244,492.6583 C258.6,518.0683 276.5773,534.9458 301.5873,550.5258" fill="none" id="ReportGenerationThread-to-PendingViolationQueue" style="stroke:#181818;stroke-width:1;"/><polygon fill="#181818" points="306.68,553.6983,301.156,545.5444,302.4361,551.0545,296.926,552.3347,306.68,553.6983" style="stroke:#181818;stroke-width:1;"/><polygon fill="#000000" points="244.5618,422.3863,253.9441,420.8293,251.2371,415.6119,244.5618,422.3863" style="stroke:#000000;stroke-width:1;"/><text fill="#000000" font-family="sans-serif" font-size="13" lengthAdjust="spacing" textLength="60.855" x="258" y="424.9966">dequeues</text></g><!--link ReportGenerationThread to MutexManager--><g class="link" data-entity-1="ent0006" data-entity-2="ent0014" data-link-type="dependency" data-source-line="93" id="lnk28"><path codeLine="93" d="M1040.6,260.1383 C1078.5,277.5883 1121.3,298.5283 1159,319.9483 C1190.43,337.8083 1219.0603,356.6936 1246.1603,375.6136" fill="none" id="ReportGenerationThread-to-MutexManager" style="stroke:#181818;stroke-width:1;"/><polygon fill="#181818" points="1251.08,379.0483,1245.9903,370.6165,1246.9803,376.186,1241.4107,377.176,1251.08,379.0483" style="stroke:#181818;stroke-width:1;"/><polygon fill="#000000" points="1150.9693,306.0524,1144.5227,299.0601,1141.6439,304.1847,1150.9693,306.0524" style="stroke:#000000;stroke-width:1;"/><text fill="#000000" font-family="sans-serif" font-size="13" lengthAdjust="spacing" textLength="88.207" x="1155.61" y="308.5166">locks/unlocks</text></g><!--link ReportGenerationThread to ConditionVariableManager--><g class="link" data-entity-1="ent0006" data-entity-2="ent0015" data-link-type="dependency" data-source-line="94" id="lnk29"><path codeLine="94" d="M925.69,263.2383 C918.04,295.6983 909.3459,332.5682 901.6959,365.0382" fill="none" id="ReportGenerationThread-to-ConditionVariableManager" style="stroke:#181818;stroke-width:1;"/><polygon fill="#181818" points="900.32,370.8783,906.2773,363.0354,901.4666,366.0115,898.4905,361.2008,900.32,370.8783" style="stroke:#181818;stroke-width:1;"/><polygon fill="#000000" points="921.1529,308.4702,926.0885,300.3406,920.3674,298.9921,921.1529,308.4702" style="stroke:#000000;stroke-width:1;"/><text fill="#000000" font-family="sans-serif" font-size="13" lengthAdjust="spacing" textLength="32.4429" x="931.3" y="308.5166">waits</text></g><!--link ReportGenerationThread to ReportDataBuilder--><g class="link" data-entity-1="ent0006" data-entity-2="ent0017" data-link-type="dependency" data-source-line="95" id="lnk30"><path codeLine="95" d="M1040.58,218.8883 C1193.4,226.5483 1487,249.8483 1726,319.9483 C1774.73,334.2383 1821.0675,355.5386 1861.0775,376.3586" fill="none" id="ReportGenerationThread-to-ReportDataBuilder" style="stroke:#181818;stroke-width:1;"/><polygon fill="#181818" points="1866.4,379.1283,1860.2627,371.4255,1861.9646,376.8202,1856.5698,378.5221,1866.4,379.1283" style="stroke:#181818;stroke-width:1;"/><polygon fill="#000000" points="1694.6804,304.546,1686.3513,299.9549,1685.2435,305.7274,1694.6804,304.546" style="stroke:#000000;stroke-width:1;"/><text fill="#000000" font-family="sans-serif" font-size="13" lengthAdjust="spacing" textLength="93.3677" x="1698.77" y="308.5166">updates report</text></g><!--link ReportGenerationThread to SimulationLogger--><g class="link" data-entity-1="ent0006" data-entity-2="ent0020" data-link-type="dependency" data-source-line="96" id="lnk31"><path codeLine="96" d="M1040.58,224.4583 C1147.09,236.6383 1316.12,263.5383 1452,319.9483 C1482.98,332.8083 1509.4478,348.9646 1535.3478,367.3546" fill="none" id="ReportGenerationThread-to-SimulationLogger" style="stroke:#181818;stroke-width:1;"/><polygon fill="#181818" points="1540.24,370.8283,1535.2175,362.3563,1536.1632,367.9336,1530.5859,368.8793,1540.24,370.8283" style="stroke:#181818;stroke-width:1;"/><polygon fill="#000000" points="1435.5437,304.9909,1427.6692,299.6576,1426.0383,305.3047,1435.5437,304.9909" style="stroke:#000000;stroke-width:1;"/><text fill="#000000" font-family="sans-serif" font-size="13" lengthAdjust="spacing" textLength="26.4761" x="1439.74" y="308.5166">logs</text></g><!--link SharedViolationState to PendingViolationQueue--><g class="link" data-entity-1="ent0009" data-entity-2="ent0010" data-link-type="dependency" data-source-line="98" id="lnk32"><path codeLine="98" d="M450.29,477.1083 C446.51,501.5683 443.0292,523.9991 439.3892,547.4791" fill="none" id="SharedViolationState-to-PendingViolationQueue" style="stroke:#181818;stroke-width:1;"/><polygon fill="#181818" points="438.47,553.4083,443.8015,545.1273,439.236,548.4673,435.896,543.9017,438.47,553.4083" style="stroke:#181818;stroke-width:1;"/><polygon fill="#000000" points="449.2346,520.4946,453.5235,512.006,447.7149,511.1063,449.2346,520.4946" style="stroke:#000000;stroke-width:1;"/><text fill="#000000" font-family="sans-serif" font-size="13" lengthAdjust="spacing" textLength="32.6968" x="459" y="520.4666">owns</text><text fill="#000000" font-family="sans-serif" font-size="13" lengthAdjust="spacing" textLength="8.2202" x="440.7549" y="497.5789">1</text><text fill="#000000" font-family="sans-serif" font-size="13" lengthAdjust="spacing" textLength="8.2202" x="430.9728" y="543.0219">1</text></g><!--link SharedViolationState to ViolationMutex--><g class="link" data-entity-1="ent0009" data-entity-2="ent0012" data-link-type="dependency" data-source-line="99" id="lnk33"><path codeLine="99" d="M581.43,476.6283 C594.71,482.2283 608.09,487.6783 621,492.6583 C639.78,499.9083 645.1,499.9583 664,506.8983 C682.9,513.8483 686.67,518.2583 706,523.8983 C776.29,544.4083 798.69,530.2683 868,553.8983 C880.71,558.2383 888.4656,561.3908 900.7156,567.4708" fill="none" id="SharedViolationState-to-ViolationMutex" style="stroke:#181818;stroke-width:1;"/><polygon fill="#181818" points="906.09,570.1383,899.8067,562.5541,901.6113,567.9154,896.25,569.72,906.09,570.1383" style="stroke:#181818;stroke-width:1;"/><polygon fill="#000000" points="715.8091,516.9218,707.9136,511.6198,706.3051,517.2733,715.8091,516.9218" style="stroke:#000000;stroke-width:1;"/><text fill="#000000" font-family="sans-serif" font-size="13" lengthAdjust="spacing" textLength="79.625" x="720" y="520.4666">protected by</text><text fill="#000000" font-family="sans-serif" font-size="13" lengthAdjust="spacing" textLength="8.2202" x="588.6185" y="497.4426">1</text><text fill="#000000" font-family="sans-serif" font-size="13" lengthAdjust="spacing" textLength="8.2202" x="885.962" y="559.4899">1</text></g><!--link SharedViolationState to ViolationConditionVariable--><g class="link" data-entity-1="ent0009" data-entity-2="ent0013" data-link-type="dependency" data-source-line="100" id="lnk34"><path codeLine="100" d="M511.33,477.2483 C528.36,493.6183 548.05,510.6483 568,523.8983 C595.27,542.0183 621.9233,555.3225 651.2633,567.7225" fill="none" id="SharedViolationState-to-ViolationConditionVariable" style="stroke:#181818;stroke-width:1;"/><polygon fill="#181818" points="656.79,570.0583,650.0571,562.8702,652.1844,568.1118,646.9428,570.2391,656.79,570.0583" style="stroke:#181818;stroke-width:1;"/><polygon fill="#000000" points="577.1988,518.2683,571.1988,510.8893,568.0074,515.8253,577.1988,518.2683" style="stroke:#000000;stroke-width:1;"/><text fill="#000000" font-family="sans-serif" font-size="13" lengthAdjust="spacing" textLength="77.8984" x="582" y="520.4666">notifies with</text><text fill="#000000" font-family="sans-serif" font-size="13" lengthAdjust="spacing" textLength="8.2202" x="508.9314" y="497.3298">1</text><text fill="#000000" font-family="sans-serif" font-size="13" lengthAdjust="spacing" textLength="8.2202" x="630.8544" y="559.7676">1</text></g><!--reverse link PendingViolationQueue to SafetyViolationEvent--><g class="link" data-entity-1="ent0010" data-entity-2="ent0008" data-link-type="aggregation" data-source-line="102" id="lnk35"><path codeLine="102" d="M439.3372,663.6947 C441.9272,682.3847 443.29,692.1883 446.06,712.1783" fill="none" id="PendingViolationQueue-backto-SafetyViolationEvent" style="stroke:#181818;stroke-width:1;"/><polygon fill="none" points="437.69,651.8083,434.5515,658.3005,439.3372,663.6947,442.4757,657.2024,437.69,651.8083" style="stroke:#181818;stroke-width:1;"/><text fill="#000000" font-family="sans-serif" font-size="13" lengthAdjust="spacing" textLength="8.2202" x="430.0656" y="672.0136">1</text><text fill="#000000" font-family="sans-serif" font-size="13" lengthAdjust="spacing" textLength="6.2651" x="438.769" y="701.789">*</text></g><!--link ReportDataBuilder to ReportData--><g class="link" data-entity-1="ent0017" data-entity-2="ent0018" data-link-type="dependency" data-source-line="103" id="lnk36"><path codeLine="103" d="M1935.9,460.5783 C1934.99,493.5183 1933.8756,533.7406 1933.0356,564.1706" fill="none" id="ReportDataBuilder-to-ReportData" style="stroke:#181818;stroke-width:1;"/><polygon fill="#181818" points="1932.87,570.1683,1937.1168,561.2821,1933.008,565.1702,1929.1199,561.0613,1932.87,570.1683" style="stroke:#181818;stroke-width:1;"/><polygon fill="#000000" points="1939.3618,520.5516,1942.5496,511.5912,1936.674,511.4288,1939.3618,520.5516" style="stroke:#000000;stroke-width:1;"/><text fill="#000000" font-family="sans-serif" font-size="13" lengthAdjust="spacing" textLength="50.3433" x="1948.5" y="520.4666">updates</text></g><!--reverse link ReportData to SafetyViolationEvent--><g class="link" data-entity-1="ent0018" data-entity-2="ent0008" data-link-type="aggregation" data-source-line="104" id="lnk37"><path codeLine="104" d="M1758.5014,623.9539 C1453.1014,659.7139 811.05,734.8983 557.97,764.5283" fill="none" id="ReportData-backto-SafetyViolationEvent" style="stroke:#181818;stroke-width:1;"/><polygon fill="none" points="1770.42,622.5583,1763.9955,619.2832,1758.5014,623.9539,1764.9259,627.2289,1770.42,622.5583" style="stroke:#181818;stroke-width:1;"/><text fill="#000000" font-family="sans-serif" font-size="13" lengthAdjust="spacing" textLength="8.2202" x="1754.405" y="620.736">1</text><text fill="#000000" font-family="sans-serif" font-size="13" lengthAdjust="spacing" textLength="6.2651" x="565.4306" y="760.6619">*</text></g><!--link MutexManager to ViolationMutex--><g class="link" data-entity-1="ent0014" data-entity-2="ent0012" data-link-type="dependency" data-source-line="106" id="lnk38"><path codeLine="106" d="M1229.86,460.8083 C1167.16,493.6483 1084.7552,536.8146 1026.7852,567.1746" fill="none" id="MutexManager-to-ViolationMutex" style="stroke:#181818;stroke-width:1;"/><polygon fill="#181818" points="1021.47,569.9583,1031.2986,569.3262,1025.8993,567.6386,1027.587,562.2393,1021.47,569.9583" style="stroke:#181818;stroke-width:1;"/><polygon fill="#000000" points="1134.0708,517.8735,1143.4469,516.2801,1140.7197,511.0733,1134.0708,517.8735" style="stroke:#000000;stroke-width:1;"/><text fill="#000000" font-family="sans-serif" font-size="13" lengthAdjust="spacing" textLength="56.5386" x="1147.5" y="520.4666">manages</text></g><!--link ConditionVariableManager to ViolationConditionVariable--><g class="link" data-entity-1="ent0015" data-entity-2="ent0013" data-link-type="dependency" data-source-line="107" id="lnk39"><path codeLine="107" d="M850.52,468.8783 C824.85,500.8783 795.5643,537.368 773.1443,565.318" fill="none" id="ConditionVariableManager-to-ViolationConditionVariable" style="stroke:#181818;stroke-width:1;"/><polygon fill="#181818" points="769.39,569.9983,778.1416,565.4807,772.5186,566.098,771.9012,560.475,769.39,569.9983" style="stroke:#181818;stroke-width:1;"/><polygon fill="#000000" points="818.371,519.4535,826.3237,514.2376,821.7391,510.5593,818.371,519.4535" style="stroke:#000000;stroke-width:1;"/><text fill="#000000" font-family="sans-serif" font-size="13" lengthAdjust="spacing" textLength="56.5386" x="830.5" y="520.4666">manages</text></g><!--link ConditionVariableManager to ViolationMutex--><g class="link" data-entity-1="ent0015" data-entity-2="ent0012" data-link-type="dependency" data-source-line="108" id="lnk40"><path codeLine="108" d="M908.11,468.8783 C920.85,500.8783 935.0403,536.474 946.1703,564.424" fill="none" id="ConditionVariableManager-to-ViolationMutex" style="stroke:#181818;stroke-width:1;"/><polygon fill="#181818" points="948.39,569.9983,948.7766,560.157,946.5402,565.353,941.3442,563.1167,948.39,569.9983" style="stroke:#181818;stroke-width:1;"/><polygon fill="#000000" points="936.1603,520.1986,935.5433,510.7081,930.0828,512.8832,936.1603,520.1986" style="stroke:#000000;stroke-width:1;"/><text fill="#000000" font-family="sans-serif" font-size="13" lengthAdjust="spacing" textLength="63.2607" x="943.31" y="520.4666">waits with</text></g><?plantuml-src fLPDRzim3BtxLmZPnLsNhZqDyA50rnH3WHNewgqx33imCcCBbILNajDbG__x93j9BN_5tNo98v6FZqyaPSCCH_8jFZlzCBzS185-OA801Jd9fP0qKp97ObI9ZPq2w0Ea69kDTLL83OYKDmrq1ebyOY8bA-2wkKCvQ7rXZ6BBqk0rbI9clv6S1i4MbCpeYMPvoS4mAKvCfX2I6Ncpg1xo9o3sgL1832iqcticQzi56al5ldojVBQcxfcJ6kOwYGYN8jrl71DLYl2eyL-A5XucuNgt4hL3NgrHcDhzEMWmkyD2AlC91IhuNqQ5aXIrlaMHM47teNMuY_iyf9sko4xIhah4uxTFsb6CxNarI5hsB4Tj82zQzEU4YRNaQqmkcA8ALkOwqJl_7pyRTXhNg9ZPz80dgAbYnLRnbrrFuZW3XSa-WTY0GI-1eYNOfIo5YIm_qsIHbSPMghZ3nz8cX3RNfPGSGJHE88C-zViicOxRW6r3Buasx9SIosOMnmJ5eriBqHtGGFtvIHrR_MgVetvxZ-zLNfXDb-DmJMq4xQ-eVP0RszY_lADWWXa6t3PwCY96uwIiAkxb7XI39ST_0Aj8t82m6IXFK2xfGvYxtQX5kQDZAIOPUt4xtFiuF04p8TrPHYEPloFJg6gM2k3JC3lEIoKXeQ3Dg_r72aLL8x2_LEhnk0037ql6avOwa2IjiXsj_eOdbNd1EDw2SXLIHma7nxEBxrMMRi4BEtfGzuVTph8H0RXCKzlR0-DtR_VPcdLADBqMAndQ4Qijxcu67lactq49kth0waefgVfjAku7xj3v_Bn_qaQaB1Bxeidv58p-GHVjnjj45A-fewgLzVkwIoSY3BPdj6sXYJYTytDiKkSS3Dpz8qhI3Ei4Hbo71DpE-WFU1uGRyHmHp4sn0zxTHd-fctf0ZFkFoDohvUniLlcvto75xELS7V8X_zPz5haFiVg3a2mthmBetcSH4TAmbPqkv8cPpENJJzVXoFcSpDxE-k_ohiA-xbwZDfOF0WTUpJZGZY1vjUc01wl4y-lJuRKOkzXryMt5-mi0?></g></svg>