<?plantuml 1.2026.2?><svg xmlns="http://www.w3.org/2000/svg" xmlns:xlink="http://www.w3.org/1999/xlink" contentStyleType="text/css" data-diagram-type="SEQUENCE" height="715px" preserveAspectRatio="none" style="width:736px;height:715px;background:#FFFFFF;" version="1.1" viewBox="0 0 736 715" width="736px" zoomAndPan="magnify"><defs/><g><g><title>Weather Person</title><rect fill="#FFFFFF" height="533.2578" style="stroke:#181818;stroke-width:1;" width="10" x="70.541" y="91.4883"/></g><g><title>.System</title><rect fill="#FFFFFF" height="29.3105" style="stroke:#181818;stroke-width:1;" width="10" x="459.8457" y="112.7988"/></g><g><title>.System</title><rect fill="#FFFFFF" height="453.3262" style="stroke:#181818;stroke-width:1;" width="10" x="459.8457" y="171.4199"/></g><rect fill="none" height="219.7734" style="stroke:#000000;stroke-width:1.5;" width="682.8628" x="10" y="397.9727"/><g class="participant-lifeline" data-entity-uid="part1" data-qualified-name="WeatherPerson" id="part1-lifeline"><g><title>Weather Person</title><rect fill="#000000" fill-opacity="0.00000" height="553.2578" width="8" x="71.541" y="81.4883"/><line style="stroke:#181818;stroke-width:0.5;stroke-dasharray:5,5;" x1="75" x2="75" y1="81.4883" y2="634.7461"/></g></g><g class="participant-lifeline" data-entity-uid="part2" data-qualified-name="System" id="part2-lifeline"><g><title>.System</title><rect fill="#000000" fill-opacity="0.00000" height="553.2578" width="8" x="460.8457" y="81.4883"/><line style="stroke:#181818;stroke-width:0.5;stroke-dasharray:5,5;" x1="464.582" x2="464.582" y1="81.4883" y2="634.7461"/></g></g><g class="participant participant-head" data-entity-uid="part1" data-qualified-name="WeatherPerson" id="part1-head"><text fill="#000000" font-family="sans-serif" font-size="14" lengthAdjust="spacing" textLength="105.082" x="20" y="78.5352">Weather Person</text><ellipse cx="75.541" cy="13.5" fill="#E3E3E3" rx="8" ry="8" style="stroke:#181818;stroke-width:0.5;"/><path d="M75.541,21.5 L75.541,48.5 M62.541,29.5 L88.541,29.5 M75.541,48.5 L62.541,63.5 M75.541,48.5 L88.541,63.5" fill="none" style="stroke:#181818;stroke-width:0.5;"/></g><g class="participant participant-tail" data-entity-uid="part1" data-qualified-name="WeatherPerson" id="part1-tail"><text fill="#000000" font-family="sans-serif" font-size="14" lengthAdjust="spacing" textLength="105.082" x="20" y="647.2813">Weather Person</text><ellipse cx="75.541" cy="658.7344" fill="#E3E3E3" rx="8" ry="8" style="stroke:#181818;stroke-width:0.5;"/><path d="M75.541,666.7344 L75.541,693.7344 M62.541,674.7344 L88.541,674.7344 M75.541,693.7344 L62.541,708.7344 M75.541,693.7344 L88.541,708.7344" fill="none" style="stroke:#181818;stroke-width:0.5;"/></g><g class="participant participant-head" data-entity-uid="part2" data-qualified-name="System" id="part2-head"><rect fill="#E3E3E3" height="30.4883" rx="2.5" ry="2.5" style="stroke:#181818;stroke-width:0.5;" width="66.5273" x="431.582" y="50"/><text fill="#000000" font-family="sans-serif" font-size="14" lengthAdjust="spacing" textLength="52.5273" x="438.582" y="70.5352">:System</text></g><g class="participant participant-tail" data-entity-uid="part2" data-qualified-name="System" id="part2-tail"><rect fill="#E3E3E3" height="30.4883" rx="2.5" ry="2.5" style="stroke:#181818;stroke-width:0.5;" width="66.5273" x="431.582" y="633.7461"/><text fill="#000000" font-family="sans-serif" font-size="14" lengthAdjust="spacing" textLength="52.5273" x="438.582" y="654.2813">:System</text></g><g><title>Weather Person</title><rect fill="#FFFFFF" height="533.2578" style="stroke:#181818;stroke-width:1;" width="10" x="70.541" y="91.4883"/></g><g><title>.System</title><rect fill="#FFFFFF" height="29.3105" style="stroke:#181818;stroke-width:1;" width="10" x="459.8457" y="112.7988"/></g><g><title>.System</title><rect fill="#FFFFFF" height="453.3262" style="stroke:#181818;stroke-width:1;" width="10" x="459.8457" y="171.4199"/></g><g class="message" data-entity-1="part1" data-entity-2="part2" id="msg1"><polygon fill="#181818" points="447.8457,108.7988,457.8457,112.7988,447.8457,116.7988,451.8457,112.7988" style="stroke:#181818;stroke-width:1;"/><line style="stroke:#181818;stroke-width:1;" x1="80.541" x2="453.8457" y1="112.7988" y2="112.7988"/><text fill="#000000" font-family="sans-serif" font-size="13" font-weight="bold" lengthAdjust="spacing" textLength="8.5757" x="145.071" y="108.0566">1</text><text fill="#000000" font-family="sans-serif" font-size="13" lengthAdjust="spacing" textLength="237.6689" x="157.6467" y="108.0566">Requests to import bulk weather data</text></g><g class="message" data-entity-1="part2" data-entity-2="part1" id="msg2"><polygon fill="#181818" points="91.541,138.1094,81.541,142.1094,91.541,146.1094,87.541,142.1094" style="stroke:#181818;stroke-width:1;"/><line style="stroke:#181818;stroke-width:1;stroke-dasharray:2,2;" x1="85.541" x2="463.8457" y1="142.1094" y2="142.1094"/><text fill="#000000" font-family="sans-serif" font-size="13" font-weight="bold" lengthAdjust="spacing" textLength="8.5757" x="146.4856" y="137.3672">2</text><text fill="#000000" font-family="sans-serif" font-size="13" lengthAdjust="spacing" textLength="239.8398" x="159.0613" y="137.3672">Requests weather data source and file</text></g><g class="message" data-entity-1="part1" data-entity-2="part2" id="msg3"><polygon fill="#181818" points="447.8457,167.4199,457.8457,171.4199,447.8457,175.4199,451.8457,171.4199" style="stroke:#181818;stroke-width:1;"/><line style="stroke:#181818;stroke-width:1;" x1="80.541" x2="453.8457" y1="171.4199" y2="171.4199"/><text fill="#000000" font-family="sans-serif" font-size="13" font-weight="bold" lengthAdjust="spacing" textLength="8.5757" x="173.1912" y="166.6777">3</text><text fill="#000000" font-family="sans-serif" font-size="13" lengthAdjust="spacing" textLength="181.4287" x="185.7668" y="166.6777">Provides source type and file</text></g><g class="message" data-entity-1="part2" data-entity-2="part2" id="msg4"><line style="stroke:#181818;stroke-width:1;stroke-dasharray:2,2;" x1="469.8457" x2="511.8457" y1="200.7305" y2="200.7305"/><line style="stroke:#181818;stroke-width:1;stroke-dasharray:2,2;" x1="511.8457" x2="511.8457" y1="200.7305" y2="213.7305"/><line style="stroke:#181818;stroke-width:1;stroke-dasharray:2,2;" x1="470.8457" x2="511.8457" y1="213.7305" y2="213.7305"/><polygon fill="#181818" points="480.8457,209.7305,470.8457,213.7305,480.8457,217.7305,476.8457,213.7305" style="stroke:#181818;stroke-width:1;"/><text fill="#000000" font-family="sans-serif" font-size="13" font-weight="bold" lengthAdjust="spacing" textLength="8.5757" x="476.8457" y="195.9883">4</text><text fill="#000000" font-family="sans-serif" font-size="13" lengthAdjust="spacing" textLength="239.6304" x="489.4214" y="195.9883">Check if Weather Person is authorized</text></g><g class="message" data-entity-1="part2" data-entity-2="part2" id="msg5"><line style="stroke:#181818;stroke-width:1;stroke-dasharray:2,2;" x1="469.8457" x2="511.8457" y1="243.041" y2="243.041"/><line style="stroke:#181818;stroke-width:1;stroke-dasharray:2,2;" x1="511.8457" x2="511.8457" y1="243.041" y2="256.041"/><line style="stroke:#181818;stroke-width:1;stroke-dasharray:2,2;" x1="470.8457" x2="511.8457" y1="256.041" y2="256.041"/><polygon fill="#181818" points="480.8457,252.041,470.8457,256.041,480.8457,260.041,476.8457,256.041" style="stroke:#181818;stroke-width:1;"/><text fill="#000000" font-family="sans-serif" font-size="13" font-weight="bold" lengthAdjust="spacing" textLength="8.5757" x="476.8457" y="238.2988">5</text><text fill="#000000" font-family="sans-serif" font-size="13" lengthAdjust="spacing" textLength="120.688" x="489.4214" y="238.2988">Validate file format</text></g><g class="message" data-entity-1="part2" data-entity-2="part2" id="msg6"><line style="stroke:#181818;stroke-width:1;stroke-dasharray:2,2;" x1="469.8457" x2="511.8457" y1="285.3516" y2="285.3516"/><line style="stroke:#181818;stroke-width:1;stroke-dasharray:2,2;" x1="511.8457" x2="511.8457" y1="285.3516" y2="298.3516"/><line style="stroke:#181818;stroke-width:1;stroke-dasharray:2,2;" x1="470.8457" x2="511.8457" y1="298.3516" y2="298.3516"/><polygon fill="#181818" points="480.8457,294.3516,470.8457,298.3516,480.8457,302.3516,476.8457,298.3516" style="stroke:#181818;stroke-width:1;"/><text fill="#000000" font-family="sans-serif" font-size="13" font-weight="bold" lengthAdjust="spacing" textLength="8.5757" x="476.8457" y="280.6094">6</text><text fill="#000000" font-family="sans-serif" font-size="13" lengthAdjust="spacing" textLength="136.3159" x="489.4214" y="280.6094">Read weather records</text></g><g class="message" data-entity-1="part2" data-entity-2="part2" id="msg7"><line style="stroke:#181818;stroke-width:1;stroke-dasharray:2,2;" x1="469.8457" x2="511.8457" y1="327.6621" y2="327.6621"/><line style="stroke:#181818;stroke-width:1;stroke-dasharray:2,2;" x1="511.8457" x2="511.8457" y1="327.6621" y2="340.6621"/><line style="stroke:#181818;stroke-width:1;stroke-dasharray:2,2;" x1="470.8457" x2="511.8457" y1="340.6621" y2="340.6621"/><polygon fill="#181818" points="480.8457,336.6621,470.8457,340.6621,480.8457,344.6621,476.8457,340.6621" style="stroke:#181818;stroke-width:1;"/><text fill="#000000" font-family="sans-serif" font-size="13" font-weight="bold" lengthAdjust="spacing" textLength="8.5757" x="476.8457" y="322.9199">7</text><text fill="#000000" font-family="sans-serif" font-size="13" lengthAdjust="spacing" textLength="182.7871" x="489.4214" y="322.9199">Validate each weather record</text></g><g class="message" data-entity-1="part2" data-entity-2="part2" id="msg8"><line style="stroke:#181818;stroke-width:1;stroke-dasharray:2,2;" x1="469.8457" x2="511.8457" y1="369.9727" y2="369.9727"/><line style="stroke:#181818;stroke-width:1;stroke-dasharray:2,2;" x1="511.8457" x2="511.8457" y1="369.9727" y2="382.9727"/><line style="stroke:#181818;stroke-width:1;stroke-dasharray:2,2;" x1="470.8457" x2="511.8457" y1="382.9727" y2="382.9727"/><polygon fill="#181818" points="480.8457,378.9727,470.8457,382.9727,480.8457,386.9727,476.8457,382.9727" style="stroke:#181818;stroke-width:1;"/><text fill="#000000" font-family="sans-serif" font-size="13" font-weight="bold" lengthAdjust="spacing" textLength="8.5757" x="476.8457" y="365.2305">8</text><text fill="#000000" font-family="sans-serif" font-size="13" lengthAdjust="spacing" textLength="216.7534" x="489.4214" y="365.2305">Check referenced air control areas</text></g><path d="M10,397.9727 L72.1387,397.9727 L72.1387,405.2832 L62.1387,415.2832 L10,415.2832 L10,397.9727" fill="#EEEEEE" style="stroke:#000000;stroke-width:1.5;"/><rect fill="none" height="219.7734" style="stroke:#000000;stroke-width:1.5;" width="682.8628" x="10" y="397.9727"/><text fill="#000000" font-family="sans-serif" font-size="13" font-weight="bold" lengthAdjust="spacing" textLength="17.1387" x="25" y="411.541">alt</text><text fill="#000000" font-family="sans-serif" font-size="11" font-weight="bold" lengthAdjust="spacing" textLength="224.5977" x="87.1387" y="410.6074">[file is valid and contains valid records]</text><g class="message" data-entity-1="part2" data-entity-2="part2" id="msg9"><line style="stroke:#181818;stroke-width:1;stroke-dasharray:2,2;" x1="469.8457" x2="511.8457" y1="436.5938" y2="436.5938"/><line style="stroke:#181818;stroke-width:1;stroke-dasharray:2,2;" x1="511.8457" x2="511.8457" y1="436.5938" y2="449.5938"/><line style="stroke:#181818;stroke-width:1;stroke-dasharray:2,2;" x1="470.8457" x2="511.8457" y1="449.5938" y2="449.5938"/><polygon fill="#181818" points="480.8457,445.5938,470.8457,449.5938,480.8457,453.5938,476.8457,449.5938" style="stroke:#181818;stroke-width:1;"/><text fill="#000000" font-family="sans-serif" font-size="13" font-weight="bold" lengthAdjust="spacing" textLength="8.5757" x="476.8457" y="431.8516">9</text><text fill="#000000" font-family="sans-serif" font-size="13" lengthAdjust="spacing" textLength="181.4414" x="489.4214" y="431.8516">Import valid weather records</text></g><g class="message" data-entity-1="part2" data-entity-2="part1" id="msg10"><polygon fill="#181818" points="91.541,474.9043,81.541,478.9043,91.541,482.9043,87.541,478.9043" style="stroke:#181818;stroke-width:1;"/><line style="stroke:#181818;stroke-width:1;stroke-dasharray:2,2;" x1="85.541" x2="458.8457" y1="478.9043" y2="478.9043"/><text fill="#000000" font-family="sans-serif" font-size="13" font-weight="bold" lengthAdjust="spacing" textLength="17.1514" x="182.2366" y="474.1621">10</text><text fill="#000000" font-family="sans-serif" font-size="13" lengthAdjust="spacing" textLength="154.7622" x="203.3879" y="474.1621">Display import summary</text></g><line style="stroke:#000000;stroke-width:1;stroke-dasharray:2,2;" x1="10" x2="692.8628" y1="487.9043" y2="487.9043"/><text fill="#000000" font-family="sans-serif" font-size="11" font-weight="bold" lengthAdjust="spacing" textLength="81.5977" x="15" y="498.5391">[file is invalid]</text><g class="message" data-entity-1="part2" data-entity-2="part1" id="msg11"><polygon fill="#181818" points="91.541,519.1699,81.541,523.1699,91.541,527.1699,87.541,523.1699" style="stroke:#181818;stroke-width:1;"/><line style="stroke:#181818;stroke-width:1;stroke-dasharray:2,2;" x1="85.541" x2="458.8457" y1="523.1699" y2="523.1699"/><text fill="#000000" font-family="sans-serif" font-size="13" font-weight="bold" lengthAdjust="spacing" textLength="17.1514" x="154.3005" y="518.4277">11</text><text fill="#000000" font-family="sans-serif" font-size="13" lengthAdjust="spacing" textLength="210.6343" x="175.4519" y="518.4277">Display file format error message</text></g><line style="stroke:#000000;stroke-width:1;stroke-dasharray:2,2;" x1="10" x2="692.8628" y1="532.1699" y2="532.1699"/><text fill="#000000" font-family="sans-serif" font-size="11" font-weight="bold" lengthAdjust="spacing" textLength="148.3711" x="15" y="542.8047">[some records are invalid]</text><g class="message" data-entity-1="part2" data-entity-2="part2" id="msg12"><line style="stroke:#181818;stroke-width:1;stroke-dasharray:2,2;" x1="469.8457" x2="511.8457" y1="567.4355" y2="567.4355"/><line style="stroke:#181818;stroke-width:1;stroke-dasharray:2,2;" x1="511.8457" x2="511.8457" y1="567.4355" y2="580.4355"/><line style="stroke:#181818;stroke-width:1;stroke-dasharray:2,2;" x1="470.8457" x2="511.8457" y1="580.4355" y2="580.4355"/><polygon fill="#181818" points="480.8457,576.4355,470.8457,580.4355,480.8457,584.4355,476.8457,580.4355" style="stroke:#181818;stroke-width:1;"/><text fill="#000000" font-family="sans-serif" font-size="13" font-weight="bold" lengthAdjust="spacing" textLength="17.1514" x="476.8457" y="562.6934">12</text><text fill="#000000" font-family="sans-serif" font-size="13" lengthAdjust="spacing" textLength="127.3975" x="497.9971" y="562.6934">Import valid records</text></g><g class="message" data-entity-1="part2" data-entity-2="part1" id="msg13"><polygon fill="#181818" points="91.541,605.7461,81.541,609.7461,91.541,613.7461,87.541,609.7461" style="stroke:#181818;stroke-width:1;"/><line style="stroke:#181818;stroke-width:1;stroke-dasharray:2,2;" x1="85.541" x2="458.8457" y1="609.7461" y2="609.7461"/><text fill="#000000" font-family="sans-serif" font-size="13" font-weight="bold" lengthAdjust="spacing" textLength="17.1514" x="92.541" y="605.0039">13</text><text fill="#000000" font-family="sans-serif" font-size="13" lengthAdjust="spacing" textLength="334.1533" x="113.6924" y="605.0039">Display partial import summary and validation errors</text></g><?plantuml-src bPDBRjj038RtEWNXVIwGHO0YsNHH84Y0TatFK1RXUQWavK0vVKOF6vAW6erM8mxvyIU7r3Ed5WKZn9ooQoH70fEEAhtTjEZEUA9twmE1a3DCfx1qq0Pz_k1qWXg3hcxeRqV9qIzIBOWVWKy972KZgR2pdBfuBCSAdMM1mnz2QqZWbKHpEW0gpAR9KXMgiUCMay7XyRrNepYwJSSHn1SqsiHLgrzuU9e3u17U1ebg2fQ1Ovl5uDY5CtpCMZmQBhXpeZdyeP3Mw0LmIG3DdJW2J1vgBjtpj4NUqVWg-SAUz4gnlbsWxecx8PuRScVW6jOz1bOe3z5auK_okv6_CR0Vw4CogBD4j5t7Dq9_AxhCIHQlzucb1yqcuevuePfac2OFo08k9vCS08LGInE2JGfBHPSXmTYWmGavNKrNLL2-lKG_fm6OdBUbR8Asx_x2sWRihqEaNOmeVKLb8sx2E8te_qKjEWuaKbOaJeiqKNLOrbdTq8P_uVVB-sPPu-fXs9GtDlaolISN_r6bLfHyjJFY2yjwFxy0?></g></svg>