<?plantuml 1.2026.2?><svg xmlns="http://www.w3.org/2000/svg" xmlns:xlink="http://www.w3.org/1999/xlink" contentStyleType="text/css" data-diagram-type="SEQUENCE" height="1067px" preserveAspectRatio="none" style="width:688px;height:1067px;background:#FFFFFF;" version="1.1" viewBox="0 0 688 1067" width="688px" zoomAndPan="magnify"><defs/><g><g><title>Pilot</title><rect fill="#FFFFFF" height="885.0977" style="stroke:#181818;stroke-width:1;" width="10" x="32.834" y="91.4883"/></g><g><title>.System</title><rect fill="#FFFFFF" height="44.6211" style="stroke:#181818;stroke-width:1;" width="10" x="318.7925" y="112.7988"/></g><g><title>.System</title><rect fill="#FFFFFF" height="789.8555" style="stroke:#181818;stroke-width:1;" width="10" x="318.7925" y="186.7305"/></g><rect fill="none" height="133.1973" style="stroke:#000000;stroke-width:1.5;" width="478.5298" x="10" y="836.3887"/><g class="participant-lifeline" data-entity-uid="part1" data-qualified-name="Pilot" id="part1-lifeline"><g><title>Pilot</title><rect fill="#000000" fill-opacity="0.00000" height="905.0977" width="8" x="33.834" y="81.4883"/><line style="stroke:#181818;stroke-width:0.5;stroke-dasharray:5,5;" x1="37" x2="37" y1="81.4883" y2="986.5859"/></g></g><g class="participant-lifeline" data-entity-uid="part2" data-qualified-name="System" id="part2-lifeline"><g><title>.System</title><rect fill="#000000" fill-opacity="0.00000" height="905.0977" width="8" x="319.7925" y="81.4883"/><line style="stroke:#181818;stroke-width:0.5;stroke-dasharray:5,5;" x1="323.5288" x2="323.5288" y1="81.4883" y2="986.5859"/></g></g><g class="participant participant-head" data-entity-uid="part1" data-qualified-name="Pilot" id="part1-head"><text fill="#000000" font-family="sans-serif" font-size="14" lengthAdjust="spacing" textLength="29.668" x="20" y="78.5352">Pilot</text><ellipse cx="37.834" cy="13.5" fill="#E3E3E3" rx="8" ry="8" style="stroke:#181818;stroke-width:0.5;"/><path d="M37.834,21.5 L37.834,48.5 M24.834,29.5 L50.834,29.5 M37.834,48.5 L24.834,63.5 M37.834,48.5 L50.834,63.5" fill="none" style="stroke:#181818;stroke-width:0.5;"/></g><g class="participant participant-tail" data-entity-uid="part1" data-qualified-name="Pilot" id="part1-tail"><text fill="#000000" font-family="sans-serif" font-size="14" lengthAdjust="spacing" textLength="29.668" x="20" y="999.1211">Pilot</text><ellipse cx="37.834" cy="1010.5742" fill="#E3E3E3" rx="8" ry="8" style="stroke:#181818;stroke-width:0.5;"/><path d="M37.834,1018.5742 L37.834,1045.5742 M24.834,1026.5742 L50.834,1026.5742 M37.834,1045.5742 L24.834,1060.5742 M37.834,1045.5742 L50.834,1060.5742" fill="none" style="stroke:#181818;stroke-width:0.5;"/></g><g class="participant participant-head" data-entity-uid="part2" data-qualified-name="System" id="part2-head"><rect fill="#E3E3E3" height="30.4883" rx="2.5" ry="2.5" style="stroke:#181818;stroke-width:0.5;" width="66.5273" x="290.5288" y="50"/><text fill="#000000" font-family="sans-serif" font-size="14" lengthAdjust="spacing" textLength="52.5273" x="297.5288" y="70.5352">:System</text></g><g class="participant participant-tail" data-entity-uid="part2" data-qualified-name="System" id="part2-tail"><rect fill="#E3E3E3" height="30.4883" rx="2.5" ry="2.5" style="stroke:#181818;stroke-width:0.5;" width="66.5273" x="290.5288" y="985.5859"/><text fill="#000000" font-family="sans-serif" font-size="14" lengthAdjust="spacing" textLength="52.5273" x="297.5288" y="1006.1211">:System</text></g><g><title>Pilot</title><rect fill="#FFFFFF" height="885.0977" style="stroke:#181818;stroke-width:1;" width="10" x="32.834" y="91.4883"/></g><g><title>.System</title><rect fill="#FFFFFF" height="44.6211" style="stroke:#181818;stroke-width:1;" width="10" x="318.7925" y="112.7988"/></g><g><title>.System</title><rect fill="#FFFFFF" height="789.8555" style="stroke:#181818;stroke-width:1;" width="10" x="318.7925" y="186.7305"/></g><g class="message" data-entity-1="part1" data-entity-2="part2" id="msg1"><polygon fill="#181818" points="306.7925,108.7988,316.7925,112.7988,306.7925,116.7988,310.7925,112.7988" style="stroke:#181818;stroke-width:1;"/><line style="stroke:#181818;stroke-width:1;" x1="42.834" x2="312.7925" y1="112.7988" y2="112.7988"/><text fill="#000000" font-family="sans-serif" font-size="13" font-weight="bold" lengthAdjust="spacing" textLength="8.5757" x="76.1812" y="108.0566">1</text><text fill="#000000" font-family="sans-serif" font-size="13" lengthAdjust="spacing" textLength="196.6885" x="88.7568" y="108.0566">Requests to create a flight plan</text></g><g class="message" data-entity-1="part2" data-entity-2="part1" id="msg2"><polygon fill="#181818" points="53.834,153.4199,43.834,157.4199,53.834,161.4199,49.834,157.4199" style="stroke:#181818;stroke-width:1;"/><line style="stroke:#181818;stroke-width:1;stroke-dasharray:2,2;" x1="47.834" x2="322.7925" y1="157.4199" y2="157.4199"/><text fill="#000000" font-family="sans-serif" font-size="13" font-weight="bold" lengthAdjust="spacing" textLength="8.5757" x="57.334" y="145.0225">2</text><text fill="#000000" font-family="sans-serif" font-size="13" lengthAdjust="spacing" textLength="188.8301" x="95.186" y="137.3672">Requests route, aircraft, pilot,</text><text fill="#000000" font-family="sans-serif" font-size="13" lengthAdjust="spacing" textLength="239.3828" x="69.9097" y="152.6777">departure date/time and fuel quantity</text></g><g class="message" data-entity-1="part1" data-entity-2="part2" id="msg3"><polygon fill="#181818" points="306.7925,182.7305,316.7925,186.7305,306.7925,190.7305,310.7925,186.7305" style="stroke:#181818;stroke-width:1;"/><line style="stroke:#181818;stroke-width:1;" x1="42.834" x2="312.7925" y1="186.7305" y2="186.7305"/><text fill="#000000" font-family="sans-serif" font-size="13" font-weight="bold" lengthAdjust="spacing" textLength="8.5757" x="97.8806" y="181.9883">3</text><text fill="#000000" font-family="sans-serif" font-size="13" lengthAdjust="spacing" textLength="153.2896" x="110.4563" y="181.9883">Provides flight plan data</text></g><g class="message" data-entity-1="part2" data-entity-2="part2" id="msg4"><line style="stroke:#181818;stroke-width:1;stroke-dasharray:2,2;" x1="328.7925" x2="370.7925" y1="216.041" y2="216.041"/><line style="stroke:#181818;stroke-width:1;stroke-dasharray:2,2;" x1="370.7925" x2="370.7925" y1="216.041" y2="229.041"/><line style="stroke:#181818;stroke-width:1;stroke-dasharray:2,2;" x1="329.7925" x2="370.7925" y1="229.041" y2="229.041"/><polygon fill="#181818" points="339.7925,225.041,329.7925,229.041,339.7925,233.041,335.7925,229.041" style="stroke:#181818;stroke-width:1;"/><text fill="#000000" font-family="sans-serif" font-size="13" font-weight="bold" lengthAdjust="spacing" textLength="8.5757" x="335.7925" y="211.2988">4</text><text fill="#000000" font-family="sans-serif" font-size="13" lengthAdjust="spacing" textLength="288.4883" x="348.3682" y="211.2988">Check if pilot is authenticated and authorized</text></g><g class="message" data-entity-1="part2" data-entity-2="part2" id="msg5"><line style="stroke:#181818;stroke-width:1;stroke-dasharray:2,2;" x1="328.7925" x2="370.7925" y1="258.3516" y2="258.3516"/><line style="stroke:#181818;stroke-width:1;stroke-dasharray:2,2;" x1="370.7925" x2="370.7925" y1="258.3516" y2="271.3516"/><line style="stroke:#181818;stroke-width:1;stroke-dasharray:2,2;" x1="329.7925" x2="370.7925" y1="271.3516" y2="271.3516"/><polygon fill="#181818" points="339.7925,267.3516,329.7925,271.3516,339.7925,275.3516,335.7925,271.3516" style="stroke:#181818;stroke-width:1;"/><text fill="#000000" font-family="sans-serif" font-size="13" font-weight="bold" lengthAdjust="spacing" textLength="8.5757" x="335.7925" y="253.6094">5</text><text fill="#000000" font-family="sans-serif" font-size="13" lengthAdjust="spacing" textLength="125.6963" x="348.3682" y="253.6094">Validate flight route</text></g><g class="message" data-entity-1="part2" data-entity-2="part2" id="msg6"><line style="stroke:#181818;stroke-width:1;stroke-dasharray:2,2;" x1="328.7925" x2="370.7925" y1="300.6621" y2="300.6621"/><line style="stroke:#181818;stroke-width:1;stroke-dasharray:2,2;" x1="370.7925" x2="370.7925" y1="300.6621" y2="313.6621"/><line style="stroke:#181818;stroke-width:1;stroke-dasharray:2,2;" x1="329.7925" x2="370.7925" y1="313.6621" y2="313.6621"/><polygon fill="#181818" points="339.7925,309.6621,329.7925,313.6621,339.7925,317.6621,335.7925,313.6621" style="stroke:#181818;stroke-width:1;"/><text fill="#000000" font-family="sans-serif" font-size="13" font-weight="bold" lengthAdjust="spacing" textLength="8.5757" x="335.7925" y="295.9199">6</text><text fill="#000000" font-family="sans-serif" font-size="13" lengthAdjust="spacing" textLength="296.1182" x="348.3682" y="295.9199">Check if route is active on departure date/time</text></g><g class="message" data-entity-1="part2" data-entity-2="part2" id="msg7"><line style="stroke:#181818;stroke-width:1;stroke-dasharray:2,2;" x1="328.7925" x2="370.7925" y1="342.9727" y2="342.9727"/><line style="stroke:#181818;stroke-width:1;stroke-dasharray:2,2;" x1="370.7925" x2="370.7925" y1="342.9727" y2="355.9727"/><line style="stroke:#181818;stroke-width:1;stroke-dasharray:2,2;" x1="329.7925" x2="370.7925" y1="355.9727" y2="355.9727"/><polygon fill="#181818" points="339.7925,351.9727,329.7925,355.9727,339.7925,359.9727,335.7925,355.9727" style="stroke:#181818;stroke-width:1;"/><text fill="#000000" font-family="sans-serif" font-size="13" font-weight="bold" lengthAdjust="spacing" textLength="8.5757" x="335.7925" y="338.2305">7</text><text fill="#000000" font-family="sans-serif" font-size="13" lengthAdjust="spacing" textLength="99.8296" x="348.3682" y="338.2305">Validate aircraft</text></g><g class="message" data-entity-1="part2" data-entity-2="part2" id="msg8"><line style="stroke:#181818;stroke-width:1;stroke-dasharray:2,2;" x1="328.7925" x2="370.7925" y1="385.2832" y2="385.2832"/><line style="stroke:#181818;stroke-width:1;stroke-dasharray:2,2;" x1="370.7925" x2="370.7925" y1="385.2832" y2="398.2832"/><line style="stroke:#181818;stroke-width:1;stroke-dasharray:2,2;" x1="329.7925" x2="370.7925" y1="398.2832" y2="398.2832"/><polygon fill="#181818" points="339.7925,394.2832,329.7925,398.2832,339.7925,402.2832,335.7925,398.2832" style="stroke:#181818;stroke-width:1;"/><text fill="#000000" font-family="sans-serif" font-size="13" font-weight="bold" lengthAdjust="spacing" textLength="8.5757" x="335.7925" y="380.541">8</text><text fill="#000000" font-family="sans-serif" font-size="13" lengthAdjust="spacing" textLength="279.7349" x="348.3682" y="380.541">Check if aircraft belongs to route's company</text></g><g class="message" data-entity-1="part2" data-entity-2="part2" id="msg9"><line style="stroke:#181818;stroke-width:1;stroke-dasharray:2,2;" x1="328.7925" x2="370.7925" y1="427.5938" y2="427.5938"/><line style="stroke:#181818;stroke-width:1;stroke-dasharray:2,2;" x1="370.7925" x2="370.7925" y1="427.5938" y2="440.5938"/><line style="stroke:#181818;stroke-width:1;stroke-dasharray:2,2;" x1="329.7925" x2="370.7925" y1="440.5938" y2="440.5938"/><polygon fill="#181818" points="339.7925,436.5938,329.7925,440.5938,339.7925,444.5938,335.7925,440.5938" style="stroke:#181818;stroke-width:1;"/><text fill="#000000" font-family="sans-serif" font-size="13" font-weight="bold" lengthAdjust="spacing" textLength="8.5757" x="335.7925" y="422.8516">9</text><text fill="#000000" font-family="sans-serif" font-size="13" lengthAdjust="spacing" textLength="190.5122" x="348.3682" y="422.8516">Check if aircraft is operational</text></g><g class="message" data-entity-1="part2" data-entity-2="part2" id="msg10"><line style="stroke:#181818;stroke-width:1;stroke-dasharray:2,2;" x1="328.7925" x2="370.7925" y1="469.9043" y2="469.9043"/><line style="stroke:#181818;stroke-width:1;stroke-dasharray:2,2;" x1="370.7925" x2="370.7925" y1="469.9043" y2="482.9043"/><line style="stroke:#181818;stroke-width:1;stroke-dasharray:2,2;" x1="329.7925" x2="370.7925" y1="482.9043" y2="482.9043"/><polygon fill="#181818" points="339.7925,478.9043,329.7925,482.9043,339.7925,486.9043,335.7925,482.9043" style="stroke:#181818;stroke-width:1;"/><text fill="#000000" font-family="sans-serif" font-size="13" font-weight="bold" lengthAdjust="spacing" textLength="17.1514" x="335.7925" y="465.1621">10</text><text fill="#000000" font-family="sans-serif" font-size="13" lengthAdjust="spacing" textLength="158.7358" x="356.9438" y="465.1621">Check aircraft availability</text></g><g class="message" data-entity-1="part2" data-entity-2="part2" id="msg11"><line style="stroke:#181818;stroke-width:1;stroke-dasharray:2,2;" x1="328.7925" x2="370.7925" y1="512.2148" y2="512.2148"/><line style="stroke:#181818;stroke-width:1;stroke-dasharray:2,2;" x1="370.7925" x2="370.7925" y1="512.2148" y2="525.2148"/><line style="stroke:#181818;stroke-width:1;stroke-dasharray:2,2;" x1="329.7925" x2="370.7925" y1="525.2148" y2="525.2148"/><polygon fill="#181818" points="339.7925,521.2148,329.7925,525.2148,339.7925,529.2148,335.7925,525.2148" style="stroke:#181818;stroke-width:1;"/><text fill="#000000" font-family="sans-serif" font-size="13" font-weight="bold" lengthAdjust="spacing" textLength="17.1514" x="335.7925" y="507.4727">11</text><text fill="#000000" font-family="sans-serif" font-size="13" lengthAdjust="spacing" textLength="139.2485" x="356.9438" y="507.4727">Validate selected pilot</text></g><g class="message" data-entity-1="part2" data-entity-2="part2" id="msg12"><line style="stroke:#181818;stroke-width:1;stroke-dasharray:2,2;" x1="328.7925" x2="370.7925" y1="554.5254" y2="554.5254"/><line style="stroke:#181818;stroke-width:1;stroke-dasharray:2,2;" x1="370.7925" x2="370.7925" y1="554.5254" y2="567.5254"/><line style="stroke:#181818;stroke-width:1;stroke-dasharray:2,2;" x1="329.7925" x2="370.7925" y1="567.5254" y2="567.5254"/><polygon fill="#181818" points="339.7925,563.5254,329.7925,567.5254,339.7925,571.5254,335.7925,567.5254" style="stroke:#181818;stroke-width:1;"/><text fill="#000000" font-family="sans-serif" font-size="13" font-weight="bold" lengthAdjust="spacing" textLength="17.1514" x="335.7925" y="549.7832">12</text><text fill="#000000" font-family="sans-serif" font-size="13" lengthAdjust="spacing" textLength="319.1538" x="356.9438" y="549.7832">Check if selected pilot belongs to route's company</text></g><g class="message" data-entity-1="part2" data-entity-2="part2" id="msg13"><line style="stroke:#181818;stroke-width:1;stroke-dasharray:2,2;" x1="328.7925" x2="370.7925" y1="596.8359" y2="596.8359"/><line style="stroke:#181818;stroke-width:1;stroke-dasharray:2,2;" x1="370.7925" x2="370.7925" y1="596.8359" y2="609.8359"/><line style="stroke:#181818;stroke-width:1;stroke-dasharray:2,2;" x1="329.7925" x2="370.7925" y1="609.8359" y2="609.8359"/><polygon fill="#181818" points="339.7925,605.8359,329.7925,609.8359,339.7925,613.8359,335.7925,609.8359" style="stroke:#181818;stroke-width:1;"/><text fill="#000000" font-family="sans-serif" font-size="13" font-weight="bold" lengthAdjust="spacing" textLength="17.1514" x="335.7925" y="592.0938">13</text><text fill="#000000" font-family="sans-serif" font-size="13" lengthAdjust="spacing" textLength="194.8413" x="356.9438" y="592.0938">Check if selected pilot is active</text></g><g class="message" data-entity-1="part2" data-entity-2="part2" id="msg14"><line style="stroke:#181818;stroke-width:1;stroke-dasharray:2,2;" x1="328.7925" x2="370.7925" y1="639.1465" y2="639.1465"/><line style="stroke:#181818;stroke-width:1;stroke-dasharray:2,2;" x1="370.7925" x2="370.7925" y1="639.1465" y2="652.1465"/><line style="stroke:#181818;stroke-width:1;stroke-dasharray:2,2;" x1="329.7925" x2="370.7925" y1="652.1465" y2="652.1465"/><polygon fill="#181818" points="339.7925,648.1465,329.7925,652.1465,339.7925,656.1465,335.7925,652.1465" style="stroke:#181818;stroke-width:1;"/><text fill="#000000" font-family="sans-serif" font-size="13" font-weight="bold" lengthAdjust="spacing" textLength="17.1514" x="335.7925" y="634.4043">14</text><text fill="#000000" font-family="sans-serif" font-size="13" lengthAdjust="spacing" textLength="325" x="356.9438" y="634.4043">Check if selected pilot is certified for aircraft model</text></g><g class="message" data-entity-1="part2" data-entity-2="part2" id="msg15"><line style="stroke:#181818;stroke-width:1;stroke-dasharray:2,2;" x1="328.7925" x2="370.7925" y1="681.457" y2="681.457"/><line style="stroke:#181818;stroke-width:1;stroke-dasharray:2,2;" x1="370.7925" x2="370.7925" y1="681.457" y2="694.457"/><line style="stroke:#181818;stroke-width:1;stroke-dasharray:2,2;" x1="329.7925" x2="370.7925" y1="694.457" y2="694.457"/><polygon fill="#181818" points="339.7925,690.457,329.7925,694.457,339.7925,698.457,335.7925,694.457" style="stroke:#181818;stroke-width:1;"/><text fill="#000000" font-family="sans-serif" font-size="13" font-weight="bold" lengthAdjust="spacing" textLength="17.1514" x="335.7925" y="676.7148">15</text><text fill="#000000" font-family="sans-serif" font-size="13" lengthAdjust="spacing" textLength="198.1548" x="356.9438" y="676.7148">Check selected pilot availability</text></g><g class="message" data-entity-1="part2" data-entity-2="part2" id="msg16"><line style="stroke:#181818;stroke-width:1;stroke-dasharray:2,2;" x1="328.7925" x2="370.7925" y1="723.7676" y2="723.7676"/><line style="stroke:#181818;stroke-width:1;stroke-dasharray:2,2;" x1="370.7925" x2="370.7925" y1="723.7676" y2="736.7676"/><line style="stroke:#181818;stroke-width:1;stroke-dasharray:2,2;" x1="329.7925" x2="370.7925" y1="736.7676" y2="736.7676"/><polygon fill="#181818" points="339.7925,732.7676,329.7925,736.7676,339.7925,740.7676,335.7925,736.7676" style="stroke:#181818;stroke-width:1;"/><text fill="#000000" font-family="sans-serif" font-size="13" font-weight="bold" lengthAdjust="spacing" textLength="17.1514" x="335.7925" y="719.0254">16</text><text fill="#000000" font-family="sans-serif" font-size="13" lengthAdjust="spacing" textLength="182.7681" x="356.9438" y="719.0254">Validate departure date/time</text></g><g class="message" data-entity-1="part2" data-entity-2="part2" id="msg17"><line style="stroke:#181818;stroke-width:1;stroke-dasharray:2,2;" x1="328.7925" x2="370.7925" y1="766.0781" y2="766.0781"/><line style="stroke:#181818;stroke-width:1;stroke-dasharray:2,2;" x1="370.7925" x2="370.7925" y1="766.0781" y2="779.0781"/><line style="stroke:#181818;stroke-width:1;stroke-dasharray:2,2;" x1="329.7925" x2="370.7925" y1="779.0781" y2="779.0781"/><polygon fill="#181818" points="339.7925,775.0781,329.7925,779.0781,339.7925,783.0781,335.7925,779.0781" style="stroke:#181818;stroke-width:1;"/><text fill="#000000" font-family="sans-serif" font-size="13" font-weight="bold" lengthAdjust="spacing" textLength="17.1514" x="335.7925" y="761.3359">17</text><text fill="#000000" font-family="sans-serif" font-size="13" lengthAdjust="spacing" textLength="134.5068" x="356.9438" y="761.3359">Validate fuel quantity</text></g><g class="message" data-entity-1="part2" data-entity-2="part2" id="msg18"><line style="stroke:#181818;stroke-width:1;stroke-dasharray:2,2;" x1="328.7925" x2="370.7925" y1="808.3887" y2="808.3887"/><line style="stroke:#181818;stroke-width:1;stroke-dasharray:2,2;" x1="370.7925" x2="370.7925" y1="808.3887" y2="821.3887"/><line style="stroke:#181818;stroke-width:1;stroke-dasharray:2,2;" x1="329.7925" x2="370.7925" y1="821.3887" y2="821.3887"/><polygon fill="#181818" points="339.7925,817.3887,329.7925,821.3887,339.7925,825.3887,335.7925,821.3887" style="stroke:#181818;stroke-width:1;"/><text fill="#000000" font-family="sans-serif" font-size="13" font-weight="bold" lengthAdjust="spacing" textLength="17.1514" x="335.7925" y="803.6465">18</text><text fill="#000000" font-family="sans-serif" font-size="13" lengthAdjust="spacing" textLength="181.5874" x="356.9438" y="803.6465">Set flight plan status to draft</text></g><path d="M10,836.3887 L72.1387,836.3887 L72.1387,843.6992 L62.1387,853.6992 L10,853.6992 L10,836.3887" fill="#EEEEEE" style="stroke:#000000;stroke-width:1.5;"/><rect fill="none" height="133.1973" style="stroke:#000000;stroke-width:1.5;" width="478.5298" x="10" y="836.3887"/><text fill="#000000" font-family="sans-serif" font-size="13" font-weight="bold" lengthAdjust="spacing" textLength="17.1387" x="25" y="849.957">alt</text><text fill="#000000" font-family="sans-serif" font-size="11" font-weight="bold" lengthAdjust="spacing" textLength="139.7773" x="87.1387" y="849.0234">[flight plan data is valid]</text><g class="message" data-entity-1="part2" data-entity-2="part2" id="msg19"><line style="stroke:#181818;stroke-width:1;stroke-dasharray:2,2;" x1="328.7925" x2="370.7925" y1="875.0098" y2="875.0098"/><line style="stroke:#181818;stroke-width:1;stroke-dasharray:2,2;" x1="370.7925" x2="370.7925" y1="875.0098" y2="888.0098"/><line style="stroke:#181818;stroke-width:1;stroke-dasharray:2,2;" x1="329.7925" x2="370.7925" y1="888.0098" y2="888.0098"/><polygon fill="#181818" points="339.7925,884.0098,329.7925,888.0098,339.7925,892.0098,335.7925,888.0098" style="stroke:#181818;stroke-width:1;"/><text fill="#000000" font-family="sans-serif" font-size="13" font-weight="bold" lengthAdjust="spacing" textLength="17.1514" x="335.7925" y="870.2676">19</text><text fill="#000000" font-family="sans-serif" font-size="13" lengthAdjust="spacing" textLength="109.5859" x="356.9438" y="870.2676">Create flight plan</text></g><g class="message" data-entity-1="part2" data-entity-2="part1" id="msg20"><polygon fill="#181818" points="53.834,913.3203,43.834,917.3203,53.834,921.3203,49.834,917.3203" style="stroke:#181818;stroke-width:1;"/><line style="stroke:#181818;stroke-width:1;stroke-dasharray:2,2;" x1="47.834" x2="317.7925" y1="917.3203" y2="917.3203"/><text fill="#000000" font-family="sans-serif" font-size="13" font-weight="bold" lengthAdjust="spacing" textLength="17.1514" x="71.5378" y="912.5781">20</text><text fill="#000000" font-family="sans-serif" font-size="13" lengthAdjust="spacing" textLength="197.3994" x="92.6892" y="912.5781">Flight plan created successfully</text></g><line style="stroke:#000000;stroke-width:1;stroke-dasharray:2,2;" x1="10" x2="488.5298" y1="926.3203" y2="926.3203"/><text fill="#000000" font-family="sans-serif" font-size="11" font-weight="bold" lengthAdjust="spacing" textLength="150.5786" x="15" y="936.9551">[flight plan data is invalid]</text><g class="message" data-entity-1="part2" data-entity-2="part1" id="msg21"><polygon fill="#181818" points="53.834,957.5859,43.834,961.5859,53.834,965.5859,49.834,961.5859" style="stroke:#181818;stroke-width:1;"/><line style="stroke:#181818;stroke-width:1;stroke-dasharray:2,2;" x1="47.834" x2="317.7925" y1="961.5859" y2="961.5859"/><text fill="#000000" font-family="sans-serif" font-size="13" font-weight="bold" lengthAdjust="spacing" textLength="17.1514" x="99.9341" y="956.8438">21</text><text fill="#000000" font-family="sans-serif" font-size="13" lengthAdjust="spacing" textLength="140.6069" x="121.0854" y="956.8438">Display error message</text></g><?plantuml-src dLInZjim3Dtr5SGjNNBeVaE1eaMt0eSBqAaB8z494LdoILGAz-jBoKdWv0pZhbuiI8-FZvJuyf73W0bxw6E8zf1YJo2faCdNam7j4VUqbT4J9BA2OU_dW7n05_zms4E7Fj-Sq6kXOEadvQmKNptl0rWAGibWaHXAlzEbGIinmSCp-oWFW1dQoYY9iEK1Wy33qtRCGdqxdfOjZayeTCQRzeF7BsS0FC5BLP0bWqImYIeMeLCT1u71OvXnd4dFeO_ACj7DI58iGXj0JZPX9niOAcBpEpYgMaiYS4hrMLZRYC51LyZ3Qz42M4RZw3xPWkBd54_iACzLLbPSbNeD_tOWUmJk9cd06RJH1sqvMurqJLNTYOd_abka-8MUQnaN1QtgzMGDqf9LYGHH9RzjoNgsIrVNCrrGi2CVmxvTRCl-AOEDlRwLyPq4gZOEb50u1lGhGTS8F25xtB6lbxbQIoQlWwBjRhUmBkWM-zzrtT5Sx-AZKPPqw3hMhKvdybfx7nsjDUcEwFsj-l0xkPsf9UYMv6Pwig2Krb7N7fX1Bs_6gzP-gZaCwBTOwEGVS_UuWruCuyUCUt8T1xbOgpRO5Uz7G-gJYmeuB6gu47_dhF0HA2Mzd7woLKF1cGLpcUrC_lWF?></g></svg>