<?plantuml 1.2026.2?><svg xmlns="http://www.w3.org/2000/svg" xmlns:xlink="http://www.w3.org/1999/xlink" contentStyleType="text/css" data-diagram-type="CLASS" height="1039px" preserveAspectRatio="none" style="width:2394px;height:1039px;background:#FFFFFF;" version="1.1" viewBox="0 0 2394 1039" width="2394px" zoomAndPan="magnify"><title>US101-CD</title><defs/><g><g class="title" data-source-line="1"><text fill="#000000" font-family="sans-serif" font-size="14" font-weight="bold" lengthAdjust="spacing" textLength="76.0293" x="1151.9854" y="23.5352">US101-CD</text></g><!--cluster c--><g class="cluster" data-qualified-name="c" data-source-line="9" id="ent0004"><rect fill="none" height="989.23" rx="2.5" ry="2.5" style="stroke:#000000;stroke-width:1.5;" width="2381" x="7" y="44.4883"/><text fill="#000000" font-family="sans-serif" font-size="14" font-weight="bold" lengthAdjust="spacing" textLength="7.4512" x="1193.7744" y="60.0234">c</text></g><!--cluster simulation--><g class="cluster" data-qualified-name="c.simulation" data-source-line="9" id="ent0005"><rect fill="none" height="922.23" rx="2.5" ry="2.5" style="stroke:#000000;stroke-width:1.5;" width="2333" x="31" y="87.4883"/><text fill="#000000" font-family="sans-serif" font-size="14" font-weight="bold" lengthAdjust="spacing" textLength="76.3848" x="1159.3076" y="103.0234">simulation</text></g><!--cluster process--><g class="cluster" data-qualified-name="c.simulation.process" data-source-line="8" id="ent0002"><rect fill="#DDDDDD" height="372.39" rx="2.5" ry="2.5" style="stroke:#000000;stroke-width:1.5;" width="368" x="432" y="130.4883"/><text fill="#000000" font-family="sans-serif" font-size="14" font-weight="bold" lengthAdjust="spacing" textLength="56.0684" x="587.9658" y="146.0234">process</text></g><!--cluster ipc--><g class="cluster" data-qualified-name="c.simulation.ipc" data-source-line="25" id="ent0007"><rect fill="#DDDDDD" height="364.15" rx="2.5" ry="2.5" style="stroke:#000000;stroke-width:1.5;" width="745" x="55" y="588.5883"/><text fill="#000000" font-family="sans-serif" font-size="14" font-weight="bold" lengthAdjust="spacing" textLength="21.2803" x="416.8599" y="604.1234">ipc</text></g><!--cluster movement--><g class="cluster" data-qualified-name="c.simulation.movement" data-source-line="45" id="ent0012"><rect fill="#DDDDDD" height="639.54" rx="2.5" ry="2.5" style="stroke:#000000;stroke-width:1.5;" width="1242" x="824" y="346.1783"/><text fill="#000000" font-family="sans-serif" font-size="14" font-weight="bold" lengthAdjust="spacing" textLength="75.6738" x="1407.1631" y="361.7134">movement</text></g><!--cluster logging--><g class="cluster" data-qualified-name="c.simulation.logging" data-source-line="98" id="ent0021"><rect fill="#DDDDDD" height="131.97" rx="2.5" ry="2.5" style="stroke:#000000;stroke-width:1.5;" width="250" x="2090" y="346.1783"/><text fill="#000000" font-family="sans-serif" font-size="14" font-weight="bold" lengthAdjust="spacing" textLength="54.9473" x="2187.5264" y="361.7134">logging</text></g><!--class MainSimulationProcess--><g class="entity" data-qualified-name="c.simulation.process.MainSimulationProcess" data-source-line="9" id="ent0003"><rect fill="#F1F1F1" height="113.9531" rx="2.5" ry="2.5" style="stroke:#181818;stroke-width:0.5;" width="304.0518" x="475.97" y="165.4883"/><ellipse cx="545.9803" cy="181.4883" fill="#C2C2C2" rx="11" ry="11" style="stroke:#181818;stroke-width:1;"/><path d="M548.9534,187.1313 Q548.3723,187.4302 547.7332,187.5796 Q547.094,187.729 546.3885,187.729 Q543.8816,187.729 542.5618,186.0771 Q541.242,184.4253 541.242,181.3042 Q541.242,178.1748 542.5618,176.5229 Q543.8816,174.8711 546.3885,174.8711 Q547.094,174.8711 547.7415,175.0205 Q548.3889,175.1699 548.9534,175.4688 L548.9534,178.1914 Q548.3225,177.6104 547.729,177.3406 Q547.1355,177.0708 546.5047,177.0708 Q545.1599,177.0708 544.4751,178.1375 Q543.7903,179.2041 543.7903,181.3042 Q543.7903,183.396 544.4751,184.4626 Q545.1599,185.5293 546.5047,185.5293 Q547.1355,185.5293 547.729,185.2595 Q548.3225,184.9897 548.9534,184.4087 Z " fill="#000000"/><text fill="#000000" font-family="sans-serif" font-size="14" lengthAdjust="spacing" textLength="155.5313" x="566.4803" y="186.7793">MainSimulationProcess</text><line style="stroke:#181818;stroke-width:0.5;" x1="476.97" x2="779.0218" y1="197.4883" y2="197.4883"/><text fill="#000000" font-family="sans-serif" font-size="14" lengthAdjust="spacing" textLength="100.1602" x="481.97" y="215.0234">-processId: int</text><text fill="#000000" font-family="sans-serif" font-size="14" lengthAdjust="spacing" textLength="254.8096" x="481.97" y="231.5117">-flightProcesses: List&lt;FlightProcess&gt;</text><text fill="#000000" font-family="sans-serif" font-size="14" lengthAdjust="spacing" textLength="292.0518" x="481.97" y="248">-pipeReaders: List&lt;MovementPipeReader&gt;</text><line style="stroke:#181818;stroke-width:0.5;" x1="476.97" x2="779.0218" y1="254.9531" y2="254.9531"/><text fill="#000000" font-family="sans-serif" font-size="14" lengthAdjust="spacing" textLength="198.3447" x="481.97" y="272.4883">+processMovementUpdates()</text></g><!--class FlightProcess--><g class="entity" data-qualified-name="c.simulation.process.FlightProcess" data-source-line="16" id="ent0006"><rect fill="#F1F1F1" height="130.4414" rx="2.5" ry="2.5" style="stroke:#181818;stroke-width:0.5;" width="335.4219" x="448.29" y="356.4383"/><ellipse cx="566.9687" cy="372.4383" fill="#C2C2C2" rx="11" ry="11" style="stroke:#181818;stroke-width:1;"/><path d="M569.9419,378.0813 Q569.3608,378.3802 568.7216,378.5296 Q568.0825,378.679 567.3769,378.679 Q564.8701,378.679 563.5503,377.0271 Q562.2304,375.3753 562.2304,372.2542 Q562.2304,369.1248 563.5503,367.4729 Q564.8701,365.8211 567.3769,365.8211 Q568.0825,365.8211 568.7299,365.9705 Q569.3774,366.1199 569.9419,366.4188 L569.9419,369.1414 Q569.311,368.5604 568.7175,368.2906 Q568.124,368.0208 567.4931,368.0208 Q566.1484,368.0208 565.4636,369.0875 Q564.7788,370.1541 564.7788,372.2542 Q564.7788,374.346 565.4636,375.4126 Q566.1484,376.4793 567.4931,376.4793 Q568.124,376.4793 568.7175,376.2095 Q569.311,375.9397 569.9419,375.3587 Z " fill="#000000"/><text fill="#000000" font-family="sans-serif" font-size="14" lengthAdjust="spacing" textLength="89.5645" x="587.4687" y="377.7293">FlightProcess</text><line style="stroke:#181818;stroke-width:0.5;" x1="449.29" x2="782.7119" y1="388.4383" y2="388.4383"/><text fill="#000000" font-family="sans-serif" font-size="14" lengthAdjust="spacing" textLength="100.1602" x="454.29" y="405.9734">-processId: int</text><text fill="#000000" font-family="sans-serif" font-size="14" lengthAdjust="spacing" textLength="105.6699" x="454.29" y="422.4617">-flightId: String</text><text fill="#000000" font-family="sans-serif" font-size="14" lengthAdjust="spacing" textLength="226.3584" x="454.29" y="438.95">-pipeWriter: MovementPipeWriter</text><line style="stroke:#181818;stroke-width:0.5;" x1="449.29" x2="782.7119" y1="445.9031" y2="445.9031"/><text fill="#000000" font-family="sans-serif" font-size="14" lengthAdjust="spacing" textLength="139.7744" x="454.29" y="463.4383">+executeFlightPlan()</text><text fill="#000000" font-family="sans-serif" font-size="14" lengthAdjust="spacing" textLength="323.4219" x="454.29" y="479.9266">+sendPositionUpdate(position: AircraftPosition)</text></g><!--class MovementPipeWriter--><g class="entity" data-qualified-name="c.simulation.ipc.MovementPipeWriter" data-source-line="26" id="ent0008"><rect fill="#F1F1F1" height="80.9766" rx="2.5" ry="2.5" style="stroke:#181818;stroke-width:0.5;" width="289.8193" x="494.09" y="623.5883"/><ellipse cx="565.0436" cy="639.5883" fill="#C2C2C2" rx="11" ry="11" style="stroke:#181818;stroke-width:1;"/><path d="M568.0168,645.2313 Q567.4357,645.5302 566.7965,645.6796 Q566.1574,645.829 565.4518,645.829 Q562.945,645.829 561.6252,644.1771 Q560.3053,642.5253 560.3053,639.4042 Q560.3053,636.2748 561.6252,634.6229 Q562.945,632.9711 565.4518,632.9711 Q566.1574,632.9711 566.8048,633.1205 Q567.4523,633.2699 568.0168,633.5688 L568.0168,636.2914 Q567.3859,635.7104 566.7924,635.4406 Q566.1989,635.1708 565.568,635.1708 Q564.2233,635.1708 563.5385,636.2375 Q562.8537,637.3041 562.8537,639.4042 Q562.8537,641.496 563.5385,642.5626 Q564.2233,643.6293 565.568,643.6293 Q566.1989,643.6293 566.7924,643.3595 Q567.3859,643.0897 568.0168,642.5087 Z " fill="#000000"/><text fill="#000000" font-family="sans-serif" font-size="14" lengthAdjust="spacing" textLength="139.4121" x="585.5436" y="644.8793">MovementPipeWriter</text><line style="stroke:#181818;stroke-width:0.5;" x1="495.09" x2="782.9093" y1="655.5883" y2="655.5883"/><text fill="#000000" font-family="sans-serif" font-size="14" lengthAdjust="spacing" textLength="139.2754" x="500.09" y="673.1234">-writeDescriptor: int</text><line style="stroke:#181818;stroke-width:0.5;" x1="495.09" x2="782.9093" y1="680.0766" y2="680.0766"/><text fill="#000000" font-family="sans-serif" font-size="14" lengthAdjust="spacing" textLength="277.8193" x="500.09" y="697.6117">+write(message: MovementMessage): int</text></g><!--class MovementPipeReader--><g class="entity" data-qualified-name="c.simulation.ipc.MovementPipeReader" data-source-line="31" id="ent0009"><rect fill="#F1F1F1" height="80.9766" rx="2.5" ry="2.5" style="stroke:#181818;stroke-width:0.5;" width="177.6191" x="281.19" y="623.5883"/><ellipse cx="296.19" cy="639.5883" fill="#C2C2C2" rx="11" ry="11" style="stroke:#181818;stroke-width:1;"/><path d="M299.1631,645.2313 Q298.5821,645.5302 297.9429,645.6796 Q297.3038,645.829 296.5982,645.829 Q294.0914,645.829 292.7715,644.1771 Q291.4517,642.5253 291.4517,639.4042 Q291.4517,636.2748 292.7715,634.6229 Q294.0914,632.9711 296.5982,632.9711 Q297.3038,632.9711 297.9512,633.1205 Q298.5987,633.2699 299.1631,633.5688 L299.1631,636.2914 Q298.5323,635.7104 297.9388,635.4406 Q297.3453,635.1708 296.7144,635.1708 Q295.3697,635.1708 294.6849,636.2375 Q294.0001,637.3041 294.0001,639.4042 Q294.0001,641.496 294.6849,642.5626 Q295.3697,643.6293 296.7144,643.6293 Q297.3453,643.6293 297.9388,643.3595 Q298.5323,643.0897 299.1631,642.5087 Z " fill="#000000"/><text fill="#000000" font-family="sans-serif" font-size="14" lengthAdjust="spacing" textLength="145.6191" x="310.19" y="644.8793">MovementPipeReader</text><line style="stroke:#181818;stroke-width:0.5;" x1="282.19" x2="457.8091" y1="655.5883" y2="655.5883"/><text fill="#000000" font-family="sans-serif" font-size="14" lengthAdjust="spacing" textLength="135.748" x="287.19" y="673.1234">-readDescriptor: int</text><line style="stroke:#181818;stroke-width:0.5;" x1="282.19" x2="457.8091" y1="680.0766" y2="680.0766"/><text fill="#000000" font-family="sans-serif" font-size="14" lengthAdjust="spacing" textLength="99.1348" x="287.19" y="697.6117">+read(): String</text></g><!--class MovementMessageEncoder--><g class="entity" data-qualified-name="c.simulation.ipc.MovementMessageEncoder" data-source-line="36" id="ent0010"><rect fill="#F1F1F1" height="64.4883" rx="2.5" ry="2.5" style="stroke:#181818;stroke-width:0.5;" width="327.0889" x="456.46" y="872.2583"/><ellipse cx="524.1153" cy="888.2583" fill="#C2C2C2" rx="11" ry="11" style="stroke:#181818;stroke-width:1;"/><path d="M527.0884,893.9013 Q526.5074,894.2002 525.8682,894.3496 Q525.229,894.499 524.5235,894.499 Q522.0166,894.499 520.6968,892.8471 Q519.377,891.1953 519.377,888.0742 Q519.377,884.9448 520.6968,883.2929 Q522.0166,881.6411 524.5235,881.6411 Q525.229,881.6411 525.8765,881.7905 Q526.524,881.9399 527.0884,882.2388 L527.0884,884.9614 Q526.4576,884.3804 525.8641,884.1106 Q525.2705,883.8408 524.6397,883.8408 Q523.295,883.8408 522.6101,884.9075 Q521.9253,885.9741 521.9253,888.0742 Q521.9253,890.166 522.6101,891.2326 Q523.295,892.2993 524.6397,892.2993 Q525.2705,892.2993 525.8641,892.0295 Q526.4576,891.7597 527.0884,891.1787 Z " fill="#000000"/><text fill="#000000" font-family="sans-serif" font-size="14" lengthAdjust="spacing" textLength="183.2783" x="544.6153" y="893.5493">MovementMessageEncoder</text><line style="stroke:#181818;stroke-width:0.5;" x1="457.46" x2="782.5489" y1="904.2583" y2="904.2583"/><line style="stroke:#181818;stroke-width:0.5;" x1="457.46" x2="782.5489" y1="912.2583" y2="912.2583"/><text fill="#000000" font-family="sans-serif" font-size="14" lengthAdjust="spacing" textLength="315.0889" x="462.46" y="929.7934">+encode(message: MovementMessage): String</text></g><!--class MovementMessageDecoder--><g class="entity" data-qualified-name="c.simulation.ipc.MovementMessageDecoder" data-source-line="40" id="ent0011"><rect fill="#F1F1F1" height="64.4883" rx="2.5" ry="2.5" style="stroke:#181818;stroke-width:0.5;" width="350.4473" x="70.78" y="872.2583"/><ellipse cx="149.1096" cy="888.2583" fill="#C2C2C2" rx="11" ry="11" style="stroke:#181818;stroke-width:1;"/><path d="M152.0827,893.9013 Q151.5017,894.2002 150.8625,894.3496 Q150.2234,894.499 149.5178,894.499 Q147.011,894.499 145.6911,892.8471 Q144.3713,891.1953 144.3713,888.0742 Q144.3713,884.9448 145.6911,883.2929 Q147.011,881.6411 149.5178,881.6411 Q150.2234,881.6411 150.8708,881.7905 Q151.5183,881.9399 152.0827,882.2388 L152.0827,884.9614 Q151.4519,884.3804 150.8584,884.1106 Q150.2649,883.8408 149.634,883.8408 Q148.2893,883.8408 147.6045,884.9075 Q146.9196,885.9741 146.9196,888.0742 Q146.9196,890.166 147.6045,891.2326 Q148.2893,892.2993 149.634,892.2993 Q150.2649,892.2993 150.8584,892.0295 Q151.4519,891.7597 152.0827,891.1787 Z " fill="#000000"/><text fill="#000000" font-family="sans-serif" font-size="14" lengthAdjust="spacing" textLength="185.2881" x="169.6096" y="893.5493">MovementMessageDecoder</text><line style="stroke:#181818;stroke-width:0.5;" x1="71.78" x2="420.2273" y1="904.2583" y2="904.2583"/><line style="stroke:#181818;stroke-width:0.5;" x1="71.78" x2="420.2273" y1="912.2583" y2="912.2583"/><text fill="#000000" font-family="sans-serif" font-size="14" lengthAdjust="spacing" textLength="338.4473" x="76.78" y="929.7934">+decode(rawMessage: String): MovementMessage</text></g><!--class MovementMessage--><g class="entity" data-qualified-name="c.simulation.movement.MovementMessage" data-source-line="46" id="ent0013"><rect fill="#F1F1F1" height="196.3945" rx="2.5" ry="2.5" style="stroke:#181818;stroke-width:0.5;" width="160.8916" x="839.55" y="565.8783"/><ellipse cx="854.55" cy="581.8783" fill="#C2C2C2" rx="11" ry="11" style="stroke:#181818;stroke-width:1;"/><path d="M857.5231,587.5213 Q856.9421,587.8202 856.3029,587.9696 Q855.6638,588.119 854.9582,588.119 Q852.4514,588.119 851.1315,586.4671 Q849.8117,584.8153 849.8117,581.6942 Q849.8117,578.5648 851.1315,576.9129 Q852.4514,575.2611 854.9582,575.2611 Q855.6638,575.2611 856.3112,575.4105 Q856.9587,575.5599 857.5231,575.8588 L857.5231,578.5814 Q856.8923,578.0004 856.2988,577.7306 Q855.7053,577.4608 855.0744,577.4608 Q853.7297,577.4608 853.0449,578.5275 Q852.3601,579.5941 852.3601,581.6942 Q852.3601,583.786 853.0449,584.8526 Q853.7297,585.9193 855.0744,585.9193 Q855.7053,585.9193 856.2988,585.6495 Q856.8923,585.3797 857.5231,584.7987 Z " fill="#000000"/><text fill="#000000" font-family="sans-serif" font-size="14" lengthAdjust="spacing" textLength="128.8916" x="868.55" y="587.1693">MovementMessage</text><line style="stroke:#181818;stroke-width:0.5;" x1="840.55" x2="999.4416" y1="597.8783" y2="597.8783"/><text fill="#000000" font-family="sans-serif" font-size="14" lengthAdjust="spacing" textLength="118.2959" x="845.55" y="615.4134">-aircraftId: String</text><text fill="#000000" font-family="sans-serif" font-size="14" lengthAdjust="spacing" textLength="105.6699" x="845.55" y="631.9017">-flightId: String</text><text fill="#000000" font-family="sans-serif" font-size="14" lengthAdjust="spacing" textLength="119.1641" x="845.55" y="648.39">-timestamp: long</text><text fill="#000000" font-family="sans-serif" font-size="14" lengthAdjust="spacing" textLength="115.3154" x="845.55" y="664.8783">-latitude: double</text><text fill="#000000" font-family="sans-serif" font-size="14" lengthAdjust="spacing" textLength="128.3652" x="845.55" y="681.3666">-longitude: double</text><text fill="#000000" font-family="sans-serif" font-size="14" lengthAdjust="spacing" textLength="115.3154" x="845.55" y="697.8548">-altitude: double</text><text fill="#000000" font-family="sans-serif" font-size="14" lengthAdjust="spacing" textLength="123.9424" x="845.55" y="714.3431">-velocityX: double</text><text fill="#000000" font-family="sans-serif" font-size="14" lengthAdjust="spacing" textLength="123.9014" x="845.55" y="730.8314">-velocityY: double</text><text fill="#000000" font-family="sans-serif" font-size="14" lengthAdjust="spacing" textLength="123.6416" x="845.55" y="747.3197">-velocityZ: double</text><line style="stroke:#181818;stroke-width:0.5;" x1="840.55" x2="999.4416" y1="754.2728" y2="754.2728"/></g><!--class AircraftPosition--><g class="entity" data-qualified-name="c.simulation.movement.AircraftPosition" data-source-line="58" id="ent0014"><rect fill="#F1F1F1" height="130.4414" rx="2.5" ry="2.5" style="stroke:#181818;stroke-width:0.5;" width="140.3652" x="1407.82" y="839.2783"/><ellipse cx="1424.5405" cy="855.2783" fill="#C2C2C2" rx="11" ry="11" style="stroke:#181818;stroke-width:1;"/><path d="M1427.5136,860.9213 Q1426.9325,861.2202 1426.2934,861.3696 Q1425.6542,861.519 1424.9487,861.519 Q1422.4418,861.519 1421.122,859.8671 Q1419.8022,858.2153 1419.8022,855.0942 Q1419.8022,851.9648 1421.122,850.3129 Q1422.4418,848.6611 1424.9487,848.6611 Q1425.6542,848.6611 1426.3017,848.8105 Q1426.9492,848.9599 1427.5136,849.2588 L1427.5136,851.9814 Q1426.8827,851.4004 1426.2892,851.1306 Q1425.6957,850.8608 1425.0649,850.8608 Q1423.7201,850.8608 1423.0353,851.9275 Q1422.3505,852.9941 1422.3505,855.0942 Q1422.3505,857.186 1423.0353,858.2526 Q1423.7201,859.3193 1425.0649,859.3193 Q1425.6957,859.3193 1426.2892,859.0495 Q1426.8827,858.7797 1427.5136,858.1987 Z " fill="#000000"/><text fill="#000000" font-family="sans-serif" font-size="14" lengthAdjust="spacing" textLength="104.542" x="1438.9228" y="860.5693">AircraftPosition</text><line style="stroke:#181818;stroke-width:0.5;" x1="1408.82" x2="1547.1852" y1="871.2783" y2="871.2783"/><text fill="#000000" font-family="sans-serif" font-size="14" lengthAdjust="spacing" textLength="118.2959" x="1413.82" y="888.8134">-aircraftId: String</text><text fill="#000000" font-family="sans-serif" font-size="14" lengthAdjust="spacing" textLength="119.1641" x="1413.82" y="905.3017">-timestamp: long</text><text fill="#000000" font-family="sans-serif" font-size="14" lengthAdjust="spacing" textLength="115.3154" x="1413.82" y="921.79">-latitude: double</text><text fill="#000000" font-family="sans-serif" font-size="14" lengthAdjust="spacing" textLength="128.3652" x="1413.82" y="938.2783">-longitude: double</text><text fill="#000000" font-family="sans-serif" font-size="14" lengthAdjust="spacing" textLength="115.3154" x="1413.82" y="954.7666">-altitude: double</text><line style="stroke:#181818;stroke-width:0.5;" x1="1408.82" x2="1547.1852" y1="961.7197" y2="961.7197"/></g><!--class VelocityVector--><g class="entity" data-qualified-name="c.simulation.movement.VelocityVector" data-source-line="66" id="ent0015"><rect fill="#F1F1F1" height="97.4648" rx="2.5" ry="2.5" style="stroke:#181818;stroke-width:0.5;" width="129.0566" x="855.47" y="855.7683"/><ellipse cx="870.47" cy="871.7683" fill="#C2C2C2" rx="11" ry="11" style="stroke:#181818;stroke-width:1;"/><path d="M873.4431,877.4113 Q872.8621,877.7102 872.2229,877.8596 Q871.5838,878.009 870.8782,878.009 Q868.3714,878.009 867.0515,876.3571 Q865.7317,874.7053 865.7317,871.5842 Q865.7317,868.4548 867.0515,866.8029 Q868.3714,865.1511 870.8782,865.1511 Q871.5838,865.1511 872.2312,865.3005 Q872.8787,865.4499 873.4431,865.7488 L873.4431,868.4714 Q872.8123,867.8904 872.2188,867.6206 Q871.6253,867.3508 870.9944,867.3508 Q869.6497,867.3508 868.9649,868.4175 Q868.2801,869.4841 868.2801,871.5842 Q868.2801,873.676 868.9649,874.7426 Q869.6497,875.8093 870.9944,875.8093 Q871.6253,875.8093 872.2188,875.5395 Q872.8123,875.2697 873.4431,874.6887 Z " fill="#000000"/><text fill="#000000" font-family="sans-serif" font-size="14" lengthAdjust="spacing" textLength="97.0566" x="884.47" y="877.0593">VelocityVector</text><line style="stroke:#181818;stroke-width:0.5;" x1="856.47" x2="983.5266" y1="887.7683" y2="887.7683"/><text fill="#000000" font-family="sans-serif" font-size="14" lengthAdjust="spacing" textLength="72.3037" x="861.47" y="905.3034">-x: double</text><text fill="#000000" font-family="sans-serif" font-size="14" lengthAdjust="spacing" textLength="71.0322" x="861.47" y="921.7917">-y: double</text><text fill="#000000" font-family="sans-serif" font-size="14" lengthAdjust="spacing" textLength="71.7432" x="861.47" y="938.28">-z: double</text><line style="stroke:#181818;stroke-width:0.5;" x1="856.47" x2="983.5266" y1="945.2331" y2="945.2331"/></g><!--class MovementMessageValidator--><g class="entity" data-qualified-name="c.simulation.movement.MovementMessageValidator" data-source-line="72" id="ent0016"><rect fill="#F1F1F1" height="64.4883" rx="2.5" ry="2.5" style="stroke:#181818;stroke-width:0.5;" width="471.252" x="840.37" y="389.4183"/><ellipse cx="976.7572" cy="405.4183" fill="#C2C2C2" rx="11" ry="11" style="stroke:#181818;stroke-width:1;"/><path d="M979.7304,411.0613 Q979.1493,411.3602 978.5101,411.5096 Q977.871,411.659 977.1654,411.659 Q974.6586,411.659 973.3388,410.0071 Q972.0189,408.3553 972.0189,405.2342 Q972.0189,402.1048 973.3388,400.4529 Q974.6586,398.8011 977.1654,398.8011 Q977.871,398.8011 978.5184,398.9505 Q979.1659,399.0999 979.7304,399.3988 L979.7304,402.1214 Q979.0995,401.5404 978.506,401.2706 Q977.9125,401.0008 977.2816,401.0008 Q975.9369,401.0008 975.2521,402.0675 Q974.5673,403.1341 974.5673,405.2342 Q974.5673,407.326 975.2521,408.3926 Q975.9369,409.4593 977.2816,409.4593 Q977.9125,409.4593 978.506,409.1895 Q979.0995,408.9197 979.7304,408.3387 Z " fill="#000000"/><text fill="#000000" font-family="sans-serif" font-size="14" lengthAdjust="spacing" textLength="189.9775" x="997.2572" y="410.7093">MovementMessageValidator</text><line style="stroke:#181818;stroke-width:0.5;" x1="841.37" x2="1310.622" y1="421.4183" y2="421.4183"/><line style="stroke:#181818;stroke-width:0.5;" x1="841.37" x2="1310.622" y1="429.4183" y2="429.4183"/><text fill="#000000" font-family="sans-serif" font-size="14" lengthAdjust="spacing" textLength="459.252" x="846.37" y="446.9534">+validate(message: MovementMessage): MovementValidationResult</text></g><!--class MovementValidationResult--><g class="entity" data-qualified-name="c.simulation.movement.MovementValidationResult" data-source-line="76" id="ent0017"><rect fill="#F1F1F1" height="80.9766" rx="2.5" ry="2.5" style="stroke:#181818;stroke-width:0.5;" width="212.3525" x="1035.82" y="623.5883"/><ellipse cx="1050.82" cy="639.5883" fill="#C2C2C2" rx="11" ry="11" style="stroke:#181818;stroke-width:1;"/><path d="M1053.7931,645.2313 Q1053.2121,645.5302 1052.5729,645.6796 Q1051.9338,645.829 1051.2282,645.829 Q1048.7214,645.829 1047.4015,644.1771 Q1046.0817,642.5253 1046.0817,639.4042 Q1046.0817,636.2748 1047.4015,634.6229 Q1048.7214,632.9711 1051.2282,632.9711 Q1051.9338,632.9711 1052.5812,633.1205 Q1053.2287,633.2699 1053.7931,633.5688 L1053.7931,636.2914 Q1053.1623,635.7104 1052.5688,635.4406 Q1051.9753,635.1708 1051.3444,635.1708 Q1049.9997,635.1708 1049.3149,636.2375 Q1048.6301,637.3041 1048.6301,639.4042 Q1048.6301,641.496 1049.3149,642.5626 Q1049.9997,643.6293 1051.3444,643.6293 Q1051.9753,643.6293 1052.5688,643.3595 Q1053.1623,643.0897 1053.7931,642.5087 Z " fill="#000000"/><text fill="#000000" font-family="sans-serif" font-size="14" lengthAdjust="spacing" textLength="180.3525" x="1064.82" y="644.8793">MovementValidationResult</text><line style="stroke:#181818;stroke-width:0.5;" x1="1036.82" x2="1247.1725" y1="655.5883" y2="655.5883"/><text fill="#000000" font-family="sans-serif" font-size="14" lengthAdjust="spacing" textLength="103.1201" x="1041.82" y="673.1234">-valid: boolean</text><text fill="#000000" font-family="sans-serif" font-size="14" lengthAdjust="spacing" textLength="143.7939" x="1041.82" y="689.6117">-errors: List&lt;String&gt;</text><line style="stroke:#181818;stroke-width:0.5;" x1="1036.82" x2="1247.1725" y1="696.5648" y2="696.5648"/></g><!--class AircraftPositionTracker--><g class="entity" data-qualified-name="c.simulation.movement.AircraftPositionTracker" data-source-line="81" id="ent0018"><rect fill="#F1F1F1" height="80.9766" rx="2.5" ry="2.5" style="stroke:#181818;stroke-width:0.5;" width="353.5303" x="1346.23" y="381.1783"/><ellipse cx="1440.877" cy="397.1783" fill="#C2C2C2" rx="11" ry="11" style="stroke:#181818;stroke-width:1;"/><path d="M1443.8501,402.8213 Q1443.2691,403.1202 1442.6299,403.2696 Q1441.9907,403.419 1441.2852,403.419 Q1438.7783,403.419 1437.4585,401.7671 Q1436.1387,400.1153 1436.1387,396.9942 Q1436.1387,393.8648 1437.4585,392.2129 Q1438.7783,390.5611 1441.2852,390.5611 Q1441.9907,390.5611 1442.6382,390.7105 Q1443.2857,390.8599 1443.8501,391.1588 L1443.8501,393.8814 Q1443.2193,393.3004 1442.6258,393.0306 Q1442.0322,392.7608 1441.4014,392.7608 Q1440.0567,392.7608 1439.3718,393.8275 Q1438.687,394.8941 1438.687,396.9942 Q1438.687,399.086 1439.3718,400.1526 Q1440.0567,401.2193 1441.4014,401.2193 Q1442.0322,401.2193 1442.6258,400.9495 Q1443.2193,400.6797 1443.8501,400.0987 Z " fill="#000000"/><text fill="#000000" font-family="sans-serif" font-size="14" lengthAdjust="spacing" textLength="155.7363" x="1461.377" y="402.4693">AircraftPositionTracker</text><line style="stroke:#181818;stroke-width:0.5;" x1="1347.23" x2="1698.7603" y1="413.1783" y2="413.1783"/><line style="stroke:#181818;stroke-width:0.5;" x1="1347.23" x2="1698.7603" y1="421.1783" y2="421.1783"/><text fill="#000000" font-family="sans-serif" font-size="14" lengthAdjust="spacing" textLength="341.5303" x="1352.23" y="438.7134">+updateCurrentPosition(position: AircraftPosition)</text><text fill="#000000" font-family="sans-serif" font-size="14" lengthAdjust="spacing" textLength="305.2383" x="1352.23" y="455.2017">+storePastPosition(position: AircraftPosition)</text></g><!--class CurrentPositionMap--><g class="entity" data-qualified-name="c.simulation.movement.CurrentPositionMap" data-source-line="86" id="ent0019"><rect fill="#F1F1F1" height="80.9766" rx="2.5" ry="2.5" style="stroke:#181818;stroke-width:0.5;" width="342.5928" x="1707.7" y="623.5883"/><ellipse cx="1807.6209" cy="639.5883" fill="#C2C2C2" rx="11" ry="11" style="stroke:#181818;stroke-width:1;"/><path d="M1810.594,645.2313 Q1810.013,645.5302 1809.3738,645.6796 Q1808.7347,645.829 1808.0291,645.829 Q1805.5223,645.829 1804.2024,644.1771 Q1802.8826,642.5253 1802.8826,639.4042 Q1802.8826,636.2748 1804.2024,634.6229 Q1805.5223,632.9711 1808.0291,632.9711 Q1808.7347,632.9711 1809.3821,633.1205 Q1810.0296,633.2699 1810.594,633.5688 L1810.594,636.2914 Q1809.9632,635.7104 1809.3697,635.4406 Q1808.7762,635.1708 1808.1453,635.1708 Q1806.8006,635.1708 1806.1158,636.2375 Q1805.431,637.3041 1805.431,639.4042 Q1805.431,641.496 1806.1158,642.5626 Q1806.8006,643.6293 1808.1453,643.6293 Q1808.7762,643.6293 1809.3697,643.3595 Q1809.9632,643.0897 1810.594,642.5087 Z " fill="#000000"/><text fill="#000000" font-family="sans-serif" font-size="14" lengthAdjust="spacing" textLength="134.251" x="1828.1209" y="644.8793">CurrentPositionMap</text><line style="stroke:#181818;stroke-width:0.5;" x1="1708.7" x2="2049.2928" y1="655.5883" y2="655.5883"/><line style="stroke:#181818;stroke-width:0.5;" x1="1708.7" x2="2049.2928" y1="663.5883" y2="663.5883"/><text fill="#000000" font-family="sans-serif" font-size="14" lengthAdjust="spacing" textLength="330.5928" x="1713.7" y="681.1234">+put(aircraftId: String, position: AircraftPosition)</text><text fill="#000000" font-family="sans-serif" font-size="14" lengthAdjust="spacing" textLength="265.5967" x="1713.7" y="697.6117">+get(aircraftId: String): AircraftPosition</text></g><!--class PositionHistory--><g class="entity" data-qualified-name="c.simulation.movement.PositionHistory" data-source-line="91" id="ent0020"><rect fill="#F1F1F1" height="97.4648" rx="2.5" ry="2.5" style="stroke:#181818;stroke-width:0.5;" width="389.5557" x="1283.22" y="615.3483"/><ellipse cx="1422.5262" cy="631.3483" fill="#C2C2C2" rx="11" ry="11" style="stroke:#181818;stroke-width:1;"/><path d="M1425.4993,636.9913 Q1424.9182,637.2902 1424.2791,637.4396 Q1423.6399,637.589 1422.9344,637.589 Q1420.4275,637.589 1419.1077,635.9371 Q1417.7879,634.2853 1417.7879,631.1642 Q1417.7879,628.0348 1419.1077,626.3829 Q1420.4275,624.7311 1422.9344,624.7311 Q1423.6399,624.7311 1424.2874,624.8805 Q1424.9348,625.0299 1425.4993,625.3288 L1425.4993,628.0514 Q1424.8684,627.4704 1424.2749,627.2006 Q1423.6814,626.9308 1423.0506,626.9308 Q1421.7058,626.9308 1421.021,627.9975 Q1420.3362,629.0641 1420.3362,631.1642 Q1420.3362,633.256 1421.021,634.3226 Q1421.7058,635.3893 1423.0506,635.3893 Q1423.6814,635.3893 1424.2749,635.1195 Q1424.8684,634.8497 1425.4993,634.2687 Z " fill="#000000"/><text fill="#000000" font-family="sans-serif" font-size="14" lengthAdjust="spacing" textLength="102.4434" x="1443.0262" y="636.6393">PositionHistory</text><line style="stroke:#181818;stroke-width:0.5;" x1="1284.22" x2="1671.7757" y1="647.3483" y2="647.3483"/><line style="stroke:#181818;stroke-width:0.5;" x1="1284.22" x2="1671.7757" y1="655.3483" y2="655.3483"/><text fill="#000000" font-family="sans-serif" font-size="14" lengthAdjust="spacing" textLength="214.1563" x="1289.22" y="672.8834">+add(position: AircraftPosition)</text><text fill="#000000" font-family="sans-serif" font-size="14" lengthAdjust="spacing" textLength="377.5557" x="1289.22" y="689.3717">+getByAircraft(aircraftId: String): List&lt;AircraftPosition&gt;</text><text fill="#000000" font-family="sans-serif" font-size="14" lengthAdjust="spacing" textLength="361.7441" x="1289.22" y="705.86">+getByTime(timestamp: long): List&lt;AircraftPosition&gt;</text></g><!--class SimulationLogger--><g class="entity" data-qualified-name="c.simulation.logging.SimulationLogger" data-source-line="99" id="ent0022"><rect fill="#F1F1F1" height="80.9766" rx="2.5" ry="2.5" style="stroke:#181818;stroke-width:0.5;" width="217.4336" x="2106.28" y="381.1783"/><ellipse cx="2151.3733" cy="397.1783" fill="#C2C2C2" rx="11" ry="11" style="stroke:#181818;stroke-width:1;"/><path d="M2154.3464,402.8213 Q2153.7654,403.1202 2153.1262,403.2696 Q2152.487,403.419 2151.7815,403.419 Q2149.2746,403.419 2147.9548,401.7671 Q2146.635,400.1153 2146.635,396.9942 Q2146.635,393.8648 2147.9548,392.2129 Q2149.2746,390.5611 2151.7815,390.5611 Q2152.487,390.5611 2153.1345,390.7105 Q2153.782,390.8599 2154.3464,391.1588 L2154.3464,393.8814 Q2153.7155,393.3004 2153.122,393.0306 Q2152.5285,392.7608 2151.8977,392.7608 Q2150.5529,392.7608 2149.8681,393.8275 Q2149.1833,394.8941 2149.1833,396.9942 Q2149.1833,399.086 2149.8681,400.1526 Q2150.5529,401.2193 2151.8977,401.2193 Q2152.5285,401.2193 2153.122,400.9495 Q2153.7155,400.6797 2154.3464,400.0987 Z " fill="#000000"/><text fill="#000000" font-family="sans-serif" font-size="14" lengthAdjust="spacing" textLength="118.7471" x="2171.8733" y="402.4693">SimulationLogger</text><line style="stroke:#181818;stroke-width:0.5;" x1="2107.28" x2="2322.7136" y1="413.1783" y2="413.1783"/><line style="stroke:#181818;stroke-width:0.5;" x1="2107.28" x2="2322.7136" y1="421.1783" y2="421.1783"/><text fill="#000000" font-family="sans-serif" font-size="14" lengthAdjust="spacing" textLength="205.4336" x="2112.28" y="438.7134">+logWarning(message: String)</text><text fill="#000000" font-family="sans-serif" font-size="14" lengthAdjust="spacing" textLength="183.2168" x="2112.28" y="455.2017">+logError(message: String)</text></g><!--link MainSimulationProcess to FlightProcess--><g class="link" data-entity-1="ent0003" data-entity-2="ent0006" data-link-type="dependency" data-source-line="105" id="lnk23"><path codeLine="105" d="M624.58,279.7083 C623.13,303.4983 621.7923,325.3692 620.3023,349.9992" fill="none" id="MainSimulationProcess-to-FlightProcess" style="stroke:#181818;stroke-width:1;"/><polygon fill="#181818" points="619.94,355.9883,624.4762,347.2462,620.2419,350.9974,616.4908,346.7632,619.94,355.9883" style="stroke:#181818;stroke-width:1;"/><polygon fill="#000000" points="627.4163,323.0843,630.8992,314.2345,625.0322,313.8774,627.4163,323.0843" style="stroke:#000000;stroke-width:1;"/><text fill="#000000" font-family="sans-serif" font-size="13" lengthAdjust="spacing" textLength="66.4219" x="636.72" y="323.0066">supervises</text><text fill="#000000" font-family="sans-serif" font-size="13" lengthAdjust="spacing" textLength="8.2202" x="615.6896" y="300.1862">1</text><text fill="#000000" font-family="sans-serif" font-size="13" lengthAdjust="spacing" textLength="22.7119" x="597.2066" y="345.5706">1..*</text></g><!--link MainSimulationProcess to MovementPipeReader--><g class="link" data-entity-1="ent0003" data-entity-2="ent0009" data-link-type="dependency" data-source-line="106" id="lnk24"><path codeLine="106" d="M475.77,250.6183 C426.64,267.3683 377.34,294.4383 348,338.1783 C289.33,425.6083 325.513,552.1994 350.763,617.7394" fill="none" id="MainSimulationProcess-to-MovementPipeReader" style="stroke:#181818;stroke-width:1;"/><polygon fill="#181818" points="352.92,623.3383,353.417,613.502,351.1225,618.6726,345.9519,616.378,352.92,623.3383" style="stroke:#181818;stroke-width:1;"/><polygon fill="#000000" points="351.3883,426.5467,357.0859,418.9317,351.5218,417.0371,351.3883,426.5467" style="stroke:#000000;stroke-width:1;"/><text fill="#000000" font-family="sans-serif" font-size="13" lengthAdjust="spacing" textLength="68.8848" x="362" y="426.7266">reads from</text><text fill="#000000" font-family="sans-serif" font-size="13" lengthAdjust="spacing" textLength="8.2202" x="459.7203" y="249.2596">1</text><text fill="#000000" font-family="sans-serif" font-size="13" lengthAdjust="spacing" textLength="22.7119" x="326.3283" y="612.9429">1..*</text></g><!--link MainSimulationProcess to MovementMessageDecoder--><g class="link" data-entity-1="ent0003" data-entity-2="ent0011" data-link-type="dependency" data-source-line="107" id="lnk25"><path codeLine="107" d="M475.71,261.7983 C434.29,274.6083 390.1,290.5283 351,309.4383 C221.37,372.1383 195.6,428.3383 153,565.8783 C127.18,649.2583 127.94,678.6683 153,762.2783 C165.52,804.0383 190.9631,840.2554 213.3631,867.1854" fill="none" id="MainSimulationProcess-to-MovementMessageDecoder" style="stroke:#181818;stroke-width:1;"/><polygon fill="#181818" points="217.2,871.7983,214.5199,862.3211,214.0026,867.9543,208.3694,867.437,217.2,871.7983" style="stroke:#181818;stroke-width:1;"/><polygon fill="#000000" points="170.2719,532.1213,176.565,524.9906,171.1718,522.6534,170.2719,532.1213" style="stroke:#000000;stroke-width:1;"/><text fill="#000000" font-family="sans-serif" font-size="13" lengthAdjust="spacing" textLength="52.1206" x="181.26" y="532.4466">decodes</text></g><!--link MainSimulationProcess to MovementMessageValidator--><g class="link" data-entity-1="ent0003" data-entity-2="ent0016" data-link-type="dependency" data-source-line="108" id="lnk26"><path codeLine="108" d="M756.08,279.8383 C836.5,315.2383 931.7685,357.1709 998.4885,386.5409" fill="none" id="MainSimulationProcess-to-MovementMessageValidator" style="stroke:#181818;stroke-width:1;"/><polygon fill="#181818" points="1003.98,388.9583,997.3543,381.6713,999.4038,386.9438,994.1312,388.9933,1003.98,388.9583" style="stroke:#181818;stroke-width:1;"/><polygon fill="#000000" points="861.5763,320.1079,854.4817,313.774,852.1137,319.1538,861.5763,320.1079" style="stroke:#000000;stroke-width:1;"/><text fill="#000000" font-family="sans-serif" font-size="13" lengthAdjust="spacing" textLength="55.5166" x="866" y="323.0066">validates</text></g><!--link MainSimulationProcess to AircraftPositionTracker--><g class="link" data-entity-1="ent0003" data-entity-2="ent0018" data-link-type="dependency" data-source-line="109" id="lnk27"><path codeLine="109" d="M780.4,237.7483 C923.98,253.6883 1144.08,284.5783 1329,338.1783 C1366.96,349.1783 1401.9446,363.1248 1436.0446,378.4048" fill="none" id="MainSimulationProcess-to-AircraftPositionTracker" style="stroke:#181818;stroke-width:1;"/><polygon fill="#181818" points="1441.52,380.8583,1434.9425,373.5277,1436.9571,378.8137,1431.6712,380.8283,1441.52,380.8583" style="stroke:#181818;stroke-width:1;"/><polygon fill="#000000" points="1283.3988,319.1423,1275.1714,314.3715,1273.9384,320.1186,1283.3988,319.1423" style="stroke:#000000;stroke-width:1;"/><text fill="#000000" font-family="sans-serif" font-size="13" lengthAdjust="spacing" textLength="50.3433" x="1287.51" y="323.0066">updates</text></g><!--link MainSimulationProcess to SimulationLogger--><g class="link" data-entity-1="ent0003" data-entity-2="ent0022" data-link-type="dependency" data-source-line="110" id="lnk28"><path codeLine="110" d="M780.34,227.4783 C1099.59,237.1983 1828.82,266.7183 2066,338.1783 C2097.71,347.7283 2125.06,361.5966 2151.57,377.6766" fill="none" id="MainSimulationProcess-to-SimulationLogger" style="stroke:#181818;stroke-width:1;"/><polygon fill="#181818" points="2156.7,380.7883,2151.0794,372.7007,2152.425,378.1952,2146.9305,379.5408,2156.7,380.7883" style="stroke:#181818;stroke-width:1;"/><polygon fill="#000000" points="2012.2403,318.638,2003.569,314.7317,2002.929,320.5746,2012.2403,318.638" style="stroke:#000000;stroke-width:1;"/><text fill="#000000" font-family="sans-serif" font-size="13" lengthAdjust="spacing" textLength="26.4761" x="2016.27" y="323.0066">logs</text></g><!--link FlightProcess to MovementMessage--><g class="link" data-entity-1="ent0006" data-entity-2="ent0013" data-link-type="dependency" data-source-line="112" id="lnk29"><path codeLine="112" d="M699.62,487.1983 C731.18,511.7083 767.35,539.9583 800,565.8783 C812.7,575.9683 821.4291,582.9523 834.4891,593.4823" fill="none" id="FlightProcess-to-MovementMessage" style="stroke:#181818;stroke-width:1;"/><polygon fill="#181818" points="839.16,597.2483,834.6644,588.4853,835.2676,594.1099,829.643,594.7132,839.16,597.2483" style="stroke:#181818;stroke-width:1;"/><polygon fill="#000000" points="768.8171,530.6283,763.532,522.7215,759.8938,527.3381,768.8171,530.6283" style="stroke:#000000;stroke-width:1;"/><text fill="#000000" font-family="sans-serif" font-size="13" lengthAdjust="spacing" textLength="45.1318" x="773.89" y="532.4466">creates</text></g><!--link FlightProcess to MovementMessageEncoder--><g class="link" data-entity-1="ent0006" data-entity-2="ent0010" data-link-type="dependency" data-source-line="113" id="lnk30"><path codeLine="113" d="M447.85,459.1083 C345.04,485.1783 227.57,523.1283 197,565.8783 C146.23,636.8883 151.43,687.8283 197,762.2783 C255.92,858.5483 330.2,809.2583 439,839.2783 C472.11,848.4083 502.2343,858.5293 533.1643,869.8293" fill="none" id="FlightProcess-to-MovementMessageEncoder" style="stroke:#181818;stroke-width:1;"/><polygon fill="#181818" points="538.8,871.8883,531.7191,865.0428,534.1036,870.1725,528.9739,872.557,538.8,871.8883" style="stroke:#181818;stroke-width:1;"/><polygon fill="#000000" points="203.0169,669.1291,204.0548,659.6753,198.2998,660.8707,203.0169,669.1291" style="stroke:#000000;stroke-width:1;"/><text fill="#000000" font-family="sans-serif" font-size="13" lengthAdjust="spacing" textLength="52.0063" x="211" y="669.1466">encodes</text></g><!--link FlightProcess to MovementPipeWriter--><g class="link" data-entity-1="ent0006" data-entity-2="ent0008" data-link-type="dependency" data-source-line="114" id="lnk31"><path codeLine="114" d="M622.16,487.0883 C626.32,530.4883 631.0887,580.3755 634.6287,617.3855" fill="none" id="FlightProcess-to-MovementPipeWriter" style="stroke:#181818;stroke-width:1;"/><polygon fill="#181818" points="635.2,623.3583,638.3249,614.0183,634.7239,618.381,630.3612,614.78,635.2,623.3583" style="stroke:#181818;stroke-width:1;"/><polygon fill="#000000" points="632.2863,532.5108,634.3502,523.2269,628.4991,523.7868,632.2863,532.5108" style="stroke:#000000;stroke-width:1;"/><text fill="#000000" font-family="sans-serif" font-size="13" lengthAdjust="spacing" textLength="37.8257" x="640.81" y="532.4466">writes</text></g><!--link MovementPipeWriter to MovementMessageEncoder--><g class="link" data-entity-1="ent0008" data-entity-2="ent0010" data-link-type="dependency" data-source-line="116" id="lnk32"><path codeLine="116" d="M635.82,704.9883 C632.08,751.9083 626.427,822.8673 622.997,865.8773" fill="none" id="MovementPipeWriter-to-MovementMessageEncoder" style="stroke:#181818;stroke-width:1;"/><polygon fill="#181818" points="622.52,871.8583,627.2228,863.2048,622.9175,866.8741,619.2481,862.5688,622.52,871.8583" style="stroke:#181818;stroke-width:1;"/><polygon fill="#000000" points="632.9628,805.9177,636.611,797.1348,630.7517,796.6678,632.9628,805.9177" style="stroke:#000000;stroke-width:1;"/><text fill="#000000" font-family="sans-serif" font-size="13" lengthAdjust="spacing" textLength="28.5645" x="642.36" y="805.8466">uses</text></g><!--link MovementPipeReader to MovementMessageDecoder--><g class="link" data-entity-1="ent0009" data-entity-2="ent0011" data-link-type="dependency" data-source-line="117" id="lnk33"><path codeLine="117" d="M349.25,704.9883 C324.84,751.9083 287.5986,823.5252 265.2286,866.5352" fill="none" id="MovementPipeReader-to-MovementMessageDecoder" style="stroke:#181818;stroke-width:1;"/><polygon fill="#181818" points="262.46,871.8583,270.1616,865.7194,264.7672,867.4224,263.0642,862.028,262.46,871.8583" style="stroke:#181818;stroke-width:1;"/><polygon fill="#000000" points="303.2729,805.3694,310.0539,798.7009,304.8392,795.9887,303.2729,805.3694" style="stroke:#000000;stroke-width:1;"/><text fill="#000000" font-family="sans-serif" font-size="13" lengthAdjust="spacing" textLength="28.5645" x="314.58" y="805.8466">uses</text></g><!--link MovementMessage to AircraftPosition--><g class="link" data-entity-1="ent0013" data-entity-2="ent0014" data-link-type="dependency" data-source-line="118" id="lnk34"><path codeLine="118" d="M1000.75,750.6183 C1006.37,754.8383 1012.14,758.7683 1018,762.2783 C1143.78,837.5983 1307.3823,874.97 1401.5523,891.68" fill="none" id="MovementMessage-to-AircraftPosition" style="stroke:#181818;stroke-width:1;"/><polygon fill="#181818" points="1407.46,892.7283,1399.2973,887.2174,1402.5369,891.8547,1397.8996,895.0943,1407.46,892.7283" style="stroke:#181818;stroke-width:1;"/><polygon fill="#000000" points="1121.4164,802.5935,1113.86,796.8184,1111.9087,802.3629,1121.4164,802.5935" style="stroke:#000000;stroke-width:1;"/><text fill="#000000" font-family="sans-serif" font-size="13" lengthAdjust="spacing" textLength="53.2061" x="1125.7" y="805.8466">contains</text></g><!--link MovementMessage to VelocityVector--><g class="link" data-entity-1="ent0013" data-entity-2="ent0015" data-link-type="dependency" data-source-line="119" id="lnk35"><path codeLine="119" d="M920,762.7383 C920,794.7583 920,822.9283 920,849.5783" fill="none" id="MovementMessage-to-VelocityVector" style="stroke:#181818;stroke-width:1;"/><polygon fill="#181818" points="920,855.5783,924,846.5783,920,850.5783,916,846.5783,920,855.5783" style="stroke:#181818;stroke-width:1;"/><polygon fill="#000000" points="925,805.9336,927.9389,796.8885,922.0611,796.8885,925,805.9336" style="stroke:#000000;stroke-width:1;"/><text fill="#000000" font-family="sans-serif" font-size="13" lengthAdjust="spacing" textLength="75.9561" x="934" y="805.8466">may include</text></g><!--link MovementMessageValidator to MovementValidationResult--><g class="link" data-entity-1="ent0016" data-entity-2="ent0017" data-link-type="dependency" data-source-line="120" id="lnk36"><path codeLine="120" d="M1084.63,454.0883 C1096.54,497.4983 1116.4523,570.0022 1129.4723,617.4522" fill="none" id="MovementMessageValidator-to-MovementValidationResult" style="stroke:#181818;stroke-width:1;"/><polygon fill="#181818" points="1131.06,623.2383,1132.5359,613.5006,1129.7369,618.4165,1124.8211,615.6175,1131.06,623.2383" style="stroke:#181818;stroke-width:1;"/><polygon fill="#000000" points="1113.3435,532.3552,1113.7834,522.8548,1108.1152,524.4107,1113.3435,532.3552" style="stroke:#000000;stroke-width:1;"/><text fill="#000000" font-family="sans-serif" font-size="13" lengthAdjust="spacing" textLength="45.5063" x="1121.02" y="532.4466">returns</text></g><!--link AircraftPositionTracker to CurrentPositionMap--><g class="link" data-entity-1="ent0018" data-entity-2="ent0019" data-link-type="dependency" data-source-line="121" id="lnk37"><path codeLine="121" d="M1582.19,462.6283 C1648.12,507.1583 1749.1176,575.3704 1814.9976,619.8604" fill="none" id="AircraftPositionTracker-to-CurrentPositionMap" style="stroke:#181818;stroke-width:1;"/><polygon fill="#181818" points="1819.97,623.2183,1814.7501,614.8665,1815.8264,620.42,1810.2728,621.4963,1819.97,623.2183" style="stroke:#181818;stroke-width:1;"/><polygon fill="#000000" points="1699.4735,530.332,1693.6227,522.8341,1690.3329,527.7051,1699.4735,530.332" style="stroke:#000000;stroke-width:1;"/><text fill="#000000" font-family="sans-serif" font-size="13" lengthAdjust="spacing" textLength="50.3433" x="1704.33" y="532.4466">updates</text></g><!--link AircraftPositionTracker to PositionHistory--><g class="link" data-entity-1="ent0018" data-entity-2="ent0020" data-link-type="dependency" data-source-line="122" id="lnk38"><path codeLine="122" d="M1515.52,462.6283 C1507.67,504.5583 1496.4443,564.5508 1488.0743,609.2508" fill="none" id="AircraftPositionTracker-to-PositionHistory" style="stroke:#181818;stroke-width:1;"/><polygon fill="#181818" points="1486.97,615.1483,1492.5581,607.0382,1487.8902,610.2337,1484.6948,605.5658,1486.97,615.1483" style="stroke:#181818;stroke-width:1;"/><polygon fill="#000000" points="1508.61,532.4482,1513.163,524.0983,1507.3855,523.0168,1508.61,532.4482" style="stroke:#000000;stroke-width:1;"/><text fill="#000000" font-family="sans-serif" font-size="13" lengthAdjust="spacing" textLength="38.6636" x="1518.53" y="532.4466">stores</text></g><!--reverse link PositionHistory to AircraftPosition--><g class="link" data-entity-1="ent0020" data-entity-2="ent0014" data-link-type="aggregation" data-source-line="123" id="lnk39"><path codeLine="123" d="M1478,725.0383 C1478,761.2083 1478,799.2083 1478,838.8983" fill="none" id="PositionHistory-backto-AircraftPosition" style="stroke:#181818;stroke-width:1;"/><polygon fill="none" points="1478,713.0383,1474,719.0383,1478,725.0383,1482,719.0383,1478,713.0383" style="stroke:#181818;stroke-width:1;"/><text fill="#000000" font-family="sans-serif" font-size="13" lengthAdjust="spacing" textLength="8.2202" x="1469.4776" y="733.214">1</text><text fill="#000000" font-family="sans-serif" font-size="13" lengthAdjust="spacing" textLength="6.2651" x="1471.6861" y="828.4882">*</text></g><!--reverse link CurrentPositionMap to AircraftPosition--><g class="link" data-entity-1="ent0019" data-entity-2="ent0014" data-link-type="aggregation" data-source-line="124" id="lnk40"><path codeLine="124" d="M1801.5651,711.1204 C1728.5451,754.5304 1622.65,817.4983 1548.38,861.6583" fill="none" id="CurrentPositionMap-backto-AircraftPosition" style="stroke:#181818;stroke-width:1;"/><polygon fill="none" points="1811.88,704.9883,1804.6785,704.6161,1801.5651,711.1204,1808.7666,711.4926,1811.88,704.9883" style="stroke:#181818;stroke-width:1;"/><text fill="#000000" font-family="sans-serif" font-size="13" lengthAdjust="spacing" textLength="8.2202" x="1793.0072" y="724.9935">1</text><text fill="#000000" font-family="sans-serif" font-size="13" lengthAdjust="spacing" textLength="6.2651" x="1555.9607" y="854.0513">*</text></g><?plantuml-src lLRTJzim47_lNs5rB-bOAtYDfagCCWs9IXLbiEtDE6wmSEp8TWfbud_VEN5ed0-tl2mlLUz-T_VpVTc66KxHp_NPwTdqOZ4QwIScSgnmXZ8f97bKCgF8g88sD3acJpYbQxC3KqM9mIBbJO1-n8byPY956ynrKqCurlhS6CKU2aElY1HhzahHwMZadA8ncMcM5HmR9iKiLv9GhSVeqwByqDyHWgzqWvQOWNcDNLLGXx3V53dpgoH6J9Y6OiDP-cYS2TKnkcRQVFtUbCwRVbXERoXEgAgXIxcb6HLczQxPuq_gk3NePvvWGtKqAI5leyOPl90VuMxbQyYZI5iyxnKpLCMeoR2IDGZI5qgW02uwny9ngxIQYcGbDRDfhRX7kViRetEcYC8RKmFgGxqDrP3bPA1-7OPU0fwjQ44rKImtKlbfEAdKKGOfWf3xuouhmMGFz_BThPiNKu5eEAJLHXClxxtE7OTBGQGV019VoaAqZtI-e5tdIIcB57vUrluhRvDEe4D5onmyN3ddp4iXTltHsw21tZKCac9mbiU8IqzZAPaYWTCaidZWjAa2v90Eyq6pBUMICBFx5T3z3kZ-U3glJEtnE3ut_oS17jaxTvuxMEBIduIN7eUx7jdhiFTMbznXpc2NIBzdjvKqE1Arn7c0hDvGNV30UBUHtj7Aa35wa99JB1eAgfHyt_1LVUQ7AtohO89QarYKM_EYKChk6WSyk4JTzeKKqHNMnzjvz5f1bpZtcEM5YRfj-0KTnosbVTQJhb6NLwtvmUm1Tnufd2JHqGI-xMf0FvMoUcqVyxQFMvYsg3LoOUF0jkGoJI5u_xBSFr6k0TPg5B2ynqg0yNu0t4byrANjpNvCIQp_CJG-6wFfT0w_izddSUkr4IDTv5Hj6Ro0qFmu3pttPrpUYnfjuAquwCQw6BZ1OdTlwOyOxvT9_Bv2mWw6nZPsmngsxXJHTangRKP-Kdku0fP0YgeG1z7rgo5sRuMmKUFj55TFef9JZpeOgd0jqArki70ji_gyVUcsIP32G8A7B5gNKOmol8C76E5mXNLDzWtGPDZP-xOvJQ7Ae4CTO1tqRCrcOuHCsuijhZQuDMkhx339wHIDOP8w6xE7GX3_3m00?></g></svg>