<?plantuml 1.2026.2?><svg xmlns="http://www.w3.org/2000/svg" xmlns:xlink="http://www.w3.org/1999/xlink" contentStyleType="text/css" data-diagram-type="SEQUENCE" height="544px" preserveAspectRatio="none" style="width:756px;height:544px;background:#FFFFFF;" version="1.1" viewBox="0 0 756 544" width="756px" zoomAndPan="magnify"><defs/><g><g><title>Administrator</title><rect fill="#FFFFFF" height="362.0605" style="stroke:#181818;stroke-width:1;" width="10" x="64.8604" y="91.4883"/></g><g><title>.System</title><rect fill="#FFFFFF" height="29.3105" style="stroke:#181818;stroke-width:1;" width="10" x="491.1401" y="112.7988"/></g><g><title>.System</title><rect fill="#FFFFFF" height="282.1289" style="stroke:#181818;stroke-width:1;" width="10" x="491.1401" y="171.4199"/></g><rect fill="none" height="133.1973" style="stroke:#000000;stroke-width:1.5;" width="651.0806" x="10" y="313.3516"/><g class="participant-lifeline" data-entity-uid="part1" data-qualified-name="Admin" id="part1-lifeline"><g><title>Administrator</title><rect fill="#000000" fill-opacity="0.00000" height="382.0605" width="8" x="65.8604" y="81.4883"/><line style="stroke:#181818;stroke-width:0.5;stroke-dasharray:5,5;" x1="69" x2="69" y1="81.4883" y2="463.5488"/></g></g><g class="participant-lifeline" data-entity-uid="part2" data-qualified-name="System" id="part2-lifeline"><g><title>.System</title><rect fill="#000000" fill-opacity="0.00000" height="382.0605" width="8" x="492.1401" y="81.4883"/><line style="stroke:#181818;stroke-width:0.5;stroke-dasharray:5,5;" x1="495.8765" x2="495.8765" y1="81.4883" y2="463.5488"/></g></g><g class="participant participant-head" data-entity-uid="part1" data-qualified-name="Admin" id="part1-head"><text fill="#000000" font-family="sans-serif" font-size="14" lengthAdjust="spacing" textLength="93.7207" x="20" y="78.5352">Administrator</text><ellipse cx="69.8604" cy="13.5" fill="#E3E3E3" rx="8" ry="8" style="stroke:#181818;stroke-width:0.5;"/><path d="M69.8604,21.5 L69.8604,48.5 M56.8604,29.5 L82.8604,29.5 M69.8604,48.5 L56.8604,63.5 M69.8604,48.5 L82.8604,63.5" fill="none" style="stroke:#181818;stroke-width:0.5;"/></g><g class="participant participant-tail" data-entity-uid="part1" data-qualified-name="Admin" id="part1-tail"><text fill="#000000" font-family="sans-serif" font-size="14" lengthAdjust="spacing" textLength="93.7207" x="20" y="476.084">Administrator</text><ellipse cx="69.8604" cy="487.5371" fill="#E3E3E3" rx="8" ry="8" style="stroke:#181818;stroke-width:0.5;"/><path d="M69.8604,495.5371 L69.8604,522.5371 M56.8604,503.5371 L82.8604,503.5371 M69.8604,522.5371 L56.8604,537.5371 M69.8604,522.5371 L82.8604,537.5371" fill="none" style="stroke:#181818;stroke-width:0.5;"/></g><g class="participant participant-head" data-entity-uid="part2" data-qualified-name="System" id="part2-head"><rect fill="#E3E3E3" height="30.4883" rx="2.5" ry="2.5" style="stroke:#181818;stroke-width:0.5;" width="66.5273" x="462.8765" y="50"/><text fill="#000000" font-family="sans-serif" font-size="14" lengthAdjust="spacing" textLength="52.5273" x="469.8765" y="70.5352">:System</text></g><g class="participant participant-tail" data-entity-uid="part2" data-qualified-name="System" id="part2-tail"><rect fill="#E3E3E3" height="30.4883" rx="2.5" ry="2.5" style="stroke:#181818;stroke-width:0.5;" width="66.5273" x="462.8765" y="462.5488"/><text fill="#000000" font-family="sans-serif" font-size="14" lengthAdjust="spacing" textLength="52.5273" x="469.8765" y="483.084">:System</text></g><g><title>Administrator</title><rect fill="#FFFFFF" height="362.0605" style="stroke:#181818;stroke-width:1;" width="10" x="64.8604" y="91.4883"/></g><g><title>.System</title><rect fill="#FFFFFF" height="29.3105" style="stroke:#181818;stroke-width:1;" width="10" x="491.1401" y="112.7988"/></g><g><title>.System</title><rect fill="#FFFFFF" height="282.1289" style="stroke:#181818;stroke-width:1;" width="10" x="491.1401" y="171.4199"/></g><g class="message" data-entity-1="part1" data-entity-2="part2" id="msg1"><polygon fill="#181818" points="479.1401,108.7988,489.1401,112.7988,479.1401,116.7988,483.1401,112.7988" style="stroke:#181818;stroke-width:1;"/><line style="stroke:#181818;stroke-width:1;" x1="74.8604" x2="485.1401" y1="112.7988" y2="112.7988"/><text fill="#000000" font-family="sans-serif" font-size="13" font-weight="bold" lengthAdjust="spacing" textLength="8.5757" x="127.7742" y="108.0566">1</text><text fill="#000000" font-family="sans-serif" font-size="13" lengthAdjust="spacing" textLength="297.8765" x="140.3499" y="108.0566">Requests to disable or enable a backoffice user</text></g><g class="message" data-entity-1="part2" data-entity-2="part1" id="msg2"><polygon fill="#181818" points="85.8604,138.1094,75.8604,142.1094,85.8604,146.1094,81.8604,142.1094" style="stroke:#181818;stroke-width:1;"/><line style="stroke:#181818;stroke-width:1;stroke-dasharray:2,2;" x1="79.8604" x2="495.1401" y1="142.1094" y2="142.1094"/><text fill="#000000" font-family="sans-serif" font-size="13" font-weight="bold" lengthAdjust="spacing" textLength="8.5757" x="89.3604" y="137.3672">2</text><text fill="#000000" font-family="sans-serif" font-size="13" lengthAdjust="spacing" textLength="379.7041" x="101.936" y="137.3672">Requests/verifies user identification and intended operation</text></g><g class="message" data-entity-1="part1" data-entity-2="part2" id="msg3"><polygon fill="#181818" points="479.1401,167.4199,489.1401,171.4199,479.1401,175.4199,483.1401,171.4199" style="stroke:#181818;stroke-width:1;"/><line style="stroke:#181818;stroke-width:1;" x1="74.8604" x2="485.1401" y1="171.4199" y2="171.4199"/><text fill="#000000" font-family="sans-serif" font-size="13" font-weight="bold" lengthAdjust="spacing" textLength="8.5757" x="144.8779" y="166.6777">3</text><text fill="#000000" font-family="sans-serif" font-size="13" lengthAdjust="spacing" textLength="263.6689" x="157.4536" y="166.6777">Provides user identification and operation</text></g><g class="message" data-entity-1="part2" data-entity-2="part2" id="msg4"><line style="stroke:#181818;stroke-width:1;stroke-dasharray:2,2;" x1="501.1401" x2="543.1401" y1="200.7305" y2="200.7305"/><line style="stroke:#181818;stroke-width:1;stroke-dasharray:2,2;" x1="543.1401" x2="543.1401" y1="200.7305" y2="213.7305"/><line style="stroke:#181818;stroke-width:1;stroke-dasharray:2,2;" x1="502.1401" x2="543.1401" y1="213.7305" y2="213.7305"/><polygon fill="#181818" points="512.1401,209.7305,502.1401,213.7305,512.1401,217.7305,508.1401,213.7305" style="stroke:#181818;stroke-width:1;"/><text fill="#000000" font-family="sans-serif" font-size="13" font-weight="bold" lengthAdjust="spacing" textLength="8.5757" x="508.1401" y="195.9883">4</text><text fill="#000000" font-family="sans-serif" font-size="13" lengthAdjust="spacing" textLength="229.0806" x="520.7158" y="195.9883">Check if Administrator is authorized</text></g><g class="message" data-entity-1="part2" data-entity-2="part2" id="msg5"><line style="stroke:#181818;stroke-width:1;stroke-dasharray:2,2;" x1="501.1401" x2="543.1401" y1="243.041" y2="243.041"/><line style="stroke:#181818;stroke-width:1;stroke-dasharray:2,2;" x1="543.1401" x2="543.1401" y1="243.041" y2="256.041"/><line style="stroke:#181818;stroke-width:1;stroke-dasharray:2,2;" x1="502.1401" x2="543.1401" y1="256.041" y2="256.041"/><polygon fill="#181818" points="512.1401,252.041,502.1401,256.041,512.1401,260.041,508.1401,256.041" style="stroke:#181818;stroke-width:1;"/><text fill="#000000" font-family="sans-serif" font-size="13" font-weight="bold" lengthAdjust="spacing" textLength="8.5757" x="508.1401" y="238.2988">5</text><text fill="#000000" font-family="sans-serif" font-size="13" lengthAdjust="spacing" textLength="72.8394" x="520.7158" y="238.2988">Search user</text></g><g class="message" data-entity-1="part2" data-entity-2="part2" id="msg6"><line style="stroke:#181818;stroke-width:1;stroke-dasharray:2,2;" x1="501.1401" x2="543.1401" y1="285.3516" y2="285.3516"/><line style="stroke:#181818;stroke-width:1;stroke-dasharray:2,2;" x1="543.1401" x2="543.1401" y1="285.3516" y2="298.3516"/><line style="stroke:#181818;stroke-width:1;stroke-dasharray:2,2;" x1="502.1401" x2="543.1401" y1="298.3516" y2="298.3516"/><polygon fill="#181818" points="512.1401,294.3516,502.1401,298.3516,512.1401,302.3516,508.1401,298.3516" style="stroke:#181818;stroke-width:1;"/><text fill="#000000" font-family="sans-serif" font-size="13" font-weight="bold" lengthAdjust="spacing" textLength="8.5757" x="508.1401" y="280.6094">6</text><text fill="#000000" font-family="sans-serif" font-size="13" lengthAdjust="spacing" textLength="209.5171" x="520.7158" y="280.6094">Validate requested status change</text></g><path d="M10,313.3516 L72.1387,313.3516 L72.1387,320.6621 L62.1387,330.6621 L10,330.6621 L10,313.3516" fill="#EEEEEE" style="stroke:#000000;stroke-width:1.5;"/><rect fill="none" height="133.1973" style="stroke:#000000;stroke-width:1.5;" width="651.0806" x="10" y="313.3516"/><text fill="#000000" font-family="sans-serif" font-size="13" font-weight="bold" lengthAdjust="spacing" textLength="17.1387" x="25" y="326.9199">alt</text><text fill="#000000" font-family="sans-serif" font-size="11" font-weight="bold" lengthAdjust="spacing" textLength="107.1479" x="87.1387" y="325.9863">[operation is valid]</text><g class="message" data-entity-1="part2" data-entity-2="part2" id="msg7"><line style="stroke:#181818;stroke-width:1;stroke-dasharray:2,2;" x1="501.1401" x2="543.1401" y1="351.9727" y2="351.9727"/><line style="stroke:#181818;stroke-width:1;stroke-dasharray:2,2;" x1="543.1401" x2="543.1401" y1="351.9727" y2="364.9727"/><line style="stroke:#181818;stroke-width:1;stroke-dasharray:2,2;" x1="502.1401" x2="543.1401" y1="364.9727" y2="364.9727"/><polygon fill="#181818" points="512.1401,360.9727,502.1401,364.9727,512.1401,368.9727,508.1401,364.9727" style="stroke:#181818;stroke-width:1;"/><text fill="#000000" font-family="sans-serif" font-size="13" font-weight="bold" lengthAdjust="spacing" textLength="8.5757" x="508.1401" y="347.2305">7</text><text fill="#000000" font-family="sans-serif" font-size="13" lengthAdjust="spacing" textLength="118.3647" x="520.7158" y="347.2305">Update user status</text></g><g class="message" data-entity-1="part2" data-entity-2="part1" id="msg8"><polygon fill="#181818" points="85.8604,390.2832,75.8604,394.2832,85.8604,398.2832,81.8604,394.2832" style="stroke:#181818;stroke-width:1;"/><line style="stroke:#181818;stroke-width:1;stroke-dasharray:2,2;" x1="79.8604" x2="490.1401" y1="394.2832" y2="394.2832"/><text fill="#000000" font-family="sans-serif" font-size="13" font-weight="bold" lengthAdjust="spacing" textLength="8.5757" x="173.5503" y="389.541">8</text><text fill="#000000" font-family="sans-serif" font-size="13" lengthAdjust="spacing" textLength="206.3242" x="186.126" y="389.541">User status updated successfully</text></g><line style="stroke:#000000;stroke-width:1;stroke-dasharray:2,2;" x1="10" x2="661.0806" y1="403.2832" y2="403.2832"/><text fill="#000000" font-family="sans-serif" font-size="11" font-weight="bold" lengthAdjust="spacing" textLength="117.9492" x="15" y="413.918">[operation is invalid]</text><g class="message" data-entity-1="part2" data-entity-2="part1" id="msg9"><polygon fill="#181818" points="85.8604,434.5488,75.8604,438.5488,85.8604,442.5488,81.8604,438.5488" style="stroke:#181818;stroke-width:1;"/><line style="stroke:#181818;stroke-width:1;stroke-dasharray:2,2;" x1="79.8604" x2="490.1401" y1="438.5488" y2="438.5488"/><text fill="#000000" font-family="sans-serif" font-size="13" font-weight="bold" lengthAdjust="spacing" textLength="8.5757" x="206.4089" y="433.8066">9</text><text fill="#000000" font-family="sans-serif" font-size="13" lengthAdjust="spacing" textLength="140.6069" x="218.9846" y="433.8066">Display error message</text></g><?plantuml-src VP9DJyCm38Rl-HNMxeWx1oG4LoJ417SlSLThQL9YPsZyUhoqsnWgzD8ajf_NNxBZD6B10OQSikzB7WYqL79ojepeTxYbjHuYGI6lcBRnfuFq6F8dforq6ENAGX-LagTd4Z74G-Hj0az9gJYicbCTDdPqw3KNM3s4WHEB5hJh2b2WlJY3ANiUCIcixjO7KHgQUJgsUDwZqkplsWzkxcS7k8FNOoQY0feXiE36QZ59Iks4iB4YSzUn9wWofpGXPusPT6FGYNvXtkwfSCSaBHGuM85szwYS4s0Am5Pn2XGWZrJQimlqMs4XwvUIzuRx6tpX_PVmcVVOazy1Tt3LQM01cqQV2tzHM0nS4nRVJwrPihzZv70KBrDFh5HHr2hWUriNilIYNh8zAkwF8GxiMmA-ZGtNwfv8lrrFKtYxk41jKQPTlRULwsgC1qUsazVId1R5JyGdbZ7Y0QWKQyumxQwp0Rg5gVrucPRl6m00?></g></svg>