<?plantuml 1.2026.2?><svg xmlns="http://www.w3.org/2000/svg" xmlns:xlink="http://www.w3.org/1999/xlink" contentStyleType="text/css" data-diagram-type="CLASS" height="1104px" preserveAspectRatio="none" style="width:1508px;height:1104px;background:#FFFFFF;" version="1.1" viewBox="0 0 1508 1104" width="1508px" zoomAndPan="magnify"><title>US050-CD</title><defs/><g><g class="title" data-source-line="1"><text fill="#000000" font-family="sans-serif" font-size="11.2" font-weight="bold" lengthAdjust="spacing" textLength="60.8234" x="717.9883" y="18.8281">US050-CD</text></g><!--cluster ui--><g class="cluster" data-qualified-name="ui" data-source-line="9" id="ent0004"><rect fill="none" height="211.944" rx="2" ry="2" style="stroke:#000000;stroke-width:1.2;" width="273.6" x="120" y="35.5906"/><text fill="#000000" font-family="sans-serif" font-size="11.2" font-weight="bold" lengthAdjust="spacing" textLength="10.9977" x="251.3012" y="48.0188">ui</text></g><!--cluster console--><g class="cluster" data-qualified-name="ui.console" data-source-line="8" id="ent0002"><rect fill="#DDDDDD" height="158.344" rx="2" ry="2" style="stroke:#000000;stroke-width:1.2;" width="235.2" x="139.2" y="69.9906"/><text fill="#000000" font-family="sans-serif" font-size="11.2" font-weight="bold" lengthAdjust="spacing" textLength="44.1602" x="234.7199" y="82.4188">console</text></g><!--cluster controller--><g class="cluster" data-qualified-name="controller" data-source-line="19" id="ent0005"><rect fill="#DDDDDD" height="92.392" rx="2" ry="2" style="stroke:#000000;stroke-width:1.2;" width="502.4" x="5.6" y="299.9266"/><text fill="#000000" font-family="sans-serif" font-size="11.2" font-weight="bold" lengthAdjust="spacing" textLength="56.1914" x="228.7043" y="312.3548">controller</text></g><!--cluster application--><g class="cluster" data-qualified-name="application" data-source-line="25" id="ent0007"><rect fill="#DDDDDD" height="381.736" rx="2" ry="2" style="stroke:#000000;stroke-width:1.2;" width="606.4" x="527.2" y="286.7346"/><text fill="#000000" font-family="sans-serif" font-size="11.2" font-weight="bold" lengthAdjust="spacing" textLength="63.9461" x="798.427" y="299.1628">application</text></g><!--cluster domain--><g class="cluster" data-qualified-name="domain" data-source-line="55" id="ent0014"><rect fill="#DDDDDD" height="385.504" rx="2" ry="2" style="stroke:#000000;stroke-width:1.2;" width="830.4" x="522.4" y="714.2706"/><text fill="#000000" font-family="sans-serif" font-size="11.2" font-weight="bold" lengthAdjust="spacing" textLength="43.0172" x="916.0914" y="726.6988">domain</text></g><!--cluster repository--><g class="cluster" data-qualified-name="repository" data-source-line="100" id="ent0023"><rect fill="#DDDDDD" height="118.776" rx="2" ry="2" style="stroke:#000000;stroke-width:1.2;" width="350.4" x="1152.8" y="556.2946"/><text fill="#000000" font-family="sans-serif" font-size="11.2" font-weight="bold" lengthAdjust="spacing" textLength="59.5164" x="1298.2418" y="568.7228">repository</text></g><!--class RegisterAirControlAreaUI--><g class="entity" data-qualified-name="ui.console.RegisterAirControlAreaUI" data-source-line="9" id="ent0003"><rect fill="#F1F1F1" height="117.5438" rx="2" ry="2" style="stroke:#181818;stroke-width:0.4;" width="209.2094" x="152.192" y="97.9906"/><ellipse cx="185.6152" cy="110.7906" fill="#C2C2C2" rx="8.8" ry="8.8" style="stroke:#181818;stroke-width:0.8;"/><path d="M187.9937,115.3051 Q187.5288,115.5441 187.0175,115.6637 Q186.5062,115.7832 185.9417,115.7832 Q183.9363,115.7832 182.8804,114.4617 Q181.8245,113.1402 181.8245,110.6434 Q181.8245,108.1398 182.8804,106.8184 Q183.9363,105.4969 185.9417,105.4969 Q186.5062,105.4969 187.0241,105.6164 Q187.5421,105.7359 187.9937,105.975 L187.9937,108.1531 Q187.489,107.6883 187.0142,107.4725 Q186.5394,107.2566 186.0347,107.2566 Q184.9589,107.2566 184.4111,108.11 Q183.8632,108.9633 183.8632,110.6434 Q183.8632,112.3168 184.4111,113.1701 Q184.9589,114.0234 186.0347,114.0234 Q186.5394,114.0234 187.0142,113.8076 Q187.489,113.5918 187.9937,113.127 Z " fill="#000000"/><text fill="#000000" font-family="sans-serif" font-size="11.2" lengthAdjust="spacing" textLength="136.0023" x="201.5759" y="115.0234">RegisterAirControlAreaUI</text><line style="stroke:#181818;stroke-width:0.4;" x1="152.992" x2="360.6014" y1="123.5906" y2="123.5906"/><text fill="#000000" font-family="sans-serif" font-size="11.2" lengthAdjust="spacing" textLength="96.6547" x="156.992" y="137.6188">-areaCode: String</text><text fill="#000000" font-family="sans-serif" font-size="11.2" lengthAdjust="spacing" textLength="75.3758" x="156.992" y="150.8094">-name: String</text><text fill="#000000" font-family="sans-serif" font-size="11.2" lengthAdjust="spacing" textLength="199.6094" x="156.992" y="164">-boundaryCoordinates: List&lt;String&gt;</text><line style="stroke:#181818;stroke-width:0.4;" x1="152.992" x2="360.6014" y1="169.5625" y2="169.5625"/><text fill="#000000" font-family="sans-serif" font-size="11.2" lengthAdjust="spacing" textLength="82.0969" x="156.992" y="183.5906">+requestData()</text><text fill="#000000" font-family="sans-serif" font-size="11.2" lengthAdjust="spacing" textLength="187.8078" x="156.992" y="196.7813">+displayMessage(message: String)</text><text fill="#000000" font-family="sans-serif" font-size="11.2" lengthAdjust="spacing" textLength="167.7922" x="156.992" y="209.9719">+displayError(message: String)</text></g><!--class RegisterAirControlAreaController--><g class="entity" data-qualified-name="controller.RegisterAirControlAreaController" data-source-line="20" id="ent0006"><rect fill="#F1F1F1" height="51.5906" rx="2" ry="2" style="stroke:#181818;stroke-width:0.4;" width="476.8391" x="18.384" y="327.9266"/><ellipse cx="163.6313" cy="340.7266" fill="#C2C2C2" rx="8.8" ry="8.8" style="stroke:#181818;stroke-width:0.8;"/><path d="M166.0098,345.2411 Q165.5449,345.4801 165.0336,345.5997 Q164.5223,345.7192 163.9578,345.7192 Q161.9524,345.7192 160.8965,344.3977 Q159.8406,343.0762 159.8406,340.5794 Q159.8406,338.0758 160.8965,336.7544 Q161.9524,335.4329 163.9578,335.4329 Q164.5223,335.4329 165.0403,335.5524 Q165.5582,335.6719 166.0098,335.911 L166.0098,338.0891 Q165.5051,337.6243 165.0303,337.4085 Q164.5555,337.1926 164.0508,337.1926 Q162.975,337.1926 162.4272,338.046 Q161.8793,338.8993 161.8793,340.5794 Q161.8793,342.2528 162.4272,343.1061 Q162.975,343.9594 164.0508,343.9594 Q164.5555,343.9594 165.0303,343.7436 Q165.5051,343.5278 166.0098,343.063 Z " fill="#000000"/><text fill="#000000" font-family="sans-serif" font-size="11.2" lengthAdjust="spacing" textLength="179.5445" x="180.0313" y="344.9594">RegisterAirControlAreaController</text><line style="stroke:#181818;stroke-width:0.4;" x1="19.184" x2="494.4231" y1="353.5266" y2="353.5266"/><line style="stroke:#181818;stroke-width:0.4;" x1="19.184" x2="494.4231" y1="359.9266" y2="359.9266"/><text fill="#000000" font-family="sans-serif" font-size="11.2" lengthAdjust="spacing" textLength="467.2391" x="23.184" y="373.9548">+registerAirControlArea(request: RegisterAirControlAreaRequest): AirControlAreaDTO</text></g><!--class RegisterAirControlAreaService--><g class="entity" data-qualified-name="application.RegisterAirControlAreaService" data-source-line="26" id="ent0008"><rect fill="#F1F1F1" height="51.5906" rx="2" ry="2" style="stroke:#181818;stroke-width:0.4;" width="476.8391" x="643.984" y="454.3026"/><ellipse cx="797.5629" cy="467.1026" fill="#C2C2C2" rx="8.8" ry="8.8" style="stroke:#181818;stroke-width:0.8;"/><path d="M799.9414,471.6171 Q799.4766,471.8561 798.9653,471.9757 Q798.4539,472.0952 797.8895,472.0952 Q795.884,472.0952 794.8281,470.7737 Q793.7723,469.4522 793.7723,466.9554 Q793.7723,464.4518 794.8281,463.1304 Q795.884,461.8089 797.8895,461.8089 Q798.4539,461.8089 798.9719,461.9284 Q799.4899,462.0479 799.9414,462.287 L799.9414,464.4651 Q799.4367,464.0003 798.9619,463.7845 Q798.4871,463.5686 797.9824,463.5686 Q796.9067,463.5686 796.3588,464.422 Q795.811,465.2753 795.811,466.9554 Q795.811,468.6288 796.3588,469.4821 Q796.9067,470.3354 797.9824,470.3354 Q798.4871,470.3354 798.9619,470.1196 Q799.4367,469.9038 799.9414,469.439 Z " fill="#000000"/><text fill="#000000" font-family="sans-serif" font-size="11.2" lengthAdjust="spacing" textLength="162.8813" x="813.9629" y="471.3354">RegisterAirControlAreaService</text><line style="stroke:#181818;stroke-width:0.4;" x1="644.784" x2="1120.0231" y1="479.9026" y2="479.9026"/><line style="stroke:#181818;stroke-width:0.4;" x1="644.784" x2="1120.0231" y1="486.3026" y2="486.3026"/><text fill="#000000" font-family="sans-serif" font-size="11.2" lengthAdjust="spacing" textLength="467.2391" x="648.784" y="500.3308">+registerAirControlArea(request: RegisterAirControlAreaRequest): AirControlAreaDTO</text></g><!--class AuthorizationService--><g class="entity" data-qualified-name="application.AuthorizationService" data-source-line="30" id="ent0009"><rect fill="#F1F1F1" height="51.5906" rx="2" ry="2" style="stroke:#181818;stroke-width:0.4;" width="333.7547" x="540.32" y="597.4866"/><ellipse cx="647.6743" cy="610.2866" fill="#C2C2C2" rx="8.8" ry="8.8" style="stroke:#181818;stroke-width:0.8;"/><path d="M650.0528,614.8011 Q649.588,615.0401 649.0766,615.1597 Q648.5653,615.2792 648.0009,615.2792 Q645.9954,615.2792 644.9395,613.9577 Q643.8837,612.6362 643.8837,610.1394 Q643.8837,607.6358 644.9395,606.3144 Q645.9954,604.9929 648.0009,604.9929 Q648.5653,604.9929 649.0833,605.1124 Q649.6013,605.2319 650.0528,605.471 L650.0528,607.6491 Q649.5481,607.1843 649.0733,606.9685 Q648.5985,606.7526 648.0938,606.7526 Q647.018,606.7526 646.4702,607.606 Q645.9223,608.4593 645.9223,610.1394 Q645.9223,611.8128 646.4702,612.6661 Q647.018,613.5194 648.0938,613.5194 Q648.5985,613.5194 649.0733,613.3036 Q649.5481,613.0878 650.0528,612.623 Z " fill="#000000"/><text fill="#000000" font-family="sans-serif" font-size="11.2" lengthAdjust="spacing" textLength="112.2461" x="664.0743" y="614.5194">AuthorizationService</text><line style="stroke:#181818;stroke-width:0.4;" x1="541.12" x2="873.2747" y1="623.0866" y2="623.0866"/><line style="stroke:#181818;stroke-width:0.4;" x1="541.12" x2="873.2747" y1="629.4866" y2="629.4866"/><text fill="#000000" font-family="sans-serif" font-size="11.2" lengthAdjust="spacing" textLength="324.1547" x="545.12" y="643.5148">+isAuthorized(user: User, permission: Permission): boolean</text></g><!--class RegisterAirControlAreaRequest--><g class="entity" data-qualified-name="application.RegisterAirControlAreaRequest" data-source-line="34" id="ent0010"><rect fill="#F1F1F1" height="77.9719" rx="2" ry="2" style="stroke:#181818;stroke-width:0.4;" width="207.8367" x="540.08" y="314.7346"/><ellipse cx="558.2724" cy="327.5346" fill="#C2C2C2" rx="8.8" ry="8.8" style="stroke:#181818;stroke-width:0.8;"/><path d="M560.6509,332.0491 Q560.1861,332.2881 559.6748,332.4077 Q559.1634,332.5272 558.599,332.5272 Q556.5935,332.5272 555.5377,331.2057 Q554.4818,329.8842 554.4818,327.3874 Q554.4818,324.8838 555.5377,323.5624 Q556.5935,322.2409 558.599,322.2409 Q559.1634,322.2409 559.6814,322.3604 Q560.1994,322.4799 560.6509,322.719 L560.6509,324.8971 Q560.1463,324.4323 559.6714,324.2165 Q559.1966,324.0006 558.692,324.0006 Q557.6162,324.0006 557.0683,324.854 Q556.5205,325.7073 556.5205,327.3874 Q556.5205,329.0608 557.0683,329.9141 Q557.6162,330.7674 558.692,330.7674 Q559.1966,330.7674 559.6714,330.5516 Q560.1463,330.3358 560.6509,329.871 Z " fill="#000000"/><text fill="#000000" font-family="sans-serif" font-size="11.2" lengthAdjust="spacing" textLength="168.4758" x="570.8485" y="331.7674">RegisterAirControlAreaRequest</text><line style="stroke:#181818;stroke-width:0.4;" x1="540.88" x2="747.1167" y1="340.3346" y2="340.3346"/><text fill="#000000" font-family="sans-serif" font-size="11.2" lengthAdjust="spacing" textLength="96.6547" x="544.88" y="354.3628">-areaCode: String</text><text fill="#000000" font-family="sans-serif" font-size="11.2" lengthAdjust="spacing" textLength="75.3758" x="544.88" y="367.5534">-name: String</text><text fill="#000000" font-family="sans-serif" font-size="11.2" lengthAdjust="spacing" textLength="198.2367" x="544.88" y="380.744">-coordinates: List&lt;CoordinateDTO&gt;</text><line style="stroke:#181818;stroke-width:0.4;" x1="540.88" x2="747.1167" y1="386.3065" y2="386.3065"/></g><!--class CoordinateDTO--><g class="entity" data-qualified-name="application.CoordinateDTO" data-source-line="40" id="ent0011"><rect fill="#F1F1F1" height="64.7813" rx="2" ry="2" style="stroke:#181818;stroke-width:0.4;" width="112.2922" x="775.856" y="321.3266"/><ellipse cx="789.0158" cy="334.1266" fill="#C2C2C2" rx="8.8" ry="8.8" style="stroke:#181818;stroke-width:0.8;"/><path d="M791.3943,338.6411 Q790.9295,338.8801 790.4181,338.9997 Q789.9068,339.1192 789.3424,339.1192 Q787.3369,339.1192 786.281,337.7977 Q785.2252,336.4762 785.2252,333.9794 Q785.2252,331.4758 786.281,330.1544 Q787.3369,328.8329 789.3424,328.8329 Q789.9068,328.8329 790.4248,328.9524 Q790.9428,329.0719 791.3943,329.311 L791.3943,331.4891 Q790.8896,331.0243 790.4148,330.8085 Q789.94,330.5926 789.4353,330.5926 Q788.3596,330.5926 787.8117,331.446 Q787.2639,332.2993 787.2639,333.9794 Q787.2639,335.6528 787.8117,336.5061 Q788.3596,337.3594 789.4353,337.3594 Q789.94,337.3594 790.4148,337.1436 Q790.8896,336.9278 791.3943,336.463 Z " fill="#000000"/><text fill="#000000" font-family="sans-serif" font-size="11.2" lengthAdjust="spacing" textLength="84.1148" x="800.4735" y="338.3594">CoordinateDTO</text><line style="stroke:#181818;stroke-width:0.4;" x1="776.656" x2="887.3482" y1="346.9266" y2="346.9266"/><text fill="#000000" font-family="sans-serif" font-size="11.2" lengthAdjust="spacing" textLength="92.2523" x="780.656" y="360.9548">-latitude: double</text><text fill="#000000" font-family="sans-serif" font-size="11.2" lengthAdjust="spacing" textLength="102.6922" x="780.656" y="374.1454">-longitude: double</text><line style="stroke:#181818;stroke-width:0.4;" x1="776.656" x2="887.3482" y1="379.7079" y2="379.7079"/></g><!--class AirControlAreaDTO--><g class="entity" data-qualified-name="application.AirControlAreaDTO" data-source-line="45" id="ent0012"><rect fill="#F1F1F1" height="64.7813" rx="2" ry="2" style="stroke:#181818;stroke-width:0.4;" width="130.5234" x="901.936" y="590.8946"/><ellipse cx="913.936" cy="603.6946" fill="#C2C2C2" rx="8.8" ry="8.8" style="stroke:#181818;stroke-width:0.8;"/><path d="M916.3145,608.2091 Q915.8497,608.4481 915.3383,608.5677 Q914.827,608.6872 914.2626,608.6872 Q912.2571,608.6872 911.2012,607.3657 Q910.1454,606.0442 910.1454,603.5474 Q910.1454,601.0438 911.2012,599.7224 Q912.2571,598.4009 914.2626,598.4009 Q914.827,598.4009 915.345,598.5204 Q915.863,598.6399 916.3145,598.879 L916.3145,601.0571 Q915.8098,600.5923 915.335,600.3765 Q914.8602,600.1606 914.3555,600.1606 Q913.2798,600.1606 912.7319,601.014 Q912.184,601.8673 912.184,603.5474 Q912.184,605.2208 912.7319,606.0741 Q913.2798,606.9274 914.3555,606.9274 Q914.8602,606.9274 915.335,606.7116 Q915.8098,606.4958 916.3145,606.031 Z " fill="#000000"/><text fill="#000000" font-family="sans-serif" font-size="11.2" lengthAdjust="spacing" textLength="104.9234" x="925.136" y="607.9274">AirControlAreaDTO</text><line style="stroke:#181818;stroke-width:0.4;" x1="902.736" x2="1031.6594" y1="616.4946" y2="616.4946"/><text fill="#000000" font-family="sans-serif" font-size="11.2" lengthAdjust="spacing" textLength="96.6547" x="906.736" y="630.5228">-areaCode: String</text><text fill="#000000" font-family="sans-serif" font-size="11.2" lengthAdjust="spacing" textLength="75.3758" x="906.736" y="643.7134">-name: String</text><line style="stroke:#181818;stroke-width:0.4;" x1="902.736" x2="1031.6594" y1="649.2759" y2="649.2759"/></g><!--class BootstrapAirControlAreaLoader--><g class="entity" data-qualified-name="application.BootstrapAirControlAreaLoader" data-source-line="50" id="ent0013"><rect fill="#F1F1F1" height="51.5906" rx="2" ry="2" style="stroke:#181818;stroke-width:0.4;" width="204.9602" x="915.92" y="327.9266"/><ellipse cx="932.2372" cy="340.7266" fill="#C2C2C2" rx="8.8" ry="8.8" style="stroke:#181818;stroke-width:0.8;"/><path d="M934.6157,345.2411 Q934.1509,345.4801 933.6395,345.5997 Q933.1282,345.7192 932.5638,345.7192 Q930.5583,345.7192 929.5024,344.3977 Q928.4466,343.0762 928.4466,340.5794 Q928.4466,338.0758 929.5024,336.7544 Q930.5583,335.4329 932.5638,335.4329 Q933.1282,335.4329 933.6462,335.5524 Q934.1641,335.6719 934.6157,335.911 L934.6157,338.0891 Q934.111,337.6243 933.6362,337.4085 Q933.1614,337.1926 932.6567,337.1926 Q931.5809,337.1926 931.0331,338.046 Q930.4852,338.8993 930.4852,340.5794 Q930.4852,342.2528 931.0331,343.1061 Q931.5809,343.9594 932.6567,343.9594 Q933.1614,343.9594 933.6362,343.7436 Q934.111,343.5278 934.6157,343.063 Z " fill="#000000"/><text fill="#000000" font-family="sans-serif" font-size="11.2" lengthAdjust="spacing" textLength="169.7664" x="944.3966" y="344.9594">BootstrapAirControlAreaLoader</text><line style="stroke:#181818;stroke-width:0.4;" x1="916.72" x2="1120.0802" y1="353.5266" y2="353.5266"/><line style="stroke:#181818;stroke-width:0.4;" x1="916.72" x2="1120.0802" y1="359.9266" y2="359.9266"/><text fill="#000000" font-family="sans-serif" font-size="11.2" lengthAdjust="spacing" textLength="195.3602" x="920.72" y="373.9548">+loadDefaultAirControlAreas(): void</text></g><!--class User--><g class="entity" data-qualified-name="domain.User" data-source-line="56" id="ent0015"><rect fill="#F1F1F1" height="77.9719" rx="2" ry="2" style="stroke:#181818;stroke-width:0.4;" width="280.6695" x="559.664" y="748.8626"/><ellipse cx="684.4527" cy="761.6626" fill="#C2C2C2" rx="8.8" ry="8.8" style="stroke:#181818;stroke-width:0.8;"/><path d="M686.8312,766.1771 Q686.3663,766.4161 685.855,766.5357 Q685.3437,766.6552 684.7792,766.6552 Q682.7738,766.6552 681.7179,765.3337 Q680.662,764.0122 680.662,761.5154 Q680.662,759.0118 681.7179,757.6904 Q682.7738,756.3689 684.7792,756.3689 Q685.3437,756.3689 685.8617,756.4884 Q686.3796,756.6079 686.8312,756.847 L686.8312,759.0251 Q686.3265,758.5603 685.8517,758.3445 Q685.3769,758.1286 684.8722,758.1286 Q683.7964,758.1286 683.2486,758.982 Q682.7007,759.8353 682.7007,761.5154 Q682.7007,763.1888 683.2486,764.0421 Q683.7964,764.8954 684.8722,764.8954 Q685.3769,764.8954 685.8517,764.6796 Q686.3265,764.4638 686.8312,763.999 Z " fill="#000000"/><text fill="#000000" font-family="sans-serif" font-size="11.2" lengthAdjust="spacing" textLength="24.2922" x="700.8527" y="765.8954">User</text><line style="stroke:#181818;stroke-width:0.4;" x1="560.464" x2="839.5335" y1="774.4626" y2="774.4626"/><text fill="#000000" font-family="sans-serif" font-size="11.2" lengthAdjust="spacing" textLength="72.1109" x="564.464" y="788.4908">-email: Email</text><text fill="#000000" font-family="sans-serif" font-size="11.2" lengthAdjust="spacing" textLength="100.5703" x="564.464" y="801.6814">-roles: List&lt;Role&gt;</text><line style="stroke:#181818;stroke-width:0.4;" x1="560.464" x2="839.5335" y1="807.2439" y2="807.2439"/><text fill="#000000" font-family="sans-serif" font-size="11.2" lengthAdjust="spacing" textLength="271.0695" x="564.464" y="821.272">+hasPermission(permission: Permission): boolean</text></g><!--class Role--><g class="entity" data-qualified-name="domain.Role" data-source-line="62" id="ent0016"><rect fill="#F1F1F1" height="64.7813" rx="2" ry="2" style="stroke:#181818;stroke-width:0.4;" width="185.0375" x="535.48" y="888.8226"/><ellipse cx="612.8792" cy="901.6226" fill="#C2C2C2" rx="8.8" ry="8.8" style="stroke:#181818;stroke-width:0.8;"/><path d="M615.2577,906.1371 Q614.7929,906.3761 614.2816,906.4957 Q613.7702,906.6152 613.2058,906.6152 Q611.2003,906.6152 610.1445,905.2937 Q609.0886,903.9722 609.0886,901.4754 Q609.0886,898.9718 610.1445,897.6504 Q611.2003,896.3289 613.2058,896.3289 Q613.7702,896.3289 614.2882,896.4484 Q614.8062,896.5679 615.2577,896.807 L615.2577,898.9851 Q614.753,898.5203 614.2782,898.3045 Q613.8034,898.0886 613.2988,898.0886 Q612.223,898.0886 611.6751,898.942 Q611.1273,899.7953 611.1273,901.4754 Q611.1273,903.1488 611.6751,904.0021 Q612.223,904.8554 613.2988,904.8554 Q613.8034,904.8554 614.2782,904.6396 Q614.753,904.4238 615.2577,903.959 Z " fill="#000000"/><text fill="#000000" font-family="sans-serif" font-size="11.2" lengthAdjust="spacing" textLength="23.4391" x="629.2792" y="905.8554">Role</text><line style="stroke:#181818;stroke-width:0.4;" x1="536.28" x2="719.7175" y1="914.4226" y2="914.4226"/><text fill="#000000" font-family="sans-serif" font-size="11.2" lengthAdjust="spacing" textLength="75.3758" x="540.28" y="928.4508">-name: String</text><text fill="#000000" font-family="sans-serif" font-size="11.2" lengthAdjust="spacing" textLength="175.4375" x="540.28" y="941.6414">-permissions: List&lt;Permission&gt;</text><line style="stroke:#181818;stroke-width:0.4;" x1="536.28" x2="719.7175" y1="947.2039" y2="947.2039"/></g><!--class Permission--><g class="entity" data-qualified-name="domain.Permission" data-source-line="67" id="ent0017"><rect fill="#F1F1F1" height="51.5906" rx="2" ry="2" style="stroke:#181818;stroke-width:0.4;" width="84.9758" x="585.512" y="1022.1906"/><ellipse cx="597.5939" cy="1034.9906" fill="#C2C2C2" rx="8.8" ry="8.8" style="stroke:#181818;stroke-width:0.8;"/><path d="M599.9724,1039.5051 Q599.5076,1039.7441 598.9963,1039.8637 Q598.4849,1039.9832 597.9205,1039.9832 Q595.915,1039.9832 594.8591,1038.6617 Q593.8033,1037.3402 593.8033,1034.8434 Q593.8033,1032.3398 594.8591,1031.0184 Q595.915,1029.6969 597.9205,1029.6969 Q598.4849,1029.6969 599.0029,1029.8164 Q599.5209,1029.9359 599.9724,1030.175 L599.9724,1032.3531 Q599.4677,1031.8883 598.9929,1031.6725 Q598.5181,1031.4566 598.0134,1031.4566 Q596.9377,1031.4566 596.3898,1032.31 Q595.842,1033.1633 595.842,1034.8434 Q595.842,1036.5168 596.3898,1037.3701 Q596.9377,1038.2234 598.0134,1038.2234 Q598.5181,1038.2234 598.9929,1038.0076 Q599.4677,1037.7918 599.9724,1037.327 Z " fill="#000000"/><text fill="#000000" font-family="sans-serif" font-size="11.2" lengthAdjust="spacing" textLength="59.1938" x="608.8121" y="1039.2234">Permission</text><line style="stroke:#181818;stroke-width:0.4;" x1="586.312" x2="669.6878" y1="1047.7906" y2="1047.7906"/><text fill="#000000" font-family="sans-serif" font-size="11.2" lengthAdjust="spacing" textLength="75.3758" x="590.312" y="1061.8188">-name: String</text><line style="stroke:#181818;stroke-width:0.4;" x1="586.312" x2="669.6878" y1="1067.3813" y2="1067.3813"/></g><!--class AirControlArea--><g class="entity" data-qualified-name="domain.AirControlArea" data-source-line="71" id="ent0018"><rect fill="#F1F1F1" height="91.1625" rx="2" ry="2" style="stroke:#181818;stroke-width:0.4;" width="446.6734" x="868.664" y="742.2706"/><ellipse cx="1048.2249" cy="755.0706" fill="#C2C2C2" rx="8.8" ry="8.8" style="stroke:#181818;stroke-width:0.8;"/><path d="M1050.6035,759.5851 Q1050.1386,759.8241 1049.6273,759.9437 Q1049.116,760.0632 1048.5515,760.0632 Q1046.546,760.0632 1045.4902,758.7417 Q1044.4343,757.4202 1044.4343,754.9234 Q1044.4343,752.4198 1045.4902,751.0984 Q1046.546,749.7769 1048.5515,749.7769 Q1049.116,749.7769 1049.6339,749.8964 Q1050.1519,750.0159 1050.6035,750.255 L1050.6035,752.4331 Q1050.0988,751.9683 1049.624,751.7525 Q1049.1492,751.5366 1048.6445,751.5366 Q1047.5687,751.5366 1047.0208,752.39 Q1046.473,753.2433 1046.473,754.9234 Q1046.473,756.5968 1047.0208,757.4501 Q1047.5687,758.3034 1048.6445,758.3034 Q1049.1492,758.3034 1049.624,758.0876 Q1050.0988,757.8718 1050.6035,757.407 Z " fill="#000000"/><text fill="#000000" font-family="sans-serif" font-size="11.2" lengthAdjust="spacing" textLength="80.7516" x="1064.6249" y="759.3034">AirControlArea</text><line style="stroke:#181818;stroke-width:0.4;" x1="869.464" x2="1314.5374" y1="767.8706" y2="767.8706"/><text fill="#000000" font-family="sans-serif" font-size="11.2" lengthAdjust="spacing" textLength="92.1266" x="873.464" y="781.8988">-code: AreaCode</text><text fill="#000000" font-family="sans-serif" font-size="11.2" lengthAdjust="spacing" textLength="75.3758" x="873.464" y="795.0894">-name: String</text><text fill="#000000" font-family="sans-serif" font-size="11.2" lengthAdjust="spacing" textLength="177.8984" x="873.464" y="808.28">-boundary: GeographicBoundary</text><line style="stroke:#181818;stroke-width:0.4;" x1="869.464" x2="1314.5374" y1="813.8425" y2="813.8425"/><text fill="#000000" font-family="sans-serif" font-size="11.2" lengthAdjust="spacing" textLength="437.0734" x="873.464" y="827.8706">+AirControlArea(code: AreaCode, name: String, boundary: GeographicBoundary)</text></g><!--class AreaCode--><g class="entity" data-qualified-name="domain.AreaCode" data-source-line="78" id="ent0019"><rect fill="#F1F1F1" height="64.7813" rx="2" ry="2" style="stroke:#181818;stroke-width:0.4;" width="145.9141" x="859.84" y="888.8226"/><ellipse cx="903.0705" cy="901.6226" fill="#C2C2C2" rx="8.8" ry="8.8" style="stroke:#181818;stroke-width:0.8;"/><path d="M905.449,906.1371 Q904.9841,906.3761 904.4728,906.4957 Q903.9615,906.6152 903.397,906.6152 Q901.3916,906.6152 900.3357,905.2937 Q899.2798,903.9722 899.2798,901.4754 Q899.2798,898.9718 900.3357,897.6504 Q901.3916,896.3289 903.397,896.3289 Q903.9615,896.3289 904.4795,896.4484 Q904.9974,896.5679 905.449,896.807 L905.449,898.9851 Q904.9443,898.5203 904.4695,898.3045 Q903.9947,898.0886 903.49,898.0886 Q902.4142,898.0886 901.8664,898.942 Q901.3185,899.7953 901.3185,901.4754 Q901.3185,903.1488 901.8664,904.0021 Q902.4142,904.8554 903.49,904.8554 Q903.9947,904.8554 904.4695,904.6396 Q904.9443,904.4238 905.449,903.959 Z " fill="#000000"/><text fill="#000000" font-family="sans-serif" font-size="11.2" lengthAdjust="spacing" textLength="52.6531" x="919.4705" y="905.8554">AreaCode</text><line style="stroke:#181818;stroke-width:0.4;" x1="860.64" x2="1004.9541" y1="914.4226" y2="914.4226"/><text fill="#000000" font-family="sans-serif" font-size="11.2" lengthAdjust="spacing" textLength="73.9539" x="864.64" y="928.4508">-value: String</text><line style="stroke:#181818;stroke-width:0.4;" x1="860.64" x2="1004.9541" y1="934.0133" y2="934.0133"/><text fill="#000000" font-family="sans-serif" font-size="11.2" lengthAdjust="spacing" textLength="136.3141" x="864.64" y="948.0414">+AreaCode(value: String)</text></g><!--class GeographicBoundary--><g class="entity" data-qualified-name="domain.GeographicBoundary" data-source-line="83" id="ent0020"><rect fill="#F1F1F1" height="77.9719" rx="2" ry="2" style="stroke:#181818;stroke-width:0.4;" width="306.2031" x="1034.096" y="882.2306"/><ellipse cx="1127.3819" cy="895.0306" fill="#C2C2C2" rx="8.8" ry="8.8" style="stroke:#181818;stroke-width:0.8;"/><path d="M1129.7605,899.5451 Q1129.2956,899.7841 1128.7843,899.9037 Q1128.273,900.0232 1127.7085,900.0232 Q1125.703,900.0232 1124.6472,898.7017 Q1123.5913,897.3802 1123.5913,894.8834 Q1123.5913,892.3798 1124.6472,891.0584 Q1125.703,889.7369 1127.7085,889.7369 Q1128.273,889.7369 1128.7909,889.8564 Q1129.3089,889.9759 1129.7605,890.215 L1129.7605,892.3931 Q1129.2558,891.9283 1128.781,891.7125 Q1128.3062,891.4966 1127.8015,891.4966 Q1126.7257,891.4966 1126.1778,892.35 Q1125.63,893.2033 1125.63,894.8834 Q1125.63,896.5568 1126.1778,897.4101 Q1126.7257,898.2634 1127.8015,898.2634 Q1128.3062,898.2634 1128.781,898.0476 Q1129.2558,897.8318 1129.7605,897.367 Z " fill="#000000"/><text fill="#000000" font-family="sans-serif" font-size="11.2" lengthAdjust="spacing" textLength="112.8313" x="1143.7819" y="899.2634">GeographicBoundary</text><line style="stroke:#181818;stroke-width:0.4;" x1="1034.896" x2="1339.4991" y1="907.8306" y2="907.8306"/><text fill="#000000" font-family="sans-serif" font-size="11.2" lengthAdjust="spacing" textLength="174.0648" x="1038.896" y="921.8588">-coordinates: List&lt;Coordinate&gt;</text><line style="stroke:#181818;stroke-width:0.4;" x1="1034.896" x2="1339.4991" y1="927.4213" y2="927.4213"/><text fill="#000000" font-family="sans-serif" font-size="11.2" lengthAdjust="spacing" textLength="296.6031" x="1038.896" y="941.4494">+GeographicBoundary(coordinates: List&lt;Coordinate&gt;)</text><text fill="#000000" font-family="sans-serif" font-size="11.2" lengthAdjust="spacing" textLength="102.6758" x="1038.896" y="954.64">+isValid(): boolean</text></g><!--class Coordinate--><g class="entity" data-qualified-name="domain.Coordinate" data-source-line="89" id="ent0021"><rect fill="#F1F1F1" height="77.9719" rx="2" ry="2" style="stroke:#181818;stroke-width:0.4;" width="274.8016" x="1049.8" y="1009.0066"/><ellipse cx="1153.8293" cy="1021.8066" fill="#C2C2C2" rx="8.8" ry="8.8" style="stroke:#181818;stroke-width:0.8;"/><path d="M1156.2078,1026.3211 Q1155.743,1026.5601 1155.2316,1026.6797 Q1154.7203,1026.7992 1154.1559,1026.7992 Q1152.1504,1026.7992 1151.0945,1025.4777 Q1150.0387,1024.1562 1150.0387,1021.6594 Q1150.0387,1019.1558 1151.0945,1017.8344 Q1152.1504,1016.5129 1154.1559,1016.5129 Q1154.7203,1016.5129 1155.2383,1016.6324 Q1155.7563,1016.7519 1156.2078,1016.991 L1156.2078,1019.1691 Q1155.7031,1018.7043 1155.2283,1018.4885 Q1154.7535,1018.2726 1154.2488,1018.2726 Q1153.173,1018.2726 1152.6252,1019.126 Q1152.0773,1019.9793 1152.0773,1021.6594 Q1152.0773,1023.3328 1152.6252,1024.1861 Q1153.173,1025.0394 1154.2488,1025.0394 Q1154.7535,1025.0394 1155.2283,1024.8236 Q1155.7031,1024.6078 1156.2078,1024.143 Z " fill="#000000"/><text fill="#000000" font-family="sans-serif" font-size="11.2" lengthAdjust="spacing" textLength="59.943" x="1170.2293" y="1026.0394">Coordinate</text><line style="stroke:#181818;stroke-width:0.4;" x1="1050.6" x2="1323.8016" y1="1034.6066" y2="1034.6066"/><text fill="#000000" font-family="sans-serif" font-size="11.2" lengthAdjust="spacing" textLength="92.2523" x="1054.6" y="1048.6348">-latitude: double</text><text fill="#000000" font-family="sans-serif" font-size="11.2" lengthAdjust="spacing" textLength="102.6922" x="1054.6" y="1061.8254">-longitude: double</text><line style="stroke:#181818;stroke-width:0.4;" x1="1050.6" x2="1323.8016" y1="1067.3879" y2="1067.3879"/><text fill="#000000" font-family="sans-serif" font-size="11.2" lengthAdjust="spacing" textLength="265.2016" x="1054.6" y="1081.416">+Coordinate(latitude: double, longitude: double)</text></g><!--class Email--><g class="entity" data-qualified-name="domain.Email" data-source-line="95" id="ent0022"><rect fill="#F1F1F1" height="51.5906" rx="2" ry="2" style="stroke:#181818;stroke-width:0.4;" width="83.5539" x="748.624" y="895.4226"/><ellipse cx="773.5692" cy="908.2226" fill="#C2C2C2" rx="8.8" ry="8.8" style="stroke:#181818;stroke-width:0.8;"/><path d="M775.9478,912.7371 Q775.4829,912.9761 774.9716,913.0957 Q774.4603,913.2152 773.8958,913.2152 Q771.8903,913.2152 770.8345,911.8937 Q769.7786,910.5722 769.7786,908.0754 Q769.7786,905.5718 770.8345,904.2504 Q771.8903,902.9289 773.8958,902.9289 Q774.4603,902.9289 774.9782,903.0484 Q775.4962,903.1679 775.9478,903.407 L775.9478,905.5851 Q775.4431,905.1203 774.9683,904.9045 Q774.4935,904.6886 773.9888,904.6886 Q772.913,904.6886 772.3651,905.542 Q771.8173,906.3953 771.8173,908.0754 Q771.8173,909.7488 772.3651,910.6021 Q772.913,911.4554 773.9888,911.4554 Q774.4935,911.4554 774.9683,911.2396 Q775.4431,911.0238 775.9478,910.559 Z " fill="#000000"/><text fill="#000000" font-family="sans-serif" font-size="11.2" lengthAdjust="spacing" textLength="29.1867" x="787.646" y="912.4554">Email</text><line style="stroke:#181818;stroke-width:0.4;" x1="749.424" x2="831.3779" y1="921.0226" y2="921.0226"/><text fill="#000000" font-family="sans-serif" font-size="11.2" lengthAdjust="spacing" textLength="73.9539" x="753.424" y="935.0508">-value: String</text><line style="stroke:#181818;stroke-width:0.4;" x1="749.424" x2="831.3779" y1="940.6133" y2="940.6133"/></g><!--class AirControlAreaRepository--><g class="entity" data-qualified-name="repository.AirControlAreaRepository" data-source-line="101" id="ent0024"><rect fill="#F1F1F1" height="77.9719" rx="2" ry="2" style="stroke:#181818;stroke-width:0.4;" width="325.0758" x="1165.464" y="584.2946"/><ellipse cx="1255.3757" cy="597.0946" fill="#B1B1B1" rx="8.8" ry="8.8" style="stroke:#181818;stroke-width:0.8;"/><path d="M1252.1179,593.7067 L1252.1179,591.9802 L1258.0214,591.9802 L1258.0214,593.7067 L1256.0492,593.7067 L1256.0492,600.1681 L1258.0214,600.1681 L1258.0214,601.8946 L1252.1179,601.8946 L1252.1179,600.1681 L1254.0902,600.1681 L1254.0902,593.7067 Z " fill="#000000"/><text fill="#000000" font-family="sans-serif" font-size="11.2" font-style="italic" lengthAdjust="spacing" textLength="138.4523" x="1271.7757" y="601.3274">AirControlAreaRepository</text><line style="stroke:#181818;stroke-width:0.4;" x1="1166.264" x2="1489.7398" y1="609.8946" y2="609.8946"/><line style="stroke:#181818;stroke-width:0.4;" x1="1166.264" x2="1489.7398" y1="616.2946" y2="616.2946"/><text fill="#000000" font-family="sans-serif" font-size="11.2" lengthAdjust="spacing" textLength="224.5086" x="1170.264" y="630.3228">+existsByCode(code: AreaCode): boolean</text><text fill="#000000" font-family="sans-serif" font-size="11.2" lengthAdjust="spacing" textLength="181.2016" x="1170.264" y="643.5134">+save(area: AirControlArea): void</text><text fill="#000000" font-family="sans-serif" font-size="11.2" lengthAdjust="spacing" textLength="315.4758" x="1170.264" y="656.704">+findByCode(code: AreaCode): Optional&lt;AirControlArea&gt;</text></g><!--link RegisterAirControlAreaUI to RegisterAirControlAreaController--><g class="link" data-entity-1="ent0003" data-entity-2="ent0006" data-link-type="dependency" data-source-line="108" id="lnk25"><path codeLine="108" d="M256.8,215.9106 C256.8,253.1266 256.8,294.6866 256.8,322.8146" fill="none" id="RegisterAirControlAreaUI-to-RegisterAirControlAreaController" style="stroke:#181818;stroke-width:0.8;"/><polygon fill="#181818" points="256.8,327.6146,260,320.4146,256.8,323.6146,253.6,320.4146,256.8,327.6146" style="stroke:#181818;stroke-width:0.8;"/><polygon fill="#000000" points="260.8,271.2588,263.1511,264.0228,258.4489,264.0228,260.8,271.2588" style="stroke:#000000;stroke-width:0.8;"/><text fill="#000000" font-family="sans-serif" font-size="10.4" lengthAdjust="spacing" textLength="22.8516" x="268" y="271.1893">uses</text></g><!--link RegisterAirControlAreaController to RegisterAirControlAreaService--><g class="link" data-entity-1="ent0006" data-entity-2="ent0008" data-link-type="dependency" data-source-line="109" id="lnk26"><path codeLine="109" d="M383.776,379.8466 C492.08,401.4466 642.3007,431.4117 750.6287,453.0197" fill="none" id="RegisterAirControlAreaController-to-RegisterAirControlAreaService" style="stroke:#181818;stroke-width:0.8;"/><polygon fill="#181818" points="755.336,453.9586,748.9011,449.412,751.4133,453.1762,747.6491,455.6884,755.336,453.9586" style="stroke:#181818;stroke-width:0.8;"/><polygon fill="#000000" points="633.5547,424.4093,626.9183,420.6881,625.9985,425.2996,633.5547,424.4093" style="stroke:#000000;stroke-width:0.8;"/><text fill="#000000" font-family="sans-serif" font-size="10.4" lengthAdjust="spacing" textLength="22.8516" x="636.832" y="427.5573">uses</text></g><!--link RegisterAirControlAreaService to AuthorizationService--><g class="link" data-entity-1="ent0008" data-entity-2="ent0009" data-link-type="dependency" data-source-line="110" id="lnk27"><path codeLine="110" d="M835.808,506.2626 C824.016,513.3746 811.632,521.4866 800.8,529.8946 C774.448,550.3666 750.9588,574.0707 732.8468,593.7027" fill="none" id="RegisterAirControlAreaService-to-AuthorizationService" style="stroke:#181818;stroke-width:0.8;"/><polygon fill="#181818" points="729.592,597.2306,736.8261,594.1086,732.3043,594.2907,732.1222,589.7689,729.592,597.2306" style="stroke:#181818;stroke-width:0.8;"/><polygon fill="#000000" points="801.7511,539.4081,808.7885,536.5162,805.7447,532.932,801.7511,539.4081" style="stroke:#000000;stroke-width:0.8;"/><text fill="#000000" font-family="sans-serif" font-size="10.4" lengthAdjust="spacing" textLength="93.3359" x="812" y="540.7493">checks permission</text></g><!--link RegisterAirControlAreaService to AirControlAreaRepository--><g class="link" data-entity-1="ent0008" data-entity-2="ent0024" data-link-type="dependency" data-source-line="111" id="lnk28"><path codeLine="111" d="M1020.16,506.2466 C1049.928,512.9346 1081.04,520.8546 1109.6,529.8946 C1156.224,544.6626 1202.2065,563.6774 1242.8065,581.9414" fill="none" id="RegisterAirControlAreaService-to-AirControlAreaRepository" style="stroke:#181818;stroke-width:0.8;"/><polygon fill="#181818" points="1247.184,583.9106,1241.9306,578.0385,1243.5361,582.2696,1239.305,583.8751,1247.184,583.9106" style="stroke:#181818;stroke-width:0.8;"/><polygon fill="#000000" points="1154.0911,538.1064,1147.997,533.5512,1146.4834,538.0032,1154.0911,538.1064" style="stroke:#000000;stroke-width:0.8;"/><text fill="#000000" font-family="sans-serif" font-size="10.4" lengthAdjust="spacing" textLength="67.2598" x="1157.504" y="540.7493">checks/saves</text></g><!--link RegisterAirControlAreaService to AirControlArea--><g class="link" data-entity-1="ent0008" data-entity-2="ent0018" data-link-type="dependency" data-source-line="112" id="lnk29"><path codeLine="112" d="M985.232,506.2066 C1008.304,516.3346 1030.592,530.3986 1046.4,549.8946 C1090.824,604.6946 1096.6716,685.0961 1095.3756,737.0721" fill="none" id="RegisterAirControlAreaService-to-AirControlArea" style="stroke:#181818;stroke-width:0.8;"/><polygon fill="#181818" points="1095.256,741.8706,1098.6345,734.7526,1095.3557,737.8719,1092.2365,734.5931,1095.256,741.8706" style="stroke:#181818;stroke-width:0.8;"/><polygon fill="#000000" points="1098.6104,627.013,1097.6166,619.4698,1093.3726,621.4945,1098.6104,627.013" style="stroke:#000000;stroke-width:0.8;"/><text fill="#000000" font-family="sans-serif" font-size="10.4" lengthAdjust="spacing" textLength="36.1055" x="1104.088" y="627.3333">creates</text></g><!--link RegisterAirControlAreaService to AirControlAreaDTO--><g class="link" data-entity-1="ent0008" data-entity-2="ent0012" data-link-type="dependency" data-source-line="113" id="lnk30"><path codeLine="113" d="M897.56,506.2146 C911.712,529.8386 930.4142,561.0564 945.6942,586.5764" fill="none" id="RegisterAirControlAreaService-to-AirControlAreaDTO" style="stroke:#181818;stroke-width:0.8;"/><polygon fill="#181818" points="948.16,590.6946,947.2068,582.8734,946.1052,587.2628,941.7158,586.1611,948.16,590.6946" style="stroke:#181818;stroke-width:0.8;"/><polygon fill="#000000" points="925.7754,540.2504,924.0742,532.8346,920.0402,535.2508,925.7754,540.2504" style="stroke:#000000;stroke-width:0.8;"/><text fill="#000000" font-family="sans-serif" font-size="10.4" lengthAdjust="spacing" textLength="36.4051" x="930.92" y="540.7493">returns</text></g><!--link BootstrapAirControlAreaLoader to RegisterAirControlAreaService--><g class="link" data-entity-1="ent0013" data-entity-2="ent0008" data-link-type="dependency" data-source-line="114" id="lnk31"><path codeLine="114" d="M990.88,379.7746 C967.28,401.4226 937.0007,429.2014 913.4167,450.8414" fill="none" id="BootstrapAirControlAreaLoader-to-RegisterAirControlAreaService" style="stroke:#181818;stroke-width:0.8;"/><polygon fill="#181818" points="909.88,454.0866,917.3486,451.5766,912.8273,451.3823,913.0216,446.861,909.88,454.0866" style="stroke:#181818;stroke-width:0.8;"/><polygon fill="#000000" points="951.4525,426.331,958.374,423.1717,955.1951,419.7067,951.4525,426.331" style="stroke:#000000;stroke-width:0.8;"/><text fill="#000000" font-family="sans-serif" font-size="10.4" lengthAdjust="spacing" textLength="22.8516" x="961.6" y="427.5573">uses</text></g><!--link AuthorizationService to User--><g class="link" data-entity-1="ent0009" data-entity-2="ent0015" data-link-type="dependency" data-source-line="116" id="lnk32"><path codeLine="116" d="M706.088,649.1906 C704.92,675.7026 703.267,713.0513 701.915,743.7713" fill="none" id="AuthorizationService-to-User" style="stroke:#181818;stroke-width:0.8;"/><polygon fill="#181818" points="701.704,748.5666,705.2175,741.5143,701.8799,744.5705,698.8237,741.2329,701.704,748.5666" style="stroke:#181818;stroke-width:0.8;"/><polygon fill="#000000" points="708.0717,698.791,710.7395,691.6656,706.0418,691.4583,708.0717,698.791" style="stroke:#000000;stroke-width:0.8;"/><text fill="#000000" font-family="sans-serif" font-size="10.4" lengthAdjust="spacing" textLength="34.2824" x="715.448" y="698.7253">checks</text></g><!--reverse link User to Role--><g class="link" data-entity-1="ent0015" data-entity-2="ent0016" data-link-type="aggregation" data-source-line="117" id="lnk33"><path codeLine="117" d="M674.3788,835.5419 C663.7068,855.0619 655.512,870.0706 645.4,888.5666" fill="none" id="User-backto-Role" style="stroke:#181818;stroke-width:0.8;"/><polygon fill="none" points="678.984,827.1186,673.8736,829.7952,674.3788,835.5419,679.4892,832.8653,678.984,827.1186" style="stroke:#181818;stroke-width:0.8;"/><text fill="#000000" font-family="sans-serif" font-size="10.4" lengthAdjust="spacing" textLength="6.5762" x="669.342" y="843.2732">1</text><text fill="#000000" font-family="sans-serif" font-size="10.4" lengthAdjust="spacing" textLength="18.1695" x="629.2717" y="880.241">1..*</text></g><!--reverse link Role to Permission--><g class="link" data-entity-1="ent0016" data-entity-2="ent0017" data-link-type="aggregation" data-source-line="118" id="lnk34"><path codeLine="118" d="M628,963.5266 C628,984.6066 628,1002.2466 628,1021.8386" fill="none" id="Role-backto-Permission" style="stroke:#181818;stroke-width:0.8;"/><polygon fill="none" points="628,953.9266,624.8,958.7266,628,963.5266,631.2,958.7266,628,953.9266" style="stroke:#181818;stroke-width:0.8;"/><text fill="#000000" font-family="sans-serif" font-size="10.4" lengthAdjust="spacing" textLength="6.5762" x="621.1042" y="970.1711">1</text><text fill="#000000" font-family="sans-serif" font-size="10.4" lengthAdjust="spacing" textLength="5.0121" x="622.7484" y="1013.5888">*</text></g><!--reverse link User to Email--><g class="link" data-entity-1="ent0015" data-entity-2="ent0022" data-link-type="composition" data-source-line="119" id="lnk35"><path codeLine="119" d="M731.8235,835.0343 C746.8315,856.9063 759.776,875.7826 772.984,895.0306" fill="none" id="User-backto-Email" style="stroke:#181818;stroke-width:0.8;"/><polygon fill="#181818" points="726.392,827.1186,726.4692,832.887,731.8235,835.0343,731.7463,829.266,726.392,827.1186" style="stroke:#181818;stroke-width:0.8;"/></g><!--reverse link AirControlArea to AreaCode--><g class="link" data-entity-1="ent0018" data-entity-2="ent0019" data-link-type="composition" data-source-line="121" id="lnk36"><path codeLine="121" d="M1030.0366,839.9358 C1008.2606,857.9598 991.088,872.1746 971.232,888.6066" fill="none" id="AirControlArea-backto-AreaCode" style="stroke:#181818;stroke-width:0.8;"/><polygon fill="#181818" points="1037.432,833.8146,1031.6939,834.4101,1030.0366,839.9358,1035.7747,839.3403,1037.432,833.8146" style="stroke:#181818;stroke-width:0.8;"/></g><!--reverse link AirControlArea to GeographicBoundary--><g class="link" data-entity-1="ent0018" data-entity-2="ent0020" data-link-type="composition" data-source-line="122" id="lnk37"><path codeLine="122" d="M1130.1196,841.4111 C1141.4876,857.1391 1148.512,866.8626 1159.448,882.0066" fill="none" id="AirControlArea-backto-GeographicBoundary" style="stroke:#181818;stroke-width:0.8;"/><polygon fill="#181818" points="1124.496,833.6306,1124.7143,839.3954,1130.1196,841.4111,1129.9013,835.6463,1124.496,833.6306" style="stroke:#181818;stroke-width:0.8;"/></g><!--reverse link GeographicBoundary to Coordinate--><g class="link" data-entity-1="ent0020" data-entity-2="ent0021" data-link-type="aggregation" data-source-line="123" id="lnk38"><path codeLine="123" d="M1187.2,970.1906 C1187.2,985.4946 1187.2,993.4546 1187.2,1008.7426" fill="none" id="GeographicBoundary-backto-Coordinate" style="stroke:#181818;stroke-width:0.8;"/><polygon fill="none" points="1187.2,960.5906,1184,965.3906,1187.2,970.1906,1190.4,965.3906,1187.2,960.5906" style="stroke:#181818;stroke-width:0.8;"/><text fill="#000000" font-family="sans-serif" font-size="10.4" lengthAdjust="spacing" textLength="6.5762" x="1180.3822" y="976.7591">1</text><text fill="#000000" font-family="sans-serif" font-size="10.4" lengthAdjust="spacing" textLength="18.1695" x="1168.4024" y="1000.4515">3..*</text></g><?plantuml-src lLRTRzem47_FNs6nbz12rsdQIrGXKQYcIfqwbNNlHsB0gh4pss6ZK__tNH98xCI1bahB0mxtyRjFtyKmmobvd5r-kHnEfa6WdvX8GS6QhAMGyKh9DIL6PTJYf10_mPBEp1PL5OqDY2Mt1VGA4lcRYILP0DSs9-QWzTWOnUQPeRUn53FsJCbb4En0IIzZ5qZMajCU-J0j7l8t8FWKokI1BfasL8sPcaXXbEHZHU7nTYUKFqC2I9h8X4PaXhR4qc89MFl8Svc91DHs8gLAc013TKJkqD9LAJggPCynvbyPrMOA1iA-HK-OJZbilr6jCPHmNPvxOnx96wMayikz12zMKk8oKaxLMv8ogRIivEJk-uJ3NLHH1zX3oUv7nALFVznx78OqvIm6mwHuYySpgZOifl_5NSkPSMPMKh7dmb-V3qplHMWIPfggY3pYxu2aLAsPrgWMaU_LErgTI-nW46rR1zrzPnF7hUQjsna37xMzSVYETOx9C5bkFP7P7E-tnP9YsUQv6Mqc_UJ87DXhAOqs2b8N_qv2qcXoZgGfNK36ZIkhGwpEHhB4qxM9N0FhQDYytauG56LvH6xomoAZcIhx3_Xk3uuLwBf9mXDw1-cE3nrzK2FlFQdnFKrGCm-37wYmenWNfHtlYlpwsHkHhrGkiReh5b_lQ5Rs6WF0jJ9mm0S7CVkUQ7OmJXmRu5dRt_DAE7G4FAXjquqyTLzNkstQCE51rRupkNu2PqbugArgrVTDWD9YZHOs4GPjHK_MYXjrf13klLKqbPePgRRDkyi4Zje5u3XlpjkzXZCrw1zCfRxU5jLr6woHm59UmuQ6-JHhhXbxnfIY2oQIBk3xD5yymAzSa54TQkTNpt0uEhxz8u8xIvDHS5Io6sw_5ezWxSLo8EzQZKYyel6JjeRKwy2wwhS7_9WNGv-0bIFWOKvIpbTRXDye9bCYrp-yeTwGti2RlHoWs4HL6aT1yR_tgKVaS8ZdnSLPhzWKGR4kAWPIwq5VAfqXlTnVGICbEQSQu1wUPr1xXbrb-tFXL3qPWdy0?></g></svg>