<?plantuml 1.2026.2?><svg xmlns="http://www.w3.org/2000/svg" xmlns:xlink="http://www.w3.org/1999/xlink" contentStyleType="text/css" data-diagram-type="CLASS" height="1403px" preserveAspectRatio="none" style="width:3793px;height:1403px;background:#FFFFFF;" version="1.1" viewBox="0 0 3793 1403" width="3793px" zoomAndPan="magnify"><title>US081-CD</title><defs/><g><g class="title" data-source-line="1"><text fill="#000000" font-family="sans-serif" font-size="14" font-weight="bold" lengthAdjust="spacing" textLength="76.0293" x="1851.4854" y="23.5352">US081-CD</text></g><!--cluster ui--><g class="cluster" data-qualified-name="ui" data-source-line="9" id="ent0004"><rect fill="none" height="264.93" rx="2.5" ry="2.5" style="stroke:#000000;stroke-width:1.5;" width="496" x="627" y="44.4883"/><text fill="#000000" font-family="sans-serif" font-size="14" font-weight="bold" lengthAdjust="spacing" textLength="13.7471" x="868.1265" y="60.0234">ui</text></g><!--cluster console--><g class="cluster" data-qualified-name="ui.console" data-source-line="8" id="ent0002"><rect fill="#DDDDDD" height="197.93" rx="2.5" ry="2.5" style="stroke:#000000;stroke-width:1.5;" width="448" x="651" y="87.4883"/><text fill="#000000" font-family="sans-serif" font-size="14" font-weight="bold" lengthAdjust="spacing" textLength="55.2002" x="847.3999" y="103.0234">console</text></g><!--cluster controller--><g class="cluster" data-qualified-name="controller" data-source-line="19" id="ent0005"><rect fill="#DDDDDD" height="115.49" rx="2.5" ry="2.5" style="stroke:#000000;stroke-width:1.5;" width="632" x="559" y="358.4183"/><text fill="#000000" font-family="sans-serif" font-size="14" font-weight="bold" lengthAdjust="spacing" textLength="70.2393" x="839.8804" y="373.9534">controller</text></g><!--cluster application--><g class="cluster" data-qualified-name="application" data-source-line="25" id="ent0007"><rect fill="#DDDDDD" height="393.39" rx="2.5" ry="2.5" style="stroke:#000000;stroke-width:1.5;" width="1479" x="7" y="522.9083"/><text fill="#000000" font-family="sans-serif" font-size="14" font-weight="bold" lengthAdjust="spacing" textLength="79.9326" x="706.5337" y="538.4434">application</text></g><!--cluster dsl--><g class="cluster" data-qualified-name="dsl" data-source-line="74" id="ent0016"><rect fill="#DDDDDD" height="496.15" rx="2.5" ry="2.5" style="stroke:#000000;stroke-width:1.5;" width="2277" x="1510" y="767.8383"/><text fill="#000000" font-family="sans-serif" font-size="14" font-weight="bold" lengthAdjust="spacing" textLength="21.7451" x="2637.6274" y="783.3734">dsl</text></g><!--cluster domain--><g class="cluster" data-qualified-name="domain" data-source-line="127" id="ent0028"><rect fill="#DDDDDD" height="432.42" rx="2.5" ry="2.5" style="stroke:#000000;stroke-width:1.5;" width="595" x="283" y="965.2983"/><text fill="#000000" font-family="sans-serif" font-size="14" font-weight="bold" lengthAdjust="spacing" textLength="53.7715" x="553.6143" y="980.8334">domain</text></g><!--cluster repository--><g class="cluster" data-qualified-name="repository" data-source-line="156" id="ent0035"><rect fill="#DDDDDD" height="115.49" rx="2.5" ry="2.5" style="stroke:#000000;stroke-width:1.5;" width="272" x="1099" y="981.7883"/><text fill="#000000" font-family="sans-serif" font-size="14" font-weight="bold" lengthAdjust="spacing" textLength="74.3955" x="1197.8022" y="997.3234">repository</text></g><!--class CreateFlightPlanFromFileUI--><g class="entity" data-qualified-name="ui.console.CreateFlightPlanFromFileUI" data-source-line="9" id="ent0003"><rect fill="#F1F1F1" height="146.9297" rx="2.5" ry="2.5" style="stroke:#181818;stroke-width:0.5;" width="416.1406" x="666.93" y="122.4883"/><ellipse cx="779.5111" cy="138.4883" fill="#C2C2C2" rx="11" ry="11" style="stroke:#181818;stroke-width:1;"/><path d="M782.4842,144.1313 Q781.9031,144.4302 781.264,144.5796 Q780.6248,144.729 779.9193,144.729 Q777.4124,144.729 776.0926,143.0771 Q774.7728,141.4253 774.7728,138.3042 Q774.7728,135.1748 776.0926,133.5229 Q777.4124,131.8711 779.9193,131.8711 Q780.6248,131.8711 781.2723,132.0205 Q781.9197,132.1699 782.4842,132.4688 L782.4842,135.1914 Q781.8533,134.6104 781.2598,134.3406 Q780.6663,134.0708 780.0355,134.0708 Q778.6907,134.0708 778.0059,135.1375 Q777.3211,136.2041 777.3211,138.3042 Q777.3211,140.396 778.0059,141.4626 Q778.6907,142.5293 780.0355,142.5293 Q780.6663,142.5293 781.2598,142.2595 Q781.8533,141.9897 782.4842,141.4087 Z " fill="#000000"/><text fill="#000000" font-family="sans-serif" font-size="14" lengthAdjust="spacing" textLength="182.4785" x="800.0111" y="143.7793">CreateFlightPlanFromFileUI</text><line style="stroke:#181818;stroke-width:0.5;" x1="667.93" x2="1082.0706" y1="154.4883" y2="154.4883"/><text fill="#000000" font-family="sans-serif" font-size="14" lengthAdjust="spacing" textLength="107.3652" x="672.93" y="172.0234">-filePath: String</text><text fill="#000000" font-family="sans-serif" font-size="14" lengthAdjust="spacing" textLength="125.8428" x="672.93" y="188.5117">-fileFormat: String</text><line style="stroke:#181818;stroke-width:0.5;" x1="667.93" x2="1082.0706" y1="195.4648" y2="195.4648"/><text fill="#000000" font-family="sans-serif" font-size="14" lengthAdjust="spacing" textLength="102.6211" x="672.93" y="213">+requestData()</text><text fill="#000000" font-family="sans-serif" font-size="14" lengthAdjust="spacing" textLength="345.0234" x="672.93" y="229.4883">+displayImportResult(result: FlightPlanImportDTO)</text><text fill="#000000" font-family="sans-serif" font-size="14" lengthAdjust="spacing" textLength="404.1406" x="672.93" y="245.9766">+displayValidationErrors(errors: List&lt;ValidationErrorDTO&gt;)</text><text fill="#000000" font-family="sans-serif" font-size="14" lengthAdjust="spacing" textLength="209.7402" x="672.93" y="262.4648">+displayError(message: String)</text></g><!--class CreateFlightPlanFromFileController--><g class="entity" data-qualified-name="controller.CreateFlightPlanFromFileController" data-source-line="20" id="ent0006"><rect fill="#F1F1F1" height="64.4883" rx="2.5" ry="2.5" style="stroke:#181818;stroke-width:0.5;" width="599.2002" x="575.4" y="393.4183"/><ellipse cx="752.297" cy="409.4183" fill="#C2C2C2" rx="11" ry="11" style="stroke:#181818;stroke-width:1;"/><path d="M755.2701,415.0613 Q754.6891,415.3602 754.0499,415.5096 Q753.4107,415.659 752.7052,415.659 Q750.1983,415.659 748.8785,414.0071 Q747.5587,412.3553 747.5587,409.2342 Q747.5587,406.1048 748.8785,404.4529 Q750.1983,402.8011 752.7052,402.8011 Q753.4107,402.8011 754.0582,402.9505 Q754.7057,403.0999 755.2701,403.3988 L755.2701,406.1214 Q754.6393,405.5404 754.0458,405.2706 Q753.4522,405.0008 752.8214,405.0008 Q751.4767,405.0008 750.7918,406.0675 Q750.107,407.1341 750.107,409.2342 Q750.107,411.326 750.7918,412.3926 Q751.4767,413.4593 752.8214,413.4593 Q753.4522,413.4593 754.0458,413.1895 Q754.6393,412.9197 755.2701,412.3387 Z " fill="#000000"/><text fill="#000000" font-family="sans-serif" font-size="14" lengthAdjust="spacing" textLength="236.9063" x="772.797" y="414.7093">CreateFlightPlanFromFileController</text><line style="stroke:#181818;stroke-width:0.5;" x1="576.4" x2="1173.6002" y1="425.4183" y2="425.4183"/><line style="stroke:#181818;stroke-width:0.5;" x1="576.4" x2="1173.6002" y1="433.4183" y2="433.4183"/><text fill="#000000" font-family="sans-serif" font-size="14" lengthAdjust="spacing" textLength="587.2002" x="581.4" y="450.9534">+createFlightPlanFromFile(request: FlightPlanFileImportRequest): FlightPlanImportDTO</text></g><!--class CreateFlightPlanFromFileService--><g class="entity" data-qualified-name="application.CreateFlightPlanFromFileService" data-source-line="26" id="ent0008"><rect fill="#F1F1F1" height="64.4883" rx="2.5" ry="2.5" style="stroke:#181818;stroke-width:0.5;" width="599.2002" x="575.4" y="599.1283"/><ellipse cx="762.7115" cy="615.1283" fill="#C2C2C2" rx="11" ry="11" style="stroke:#181818;stroke-width:1;"/><path d="M765.6847,620.7713 Q765.1036,621.0702 764.4645,621.2196 Q763.8253,621.369 763.1197,621.369 Q760.6129,621.369 759.2931,619.7171 Q757.9732,618.0653 757.9732,614.9442 Q757.9732,611.8148 759.2931,610.1629 Q760.6129,608.5111 763.1197,608.5111 Q763.8253,608.5111 764.4728,608.6605 Q765.1202,608.8099 765.6847,609.1088 L765.6847,611.8314 Q765.0538,611.2504 764.4603,610.9806 Q763.8668,610.7108 763.2359,610.7108 Q761.8912,610.7108 761.2064,611.7775 Q760.5216,612.8441 760.5216,614.9442 Q760.5216,617.036 761.2064,618.1026 Q761.8912,619.1693 763.2359,619.1693 Q763.8668,619.1693 764.4603,618.8995 Q765.0538,618.6297 765.6847,618.0487 Z " fill="#000000"/><text fill="#000000" font-family="sans-serif" font-size="14" lengthAdjust="spacing" textLength="216.0771" x="783.2115" y="620.4193">CreateFlightPlanFromFileService</text><line style="stroke:#181818;stroke-width:0.5;" x1="576.4" x2="1173.6002" y1="631.1283" y2="631.1283"/><line style="stroke:#181818;stroke-width:0.5;" x1="576.4" x2="1173.6002" y1="639.1283" y2="639.1283"/><text fill="#000000" font-family="sans-serif" font-size="14" lengthAdjust="spacing" textLength="587.2002" x="581.4" y="656.6634">+createFlightPlanFromFile(request: FlightPlanFileImportRequest): FlightPlanImportDTO</text></g><!--class CreateFlightPlanService--><g class="entity" data-qualified-name="application.CreateFlightPlanService" data-source-line="30" id="ent0009"><rect fill="#F1F1F1" height="64.4883" rx="2.5" ry="2.5" style="stroke:#181818;stroke-width:0.5;" width="470.5205" x="999.74" y="811.0783"/><ellipse cx="1151.8635" cy="827.0783" fill="#C2C2C2" rx="11" ry="11" style="stroke:#181818;stroke-width:1;"/><path d="M1154.8367,832.7213 Q1154.2556,833.0202 1153.6165,833.1696 Q1152.9773,833.319 1152.2717,833.319 Q1149.7649,833.319 1148.4451,831.6671 Q1147.1253,830.0153 1147.1253,826.8942 Q1147.1253,823.7648 1148.4451,822.1129 Q1149.7649,820.4611 1152.2717,820.4611 Q1152.9773,820.4611 1153.6248,820.6105 Q1154.2722,820.7599 1154.8367,821.0588 L1154.8367,823.7814 Q1154.2058,823.2004 1153.6123,822.9306 Q1153.0188,822.6608 1152.3879,822.6608 Q1151.0432,822.6608 1150.3584,823.7275 Q1149.6736,824.7941 1149.6736,826.8942 Q1149.6736,828.986 1150.3584,830.0526 Q1151.0432,831.1193 1152.3879,831.1193 Q1153.0188,831.1193 1153.6123,830.8495 Q1154.2058,830.5797 1154.8367,829.9987 Z " fill="#000000"/><text fill="#000000" font-family="sans-serif" font-size="14" lengthAdjust="spacing" textLength="157.7734" x="1172.3635" y="832.3693">CreateFlightPlanService</text><line style="stroke:#181818;stroke-width:0.5;" x1="1000.74" x2="1469.2605" y1="843.0783" y2="843.0783"/><line style="stroke:#181818;stroke-width:0.5;" x1="1000.74" x2="1469.2605" y1="851.0783" y2="851.0783"/><text fill="#000000" font-family="sans-serif" font-size="14" lengthAdjust="spacing" textLength="458.5205" x="1005.74" y="868.6134">+createFlightPlan(request: CreateFlightPlanRequest): FlightPlanDTO</text></g><!--class AuthorizationService--><g class="entity" data-qualified-name="application.AuthorizationService" data-source-line="34" id="ent0010"><rect fill="#F1F1F1" height="64.4883" rx="2.5" ry="2.5" style="stroke:#181818;stroke-width:0.5;" width="417.1934" x="265.4" y="811.0783"/><ellipse cx="399.5929" cy="827.0783" fill="#C2C2C2" rx="11" ry="11" style="stroke:#181818;stroke-width:1;"/><path d="M402.566,832.7213 Q401.985,833.0202 401.3458,833.1696 Q400.7066,833.319 400.0011,833.319 Q397.4942,833.319 396.1744,831.6671 Q394.8546,830.0153 394.8546,826.8942 Q394.8546,823.7648 396.1744,822.1129 Q397.4942,820.4611 400.0011,820.4611 Q400.7066,820.4611 401.3541,820.6105 Q402.0016,820.7599 402.566,821.0588 L402.566,823.7814 Q401.9352,823.2004 401.3417,822.9306 Q400.7481,822.6608 400.1173,822.6608 Q398.7726,822.6608 398.0877,823.7275 Q397.4029,824.7941 397.4029,826.8942 Q397.4029,828.986 398.0877,830.0526 Q398.7726,831.1193 400.1173,831.1193 Q400.7481,831.1193 401.3417,830.8495 Q401.9352,830.5797 402.566,829.9987 Z " fill="#000000"/><text fill="#000000" font-family="sans-serif" font-size="14" lengthAdjust="spacing" textLength="140.3076" x="420.0929" y="832.3693">AuthorizationService</text><line style="stroke:#181818;stroke-width:0.5;" x1="266.4" x2="681.5934" y1="843.0783" y2="843.0783"/><line style="stroke:#181818;stroke-width:0.5;" x1="266.4" x2="681.5934" y1="851.0783" y2="851.0783"/><text fill="#000000" font-family="sans-serif" font-size="14" lengthAdjust="spacing" textLength="405.1934" x="271.4" y="868.6134">+isAuthorized(user: User, permission: Permission): boolean</text></g><!--class FlightPlanFileImportRequest--><g class="entity" data-qualified-name="application.FlightPlanFileImportRequest" data-source-line="38" id="ent0011"><rect fill="#F1F1F1" height="80.9766" rx="2.5" ry="2.5" style="stroke:#181818;stroke-width:0.5;" width="221.6631" x="23.17" y="590.8783"/><ellipse cx="38.17" cy="606.8783" fill="#C2C2C2" rx="11" ry="11" style="stroke:#181818;stroke-width:1;"/><path d="M41.1431,612.5213 Q40.5621,612.8202 39.9229,612.9696 Q39.2838,613.119 38.5782,613.119 Q36.0714,613.119 34.7515,611.4671 Q33.4317,609.8153 33.4317,606.6942 Q33.4317,603.5648 34.7515,601.9129 Q36.0714,600.2611 38.5782,600.2611 Q39.2838,600.2611 39.9312,600.4105 Q40.5787,600.5599 41.1431,600.8588 L41.1431,603.5814 Q40.5123,603.0004 39.9188,602.7306 Q39.3253,602.4608 38.6944,602.4608 Q37.3497,602.4608 36.6649,603.5275 Q35.9801,604.5941 35.9801,606.6942 Q35.9801,608.786 36.6649,609.8526 Q37.3497,610.9193 38.6944,610.9193 Q39.3253,610.9193 39.9188,610.6495 Q40.5123,610.3797 41.1431,609.7987 Z " fill="#000000"/><text fill="#000000" font-family="sans-serif" font-size="14" lengthAdjust="spacing" textLength="189.6631" x="52.17" y="612.1693">FlightPlanFileImportRequest</text><line style="stroke:#181818;stroke-width:0.5;" x1="24.17" x2="243.8331" y1="622.8783" y2="622.8783"/><text fill="#000000" font-family="sans-serif" font-size="14" lengthAdjust="spacing" textLength="107.3652" x="29.17" y="640.4134">-filePath: String</text><text fill="#000000" font-family="sans-serif" font-size="14" lengthAdjust="spacing" textLength="125.8428" x="29.17" y="656.9017">-fileFormat: String</text><line style="stroke:#181818;stroke-width:0.5;" x1="24.17" x2="243.8331" y1="663.8548" y2="663.8548"/></g><!--class CreateFlightPlanRequest--><g class="entity" data-qualified-name="application.CreateFlightPlanRequest" data-source-line="43" id="ent0012"><rect fill="#F1F1F1" height="130.4414" rx="2.5" ry="2.5" style="stroke:#181818;stroke-width:0.5;" width="260.3564" x="1209.82" y="566.1483"/><ellipse cx="1253.4354" cy="582.1483" fill="#C2C2C2" rx="11" ry="11" style="stroke:#181818;stroke-width:1;"/><path d="M1256.4086,587.7913 Q1255.8275,588.0902 1255.1884,588.2396 Q1254.5492,588.389 1253.8436,588.389 Q1251.3368,588.389 1250.017,586.7371 Q1248.6971,585.0853 1248.6971,581.9642 Q1248.6971,578.8348 1250.017,577.1829 Q1251.3368,575.5311 1253.8436,575.5311 Q1254.5492,575.5311 1255.1967,575.6805 Q1255.8441,575.8299 1256.4086,576.1288 L1256.4086,578.8514 Q1255.7777,578.2704 1255.1842,578.0006 Q1254.5907,577.7308 1253.9598,577.7308 Q1252.6151,577.7308 1251.9303,578.7975 Q1251.2455,579.8641 1251.2455,581.9642 Q1251.2455,584.056 1251.9303,585.1226 Q1252.6151,586.1893 1253.9598,586.1893 Q1254.5907,586.1893 1255.1842,585.9195 Q1255.7777,585.6497 1256.4086,585.0687 Z " fill="#000000"/><text fill="#000000" font-family="sans-serif" font-size="14" lengthAdjust="spacing" textLength="164.7666" x="1273.7944" y="587.4393">CreateFlightPlanRequest</text><line style="stroke:#181818;stroke-width:0.5;" x1="1210.82" x2="1469.1764" y1="598.1483" y2="598.1483"/><text fill="#000000" font-family="sans-serif" font-size="14" lengthAdjust="spacing" textLength="131.9268" x="1215.82" y="615.6834">-routeName: String</text><text fill="#000000" font-family="sans-serif" font-size="14" lengthAdjust="spacing" textLength="241.7256" x="1215.82" y="632.1717">-aircraftRegistrationNumber: String</text><text fill="#000000" font-family="sans-serif" font-size="14" lengthAdjust="spacing" textLength="192.2197" x="1215.82" y="648.66">-pilotLicenseNumber: String</text><text fill="#000000" font-family="sans-serif" font-size="14" lengthAdjust="spacing" textLength="248.3564" x="1215.82" y="665.1483">-departureDateTime: LocalDateTime</text><text fill="#000000" font-family="sans-serif" font-size="14" lengthAdjust="spacing" textLength="147.2188" x="1215.82" y="681.6366">-fuelQuantity: double</text><line style="stroke:#181818;stroke-width:0.5;" x1="1210.82" x2="1469.1764" y1="688.5897" y2="688.5897"/></g><!--class FlightPlanImportDTO--><g class="entity" data-qualified-name="application.FlightPlanImportDTO" data-source-line="51" id="ent0013"><rect fill="#F1F1F1" height="97.4648" rx="2.5" ry="2.5" style="stroke:#181818;stroke-width:0.5;" width="247.5049" x="717.25" y="794.5883"/><ellipse cx="765.6758" cy="810.5883" fill="#C2C2C2" rx="11" ry="11" style="stroke:#181818;stroke-width:1;"/><path d="M768.6489,816.2313 Q768.0679,816.5302 767.4287,816.6796 Q766.7896,816.829 766.084,816.829 Q763.5771,816.829 762.2573,815.1771 Q760.9375,813.5253 760.9375,810.4042 Q760.9375,807.2748 762.2573,805.6229 Q763.5771,803.9711 766.084,803.9711 Q766.7896,803.9711 767.437,804.1205 Q768.0845,804.2699 768.6489,804.5688 L768.6489,807.2914 Q768.0181,806.7104 767.4246,806.4406 Q766.8311,806.1708 766.2002,806.1708 Q764.8555,806.1708 764.1707,807.2375 Q763.4858,808.3041 763.4858,810.4042 Q763.4858,812.496 764.1707,813.5626 Q764.8555,814.6293 766.2002,814.6293 Q766.8311,814.6293 767.4246,814.3595 Q768.0181,814.0897 768.6489,813.5087 Z " fill="#000000"/><text fill="#000000" font-family="sans-serif" font-size="14" lengthAdjust="spacing" textLength="142.1533" x="786.1758" y="815.8793">FlightPlanImportDTO</text><line style="stroke:#181818;stroke-width:0.5;" x1="718.25" x2="963.7549" y1="826.5883" y2="826.5883"/><text fill="#000000" font-family="sans-serif" font-size="14" lengthAdjust="spacing" textLength="123.4775" x="723.25" y="844.1234">-success: boolean</text><text fill="#000000" font-family="sans-serif" font-size="14" lengthAdjust="spacing" textLength="177.7344" x="723.25" y="860.6117">-flightPlan: FlightPlanDTO</text><text fill="#000000" font-family="sans-serif" font-size="14" lengthAdjust="spacing" textLength="235.5049" x="723.25" y="877.1">-errors: List&lt;ValidationErrorDTO&gt;</text><line style="stroke:#181818;stroke-width:0.5;" x1="718.25" x2="963.7549" y1="884.0531" y2="884.0531"/></g><!--class FlightPlanDTO--><g class="entity" data-qualified-name="application.FlightPlanDTO" data-source-line="57" id="ent0014"><rect fill="#F1F1F1" height="146.9297" rx="2.5" ry="2.5" style="stroke:#181818;stroke-width:0.5;" width="260.3564" x="279.82" y="557.9083"/><ellipse cx="357.4113" cy="573.9083" fill="#C2C2C2" rx="11" ry="11" style="stroke:#181818;stroke-width:1;"/><path d="M360.3845,579.5513 Q359.8034,579.8502 359.1642,579.9996 Q358.5251,580.149 357.8195,580.149 Q355.3127,580.149 353.9929,578.4971 Q352.673,576.8453 352.673,573.7242 Q352.673,570.5948 353.9929,568.9429 Q355.3127,567.2911 357.8195,567.2911 Q358.5251,567.2911 359.1725,567.4405 Q359.82,567.5899 360.3845,567.8888 L360.3845,570.6114 Q359.7536,570.0304 359.1601,569.7606 Q358.5666,569.4908 357.9357,569.4908 Q356.591,569.4908 355.9062,570.5575 Q355.2214,571.6241 355.2214,573.7242 Q355.2214,575.816 355.9062,576.8826 Q356.591,577.9493 357.9357,577.9493 Q358.5666,577.9493 359.1601,577.6795 Q359.7536,577.4097 360.3845,576.8287 Z " fill="#000000"/><text fill="#000000" font-family="sans-serif" font-size="14" lengthAdjust="spacing" textLength="96.6738" x="377.9113" y="579.1993">FlightPlanDTO</text><line style="stroke:#181818;stroke-width:0.5;" x1="280.82" x2="539.1764" y1="589.9083" y2="589.9083"/><text fill="#000000" font-family="sans-serif" font-size="14" lengthAdjust="spacing" textLength="131.9268" x="285.82" y="607.4434">-routeName: String</text><text fill="#000000" font-family="sans-serif" font-size="14" lengthAdjust="spacing" textLength="241.7256" x="285.82" y="623.9317">-aircraftRegistrationNumber: String</text><text fill="#000000" font-family="sans-serif" font-size="14" lengthAdjust="spacing" textLength="192.2197" x="285.82" y="640.42">-pilotLicenseNumber: String</text><text fill="#000000" font-family="sans-serif" font-size="14" lengthAdjust="spacing" textLength="248.3564" x="285.82" y="656.9083">-departureDateTime: LocalDateTime</text><text fill="#000000" font-family="sans-serif" font-size="14" lengthAdjust="spacing" textLength="147.2188" x="285.82" y="673.3966">-fuelQuantity: double</text><text fill="#000000" font-family="sans-serif" font-size="14" lengthAdjust="spacing" textLength="98.0957" x="285.82" y="689.8848">-status: String</text><line style="stroke:#181818;stroke-width:0.5;" x1="280.82" x2="539.1764" y1="696.838" y2="696.838"/></g><!--class ValidationErrorDTO--><g class="entity" data-qualified-name="application.ValidationErrorDTO" data-source-line="66" id="ent0015"><rect fill="#F1F1F1" height="113.9531" rx="2.5" ry="2.5" style="stroke:#181818;stroke-width:0.5;" width="163.6807" x="52.16" y="786.3483"/><ellipse cx="67.16" cy="802.3483" fill="#C2C2C2" rx="11" ry="11" style="stroke:#181818;stroke-width:1;"/><path d="M70.1331,807.9913 Q69.5521,808.2902 68.9129,808.4396 Q68.2738,808.589 67.5682,808.589 Q65.0614,808.589 63.7415,806.9371 Q62.4217,805.2853 62.4217,802.1642 Q62.4217,799.0348 63.7415,797.3829 Q65.0614,795.7311 67.5682,795.7311 Q68.2738,795.7311 68.9212,795.8805 Q69.5687,796.0299 70.1331,796.3288 L70.1331,799.0514 Q69.5023,798.4704 68.9088,798.2006 Q68.3153,797.9308 67.6844,797.9308 Q66.3397,797.9308 65.6549,798.9975 Q64.9701,800.0641 64.9701,802.1642 Q64.9701,804.256 65.6549,805.3226 Q66.3397,806.3893 67.6844,806.3893 Q68.3153,806.3893 68.9088,806.1195 Q69.5023,805.8497 70.1331,805.2687 Z " fill="#000000"/><text fill="#000000" font-family="sans-serif" font-size="14" lengthAdjust="spacing" textLength="131.6807" x="81.16" y="807.6393">ValidationErrorDTO</text><line style="stroke:#181818;stroke-width:0.5;" x1="53.16" x2="214.8407" y1="818.3483" y2="818.3483"/><text fill="#000000" font-family="sans-serif" font-size="14" lengthAdjust="spacing" textLength="86.0918" x="58.16" y="835.8834">-type: String</text><text fill="#000000" font-family="sans-serif" font-size="14" lengthAdjust="spacing" textLength="59.5137" x="58.16" y="852.3717">-line: int</text><text fill="#000000" font-family="sans-serif" font-size="14" lengthAdjust="spacing" textLength="85.1963" x="58.16" y="868.86">-column: int</text><text fill="#000000" font-family="sans-serif" font-size="14" lengthAdjust="spacing" textLength="116.334" x="58.16" y="885.3483">-message: String</text><line style="stroke:#181818;stroke-width:0.5;" x1="53.16" x2="214.8407" y1="892.3014" y2="892.3014"/></g><!--class FlightPlanFileReader--><g class="entity" data-qualified-name="dsl.FlightPlanFileReader" data-source-line="75" id="ent0017"><rect fill="#F1F1F1" height="64.4883" rx="2.5" ry="2.5" style="stroke:#181818;stroke-width:0.5;" width="210.3994" x="1525.8" y="811.0783"/><ellipse cx="1559.6178" cy="827.0783" fill="#C2C2C2" rx="11" ry="11" style="stroke:#181818;stroke-width:1;"/><path d="M1562.591,832.7213 Q1562.0099,833.0202 1561.3708,833.1696 Q1560.7316,833.319 1560.026,833.319 Q1557.5192,833.319 1556.1994,831.6671 Q1554.8795,830.0153 1554.8795,826.8942 Q1554.8795,823.7648 1556.1994,822.1129 Q1557.5192,820.4611 1560.026,820.4611 Q1560.7316,820.4611 1561.3791,820.6105 Q1562.0265,820.7599 1562.591,821.0588 L1562.591,823.7814 Q1561.9601,823.2004 1561.3666,822.9306 Q1560.7731,822.6608 1560.1422,822.6608 Q1558.7975,822.6608 1558.1127,823.7275 Q1557.4279,824.7941 1557.4279,826.8942 Q1557.4279,828.986 1558.1127,830.0526 Q1558.7975,831.1193 1560.1422,831.1193 Q1560.7731,831.1193 1561.3666,830.8495 Q1561.9601,830.5797 1562.591,829.9987 Z " fill="#000000"/><text fill="#000000" font-family="sans-serif" font-size="14" lengthAdjust="spacing" textLength="136.582" x="1577.7996" y="832.3693">FlightPlanFileReader</text><line style="stroke:#181818;stroke-width:0.5;" x1="1526.8" x2="1735.1994" y1="843.0783" y2="843.0783"/><line style="stroke:#181818;stroke-width:0.5;" x1="1526.8" x2="1735.1994" y1="851.0783" y2="851.0783"/><text fill="#000000" font-family="sans-serif" font-size="14" lengthAdjust="spacing" textLength="198.3994" x="1531.8" y="868.6134">+read(filePath: String): String</text></g><!--class FlightPlanFormatDetector--><g class="entity" data-qualified-name="dsl.FlightPlanFormatDetector" data-source-line="79" id="ent0018"><rect fill="#F1F1F1" height="80.9766" rx="2.5" ry="2.5" style="stroke:#181818;stroke-width:0.5;" width="294.3242" x="1770.84" y="802.8383"/><ellipse cx="1827.5578" cy="818.8383" fill="#C2C2C2" rx="11" ry="11" style="stroke:#181818;stroke-width:1;"/><path d="M1830.5309,824.4813 Q1829.9499,824.7802 1829.3107,824.9296 Q1828.6715,825.079 1827.966,825.079 Q1825.4591,825.079 1824.1393,823.4271 Q1822.8195,821.7753 1822.8195,818.6542 Q1822.8195,815.5248 1824.1393,813.8729 Q1825.4591,812.2211 1827.966,812.2211 Q1828.6715,812.2211 1829.319,812.3705 Q1829.9665,812.5199 1830.5309,812.8188 L1830.5309,815.5414 Q1829.9001,814.9604 1829.3066,814.6906 Q1828.713,814.4208 1828.0822,814.4208 Q1826.7375,814.4208 1826.0526,815.4875 Q1825.3678,816.5541 1825.3678,818.6542 Q1825.3678,820.746 1826.0526,821.8126 Q1826.7375,822.8793 1828.0822,822.8793 Q1828.713,822.8793 1829.3066,822.6095 Q1829.9001,822.3397 1830.5309,821.7587 Z " fill="#000000"/><text fill="#000000" font-family="sans-serif" font-size="14" lengthAdjust="spacing" textLength="172.3887" x="1848.0578" y="824.1293">FlightPlanFormatDetector</text><line style="stroke:#181818;stroke-width:0.5;" x1="1771.84" x2="2064.1642" y1="834.8383" y2="834.8383"/><line style="stroke:#181818;stroke-width:0.5;" x1="1771.84" x2="2064.1642" y1="842.8383" y2="842.8383"/><text fill="#000000" font-family="sans-serif" font-size="14" lengthAdjust="spacing" textLength="282.3242" x="1776.84" y="860.3734">+isSupported(fileFormat: String): boolean</text><text fill="#000000" font-family="sans-serif" font-size="14" lengthAdjust="spacing" textLength="210.3828" x="1776.84" y="876.8617">+detect(filePath: String): String</text></g><!--class CoreFlightDslLexer--><g class="entity" data-qualified-name="dsl.CoreFlightDslLexer" data-source-line="84" id="ent0019"><rect fill="#F1F1F1" height="64.4883" rx="2.5" ry="2.5" style="stroke:#181818;stroke-width:0.5;" width="288.9512" x="2100.52" y="811.0783"/><ellipse cx="2176.187" cy="827.0783" fill="#C2C2C2" rx="11" ry="11" style="stroke:#181818;stroke-width:1;"/><path d="M2179.1601,832.7213 Q2178.5791,833.0202 2177.9399,833.1696 Q2177.3008,833.319 2176.5952,833.319 Q2174.0884,833.319 2172.7685,831.6671 Q2171.4487,830.0153 2171.4487,826.8942 Q2171.4487,823.7648 2172.7685,822.1129 Q2174.0884,820.4611 2176.5952,820.4611 Q2177.3008,820.4611 2177.9482,820.6105 Q2178.5957,820.7599 2179.1601,821.0588 L2179.1601,823.7814 Q2178.5293,823.2004 2177.9358,822.9306 Q2177.3423,822.6608 2176.7114,822.6608 Q2175.3667,822.6608 2174.6819,823.7275 Q2173.9971,824.7941 2173.9971,826.8942 Q2173.9971,828.986 2174.6819,830.0526 Q2175.3667,831.1193 2176.7114,831.1193 Q2177.3423,831.1193 2177.9358,830.8495 Q2178.5293,830.5797 2179.1601,829.9987 Z " fill="#000000"/><text fill="#000000" font-family="sans-serif" font-size="14" lengthAdjust="spacing" textLength="129.1172" x="2196.687" y="832.3693">CoreFlightDslLexer</text><line style="stroke:#181818;stroke-width:0.5;" x1="2101.52" x2="2388.4712" y1="843.0783" y2="843.0783"/><line style="stroke:#181818;stroke-width:0.5;" x1="2101.52" x2="2388.4712" y1="851.0783" y2="851.0783"/><text fill="#000000" font-family="sans-serif" font-size="14" lengthAdjust="spacing" textLength="276.9512" x="2106.52" y="868.6134">+tokenize(content: String): TokenStream</text></g><!--class CoreFlightDslParser--><g class="entity" data-qualified-name="dsl.CoreFlightDslParser" data-source-line="88" id="ent0020"><rect fill="#F1F1F1" height="64.4883" rx="2.5" ry="2.5" style="stroke:#181818;stroke-width:0.5;" width="288.3496" x="2424.83" y="811.0783"/><ellipse cx="2497.954" cy="827.0783" fill="#C2C2C2" rx="11" ry="11" style="stroke:#181818;stroke-width:1;"/><path d="M2500.9272,832.7213 Q2500.3461,833.0202 2499.707,833.1696 Q2499.0678,833.319 2498.3622,833.319 Q2495.8554,833.319 2494.5356,831.6671 Q2493.2157,830.0153 2493.2157,826.8942 Q2493.2157,823.7648 2494.5356,822.1129 Q2495.8554,820.4611 2498.3622,820.4611 Q2499.0678,820.4611 2499.7153,820.6105 Q2500.3627,820.7599 2500.9272,821.0588 L2500.9272,823.7814 Q2500.2963,823.2004 2499.7028,822.9306 Q2499.1093,822.6608 2498.4784,822.6608 Q2497.1337,822.6608 2496.4489,823.7275 Q2495.7641,824.7941 2495.7641,826.8942 Q2495.7641,828.986 2496.4489,830.0526 Q2497.1337,831.1193 2498.4784,831.1193 Q2499.1093,831.1193 2499.7028,830.8495 Q2500.2963,830.5797 2500.9272,829.9987 Z " fill="#000000"/><text fill="#000000" font-family="sans-serif" font-size="14" lengthAdjust="spacing" textLength="133.6016" x="2518.454" y="832.3693">CoreFlightDslParser</text><line style="stroke:#181818;stroke-width:0.5;" x1="2425.83" x2="2712.1796" y1="843.0783" y2="843.0783"/><line style="stroke:#181818;stroke-width:0.5;" x1="2425.83" x2="2712.1796" y1="851.0783" y2="851.0783"/><text fill="#000000" font-family="sans-serif" font-size="14" lengthAdjust="spacing" textLength="276.3496" x="2430.83" y="868.6134">+parse(tokens: TokenStream): ParseTree</text></g><!--class CoreFlightDslSemanticValidator--><g class="entity" data-qualified-name="dsl.CoreFlightDslSemanticValidator" data-source-line="92" id="ent0021"><rect fill="#F1F1F1" height="64.4883" rx="2.5" ry="2.5" style="stroke:#181818;stroke-width:0.5;" width="421.9854" x="2748.01" y="811.0783"/><ellipse cx="2847.6985" cy="827.0783" fill="#C2C2C2" rx="11" ry="11" style="stroke:#181818;stroke-width:1;"/><path d="M2850.6716,832.7213 Q2850.0906,833.0202 2849.4514,833.1696 Q2848.8122,833.319 2848.1067,833.319 Q2845.5998,833.319 2844.28,831.6671 Q2842.9602,830.0153 2842.9602,826.8942 Q2842.9602,823.7648 2844.28,822.1129 Q2845.5998,820.4611 2848.1067,820.4611 Q2848.8122,820.4611 2849.4597,820.6105 Q2850.1072,820.7599 2850.6716,821.0588 L2850.6716,823.7814 Q2850.0408,823.2004 2849.4473,822.9306 Q2848.8538,822.6608 2848.2229,822.6608 Q2846.8782,822.6608 2846.1933,823.7275 Q2845.5085,824.7941 2845.5085,826.8942 Q2845.5085,828.986 2846.1933,830.0526 Q2846.8782,831.1193 2848.2229,831.1193 Q2848.8538,831.1193 2849.4473,830.8495 Q2850.0408,830.5797 2850.6716,829.9987 Z " fill="#000000"/><text fill="#000000" font-family="sans-serif" font-size="14" lengthAdjust="spacing" textLength="214.1084" x="2868.1985" y="832.3693">CoreFlightDslSemanticValidator</text><line style="stroke:#181818;stroke-width:0.5;" x1="2749.01" x2="3168.9954" y1="843.0783" y2="843.0783"/><line style="stroke:#181818;stroke-width:0.5;" x1="2749.01" x2="3168.9954" y1="851.0783" y2="851.0783"/><text fill="#000000" font-family="sans-serif" font-size="14" lengthAdjust="spacing" textLength="409.9854" x="2754.01" y="868.6134">+validate(model: FlightPlanDslModel): List&lt;ValidationError&gt;</text></g><!--class FlightPlanAstMapper--><g class="entity" data-qualified-name="dsl.FlightPlanAstMapper" data-source-line="96" id="ent0022"><rect fill="#F1F1F1" height="80.9766" rx="2.5" ry="2.5" style="stroke:#181818;stroke-width:0.5;" width="565.0957" x="3205.45" y="802.8383"/><ellipse cx="3414.0315" cy="818.8383" fill="#C2C2C2" rx="11" ry="11" style="stroke:#181818;stroke-width:1;"/><path d="M3417.0047,824.4813 Q3416.4236,824.7802 3415.7845,824.9296 Q3415.1453,825.079 3414.4397,825.079 Q3411.9329,825.079 3410.6131,823.4271 Q3409.2933,821.7753 3409.2933,818.6542 Q3409.2933,815.5248 3410.6131,813.8729 Q3411.9329,812.2211 3414.4397,812.2211 Q3415.1453,812.2211 3415.7928,812.3705 Q3416.4402,812.5199 3417.0047,812.8188 L3417.0047,815.5414 Q3416.3738,814.9604 3415.7803,814.6906 Q3415.1868,814.4208 3414.556,814.4208 Q3413.2112,814.4208 3412.5264,815.4875 Q3411.8416,816.5541 3411.8416,818.6542 Q3411.8416,820.746 3412.5264,821.8126 Q3413.2112,822.8793 3414.556,822.8793 Q3415.1868,822.8793 3415.7803,822.6095 Q3416.3738,822.3397 3417.0047,821.7587 Z " fill="#000000"/><text fill="#000000" font-family="sans-serif" font-size="14" lengthAdjust="spacing" textLength="139.4326" x="3434.5315" y="824.1293">FlightPlanAstMapper</text><line style="stroke:#181818;stroke-width:0.5;" x1="3206.45" x2="3769.5457" y1="834.8383" y2="834.8383"/><line style="stroke:#181818;stroke-width:0.5;" x1="3206.45" x2="3769.5457" y1="842.8383" y2="842.8383"/><text fill="#000000" font-family="sans-serif" font-size="14" lengthAdjust="spacing" textLength="330.7158" x="3211.45" y="860.3734">+map(parseTree: ParseTree): FlightPlanDslModel</text><text fill="#000000" font-family="sans-serif" font-size="14" lengthAdjust="spacing" textLength="553.0957" x="3211.45" y="876.8617">+toCreateFlightPlanRequest(model: FlightPlanDslModel): CreateFlightPlanRequest</text></g><!--class FlightPlanDslModel--><g class="entity" data-qualified-name="dsl.FlightPlanDslModel" data-source-line="101" id="ent0023"><rect fill="#F1F1F1" height="130.4414" rx="2.5" ry="2.5" style="stroke:#181818;stroke-width:0.5;" width="260.3564" x="3357.82" y="983.8083"/><ellipse cx="3419.0256" cy="999.8083" fill="#C2C2C2" rx="11" ry="11" style="stroke:#181818;stroke-width:1;"/><path d="M3421.9987,1005.4513 Q3421.4177,1005.7502 3420.7785,1005.8996 Q3420.1393,1006.049 3419.4338,1006.049 Q3416.9269,1006.049 3415.6071,1004.3971 Q3414.2873,1002.7453 3414.2873,999.6242 Q3414.2873,996.4948 3415.6071,994.8429 Q3416.9269,993.1911 3419.4338,993.1911 Q3420.1393,993.1911 3420.7868,993.3405 Q3421.4343,993.4899 3421.9987,993.7887 L3421.9987,996.5114 Q3421.3679,995.9304 3420.7743,995.6606 Q3420.1808,995.3908 3419.55,995.3908 Q3418.2053,995.3908 3417.5204,996.4575 Q3416.8356,997.5241 3416.8356,999.6242 Q3416.8356,1001.716 3417.5204,1002.7826 Q3418.2053,1003.8493 3419.55,1003.8493 Q3420.1808,1003.8493 3420.7743,1003.5795 Q3421.3679,1003.3097 3421.9987,1002.7287 Z " fill="#000000"/><text fill="#000000" font-family="sans-serif" font-size="14" lengthAdjust="spacing" textLength="129.4453" x="3439.5256" y="1005.0993">FlightPlanDslModel</text><line style="stroke:#181818;stroke-width:0.5;" x1="3358.82" x2="3617.1764" y1="1015.8083" y2="1015.8083"/><text fill="#000000" font-family="sans-serif" font-size="14" lengthAdjust="spacing" textLength="131.9268" x="3363.82" y="1033.3434">-routeName: String</text><text fill="#000000" font-family="sans-serif" font-size="14" lengthAdjust="spacing" textLength="241.7256" x="3363.82" y="1049.8317">-aircraftRegistrationNumber: String</text><text fill="#000000" font-family="sans-serif" font-size="14" lengthAdjust="spacing" textLength="192.2197" x="3363.82" y="1066.32">-pilotLicenseNumber: String</text><text fill="#000000" font-family="sans-serif" font-size="14" lengthAdjust="spacing" textLength="248.3564" x="3363.82" y="1082.8083">-departureDateTime: LocalDateTime</text><text fill="#000000" font-family="sans-serif" font-size="14" lengthAdjust="spacing" textLength="147.2188" x="3363.82" y="1099.2966">-fuelQuantity: double</text><line style="stroke:#181818;stroke-width:0.5;" x1="3358.82" x2="3617.1764" y1="1106.2497" y2="1106.2497"/></g><!--class TokenStream--><g class="entity" data-qualified-name="dsl.TokenStream" data-source-line="109" id="ent0024"><rect fill="#F1F1F1" height="48" rx="2.5" ry="2.5" style="stroke:#181818;stroke-width:0.5;" width="121.2295" x="2184.39" y="1025.0283"/><ellipse cx="2199.39" cy="1041.0283" fill="#C2C2C2" rx="11" ry="11" style="stroke:#181818;stroke-width:1;"/><path d="M2202.3631,1046.6713 Q2201.7821,1046.9702 2201.1429,1047.1196 Q2200.5038,1047.269 2199.7982,1047.269 Q2197.2914,1047.269 2195.9715,1045.6171 Q2194.6517,1043.9653 2194.6517,1040.8442 Q2194.6517,1037.7148 2195.9715,1036.0629 Q2197.2914,1034.4111 2199.7982,1034.4111 Q2200.5038,1034.4111 2201.1512,1034.5605 Q2201.7987,1034.7099 2202.3631,1035.0088 L2202.3631,1037.7314 Q2201.7323,1037.1504 2201.1388,1036.8806 Q2200.5453,1036.6108 2199.9144,1036.6108 Q2198.5697,1036.6108 2197.8849,1037.6775 Q2197.2001,1038.7441 2197.2001,1040.8442 Q2197.2001,1042.936 2197.8849,1044.0026 Q2198.5697,1045.0693 2199.9144,1045.0693 Q2200.5453,1045.0693 2201.1388,1044.7995 Q2201.7323,1044.5297 2202.3631,1043.9487 Z " fill="#000000"/><text fill="#000000" font-family="sans-serif" font-size="14" lengthAdjust="spacing" textLength="89.2295" x="2213.39" y="1046.3193">TokenStream</text><line style="stroke:#181818;stroke-width:0.5;" x1="2185.39" x2="2304.6195" y1="1057.0283" y2="1057.0283"/><line style="stroke:#181818;stroke-width:0.5;" x1="2185.39" x2="2304.6195" y1="1065.0283" y2="1065.0283"/></g><!--class ParseTree--><g class="entity" data-qualified-name="dsl.ParseTree" data-source-line="112" id="ent0025"><rect fill="#F1F1F1" height="48" rx="2.5" ry="2.5" style="stroke:#181818;stroke-width:0.5;" width="98.3154" x="2519.84" y="1025.0283"/><ellipse cx="2534.84" cy="1041.0283" fill="#C2C2C2" rx="11" ry="11" style="stroke:#181818;stroke-width:1;"/><path d="M2537.8131,1046.6713 Q2537.2321,1046.9702 2536.5929,1047.1196 Q2535.9538,1047.269 2535.2482,1047.269 Q2532.7414,1047.269 2531.4215,1045.6171 Q2530.1017,1043.9653 2530.1017,1040.8442 Q2530.1017,1037.7148 2531.4215,1036.0629 Q2532.7414,1034.4111 2535.2482,1034.4111 Q2535.9538,1034.4111 2536.6012,1034.5605 Q2537.2487,1034.7099 2537.8131,1035.0088 L2537.8131,1037.7314 Q2537.1823,1037.1504 2536.5888,1036.8806 Q2535.9953,1036.6108 2535.3644,1036.6108 Q2534.0197,1036.6108 2533.3349,1037.6775 Q2532.6501,1038.7441 2532.6501,1040.8442 Q2532.6501,1042.936 2533.3349,1044.0026 Q2534.0197,1045.0693 2535.3644,1045.0693 Q2535.9953,1045.0693 2536.5888,1044.7995 Q2537.1823,1044.5297 2537.8131,1043.9487 Z " fill="#000000"/><text fill="#000000" font-family="sans-serif" font-size="14" lengthAdjust="spacing" textLength="66.3154" x="2548.84" y="1046.3193">ParseTree</text><line style="stroke:#181818;stroke-width:0.5;" x1="2520.84" x2="2617.1554" y1="1057.0283" y2="1057.0283"/><line style="stroke:#181818;stroke-width:0.5;" x1="2520.84" x2="2617.1554" y1="1065.0283" y2="1065.0283"/></g><!--class ValidationError--><g class="entity" data-qualified-name="dsl.ValidationError" data-source-line="115" id="ent0026"><rect fill="#F1F1F1" height="113.9531" rx="2.5" ry="2.5" style="stroke:#181818;stroke-width:0.5;" width="192.3662" x="2862.82" y="992.0583"/><ellipse cx="2904.3252" cy="1008.0583" fill="#C2C2C2" rx="11" ry="11" style="stroke:#181818;stroke-width:1;"/><path d="M2907.2983,1013.7013 Q2906.7173,1014.0002 2906.0781,1014.1496 Q2905.4389,1014.299 2904.7334,1014.299 Q2902.2265,1014.299 2900.9067,1012.6471 Q2899.5869,1010.9953 2899.5869,1007.8742 Q2899.5869,1004.7448 2900.9067,1003.0929 Q2902.2265,1001.4411 2904.7334,1001.4411 Q2905.4389,1001.4411 2906.0864,1001.5905 Q2906.7339,1001.7399 2907.2983,1002.0387 L2907.2983,1004.7614 Q2906.6675,1004.1804 2906.074,1003.9106 Q2905.4804,1003.6408 2904.8496,1003.6408 Q2903.5049,1003.6408 2902.82,1004.7075 Q2902.1352,1005.7741 2902.1352,1007.8742 Q2902.1352,1009.966 2902.82,1011.0326 Q2903.5049,1012.0993 2904.8496,1012.0993 Q2905.4804,1012.0993 2906.074,1011.8295 Q2906.6675,1011.5597 2907.2983,1010.9787 Z " fill="#000000"/><text fill="#000000" font-family="sans-serif" font-size="14" lengthAdjust="spacing" textLength="101.4658" x="2924.2152" y="1013.3493">ValidationError</text><line style="stroke:#181818;stroke-width:0.5;" x1="2863.82" x2="3054.1862" y1="1024.0583" y2="1024.0583"/><text fill="#000000" font-family="sans-serif" font-size="14" lengthAdjust="spacing" textLength="180.3662" x="2868.82" y="1041.5934">-type: ValidationErrorType</text><text fill="#000000" font-family="sans-serif" font-size="14" lengthAdjust="spacing" textLength="59.5137" x="2868.82" y="1058.0817">-line: int</text><text fill="#000000" font-family="sans-serif" font-size="14" lengthAdjust="spacing" textLength="85.1963" x="2868.82" y="1074.57">-column: int</text><text fill="#000000" font-family="sans-serif" font-size="14" lengthAdjust="spacing" textLength="116.334" x="2868.82" y="1091.0583">-message: String</text><line style="stroke:#181818;stroke-width:0.5;" x1="2863.82" x2="3054.1862" y1="1098.0114" y2="1098.0114"/></g><!--class ValidationErrorType--><g class="entity" data-qualified-name="dsl.ValidationErrorType" data-source-line="122" id="ent0027"><rect fill="#F1F1F1" height="64.4883" rx="2.5" ry="2.5" style="stroke:#181818;stroke-width:0.5;" width="166.2441" x="2875.88" y="1183.4983"/><ellipse cx="2890.88" cy="1199.4983" fill="#C2C2C2" rx="11" ry="11" style="stroke:#181818;stroke-width:1;"/><path d="M2893.8531,1205.1413 Q2893.2721,1205.4402 2892.6329,1205.5896 Q2891.9938,1205.739 2891.2882,1205.739 Q2888.7814,1205.739 2887.4615,1204.0871 Q2886.1417,1202.4353 2886.1417,1199.3142 Q2886.1417,1196.1848 2887.4615,1194.5329 Q2888.7814,1192.8811 2891.2882,1192.8811 Q2891.9938,1192.8811 2892.6412,1193.0305 Q2893.2887,1193.1799 2893.8531,1193.4788 L2893.8531,1196.2014 Q2893.2223,1195.6204 2892.6288,1195.3506 Q2892.0353,1195.0808 2891.4044,1195.0808 Q2890.0597,1195.0808 2889.3749,1196.1475 Q2888.6901,1197.2141 2888.6901,1199.3142 Q2888.6901,1201.406 2889.3749,1202.4726 Q2890.0597,1203.5393 2891.4044,1203.5393 Q2892.0353,1203.5393 2892.6288,1203.2695 Q2893.2223,1202.9997 2893.8531,1202.4187 Z " fill="#000000"/><text fill="#000000" font-family="sans-serif" font-size="14" lengthAdjust="spacing" textLength="134.2441" x="2904.88" y="1204.7893">ValidationErrorType</text><line style="stroke:#181818;stroke-width:0.5;" x1="2876.88" x2="3041.1241" y1="1215.4983" y2="1215.4983"/><text fill="#000000" font-family="sans-serif" font-size="14" lengthAdjust="spacing" textLength="92.4424" x="2881.88" y="1233.0334">-value: String</text><line style="stroke:#181818;stroke-width:0.5;" x1="2876.88" x2="3041.1241" y1="1239.9866" y2="1239.9866"/></g><!--class User--><g class="entity" data-qualified-name="domain.User" data-source-line="128" id="ent0029"><rect fill="#F1F1F1" height="97.4648" rx="2.5" ry="2.5" style="stroke:#181818;stroke-width:0.5;" width="350.8369" x="298.58" y="1000.2983"/><ellipse cx="454.5658" cy="1016.2983" fill="#C2C2C2" rx="11" ry="11" style="stroke:#181818;stroke-width:1;"/><path d="M457.539,1021.9413 Q456.9579,1022.2402 456.3188,1022.3896 Q455.6796,1022.539 454.974,1022.539 Q452.4672,1022.539 451.1474,1020.8871 Q449.8276,1019.2353 449.8276,1016.1142 Q449.8276,1012.9848 451.1474,1011.3329 Q452.4672,1009.6811 454.974,1009.6811 Q455.6796,1009.6811 456.3271,1009.8305 Q456.9745,1009.9799 457.539,1010.2788 L457.539,1013.0014 Q456.9081,1012.4204 456.3146,1012.1506 Q455.7211,1011.8808 455.0903,1011.8808 Q453.7455,1011.8808 453.0607,1012.9475 Q452.3759,1014.0141 452.3759,1016.1142 Q452.3759,1018.206 453.0607,1019.2726 Q453.7455,1020.3393 455.0903,1020.3393 Q455.7211,1020.3393 456.3146,1020.0695 Q456.9081,1019.7997 457.539,1019.2187 Z " fill="#000000"/><text fill="#000000" font-family="sans-serif" font-size="14" lengthAdjust="spacing" textLength="30.3652" x="475.0658" y="1021.5893">User</text><line style="stroke:#181818;stroke-width:0.5;" x1="299.58" x2="648.4169" y1="1032.2983" y2="1032.2983"/><text fill="#000000" font-family="sans-serif" font-size="14" lengthAdjust="spacing" textLength="90.1387" x="304.58" y="1049.8334">-email: Email</text><text fill="#000000" font-family="sans-serif" font-size="14" lengthAdjust="spacing" textLength="125.7129" x="304.58" y="1066.3217">-roles: List&lt;Role&gt;</text><line style="stroke:#181818;stroke-width:0.5;" x1="299.58" x2="648.4169" y1="1073.2748" y2="1073.2748"/><text fill="#000000" font-family="sans-serif" font-size="14" lengthAdjust="spacing" textLength="338.8369" x="304.58" y="1090.81">+hasPermission(permission: Permission): boolean</text></g><!--class Role--><g class="entity" data-qualified-name="domain.Role" data-source-line="134" id="ent0030"><rect fill="#F1F1F1" height="80.9766" rx="2.5" ry="2.5" style="stroke:#181818;stroke-width:0.5;" width="231.2969" x="299.35" y="1175.2583"/><ellipse cx="396.099" cy="1191.2583" fill="#C2C2C2" rx="11" ry="11" style="stroke:#181818;stroke-width:1;"/><path d="M399.0722,1196.9013 Q398.4911,1197.2002 397.852,1197.3496 Q397.2128,1197.499 396.5072,1197.499 Q394.0004,1197.499 392.6806,1195.8471 Q391.3607,1194.1953 391.3607,1191.0742 Q391.3607,1187.9448 392.6806,1186.2929 Q394.0004,1184.6411 396.5072,1184.6411 Q397.2128,1184.6411 397.8603,1184.7905 Q398.5077,1184.9399 399.0722,1185.2388 L399.0722,1187.9614 Q398.4413,1187.3804 397.8478,1187.1106 Q397.2543,1186.8408 396.6234,1186.8408 Q395.2787,1186.8408 394.5939,1187.9075 Q393.9091,1188.9741 393.9091,1191.0742 Q393.9091,1193.166 394.5939,1194.2326 Q395.2787,1195.2993 396.6234,1195.2993 Q397.2543,1195.2993 397.8478,1195.0295 Q398.4413,1194.7597 399.0722,1194.1787 Z " fill="#000000"/><text fill="#000000" font-family="sans-serif" font-size="14" lengthAdjust="spacing" textLength="29.2988" x="416.599" y="1196.5493">Role</text><line style="stroke:#181818;stroke-width:0.5;" x1="300.35" x2="529.6469" y1="1207.2583" y2="1207.2583"/><text fill="#000000" font-family="sans-serif" font-size="14" lengthAdjust="spacing" textLength="94.2197" x="305.35" y="1224.7934">-name: String</text><text fill="#000000" font-family="sans-serif" font-size="14" lengthAdjust="spacing" textLength="219.2969" x="305.35" y="1241.2817">-permissions: List&lt;Permission&gt;</text><line style="stroke:#181818;stroke-width:0.5;" x1="300.35" x2="529.6469" y1="1248.2348" y2="1248.2348"/></g><!--class Permission--><g class="entity" data-qualified-name="domain.Permission" data-source-line="139" id="ent0031"><rect fill="#F1F1F1" height="64.4883" rx="2.5" ry="2.5" style="stroke:#181818;stroke-width:0.5;" width="106.2197" x="361.89" y="1317.2283"/><ellipse cx="376.9924" cy="1333.2283" fill="#C2C2C2" rx="11" ry="11" style="stroke:#181818;stroke-width:1;"/><path d="M379.9655,1338.8713 Q379.3845,1339.1702 378.7453,1339.3196 Q378.1062,1339.469 377.4006,1339.469 Q374.8938,1339.469 373.5739,1337.8171 Q372.2541,1336.1653 372.2541,1333.0442 Q372.2541,1329.9148 373.5739,1328.2629 Q374.8938,1326.6111 377.4006,1326.6111 Q378.1062,1326.6111 378.7536,1326.7605 Q379.4011,1326.9099 379.9655,1327.2088 L379.9655,1329.9314 Q379.3347,1329.3504 378.7412,1329.0806 Q378.1477,1328.8108 377.5168,1328.8108 Q376.1721,1328.8108 375.4873,1329.8775 Q374.8025,1330.9441 374.8025,1333.0442 Q374.8025,1335.136 375.4873,1336.2026 Q376.1721,1337.2693 377.5168,1337.2693 Q378.1477,1337.2693 378.7412,1336.9995 Q379.3347,1336.7297 379.9655,1336.1487 Z " fill="#000000"/><text fill="#000000" font-family="sans-serif" font-size="14" lengthAdjust="spacing" textLength="73.9922" x="391.0151" y="1338.5193">Permission</text><line style="stroke:#181818;stroke-width:0.5;" x1="362.89" x2="467.1097" y1="1349.2283" y2="1349.2283"/><text fill="#000000" font-family="sans-serif" font-size="14" lengthAdjust="spacing" textLength="94.2197" x="367.89" y="1366.7634">-name: String</text><line style="stroke:#181818;stroke-width:0.5;" x1="362.89" x2="467.1097" y1="1373.7166" y2="1373.7166"/></g><!--class FlightPlan--><g class="entity" data-qualified-name="domain.FlightPlan" data-source-line="143" id="ent0032"><rect fill="#F1F1F1" height="64.4883" rx="2.5" ry="2.5" style="stroke:#181818;stroke-width:0.5;" width="178.1543" x="683.92" y="1016.7883"/><ellipse cx="735.5177" cy="1032.7883" fill="#C2C2C2" rx="11" ry="11" style="stroke:#181818;stroke-width:1;"/><path d="M738.4908,1038.4313 Q737.9097,1038.7302 737.2706,1038.8796 Q736.6314,1039.029 735.9259,1039.029 Q733.419,1039.029 732.0992,1037.3771 Q730.7794,1035.7253 730.7794,1032.6042 Q730.7794,1029.4748 732.0992,1027.8229 Q733.419,1026.1711 735.9259,1026.1711 Q736.6314,1026.1711 737.2789,1026.3205 Q737.9263,1026.4699 738.4908,1026.7688 L738.4908,1029.4914 Q737.8599,1028.9104 737.2664,1028.6406 Q736.6729,1028.3708 736.0421,1028.3708 Q734.6973,1028.3708 734.0125,1029.4375 Q733.3277,1030.5041 733.3277,1032.6042 Q733.3277,1034.696 734.0125,1035.7626 Q734.6973,1036.8293 736.0421,1036.8293 Q736.6729,1036.8293 737.2664,1036.5595 Q737.8599,1036.2897 738.4908,1035.7087 Z " fill="#000000"/><text fill="#000000" font-family="sans-serif" font-size="14" lengthAdjust="spacing" textLength="66.459" x="756.0177" y="1038.0793">FlightPlan</text><line style="stroke:#181818;stroke-width:0.5;" x1="684.92" x2="861.0743" y1="1048.7883" y2="1048.7883"/><text fill="#000000" font-family="sans-serif" font-size="14" lengthAdjust="spacing" textLength="166.1543" x="689.92" y="1066.3234">-status: FlightPlanStatus</text><line style="stroke:#181818;stroke-width:0.5;" x1="684.92" x2="861.0743" y1="1073.2766" y2="1073.2766"/></g><!--class FlightPlanStatus--><g class="entity" data-qualified-name="domain.FlightPlanStatus" data-source-line="147" id="ent0033"><rect fill="#F1F1F1" height="64.4883" rx="2.5" ry="2.5" style="stroke:#181818;stroke-width:0.5;" width="140.0283" x="704.99" y="1183.4983"/><ellipse cx="719.99" cy="1199.4983" fill="#C2C2C2" rx="11" ry="11" style="stroke:#181818;stroke-width:1;"/><path d="M722.9631,1205.1413 Q722.3821,1205.4402 721.7429,1205.5896 Q721.1038,1205.739 720.3982,1205.739 Q717.8914,1205.739 716.5715,1204.0871 Q715.2517,1202.4353 715.2517,1199.3142 Q715.2517,1196.1848 716.5715,1194.5329 Q717.8914,1192.8811 720.3982,1192.8811 Q721.1038,1192.8811 721.7512,1193.0305 Q722.3987,1193.1799 722.9631,1193.4788 L722.9631,1196.2014 Q722.3323,1195.6204 721.7388,1195.3506 Q721.1453,1195.0808 720.5144,1195.0808 Q719.1697,1195.0808 718.4849,1196.1475 Q717.8001,1197.2141 717.8001,1199.3142 Q717.8001,1201.406 718.4849,1202.4726 Q719.1697,1203.5393 720.5144,1203.5393 Q721.1453,1203.5393 721.7388,1203.2695 Q722.3323,1202.9997 722.9631,1202.4187 Z " fill="#000000"/><text fill="#000000" font-family="sans-serif" font-size="14" lengthAdjust="spacing" textLength="108.0283" x="733.99" y="1204.7893">FlightPlanStatus</text><line style="stroke:#181818;stroke-width:0.5;" x1="705.99" x2="844.0183" y1="1215.4983" y2="1215.4983"/><text fill="#000000" font-family="sans-serif" font-size="14" lengthAdjust="spacing" textLength="92.4424" x="710.99" y="1233.0334">-value: String</text><line style="stroke:#181818;stroke-width:0.5;" x1="705.99" x2="844.0183" y1="1239.9866" y2="1239.9866"/></g><!--class Email--><g class="entity" data-qualified-name="domain.Email" data-source-line="151" id="ent0034"><rect fill="#F1F1F1" height="64.4883" rx="2.5" ry="2.5" style="stroke:#181818;stroke-width:0.5;" width="104.4424" x="565.78" y="1183.4983"/><ellipse cx="596.9615" cy="1199.4983" fill="#C2C2C2" rx="11" ry="11" style="stroke:#181818;stroke-width:1;"/><path d="M599.9347,1205.1413 Q599.3536,1205.4402 598.7145,1205.5896 Q598.0753,1205.739 597.3697,1205.739 Q594.8629,1205.739 593.5431,1204.0871 Q592.2233,1202.4353 592.2233,1199.3142 Q592.2233,1196.1848 593.5431,1194.5329 Q594.8629,1192.8811 597.3697,1192.8811 Q598.0753,1192.8811 598.7228,1193.0305 Q599.3702,1193.1799 599.9347,1193.4788 L599.9347,1196.2014 Q599.3038,1195.6204 598.7103,1195.3506 Q598.1168,1195.0808 597.486,1195.0808 Q596.1412,1195.0808 595.4564,1196.1475 Q594.7716,1197.2141 594.7716,1199.3142 Q594.7716,1201.406 595.4564,1202.4726 Q596.1412,1203.5393 597.486,1203.5393 Q598.1168,1203.5393 598.7103,1203.2695 Q599.3038,1202.9997 599.9347,1202.4187 Z " fill="#000000"/><text fill="#000000" font-family="sans-serif" font-size="14" lengthAdjust="spacing" textLength="36.4834" x="614.5574" y="1204.7893">Email</text><line style="stroke:#181818;stroke-width:0.5;" x1="566.78" x2="669.2224" y1="1215.4983" y2="1215.4983"/><text fill="#000000" font-family="sans-serif" font-size="14" lengthAdjust="spacing" textLength="92.4424" x="571.78" y="1233.0334">-value: String</text><line style="stroke:#181818;stroke-width:0.5;" x1="566.78" x2="669.2224" y1="1239.9866" y2="1239.9866"/></g><!--class FlightPlanRepository--><g class="entity" data-qualified-name="repository.FlightPlanRepository" data-source-line="157" id="ent0036"><rect fill="#F1F1F1" height="64.4883" rx="2.5" ry="2.5" style="stroke:#181818;stroke-width:0.5;" width="239.1309" x="1115.43" y="1016.7883"/><ellipse cx="1161.4529" cy="1032.7883" fill="#B1B1B1" rx="11" ry="11" style="stroke:#181818;stroke-width:1;"/><path d="M1157.3807,1028.5534 L1157.3807,1026.3952 L1164.7601,1026.3952 L1164.7601,1028.5534 L1162.2947,1028.5534 L1162.2947,1036.6301 L1164.7601,1036.6301 L1164.7601,1038.7883 L1157.3807,1038.7883 L1157.3807,1036.6301 L1159.846,1036.6301 L1159.846,1028.5534 Z " fill="#000000"/><text fill="#000000" font-family="sans-serif" font-size="14" font-style="italic" lengthAdjust="spacing" textLength="138.585" x="1181.9529" y="1038.0793">FlightPlanRepository</text><line style="stroke:#181818;stroke-width:0.5;" x1="1116.43" x2="1353.5609" y1="1048.7883" y2="1048.7883"/><line style="stroke:#181818;stroke-width:0.5;" x1="1116.43" x2="1353.5609" y1="1056.7883" y2="1056.7883"/><text fill="#000000" font-family="sans-serif" font-size="14" lengthAdjust="spacing" textLength="227.1309" x="1121.43" y="1074.3234">+save(flightPlan: FlightPlan): void</text></g><!--link CreateFlightPlanFromFileUI to CreateFlightPlanFromFileController--><g class="link" data-entity-1="ent0003" data-entity-2="ent0006" data-link-type="dependency" data-source-line="162" id="lnk37"><path codeLine="162" d="M875,269.6283 C875,311.2783 875,355.4283 875,387.1783" fill="none" id="CreateFlightPlanFromFileUI-to-CreateFlightPlanFromFileController" style="stroke:#181818;stroke-width:1;"/><polygon fill="#181818" points="875,393.1783,879,384.1783,875,388.1783,871,384.1783,875,393.1783" style="stroke:#181818;stroke-width:1;"/><polygon fill="#000000" points="880,339.0736,882.9389,330.0285,877.0611,330.0285,880,339.0736" style="stroke:#000000;stroke-width:1;"/><text fill="#000000" font-family="sans-serif" font-size="13" lengthAdjust="spacing" textLength="28.5645" x="889" y="338.9866">uses</text></g><!--link CreateFlightPlanFromFileController to CreateFlightPlanFromFileService--><g class="link" data-entity-1="ent0006" data-entity-2="ent0008" data-link-type="dependency" data-source-line="163" id="lnk38"><path codeLine="163" d="M875,458.0483 C875,496.3283 875,554.6583 875,592.9483" fill="none" id="CreateFlightPlanFromFileController-to-CreateFlightPlanFromFileService" style="stroke:#181818;stroke-width:1;"/><polygon fill="#181818" points="875,598.9483,879,589.9483,875,593.9483,871,589.9483,875,598.9483" style="stroke:#181818;stroke-width:1;"/><polygon fill="#000000" points="880,503.5636,882.9389,494.5185,877.0611,494.5185,880,503.5636" style="stroke:#000000;stroke-width:1;"/><text fill="#000000" font-family="sans-serif" font-size="13" lengthAdjust="spacing" textLength="28.5645" x="889" y="503.4766">uses</text></g><!--link CreateFlightPlanFromFileService to AuthorizationService--><g class="link" data-entity-1="ent0008" data-entity-2="ent0010" data-link-type="dependency" data-source-line="164" id="lnk39"><path codeLine="164" d="M814.53,664.0283 C738.83,703.6683 615.2457,768.3757 539.6157,807.9657" fill="none" id="CreateFlightPlanFromFileService-to-AuthorizationService" style="stroke:#181818;stroke-width:1;"/><polygon fill="#181818" points="534.3,810.7483,544.1287,810.1182,538.7298,808.4294,540.4185,803.0305,534.3,810.7483" style="stroke:#181818;stroke-width:1;"/><polygon fill="#000000" points="675.0704,745.8128,684.4468,744.2209,681.7204,739.0136,675.0704,745.8128" style="stroke:#000000;stroke-width:1;"/><text fill="#000000" font-family="sans-serif" font-size="13" lengthAdjust="spacing" textLength="116.6699" x="688.5" y="748.4066">checks permission</text></g><!--link CreateFlightPlanFromFileService to FlightPlanFileReader--><g class="link" data-entity-1="ent0008" data-entity-2="ent0017" data-link-type="dependency" data-source-line="165" id="lnk40"><path codeLine="165" d="M1008.16,664.0483 C1064.73,677.1883 1131.47,692.2583 1192,704.8383 C1322.15,731.8783 1361.18,714.1183 1486,759.8383 C1520.81,772.5883 1551.9896,790.0004 1579.5396,807.4304" fill="none" id="CreateFlightPlanFromFileService-to-FlightPlanFileReader" style="stroke:#181818;stroke-width:1;"/><polygon fill="#181818" points="1584.61,810.6383,1579.1429,802.4461,1580.3846,807.965,1574.8657,809.2067,1584.61,810.6383" style="stroke:#181818;stroke-width:1;"/><polygon fill="#000000" points="1467.4496,744.7105,1459.3919,739.6585,1457.9612,745.3596,1467.4496,744.7105" style="stroke:#000000;stroke-width:1;"/><text fill="#000000" font-family="sans-serif" font-size="13" lengthAdjust="spacing" textLength="58.2017" x="1471.6" y="748.4066">reads file</text></g><!--link CreateFlightPlanFromFileService to FlightPlanFormatDetector--><g class="link" data-entity-1="ent0008" data-entity-2="ent0018" data-link-type="dependency" data-source-line="166" id="lnk41"><path codeLine="166" d="M995.41,664.0283 C1054.31,678.4583 1126.47,694.5583 1192,704.8383 C1439.94,743.6983 1513.57,687.8583 1754,759.8383 C1787.74,769.9383 1817.6361,783.8273 1846.7061,799.5973" fill="none" id="CreateFlightPlanFromFileService-to-FlightPlanFormatDetector" style="stroke:#181818;stroke-width:1;"/><polygon fill="#181818" points="1851.98,802.4583,1845.9764,794.6508,1847.585,800.0741,1842.1617,801.6827,1851.98,802.4583" style="stroke:#181818;stroke-width:1;"/><polygon fill="#000000" points="1735.8678,744.2799,1727.3975,739.955,1726.4731,745.7597,1735.8678,744.2799" style="stroke:#000000;stroke-width:1;"/><text fill="#000000" font-family="sans-serif" font-size="13" lengthAdjust="spacing" textLength="154.3877" x="1739.93" y="748.4066">detects/validates format</text></g><!--link CreateFlightPlanFromFileService to CoreFlightDslLexer--><g class="link" data-entity-1="ent0008" data-entity-2="ent0019" data-link-type="dependency" data-source-line="167" id="lnk42"><path codeLine="167" d="M990.38,664.0783 C1050.08,679.1283 1124.44,695.7683 1192,704.8383 C1388.61,731.2283 1893.75,700.3583 2083,759.8383 C2121.99,772.0883 2157.781,790.0807 2188.781,807.8007" fill="none" id="CreateFlightPlanFromFileService-to-CoreFlightDslLexer" style="stroke:#181818;stroke-width:1;"/><polygon fill="#181818" points="2193.99,810.7783,2188.1615,802.8392,2189.6491,808.297,2184.1914,809.7846,2193.99,810.7783" style="stroke:#181818;stroke-width:1;"/><polygon fill="#000000" points="2055.6244,744.0889,2046.9936,740.0939,2046.2937,745.9299,2055.6244,744.0889" style="stroke:#000000;stroke-width:1;"/><text fill="#000000" font-family="sans-serif" font-size="13" lengthAdjust="spacing" textLength="94.4277" x="2059.66" y="748.4066">lexical analysis</text></g><!--link CreateFlightPlanFromFileService to CoreFlightDslParser--><g class="link" data-entity-1="ent0008" data-entity-2="ent0020" data-link-type="dependency" data-source-line="168" id="lnk43"><path codeLine="168" d="M988.86,664.0283 C1048.8,679.2583 1123.83,696.0783 1192,704.8383 C1620.24,759.8683 1732.19,706.1483 2163,734.8383 C2271.77,742.0783 2302.43,729.0283 2407,759.8383 C2446.51,771.4783 2482.6393,789.6789 2513.6693,807.6689" fill="none" id="CreateFlightPlanFromFileService-to-CoreFlightDslParser" style="stroke:#181818;stroke-width:1;"/><polygon fill="#181818" points="2518.86,810.6783,2513.0802,802.7037,2514.5344,808.1705,2509.0677,809.6247,2518.86,810.6783" style="stroke:#181818;stroke-width:1;"/><polygon fill="#000000" points="2382.268,743.9625,2373.5384,740.1882,2372.9871,746.0402,2382.268,743.9625" style="stroke:#000000;stroke-width:1;"/><text fill="#000000" font-family="sans-serif" font-size="13" lengthAdjust="spacing" textLength="109.5669" x="2386.29" y="748.4066">syntactic analysis</text></g><!--link CreateFlightPlanFromFileService to FlightPlanAstMapper--><g class="link" data-entity-1="ent0008" data-entity-2="ent0022" data-link-type="dependency" data-source-line="169" id="lnk44"><path codeLine="169" d="M987.71,664.0983 C1047.82,679.4983 1123.35,696.4483 1192,704.8383 C1552.49,748.8683 2463.18,718.9483 2826,734.8383 C2986.67,741.8683 3028.44,732.8983 3187,759.8383 C3246.03,769.8683 3304.4224,784.92 3358.2724,800.71" fill="none" id="CreateFlightPlanFromFileService-to-FlightPlanAstMapper" style="stroke:#181818;stroke-width:1;"/><polygon fill="#181818" points="3364.03,802.3983,3356.5191,796.0275,3359.232,800.9914,3354.2681,803.7043,3364.03,802.3983" style="stroke:#181818;stroke-width:1;"/><polygon fill="#000000" points="3144.5517,743.7812,3135.6907,740.3268,3135.3525,746.1949,3144.5517,743.7812" style="stroke:#000000;stroke-width:1;"/><text fill="#000000" font-family="sans-serif" font-size="13" lengthAdjust="spacing" textLength="108.5513" x="3148.56" y="748.4066">maps AST/model</text></g><!--link CreateFlightPlanFromFileService to CoreFlightDslSemanticValidator--><g class="link" data-entity-1="ent0008" data-entity-2="ent0021" data-link-type="dependency" data-source-line="170" id="lnk45"><path codeLine="170" d="M988.09,664.0683 C1048.15,679.4083 1123.51,696.3183 1192,704.8383 C1481.4,740.8483 2213.01,715.5183 2504,734.8383 C2605.28,741.5583 2632.14,736.8483 2731,759.8383 C2783.89,772.1283 2835.8014,790.7443 2879.8214,808.4043" fill="none" id="CreateFlightPlanFromFileService-to-CoreFlightDslSemanticValidator" style="stroke:#181818;stroke-width:1;"/><polygon fill="#181818" points="2885.39,810.6383,2878.5265,803.5749,2880.7495,808.7766,2875.5478,810.9997,2885.39,810.6383" style="stroke:#181818;stroke-width:1;"/><polygon fill="#000000" points="2703.2955,743.8739,2694.5002,740.2554,2694.0531,746.1162,2703.2955,743.8739" style="stroke:#000000;stroke-width:1;"/><text fill="#000000" font-family="sans-serif" font-size="13" lengthAdjust="spacing" textLength="110.6333" x="2707.31" y="748.4066">semantic analysis</text></g><!--link CreateFlightPlanFromFileService to CreateFlightPlanService--><g class="link" data-entity-1="ent0008" data-entity-2="ent0009" data-link-type="dependency" data-source-line="171" id="lnk46"><path codeLine="171" d="M929.29,664.0283 C997.25,703.6683 1107.7869,768.1358 1175.6769,807.7258" fill="none" id="CreateFlightPlanFromFileService-to-CreateFlightPlanService" style="stroke:#181818;stroke-width:1;"/><polygon fill="#181818" points="1180.86,810.7483,1175.1004,802.7591,1176.5408,808.2295,1171.0704,809.6699,1180.86,810.7483" style="stroke:#181818;stroke-width:1;"/><polygon fill="#000000" points="1085.8691,746.0125,1079.5364,738.9169,1076.5751,743.9944,1085.8691,746.0125" style="stroke:#000000;stroke-width:1;"/><text fill="#000000" font-family="sans-serif" font-size="13" lengthAdjust="spacing" textLength="113.877" x="1090.55" y="748.4066">creates flight plan</text></g><!--link CreateFlightPlanFromFileService to FlightPlanImportDTO--><g class="link" data-entity-1="ent0008" data-entity-2="ent0013" data-link-type="dependency" data-source-line="172" id="lnk47"><path codeLine="172" d="M869.91,663.7983 C864.32,698.3483 856.2183,748.3253 849.7383,788.3753" fill="none" id="CreateFlightPlanFromFileService-to-FlightPlanImportDTO" style="stroke:#181818;stroke-width:1;"/><polygon fill="#181818" points="848.78,794.2983,854.1661,786.0527,849.5786,789.3625,846.2688,784.7749,848.78,794.2983" style="stroke:#181818;stroke-width:1;"/><polygon fill="#000000" points="862.2008,748.4293,866.5477,739.9702,860.7454,739.0307,862.2008,748.4293" style="stroke:#000000;stroke-width:1;"/><text fill="#000000" font-family="sans-serif" font-size="13" lengthAdjust="spacing" textLength="45.5063" x="872" y="748.4066">returns</text></g><!--link CoreFlightDslLexer to TokenStream--><g class="link" data-entity-1="ent0019" data-entity-2="ent0024" data-link-type="dependency" data-source-line="174" id="lnk48"><path codeLine="174" d="M2245,875.7083 C2245,916.7783 2245,981.8283 2245,1018.5483" fill="none" id="CoreFlightDslLexer-to-TokenStream" style="stroke:#181818;stroke-width:1;"/><polygon fill="#181818" points="2245,1024.5483,2249,1015.5483,2245,1019.5483,2241,1015.5483,2245,1024.5483" style="stroke:#181818;stroke-width:1;"/><polygon fill="#000000" points="2250,945.9536,2252.9389,936.9085,2247.0611,936.9085,2250,945.9536" style="stroke:#000000;stroke-width:1;"/><text fill="#000000" font-family="sans-serif" font-size="13" lengthAdjust="spacing" textLength="45.1318" x="2259" y="945.8666">creates</text></g><!--link CoreFlightDslParser to ParseTree--><g class="link" data-entity-1="ent0020" data-entity-2="ent0025" data-link-type="dependency" data-source-line="175" id="lnk49"><path codeLine="175" d="M2569,875.7083 C2569,916.7783 2569,981.8283 2569,1018.5483" fill="none" id="CoreFlightDslParser-to-ParseTree" style="stroke:#181818;stroke-width:1;"/><polygon fill="#181818" points="2569,1024.5483,2573,1015.5483,2569,1019.5483,2565,1015.5483,2569,1024.5483" style="stroke:#181818;stroke-width:1;"/><polygon fill="#000000" points="2574,945.9536,2576.9389,936.9085,2571.0611,936.9085,2574,945.9536" style="stroke:#000000;stroke-width:1;"/><text fill="#000000" font-family="sans-serif" font-size="13" lengthAdjust="spacing" textLength="45.1318" x="2583" y="945.8666">creates</text></g><!--link FlightPlanAstMapper to FlightPlanDslModel--><g class="link" data-entity-1="ent0022" data-entity-2="ent0023" data-link-type="dependency" data-source-line="176" id="lnk50"><path codeLine="176" d="M3488,884.0883 C3488,912.3383 3488,944.8983 3488,977.5183" fill="none" id="FlightPlanAstMapper-to-FlightPlanDslModel" style="stroke:#181818;stroke-width:1;"/><polygon fill="#181818" points="3488,983.5183,3492,974.5183,3488,978.5183,3484,974.5183,3488,983.5183" style="stroke:#181818;stroke-width:1;"/><polygon fill="#000000" points="3493,945.9536,3495.9389,936.9085,3490.0611,936.9085,3493,945.9536" style="stroke:#000000;stroke-width:1;"/><text fill="#000000" font-family="sans-serif" font-size="13" lengthAdjust="spacing" textLength="45.1318" x="3502" y="945.8666">creates</text></g><!--link FlightPlanAstMapper to CreateFlightPlanRequest--><g class="link" data-entity-1="ent0022" data-entity-2="ent0012" data-link-type="dependency" data-source-line="177" id="lnk51"><path codeLine="177" d="M3425.99,802.3483 C3384.9,778.1083 3328.84,749.1683 3275,734.8383 C2933.25,643.8783 1853.66,633.2226 1476.57,632.3226" fill="none" id="FlightPlanAstMapper-to-CreateFlightPlanRequest" style="stroke:#181818;stroke-width:1;"/><polygon fill="#181818" points="1470.57,632.3083,1479.5604,636.3298,1475.57,632.3202,1479.5795,628.3298,1470.57,632.3083" style="stroke:#181818;stroke-width:1;"/><polygon fill="#000000" points="3324.3389,743.0591,3333.0944,746.7728,3333.6051,740.9172,3324.3389,743.0591" style="stroke:#000000;stroke-width:1;"/><text fill="#000000" font-family="sans-serif" font-size="13" lengthAdjust="spacing" textLength="45.1318" x="3338.32" y="748.4066">creates</text></g><!--link CoreFlightDslSemanticValidator to ValidationError--><g class="link" data-entity-1="ent0021" data-entity-2="ent0026" data-link-type="dependency" data-source-line="178" id="lnk52"><path codeLine="178" d="M2959,875.7083 C2959,906.5083 2959,948.1783 2959,985.5783" fill="none" id="CoreFlightDslSemanticValidator-to-ValidationError" style="stroke:#181818;stroke-width:1;"/><polygon fill="#181818" points="2959,991.5783,2963,982.5783,2959,986.5783,2955,982.5783,2959,991.5783" style="stroke:#181818;stroke-width:1;"/><polygon fill="#000000" points="2964,945.9536,2966.9389,936.9085,2961.0611,936.9085,2964,945.9536" style="stroke:#000000;stroke-width:1;"/><text fill="#000000" font-family="sans-serif" font-size="13" lengthAdjust="spacing" textLength="45.5063" x="2973" y="945.8666">returns</text></g><!--reverse link ValidationError to ValidationErrorType--><g class="link" data-entity-1="ent0026" data-entity-2="ent0027" data-link-type="composition" data-source-line="179" id="lnk53"><path codeLine="179" d="M2959,1118.2583 C2959,1143.9783 2959,1161.4883 2959,1183.2383" fill="none" id="ValidationError-backto-ValidationErrorType" style="stroke:#181818;stroke-width:1;"/><polygon fill="#181818" points="2959,1106.2583,2955,1112.2583,2959,1118.2583,2963,1112.2583,2959,1106.2583" style="stroke:#181818;stroke-width:1;"/></g><!--link CreateFlightPlanService to FlightPlanRepository--><g class="link" data-entity-1="ent0009" data-entity-2="ent0036" data-link-type="dependency" data-source-line="181" id="lnk54"><path codeLine="181" d="M1235,875.7083 C1235,913.9883 1235,972.3183 1235,1010.6183" fill="none" id="CreateFlightPlanService-to-FlightPlanRepository" style="stroke:#181818;stroke-width:1;"/><polygon fill="#181818" points="1235,1016.6183,1239,1007.6183,1235,1011.6183,1231,1007.6183,1235,1016.6183" style="stroke:#181818;stroke-width:1;"/><polygon fill="#000000" points="1240,945.9536,1242.9389,936.9085,1237.0611,936.9085,1240,945.9536" style="stroke:#000000;stroke-width:1;"/><text fill="#000000" font-family="sans-serif" font-size="13" lengthAdjust="spacing" textLength="34.4043" x="1249" y="945.8666">saves</text></g><!--link AuthorizationService to User--><g class="link" data-entity-1="ent0010" data-entity-2="ent0029" data-link-type="dependency" data-source-line="182" id="lnk55"><path codeLine="182" d="M474,875.7083 C474,908.8583 474,955.5283 474,993.9283" fill="none" id="AuthorizationService-to-User" style="stroke:#181818;stroke-width:1;"/><polygon fill="#181818" points="474,999.9283,478,990.9283,474,994.9283,470,990.9283,474,999.9283" style="stroke:#181818;stroke-width:1;"/><polygon fill="#000000" points="479,945.9536,481.9389,936.9085,476.0611,936.9085,479,945.9536" style="stroke:#000000;stroke-width:1;"/><text fill="#000000" font-family="sans-serif" font-size="13" lengthAdjust="spacing" textLength="42.853" x="488" y="945.8666">checks</text></g><!--reverse link User to Role--><g class="link" data-entity-1="ent0029" data-entity-2="ent0030" data-link-type="aggregation" data-source-line="183" id="lnk56"><path codeLine="183" d="M452.7293,1109.4139 C443.9793,1133.8139 437.54,1151.8083 429.26,1174.9283" fill="none" id="User-backto-Role" style="stroke:#181818;stroke-width:1;"/><polygon fill="none" points="456.78,1098.1183,450.9894,1102.4159,452.7293,1109.4139,458.5199,1105.1163,456.78,1098.1183" style="stroke:#181818;stroke-width:1;"/><text fill="#000000" font-family="sans-serif" font-size="13" lengthAdjust="spacing" textLength="8.2202" x="445.9436" y="1118.3115">1</text><text fill="#000000" font-family="sans-serif" font-size="13" lengthAdjust="spacing" textLength="22.7119" x="407.8592" y="1164.5196">1..*</text></g><!--reverse link Role to Permission--><g class="link" data-entity-1="ent0030" data-entity-2="ent0031" data-link-type="aggregation" data-source-line="184" id="lnk57"><path codeLine="184" d="M415,1268.6183 C415,1288.0083 415,1298.9683 415,1317.0883" fill="none" id="Role-backto-Permission" style="stroke:#181818;stroke-width:1;"/><polygon fill="none" points="415,1256.6183,411,1262.6183,415,1268.6183,419,1262.6183,415,1256.6183" style="stroke:#181818;stroke-width:1;"/><text fill="#000000" font-family="sans-serif" font-size="13" lengthAdjust="spacing" textLength="8.2202" x="406.3803" y="1276.9206">1</text><text fill="#000000" font-family="sans-serif" font-size="13" lengthAdjust="spacing" textLength="6.2651" x="408.4086" y="1306.4626">*</text></g><!--reverse link User to Email--><g class="link" data-entity-1="ent0029" data-entity-2="ent0034" data-link-type="composition" data-source-line="185" id="lnk58"><path codeLine="185" d="M523.9397,1107.1512 C547.8497,1134.4912 569.22,1158.9483 590.26,1183.0083" fill="none" id="User-backto-Email" style="stroke:#181818;stroke-width:1;"/><polygon fill="#181818" points="516.04,1098.1183,516.9789,1105.268,523.9397,1107.1512,523.0008,1100.0015,516.04,1098.1183" style="stroke:#181818;stroke-width:1;"/></g><!--reverse link FlightPlan to FlightPlanStatus--><g class="link" data-entity-1="ent0032" data-entity-2="ent0033" data-link-type="composition" data-source-line="186" id="lnk59"><path codeLine="186" d="M773.5278,1093.3974 C773.8878,1122.6174 774.26,1153.9383 774.62,1183.2083" fill="none" id="FlightPlan-backto-FlightPlanStatus" style="stroke:#181818;stroke-width:1;"/><polygon fill="#181818" points="773.38,1081.3983,769.4542,1087.4471,773.5278,1093.3974,777.4536,1087.3485,773.38,1081.3983" style="stroke:#181818;stroke-width:1;"/></g><?plantuml-src tLTVRzis47_Nfo2y5xcTq-Qj40O3GTm00T8kY-szCzB59aAH6abbTOT-znufoQ9aIhRRea3dXpY-_tUyknzfcE50riktxovdruieqizC55JHdEHIo7IhP0x4g18yJa7JPxg1fTcXgeBKKB7Xle3Uqap-oyI6F56kVKxAgTPNnYZsM1guJQLOiiz0taPHRPHCIdQ1P2qvJCXl2_SX_qK4FqwPN2kW1cuusspDFQVY1aEyOHpMjxMO_Sp84vBkgTacP8dUnAR7kf4gf-Q0-Hhp-QS4RHRKq7ZgqJEc2qvtjtaXbNa0NN8JA_ULa3QOYhrO_HbG_Pjobb73f7Ylb5Gw1lULa3kcpHyzBfgO1smuNfo3rbYh9lfAxalqnQiYbj0eoJceywfulTVpglcQf0FYSLqklmQMtfJ9CQV12WM2faN1MUgAS5xKIr0lB8MV5F98GAS4qWRGrmuv3xgzAirMAlRPbIhaa-b61BAurA0IiiQ_lvC2LCwqHhM4tE__Hu-F4YUEYaDV8rNwpe4RhMJ8XPAuD3xI708-A5EfeayOsWR7IRdAV2ppHvlwWN31k3HtM3IXOL0e0znPfbI0km1Mp7gzaodbpKy_mHBuNoKLXfbTGZ9PFd8Og-I-ephfwJ9DSRAxPr4xsAk6UgEIERPEnWBgX_BhLRekeQ6crCDTTbYMJjfcLuGovamWcGdZqLB9orpqgRtD7DXncURXtTQTimUWMMy7uu1aSN_AfiEvUWRTx2t085PBrLiKoxAmpGYLxUwOJWzx4Q78sJadackfwibUQ7u7dtg96VaC0ZTLR44BXEzzPLdu2sX-nEmzLRfdjx2as5dN7LDes8cl5C0Hiql8RREbTUFqglTIKI7EPGQyCvgQVx2qQNWUHuVnIfiF28MzR79Qn4KJjPV0DEIsKzs1rJeQz83Ew0wfjVzFAzjhcZgj3dj_225cxyW3YwOdiKBY3zmwmw5OHvrmi8_BqQKbSye6xcJhxjWX3g4ijjLx-zNf10uDEZtW_tElHxTKjvUH-FmxYhNNYK64Ewwrt4JIsW-CPCiSDpum45rmhv79koiwofY1IkBeINcwhkXd7Qs2Gcg6YstNFrxiCL1F56-M_Xfef3kxITCNYCDt53os5ycorlF8-sqscv_oC4a8tcWrcKSdo8wPR2xEH-qrWjPOyEgTa7GBwRFs6kn4Sq7KJnpMQtTlFjzE5-oJ6g_rcmQiqAuJET5o0BmJmk4JFjGueOBodMRwMspLY9qGlHE6fWYovveBGMPYWH9VIClL6uTltnBP8UXZa3Njx9G7NeX9_IxKzTsU57PZd9jt-v2mFOF89snSKU3Ch9wFPgt_UHGw5YlVmfil7QfwDwhzJU0KjQ67ts20XwTZpVJHrgz7d_TgDWjYRpHqMDtql2MOkDLdVGJtWjLRLqrUBuXvv7vFBYT4OXIJoukBLnE7Nv43iJq3gItyL4esx0fLFOonn0DC-Ge0?></g></svg>