<?plantuml 1.2026.2?><svg xmlns="http://www.w3.org/2000/svg" xmlns:xlink="http://www.w3.org/1999/xlink" contentStyleType="text/css" data-diagram-type="SEQUENCE" height="798px" preserveAspectRatio="none" style="width:665px;height:798px;background:#FFFFFF;" version="1.1" viewBox="0 0 665 798" width="665px" zoomAndPan="magnify"><defs/><g><g><title>Pilot</title><rect fill="#FFFFFF" height="615.9238" style="stroke:#181818;stroke-width:1;" width="10" x="32.834" y="91.4883"/></g><g><title>.System</title><rect fill="#FFFFFF" height="29.3105" style="stroke:#181818;stroke-width:1;" width="10" x="340.3765" y="112.7988"/></g><g><title>.System</title><rect fill="#FFFFFF" height="535.9922" style="stroke:#181818;stroke-width:1;" width="10" x="340.3765" y="171.4199"/></g><rect fill="none" height="133.1973" style="stroke:#000000;stroke-width:1.5;" width="565.1963" x="10" y="567.2148"/><g class="participant-lifeline" data-entity-uid="part1" data-qualified-name="Pilot" id="part1-lifeline"><g><title>Pilot</title><rect fill="#000000" fill-opacity="0.00000" height="635.9238" width="8" x="33.834" y="81.4883"/><line style="stroke:#181818;stroke-width:0.5;stroke-dasharray:5,5;" x1="37" x2="37" y1="81.4883" y2="717.4121"/></g></g><g class="participant-lifeline" data-entity-uid="part2" data-qualified-name="System" id="part2-lifeline"><g><title>.System</title><rect fill="#000000" fill-opacity="0.00000" height="635.9238" width="8" x="341.3765" y="81.4883"/><line style="stroke:#181818;stroke-width:0.5;stroke-dasharray:5,5;" x1="345.1128" x2="345.1128" y1="81.4883" y2="717.4121"/></g></g><g class="participant participant-head" data-entity-uid="part1" data-qualified-name="Pilot" id="part1-head"><text fill="#000000" font-family="sans-serif" font-size="14" lengthAdjust="spacing" textLength="29.668" x="20" y="78.5352">Pilot</text><ellipse cx="37.834" cy="13.5" fill="#E3E3E3" rx="8" ry="8" style="stroke:#181818;stroke-width:0.5;"/><path d="M37.834,21.5 L37.834,48.5 M24.834,29.5 L50.834,29.5 M37.834,48.5 L24.834,63.5 M37.834,48.5 L50.834,63.5" fill="none" style="stroke:#181818;stroke-width:0.5;"/></g><g class="participant participant-tail" data-entity-uid="part1" data-qualified-name="Pilot" id="part1-tail"><text fill="#000000" font-family="sans-serif" font-size="14" lengthAdjust="spacing" textLength="29.668" x="20" y="729.9473">Pilot</text><ellipse cx="37.834" cy="741.4004" fill="#E3E3E3" rx="8" ry="8" style="stroke:#181818;stroke-width:0.5;"/><path d="M37.834,749.4004 L37.834,776.4004 M24.834,757.4004 L50.834,757.4004 M37.834,776.4004 L24.834,791.4004 M37.834,776.4004 L50.834,791.4004" fill="none" style="stroke:#181818;stroke-width:0.5;"/></g><g class="participant participant-head" data-entity-uid="part2" data-qualified-name="System" id="part2-head"><rect fill="#E3E3E3" height="30.4883" rx="2.5" ry="2.5" style="stroke:#181818;stroke-width:0.5;" width="66.5273" x="312.1128" y="50"/><text fill="#000000" font-family="sans-serif" font-size="14" lengthAdjust="spacing" textLength="52.5273" x="319.1128" y="70.5352">:System</text></g><g class="participant participant-tail" data-entity-uid="part2" data-qualified-name="System" id="part2-tail"><rect fill="#E3E3E3" height="30.4883" rx="2.5" ry="2.5" style="stroke:#181818;stroke-width:0.5;" width="66.5273" x="312.1128" y="716.4121"/><text fill="#000000" font-family="sans-serif" font-size="14" lengthAdjust="spacing" textLength="52.5273" x="319.1128" y="736.9473">:System</text></g><g><title>Pilot</title><rect fill="#FFFFFF" height="615.9238" style="stroke:#181818;stroke-width:1;" width="10" x="32.834" y="91.4883"/></g><g><title>.System</title><rect fill="#FFFFFF" height="29.3105" style="stroke:#181818;stroke-width:1;" width="10" x="340.3765" y="112.7988"/></g><g><title>.System</title><rect fill="#FFFFFF" height="535.9922" style="stroke:#181818;stroke-width:1;" width="10" x="340.3765" y="171.4199"/></g><g class="message" data-entity-1="part1" data-entity-2="part2" id="msg1"><polygon fill="#181818" points="328.3765,108.7988,338.3765,112.7988,328.3765,116.7988,332.3765,112.7988" style="stroke:#181818;stroke-width:1;"/><line style="stroke:#181818;stroke-width:1;" x1="42.834" x2="334.3765" y1="112.7988" y2="112.7988"/><text fill="#000000" font-family="sans-serif" font-size="13" font-weight="bold" lengthAdjust="spacing" textLength="8.5757" x="52.334" y="108.0566">1</text><text fill="#000000" font-family="sans-serif" font-size="13" lengthAdjust="spacing" textLength="265.9668" x="64.9097" y="108.0566">Requests to create a flight plan from a file</text></g><g class="message" data-entity-1="part2" data-entity-2="part1" id="msg2"><polygon fill="#181818" points="53.834,138.1094,43.834,142.1094,53.834,146.1094,49.834,142.1094" style="stroke:#181818;stroke-width:1;"/><line style="stroke:#181818;stroke-width:1;stroke-dasharray:2,2;" x1="47.834" x2="344.3765" y1="142.1094" y2="142.1094"/><text fill="#000000" font-family="sans-serif" font-size="13" font-weight="bold" lengthAdjust="spacing" textLength="8.5757" x="64.2983" y="137.3672">2</text><text fill="#000000" font-family="sans-serif" font-size="13" lengthAdjust="spacing" textLength="247.0381" x="76.874" y="137.3672">Requests flight plan file and file format</text></g><g class="message" data-entity-1="part1" data-entity-2="part2" id="msg3"><polygon fill="#181818" points="328.3765,167.4199,338.3765,171.4199,328.3765,175.4199,332.3765,171.4199" style="stroke:#181818;stroke-width:1;"/><line style="stroke:#181818;stroke-width:1;" x1="42.834" x2="334.3765" y1="171.4199" y2="171.4199"/><text fill="#000000" font-family="sans-serif" font-size="13" font-weight="bold" lengthAdjust="spacing" textLength="8.5757" x="112.605" y="166.6777">3</text><text fill="#000000" font-family="sans-serif" font-size="13" lengthAdjust="spacing" textLength="145.4248" x="125.1807" y="166.6777">Provides flight plan file</text></g><g class="message" data-entity-1="part2" data-entity-2="part2" id="msg4"><line style="stroke:#181818;stroke-width:1;stroke-dasharray:2,2;" x1="350.3765" x2="392.3765" y1="200.7305" y2="200.7305"/><line style="stroke:#181818;stroke-width:1;stroke-dasharray:2,2;" x1="392.3765" x2="392.3765" y1="200.7305" y2="213.7305"/><line style="stroke:#181818;stroke-width:1;stroke-dasharray:2,2;" x1="351.3765" x2="392.3765" y1="213.7305" y2="213.7305"/><polygon fill="#181818" points="361.3765,209.7305,351.3765,213.7305,361.3765,217.7305,357.3765,213.7305" style="stroke:#181818;stroke-width:1;"/><text fill="#000000" font-family="sans-serif" font-size="13" font-weight="bold" lengthAdjust="spacing" textLength="8.5757" x="357.3765" y="195.9883">4</text><text fill="#000000" font-family="sans-serif" font-size="13" lengthAdjust="spacing" textLength="288.4883" x="369.9521" y="195.9883">Check if pilot is authenticated and authorized</text></g><g class="message" data-entity-1="part2" data-entity-2="part2" id="msg5"><line style="stroke:#181818;stroke-width:1;stroke-dasharray:2,2;" x1="350.3765" x2="392.3765" y1="243.041" y2="243.041"/><line style="stroke:#181818;stroke-width:1;stroke-dasharray:2,2;" x1="392.3765" x2="392.3765" y1="243.041" y2="256.041"/><line style="stroke:#181818;stroke-width:1;stroke-dasharray:2,2;" x1="351.3765" x2="392.3765" y1="256.041" y2="256.041"/><polygon fill="#181818" points="361.3765,252.041,351.3765,256.041,361.3765,260.041,357.3765,256.041" style="stroke:#181818;stroke-width:1;"/><text fill="#000000" font-family="sans-serif" font-size="13" font-weight="bold" lengthAdjust="spacing" textLength="8.5757" x="357.3765" y="238.2988">5</text><text fill="#000000" font-family="sans-serif" font-size="13" lengthAdjust="spacing" textLength="235.9678" x="369.9521" y="238.2988">Validate file existence and readability</text></g><g class="message" data-entity-1="part2" data-entity-2="part2" id="msg6"><line style="stroke:#181818;stroke-width:1;stroke-dasharray:2,2;" x1="350.3765" x2="392.3765" y1="285.3516" y2="285.3516"/><line style="stroke:#181818;stroke-width:1;stroke-dasharray:2,2;" x1="392.3765" x2="392.3765" y1="285.3516" y2="298.3516"/><line style="stroke:#181818;stroke-width:1;stroke-dasharray:2,2;" x1="351.3765" x2="392.3765" y1="298.3516" y2="298.3516"/><polygon fill="#181818" points="361.3765,294.3516,351.3765,298.3516,361.3765,302.3516,357.3765,298.3516" style="stroke:#181818;stroke-width:1;"/><text fill="#000000" font-family="sans-serif" font-size="13" font-weight="bold" lengthAdjust="spacing" textLength="8.5757" x="357.3765" y="280.6094">6</text><text fill="#000000" font-family="sans-serif" font-size="13" lengthAdjust="spacing" textLength="181.0542" x="369.9521" y="280.6094">Detect or validate file format</text></g><g class="message" data-entity-1="part2" data-entity-2="part2" id="msg7"><line style="stroke:#181818;stroke-width:1;stroke-dasharray:2,2;" x1="350.3765" x2="392.3765" y1="327.6621" y2="327.6621"/><line style="stroke:#181818;stroke-width:1;stroke-dasharray:2,2;" x1="392.3765" x2="392.3765" y1="327.6621" y2="340.6621"/><line style="stroke:#181818;stroke-width:1;stroke-dasharray:2,2;" x1="351.3765" x2="392.3765" y1="340.6621" y2="340.6621"/><polygon fill="#181818" points="361.3765,336.6621,351.3765,340.6621,361.3765,344.6621,357.3765,340.6621" style="stroke:#181818;stroke-width:1;"/><text fill="#000000" font-family="sans-serif" font-size="13" font-weight="bold" lengthAdjust="spacing" textLength="8.5757" x="357.3765" y="322.9199">7</text><text fill="#000000" font-family="sans-serif" font-size="13" lengthAdjust="spacing" textLength="148.5098" x="369.9521" y="322.9199">Perform lexical analysis</text></g><g class="message" data-entity-1="part2" data-entity-2="part2" id="msg8"><line style="stroke:#181818;stroke-width:1;stroke-dasharray:2,2;" x1="350.3765" x2="392.3765" y1="369.9727" y2="369.9727"/><line style="stroke:#181818;stroke-width:1;stroke-dasharray:2,2;" x1="392.3765" x2="392.3765" y1="369.9727" y2="382.9727"/><line style="stroke:#181818;stroke-width:1;stroke-dasharray:2,2;" x1="351.3765" x2="392.3765" y1="382.9727" y2="382.9727"/><polygon fill="#181818" points="361.3765,378.9727,351.3765,382.9727,361.3765,386.9727,357.3765,382.9727" style="stroke:#181818;stroke-width:1;"/><text fill="#000000" font-family="sans-serif" font-size="13" font-weight="bold" lengthAdjust="spacing" textLength="8.5757" x="357.3765" y="365.2305">8</text><text fill="#000000" font-family="sans-serif" font-size="13" lengthAdjust="spacing" textLength="163.6489" x="369.9521" y="365.2305">Perform syntactic analysis</text></g><g class="message" data-entity-1="part2" data-entity-2="part2" id="msg9"><line style="stroke:#181818;stroke-width:1;stroke-dasharray:2,2;" x1="350.3765" x2="392.3765" y1="412.2832" y2="412.2832"/><line style="stroke:#181818;stroke-width:1;stroke-dasharray:2,2;" x1="392.3765" x2="392.3765" y1="412.2832" y2="425.2832"/><line style="stroke:#181818;stroke-width:1;stroke-dasharray:2,2;" x1="351.3765" x2="392.3765" y1="425.2832" y2="425.2832"/><polygon fill="#181818" points="361.3765,421.2832,351.3765,425.2832,361.3765,429.2832,357.3765,425.2832" style="stroke:#181818;stroke-width:1;"/><text fill="#000000" font-family="sans-serif" font-size="13" font-weight="bold" lengthAdjust="spacing" textLength="8.5757" x="357.3765" y="407.541">9</text><text fill="#000000" font-family="sans-serif" font-size="13" lengthAdjust="spacing" textLength="248.4282" x="369.9521" y="407.541">Build internal flight plan representation</text></g><g class="message" data-entity-1="part2" data-entity-2="part2" id="msg10"><line style="stroke:#181818;stroke-width:1;stroke-dasharray:2,2;" x1="350.3765" x2="392.3765" y1="454.5938" y2="454.5938"/><line style="stroke:#181818;stroke-width:1;stroke-dasharray:2,2;" x1="392.3765" x2="392.3765" y1="454.5938" y2="467.5938"/><line style="stroke:#181818;stroke-width:1;stroke-dasharray:2,2;" x1="351.3765" x2="392.3765" y1="467.5938" y2="467.5938"/><polygon fill="#181818" points="361.3765,463.5938,351.3765,467.5938,361.3765,471.5938,357.3765,467.5938" style="stroke:#181818;stroke-width:1;"/><text fill="#000000" font-family="sans-serif" font-size="13" font-weight="bold" lengthAdjust="spacing" textLength="17.1514" x="357.3765" y="449.8516">10</text><text fill="#000000" font-family="sans-serif" font-size="13" lengthAdjust="spacing" textLength="164.7153" x="378.5278" y="449.8516">Perform semantic analysis</text></g><g class="message" data-entity-1="part2" data-entity-2="part2" id="msg11"><line style="stroke:#181818;stroke-width:1;stroke-dasharray:2,2;" x1="350.3765" x2="392.3765" y1="496.9043" y2="496.9043"/><line style="stroke:#181818;stroke-width:1;stroke-dasharray:2,2;" x1="392.3765" x2="392.3765" y1="496.9043" y2="509.9043"/><line style="stroke:#181818;stroke-width:1;stroke-dasharray:2,2;" x1="351.3765" x2="392.3765" y1="509.9043" y2="509.9043"/><polygon fill="#181818" points="361.3765,505.9043,351.3765,509.9043,361.3765,513.9043,357.3765,509.9043" style="stroke:#181818;stroke-width:1;"/><text fill="#000000" font-family="sans-serif" font-size="13" font-weight="bold" lengthAdjust="spacing" textLength="17.1514" x="357.3765" y="492.1621">11</text><text fill="#000000" font-family="sans-serif" font-size="13" lengthAdjust="spacing" textLength="277.4814" x="378.5278" y="492.1621">Validate extracted flight plan business rules</text></g><g class="message" data-entity-1="part2" data-entity-2="part2" id="msg12"><line style="stroke:#181818;stroke-width:1;stroke-dasharray:2,2;" x1="350.3765" x2="392.3765" y1="539.2148" y2="539.2148"/><line style="stroke:#181818;stroke-width:1;stroke-dasharray:2,2;" x1="392.3765" x2="392.3765" y1="539.2148" y2="552.2148"/><line style="stroke:#181818;stroke-width:1;stroke-dasharray:2,2;" x1="351.3765" x2="392.3765" y1="552.2148" y2="552.2148"/><polygon fill="#181818" points="361.3765,548.2148,351.3765,552.2148,361.3765,556.2148,357.3765,552.2148" style="stroke:#181818;stroke-width:1;"/><text fill="#000000" font-family="sans-serif" font-size="13" font-weight="bold" lengthAdjust="spacing" textLength="17.1514" x="357.3765" y="534.4727">12</text><text fill="#000000" font-family="sans-serif" font-size="13" lengthAdjust="spacing" textLength="181.5874" x="378.5278" y="534.4727">Set flight plan status to draft</text></g><path d="M10,567.2148 L72.1387,567.2148 L72.1387,574.5254 L62.1387,584.5254 L10,584.5254 L10,567.2148" fill="#EEEEEE" style="stroke:#000000;stroke-width:1.5;"/><rect fill="none" height="133.1973" style="stroke:#000000;stroke-width:1.5;" width="565.1963" x="10" y="567.2148"/><text fill="#000000" font-family="sans-serif" font-size="13" font-weight="bold" lengthAdjust="spacing" textLength="17.1387" x="25" y="580.7832">alt</text><text fill="#000000" font-family="sans-serif" font-size="11" font-weight="bold" lengthAdjust="spacing" textLength="165.9775" x="87.1387" y="579.8496">[file and flight plan are valid]</text><g class="message" data-entity-1="part2" data-entity-2="part2" id="msg13"><line style="stroke:#181818;stroke-width:1;stroke-dasharray:2,2;" x1="350.3765" x2="392.3765" y1="605.8359" y2="605.8359"/><line style="stroke:#181818;stroke-width:1;stroke-dasharray:2,2;" x1="392.3765" x2="392.3765" y1="605.8359" y2="618.8359"/><line style="stroke:#181818;stroke-width:1;stroke-dasharray:2,2;" x1="351.3765" x2="392.3765" y1="618.8359" y2="618.8359"/><polygon fill="#181818" points="361.3765,614.8359,351.3765,618.8359,361.3765,622.8359,357.3765,618.8359" style="stroke:#181818;stroke-width:1;"/><text fill="#000000" font-family="sans-serif" font-size="13" font-weight="bold" lengthAdjust="spacing" textLength="17.1514" x="357.3765" y="601.0938">13</text><text fill="#000000" font-family="sans-serif" font-size="13" lengthAdjust="spacing" textLength="174.6685" x="378.5278" y="601.0938">Import and store flight plan</text></g><g class="message" data-entity-1="part2" data-entity-2="part1" id="msg14"><polygon fill="#181818" points="53.834,644.1465,43.834,648.1465,53.834,652.1465,49.834,648.1465" style="stroke:#181818;stroke-width:1;"/><line style="stroke:#181818;stroke-width:1;stroke-dasharray:2,2;" x1="47.834" x2="339.3765" y1="648.1465" y2="648.1465"/><text fill="#000000" font-family="sans-serif" font-size="13" font-weight="bold" lengthAdjust="spacing" textLength="17.1514" x="76.8391" y="643.4043">14</text><text fill="#000000" font-family="sans-serif" font-size="13" lengthAdjust="spacing" textLength="208.3809" x="97.9905" y="643.4043">Flight plan imported successfully</text></g><line style="stroke:#000000;stroke-width:1;stroke-dasharray:2,2;" x1="10" x2="575.1963" y1="657.1465" y2="657.1465"/><text fill="#000000" font-family="sans-serif" font-size="11" font-weight="bold" lengthAdjust="spacing" textLength="159.7095" x="15" y="667.7813">[file or flight plan is invalid]</text><g class="message" data-entity-1="part2" data-entity-2="part1" id="msg15"><polygon fill="#181818" points="53.834,688.4121,43.834,692.4121,53.834,696.4121,49.834,692.4121" style="stroke:#181818;stroke-width:1;"/><line style="stroke:#181818;stroke-width:1;stroke-dasharray:2,2;" x1="47.834" x2="339.3765" y1="692.4121" y2="692.4121"/><text fill="#000000" font-family="sans-serif" font-size="13" font-weight="bold" lengthAdjust="spacing" textLength="17.1514" x="66.6257" y="687.6699">15</text><text fill="#000000" font-family="sans-serif" font-size="13" lengthAdjust="spacing" textLength="228.8076" x="87.7771" y="687.6699">Display meaningful validation errors</text></g><?plantuml-src XLH1Zjim3Bpx5KJk-u4z56XtKQ270a43zCv8T494bboIJjVx-j9oaZfR8yqb0ZKp78qewubpZu8TT2MNS9JI4PWCrEXjfyTmmWFjR4m4Gi4m7z8Ie4UCvJVd0xIOz6w7VWsK0tqdLPVudFYG8L0saWO7AtdezhviC5WHs6mv5Ti0AjHLuoB6WNlC1fldtQX6NTsUbvN7PpIwu9lw1q-VBW1uXX-J0pK5An249Yn2wpwE1dt23AqVUIgn7-cltgN1HUR95MVfXU2TYBC1SvmNRP4EhOdqKMx5trRAcIFzA_VGp8t-SgHm0cwXhygiuB4UFM0EpepLqrGfmkyKLoL-Ok8ujQdUwOszxbTMgHvOn3qdjd6L-qhcym1-T-SxbKi2QvGjoRGBoJi5JDu6qwYi3y4wPflY28_XNmPE4NWQBuVTHIhK2wa7WyObFsv67UR_zhh5Hcycxit3NlRR3yhPfnvaIBIki2ExewXx6-gWHi7MfncJBIPhWKIXEV06_BUc_QthYrWbgZyjMj8_agwJ_NNHWIlVpwH327wCTaXfRCXVz-p8RtnfoEUEywgZg_WhgoD7w0YpVobSxpeoVXr08aMqeHoRbMUpgCpl_0y0?></g></svg>