<?plantuml 1.2026.2?><svg xmlns="http://www.w3.org/2000/svg" xmlns:xlink="http://www.w3.org/1999/xlink" contentStyleType="text/css" data-diagram-type="CLASS" height="1331px" preserveAspectRatio="none" style="width:2909px;height:1331px;background:#FFFFFF;" version="1.1" viewBox="0 0 2909 1331" width="2909px" zoomAndPan="magnify"><title>US062-CD</title><defs/><g><g class="title" data-source-line="1"><text fill="#000000" font-family="sans-serif" font-size="14" font-weight="bold" lengthAdjust="spacing" textLength="76.0293" x="1409.4854" y="23.5352">US062-CD</text></g><!--cluster ui--><g class="cluster" data-qualified-name="ui" data-source-line="9" id="ent0004"><rect fill="none" height="264.93" rx="2.5" ry="2.5" style="stroke:#000000;stroke-width:1.5;" width="576" x="106" y="44.4883"/><text fill="#000000" font-family="sans-serif" font-size="14" font-weight="bold" lengthAdjust="spacing" textLength="13.7471" x="387.1265" y="60.0234">ui</text></g><!--cluster console--><g class="cluster" data-qualified-name="ui.console" data-source-line="8" id="ent0002"><rect fill="#DDDDDD" height="197.93" rx="2.5" ry="2.5" style="stroke:#000000;stroke-width:1.5;" width="528" x="130" y="87.4883"/><text fill="#000000" font-family="sans-serif" font-size="14" font-weight="bold" lengthAdjust="spacing" textLength="55.2002" x="366.3999" y="103.0234">console</text></g><!--cluster controller--><g class="cluster" data-qualified-name="controller" data-source-line="19" id="ent0005"><rect fill="#DDDDDD" height="115.49" rx="2.5" ry="2.5" style="stroke:#000000;stroke-width:1.5;" width="774" x="7" y="358.4183"/><text fill="#000000" font-family="sans-serif" font-size="14" font-weight="bold" lengthAdjust="spacing" textLength="70.2393" x="358.8804" y="373.9534">controller</text></g><!--cluster application--><g class="cluster" data-qualified-name="application" data-source-line="25" id="ent0007"><rect fill="#DDDDDD" height="343.93" rx="2.5" ry="2.5" style="stroke:#000000;stroke-width:1.5;" width="1077" x="7" y="522.9083"/><text fill="#000000" font-family="sans-serif" font-size="14" font-weight="bold" lengthAdjust="spacing" textLength="79.9326" x="505.5337" y="538.4434">application</text></g><!--cluster domain--><g class="cluster" data-qualified-name="domain" data-source-line="46" id="ent0012"><rect fill="#DDDDDD" height="623.37" rx="2.5" ry="2.5" style="stroke:#000000;stroke-width:1.5;" width="811" x="2092" y="701.8883"/><text fill="#000000" font-family="sans-serif" font-size="14" font-weight="bold" lengthAdjust="spacing" textLength="53.7715" x="2470.6143" y="717.4234">domain</text></g><!--cluster repository--><g class="cluster" data-qualified-name="repository" data-source-line="101" id="ent0024"><rect fill="#DDDDDD" height="115.48" rx="2.5" ry="2.5" style="stroke:#000000;stroke-width:1.5;" width="960" x="1108" y="734.8683"/><text fill="#000000" font-family="sans-serif" font-size="14" font-weight="bold" lengthAdjust="spacing" textLength="74.3955" x="1550.8022" y="750.4034">repository</text></g><!--class ListCustomerCollaboratorsUI--><g class="entity" data-qualified-name="ui.console.ListCustomerCollaboratorsUI" data-source-line="9" id="ent0003"><rect fill="#F1F1F1" height="146.9297" rx="2.5" ry="2.5" style="stroke:#181818;stroke-width:0.5;" width="496.6953" x="145.65" y="122.4883"/><ellipse cx="292.1236" cy="138.4883" fill="#C2C2C2" rx="11" ry="11" style="stroke:#181818;stroke-width:1;"/><path d="M295.0968,144.1313 Q294.5157,144.4302 293.8766,144.5796 Q293.2374,144.729 292.5318,144.729 Q290.025,144.729 288.7052,143.0771 Q287.3854,141.4253 287.3854,138.3042 Q287.3854,135.1748 288.7052,133.5229 Q290.025,131.8711 292.5318,131.8711 Q293.2374,131.8711 293.8849,132.0205 Q294.5323,132.1699 295.0968,132.4688 L295.0968,135.1914 Q294.4659,134.6104 293.8724,134.3406 Q293.2789,134.0708 292.648,134.0708 Q291.3033,134.0708 290.6185,135.1375 Q289.9337,136.2041 289.9337,138.3042 Q289.9337,140.396 290.6185,141.4626 Q291.3033,142.5293 292.648,142.5293 Q293.2789,142.5293 293.8724,142.2595 Q294.4659,141.9897 295.0968,141.4087 Z " fill="#000000"/><text fill="#000000" font-family="sans-serif" font-size="14" lengthAdjust="spacing" textLength="195.248" x="312.6236" y="143.7793">ListCustomerCollaboratorsUI</text><line style="stroke:#181818;stroke-width:0.5;" x1="146.65" x2="641.3453" y1="154.4883" y2="154.4883"/><text fill="#000000" font-family="sans-serif" font-size="14" lengthAdjust="spacing" textLength="153.1387" x="151.65" y="172.0234">-customerType: String</text><text fill="#000000" font-family="sans-serif" font-size="14" lengthAdjust="spacing" textLength="133.2051" x="151.65" y="188.5117">-customerId: String</text><line style="stroke:#181818;stroke-width:0.5;" x1="146.65" x2="641.3453" y1="195.4648" y2="195.4648"/><text fill="#000000" font-family="sans-serif" font-size="14" lengthAdjust="spacing" textLength="102.6211" x="151.65" y="213">+requestData()</text><text fill="#000000" font-family="sans-serif" font-size="14" lengthAdjust="spacing" textLength="484.6953" x="151.65" y="229.4883">+displayCollaborators(collaborators: List&lt;CustomerCollaboratorDTO&gt;)</text><text fill="#000000" font-family="sans-serif" font-size="14" lengthAdjust="spacing" textLength="234.7598" x="151.65" y="245.9766">+displayMessage(message: String)</text><text fill="#000000" font-family="sans-serif" font-size="14" lengthAdjust="spacing" textLength="209.7402" x="151.65" y="262.4648">+displayError(message: String)</text></g><!--class ListCustomerCollaboratorsController--><g class="entity" data-qualified-name="controller.ListCustomerCollaboratorsController" data-source-line="20" id="ent0006"><rect fill="#F1F1F1" height="64.4883" rx="2.5" ry="2.5" style="stroke:#181818;stroke-width:0.5;" width="741.9414" x="23.03" y="393.4183"/><ellipse cx="264.9128" cy="409.4183" fill="#C2C2C2" rx="11" ry="11" style="stroke:#181818;stroke-width:1;"/><path d="M267.886,415.0613 Q267.3049,415.3602 266.6657,415.5096 Q266.0266,415.659 265.321,415.659 Q262.8142,415.659 261.4944,414.0071 Q260.1745,412.3553 260.1745,409.2342 Q260.1745,406.1048 261.4944,404.4529 Q262.8142,402.8011 265.321,402.8011 Q266.0266,402.8011 266.674,402.9505 Q267.3215,403.0999 267.886,403.3987 L267.886,406.1214 Q267.2551,405.5404 266.6616,405.2706 Q266.0681,405.0008 265.4372,405.0008 Q264.0925,405.0008 263.4077,406.0675 Q262.7229,407.1341 262.7229,409.2342 Q262.7229,411.326 263.4077,412.3926 Q264.0925,413.4593 265.4372,413.4593 Q266.0681,413.4593 266.6616,413.1895 Q267.2551,412.9197 267.886,412.3387 Z " fill="#000000"/><text fill="#000000" font-family="sans-serif" font-size="14" lengthAdjust="spacing" textLength="249.6758" x="285.4128" y="414.7093">ListCustomerCollaboratorsController</text><line style="stroke:#181818;stroke-width:0.5;" x1="24.03" x2="763.9714" y1="425.4183" y2="425.4183"/><line style="stroke:#181818;stroke-width:0.5;" x1="24.03" x2="763.9714" y1="433.4183" y2="433.4183"/><text fill="#000000" font-family="sans-serif" font-size="14" lengthAdjust="spacing" textLength="729.9414" x="29.03" y="450.9534">+listCustomerCollaborators(request: ListCustomerCollaboratorsRequest): List&lt;CustomerCollaboratorDTO&gt;</text></g><!--class ListCustomerCollaboratorsService--><g class="entity" data-qualified-name="application.ListCustomerCollaboratorsService" data-source-line="26" id="ent0008"><rect fill="#F1F1F1" height="64.4883" rx="2.5" ry="2.5" style="stroke:#181818;stroke-width:0.5;" width="741.9414" x="23.03" y="566.1583"/><ellipse cx="275.3274" cy="582.1583" fill="#C2C2C2" rx="11" ry="11" style="stroke:#181818;stroke-width:1;"/><path d="M278.3005,587.8013 Q277.7195,588.1002 277.0803,588.2496 Q276.4411,588.399 275.7356,588.399 Q273.2287,588.399 271.9089,586.7471 Q270.5891,585.0953 270.5891,581.9742 Q270.5891,578.8448 271.9089,577.1929 Q273.2287,575.5411 275.7356,575.5411 Q276.4411,575.5411 277.0886,575.6905 Q277.7361,575.8399 278.3005,576.1388 L278.3005,578.8614 Q277.6696,578.2804 277.0761,578.0106 Q276.4826,577.7408 275.8518,577.7408 Q274.5071,577.7408 273.8222,578.8075 Q273.1374,579.8741 273.1374,581.9742 Q273.1374,584.066 273.8222,585.1326 Q274.5071,586.1993 275.8518,586.1993 Q276.4826,586.1993 277.0761,585.9295 Q277.6696,585.6597 278.3005,585.0787 Z " fill="#000000"/><text fill="#000000" font-family="sans-serif" font-size="14" lengthAdjust="spacing" textLength="228.8467" x="295.8274" y="587.4493">ListCustomerCollaboratorsService</text><line style="stroke:#181818;stroke-width:0.5;" x1="24.03" x2="763.9714" y1="598.1583" y2="598.1583"/><line style="stroke:#181818;stroke-width:0.5;" x1="24.03" x2="763.9714" y1="606.1583" y2="606.1583"/><text fill="#000000" font-family="sans-serif" font-size="14" lengthAdjust="spacing" textLength="729.9414" x="29.03" y="623.6934">+listCustomerCollaborators(request: ListCustomerCollaboratorsRequest): List&lt;CustomerCollaboratorDTO&gt;</text></g><!--class AuthorizationService--><g class="entity" data-qualified-name="application.AuthorizationService" data-source-line="30" id="ent0009"><rect fill="#F1F1F1" height="64.4883" rx="2.5" ry="2.5" style="stroke:#181818;stroke-width:0.5;" width="417.1934" x="185.4" y="769.8683"/><ellipse cx="319.5929" cy="785.8683" fill="#C2C2C2" rx="11" ry="11" style="stroke:#181818;stroke-width:1;"/><path d="M322.566,791.5113 Q321.985,791.8102 321.3458,791.9596 Q320.7066,792.109 320.0011,792.109 Q317.4942,792.109 316.1744,790.4571 Q314.8546,788.8053 314.8546,785.6842 Q314.8546,782.5548 316.1744,780.9029 Q317.4942,779.2511 320.0011,779.2511 Q320.7066,779.2511 321.3541,779.4005 Q322.0016,779.5499 322.566,779.8488 L322.566,782.5714 Q321.9352,781.9904 321.3417,781.7206 Q320.7481,781.4508 320.1173,781.4508 Q318.7726,781.4508 318.0877,782.5175 Q317.4029,783.5841 317.4029,785.6842 Q317.4029,787.776 318.0877,788.8426 Q318.7726,789.9093 320.1173,789.9093 Q320.7481,789.9093 321.3417,789.6395 Q321.9352,789.3697 322.566,788.7887 Z " fill="#000000"/><text fill="#000000" font-family="sans-serif" font-size="14" lengthAdjust="spacing" textLength="140.3076" x="340.0929" y="791.1593">AuthorizationService</text><line style="stroke:#181818;stroke-width:0.5;" x1="186.4" x2="601.5934" y1="801.8683" y2="801.8683"/><line style="stroke:#181818;stroke-width:0.5;" x1="186.4" x2="601.5934" y1="809.8683" y2="809.8683"/><text fill="#000000" font-family="sans-serif" font-size="14" lengthAdjust="spacing" textLength="405.1934" x="191.4" y="827.4034">+isAuthorized(user: User, permission: Permission): boolean</text></g><!--class ListCustomerCollaboratorsRequest--><g class="entity" data-qualified-name="application.ListCustomerCollaboratorsRequest" data-source-line="34" id="ent0010"><rect fill="#F1F1F1" height="80.9766" rx="2.5" ry="2.5" style="stroke:#181818;stroke-width:0.5;" width="267.8398" x="800.08" y="557.9083"/><ellipse cx="815.08" cy="573.9083" fill="#C2C2C2" rx="11" ry="11" style="stroke:#181818;stroke-width:1;"/><path d="M818.0531,579.5513 Q817.4721,579.8502 816.8329,579.9996 Q816.1938,580.149 815.4882,580.149 Q812.9814,580.149 811.6615,578.4971 Q810.3417,576.8453 810.3417,573.7242 Q810.3417,570.5948 811.6615,568.9429 Q812.9814,567.2911 815.4882,567.2911 Q816.1938,567.2911 816.8412,567.4405 Q817.4887,567.5899 818.0531,567.8888 L818.0531,570.6114 Q817.4223,570.0304 816.8288,569.7606 Q816.2353,569.4908 815.6044,569.4908 Q814.2597,569.4908 813.5749,570.5575 Q812.8901,571.6241 812.8901,573.7242 Q812.8901,575.816 813.5749,576.8826 Q814.2597,577.9493 815.6044,577.9493 Q816.2353,577.9493 816.8288,577.6795 Q817.4223,577.4097 818.0531,576.8287 Z " fill="#000000"/><text fill="#000000" font-family="sans-serif" font-size="14" lengthAdjust="spacing" textLength="235.8398" x="829.08" y="579.1993">ListCustomerCollaboratorsRequest</text><line style="stroke:#181818;stroke-width:0.5;" x1="801.08" x2="1066.9198" y1="589.9083" y2="589.9083"/><text fill="#000000" font-family="sans-serif" font-size="14" lengthAdjust="spacing" textLength="153.1387" x="806.08" y="607.4434">-customerType: String</text><text fill="#000000" font-family="sans-serif" font-size="14" lengthAdjust="spacing" textLength="133.2051" x="806.08" y="623.9317">-customerId: String</text><line style="stroke:#181818;stroke-width:0.5;" x1="801.08" x2="1066.9198" y1="630.8848" y2="630.8848"/></g><!--class CustomerCollaboratorDTO--><g class="entity" data-qualified-name="application.CustomerCollaboratorDTO" data-source-line="39" id="ent0011"><rect fill="#F1F1F1" height="97.4648" rx="2.5" ry="2.5" style="stroke:#181818;stroke-width:0.5;" width="212.708" x="637.65" y="753.3783"/><ellipse cx="652.65" cy="769.3783" fill="#C2C2C2" rx="11" ry="11" style="stroke:#181818;stroke-width:1;"/><path d="M655.6231,775.0213 Q655.0421,775.3202 654.4029,775.4696 Q653.7638,775.619 653.0582,775.619 Q650.5514,775.619 649.2315,773.9671 Q647.9117,772.3153 647.9117,769.1942 Q647.9117,766.0648 649.2315,764.4129 Q650.5514,762.7611 653.0582,762.7611 Q653.7638,762.7611 654.4112,762.9105 Q655.0587,763.0599 655.6231,763.3588 L655.6231,766.0814 Q654.9923,765.5004 654.3988,765.2306 Q653.8053,764.9608 653.1744,764.9608 Q651.8297,764.9608 651.1449,766.0275 Q650.4601,767.0941 650.4601,769.1942 Q650.4601,771.286 651.1449,772.3526 Q651.8297,773.4193 653.1744,773.4193 Q653.8053,773.4193 654.3988,773.1495 Q654.9923,772.8797 655.6231,772.2987 Z " fill="#000000"/><text fill="#000000" font-family="sans-serif" font-size="14" lengthAdjust="spacing" textLength="180.708" x="666.65" y="774.6693">CustomerCollaboratorDTO</text><line style="stroke:#181818;stroke-width:0.5;" x1="638.65" x2="849.358" y1="785.3783" y2="785.3783"/><text fill="#000000" font-family="sans-serif" font-size="14" lengthAdjust="spacing" textLength="93.625" x="643.65" y="802.9134">-email: String</text><text fill="#000000" font-family="sans-serif" font-size="14" lengthAdjust="spacing" textLength="94.2197" x="643.65" y="819.4017">-name: String</text><text fill="#000000" font-family="sans-serif" font-size="14" lengthAdjust="spacing" textLength="112.0957" x="643.65" y="835.89">-position: String</text><line style="stroke:#181818;stroke-width:0.5;" x1="638.65" x2="849.358" y1="842.8431" y2="842.8431"/></g><!--class User--><g class="entity" data-qualified-name="domain.User" data-source-line="47" id="ent0013"><rect fill="#F1F1F1" height="97.4648" rx="2.5" ry="2.5" style="stroke:#181818;stroke-width:0.5;" width="350.8369" x="2142.58" y="944.3283"/><ellipse cx="2298.5658" cy="960.3283" fill="#C2C2C2" rx="11" ry="11" style="stroke:#181818;stroke-width:1;"/><path d="M2301.539,965.9713 Q2300.9579,966.2702 2300.3188,966.4196 Q2299.6796,966.569 2298.974,966.569 Q2296.4672,966.569 2295.1474,964.9171 Q2293.8276,963.2653 2293.8276,960.1442 Q2293.8276,957.0148 2295.1474,955.3629 Q2296.4672,953.7111 2298.974,953.7111 Q2299.6796,953.7111 2300.3271,953.8605 Q2300.9745,954.0099 2301.539,954.3087 L2301.539,957.0314 Q2300.9081,956.4504 2300.3146,956.1806 Q2299.7211,955.9108 2299.0903,955.9108 Q2297.7455,955.9108 2297.0607,956.9775 Q2296.3759,958.0441 2296.3759,960.1442 Q2296.3759,962.236 2297.0607,963.3026 Q2297.7455,964.3693 2299.0903,964.3693 Q2299.7211,964.3693 2300.3146,964.0995 Q2300.9081,963.8297 2301.539,963.2487 Z " fill="#000000"/><text fill="#000000" font-family="sans-serif" font-size="14" lengthAdjust="spacing" textLength="30.3652" x="2319.0658" y="965.6193">User</text><line style="stroke:#181818;stroke-width:0.5;" x1="2143.58" x2="2492.4169" y1="976.3283" y2="976.3283"/><text fill="#000000" font-family="sans-serif" font-size="14" lengthAdjust="spacing" textLength="90.1387" x="2148.58" y="993.8634">-email: Email</text><text fill="#000000" font-family="sans-serif" font-size="14" lengthAdjust="spacing" textLength="125.7129" x="2148.58" y="1010.3517">-roles: List&lt;Role&gt;</text><line style="stroke:#181818;stroke-width:0.5;" x1="2143.58" x2="2492.4169" y1="1017.3048" y2="1017.3048"/><text fill="#000000" font-family="sans-serif" font-size="14" lengthAdjust="spacing" textLength="338.8369" x="2148.58" y="1034.84">+hasPermission(permission: Permission): boolean</text></g><!--class Role--><g class="entity" data-qualified-name="domain.Role" data-source-line="53" id="ent0014"><rect fill="#F1F1F1" height="80.9766" rx="2.5" ry="2.5" style="stroke:#181818;stroke-width:0.5;" width="231.2969" x="2108.35" y="1102.7983"/><ellipse cx="2205.099" cy="1118.7983" fill="#C2C2C2" rx="11" ry="11" style="stroke:#181818;stroke-width:1;"/><path d="M2208.0722,1124.4413 Q2207.4911,1124.7402 2206.852,1124.8896 Q2206.2128,1125.039 2205.5072,1125.039 Q2203.0004,1125.039 2201.6806,1123.3871 Q2200.3607,1121.7353 2200.3607,1118.6142 Q2200.3607,1115.4848 2201.6806,1113.8329 Q2203.0004,1112.1811 2205.5072,1112.1811 Q2206.2128,1112.1811 2206.8603,1112.3305 Q2207.5077,1112.4799 2208.0722,1112.7788 L2208.0722,1115.5014 Q2207.4413,1114.9204 2206.8478,1114.6506 Q2206.2543,1114.3808 2205.6234,1114.3808 Q2204.2787,1114.3808 2203.5939,1115.4475 Q2202.9091,1116.5141 2202.9091,1118.6142 Q2202.9091,1120.706 2203.5939,1121.7726 Q2204.2787,1122.8393 2205.6234,1122.8393 Q2206.2543,1122.8393 2206.8478,1122.5695 Q2207.4413,1122.2997 2208.0722,1121.7187 Z " fill="#000000"/><text fill="#000000" font-family="sans-serif" font-size="14" lengthAdjust="spacing" textLength="29.2988" x="2225.599" y="1124.0893">Role</text><line style="stroke:#181818;stroke-width:0.5;" x1="2109.35" x2="2338.6469" y1="1134.7983" y2="1134.7983"/><text fill="#000000" font-family="sans-serif" font-size="14" lengthAdjust="spacing" textLength="94.2197" x="2114.35" y="1152.3334">-name: String</text><text fill="#000000" font-family="sans-serif" font-size="14" lengthAdjust="spacing" textLength="219.2969" x="2114.35" y="1168.8217">-permissions: List&lt;Permission&gt;</text><line style="stroke:#181818;stroke-width:0.5;" x1="2109.35" x2="2338.6469" y1="1175.7748" y2="1175.7748"/></g><!--class Permission--><g class="entity" data-qualified-name="domain.Permission" data-source-line="58" id="ent0015"><rect fill="#F1F1F1" height="64.4883" rx="2.5" ry="2.5" style="stroke:#181818;stroke-width:0.5;" width="106.2197" x="2170.89" y="1244.7683"/><ellipse cx="2185.9924" cy="1260.7683" fill="#C2C2C2" rx="11" ry="11" style="stroke:#181818;stroke-width:1;"/><path d="M2188.9655,1266.4113 Q2188.3845,1266.7102 2187.7453,1266.8596 Q2187.1062,1267.009 2186.4006,1267.009 Q2183.8938,1267.009 2182.5739,1265.3571 Q2181.2541,1263.7053 2181.2541,1260.5842 Q2181.2541,1257.4548 2182.5739,1255.8029 Q2183.8938,1254.1511 2186.4006,1254.1511 Q2187.1062,1254.1511 2187.7536,1254.3005 Q2188.4011,1254.4499 2188.9655,1254.7488 L2188.9655,1257.4714 Q2188.3347,1256.8904 2187.7412,1256.6206 Q2187.1477,1256.3508 2186.5168,1256.3508 Q2185.1721,1256.3508 2184.4873,1257.4175 Q2183.8025,1258.4841 2183.8025,1260.5842 Q2183.8025,1262.676 2184.4873,1263.7426 Q2185.1721,1264.8093 2186.5168,1264.8093 Q2187.1477,1264.8093 2187.7412,1264.5395 Q2188.3347,1264.2697 2188.9655,1263.6887 Z " fill="#000000"/><text fill="#000000" font-family="sans-serif" font-size="14" lengthAdjust="spacing" textLength="73.9922" x="2200.0151" y="1266.0593">Permission</text><line style="stroke:#181818;stroke-width:0.5;" x1="2171.89" x2="2276.1097" y1="1276.7683" y2="1276.7683"/><text fill="#000000" font-family="sans-serif" font-size="14" lengthAdjust="spacing" textLength="94.2197" x="2176.89" y="1294.3034">-name: String</text><line style="stroke:#181818;stroke-width:0.5;" x1="2171.89" x2="2276.1097" y1="1301.2566" y2="1301.2566"/></g><!--class Customer--><g class="entity" data-qualified-name="domain.Customer" data-source-line="62" id="ent0016"><rect fill="#F1F1F1" height="80.9766" rx="2.5" ry="2.5" style="stroke:#181818;stroke-width:0.5;" width="106.2197" x="2563.89" y="952.5683"/><ellipse cx="2582.613" cy="968.5683" fill="#CDCDCD" rx="11" ry="11" style="stroke:#181818;stroke-width:1;"/><path d="M2582.7263,963.9164 L2581.5725,968.9882 L2583.8884,968.9882 Z M2581.2322,961.6752 L2584.2288,961.6752 L2587.574,974.0683 L2585.1253,974.0683 L2584.3616,971.0053 L2581.0828,971.0053 L2580.3357,974.0683 L2577.887,974.0683 Z " fill="#000000"/><text fill="#000000" font-family="sans-serif" font-size="14" font-style="italic" lengthAdjust="spacing" textLength="65.9463" x="2597.4404" y="973.8593">Customer</text><line style="stroke:#181818;stroke-width:0.5;" x1="2564.89" x2="2669.1097" y1="984.5683" y2="984.5683"/><text fill="#000000" font-family="sans-serif" font-size="14" lengthAdjust="spacing" textLength="69.7881" x="2569.89" y="1002.1034">-id: String</text><text fill="#000000" font-family="sans-serif" font-size="14" lengthAdjust="spacing" textLength="94.2197" x="2569.89" y="1018.5917">-name: String</text><line style="stroke:#181818;stroke-width:0.5;" x1="2564.89" x2="2669.1097" y1="1025.5448" y2="1025.5448"/></g><!--class AirTransportCompany--><g class="entity" data-qualified-name="domain.AirTransportCompany" data-source-line="67" id="ent0017"><rect fill="#F1F1F1" height="80.9766" rx="2.5" ry="2.5" style="stroke:#181818;stroke-width:0.5;" width="204.5752" x="2514.71" y="1102.7983"/><ellipse cx="2539.9361" cy="1118.7983" fill="#C2C2C2" rx="11" ry="11" style="stroke:#181818;stroke-width:1;"/><path d="M2542.9092,1124.4413 Q2542.3282,1124.7402 2541.689,1124.8896 Q2541.0498,1125.039 2540.3443,1125.039 Q2537.8374,1125.039 2536.5176,1123.3871 Q2535.1978,1121.7353 2535.1978,1118.6142 Q2535.1978,1115.4848 2536.5176,1113.8329 Q2537.8374,1112.1811 2540.3443,1112.1811 Q2541.0498,1112.1811 2541.6973,1112.3305 Q2542.3448,1112.4799 2542.9092,1112.7788 L2542.9092,1115.5014 Q2542.2784,1114.9204 2541.6849,1114.6506 Q2541.0913,1114.3808 2540.4605,1114.3808 Q2539.1158,1114.3808 2538.4309,1115.4475 Q2537.7461,1116.5141 2537.7461,1118.6142 Q2537.7461,1120.706 2538.4309,1121.7726 Q2539.1158,1122.8393 2540.4605,1122.8393 Q2541.0913,1122.8393 2541.6849,1122.5695 Q2542.2784,1122.2997 2542.9092,1121.7187 Z " fill="#000000"/><text fill="#000000" font-family="sans-serif" font-size="14" lengthAdjust="spacing" textLength="149.8506" x="2556.2085" y="1124.0893">AirTransportCompany</text><line style="stroke:#181818;stroke-width:0.5;" x1="2515.71" x2="2718.2852" y1="1134.7983" y2="1134.7983"/><text fill="#000000" font-family="sans-serif" font-size="14" lengthAdjust="spacing" textLength="187.7217" x="2520.71" y="1152.3334">-iataCode: AirlineIATACode</text><text fill="#000000" font-family="sans-serif" font-size="14" lengthAdjust="spacing" textLength="192.5752" x="2520.71" y="1168.8217">-icaoCode: AirlineICAOCode</text><line style="stroke:#181818;stroke-width:0.5;" x1="2515.71" x2="2718.2852" y1="1175.7748" y2="1175.7748"/></g><!--class AirControlArea--><g class="entity" data-qualified-name="domain.AirControlArea" data-source-line="72" id="ent0018"><rect fill="#F1F1F1" height="64.4883" rx="2.5" ry="2.5" style="stroke:#181818;stroke-width:0.5;" width="132.9395" x="2754.53" y="1111.0383"/><ellipse cx="2769.53" cy="1127.0383" fill="#C2C2C2" rx="11" ry="11" style="stroke:#181818;stroke-width:1;"/><path d="M2772.5031,1132.6813 Q2771.9221,1132.9802 2771.2829,1133.1296 Q2770.6438,1133.279 2769.9382,1133.279 Q2767.4314,1133.279 2766.1115,1131.6271 Q2764.7917,1129.9753 2764.7917,1126.8542 Q2764.7917,1123.7248 2766.1115,1122.0729 Q2767.4314,1120.4211 2769.9382,1120.4211 Q2770.6438,1120.4211 2771.2912,1120.5705 Q2771.9387,1120.7199 2772.5031,1121.0188 L2772.5031,1123.7414 Q2771.8723,1123.1604 2771.2788,1122.8906 Q2770.6853,1122.6208 2770.0544,1122.6208 Q2768.7097,1122.6208 2768.0249,1123.6875 Q2767.3401,1124.7541 2767.3401,1126.8542 Q2767.3401,1128.946 2768.0249,1130.0126 Q2768.7097,1131.0793 2770.0544,1131.0793 Q2770.6853,1131.0793 2771.2788,1130.8095 Q2771.8723,1130.5397 2772.5031,1129.9587 Z " fill="#000000"/><text fill="#000000" font-family="sans-serif" font-size="14" lengthAdjust="spacing" textLength="100.9395" x="2783.53" y="1132.3293">AirControlArea</text><line style="stroke:#181818;stroke-width:0.5;" x1="2755.53" x2="2886.4695" y1="1143.0383" y2="1143.0383"/><text fill="#000000" font-family="sans-serif" font-size="14" lengthAdjust="spacing" textLength="115.1582" x="2760.53" y="1160.5734">-code: AreaCode</text><line style="stroke:#181818;stroke-width:0.5;" x1="2755.53" x2="2886.4695" y1="1167.5266" y2="1167.5266"/></g><!--class CustomerCollaborator--><g class="entity" data-qualified-name="domain.CustomerCollaborator" data-source-line="76" id="ent0019"><rect fill="#F1F1F1" height="130.4414" rx="2.5" ry="2.5" style="stroke:#181818;stroke-width:0.5;" width="182.4932" x="2376.75" y="736.8883"/><ellipse cx="2391.75" cy="752.8883" fill="#C2C2C2" rx="11" ry="11" style="stroke:#181818;stroke-width:1;"/><path d="M2394.7231,758.5313 Q2394.1421,758.8302 2393.5029,758.9796 Q2392.8638,759.129 2392.1582,759.129 Q2389.6514,759.129 2388.3315,757.4771 Q2387.0117,755.8253 2387.0117,752.7042 Q2387.0117,749.5748 2388.3315,747.9229 Q2389.6514,746.2711 2392.1582,746.2711 Q2392.8638,746.2711 2393.5112,746.4205 Q2394.1587,746.5699 2394.7231,746.8688 L2394.7231,749.5914 Q2394.0923,749.0104 2393.4988,748.7406 Q2392.9053,748.4708 2392.2744,748.4708 Q2390.9297,748.4708 2390.2449,749.5375 Q2389.5601,750.6041 2389.5601,752.7042 Q2389.5601,754.796 2390.2449,755.8626 Q2390.9297,756.9293 2392.2744,756.9293 Q2392.9053,756.9293 2393.4988,756.6595 Q2394.0923,756.3897 2394.7231,755.8087 Z " fill="#000000"/><text fill="#000000" font-family="sans-serif" font-size="14" lengthAdjust="spacing" textLength="150.4932" x="2405.75" y="758.1793">CustomerCollaborator</text><line style="stroke:#181818;stroke-width:0.5;" x1="2377.75" x2="2558.2432" y1="768.8883" y2="768.8883"/><text fill="#000000" font-family="sans-serif" font-size="14" lengthAdjust="spacing" textLength="146.3369" x="2382.75" y="786.4234">-customer: Customer</text><text fill="#000000" font-family="sans-serif" font-size="14" lengthAdjust="spacing" textLength="76.6787" x="2382.75" y="802.9117">-user: User</text><text fill="#000000" font-family="sans-serif" font-size="14" lengthAdjust="spacing" textLength="112.0957" x="2382.75" y="819.4">-position: String</text><text fill="#000000" font-family="sans-serif" font-size="14" lengthAdjust="spacing" textLength="110.4688" x="2382.75" y="835.8883">-active: boolean</text><line style="stroke:#181818;stroke-width:0.5;" x1="2377.75" x2="2558.2432" y1="842.8414" y2="842.8414"/><text fill="#000000" font-family="sans-serif" font-size="14" lengthAdjust="spacing" textLength="135.7139" x="2382.75" y="860.3766">+isActive(): boolean</text></g><!--class Email--><g class="entity" data-qualified-name="domain.Email" data-source-line="84" id="ent0020"><rect fill="#F1F1F1" height="64.4883" rx="2.5" ry="2.5" style="stroke:#181818;stroke-width:0.5;" width="104.4424" x="2374.78" y="1111.0383"/><ellipse cx="2405.9615" cy="1127.0383" fill="#C2C2C2" rx="11" ry="11" style="stroke:#181818;stroke-width:1;"/><path d="M2408.9347,1132.6813 Q2408.3536,1132.9802 2407.7145,1133.1296 Q2407.0753,1133.279 2406.3697,1133.279 Q2403.8629,1133.279 2402.5431,1131.6271 Q2401.2233,1129.9753 2401.2233,1126.8542 Q2401.2233,1123.7248 2402.5431,1122.0729 Q2403.8629,1120.4211 2406.3697,1120.4211 Q2407.0753,1120.4211 2407.7228,1120.5705 Q2408.3702,1120.7199 2408.9347,1121.0188 L2408.9347,1123.7414 Q2408.3038,1123.1604 2407.7103,1122.8906 Q2407.1168,1122.6208 2406.486,1122.6208 Q2405.1412,1122.6208 2404.4564,1123.6875 Q2403.7716,1124.7541 2403.7716,1126.8542 Q2403.7716,1128.946 2404.4564,1130.0126 Q2405.1412,1131.0793 2406.486,1131.0793 Q2407.1168,1131.0793 2407.7103,1130.8095 Q2408.3038,1130.5397 2408.9347,1129.9587 Z " fill="#000000"/><text fill="#000000" font-family="sans-serif" font-size="14" lengthAdjust="spacing" textLength="36.4834" x="2423.5574" y="1132.3293">Email</text><line style="stroke:#181818;stroke-width:0.5;" x1="2375.78" x2="2478.2224" y1="1143.0383" y2="1143.0383"/><text fill="#000000" font-family="sans-serif" font-size="14" lengthAdjust="spacing" textLength="92.4424" x="2380.78" y="1160.5734">-value: String</text><line style="stroke:#181818;stroke-width:0.5;" x1="2375.78" x2="2478.2224" y1="1167.5266" y2="1167.5266"/></g><!--class AirlineIATACode--><g class="entity" data-qualified-name="domain.AirlineIATACode" data-source-line="88" id="ent0021"><rect fill="#F1F1F1" height="64.4883" rx="2.5" ry="2.5" style="stroke:#181818;stroke-width:0.5;" width="143.1182" x="2388.44" y="1244.7683"/><ellipse cx="2403.44" cy="1260.7683" fill="#C2C2C2" rx="11" ry="11" style="stroke:#181818;stroke-width:1;"/><path d="M2406.4131,1266.4113 Q2405.8321,1266.7102 2405.1929,1266.8596 Q2404.5538,1267.009 2403.8482,1267.009 Q2401.3414,1267.009 2400.0215,1265.3571 Q2398.7017,1263.7053 2398.7017,1260.5842 Q2398.7017,1257.4548 2400.0215,1255.8029 Q2401.3414,1254.1511 2403.8482,1254.1511 Q2404.5538,1254.1511 2405.2012,1254.3005 Q2405.8487,1254.4499 2406.4131,1254.7488 L2406.4131,1257.4714 Q2405.7823,1256.8904 2405.1888,1256.6206 Q2404.5953,1256.3508 2403.9644,1256.3508 Q2402.6197,1256.3508 2401.9349,1257.4175 Q2401.2501,1258.4841 2401.2501,1260.5842 Q2401.2501,1262.676 2401.9349,1263.7426 Q2402.6197,1264.8093 2403.9644,1264.8093 Q2404.5953,1264.8093 2405.1888,1264.5395 Q2405.7823,1264.2697 2406.4131,1263.6887 Z " fill="#000000"/><text fill="#000000" font-family="sans-serif" font-size="14" lengthAdjust="spacing" textLength="111.1182" x="2417.44" y="1266.0593">AirlineIATACode</text><line style="stroke:#181818;stroke-width:0.5;" x1="2389.44" x2="2530.5582" y1="1276.7683" y2="1276.7683"/><text fill="#000000" font-family="sans-serif" font-size="14" lengthAdjust="spacing" textLength="92.4424" x="2394.44" y="1294.3034">-value: String</text><line style="stroke:#181818;stroke-width:0.5;" x1="2389.44" x2="2530.5582" y1="1301.2566" y2="1301.2566"/></g><!--class AirlineICAOCode--><g class="entity" data-qualified-name="domain.AirlineICAOCode" data-source-line="92" id="ent0022"><rect fill="#F1F1F1" height="64.4883" rx="2.5" ry="2.5" style="stroke:#181818;stroke-width:0.5;" width="145.1689" x="2566.42" y="1244.7683"/><ellipse cx="2581.42" cy="1260.7683" fill="#C2C2C2" rx="11" ry="11" style="stroke:#181818;stroke-width:1;"/><path d="M2584.3931,1266.4113 Q2583.8121,1266.7102 2583.1729,1266.8596 Q2582.5338,1267.009 2581.8282,1267.009 Q2579.3214,1267.009 2578.0015,1265.3571 Q2576.6817,1263.7053 2576.6817,1260.5842 Q2576.6817,1257.4548 2578.0015,1255.8029 Q2579.3214,1254.1511 2581.8282,1254.1511 Q2582.5338,1254.1511 2583.1812,1254.3005 Q2583.8287,1254.4499 2584.3931,1254.7488 L2584.3931,1257.4714 Q2583.7623,1256.8904 2583.1688,1256.6206 Q2582.5753,1256.3508 2581.9444,1256.3508 Q2580.5997,1256.3508 2579.9149,1257.4175 Q2579.2301,1258.4841 2579.2301,1260.5842 Q2579.2301,1262.676 2579.9149,1263.7426 Q2580.5997,1264.8093 2581.9444,1264.8093 Q2582.5753,1264.8093 2583.1688,1264.5395 Q2583.7623,1264.2697 2584.3931,1263.6887 Z " fill="#000000"/><text fill="#000000" font-family="sans-serif" font-size="14" lengthAdjust="spacing" textLength="113.1689" x="2595.42" y="1266.0593">AirlineICAOCode</text><line style="stroke:#181818;stroke-width:0.5;" x1="2567.42" x2="2710.5889" y1="1276.7683" y2="1276.7683"/><text fill="#000000" font-family="sans-serif" font-size="14" lengthAdjust="spacing" textLength="92.4424" x="2572.42" y="1294.3034">-value: String</text><line style="stroke:#181818;stroke-width:0.5;" x1="2567.42" x2="2710.5889" y1="1301.2566" y2="1301.2566"/></g><!--class AreaCode--><g class="entity" data-qualified-name="domain.AreaCode" data-source-line="96" id="ent0023"><rect fill="#F1F1F1" height="64.4883" rx="2.5" ry="2.5" style="stroke:#181818;stroke-width:0.5;" width="104.4424" x="2768.78" y="1244.7683"/><ellipse cx="2786.7617" cy="1260.7683" fill="#C2C2C2" rx="11" ry="11" style="stroke:#181818;stroke-width:1;"/><path d="M2789.7348,1266.4113 Q2789.1538,1266.7102 2788.5146,1266.8596 Q2787.8755,1267.009 2787.1699,1267.009 Q2784.6631,1267.009 2783.3432,1265.3571 Q2782.0234,1263.7053 2782.0234,1260.5842 Q2782.0234,1257.4548 2783.3432,1255.8029 Q2784.6631,1254.1511 2787.1699,1254.1511 Q2787.8755,1254.1511 2788.5229,1254.3005 Q2789.1704,1254.4499 2789.7348,1254.7488 L2789.7348,1257.4714 Q2789.104,1256.8904 2788.5105,1256.6206 Q2787.917,1256.3508 2787.2861,1256.3508 Q2785.9414,1256.3508 2785.2566,1257.4175 Q2784.5717,1258.4841 2784.5717,1260.5842 Q2784.5717,1262.676 2785.2566,1263.7426 Q2785.9414,1264.8093 2787.2861,1264.8093 Q2787.917,1264.8093 2788.5105,1264.5395 Q2789.104,1264.2697 2789.7348,1263.6887 Z " fill="#000000"/><text fill="#000000" font-family="sans-serif" font-size="14" lengthAdjust="spacing" textLength="65.8164" x="2801.4243" y="1266.0593">AreaCode</text><line style="stroke:#181818;stroke-width:0.5;" x1="2769.78" x2="2872.2224" y1="1276.7683" y2="1276.7683"/><text fill="#000000" font-family="sans-serif" font-size="14" lengthAdjust="spacing" textLength="92.4424" x="2774.78" y="1294.3034">-value: String</text><line style="stroke:#181818;stroke-width:0.5;" x1="2769.78" x2="2872.2224" y1="1301.2566" y2="1301.2566"/></g><!--class CustomerRepository--><g class="entity" data-qualified-name="repository.CustomerRepository" data-source-line="102" id="ent0025"><rect fill="#F1F1F1" height="64.4883" rx="2.5" ry="2.5" style="stroke:#181818;stroke-width:0.5;" width="367.3457" x="1124.33" y="769.8683"/><ellipse cx="1234.7167" cy="785.8683" fill="#B1B1B1" rx="11" ry="11" style="stroke:#181818;stroke-width:1;"/><path d="M1230.6445,781.6334 L1230.6445,779.4752 L1238.0238,779.4752 L1238.0238,781.6334 L1235.5585,781.6334 L1235.5585,789.7101 L1238.0238,789.7101 L1238.0238,791.8683 L1230.6445,791.8683 L1230.6445,789.7101 L1233.1098,789.7101 L1233.1098,781.6334 Z " fill="#000000"/><text fill="#000000" font-family="sans-serif" font-size="14" font-style="italic" lengthAdjust="spacing" textLength="138.0723" x="1255.2167" y="791.1593">CustomerRepository</text><line style="stroke:#181818;stroke-width:0.5;" x1="1125.33" x2="1490.6757" y1="801.8683" y2="801.8683"/><line style="stroke:#181818;stroke-width:0.5;" x1="1125.33" x2="1490.6757" y1="809.8683" y2="809.8683"/><text fill="#000000" font-family="sans-serif" font-size="14" lengthAdjust="spacing" textLength="355.3457" x="1130.33" y="827.4034">+findById(customerId: String): Optional&lt;Customer&gt;</text></g><!--class CustomerCollaboratorRepository--><g class="entity" data-qualified-name="repository.CustomerCollaboratorRepository" data-source-line="106" id="ent0026"><rect fill="#F1F1F1" height="64.4883" rx="2.5" ry="2.5" style="stroke:#181818;stroke-width:0.5;" width="525.1328" x="1526.43" y="769.8683"/><ellipse cx="1673.4368" cy="785.8683" fill="#B1B1B1" rx="11" ry="11" style="stroke:#181818;stroke-width:1;"/><path d="M1669.3646,781.6334 L1669.3646,779.4752 L1676.744,779.4752 L1676.744,781.6334 L1674.2786,781.6334 L1674.2786,789.7101 L1676.744,789.7101 L1676.744,791.8683 L1669.3646,791.8683 L1669.3646,789.7101 L1671.8299,789.7101 L1671.8299,781.6334 Z " fill="#000000"/><text fill="#000000" font-family="sans-serif" font-size="14" font-style="italic" lengthAdjust="spacing" textLength="222.6191" x="1693.9368" y="791.1593">CustomerCollaboratorRepository</text><line style="stroke:#181818;stroke-width:0.5;" x1="1527.43" x2="2050.5628" y1="801.8683" y2="801.8683"/><line style="stroke:#181818;stroke-width:0.5;" x1="1527.43" x2="2050.5628" y1="809.8683" y2="809.8683"/><text fill="#000000" font-family="sans-serif" font-size="14" lengthAdjust="spacing" textLength="513.1328" x="1532.43" y="827.4034">+findActiveByCustomer(customer: Customer): List&lt;CustomerCollaborator&gt;</text></g><!--link ListCustomerCollaboratorsUI to ListCustomerCollaboratorsController--><g class="link" data-entity-1="ent0003" data-entity-2="ent0006" data-link-type="dependency" data-source-line="111" id="lnk27"><path codeLine="111" d="M394,269.6283 C394,311.2783 394,355.4283 394,387.1883" fill="none" id="ListCustomerCollaboratorsUI-to-ListCustomerCollaboratorsController" style="stroke:#181818;stroke-width:1;"/><polygon fill="#181818" points="394,393.1883,398,384.1883,394,388.1883,390,384.1883,394,393.1883" style="stroke:#181818;stroke-width:1;"/><polygon fill="#000000" points="399,339.0736,401.9389,330.0285,396.0611,330.0285,399,339.0736" style="stroke:#000000;stroke-width:1;"/><text fill="#000000" font-family="sans-serif" font-size="13" lengthAdjust="spacing" textLength="28.5645" x="408" y="338.9866">uses</text></g><!--link ListCustomerCollaboratorsController to ListCustomerCollaboratorsService--><g class="link" data-entity-1="ent0006" data-entity-2="ent0008" data-link-type="dependency" data-source-line="112" id="lnk28"><path codeLine="112" d="M394,458.3783 C394,489.0483 394,529.2483 394,559.8583" fill="none" id="ListCustomerCollaboratorsController-to-ListCustomerCollaboratorsService" style="stroke:#181818;stroke-width:1;"/><polygon fill="#181818" points="394,565.8583,398,556.8583,394,560.8583,390,556.8583,394,565.8583" style="stroke:#181818;stroke-width:1;"/><polygon fill="#000000" points="399,503.5636,401.9389,494.5185,396.0611,494.5185,399,503.5636" style="stroke:#000000;stroke-width:1;"/><text fill="#000000" font-family="sans-serif" font-size="13" lengthAdjust="spacing" textLength="28.5645" x="408" y="503.4766">uses</text></g><!--link ListCustomerCollaboratorsService to AuthorizationService--><g class="link" data-entity-1="ent0008" data-entity-2="ent0009" data-link-type="dependency" data-source-line="113" id="lnk29"><path codeLine="113" d="M394,630.9183 C394,668.6983 394,725.6483 394,763.4783" fill="none" id="ListCustomerCollaboratorsService-to-AuthorizationService" style="stroke:#181818;stroke-width:1;"/><polygon fill="#181818" points="394,769.4783,398,760.4783,394,764.4783,390,760.4783,394,769.4783" style="stroke:#181818;stroke-width:1;"/><polygon fill="#000000" points="399,682.5436,401.9389,673.4985,396.0611,673.4985,399,682.5436" style="stroke:#000000;stroke-width:1;"/><text fill="#000000" font-family="sans-serif" font-size="13" lengthAdjust="spacing" textLength="116.6699" x="408" y="682.4566">checks permission</text></g><!--link ListCustomerCollaboratorsService to CustomerRepository--><g class="link" data-entity-1="ent0008" data-entity-2="ent0025" data-link-type="dependency" data-source-line="114" id="lnk30"><path codeLine="114" d="M692.9,631.0983 C844.41,649.0083 1011.4,672.1183 1084,693.8883 C1144.92,712.1483 1204.7537,742.0468 1248.9737,766.5868" fill="none" id="ListCustomerCollaboratorsService-to-CustomerRepository" style="stroke:#181818;stroke-width:1;"/><polygon fill="#181818" points="1254.22,769.4983,1248.2915,761.6336,1249.8481,767.0721,1244.4096,768.6286,1254.22,769.4983" style="stroke:#181818;stroke-width:1;"/><polygon fill="#000000" points="1063.1279,678.7272,1055.0356,673.7306,1053.6442,679.4414,1063.1279,678.7272" style="stroke:#000000;stroke-width:1;"/><text fill="#000000" font-family="sans-serif" font-size="13" lengthAdjust="spacing" textLength="117.3555" x="1067.27" y="682.4566">retrieves customer</text></g><!--link ListCustomerCollaboratorsService to CustomerCollaboratorRepository--><g class="link" data-entity-1="ent0008" data-entity-2="ent0026" data-link-type="dependency" data-source-line="115" id="lnk31"><path codeLine="115" d="M698.39,631.1283 C726.98,633.8583 755.53,636.4883 783,638.8883 C1105.36,667.0383 1193.37,622.5383 1509,693.8883 C1584.52,710.9583 1661.347,741.9294 1717.037,766.9494" fill="none" id="ListCustomerCollaboratorsService-to-CustomerCollaboratorRepository" style="stroke:#181818;stroke-width:1;"/><polygon fill="#181818" points="1722.51,769.4083,1715.9397,762.0713,1717.9492,767.3592,1712.6612,769.3686,1722.51,769.4083" style="stroke:#181818;stroke-width:1;"/><polygon fill="#000000" points="1482.1461,678.2044,1473.5688,674.0958,1472.792,679.9221,1482.1461,678.2044" style="stroke:#000000;stroke-width:1;"/><text fill="#000000" font-family="sans-serif" font-size="13" lengthAdjust="spacing" textLength="181.7969" x="1486.19" y="682.4566">retrieves active collaborators</text></g><!--link ListCustomerCollaboratorsService to CustomerCollaboratorDTO--><g class="link" data-entity-1="ent0008" data-entity-2="ent0011" data-link-type="dependency" data-source-line="116" id="lnk32"><path codeLine="116" d="M488.25,631.1183 C530.11,647.1183 579.05,668.5283 620,693.8883 C646.86,710.5183 669.316,728.8351 691.146,748.8351" fill="none" id="ListCustomerCollaboratorsService-to-CustomerCollaboratorDTO" style="stroke:#181818;stroke-width:1;"/><polygon fill="#181818" points="695.57,752.8883,691.6361,743.8592,691.8833,749.5107,686.2319,749.7579,695.57,752.8883" style="stroke:#181818;stroke-width:1;"/><polygon fill="#000000" points="612.2648,680.0527,605.916,672.9715,602.9663,678.0556,612.2648,680.0527" style="stroke:#000000;stroke-width:1;"/><text fill="#000000" font-family="sans-serif" font-size="13" lengthAdjust="spacing" textLength="45.1318" x="616.94" y="682.4566">creates</text></g><!--link AuthorizationService to User--><g class="link" data-entity-1="ent0009" data-entity-2="ent0013" data-link-type="dependency" data-source-line="118" id="lnk33"><path codeLine="118" d="M477.29,834.7883 C519.44,849.4683 571.78,865.6583 620,874.8383 C907.92,929.6583 1763.2251,969.6618 2136.3951,985.0018" fill="none" id="AuthorizationService-to-User" style="stroke:#181818;stroke-width:1;"/><polygon fill="#181818" points="2142.39,985.2483,2133.5619,980.882,2137.3942,985.0429,2133.2333,988.8753,2142.39,985.2483" style="stroke:#181818;stroke-width:1;"/><polygon fill="#000000" points="949.2496,906.4344,940.5064,902.6919,939.9764,908.5458,949.2496,906.4344" style="stroke:#000000;stroke-width:1;"/><text fill="#000000" font-family="sans-serif" font-size="13" lengthAdjust="spacing" textLength="42.853" x="953.27" y="910.8966">checks</text></g><!--reverse link User to Role--><g class="link" data-entity-1="ent0013" data-entity-2="ent0014" data-link-type="aggregation" data-source-line="119" id="lnk34"><path codeLine="119" d="M2281.0527,1052.3219 C2268.7227,1071.7619 2261.09,1083.7983 2249.34,1102.3283" fill="none" id="User-backto-Role" style="stroke:#181818;stroke-width:1;"/><polygon fill="none" points="2287.48,1042.1883,2280.8885,1045.1126,2281.0527,1052.3219,2287.6442,1049.3975,2287.48,1042.1883" style="stroke:#181818;stroke-width:1;"/><text fill="#000000" font-family="sans-serif" font-size="13" lengthAdjust="spacing" textLength="8.2202" x="2274.8564" y="1062.3868">1</text><text fill="#000000" font-family="sans-serif" font-size="13" lengthAdjust="spacing" textLength="22.7119" x="2229.6824" y="1092.1983">1..*</text></g><!--reverse link Role to Permission--><g class="link" data-entity-1="ent0014" data-entity-2="ent0015" data-link-type="aggregation" data-source-line="120" id="lnk35"><path codeLine="120" d="M2224,1196.1583 C2224,1215.5483 2224,1226.5083 2224,1244.6283" fill="none" id="Role-backto-Permission" style="stroke:#181818;stroke-width:1;"/><polygon fill="none" points="2224,1184.1583,2220,1190.1583,2224,1196.1583,2228,1190.1583,2224,1184.1583" style="stroke:#181818;stroke-width:1;"/><text fill="#000000" font-family="sans-serif" font-size="13" lengthAdjust="spacing" textLength="8.2202" x="2215.3803" y="1204.4606">1</text><text fill="#000000" font-family="sans-serif" font-size="13" lengthAdjust="spacing" textLength="6.2651" x="2217.4086" y="1234.0026">*</text></g><!--reverse link User to Email--><g class="link" data-entity-1="ent0013" data-entity-2="ent0020" data-link-type="composition" data-source-line="121" id="lnk36"><path codeLine="121" d="M2360.4988,1051.856 C2377.0288,1074.336 2389.15,1090.8083 2403.8,1110.7383" fill="none" id="User-backto-Email" style="stroke:#181818;stroke-width:1;"/><polygon fill="#181818" points="2353.39,1042.1883,2353.7219,1049.3917,2360.4988,1051.856,2360.167,1044.6525,2353.39,1042.1883" style="stroke:#181818;stroke-width:1;"/></g><!--reverse link Customer to AirTransportCompany--><g class="link" data-entity-1="ent0016" data-entity-2="ent0017" data-link-type="extension" data-source-line="123" id="lnk37"><path codeLine="123" d="M2617,1051.7783 C2617,1073.0483 2617,1081.1683 2617,1102.4483" fill="none" id="Customer-backto-AirTransportCompany" style="stroke:#181818;stroke-width:1;"/><polygon fill="none" points="2617,1033.7783,2611,1051.7783,2623,1051.7783,2617,1033.7783" style="stroke:#181818;stroke-width:1;"/></g><!--reverse link Customer to AirControlArea--><g class="link" data-entity-1="ent0016" data-entity-2="ent0018" data-link-type="extension" data-source-line="124" id="lnk38"><path codeLine="124" d="M2685.1637,1043.5865 C2718.4537,1067.7665 2746.13,1087.8883 2777.37,1110.5783" fill="none" id="Customer-backto-AirControlArea" style="stroke:#181818;stroke-width:1;"/><polygon fill="none" points="2670.6,1033.0083,2681.6376,1048.4411,2688.6898,1038.732,2670.6,1033.0083" style="stroke:#181818;stroke-width:1;"/></g><!--link CustomerCollaborator to Customer--><g class="link" data-entity-1="ent0019" data-entity-2="ent0016" data-link-type="dependency" data-source-line="125" id="lnk39"><path codeLine="125" d="M2518.86,867.6083 C2541.03,895.7283 2562.6049,923.0868 2581.9549,947.6268" fill="none" id="CustomerCollaborator-to-Customer" style="stroke:#181818;stroke-width:1;"/><polygon fill="#181818" points="2585.67,952.3383,2583.2384,942.7943,2582.5741,948.412,2576.9564,947.7477,2585.67,952.3383" style="stroke:#181818;stroke-width:1;"/><text fill="#000000" font-family="sans-serif" font-size="13" lengthAdjust="spacing" textLength="6.2651" x="2517.8096" y="887.7207">*</text><text fill="#000000" font-family="sans-serif" font-size="13" lengthAdjust="spacing" textLength="8.2202" x="2571.8367" y="941.9462">1</text></g><!--link CustomerCollaborator to User--><g class="link" data-entity-1="ent0019" data-entity-2="ent0013" data-link-type="dependency" data-source-line="126" id="lnk40"><path codeLine="126" d="M2416.8,867.6083 C2396.94,892.6283 2378.3194,916.0681 2359.9194,939.2581" fill="none" id="CustomerCollaborator-to-User" style="stroke:#181818;stroke-width:1;"/><polygon fill="#181818" points="2356.19,943.9583,2364.9175,939.3942,2359.2978,940.0414,2358.6506,934.4217,2356.19,943.9583" style="stroke:#181818;stroke-width:1;"/><text fill="#000000" font-family="sans-serif" font-size="13" lengthAdjust="spacing" textLength="8.2202" x="2403.1192" y="887.7207">1</text><text fill="#000000" font-family="sans-serif" font-size="13" lengthAdjust="spacing" textLength="8.2202" x="2353.0137" y="933.5888">1</text></g><!--reverse link AirTransportCompany to AirlineIATACode--><g class="link" data-entity-1="ent0017" data-entity-2="ent0021" data-link-type="composition" data-source-line="128" id="lnk41"><path codeLine="128" d="M2560.2782,1191.8727 C2537.2582,1211.1927 2519.21,1226.3283 2497.66,1244.4183" fill="none" id="AirTransportCompany-backto-AirlineIATACode" style="stroke:#181818;stroke-width:1;"/><polygon fill="#181818" points="2569.47,1184.1583,2562.3027,1184.9515,2560.2782,1191.8727,2567.4456,1191.0794,2569.47,1184.1583" style="stroke:#181818;stroke-width:1;"/></g><!--reverse link AirTransportCompany to AirlineICAOCode--><g class="link" data-entity-1="ent0017" data-entity-2="ent0022" data-link-type="composition" data-source-line="129" id="lnk42"><path codeLine="129" d="M2625.6377,1195.9942 C2628.8777,1215.3842 2630.73,1226.5083 2633.76,1244.6283" fill="none" id="AirTransportCompany-backto-AirlineICAOCode" style="stroke:#181818;stroke-width:1;"/><polygon fill="#181818" points="2623.66,1184.1583,2620.7036,1190.7355,2625.6377,1195.9942,2628.5942,1189.417,2623.66,1184.1583" style="stroke:#181818;stroke-width:1;"/></g><!--reverse link AirControlArea to AreaCode--><g class="link" data-entity-1="ent0018" data-entity-2="ent0023" data-link-type="composition" data-source-line="130" id="lnk43"><path codeLine="130" d="M2821,1187.8383 C2821,1208.6883 2821,1223.9183 2821,1244.7183" fill="none" id="AirControlArea-backto-AreaCode" style="stroke:#181818;stroke-width:1;"/><polygon fill="#181818" points="2821,1175.8383,2817,1181.8383,2821,1187.8383,2825,1181.8383,2821,1175.8383" style="stroke:#181818;stroke-width:1;"/></g><?plantuml-src nLPRRzem57xFhx3OIzgEgjt37g8AYOO-86tgLEWFE2GkM4tip7QOwDR_lXFdWWqcm3PfUU3YyvsBltEBPZgZv7bsy_dJC9u4WNfbl009ESa55ybAYfmIBKjgIGf8Nc59Ptg3gf8c6lWoim5g1QdumVYIl42cR4cIWL9ZhILRb9fE4y5dx8sIco1eZ991oQxnM8cC3iY7YNd8pu3WOvJ95wPqN2gDWSbOP1aiX0Gjf7gUDhZg6PAamSmt1Ot835tofKSyJVU4LtYfxoLLUW8QmWlhF6Mgo63Zk0qJ-rzauhlp1JYPFuuynhvIfV3YOLv_jz5ua0zI2kd7lGVl5eN8dvRecSepAOmxHOlAAv8TmeSDKT5Xaqyruk88CPvRG55aB07D13_p6ZCgrooX_-aELeJZKg-4P6_c4hwec6eXD0rBHML4dl7p8ocep9bIg1QHRzrlZ60Xi3E0x_iw5lq_Q0x7tm4M73Sq1vPvx7F8VMuBePWsLtQSsaMH2ZHve1ugvdpk7welwnWhdBQD-eI_HrP2Lg2sT8VdPw6ovyHmwAgTjJQIhNrF8Ms5_SOR9LWeBI7HEwboT5bwIcBSScPoBe6hGaWTYxm0ld5DuhoCHOeM49anJgVZ-RWwi34921SJZnyxpAwxPY2D9GMtVciBUEnNzHMdjm6Y3ce9juruh3Xh4JBDrjIjYgw_ZIpignbJdqvqQyZA_ZpOxFw9QaFwMQeDsqTrx7wLrF0cv6QtPndNLBu03iGs0qyTrfcHBuodzvjf6kvF9MJriQYI0batbPtksNTYLqIFmpfjzvjMBTmlcBvrOEspllULuN1qqZAEgf9KP1IS0kursYwXunPRP6NEkySYagneyggiMNQgFK_68tpfmfpIDKRLSdskkGEvjKtNhKgSTxQ_SLDjF2G2MqCREWClLPMssKuTPwF0_1_S3eWO3l7x-lfoOBP7O5P89y3JxV2lbIxnlDvfGJVPxtxXeMS-xoEiaHfunsJbiWgu2g4RZdxaxHPffcNWsn2NjLzd7np3jJjXPmKOI3lqVmC0?></g></svg>