<?plantuml 1.2026.2?><svg xmlns="http://www.w3.org/2000/svg" xmlns:xlink="http://www.w3.org/1999/xlink" contentStyleType="text/css" data-diagram-type="CLASS" height="1297px" preserveAspectRatio="none" style="width:2209px;height:1297px;background:#FFFFFF;" version="1.1" viewBox="0 0 2209 1297" width="2209px" zoomAndPan="magnify"><title>US060-CD</title><defs/><g><g class="title" data-source-line="1"><text fill="#000000" font-family="sans-serif" font-size="14" font-weight="bold" lengthAdjust="spacing" textLength="76.0293" x="1059.4854" y="23.5352">US060-CD</text></g><!--cluster console--><g class="cluster" data-qualified-name="console" data-source-line="8" id="ent0002"><rect fill="#DDDDDD" height="197.93" rx="2.5" ry="2.5" style="stroke:#000000;stroke-width:1.5;" width="282" x="253" y="44.4883"/><text fill="#000000" font-family="sans-serif" font-size="14" font-weight="bold" lengthAdjust="spacing" textLength="55.2002" x="366.3999" y="60.0234">console</text></g><!--cluster controller--><g class="cluster" data-qualified-name="controller" data-source-line="19" id="ent0004"><rect fill="#DDDDDD" height="115.48" rx="2.5" ry="2.5" style="stroke:#000000;stroke-width:1.5;" width="774" x="7" y="307.9083"/><text fill="#000000" font-family="sans-serif" font-size="14" font-weight="bold" lengthAdjust="spacing" textLength="70.2393" x="358.8804" y="323.4434">controller</text></g><!--cluster application--><g class="cluster" data-qualified-name="application" data-source-line="25" id="ent0006"><rect fill="#DDDDDD" height="501.9" rx="2.5" ry="2.5" style="stroke:#000000;stroke-width:1.5;" width="774" x="805" y="291.4183"/><text fill="#000000" font-family="sans-serif" font-size="14" font-weight="bold" lengthAdjust="spacing" textLength="79.9326" x="1152.0337" y="306.9534">application</text></g><!--cluster domain--><g class="cluster" data-qualified-name="domain" data-source-line="51" id="ent0012"><rect fill="#DDDDDD" height="432.42" rx="2.5" ry="2.5" style="stroke:#000000;stroke-width:1.5;" width="1193" x="785" y="858.8083"/><text fill="#000000" font-family="sans-serif" font-size="14" font-weight="bold" lengthAdjust="spacing" textLength="53.7715" x="1354.6143" y="874.3434">domain</text></g><!--cluster repository--><g class="cluster" data-qualified-name="repository" data-source-line="94" id="ent0021"><rect fill="#DDDDDD" height="181.44" rx="2.5" ry="2.5" style="stroke:#000000;stroke-width:1.5;" width="568" x="1635" y="628.3683"/><text fill="#000000" font-family="sans-serif" font-size="14" font-weight="bold" lengthAdjust="spacing" textLength="74.3955" x="1881.8022" y="643.9034">repository</text></g><!--class RegisterAirTransportCompanyUI--><g class="entity" data-qualified-name="console.RegisterAirTransportCompanyUI" data-source-line="9" id="ent0003"><rect fill="#F1F1F1" height="146.9297" rx="2.5" ry="2.5" style="stroke:#181818;stroke-width:0.5;" width="250.9141" x="268.54" y="79.4883"/><ellipse cx="283.54" cy="95.4883" fill="#C2C2C2" rx="11" ry="11" style="stroke:#181818;stroke-width:1;"/><path d="M286.5131,101.1313 Q285.9321,101.4302 285.2929,101.5796 Q284.6538,101.729 283.9482,101.729 Q281.4414,101.729 280.1215,100.0771 Q278.8017,98.4253 278.8017,95.3042 Q278.8017,92.1748 280.1215,90.5229 Q281.4414,88.8711 283.9482,88.8711 Q284.6538,88.8711 285.3012,89.0205 Q285.9487,89.1699 286.5131,89.4688 L286.5131,92.1914 Q285.8823,91.6104 285.2888,91.3406 Q284.6953,91.0708 284.0644,91.0708 Q282.7197,91.0708 282.0349,92.1375 Q281.3501,93.2041 281.3501,95.3042 Q281.3501,97.396 282.0349,98.4626 Q282.7197,99.5293 284.0644,99.5293 Q284.6953,99.5293 285.2888,99.2595 Q285.8823,98.9897 286.5131,98.4087 Z " fill="#000000"/><text fill="#000000" font-family="sans-serif" font-size="14" lengthAdjust="spacing" textLength="218.9141" x="297.54" y="100.7793">RegisterAirTransportCompanyUI</text><line style="stroke:#181818;stroke-width:0.5;" x1="269.54" x2="518.4541" y1="111.4883" y2="111.4883"/><text fill="#000000" font-family="sans-serif" font-size="14" lengthAdjust="spacing" textLength="157.2607" x="274.54" y="129.0234">-companyName: String</text><text fill="#000000" font-family="sans-serif" font-size="14" lengthAdjust="spacing" textLength="116.5732" x="274.54" y="145.5117">-iataCode: String</text><text fill="#000000" font-family="sans-serif" font-size="14" lengthAdjust="spacing" textLength="119.376" x="274.54" y="162">-icaoCode: String</text><line style="stroke:#181818;stroke-width:0.5;" x1="269.54" x2="518.4541" y1="168.9531" y2="168.9531"/><text fill="#000000" font-family="sans-serif" font-size="14" lengthAdjust="spacing" textLength="102.6211" x="274.54" y="186.4883">+requestData()</text><text fill="#000000" font-family="sans-serif" font-size="14" lengthAdjust="spacing" textLength="234.7598" x="274.54" y="202.9766">+displayMessage(message: String)</text><text fill="#000000" font-family="sans-serif" font-size="14" lengthAdjust="spacing" textLength="209.7402" x="274.54" y="219.4648">+displayError(message: String)</text></g><!--class RegisterAirTransportCompanyController--><g class="entity" data-qualified-name="controller.RegisterAirTransportCompanyController" data-source-line="20" id="ent0005"><rect fill="#F1F1F1" height="64.4883" rx="2.5" ry="2.5" style="stroke:#181818;stroke-width:0.5;" width="742.7822" x="22.61" y="342.9083"/><ellipse cx="253.0802" cy="358.9083" fill="#C2C2C2" rx="11" ry="11" style="stroke:#181818;stroke-width:1;"/><path d="M256.0534,364.5513 Q255.4723,364.8502 254.8331,364.9996 Q254.194,365.149 253.4884,365.149 Q250.9816,365.149 249.6618,363.4971 Q248.3419,361.8453 248.3419,358.7242 Q248.3419,355.5948 249.6618,353.9429 Q250.9816,352.2911 253.4884,352.2911 Q254.194,352.2911 254.8414,352.4405 Q255.4889,352.5899 256.0534,352.8887 L256.0534,355.6114 Q255.4225,355.0304 254.829,354.7606 Q254.2355,354.4908 253.6046,354.4908 Q252.2599,354.4908 251.5751,355.5575 Q250.8903,356.6241 250.8903,358.7242 Q250.8903,360.816 251.5751,361.8826 Q252.2599,362.9493 253.6046,362.9493 Q254.2355,362.9493 254.829,362.6795 Q255.4225,362.4097 256.0534,361.8287 Z " fill="#000000"/><text fill="#000000" font-family="sans-serif" font-size="14" lengthAdjust="spacing" textLength="273.3418" x="273.5802" y="364.1993">RegisterAirTransportCompanyController</text><line style="stroke:#181818;stroke-width:0.5;" x1="23.61" x2="764.3922" y1="374.9083" y2="374.9083"/><line style="stroke:#181818;stroke-width:0.5;" x1="23.61" x2="764.3922" y1="382.9083" y2="382.9083"/><text fill="#000000" font-family="sans-serif" font-size="14" lengthAdjust="spacing" textLength="730.7822" x="28.61" y="400.4434">+registerAirTransportCompany(request: RegisterAirTransportCompanyRequest): AirTransportCompanyDTO</text></g><!--class RegisterAirTransportCompanyService--><g class="entity" data-qualified-name="application.RegisterAirTransportCompanyService" data-source-line="26" id="ent0007"><rect fill="#F1F1F1" height="64.4883" rx="2.5" ry="2.5" style="stroke:#181818;stroke-width:0.5;" width="742.7822" x="820.61" y="500.8783"/><ellipse cx="1061.4948" cy="516.8783" fill="#C2C2C2" rx="11" ry="11" style="stroke:#181818;stroke-width:1;"/><path d="M1064.4679,522.5213 Q1063.8869,522.8202 1063.2477,522.9696 Q1062.6085,523.119 1061.903,523.119 Q1059.3961,523.119 1058.0763,521.4671 Q1056.7565,519.8153 1056.7565,516.6942 Q1056.7565,513.5648 1058.0763,511.9129 Q1059.3961,510.2611 1061.903,510.2611 Q1062.6085,510.2611 1063.256,510.4105 Q1063.9035,510.5599 1064.4679,510.8588 L1064.4679,513.5814 Q1063.8371,513.0004 1063.2435,512.7306 Q1062.65,512.4608 1062.0192,512.4608 Q1060.6745,512.4608 1059.9896,513.5275 Q1059.3048,514.5941 1059.3048,516.6942 Q1059.3048,518.786 1059.9896,519.8526 Q1060.6745,520.9193 1062.0192,520.9193 Q1062.65,520.9193 1063.2435,520.6495 Q1063.8371,520.3797 1064.4679,519.7987 Z " fill="#000000"/><text fill="#000000" font-family="sans-serif" font-size="14" lengthAdjust="spacing" textLength="252.5127" x="1081.9948" y="522.1693">RegisterAirTransportCompanyService</text><line style="stroke:#181818;stroke-width:0.5;" x1="821.61" x2="1562.3922" y1="532.8783" y2="532.8783"/><line style="stroke:#181818;stroke-width:0.5;" x1="821.61" x2="1562.3922" y1="540.8783" y2="540.8783"/><text fill="#000000" font-family="sans-serif" font-size="14" lengthAdjust="spacing" textLength="730.7822" x="826.61" y="558.4134">+registerAirTransportCompany(request: RegisterAirTransportCompanyRequest): AirTransportCompanyDTO</text></g><!--class AuthorizationService--><g class="entity" data-qualified-name="application.AuthorizationService" data-source-line="30" id="ent0008"><rect fill="#F1F1F1" height="64.4883" rx="2.5" ry="2.5" style="stroke:#181818;stroke-width:0.5;" width="417.1934" x="821.4" y="696.3483"/><ellipse cx="955.5929" cy="712.3483" fill="#C2C2C2" rx="11" ry="11" style="stroke:#181818;stroke-width:1;"/><path d="M958.566,717.9913 Q957.985,718.2902 957.3458,718.4396 Q956.7066,718.589 956.0011,718.589 Q953.4942,718.589 952.1744,716.9371 Q950.8546,715.2853 950.8546,712.1642 Q950.8546,709.0348 952.1744,707.3829 Q953.4942,705.7311 956.0011,705.7311 Q956.7066,705.7311 957.3541,705.8805 Q958.0016,706.0299 958.566,706.3288 L958.566,709.0514 Q957.9352,708.4704 957.3417,708.2006 Q956.7481,707.9308 956.1173,707.9308 Q954.7726,707.9308 954.0877,708.9975 Q953.4029,710.0641 953.4029,712.1642 Q953.4029,714.256 954.0877,715.3226 Q954.7726,716.3893 956.1173,716.3893 Q956.7481,716.3893 957.3417,716.1195 Q957.9352,715.8497 958.566,715.2687 Z " fill="#000000"/><text fill="#000000" font-family="sans-serif" font-size="14" lengthAdjust="spacing" textLength="140.3076" x="976.0929" y="717.6393">AuthorizationService</text><line style="stroke:#181818;stroke-width:0.5;" x1="822.4" x2="1237.5934" y1="728.3483" y2="728.3483"/><line style="stroke:#181818;stroke-width:0.5;" x1="822.4" x2="1237.5934" y1="736.3483" y2="736.3483"/><text fill="#000000" font-family="sans-serif" font-size="14" lengthAdjust="spacing" textLength="405.1934" x="827.4" y="753.8834">+isAuthorized(user: User, permission: Permission): boolean</text></g><!--class RegisterAirTransportCompanyRequest--><g class="entity" data-qualified-name="application.RegisterAirTransportCompanyRequest" data-source-line="34" id="ent0009"><rect fill="#F1F1F1" height="97.4648" rx="2.5" ry="2.5" style="stroke:#181818;stroke-width:0.5;" width="291.5059" x="821.25" y="326.4183"/><ellipse cx="836.25" cy="342.4183" fill="#C2C2C2" rx="11" ry="11" style="stroke:#181818;stroke-width:1;"/><path d="M839.2231,348.0613 Q838.6421,348.3602 838.0029,348.5096 Q837.3638,348.659 836.6582,348.659 Q834.1514,348.659 832.8315,347.0071 Q831.5117,345.3553 831.5117,342.2342 Q831.5117,339.1048 832.8315,337.4529 Q834.1514,335.8011 836.6582,335.8011 Q837.3638,335.8011 838.0112,335.9505 Q838.6587,336.0999 839.2231,336.3988 L839.2231,339.1214 Q838.5923,338.5404 837.9988,338.2706 Q837.4053,338.0008 836.7744,338.0008 Q835.4297,338.0008 834.7449,339.0675 Q834.0601,340.1341 834.0601,342.2342 Q834.0601,344.326 834.7449,345.3926 Q835.4297,346.4593 836.7744,346.4593 Q837.4053,346.4593 837.9988,346.1895 Q838.5923,345.9197 839.2231,345.3387 Z " fill="#000000"/><text fill="#000000" font-family="sans-serif" font-size="14" lengthAdjust="spacing" textLength="259.5059" x="850.25" y="347.7093">RegisterAirTransportCompanyRequest</text><line style="stroke:#181818;stroke-width:0.5;" x1="822.25" x2="1111.7559" y1="358.4183" y2="358.4183"/><text fill="#000000" font-family="sans-serif" font-size="14" lengthAdjust="spacing" textLength="157.2607" x="827.25" y="375.9534">-companyName: String</text><text fill="#000000" font-family="sans-serif" font-size="14" lengthAdjust="spacing" textLength="116.5732" x="827.25" y="392.4417">-iataCode: String</text><text fill="#000000" font-family="sans-serif" font-size="14" lengthAdjust="spacing" textLength="119.376" x="827.25" y="408.93">-icaoCode: String</text><line style="stroke:#181818;stroke-width:0.5;" x1="822.25" x2="1111.7559" y1="415.8831" y2="415.8831"/></g><!--class AirTransportCompanyDTO--><g class="entity" data-qualified-name="application.AirTransportCompanyDTO" data-source-line="40" id="ent0010"><rect fill="#F1F1F1" height="97.4648" rx="2.5" ry="2.5" style="stroke:#181818;stroke-width:0.5;" width="212.0654" x="1273.97" y="679.8583"/><ellipse cx="1288.97" cy="695.8583" fill="#C2C2C2" rx="11" ry="11" style="stroke:#181818;stroke-width:1;"/><path d="M1291.9431,701.5013 Q1291.3621,701.8002 1290.7229,701.9496 Q1290.0838,702.099 1289.3782,702.099 Q1286.8714,702.099 1285.5515,700.4471 Q1284.2317,698.7953 1284.2317,695.6742 Q1284.2317,692.5448 1285.5515,690.8929 Q1286.8714,689.2411 1289.3782,689.2411 Q1290.0838,689.2411 1290.7312,689.3905 Q1291.3787,689.5399 1291.9431,689.8388 L1291.9431,692.5614 Q1291.3123,691.9804 1290.7188,691.7106 Q1290.1253,691.4408 1289.4944,691.4408 Q1288.1497,691.4408 1287.4649,692.5075 Q1286.7801,693.5741 1286.7801,695.6742 Q1286.7801,697.766 1287.4649,698.8326 Q1288.1497,699.8993 1289.4944,699.8993 Q1290.1253,699.8993 1290.7188,699.6295 Q1291.3123,699.3597 1291.9431,698.7787 Z " fill="#000000"/><text fill="#000000" font-family="sans-serif" font-size="14" lengthAdjust="spacing" textLength="180.0654" x="1302.97" y="701.1493">AirTransportCompanyDTO</text><line style="stroke:#181818;stroke-width:0.5;" x1="1274.97" x2="1485.0354" y1="711.8583" y2="711.8583"/><text fill="#000000" font-family="sans-serif" font-size="14" lengthAdjust="spacing" textLength="157.2607" x="1279.97" y="729.3934">-companyName: String</text><text fill="#000000" font-family="sans-serif" font-size="14" lengthAdjust="spacing" textLength="116.5732" x="1279.97" y="745.8817">-iataCode: String</text><text fill="#000000" font-family="sans-serif" font-size="14" lengthAdjust="spacing" textLength="119.376" x="1279.97" y="762.37">-icaoCode: String</text><line style="stroke:#181818;stroke-width:0.5;" x1="1274.97" x2="1485.0354" y1="769.3231" y2="769.3231"/></g><!--class BootstrapAirTransportCompanyLoader--><g class="entity" data-qualified-name="application.BootstrapAirTransportCompanyLoader" data-source-line="46" id="ent0011"><rect fill="#F1F1F1" height="64.4883" rx="2.5" ry="2.5" style="stroke:#181818;stroke-width:0.5;" width="309.6436" x="1148.18" y="342.9083"/><ellipse cx="1170.616" cy="358.9083" fill="#C2C2C2" rx="11" ry="11" style="stroke:#181818;stroke-width:1;"/><path d="M1173.5891,364.5513 Q1173.0081,364.8502 1172.3689,364.9996 Q1171.7298,365.149 1171.0242,365.149 Q1168.5174,365.149 1167.1975,363.4971 Q1165.8777,361.8453 1165.8777,358.7242 Q1165.8777,355.5948 1167.1975,353.9429 Q1168.5174,352.2911 1171.0242,352.2911 Q1171.7298,352.2911 1172.3772,352.4405 Q1173.0247,352.5899 1173.5891,352.8887 L1173.5891,355.6114 Q1172.9583,355.0304 1172.3648,354.7606 Q1171.7713,354.4908 1171.1404,354.4908 Q1169.7957,354.4908 1169.1109,355.5575 Q1168.426,356.6241 1168.426,358.7242 Q1168.426,360.816 1169.1109,361.8826 Q1169.7957,362.9493 1171.1404,362.9493 Q1171.7713,362.9493 1172.3648,362.6795 Q1172.9583,362.4097 1173.5891,361.8287 Z " fill="#000000"/><text fill="#000000" font-family="sans-serif" font-size="14" lengthAdjust="spacing" textLength="261.1191" x="1186.2684" y="364.1993">BootstrapAirTransportCompanyLoader</text><line style="stroke:#181818;stroke-width:0.5;" x1="1149.18" x2="1456.8236" y1="374.9083" y2="374.9083"/><line style="stroke:#181818;stroke-width:0.5;" x1="1149.18" x2="1456.8236" y1="382.9083" y2="382.9083"/><text fill="#000000" font-family="sans-serif" font-size="14" lengthAdjust="spacing" textLength="297.6436" x="1154.18" y="400.4434">+loadDefaultAirTransportCompanies(): void</text></g><!--class User--><g class="entity" data-qualified-name="domain.User" data-source-line="52" id="ent0013"><rect fill="#F1F1F1" height="97.4648" rx="2.5" ry="2.5" style="stroke:#181818;stroke-width:0.5;" width="350.8369" x="800.58" y="902.0583"/><ellipse cx="956.5658" cy="918.0583" fill="#C2C2C2" rx="11" ry="11" style="stroke:#181818;stroke-width:1;"/><path d="M959.539,923.7013 Q958.9579,924.0002 958.3188,924.1496 Q957.6796,924.299 956.974,924.299 Q954.4672,924.299 953.1474,922.6471 Q951.8276,920.9953 951.8276,917.8742 Q951.8276,914.7448 953.1474,913.0929 Q954.4672,911.4411 956.974,911.4411 Q957.6796,911.4411 958.3271,911.5905 Q958.9745,911.7399 959.539,912.0387 L959.539,914.7614 Q958.9081,914.1804 958.3146,913.9106 Q957.7211,913.6408 957.0903,913.6408 Q955.7455,913.6408 955.0607,914.7075 Q954.3759,915.7741 954.3759,917.8742 Q954.3759,919.966 955.0607,921.0326 Q955.7455,922.0993 957.0903,922.0993 Q957.7211,922.0993 958.3146,921.8295 Q958.9081,921.5597 959.539,920.9787 Z " fill="#000000"/><text fill="#000000" font-family="sans-serif" font-size="14" lengthAdjust="spacing" textLength="30.3652" x="977.0658" y="923.3493">User</text><line style="stroke:#181818;stroke-width:0.5;" x1="801.58" x2="1150.4169" y1="934.0583" y2="934.0583"/><text fill="#000000" font-family="sans-serif" font-size="14" lengthAdjust="spacing" textLength="90.1387" x="806.58" y="951.5934">-email: Email</text><text fill="#000000" font-family="sans-serif" font-size="14" lengthAdjust="spacing" textLength="125.7129" x="806.58" y="968.0817">-roles: List&lt;Role&gt;</text><line style="stroke:#181818;stroke-width:0.5;" x1="801.58" x2="1150.4169" y1="975.0348" y2="975.0348"/><text fill="#000000" font-family="sans-serif" font-size="14" lengthAdjust="spacing" textLength="338.8369" x="806.58" y="992.57">+hasPermission(permission: Permission): boolean</text></g><!--class Role--><g class="entity" data-qualified-name="domain.Role" data-source-line="58" id="ent0014"><rect fill="#F1F1F1" height="80.9766" rx="2.5" ry="2.5" style="stroke:#181818;stroke-width:0.5;" width="231.2969" x="801.35" y="1068.7683"/><ellipse cx="898.099" cy="1084.7683" fill="#C2C2C2" rx="11" ry="11" style="stroke:#181818;stroke-width:1;"/><path d="M901.0722,1090.4113 Q900.4911,1090.7102 899.852,1090.8596 Q899.2128,1091.009 898.5072,1091.009 Q896.0004,1091.009 894.6806,1089.3571 Q893.3607,1087.7053 893.3607,1084.5842 Q893.3607,1081.4548 894.6806,1079.8029 Q896.0004,1078.1511 898.5072,1078.1511 Q899.2128,1078.1511 899.8603,1078.3005 Q900.5077,1078.4499 901.0722,1078.7488 L901.0722,1081.4714 Q900.4413,1080.8904 899.8478,1080.6206 Q899.2543,1080.3508 898.6234,1080.3508 Q897.2787,1080.3508 896.5939,1081.4175 Q895.9091,1082.4841 895.9091,1084.5842 Q895.9091,1086.676 896.5939,1087.7426 Q897.2787,1088.8093 898.6234,1088.8093 Q899.2543,1088.8093 899.8478,1088.5395 Q900.4413,1088.2697 901.0722,1087.6887 Z " fill="#000000"/><text fill="#000000" font-family="sans-serif" font-size="14" lengthAdjust="spacing" textLength="29.2988" x="918.599" y="1090.0593">Role</text><line style="stroke:#181818;stroke-width:0.5;" x1="802.35" x2="1031.6469" y1="1100.7683" y2="1100.7683"/><text fill="#000000" font-family="sans-serif" font-size="14" lengthAdjust="spacing" textLength="94.2197" x="807.35" y="1118.3034">-name: String</text><text fill="#000000" font-family="sans-serif" font-size="14" lengthAdjust="spacing" textLength="219.2969" x="807.35" y="1134.7917">-permissions: List&lt;Permission&gt;</text><line style="stroke:#181818;stroke-width:0.5;" x1="802.35" x2="1031.6469" y1="1141.7448" y2="1141.7448"/></g><!--class Permission--><g class="entity" data-qualified-name="domain.Permission" data-source-line="63" id="ent0015"><rect fill="#F1F1F1" height="64.4883" rx="2.5" ry="2.5" style="stroke:#181818;stroke-width:0.5;" width="106.2197" x="863.89" y="1210.7383"/><ellipse cx="878.9924" cy="1226.7383" fill="#C2C2C2" rx="11" ry="11" style="stroke:#181818;stroke-width:1;"/><path d="M881.9655,1232.3813 Q881.3845,1232.6802 880.7453,1232.8296 Q880.1062,1232.979 879.4006,1232.979 Q876.8938,1232.979 875.5739,1231.3271 Q874.2541,1229.6753 874.2541,1226.5542 Q874.2541,1223.4248 875.5739,1221.7729 Q876.8938,1220.1211 879.4006,1220.1211 Q880.1062,1220.1211 880.7536,1220.2705 Q881.4011,1220.4199 881.9655,1220.7188 L881.9655,1223.4414 Q881.3347,1222.8604 880.7412,1222.5906 Q880.1477,1222.3208 879.5168,1222.3208 Q878.1721,1222.3208 877.4873,1223.3875 Q876.8025,1224.4541 876.8025,1226.5542 Q876.8025,1228.646 877.4873,1229.7126 Q878.1721,1230.7793 879.5168,1230.7793 Q880.1477,1230.7793 880.7412,1230.5095 Q881.3347,1230.2397 881.9655,1229.6587 Z " fill="#000000"/><text fill="#000000" font-family="sans-serif" font-size="14" lengthAdjust="spacing" textLength="73.9922" x="893.0151" y="1232.0293">Permission</text><line style="stroke:#181818;stroke-width:0.5;" x1="864.89" x2="969.1097" y1="1242.7383" y2="1242.7383"/><text fill="#000000" font-family="sans-serif" font-size="14" lengthAdjust="spacing" textLength="94.2197" x="869.89" y="1260.2734">-name: String</text><line style="stroke:#181818;stroke-width:0.5;" x1="864.89" x2="969.1097" y1="1267.2266" y2="1267.2266"/></g><!--class AirTransportCompany--><g class="entity" data-qualified-name="domain.AirTransportCompany" data-source-line="67" id="ent0016"><rect fill="#F1F1F1" height="113.9531" rx="2.5" ry="2.5" style="stroke:#181818;stroke-width:0.5;" width="775.9365" x="1186.03" y="893.8083"/><ellipse cx="1494.823" cy="909.8083" fill="#C2C2C2" rx="11" ry="11" style="stroke:#181818;stroke-width:1;"/><path d="M1497.7961,915.4513 Q1497.2151,915.7502 1496.5759,915.8996 Q1495.9367,916.049 1495.2312,916.049 Q1492.7243,916.049 1491.4045,914.3971 Q1490.0847,912.7453 1490.0847,909.6242 Q1490.0847,906.4948 1491.4045,904.8429 Q1492.7243,903.1911 1495.2312,903.1911 Q1495.9367,903.1911 1496.5842,903.3405 Q1497.2317,903.4899 1497.7961,903.7887 L1497.7961,906.5114 Q1497.1653,905.9304 1496.5717,905.6606 Q1495.9782,905.3908 1495.3474,905.3908 Q1494.0027,905.3908 1493.3178,906.4575 Q1492.633,907.5241 1492.633,909.6242 Q1492.633,911.716 1493.3178,912.7826 Q1494.0027,913.8493 1495.3474,913.8493 Q1495.9782,913.8493 1496.5717,913.5795 Q1497.1653,913.3097 1497.7961,912.7287 Z " fill="#000000"/><text fill="#000000" font-family="sans-serif" font-size="14" lengthAdjust="spacing" textLength="149.8506" x="1515.323" y="915.0993">AirTransportCompany</text><line style="stroke:#181818;stroke-width:0.5;" x1="1187.03" x2="1960.9665" y1="925.8083" y2="925.8083"/><text fill="#000000" font-family="sans-serif" font-size="14" lengthAdjust="spacing" textLength="220.1377" x="1192.03" y="943.3434">-companyName: CompanyName</text><text fill="#000000" font-family="sans-serif" font-size="14" lengthAdjust="spacing" textLength="187.7217" x="1192.03" y="959.8317">-iataCode: AirlineIATACode</text><text fill="#000000" font-family="sans-serif" font-size="14" lengthAdjust="spacing" textLength="192.5752" x="1192.03" y="976.32">-icaoCode: AirlineICAOCode</text><line style="stroke:#181818;stroke-width:0.5;" x1="1187.03" x2="1960.9665" y1="983.2731" y2="983.2731"/><text fill="#000000" font-family="sans-serif" font-size="14" lengthAdjust="spacing" textLength="763.9365" x="1192.03" y="1000.8083">+AirTransportCompany(companyName: CompanyName, iataCode: AirlineIATACode, icaoCode: AirlineICAOCode)</text></g><!--class CompanyName--><g class="entity" data-qualified-name="domain.CompanyName" data-source-line="74" id="ent0017"><rect fill="#F1F1F1" height="80.9766" rx="2.5" ry="2.5" style="stroke:#181818;stroke-width:0.5;" width="219.4229" x="1207.29" y="1068.7683"/><ellipse cx="1261.3281" cy="1084.7683" fill="#C2C2C2" rx="11" ry="11" style="stroke:#181818;stroke-width:1;"/><path d="M1264.3012,1090.4113 Q1263.7202,1090.7102 1263.081,1090.8596 Q1262.4419,1091.009 1261.7363,1091.009 Q1259.2295,1091.009 1257.9096,1089.3571 Q1256.5898,1087.7053 1256.5898,1084.5842 Q1256.5898,1081.4548 1257.9096,1079.8029 Q1259.2295,1078.1511 1261.7363,1078.1511 Q1262.4419,1078.1511 1263.0893,1078.3005 Q1263.7368,1078.4499 1264.3012,1078.7488 L1264.3012,1081.4714 Q1263.6704,1080.8904 1263.0769,1080.6206 Q1262.4834,1080.3508 1261.8525,1080.3508 Q1260.5078,1080.3508 1259.823,1081.4175 Q1259.1381,1082.4841 1259.1381,1084.5842 Q1259.1381,1086.676 1259.823,1087.7426 Q1260.5078,1088.8093 1261.8525,1088.8093 Q1262.4834,1088.8093 1263.0769,1088.5395 Q1263.6704,1088.2697 1264.3012,1087.6887 Z " fill="#000000"/><text fill="#000000" font-family="sans-serif" font-size="14" lengthAdjust="spacing" textLength="102.8467" x="1281.8281" y="1090.0593">CompanyName</text><line style="stroke:#181818;stroke-width:0.5;" x1="1208.29" x2="1425.7129" y1="1100.7683" y2="1100.7683"/><text fill="#000000" font-family="sans-serif" font-size="14" lengthAdjust="spacing" textLength="92.4424" x="1213.29" y="1118.3034">-value: String</text><line style="stroke:#181818;stroke-width:0.5;" x1="1208.29" x2="1425.7129" y1="1125.2566" y2="1125.2566"/><text fill="#000000" font-family="sans-serif" font-size="14" lengthAdjust="spacing" textLength="207.4229" x="1213.29" y="1142.7917">+CompanyName(value: String)</text></g><!--class AirlineIATACode--><g class="entity" data-qualified-name="domain.AirlineIATACode" data-source-line="79" id="ent0018"><rect fill="#F1F1F1" height="80.9766" rx="2.5" ry="2.5" style="stroke:#181818;stroke-width:0.5;" width="227.6943" x="1462.15" y="1068.7683"/><ellipse cx="1516.1881" cy="1084.7683" fill="#C2C2C2" rx="11" ry="11" style="stroke:#181818;stroke-width:1;"/><path d="M1519.1612,1090.4113 Q1518.5802,1090.7102 1517.941,1090.8596 Q1517.3019,1091.009 1516.5963,1091.009 Q1514.0895,1091.009 1512.7696,1089.3571 Q1511.4498,1087.7053 1511.4498,1084.5842 Q1511.4498,1081.4548 1512.7696,1079.8029 Q1514.0895,1078.1511 1516.5963,1078.1511 Q1517.3019,1078.1511 1517.9493,1078.3005 Q1518.5968,1078.4499 1519.1612,1078.7488 L1519.1612,1081.4714 Q1518.5304,1080.8904 1517.9369,1080.6206 Q1517.3434,1080.3508 1516.7125,1080.3508 Q1515.3678,1080.3508 1514.683,1081.4175 Q1513.9981,1082.4841 1513.9981,1084.5842 Q1513.9981,1086.676 1514.683,1087.7426 Q1515.3678,1088.8093 1516.7125,1088.8093 Q1517.3434,1088.8093 1517.9369,1088.5395 Q1518.5304,1088.2697 1519.1612,1087.6887 Z " fill="#000000"/><text fill="#000000" font-family="sans-serif" font-size="14" lengthAdjust="spacing" textLength="111.1182" x="1536.6881" y="1090.0593">AirlineIATACode</text><line style="stroke:#181818;stroke-width:0.5;" x1="1463.15" x2="1688.8443" y1="1100.7683" y2="1100.7683"/><text fill="#000000" font-family="sans-serif" font-size="14" lengthAdjust="spacing" textLength="92.4424" x="1468.15" y="1118.3034">-value: String</text><line style="stroke:#181818;stroke-width:0.5;" x1="1463.15" x2="1688.8443" y1="1125.2566" y2="1125.2566"/><text fill="#000000" font-family="sans-serif" font-size="14" lengthAdjust="spacing" textLength="215.6943" x="1468.15" y="1142.7917">+AirlineIATACode(value: String)</text></g><!--class AirlineICAOCode--><g class="entity" data-qualified-name="domain.AirlineICAOCode" data-source-line="84" id="ent0019"><rect fill="#F1F1F1" height="80.9766" rx="2.5" ry="2.5" style="stroke:#181818;stroke-width:0.5;" width="229.7451" x="1725.13" y="1068.7683"/><ellipse cx="1779.1681" cy="1084.7683" fill="#C2C2C2" rx="11" ry="11" style="stroke:#181818;stroke-width:1;"/><path d="M1782.1412,1090.4113 Q1781.5602,1090.7102 1780.921,1090.8596 Q1780.2819,1091.009 1779.5763,1091.009 Q1777.0695,1091.009 1775.7496,1089.3571 Q1774.4298,1087.7053 1774.4298,1084.5842 Q1774.4298,1081.4548 1775.7496,1079.8029 Q1777.0695,1078.1511 1779.5763,1078.1511 Q1780.2819,1078.1511 1780.9293,1078.3005 Q1781.5768,1078.4499 1782.1412,1078.7488 L1782.1412,1081.4714 Q1781.5104,1080.8904 1780.9169,1080.6206 Q1780.3234,1080.3508 1779.6925,1080.3508 Q1778.3478,1080.3508 1777.663,1081.4175 Q1776.9781,1082.4841 1776.9781,1084.5842 Q1776.9781,1086.676 1777.663,1087.7426 Q1778.3478,1088.8093 1779.6925,1088.8093 Q1780.3234,1088.8093 1780.9169,1088.5395 Q1781.5104,1088.2697 1782.1412,1087.6887 Z " fill="#000000"/><text fill="#000000" font-family="sans-serif" font-size="14" lengthAdjust="spacing" textLength="113.1689" x="1799.6681" y="1090.0593">AirlineICAOCode</text><line style="stroke:#181818;stroke-width:0.5;" x1="1726.13" x2="1953.8751" y1="1100.7683" y2="1100.7683"/><text fill="#000000" font-family="sans-serif" font-size="14" lengthAdjust="spacing" textLength="92.4424" x="1731.13" y="1118.3034">-value: String</text><line style="stroke:#181818;stroke-width:0.5;" x1="1726.13" x2="1953.8751" y1="1125.2566" y2="1125.2566"/><text fill="#000000" font-family="sans-serif" font-size="14" lengthAdjust="spacing" textLength="217.7451" x="1731.13" y="1142.7917">+AirlineICAOCode(value: String)</text></g><!--class Email--><g class="entity" data-qualified-name="domain.Email" data-source-line="89" id="ent0020"><rect fill="#F1F1F1" height="64.4883" rx="2.5" ry="2.5" style="stroke:#181818;stroke-width:0.5;" width="104.4424" x="1067.78" y="1077.0083"/><ellipse cx="1098.9615" cy="1093.0083" fill="#C2C2C2" rx="11" ry="11" style="stroke:#181818;stroke-width:1;"/><path d="M1101.9347,1098.6513 Q1101.3536,1098.9502 1100.7145,1099.0996 Q1100.0753,1099.249 1099.3697,1099.249 Q1096.8629,1099.249 1095.5431,1097.5971 Q1094.2233,1095.9453 1094.2233,1092.8242 Q1094.2233,1089.6948 1095.5431,1088.0429 Q1096.8629,1086.3911 1099.3697,1086.3911 Q1100.0753,1086.3911 1100.7228,1086.5405 Q1101.3702,1086.6899 1101.9347,1086.9888 L1101.9347,1089.7114 Q1101.3038,1089.1304 1100.7103,1088.8606 Q1100.1168,1088.5908 1099.486,1088.5908 Q1098.1412,1088.5908 1097.4564,1089.6575 Q1096.7716,1090.7241 1096.7716,1092.8242 Q1096.7716,1094.916 1097.4564,1095.9826 Q1098.1412,1097.0493 1099.486,1097.0493 Q1100.1168,1097.0493 1100.7103,1096.7795 Q1101.3038,1096.5097 1101.9347,1095.9287 Z " fill="#000000"/><text fill="#000000" font-family="sans-serif" font-size="14" lengthAdjust="spacing" textLength="36.4834" x="1116.5574" y="1098.2993">Email</text><line style="stroke:#181818;stroke-width:0.5;" x1="1068.78" x2="1171.2224" y1="1109.0083" y2="1109.0083"/><text fill="#000000" font-family="sans-serif" font-size="14" lengthAdjust="spacing" textLength="92.4424" x="1073.78" y="1126.5434">-value: String</text><line style="stroke:#181818;stroke-width:0.5;" x1="1068.78" x2="1171.2224" y1="1133.4966" y2="1133.4966"/></g><!--class AirTransportCompanyRepository--><g class="entity" data-qualified-name="repository.AirTransportCompanyRepository" data-source-line="95" id="ent0022"><rect fill="#F1F1F1" height="130.4414" rx="2.5" ry="2.5" style="stroke:#181818;stroke-width:0.5;" width="536.8633" x="1650.57" y="663.3683"/><ellipse cx="1803.7634" cy="679.3683" fill="#B1B1B1" rx="11" ry="11" style="stroke:#181818;stroke-width:1;"/><path d="M1799.6911,675.1334 L1799.6911,672.9752 L1807.0705,672.9752 L1807.0705,675.1334 L1804.6052,675.1334 L1804.6052,683.2101 L1807.0705,683.2101 L1807.0705,685.3683 L1799.6911,685.3683 L1799.6911,683.2101 L1802.1564,683.2101 L1802.1564,675.1334 Z " fill="#000000"/><text fill="#000000" font-family="sans-serif" font-size="14" font-style="italic" lengthAdjust="spacing" textLength="221.9766" x="1824.2634" y="684.6593">AirTransportCompanyRepository</text><line style="stroke:#181818;stroke-width:0.5;" x1="1651.57" x2="2186.4333" y1="695.3683" y2="695.3683"/><line style="stroke:#181818;stroke-width:0.5;" x1="1651.57" x2="2186.4333" y1="703.3683" y2="703.3683"/><text fill="#000000" font-family="sans-serif" font-size="14" lengthAdjust="spacing" textLength="358.1416" x="1656.57" y="720.9034">+existsByIATACode(code: AirlineIATACode): boolean</text><text fill="#000000" font-family="sans-serif" font-size="14" lengthAdjust="spacing" textLength="362.2432" x="1656.57" y="737.3917">+existsByICAOCode(code: AirlineICAOCode): boolean</text><text fill="#000000" font-family="sans-serif" font-size="14" lengthAdjust="spacing" textLength="307.8086" x="1656.57" y="753.88">+save(company: AirTransportCompany): void</text><text fill="#000000" font-family="sans-serif" font-size="14" lengthAdjust="spacing" textLength="520.7617" x="1656.57" y="770.3683">+findByIATACode(code: AirlineIATACode): Optional&lt;AirTransportCompany&gt;</text><text fill="#000000" font-family="sans-serif" font-size="14" lengthAdjust="spacing" textLength="524.8633" x="1656.57" y="786.8566">+findByICAOCode(code: AirlineICAOCode): Optional&lt;AirTransportCompany&gt;</text></g><!--link RegisterAirTransportCompanyUI to RegisterAirTransportCompanyController--><g class="link" data-entity-1="ent0003" data-entity-2="ent0005" data-link-type="dependency" data-source-line="104" id="lnk23"><path codeLine="104" d="M394,226.6583 C394,265.9983 394,306.5583 394,336.6883" fill="none" id="RegisterAirTransportCompanyUI-to-RegisterAirTransportCompanyController" style="stroke:#181818;stroke-width:1;"/><polygon fill="#181818" points="394,342.6883,398,333.6883,394,337.6883,390,333.6883,394,342.6883" style="stroke:#181818;stroke-width:1;"/><polygon fill="#000000" points="399,272.0736,401.9389,263.0285,396.0611,263.0285,399,272.0736" style="stroke:#000000;stroke-width:1;"/><text fill="#000000" font-family="sans-serif" font-size="13" lengthAdjust="spacing" textLength="28.5645" x="408" y="271.9866">uses</text></g><!--link RegisterAirTransportCompanyController to RegisterAirTransportCompanyService--><g class="link" data-entity-1="ent0005" data-entity-2="ent0007" data-link-type="dependency" data-source-line="105" id="lnk24"><path codeLine="105" d="M555.97,407.8083 C694.12,434.8083 885.8514,472.2872 1024.0314,499.2972" fill="none" id="RegisterAirTransportCompanyController-to-RegisterAirTransportCompanyService" style="stroke:#181818;stroke-width:1;"/><polygon fill="#181818" points="1029.92,500.4483,1021.8545,494.796,1025.0129,499.4891,1020.3198,502.6474,1029.92,500.4483" style="stroke:#181818;stroke-width:1;"/><polygon fill="#000000" points="874.3871,463.4927,866.0738,458.8732,864.9463,464.6419,874.3871,463.4927" style="stroke:#000000;stroke-width:1;"/><text fill="#000000" font-family="sans-serif" font-size="13" lengthAdjust="spacing" textLength="28.5645" x="878.48" y="467.4466">uses</text></g><!--link RegisterAirTransportCompanyService to AuthorizationService--><g class="link" data-entity-1="ent0007" data-entity-2="ent0008" data-link-type="dependency" data-source-line="106" id="lnk25"><path codeLine="106" d="M1148.74,565.7183 C1137.79,574.6883 1126.46,584.8883 1117,595.3683 C1088.75,626.6883 1066.0756,662.7781 1050.0556,690.8281" fill="none" id="RegisterAirTransportCompanyService-to-AuthorizationService" style="stroke:#181818;stroke-width:1;"/><polygon fill="#181818" points="1047.08,696.0383,1055.0169,690.2068,1049.5597,691.6965,1048.07,686.2393,1047.08,696.0383" style="stroke:#181818;stroke-width:1;"/><polygon fill="#000000" points="1118.9035,607.9493,1126.8126,602.6677,1122.1977,599.0275,1118.9035,607.9493" style="stroke:#000000;stroke-width:1;"/><text fill="#000000" font-family="sans-serif" font-size="13" lengthAdjust="spacing" textLength="116.6699" x="1131" y="608.9366">checks permission</text></g><!--link RegisterAirTransportCompanyService to AirTransportCompanyRepository--><g class="link" data-entity-1="ent0007" data-entity-2="ent0022" data-link-type="dependency" data-source-line="107" id="lnk26"><path codeLine="107" d="M1446.23,565.8283 C1491.81,573.8383 1538.59,583.5983 1582,595.3683 C1646.6,612.8883 1710.2318,636.4342 1768.9918,660.6242" fill="none" id="RegisterAirTransportCompanyService-to-AirTransportCompanyRepository" style="stroke:#181818;stroke-width:1;"/><polygon fill="#181818" points="1774.54,662.9083,1767.7403,655.7833,1769.9165,661.0049,1764.6949,663.181,1774.54,662.9083" style="stroke:#181818;stroke-width:1;"/><polygon fill="#000000" points="1648.4774,605.4326,1640.627,600.0638,1638.9707,605.7035,1648.4774,605.4326" style="stroke:#000000;stroke-width:1;"/><text fill="#000000" font-family="sans-serif" font-size="13" lengthAdjust="spacing" textLength="84.0747" x="1652.68" y="608.9366">checks/saves</text></g><!--link RegisterAirTransportCompanyService to AirTransportCompany--><g class="link" data-entity-1="ent0007" data-entity-2="ent0016" data-link-type="dependency" data-source-line="108" id="lnk27"><path codeLine="108" d="M1366.37,565.8183 C1426.31,580.0783 1483.54,598.6283 1504,620.3683 C1540.57,659.2183 1559.9633,804.119 1568.4433,887.549" fill="none" id="RegisterAirTransportCompanyService-to-AirTransportCompany" style="stroke:#181818;stroke-width:1;"/><polygon fill="#181818" points="1569.05,893.5183,1572.1194,884.1599,1568.5444,888.5439,1564.1604,884.9689,1569.05,893.5183" style="stroke:#181818;stroke-width:1;"/><polygon fill="#000000" points="1567.3394,732.9777,1565.0173,723.7549,1560.0398,726.8812,1567.3394,732.9777" style="stroke:#000000;stroke-width:1;"/><text fill="#000000" font-family="sans-serif" font-size="13" lengthAdjust="spacing" textLength="45.1318" x="1573.68" y="733.6566">creates</text></g><!--link RegisterAirTransportCompanyService to AirTransportCompanyDTO--><g class="link" data-entity-1="ent0007" data-entity-2="ent0010" data-link-type="dependency" data-source-line="109" id="lnk28"><path codeLine="109" d="M1222.87,565.5583 C1232.24,575.1183 1242.55,585.6683 1252,595.3683 C1279.08,623.1783 1305.1193,650.0649 1329.3893,675.1649" fill="none" id="RegisterAirTransportCompanyService-to-AirTransportCompanyDTO" style="stroke:#181818;stroke-width:1;"/><polygon fill="#181818" points="1333.56,679.4783,1330.1795,670.2278,1330.0844,675.8838,1324.4283,675.7887,1333.56,679.4783" style="stroke:#181818;stroke-width:1;"/><polygon fill="#000000" points="1274.4047,607.6092,1270.2084,599.0744,1265.9932,603.1709,1274.4047,607.6092" style="stroke:#000000;stroke-width:1;"/><text fill="#000000" font-family="sans-serif" font-size="13" lengthAdjust="spacing" textLength="45.5063" x="1279.92" y="608.9366">returns</text></g><!--link BootstrapAirTransportCompanyLoader to RegisterAirTransportCompanyService--><g class="link" data-entity-1="ent0011" data-entity-2="ent0007" data-link-type="dependency" data-source-line="110" id="lnk29"><path codeLine="110" d="M1280.54,407.7083 C1261.28,434.7783 1237.1589,468.6698 1217.9089,495.7198" fill="none" id="BootstrapAirTransportCompanyLoader-to-RegisterAirTransportCompanyService" style="stroke:#181818;stroke-width:1;"/><polygon fill="#181818" points="1214.43,500.6083,1222.9073,495.5948,1217.3291,496.5345,1216.3893,490.9563,1214.43,500.6083" style="stroke:#181818;stroke-width:1;"/><polygon fill="#000000" points="1249.601,466.6073,1257.2399,460.9418,1252.4508,457.5338,1249.601,466.6073" style="stroke:#000000;stroke-width:1;"/><text fill="#000000" font-family="sans-serif" font-size="13" lengthAdjust="spacing" textLength="28.5645" x="1261.5" y="467.4466">uses</text></g><!--link AuthorizationService to User--><g class="link" data-entity-1="ent0008" data-entity-2="ent0013" data-link-type="dependency" data-source-line="112" id="lnk30"><path codeLine="112" d="M1022.26,761.1383 C1013.25,797.8883 999.6995,853.1611 989.2295,895.8411" fill="none" id="AuthorizationService-to-User" style="stroke:#181818;stroke-width:1;"/><polygon fill="#181818" points="987.8,901.6683,993.8291,893.8804,988.9912,896.8123,986.0594,891.9744,987.8,901.6683" style="stroke:#181818;stroke-width:1;"/><polygon fill="#000000" points="1010.0392,839.3197,1015.0477,831.2348,1009.339,829.8349,1010.0392,839.3197" style="stroke:#000000;stroke-width:1;"/><text fill="#000000" font-family="sans-serif" font-size="13" lengthAdjust="spacing" textLength="42.853" x="1020.23" y="839.3766">checks</text></g><!--reverse link User to Role--><g class="link" data-entity-1="ent0013" data-entity-2="ent0014" data-link-type="aggregation" data-source-line="113" id="lnk31"><path codeLine="113" d="M953.5869,1011.2368 C945.3269,1033.1468 939.9,1047.5283 932.05,1068.3383" fill="none" id="User-backto-Role" style="stroke:#181818;stroke-width:1;"/><polygon fill="none" points="957.82,1000.0083,951.9606,1004.2115,953.5869,1011.2368,959.4463,1007.0336,957.82,1000.0083" style="stroke:#181818;stroke-width:1;"/><text fill="#000000" font-family="sans-serif" font-size="13" lengthAdjust="spacing" textLength="8.2202" x="946.8546" y="1020.2189">1</text><text fill="#000000" font-family="sans-serif" font-size="13" lengthAdjust="spacing" textLength="22.7119" x="910.78" y="1057.9131">1..*</text></g><!--reverse link Role to Permission--><g class="link" data-entity-1="ent0014" data-entity-2="ent0015" data-link-type="aggregation" data-source-line="114" id="lnk32"><path codeLine="114" d="M917,1162.1283 C917,1181.5183 917,1192.4783 917,1210.5983" fill="none" id="Role-backto-Permission" style="stroke:#181818;stroke-width:1;"/><polygon fill="none" points="917,1150.1283,913,1156.1283,917,1162.1283,921,1156.1283,917,1150.1283" style="stroke:#181818;stroke-width:1;"/><text fill="#000000" font-family="sans-serif" font-size="13" lengthAdjust="spacing" textLength="8.2202" x="908.3803" y="1170.4306">1</text><text fill="#000000" font-family="sans-serif" font-size="13" lengthAdjust="spacing" textLength="6.2651" x="910.4086" y="1199.9726">*</text></g><!--reverse link User to Email--><g class="link" data-entity-1="ent0013" data-entity-2="ent0020" data-link-type="composition" data-source-line="115" id="lnk33"><path codeLine="115" d="M1028.506,1008.8383 C1051.476,1033.7983 1070.75,1054.7383 1090.99,1076.7283" fill="none" id="User-backto-Email" style="stroke:#181818;stroke-width:1;"/><polygon fill="#181818" points="1020.38,1000.0083,1021.4997,1007.1319,1028.506,1008.8383,1027.3863,1001.7146,1020.38,1000.0083" style="stroke:#181818;stroke-width:1;"/></g><!--reverse link AirTransportCompany to CompanyName--><g class="link" data-entity-1="ent0016" data-entity-2="ent0017" data-link-type="composition" data-source-line="117" id="lnk34"><path codeLine="117" d="M1471.3308,1014.2896 C1438.5208,1034.2696 1412.54,1050.0783 1382.45,1068.4083" fill="none" id="AirTransportCompany-backto-CompanyName" style="stroke:#181818;stroke-width:1;"/><polygon fill="#181818" points="1481.58,1008.0483,1474.375,1007.7526,1471.3308,1014.2896,1478.5359,1014.5853,1481.58,1008.0483" style="stroke:#181818;stroke-width:1;"/></g><!--reverse link AirTransportCompany to AirlineIATACode--><g class="link" data-entity-1="ent0016" data-entity-2="ent0018" data-link-type="composition" data-source-line="118" id="lnk35"><path codeLine="118" d="M1574.87,1019.8273 C1575.12,1039.8273 1575.25,1049.9283 1575.49,1068.2883" fill="none" id="AirTransportCompany-backto-AirlineIATACode" style="stroke:#181818;stroke-width:1;"/><polygon fill="#181818" points="1574.72,1007.8283,1570.7953,1013.8778,1574.87,1019.8273,1578.7947,1013.7778,1574.72,1007.8283" style="stroke:#181818;stroke-width:1;"/></g><!--reverse link AirTransportCompany to AirlineICAOCode--><g class="link" data-entity-1="ent0016" data-entity-2="ent0019" data-link-type="composition" data-source-line="119" id="lnk36"><path codeLine="119" d="M1680.0027,1014.1333 C1713.9627,1034.1133 1741.11,1050.0783 1772.26,1068.4083" fill="none" id="AirTransportCompany-backto-AirlineICAOCode" style="stroke:#181818;stroke-width:1;"/><polygon fill="#181818" points="1669.66,1008.0483,1672.803,1014.5384,1680.0027,1014.1333,1676.8597,1007.6432,1669.66,1008.0483" style="stroke:#181818;stroke-width:1;"/></g><?plantuml-src nLPBSzem4BxxLsZenIGXJIyzU3BC4CWXCsdJ2UG7REm5D94bLv9fIIV_lMk3GGOPGpDjVV1Z7zy-jD9dowr0zZI--dpL6uw2mBnmcO66bALAgdYkLOhCwXmTJGRn2ynmR9VagZ6s86V2DJ1pIDGFBcTi2iAucbY0CGDhDN_EBTx5IexvAxAh85Y3iiub2OqIs64VHkN5VWMChjALFUAC6ujwmFL4WpIPqdQeqWpaykbkRLbSFHQlf5yXnOYDAQASELeE5eOgyQfYK5xLEHNxFKTZH-GSTXrvmaqcOFa5ZQ4QmdJrh00ybhTQA-stUmlUd6vGCwnMGg0-kH_3ZQlJbwA6HezmNLzq2FPnPTEDc4SvcZnuYe0i4zHLovKykOenwWMFyN-Ku2GuoErSQVvQrk1BYPlA19CmDwWZzaJt2vQXJhanv1QnRvjt2lsiQCX1xiTgJ_mlpdczQczt_bNq6wMiiHeoJnht2fATkHOa6k4KSc7t7JYQa7g-K3pnp6UYKk0DerciOgrY95iHiTlYuOXffw69s3qjtVKZlVUTrEPWjaiV_i54aBoMW_ItUujSPRB5x-_3RfM7mTjcedaWXjiFxrGGcE0IxmQJGI7mZaTbCnmyr6pEVQc4JU4lcgDUD0VhxjVlODRgNe38VPJXs8SrcwwtjsvYH-7l-1mTOrtXIJ7MFgqnohtHWbpVWHepPRXLUhcx2xcaet0ATDnwpyFAhNOKu4-QVNEpt3GbzgtxpexRSQrgZRrpuNCriC1g_hpCuXv0AvSfbyaHQJva1Us0kFQ0zlVXsb9lXoiNv_2lLg_NF_Bd8sB4XuRrW-FCMu0hyZq6jR8j8BqC7h5uZl6BSKxE4n0FpcC5_R4O2_Ckr09B8zXtmXJK7T6_aysrB92EuDTJroBmThb0AMbqq-v-K7vtFdMOwlNeUNbvrYbfBYYvRgCWwPQbLavd95-HR-3hLQ5sQQV9PfTwskmg-laD?></g></svg>