<?plantuml 1.2026.2?><svg xmlns="http://www.w3.org/2000/svg" xmlns:xlink="http://www.w3.org/1999/xlink" contentStyleType="text/css" data-diagram-type="SEQUENCE" height="671px" preserveAspectRatio="none" style="width:761px;height:671px;background:#FFFFFF;" version="1.1" viewBox="0 0 761 671" width="761px" zoomAndPan="magnify"><defs/><g><g><title>Backoffice Operator</title><rect fill="#FFFFFF" height="488.9922" style="stroke:#181818;stroke-width:1;" width="10" x="84.9956" y="91.4883"/></g><g><title>.System</title><rect fill="#FFFFFF" height="29.3105" style="stroke:#181818;stroke-width:1;" width="10" x="458.4565" y="112.7988"/></g><g><title>.System</title><rect fill="#FFFFFF" height="409.0605" style="stroke:#181818;stroke-width:1;" width="10" x="458.4565" y="171.4199"/></g><rect fill="none" height="133.1973" style="stroke:#000000;stroke-width:1.5;" width="703.9888" x="10" y="440.2832"/><g class="participant-lifeline" data-entity-uid="part1" data-qualified-name="BackofficeOperator" id="part1-lifeline"><g><title>Backoffice Operator</title><rect fill="#000000" fill-opacity="0.00000" height="508.9922" width="8" x="85.9956" y="81.4883"/><line style="stroke:#181818;stroke-width:0.5;stroke-dasharray:5,5;" x1="89" x2="89" y1="81.4883" y2="590.4805"/></g></g><g class="participant-lifeline" data-entity-uid="part2" data-qualified-name="System" id="part2-lifeline"><g><title>.System</title><rect fill="#000000" fill-opacity="0.00000" height="508.9922" width="8" x="459.4565" y="81.4883"/><line style="stroke:#181818;stroke-width:0.5;stroke-dasharray:5,5;" x1="463.1929" x2="463.1929" y1="81.4883" y2="590.4805"/></g></g><g class="participant participant-head" data-entity-uid="part1" data-qualified-name="BackofficeOperator" id="part1-head"><text fill="#000000" font-family="sans-serif" font-size="14" lengthAdjust="spacing" textLength="133.9912" x="20" y="78.5352">Backoffice Operator</text><ellipse cx="89.9956" cy="13.5" fill="#E3E3E3" rx="8" ry="8" style="stroke:#181818;stroke-width:0.5;"/><path d="M89.9956,21.5 L89.9956,48.5 M76.9956,29.5 L102.9956,29.5 M89.9956,48.5 L76.9956,63.5 M89.9956,48.5 L102.9956,63.5" fill="none" style="stroke:#181818;stroke-width:0.5;"/></g><g class="participant participant-tail" data-entity-uid="part1" data-qualified-name="BackofficeOperator" id="part1-tail"><text fill="#000000" font-family="sans-serif" font-size="14" lengthAdjust="spacing" textLength="133.9912" x="20" y="603.0156">Backoffice Operator</text><ellipse cx="89.9956" cy="614.4688" fill="#E3E3E3" rx="8" ry="8" style="stroke:#181818;stroke-width:0.5;"/><path d="M89.9956,622.4688 L89.9956,649.4688 M76.9956,630.4688 L102.9956,630.4688 M89.9956,649.4688 L76.9956,664.4688 M89.9956,649.4688 L102.9956,664.4688" fill="none" style="stroke:#181818;stroke-width:0.5;"/></g><g class="participant participant-head" data-entity-uid="part2" data-qualified-name="System" id="part2-head"><rect fill="#E3E3E3" height="30.4883" rx="2.5" ry="2.5" style="stroke:#181818;stroke-width:0.5;" width="66.5273" x="430.1929" y="50"/><text fill="#000000" font-family="sans-serif" font-size="14" lengthAdjust="spacing" textLength="52.5273" x="437.1929" y="70.5352">:System</text></g><g class="participant participant-tail" data-entity-uid="part2" data-qualified-name="System" id="part2-tail"><rect fill="#E3E3E3" height="30.4883" rx="2.5" ry="2.5" style="stroke:#181818;stroke-width:0.5;" width="66.5273" x="430.1929" y="589.4805"/><text fill="#000000" font-family="sans-serif" font-size="14" lengthAdjust="spacing" textLength="52.5273" x="437.1929" y="610.0156">:System</text></g><g><title>Backoffice Operator</title><rect fill="#FFFFFF" height="488.9922" style="stroke:#181818;stroke-width:1;" width="10" x="84.9956" y="91.4883"/></g><g><title>.System</title><rect fill="#FFFFFF" height="29.3105" style="stroke:#181818;stroke-width:1;" width="10" x="458.4565" y="112.7988"/></g><g><title>.System</title><rect fill="#FFFFFF" height="409.0605" style="stroke:#181818;stroke-width:1;" width="10" x="458.4565" y="171.4199"/></g><g class="message" data-entity-1="part1" data-entity-2="part2" id="msg1"><polygon fill="#181818" points="446.4565,108.7988,456.4565,112.7988,446.4565,116.7988,450.4565,112.7988" style="stroke:#181818;stroke-width:1;"/><line style="stroke:#181818;stroke-width:1;" x1="94.9956" x2="452.4565" y1="112.7988" y2="112.7988"/><text fill="#000000" font-family="sans-serif" font-size="13" font-weight="bold" lengthAdjust="spacing" textLength="8.5757" x="125.4451" y="108.0566">1</text><text fill="#000000" font-family="sans-serif" font-size="13" lengthAdjust="spacing" textLength="289.9863" x="138.0208" y="108.0566">Requests to register an air transport company</text></g><g class="message" data-entity-1="part2" data-entity-2="part1" id="msg2"><polygon fill="#181818" points="105.9956,138.1094,95.9956,142.1094,105.9956,146.1094,101.9956,142.1094" style="stroke:#181818;stroke-width:1;"/><line style="stroke:#181818;stroke-width:1;stroke-dasharray:2,2;" x1="99.9956" x2="462.4565" y1="142.1094" y2="142.1094"/><text fill="#000000" font-family="sans-serif" font-size="13" font-weight="bold" lengthAdjust="spacing" textLength="8.5757" x="109.4956" y="137.3672">2</text><text fill="#000000" font-family="sans-serif" font-size="13" lengthAdjust="spacing" textLength="326.8853" x="122.0713" y="137.3672">Requests company name, IATA code and ICAO code</text></g><g class="message" data-entity-1="part1" data-entity-2="part2" id="msg3"><polygon fill="#181818" points="446.4565,167.4199,456.4565,171.4199,446.4565,175.4199,450.4565,171.4199" style="stroke:#181818;stroke-width:1;"/><line style="stroke:#181818;stroke-width:1;" x1="94.9956" x2="452.4565" y1="171.4199" y2="171.4199"/><text fill="#000000" font-family="sans-serif" font-size="13" font-weight="bold" lengthAdjust="spacing" textLength="8.5757" x="197.6084" y="166.6777">3</text><text fill="#000000" font-family="sans-serif" font-size="13" lengthAdjust="spacing" textLength="145.6597" x="210.1841" y="166.6777">Provides company data</text></g><g class="message" data-entity-1="part2" data-entity-2="part2" id="msg4"><line style="stroke:#181818;stroke-width:1;stroke-dasharray:2,2;" x1="468.4565" x2="510.4565" y1="200.7305" y2="200.7305"/><line style="stroke:#181818;stroke-width:1;stroke-dasharray:2,2;" x1="510.4565" x2="510.4565" y1="200.7305" y2="213.7305"/><line style="stroke:#181818;stroke-width:1;stroke-dasharray:2,2;" x1="469.4565" x2="510.4565" y1="213.7305" y2="213.7305"/><polygon fill="#181818" points="479.4565,209.7305,469.4565,213.7305,479.4565,217.7305,475.4565,213.7305" style="stroke:#181818;stroke-width:1;"/><text fill="#000000" font-family="sans-serif" font-size="13" font-weight="bold" lengthAdjust="spacing" textLength="8.5757" x="475.4565" y="195.9883">4</text><text fill="#000000" font-family="sans-serif" font-size="13" lengthAdjust="spacing" textLength="266.4746" x="488.0322" y="195.9883">Check if Backoffice Operator is authorized</text></g><g class="message" data-entity-1="part2" data-entity-2="part2" id="msg5"><line style="stroke:#181818;stroke-width:1;stroke-dasharray:2,2;" x1="468.4565" x2="510.4565" y1="243.041" y2="243.041"/><line style="stroke:#181818;stroke-width:1;stroke-dasharray:2,2;" x1="510.4565" x2="510.4565" y1="243.041" y2="256.041"/><line style="stroke:#181818;stroke-width:1;stroke-dasharray:2,2;" x1="469.4565" x2="510.4565" y1="256.041" y2="256.041"/><polygon fill="#181818" points="479.4565,252.041,469.4565,256.041,479.4565,260.041,475.4565,256.041" style="stroke:#181818;stroke-width:1;"/><text fill="#000000" font-family="sans-serif" font-size="13" font-weight="bold" lengthAdjust="spacing" textLength="8.5757" x="475.4565" y="238.2988">5</text><text fill="#000000" font-family="sans-serif" font-size="13" lengthAdjust="spacing" textLength="139.604" x="488.0322" y="238.2988">Validate required data</text></g><g class="message" data-entity-1="part2" data-entity-2="part2" id="msg6"><line style="stroke:#181818;stroke-width:1;stroke-dasharray:2,2;" x1="468.4565" x2="510.4565" y1="285.3516" y2="285.3516"/><line style="stroke:#181818;stroke-width:1;stroke-dasharray:2,2;" x1="510.4565" x2="510.4565" y1="285.3516" y2="298.3516"/><line style="stroke:#181818;stroke-width:1;stroke-dasharray:2,2;" x1="469.4565" x2="510.4565" y1="298.3516" y2="298.3516"/><polygon fill="#181818" points="479.4565,294.3516,469.4565,298.3516,479.4565,302.3516,475.4565,298.3516" style="stroke:#181818;stroke-width:1;"/><text fill="#000000" font-family="sans-serif" font-size="13" font-weight="bold" lengthAdjust="spacing" textLength="8.5757" x="475.4565" y="280.6094">6</text><text fill="#000000" font-family="sans-serif" font-size="13" lengthAdjust="spacing" textLength="118.8599" x="488.0322" y="280.6094">Validate IATA code</text></g><g class="message" data-entity-1="part2" data-entity-2="part2" id="msg7"><line style="stroke:#181818;stroke-width:1;stroke-dasharray:2,2;" x1="468.4565" x2="510.4565" y1="327.6621" y2="327.6621"/><line style="stroke:#181818;stroke-width:1;stroke-dasharray:2,2;" x1="510.4565" x2="510.4565" y1="327.6621" y2="340.6621"/><line style="stroke:#181818;stroke-width:1;stroke-dasharray:2,2;" x1="469.4565" x2="510.4565" y1="340.6621" y2="340.6621"/><polygon fill="#181818" points="479.4565,336.6621,469.4565,340.6621,479.4565,344.6621,475.4565,340.6621" style="stroke:#181818;stroke-width:1;"/><text fill="#000000" font-family="sans-serif" font-size="13" font-weight="bold" lengthAdjust="spacing" textLength="8.5757" x="475.4565" y="322.9199">7</text><text fill="#000000" font-family="sans-serif" font-size="13" lengthAdjust="spacing" textLength="120.7642" x="488.0322" y="322.9199">Validate ICAO code</text></g><g class="message" data-entity-1="part2" data-entity-2="part2" id="msg8"><line style="stroke:#181818;stroke-width:1;stroke-dasharray:2,2;" x1="468.4565" x2="510.4565" y1="369.9727" y2="369.9727"/><line style="stroke:#181818;stroke-width:1;stroke-dasharray:2,2;" x1="510.4565" x2="510.4565" y1="369.9727" y2="382.9727"/><line style="stroke:#181818;stroke-width:1;stroke-dasharray:2,2;" x1="469.4565" x2="510.4565" y1="382.9727" y2="382.9727"/><polygon fill="#181818" points="479.4565,378.9727,469.4565,382.9727,479.4565,386.9727,475.4565,382.9727" style="stroke:#181818;stroke-width:1;"/><text fill="#000000" font-family="sans-serif" font-size="13" font-weight="bold" lengthAdjust="spacing" textLength="8.5757" x="475.4565" y="365.2305">8</text><text fill="#000000" font-family="sans-serif" font-size="13" lengthAdjust="spacing" textLength="182.8252" x="488.0322" y="365.2305">Check IATA code uniqueness</text></g><g class="message" data-entity-1="part2" data-entity-2="part2" id="msg9"><line style="stroke:#181818;stroke-width:1;stroke-dasharray:2,2;" x1="468.4565" x2="510.4565" y1="412.2832" y2="412.2832"/><line style="stroke:#181818;stroke-width:1;stroke-dasharray:2,2;" x1="510.4565" x2="510.4565" y1="412.2832" y2="425.2832"/><line style="stroke:#181818;stroke-width:1;stroke-dasharray:2,2;" x1="469.4565" x2="510.4565" y1="425.2832" y2="425.2832"/><polygon fill="#181818" points="479.4565,421.2832,469.4565,425.2832,479.4565,429.2832,475.4565,425.2832" style="stroke:#181818;stroke-width:1;"/><text fill="#000000" font-family="sans-serif" font-size="13" font-weight="bold" lengthAdjust="spacing" textLength="8.5757" x="475.4565" y="407.541">9</text><text fill="#000000" font-family="sans-serif" font-size="13" lengthAdjust="spacing" textLength="184.7295" x="488.0322" y="407.541">Check ICAO code uniqueness</text></g><path d="M10,440.2832 L72.1387,440.2832 L72.1387,447.5938 L62.1387,457.5938 L10,457.5938 L10,440.2832" fill="#EEEEEE" style="stroke:#000000;stroke-width:1.5;"/><rect fill="none" height="133.1973" style="stroke:#000000;stroke-width:1.5;" width="703.9888" x="10" y="440.2832"/><text fill="#000000" font-family="sans-serif" font-size="13" font-weight="bold" lengthAdjust="spacing" textLength="17.1387" x="25" y="453.8516">alt</text><text fill="#000000" font-family="sans-serif" font-size="11" font-weight="bold" lengthAdjust="spacing" textLength="131.8818" x="87.1387" y="452.918">[company data is valid]</text><g class="message" data-entity-1="part2" data-entity-2="part2" id="msg10"><line style="stroke:#181818;stroke-width:1;stroke-dasharray:2,2;" x1="468.4565" x2="510.4565" y1="478.9043" y2="478.9043"/><line style="stroke:#181818;stroke-width:1;stroke-dasharray:2,2;" x1="510.4565" x2="510.4565" y1="478.9043" y2="491.9043"/><line style="stroke:#181818;stroke-width:1;stroke-dasharray:2,2;" x1="469.4565" x2="510.4565" y1="491.9043" y2="491.9043"/><polygon fill="#181818" points="479.4565,487.9043,469.4565,491.9043,479.4565,495.9043,475.4565,491.9043" style="stroke:#181818;stroke-width:1;"/><text fill="#000000" font-family="sans-serif" font-size="13" font-weight="bold" lengthAdjust="spacing" textLength="17.1514" x="475.4565" y="474.1621">10</text><text fill="#000000" font-family="sans-serif" font-size="13" lengthAdjust="spacing" textLength="195.3809" x="496.6079" y="474.1621">Register air transport company</text></g><g class="message" data-entity-1="part2" data-entity-2="part1" id="msg11"><polygon fill="#181818" points="105.9956,517.2148,95.9956,521.2148,105.9956,525.2148,101.9956,521.2148" style="stroke:#181818;stroke-width:1;"/><line style="stroke:#181818;stroke-width:1;stroke-dasharray:2,2;" x1="99.9956" x2="457.4565" y1="521.2148" y2="521.2148"/><text fill="#000000" font-family="sans-serif" font-size="13" font-weight="bold" lengthAdjust="spacing" textLength="17.1514" x="121.4143" y="516.4727">11</text><text fill="#000000" font-family="sans-serif" font-size="13" lengthAdjust="spacing" textLength="289.4722" x="142.5657" y="516.4727">Air transport company registered successfully</text></g><line style="stroke:#000000;stroke-width:1;stroke-dasharray:2,2;" x1="10" x2="713.9888" y1="530.2148" y2="530.2148"/><text fill="#000000" font-family="sans-serif" font-size="11" font-weight="bold" lengthAdjust="spacing" textLength="142.6831" x="15" y="540.8496">[company data is invalid]</text><g class="message" data-entity-1="part2" data-entity-2="part1" id="msg12"><polygon fill="#181818" points="105.9956,561.4805,95.9956,565.4805,105.9956,569.4805,101.9956,565.4805" style="stroke:#181818;stroke-width:1;"/><line style="stroke:#181818;stroke-width:1;stroke-dasharray:2,2;" x1="99.9956" x2="457.4565" y1="565.4805" y2="565.4805"/><text fill="#000000" font-family="sans-serif" font-size="13" font-weight="bold" lengthAdjust="spacing" textLength="17.1514" x="195.8469" y="560.7383">12</text><text fill="#000000" font-family="sans-serif" font-size="13" lengthAdjust="spacing" textLength="140.6069" x="216.9983" y="560.7383">Display error message</text></g><?plantuml-src XLFBSi8m3BpxApISomzmw4nABnmwTA3JksehGODZfxP39_twAZn201TyijVIxagMuvPTWm5hgBtpUXDyJP12IoeEDmtgBLQqJfqb2AGJkigE0-86ZVzXLq69DbxSq7TBJjCRnIWKXUNAWIQNA2XiatTj_ILRXJhv09CNKV9boPfWsL100IU04Sxu2LR2drXpWox1PBRkOg9w7tlOxYbvXubooUeMW-dpCHLciEfjnnGXUIcuOe43e0Fa8Cr15niV4cXVYtmtaZfg7tccGfaH6j4V6S1XJK-mA3uAWGo9b875l5ZkJyhGjS0Z_-_1xzZGMS1Wmhi-XzJvXlGMk8JCMm17a5VR-C2_PBBfdsZPz191QkH0vY1zDtIe-q7Oq93_VPzRs3hkHq_cxbxuYN8Shj2cYyRrPUzw5mfavTXMmuna1-GgBJiJHIvp63xfOsor5djbQssdIBxPZKTsMPTPkLUEZSKEA0GvruVlgSWPbHct4PBvJ7y0?></g></svg>