<?plantuml 1.2026.2?><svg xmlns="http://www.w3.org/2000/svg" xmlns:xlink="http://www.w3.org/1999/xlink" contentStyleType="text/css" data-diagram-type="CLASS" height="1162.4px" preserveAspectRatio="none" style="width:1644px;height:1162px;background:#FFFFFF;" version="1.1" viewBox="0 0 1644 1162" width="1644.8px" zoomAndPan="magnify"><title>US030-CD</title><defs/><g><g class="title" data-source-line="1"><text fill="#000000" font-family="sans-serif" font-size="11.2" font-weight="bold" lengthAdjust="spacing" textLength="60.8234" x="786.3883" y="18.8281">US030-CD</text></g><!--cluster ui--><g class="cluster" data-qualified-name="ui" data-source-line="9" id="ent0004"><rect fill="none" height="198.76" rx="2" ry="2" style="stroke:#000000;stroke-width:1.2;" width="260.8" x="113.6" y="35.5906"/><text fill="#000000" font-family="sans-serif" font-size="11.2" font-weight="bold" lengthAdjust="spacing" textLength="10.9977" x="238.5012" y="48.0188">ui</text></g><!--cluster console--><g class="cluster" data-qualified-name="ui.console" data-source-line="8" id="ent0002"><rect fill="#DDDDDD" height="145.16" rx="2" ry="2" style="stroke:#000000;stroke-width:1.2;" width="222.4" x="132.8" y="69.9906"/><text fill="#000000" font-family="sans-serif" font-size="11.2" font-weight="bold" lengthAdjust="spacing" textLength="44.1602" x="221.9199" y="82.4188">console</text></g><!--cluster controller--><g class="cluster" data-qualified-name="controller" data-source-line="18" id="ent0005"><rect fill="#DDDDDD" height="105.576" rx="2" ry="2" style="stroke:#000000;stroke-width:1.2;" width="475.2" x="6.4" y="273.5506"/><text fill="#000000" font-family="sans-serif" font-size="11.2" font-weight="bold" lengthAdjust="spacing" textLength="56.1914" x="215.9043" y="285.9788">controller</text></g><!--cluster application--><g class="cluster" data-qualified-name="application" data-source-line="25" id="ent0007"><rect fill="#DDDDDD" height="235.576" rx="2" ry="2" style="stroke:#000000;stroke-width:1.2;" width="795.2" x="5.6" y="418.3266"/><text fill="#000000" font-family="sans-serif" font-size="11.2" font-weight="bold" lengthAdjust="spacing" textLength="63.9461" x="371.227" y="430.7548">application</text></g><!--cluster domain--><g class="cluster" data-qualified-name="domain" data-source-line="40" id="ent0011"><rect fill="#DDDDDD" height="464.648" rx="2" ry="2" style="stroke:#000000;stroke-width:1.2;" width="1245.6" x="394.4" y="693.1026"/><text fill="#000000" font-family="sans-serif" font-size="11.2" font-weight="bold" lengthAdjust="spacing" textLength="43.0172" x="995.6914" y="705.5308">domain</text></g><!--cluster repository--><g class="cluster" data-qualified-name="repository" data-source-line="87" id="ent0019"><rect fill="#DDDDDD" height="105.584" rx="2" ry="2" style="stroke:#000000;stroke-width:1.2;" width="275.2" x="820" y="548.3186"/><text fill="#000000" font-family="sans-serif" font-size="11.2" font-weight="bold" lengthAdjust="spacing" textLength="59.5164" x="927.8418" y="560.7468">repository</text></g><!--class AuthenticationUI--><g class="entity" data-qualified-name="ui.console.AuthenticationUI" data-source-line="9" id="ent0003"><rect fill="#F1F1F1" height="104.3531" rx="2" ry="2" style="stroke:#181818;stroke-width:0.4;" width="197.4078" x="145.296" y="97.9906"/><ellipse cx="195.2995" cy="110.7906" fill="#C2C2C2" rx="8.8" ry="8.8" style="stroke:#181818;stroke-width:0.8;"/><path d="M197.678,115.3051 Q197.2132,115.5441 196.7019,115.6637 Q196.1905,115.7832 195.6261,115.7832 Q193.6206,115.7832 192.5648,114.4617 Q191.5089,113.1402 191.5089,110.6434 Q191.5089,108.1398 192.5648,106.8184 Q193.6206,105.4969 195.6261,105.4969 Q196.1905,105.4969 196.7085,105.6164 Q197.2265,105.7359 197.678,105.975 L197.678,108.1531 Q197.1733,107.6883 196.6985,107.4725 Q196.2237,107.2566 195.719,107.2566 Q194.6433,107.2566 194.0954,108.11 Q193.5476,108.9633 193.5476,110.6434 Q193.5476,112.3168 194.0954,113.1701 Q194.6433,114.0234 195.719,114.0234 Q196.2237,114.0234 196.6985,113.8076 Q197.1733,113.5918 197.678,113.127 Z " fill="#000000"/><text fill="#000000" font-family="sans-serif" font-size="11.2" lengthAdjust="spacing" textLength="90.6008" x="211.6995" y="115.0234">AuthenticationUI</text><line style="stroke:#181818;stroke-width:0.4;" x1="146.096" x2="341.9038" y1="123.5906" y2="123.5906"/><text fill="#000000" font-family="sans-serif" font-size="11.2" lengthAdjust="spacing" textLength="74.9" x="150.096" y="137.6188">-email: String</text><text fill="#000000" font-family="sans-serif" font-size="11.2" lengthAdjust="spacing" textLength="97.3383" x="150.096" y="150.8094">-password: String</text><line style="stroke:#181818;stroke-width:0.4;" x1="146.096" x2="341.9038" y1="156.3719" y2="156.3719"/><text fill="#000000" font-family="sans-serif" font-size="11.2" lengthAdjust="spacing" textLength="118.5188" x="150.096" y="170.4">+requestCredentials()</text><text fill="#000000" font-family="sans-serif" font-size="11.2" lengthAdjust="spacing" textLength="187.8078" x="150.096" y="183.5906">+displayMessage(message: String)</text><text fill="#000000" font-family="sans-serif" font-size="11.2" lengthAdjust="spacing" textLength="167.7922" x="150.096" y="196.7813">+displayError(message: String)</text></g><!--class AuthenticationController--><g class="entity" data-qualified-name="controller.AuthenticationController" data-source-line="19" id="ent0006"><rect fill="#F1F1F1" height="64.7813" rx="2" ry="2" style="stroke:#181818;stroke-width:0.4;" width="449.7633" x="19.12" y="301.5506"/><ellipse cx="173.5302" cy="314.3506" fill="#C2C2C2" rx="8.8" ry="8.8" style="stroke:#181818;stroke-width:0.8;"/><path d="M175.9087,318.8651 Q175.4438,319.1041 174.9325,319.2237 Q174.4212,319.3432 173.8567,319.3432 Q171.8513,319.3432 170.7954,318.0217 Q169.7395,316.7002 169.7395,314.2034 Q169.7395,311.6998 170.7954,310.3784 Q171.8513,309.0569 173.8567,309.0569 Q174.4212,309.0569 174.9391,309.1764 Q175.4571,309.2959 175.9087,309.535 L175.9087,311.7131 Q175.404,311.2483 174.9292,311.0325 Q174.4544,310.8166 173.9497,310.8166 Q172.8739,310.8166 172.3261,311.67 Q171.7782,312.5233 171.7782,314.2034 Q171.7782,315.8768 172.3261,316.7301 Q172.8739,317.5834 173.9497,317.5834 Q174.4544,317.5834 174.9292,317.3676 Q175.404,317.1518 175.9087,316.687 Z " fill="#000000"/><text fill="#000000" font-family="sans-serif" font-size="11.2" lengthAdjust="spacing" textLength="134.143" x="189.9302" y="318.5834">AuthenticationController</text><line style="stroke:#181818;stroke-width:0.4;" x1="19.92" x2="468.0833" y1="327.1506" y2="327.1506"/><line style="stroke:#181818;stroke-width:0.4;" x1="19.92" x2="468.0833" y1="333.5506" y2="333.5506"/><text fill="#000000" font-family="sans-serif" font-size="11.2" lengthAdjust="spacing" textLength="397.7695" x="23.92" y="347.5788">+authenticate(email: String, password: String): AuthenticatedUserSession</text><text fill="#000000" font-family="sans-serif" font-size="11.2" lengthAdjust="spacing" textLength="440.1633" x="23.92" y="360.7694">+authorize(session: AuthenticatedUserSession, permission: Permission): boolean</text></g><!--class AuthenticationService--><g class="entity" data-qualified-name="application.AuthenticationService" data-source-line="26" id="ent0008"><rect fill="#F1F1F1" height="51.5906" rx="2" ry="2" style="stroke:#181818;stroke-width:0.4;" width="407.3695" x="18.712" y="446.3266"/><ellipse cx="160.2569" cy="459.1266" fill="#C2C2C2" rx="8.8" ry="8.8" style="stroke:#181818;stroke-width:0.8;"/><path d="M162.6354,463.6411 Q162.1706,463.8801 161.6593,463.9997 Q161.1479,464.1192 160.5835,464.1192 Q158.578,464.1192 157.5222,462.7977 Q156.4663,461.4762 156.4663,458.9794 Q156.4663,456.4758 157.5222,455.1544 Q158.578,453.8329 160.5835,453.8329 Q161.1479,453.8329 161.6659,453.9524 Q162.1839,454.0719 162.6354,454.311 L162.6354,456.4891 Q162.1308,456.0243 161.6559,455.8085 Q161.1811,455.5926 160.6765,455.5926 Q159.6007,455.5926 159.0528,456.446 Q158.505,457.2993 158.505,458.9794 Q158.505,460.6528 159.0528,461.5061 Q159.6007,462.3594 160.6765,462.3594 Q161.1811,462.3594 161.6559,462.1436 Q162.1308,461.9278 162.6354,461.463 Z " fill="#000000"/><text fill="#000000" font-family="sans-serif" font-size="11.2" lengthAdjust="spacing" textLength="117.4797" x="176.6569" y="463.3594">AuthenticationService</text><line style="stroke:#181818;stroke-width:0.4;" x1="19.512" x2="425.2815" y1="471.9266" y2="471.9266"/><line style="stroke:#181818;stroke-width:0.4;" x1="19.512" x2="425.2815" y1="478.3266" y2="478.3266"/><text fill="#000000" font-family="sans-serif" font-size="11.2" lengthAdjust="spacing" textLength="397.7695" x="23.512" y="492.3548">+authenticate(email: String, password: String): AuthenticatedUserSession</text></g><!--class AuthorizationService--><g class="entity" data-qualified-name="application.AuthorizationService" data-source-line="30" id="ent0009"><rect fill="#F1F1F1" height="51.5906" rx="2" ry="2" style="stroke:#181818;stroke-width:0.4;" width="333.7547" x="453.92" y="446.3266"/><ellipse cx="561.2743" cy="459.1266" fill="#C2C2C2" rx="8.8" ry="8.8" style="stroke:#181818;stroke-width:0.8;"/><path d="M563.6528,463.6411 Q563.188,463.8801 562.6766,463.9997 Q562.1653,464.1192 561.6009,464.1192 Q559.5954,464.1192 558.5395,462.7977 Q557.4837,461.4762 557.4837,458.9794 Q557.4837,456.4758 558.5395,455.1544 Q559.5954,453.8329 561.6009,453.8329 Q562.1653,453.8329 562.6833,453.9524 Q563.2013,454.0719 563.6528,454.311 L563.6528,456.4891 Q563.1481,456.0243 562.6733,455.8085 Q562.1985,455.5926 561.6938,455.5926 Q560.618,455.5926 560.0702,456.446 Q559.5223,457.2993 559.5223,458.9794 Q559.5223,460.6528 560.0702,461.5061 Q560.618,462.3594 561.6938,462.3594 Q562.1985,462.3594 562.6733,462.1436 Q563.1481,461.9278 563.6528,461.463 Z " fill="#000000"/><text fill="#000000" font-family="sans-serif" font-size="11.2" lengthAdjust="spacing" textLength="112.2461" x="577.6743" y="463.3594">AuthorizationService</text><line style="stroke:#181818;stroke-width:0.4;" x1="454.72" x2="786.8747" y1="471.9266" y2="471.9266"/><line style="stroke:#181818;stroke-width:0.4;" x1="454.72" x2="786.8747" y1="478.3266" y2="478.3266"/><text fill="#000000" font-family="sans-serif" font-size="11.2" lengthAdjust="spacing" textLength="324.1547" x="458.72" y="492.3548">+isAuthorized(user: User, permission: Permission): boolean</text></g><!--class AuthenticatedUserSession--><g class="entity" data-qualified-name="application.AuthenticatedUserSession" data-source-line="34" id="ent0010"><rect fill="#F1F1F1" height="64.7813" rx="2" ry="2" style="stroke:#181818;stroke-width:0.4;" width="166.4859" x="139.16" y="576.3186"/><ellipse cx="151.16" cy="589.1186" fill="#C2C2C2" rx="8.8" ry="8.8" style="stroke:#181818;stroke-width:0.8;"/><path d="M153.5385,593.6331 Q153.0737,593.8721 152.5623,593.9917 Q152.051,594.1112 151.4866,594.1112 Q149.4811,594.1112 148.4252,592.7897 Q147.3694,591.4682 147.3694,588.9714 Q147.3694,586.4678 148.4252,585.1464 Q149.4811,583.8249 151.4866,583.8249 Q152.051,583.8249 152.569,583.9444 Q153.087,584.0639 153.5385,584.303 L153.5385,586.4811 Q153.0338,586.0163 152.559,585.8005 Q152.0842,585.5846 151.5795,585.5846 Q150.5038,585.5846 149.9559,586.438 Q149.408,587.2913 149.408,588.9714 Q149.408,590.6448 149.9559,591.4981 Q150.5038,592.3514 151.5795,592.3514 Q152.0842,592.3514 152.559,592.1356 Q153.0338,591.9198 153.5385,591.455 Z " fill="#000000"/><text fill="#000000" font-family="sans-serif" font-size="11.2" lengthAdjust="spacing" textLength="140.8859" x="162.36" y="593.3514">AuthenticatedUserSession</text><line style="stroke:#181818;stroke-width:0.4;" x1="139.96" x2="304.8459" y1="601.9186" y2="601.9186"/><text fill="#000000" font-family="sans-serif" font-size="11.2" lengthAdjust="spacing" textLength="61.343" x="143.96" y="615.9468">-user: User</text><line style="stroke:#181818;stroke-width:0.4;" x1="139.96" x2="304.8459" y1="621.5093" y2="621.5093"/><text fill="#000000" font-family="sans-serif" font-size="11.2" lengthAdjust="spacing" textLength="89.2719" x="143.96" y="635.5374">+getUser(): User</text></g><!--class User--><g class="entity" data-qualified-name="domain.User" data-source-line="41" id="ent0012"><rect fill="#F1F1F1" height="196.6875" rx="2" ry="2" style="stroke:#181818;stroke-width:0.4;" width="342.4391" x="786.384" y="721.1026"/><ellipse cx="942.0574" cy="733.9026" fill="#C2C2C2" rx="8.8" ry="8.8" style="stroke:#181818;stroke-width:0.8;"/><path d="M944.436,738.4171 Q943.9711,738.6561 943.4598,738.7757 Q942.9485,738.8952 942.384,738.8952 Q940.3785,738.8952 939.3227,737.5737 Q938.2668,736.2522 938.2668,733.7554 Q938.2668,731.2518 939.3227,729.9304 Q940.3785,728.6089 942.384,728.6089 Q942.9485,728.6089 943.4664,728.7284 Q943.9844,728.8479 944.436,729.087 L944.436,731.2651 Q943.9313,730.8003 943.4565,730.5845 Q942.9817,730.3686 942.477,730.3686 Q941.4012,730.3686 940.8533,731.222 Q940.3055,732.0753 940.3055,733.7554 Q940.3055,735.4288 940.8533,736.2821 Q941.4012,737.1354 942.477,737.1354 Q942.9817,737.1354 943.4565,736.9196 Q943.9313,736.7038 944.436,736.239 Z " fill="#000000"/><text fill="#000000" font-family="sans-serif" font-size="11.2" lengthAdjust="spacing" textLength="24.2922" x="958.4574" y="738.1354">User</text><line style="stroke:#181818;stroke-width:0.4;" x1="787.184" x2="1128.0231" y1="746.7026" y2="746.7026"/><text fill="#000000" font-family="sans-serif" font-size="11.2" lengthAdjust="spacing" textLength="72.1109" x="791.184" y="760.7308">-email: Email</text><text fill="#000000" font-family="sans-serif" font-size="11.2" lengthAdjust="spacing" textLength="75.3758" x="791.184" y="773.9214">-name: String</text><text fill="#000000" font-family="sans-serif" font-size="11.2" lengthAdjust="spacing" textLength="123.1672" x="791.184" y="787.112">-phoneNumber: String</text><text fill="#000000" font-family="sans-serif" font-size="11.2" lengthAdjust="spacing" textLength="99.9414" x="791.184" y="800.3026">-enabled: boolean</text><text fill="#000000" font-family="sans-serif" font-size="11.2" lengthAdjust="spacing" textLength="100.5703" x="791.184" y="813.4933">-roles: List&lt;Role&gt;</text><text fill="#000000" font-family="sans-serif" font-size="11.2" lengthAdjust="spacing" textLength="122.8773" x="791.184" y="826.6839">-credential: Credential</text><text fill="#000000" font-family="sans-serif" font-size="11.2" lengthAdjust="spacing" textLength="205.1" x="791.184" y="839.8745">-securityClearance: SecurityClearance</text><text fill="#000000" font-family="sans-serif" font-size="11.2" lengthAdjust="spacing" textLength="198.5266" x="791.184" y="853.0651">-skillsAssessment: SkillsAssessment</text><line style="stroke:#181818;stroke-width:0.4;" x1="787.184" x2="1128.0231" y1="858.6276" y2="858.6276"/><text fill="#000000" font-family="sans-serif" font-size="11.2" lengthAdjust="spacing" textLength="118.4258" x="791.184" y="872.6558">+isEnabled(): boolean</text><text fill="#000000" font-family="sans-serif" font-size="11.2" lengthAdjust="spacing" textLength="332.8391" x="791.184" y="885.8464">+hasValidSecurityClearance(currentDate: LocalDate): boolean</text><text fill="#000000" font-family="sans-serif" font-size="11.2" lengthAdjust="spacing" textLength="329.5523" x="791.184" y="899.037">+hasValidSkillsAssessment(currentDate: LocalDate): boolean</text><text fill="#000000" font-family="sans-serif" font-size="11.2" lengthAdjust="spacing" textLength="271.0695" x="791.184" y="912.2276">+hasPermission(permission: Permission): boolean</text></g><!--class Email--><g class="entity" data-qualified-name="domain.Email" data-source-line="56" id="ent0013"><rect fill="#F1F1F1" height="64.7813" rx="2" ry="2" style="stroke:#181818;stroke-width:0.4;" width="122.4477" x="407.576" y="973.1826"/><ellipse cx="450.8065" cy="985.9826" fill="#C2C2C2" rx="8.8" ry="8.8" style="stroke:#181818;stroke-width:0.8;"/><path d="M453.185,990.4971 Q452.7201,990.7361 452.2088,990.8557 Q451.6975,990.9752 451.133,990.9752 Q449.1276,990.9752 448.0717,989.6537 Q447.0158,988.3322 447.0158,985.8354 Q447.0158,983.3318 448.0717,982.0104 Q449.1276,980.6889 451.133,980.6889 Q451.6975,980.6889 452.2155,980.8084 Q452.7334,980.9279 453.185,981.167 L453.185,983.3451 Q452.6803,982.8803 452.2055,982.6645 Q451.7307,982.4486 451.226,982.4486 Q450.1502,982.4486 449.6024,983.302 Q449.0545,984.1553 449.0545,985.8354 Q449.0545,987.5088 449.6024,988.3621 Q450.1502,989.2154 451.226,989.2154 Q451.7307,989.2154 452.2055,988.9996 Q452.6803,988.7838 453.185,988.319 Z " fill="#000000"/><text fill="#000000" font-family="sans-serif" font-size="11.2" lengthAdjust="spacing" textLength="29.1867" x="467.2065" y="990.2154">Email</text><line style="stroke:#181818;stroke-width:0.4;" x1="408.376" x2="529.2237" y1="998.7826" y2="998.7826"/><text fill="#000000" font-family="sans-serif" font-size="11.2" lengthAdjust="spacing" textLength="73.9539" x="412.376" y="1012.8108">-value: String</text><line style="stroke:#181818;stroke-width:0.4;" x1="408.376" x2="529.2237" y1="1018.3733" y2="1018.3733"/><text fill="#000000" font-family="sans-serif" font-size="11.2" lengthAdjust="spacing" textLength="112.8477" x="412.376" y="1032.4014">+Email(value: String)</text></g><!--class Credential--><g class="entity" data-qualified-name="domain.Credential" data-source-line="61" id="ent0014"><rect fill="#F1F1F1" height="64.7813" rx="2" ry="2" style="stroke:#181818;stroke-width:0.4;" width="231.1609" x="558.016" y="973.1826"/><ellipse cx="642.366" cy="985.9826" fill="#C2C2C2" rx="8.8" ry="8.8" style="stroke:#181818;stroke-width:0.8;"/><path d="M644.7445,990.4971 Q644.2797,990.7361 643.7683,990.8557 Q643.257,990.9752 642.6926,990.9752 Q640.6871,990.9752 639.6312,989.6537 Q638.5754,988.3322 638.5754,985.8354 Q638.5754,983.3318 639.6312,982.0104 Q640.6871,980.6889 642.6926,980.6889 Q643.257,980.6889 643.775,980.8084 Q644.293,980.9279 644.7445,981.167 L644.7445,983.3451 Q644.2398,982.8803 643.765,982.6645 Q643.2902,982.4486 642.7855,982.4486 Q641.7098,982.4486 641.1619,983.302 Q640.614,984.1553 640.614,985.8354 Q640.614,987.5088 641.1619,988.3621 Q641.7098,989.2154 642.7855,989.2154 Q643.2902,989.2154 643.765,988.9996 Q644.2398,988.7838 644.7445,988.319 Z " fill="#000000"/><text fill="#000000" font-family="sans-serif" font-size="11.2" lengthAdjust="spacing" textLength="55.6609" x="658.766" y="990.2154">Credential</text><line style="stroke:#181818;stroke-width:0.4;" x1="558.816" x2="788.3769" y1="998.7826" y2="998.7826"/><text fill="#000000" font-family="sans-serif" font-size="11.2" lengthAdjust="spacing" textLength="124.4141" x="562.816" y="1012.8108">-passwordHash: String</text><line style="stroke:#181818;stroke-width:0.4;" x1="558.816" x2="788.3769" y1="1018.3733" y2="1018.3733"/><text fill="#000000" font-family="sans-serif" font-size="11.2" lengthAdjust="spacing" textLength="221.5609" x="562.816" y="1032.4014">+matches(rawPassword: String): boolean</text></g><!--class Role--><g class="entity" data-qualified-name="domain.Role" data-source-line="66" id="ent0015"><rect fill="#F1F1F1" height="77.9719" rx="2" ry="2" style="stroke:#181818;stroke-width:0.4;" width="280.6695" x="817.264" y="966.5906"/><ellipse cx="942.4792" cy="979.3906" fill="#C2C2C2" rx="8.8" ry="8.8" style="stroke:#181818;stroke-width:0.8;"/><path d="M944.8578,983.9051 Q944.3929,984.1441 943.8816,984.2637 Q943.3703,984.3832 942.8058,984.3832 Q940.8003,984.3832 939.7445,983.0617 Q938.6886,981.7402 938.6886,979.2434 Q938.6886,976.7398 939.7445,975.4184 Q940.8003,974.0969 942.8058,974.0969 Q943.3703,974.0969 943.8882,974.2164 Q944.4062,974.3359 944.8578,974.575 L944.8578,976.7531 Q944.3531,976.2883 943.8783,976.0725 Q943.4035,975.8566 942.8988,975.8566 Q941.823,975.8566 941.2751,976.71 Q940.7273,977.5633 940.7273,979.2434 Q940.7273,980.9168 941.2751,981.7701 Q941.823,982.6234 942.8988,982.6234 Q943.4035,982.6234 943.8783,982.4076 Q944.3531,982.1918 944.8578,981.727 Z " fill="#000000"/><text fill="#000000" font-family="sans-serif" font-size="11.2" lengthAdjust="spacing" textLength="23.4391" x="958.8792" y="983.6234">Role</text><line style="stroke:#181818;stroke-width:0.4;" x1="818.064" x2="1097.1335" y1="992.1906" y2="992.1906"/><text fill="#000000" font-family="sans-serif" font-size="11.2" lengthAdjust="spacing" textLength="75.3758" x="822.064" y="1006.2188">-name: String</text><text fill="#000000" font-family="sans-serif" font-size="11.2" lengthAdjust="spacing" textLength="175.4375" x="822.064" y="1019.4094">-permissions: List&lt;Permission&gt;</text><line style="stroke:#181818;stroke-width:0.4;" x1="818.064" x2="1097.1335" y1="1024.9719" y2="1024.9719"/><text fill="#000000" font-family="sans-serif" font-size="11.2" lengthAdjust="spacing" textLength="271.0695" x="822.064" y="1039">+hasPermission(permission: Permission): boolean</text></g><!--class Permission--><g class="entity" data-qualified-name="domain.Permission" data-source-line="72" id="ent0016"><rect fill="#F1F1F1" height="51.5906" rx="2" ry="2" style="stroke:#181818;stroke-width:0.4;" width="84.9758" x="915.112" y="1093.3586"/><ellipse cx="927.1939" cy="1106.1586" fill="#C2C2C2" rx="8.8" ry="8.8" style="stroke:#181818;stroke-width:0.8;"/><path d="M929.5724,1110.6731 Q929.1076,1110.9121 928.5963,1111.0317 Q928.0849,1111.1512 927.5205,1111.1512 Q925.515,1111.1512 924.4591,1109.8297 Q923.4033,1108.5082 923.4033,1106.0114 Q923.4033,1103.5078 924.4591,1102.1864 Q925.515,1100.8649 927.5205,1100.8649 Q928.0849,1100.8649 928.6029,1100.9844 Q929.1209,1101.1039 929.5724,1101.343 L929.5724,1103.5211 Q929.0677,1103.0563 928.5929,1102.8405 Q928.1181,1102.6246 927.6134,1102.6246 Q926.5377,1102.6246 925.9898,1103.478 Q925.442,1104.3313 925.442,1106.0114 Q925.442,1107.6848 925.9898,1108.5381 Q926.5377,1109.3914 927.6134,1109.3914 Q928.1181,1109.3914 928.5929,1109.1756 Q929.0677,1108.9598 929.5724,1108.495 Z " fill="#000000"/><text fill="#000000" font-family="sans-serif" font-size="11.2" lengthAdjust="spacing" textLength="59.1938" x="938.4121" y="1110.3914">Permission</text><line style="stroke:#181818;stroke-width:0.4;" x1="915.912" x2="999.2878" y1="1118.9586" y2="1118.9586"/><text fill="#000000" font-family="sans-serif" font-size="11.2" lengthAdjust="spacing" textLength="75.3758" x="919.912" y="1132.9868">-name: String</text><line style="stroke:#181818;stroke-width:0.4;" x1="915.912" x2="999.2878" y1="1138.5493" y2="1138.5493"/></g><!--class SecurityClearance--><g class="entity" data-qualified-name="domain.SecurityClearance" data-source-line="76" id="ent0017"><rect fill="#F1F1F1" height="64.7813" rx="2" ry="2" style="stroke:#181818;stroke-width:0.4;" width="236.6133" x="1125.696" y="973.1826"/><ellipse cx="1192.639" cy="985.9826" fill="#C2C2C2" rx="8.8" ry="8.8" style="stroke:#181818;stroke-width:0.8;"/><path d="M1195.0175,990.4971 Q1194.5526,990.7361 1194.0413,990.8557 Q1193.53,990.9752 1192.9655,990.9752 Q1190.9601,990.9752 1189.9042,989.6537 Q1188.8483,988.3322 1188.8483,985.8354 Q1188.8483,983.3318 1189.9042,982.0104 Q1190.9601,980.6889 1192.9655,980.6889 Q1193.53,980.6889 1194.048,980.8084 Q1194.5659,980.9279 1195.0175,981.167 L1195.0175,983.3451 Q1194.5128,982.8803 1194.038,982.6645 Q1193.5632,982.4486 1193.0585,982.4486 Q1191.9827,982.4486 1191.4349,983.302 Q1190.887,984.1553 1190.887,985.8354 Q1190.887,987.5088 1191.4349,988.3621 Q1191.9827,989.2154 1193.0585,989.2154 Q1193.5632,989.2154 1194.038,988.9996 Q1194.5128,988.7838 1195.0175,988.319 Z " fill="#000000"/><text fill="#000000" font-family="sans-serif" font-size="11.2" lengthAdjust="spacing" textLength="95.9273" x="1209.039" y="990.2154">SecurityClearance</text><line style="stroke:#181818;stroke-width:0.4;" x1="1126.496" x2="1361.5093" y1="998.7826" y2="998.7826"/><text fill="#000000" font-family="sans-serif" font-size="11.2" lengthAdjust="spacing" textLength="147.0055" x="1130.496" y="1012.8108">-expirationDate: LocalDate</text><line style="stroke:#181818;stroke-width:0.4;" x1="1126.496" x2="1361.5093" y1="1018.3733" y2="1018.3733"/><text fill="#000000" font-family="sans-serif" font-size="11.2" lengthAdjust="spacing" textLength="227.0133" x="1130.496" y="1032.4014">+isValid(currentDate: LocalDate): boolean</text></g><!--class SkillsAssessment--><g class="entity" data-qualified-name="domain.SkillsAssessment" data-source-line="81" id="ent0018"><rect fill="#F1F1F1" height="64.7813" rx="2" ry="2" style="stroke:#181818;stroke-width:0.4;" width="236.6133" x="1390.496" y="973.1826"/><ellipse cx="1459.0823" cy="985.9826" fill="#C2C2C2" rx="8.8" ry="8.8" style="stroke:#181818;stroke-width:0.8;"/><path d="M1461.4608,990.4971 Q1460.996,990.7361 1460.4847,990.8557 Q1459.9733,990.9752 1459.4089,990.9752 Q1457.4034,990.9752 1456.3476,989.6537 Q1455.2917,988.3322 1455.2917,985.8354 Q1455.2917,983.3318 1456.3476,982.0104 Q1457.4034,980.6889 1459.4089,980.6889 Q1459.9733,980.6889 1460.4913,980.8084 Q1461.0093,980.9279 1461.4608,981.167 L1461.4608,983.3451 Q1460.9562,982.8803 1460.4814,982.6645 Q1460.0065,982.4486 1459.5019,982.4486 Q1458.4261,982.4486 1457.8782,983.302 Q1457.3304,984.1553 1457.3304,985.8354 Q1457.3304,987.5088 1457.8782,988.3621 Q1458.4261,989.2154 1459.5019,989.2154 Q1460.0065,989.2154 1460.4814,988.9996 Q1460.9562,988.7838 1461.4608,988.319 Z " fill="#000000"/><text fill="#000000" font-family="sans-serif" font-size="11.2" lengthAdjust="spacing" textLength="92.6406" x="1475.4823" y="990.2154">SkillsAssessment</text><line style="stroke:#181818;stroke-width:0.4;" x1="1391.296" x2="1626.3093" y1="998.7826" y2="998.7826"/><text fill="#000000" font-family="sans-serif" font-size="11.2" lengthAdjust="spacing" textLength="175.5469" x="1395.296" y="1012.8108">-lastAssessmentDate: LocalDate</text><line style="stroke:#181818;stroke-width:0.4;" x1="1391.296" x2="1626.3093" y1="1018.3733" y2="1018.3733"/><text fill="#000000" font-family="sans-serif" font-size="11.2" lengthAdjust="spacing" textLength="227.0133" x="1395.296" y="1032.4014">+isValid(currentDate: LocalDate): boolean</text></g><!--class UserRepository--><g class="entity" data-qualified-name="repository.UserRepository" data-source-line="88" id="ent0020"><rect fill="#F1F1F1" height="64.7813" rx="2" ry="2" style="stroke:#181818;stroke-width:0.4;" width="249.8695" x="832.664" y="576.3186"/><ellipse cx="913.2023" cy="589.1186" fill="#B1B1B1" rx="8.8" ry="8.8" style="stroke:#181818;stroke-width:0.8;"/><path d="M909.9445,585.7307 L909.9445,584.0042 L915.848,584.0042 L915.848,585.7307 L913.8757,585.7307 L913.8757,592.1921 L915.848,592.1921 L915.848,593.9186 L909.9445,593.9186 L909.9445,592.1921 L911.9167,592.1921 L911.9167,585.7307 Z " fill="#000000"/><text fill="#000000" font-family="sans-serif" font-size="11.2" font-style="italic" lengthAdjust="spacing" textLength="81.993" x="929.6023" y="593.3514">UserRepository</text><line style="stroke:#181818;stroke-width:0.4;" x1="833.464" x2="1081.7335" y1="601.9186" y2="601.9186"/><line style="stroke:#181818;stroke-width:0.4;" x1="833.464" x2="1081.7335" y1="608.3186" y2="608.3186"/><text fill="#000000" font-family="sans-serif" font-size="11.2" lengthAdjust="spacing" textLength="240.2695" x="837.464" y="622.3468">+findByEmail(email: Email): Optional&lt;User&gt;</text><text fill="#000000" font-family="sans-serif" font-size="11.2" lengthAdjust="spacing" textLength="125.032" x="837.464" y="635.5374">+save(user: User): void</text></g><!--link AuthenticationUI to AuthenticationController--><g class="link" data-entity-1="ent0003" data-entity-2="ent0006" data-link-type="dependency" data-source-line="94" id="lnk21"><path codeLine="94" d="M244,202.6866 C244,234.4546 244,269.3346 244,296.5346" fill="none" id="AuthenticationUI-to-AuthenticationController" style="stroke:#181818;stroke-width:0.8;"/><polygon fill="#181818" points="244,301.3346,247.2,294.1346,244,297.3346,240.8,294.1346,244,301.3346" style="stroke:#181818;stroke-width:0.8;"/><polygon fill="#000000" points="248,258.0748,250.3511,250.8388,245.6489,250.8388,248,258.0748" style="stroke:#000000;stroke-width:0.8;"/><text fill="#000000" font-family="sans-serif" font-size="10.4" lengthAdjust="spacing" textLength="22.8516" x="255.2" y="258.0053">uses</text></g><!--link AuthenticationController to AuthenticationService--><g class="link" data-entity-1="ent0006" data-entity-2="ent0008" data-link-type="dependency" data-source-line="95" id="lnk22"><path codeLine="95" d="M238.992,366.4146 C235.168,390.6066 230.7097,418.7695 227.1577,441.2335" fill="none" id="AuthenticationController-to-AuthenticationService" style="stroke:#181818;stroke-width:0.8;"/><polygon fill="#181818" points="226.408,445.9746,230.6932,439.3628,227.0327,442.0237,224.3718,438.3632,226.408,445.9746" style="stroke:#181818;stroke-width:0.8;"/><polygon fill="#000000" points="237.8711,402.8017,241.3238,396.0218,236.6793,395.2872,237.8711,402.8017" style="stroke:#000000;stroke-width:0.8;"/><text fill="#000000" font-family="sans-serif" font-size="10.4" lengthAdjust="spacing" textLength="22.8516" x="245.696" y="402.7813">uses</text></g><!--link AuthenticationController to AuthorizationService--><g class="link" data-entity-1="ent0006" data-entity-2="ent0009" data-link-type="dependency" data-source-line="96" id="lnk23"><path codeLine="96" d="M332.104,366.6786 C398.768,390.8386 484.5593,421.9389 546.3113,444.3229" fill="none" id="AuthenticationController-to-AuthorizationService" style="stroke:#181818;stroke-width:0.8;"/><polygon fill="#181818" points="550.824,445.9586,545.1455,440.4965,547.0634,444.5955,542.9645,446.5134,550.824,445.9586" style="stroke:#181818;stroke-width:0.8;"/><polygon fill="#000000" points="440.1606,400.2139,434.1588,395.5377,432.5564,399.9585,440.1606,400.2139" style="stroke:#000000;stroke-width:0.8;"/><text fill="#000000" font-family="sans-serif" font-size="10.4" lengthAdjust="spacing" textLength="22.8516" x="443.6" y="402.7813">uses</text></g><!--link AuthenticationService to UserRepository--><g class="link" data-entity-1="ent0008" data-entity-2="ent0020" data-link-type="dependency" data-source-line="97" id="lnk24"><path codeLine="97" d="M426.416,496.5906 C589.176,515.5826 791.512,539.4626 800.8,541.9186 C832.064,550.1906 860.8939,561.4869 888.6619,573.9669" fill="none" id="AuthenticationService-to-UserRepository" style="stroke:#181818;stroke-width:0.8;"/><polygon fill="#181818" points="893.04,575.9346,887.7846,570.0643,889.3915,574.2949,885.161,575.9018,893.04,575.9346" style="stroke:#181818;stroke-width:0.8;"/><polygon fill="#000000" points="753.5931,529.5032,746.8445,525.9897,746.0682,530.6275,753.5931,529.5032" style="stroke:#000000;stroke-width:0.8;"/><text fill="#000000" font-family="sans-serif" font-size="10.4" lengthAdjust="spacing" textLength="43.9715" x="756.848" y="532.7733">searches</text></g><!--link AuthenticationService to AuthenticatedUserSession--><g class="link" data-entity-1="ent0008" data-entity-2="ent0010" data-link-type="dependency" data-source-line="98" id="lnk25"><path codeLine="98" d="M222.4,498.3106 C222.4,520.3106 222.4,547.4386 222.4,571.1666" fill="none" id="AuthenticationService-to-AuthenticatedUserSession" style="stroke:#181818;stroke-width:0.8;"/><polygon fill="#181818" points="222.4,575.9666,225.6,568.7666,222.4,571.9666,219.2,568.7666,222.4,575.9666" style="stroke:#181818;stroke-width:0.8;"/><polygon fill="#000000" points="226.4,532.8428,228.7511,525.6068,224.0489,525.6068,226.4,532.8428" style="stroke:#000000;stroke-width:0.8;"/><text fill="#000000" font-family="sans-serif" font-size="10.4" lengthAdjust="spacing" textLength="36.1055" x="233.6" y="532.7733">creates</text></g><!--link AuthenticationService to User--><g class="link" data-entity-1="ent0008" data-entity-2="ent0012" data-link-type="dependency" data-source-line="99" id="lnk26"><path codeLine="99" d="M276.16,498.2066 C382.008,547.9746 617.0803,658.516 781.9443,736.044" fill="none" id="AuthenticationService-to-User" style="stroke:#181818;stroke-width:0.8;"/><polygon fill="#181818" points="786.288,738.0866,781.1342,732.1269,782.6683,736.3844,778.4107,737.9185,786.288,738.0866" style="stroke:#181818;stroke-width:0.8;"/><polygon fill="#000000" points="622.1078,610.537,616.56,605.3301,614.5591,609.5854,622.1078,610.537" style="stroke:#000000;stroke-width:0.8;"/><text fill="#000000" font-family="sans-serif" font-size="10.4" lengthAdjust="spacing" textLength="44.4133" x="625.688" y="612.7653">validates</text></g><!--link AuthorizationService to User--><g class="link" data-entity-1="ent0009" data-entity-2="ent0012" data-link-type="dependency" data-source-line="100" id="lnk27"><path codeLine="100" d="M787.824,474.8066 C908.008,480.1266 1055.624,496.1666 1095.2,541.9186 C1140.568,594.3666 1108.0986,660.6782 1061.8026,717.1662" fill="none" id="AuthorizationService-to-User" style="stroke:#181818;stroke-width:0.8;"/><polygon fill="#181818" points="1058.76,720.8786,1065.7989,717.3384,1061.2955,717.7849,1060.849,713.2815,1058.76,720.8786" style="stroke:#181818;stroke-width:0.8;"/><polygon fill="#000000" points="1123.204,611.4851,1119.342,604.9297,1116.2264,608.4518,1123.204,611.4851" style="stroke:#000000;stroke-width:0.8;"/><text fill="#000000" font-family="sans-serif" font-size="10.4" lengthAdjust="spacing" textLength="98.6375" x="1127.408" y="612.7653">checks permissions</text></g><!--link UserRepository to User--><g class="link" data-entity-1="ent0020" data-entity-2="ent0012" data-link-type="dependency" data-source-line="102" id="lnk28"><path codeLine="102" d="M957.6,641.2706 C957.6,662.6386 957.6,687.2626 957.6,715.9986" fill="none" id="UserRepository-to-User" style="stroke:#181818;stroke-width:0.8;"/><polygon fill="#181818" points="957.6,720.7986,960.8,713.5986,957.6,716.7986,954.4,713.5986,957.6,720.7986" style="stroke:#181818;stroke-width:0.8;"/><polygon fill="#000000" points="961.6,677.6268,963.9511,670.3908,959.2489,670.3908,961.6,677.6268" style="stroke:#000000;stroke-width:0.8;"/><text fill="#000000" font-family="sans-serif" font-size="10.4" lengthAdjust="spacing" textLength="43.4738" x="968.8" y="677.5573">retrieves</text></g><!--reverse link User to Email--><g class="link" data-entity-1="ent0012" data-entity-2="ent0013" data-link-type="composition" data-source-line="103" id="lnk29"><path codeLine="103" d="M777.0636,878.4266 C701.8876,904.0026 622.232,933.0546 544,966.5906 C539.424,968.5506 534.736,970.6626 530.048,972.8546" fill="none" id="User-backto-Email" style="stroke:#181818;stroke-width:0.8;"/><polygon fill="#181818" points="786.152,875.3346,780.5771,873.8512,777.0636,878.4266,782.6385,879.9101,786.152,875.3346" style="stroke:#181818;stroke-width:0.8;"/></g><!--reverse link User to Credential--><g class="link" data-entity-1="ent0012" data-entity-2="ent0014" data-link-type="composition" data-source-line="104" id="lnk30"><path codeLine="104" d="M798.8219,923.413 C768.2859,943.253 746.336,957.5106 722.56,972.9586" fill="none" id="User-backto-Credential" style="stroke:#181818;stroke-width:0.8;"/><polygon fill="#181818" points="806.872,918.1826,801.1035,918.1144,798.8219,923.413,804.5904,923.4811,806.872,918.1826" style="stroke:#181818;stroke-width:0.8;"/></g><!--reverse link User to SecurityClearance--><g class="link" data-entity-1="ent0012" data-entity-2="ent0017" data-link-type="composition" data-source-line="105" id="lnk31"><path codeLine="105" d="M1117.6779,923.3823 C1148.4699,943.2223 1170.648,957.5106 1194.624,972.9586" fill="none" id="User-backto-SecurityClearance" style="stroke:#181818;stroke-width:0.8;"/><polygon fill="#181818" points="1109.608,918.1826,1111.9097,923.4724,1117.6779,923.3823,1115.3762,918.0925,1109.608,918.1826" style="stroke:#181818;stroke-width:0.8;"/></g><!--reverse link User to SkillsAssessment--><g class="link" data-entity-1="ent0012" data-entity-2="ent0018" data-link-type="composition" data-source-line="106" id="lnk32"><path codeLine="106" d="M1138.0874,880.6703 C1231.7834,912.0383 1335.232,946.6706 1413.384,972.8306" fill="none" id="User-backto-SkillsAssessment" style="stroke:#181818;stroke-width:0.8;"/><polygon fill="#181818" points="1128.984,877.6226,1132.5198,882.1809,1138.0874,880.6703,1134.5516,876.112,1128.984,877.6226" style="stroke:#181818;stroke-width:0.8;"/></g><!--reverse link User to Role--><g class="link" data-entity-1="ent0012" data-entity-2="ent0015" data-link-type="aggregation" data-source-line="107" id="lnk33"><path codeLine="107" d="M957.6,927.7826 C957.6,944.8626 957.6,952.0786 957.6,966.2866" fill="none" id="User-backto-Role" style="stroke:#181818;stroke-width:0.8;"/><polygon fill="none" points="957.6,918.1826,954.4,922.9826,957.6,927.7826,960.8,922.9826,957.6,918.1826" style="stroke:#181818;stroke-width:0.8;"/><text fill="#000000" font-family="sans-serif" font-size="10.4" lengthAdjust="spacing" textLength="6.5762" x="951.0199" y="934.2996">1</text><text fill="#000000" font-family="sans-serif" font-size="10.4" lengthAdjust="spacing" textLength="18.1695" x="938.8027" y="957.9899">1..*</text></g><!--reverse link Role to Permission--><g class="link" data-entity-1="ent0015" data-entity-2="ent0016" data-link-type="aggregation" data-source-line="108" id="lnk34"><path codeLine="108" d="M957.6,1054.5106 C957.6,1070.4546 957.6,1078.8946 957.6,1093.1106" fill="none" id="Role-backto-Permission" style="stroke:#181818;stroke-width:0.8;"/><polygon fill="none" points="957.6,1044.9106,954.4,1049.7106,957.6,1054.5106,960.8,1049.7106,957.6,1044.9106" style="stroke:#181818;stroke-width:0.8;"/><text fill="#000000" font-family="sans-serif" font-size="10.4" lengthAdjust="spacing" textLength="6.5762" x="950.782" y="1061.0738">1</text><text fill="#000000" font-family="sans-serif" font-size="10.4" lengthAdjust="spacing" textLength="5.0121" x="952.3269" y="1084.582">*</text></g><?plantuml-src jLPBRzim3BxxLmZPnMcNeiLkHX6WImkim1v5W_REs6mYH9OyIKwN3Vtlevp4blpeKg3p9JQ_Zq-HL2ot0jd3_FpJ-MHs7KLcpMK16dAMAwdIbLOvCgjBz902qZKiSMwtfAenjI2NmYUO5MJgcSibUm9XV2GLOCoLjPelIektgP9p_XlPUHJjZR9HoSz8R9J04VjmNJtiJyJegPJPLMbNA2rFmN8b7sxte7ic37FW8c5pSY2NdhmWpMUbimvqIWdyBD7OcSRCcQM0ux47PzmK0hRVq1WAByvtlmSxFSmRhPNkvxr4BrwYbANLIWZKnoGwgzbUmgSC6XB6GVOVEqcF4zycPWy6zPpY9EijYqhJgSHcXmrhaGlKET-pxkftShHGT80WUzA6eX3xd8x9UuvwmrFyRqbJQA5hb_kWPsuE5CpYaambp1aykX3zQGPH1VtSkF22MA9radZi8M6DCqL56IYlK-cRcHltuuabvDWtIIibyNkPBrnW7HGbB0HcOTexY9eNJSA-ScClx-bzwc5fFNm9QmRH8nXCIytjTaP6DSZKHTOM-VGr5y9S6TV1EHaZTaiIdEdDBkfut8txbAt0F8BWMSTVJD-QJ5tJ0L9UAWNXNbytqWhZZJQQpehVtd3L0GSdlm5HOizAh9XnW8wxzfg32emU1l0Bc5MFxHnika8JQtY-wuxgOF2kOm8tG-rPb-BGQqrnfkzOp8RrUbI1KgU5mZdyLN1TRPvMDmIzMhNHSMqJ-cvrNk2Q6BQ1tiszlv8q5ifmg_IslPQujAYVWAhXLjDzpGiMxnENsUVjhZ7zXKK-VnIkPY0kdRf_nWOsw2rfecuKpvhOElya9fFfyAsRk6Lis3GQP7JL3rV8yRgTssT0zG0xlLRP4jgMeDsGlQerUFyaRXsJyDzEYRfn_U2HE_5xN0efNHj_H4afQaNlyJNI7E6cibs9JYQJ_JLLVtgtHIthtWmDrBu6AcHqCMAAqD75sTd9gDerKRLmQe2apSH7Vm40?></g></svg>