<?plantuml 1.2026.2?><svg xmlns="http://www.w3.org/2000/svg" xmlns:xlink="http://www.w3.org/1999/xlink" contentStyleType="text/css" data-diagram-type="CLASS" height="1897px" preserveAspectRatio="none" style="width:2242px;height:1897px;background:#FFFFFF;" version="1.1" viewBox="0 0 2242 1897" width="2242px" zoomAndPan="magnify"><title>US030-CD</title><defs/><g><g class="title" data-source-line="1"><text fill="#000000" font-family="sans-serif" font-size="14" font-weight="bold" lengthAdjust="spacing" textLength="76.0293" x="1075.9854" y="23.5352">US030-CD</text></g><!--cluster ui--><g class="cluster" data-qualified-name="ui" data-source-line="9" id="ent0004"><rect fill="none" height="231.95" rx="2.5" ry="2.5" style="stroke:#000000;stroke-width:1.5;" width="342" x="52" y="44.4883"/><text fill="#000000" font-family="sans-serif" font-size="14" font-weight="bold" lengthAdjust="spacing" textLength="13.7471" x="216.1265" y="60.0234">ui</text></g><!--cluster console--><g class="cluster" data-qualified-name="ui.console" data-source-line="8" id="ent0002"><rect fill="#DDDDDD" height="164.95" rx="2.5" ry="2.5" style="stroke:#000000;stroke-width:1.5;" width="294" x="76" y="87.4883"/><text fill="#000000" font-family="sans-serif" font-size="14" font-weight="bold" lengthAdjust="spacing" textLength="55.2002" x="195.3999" y="103.0234">console</text></g><!--cluster controller--><g class="cluster" data-qualified-name="controller" data-source-line="17" id="ent0005"><rect fill="#DDDDDD" height="181.44" rx="2.5" ry="2.5" style="stroke:#000000;stroke-width:1.5;" width="396" x="25" y="325.4383"/><text fill="#000000" font-family="sans-serif" font-size="14" font-weight="bold" lengthAdjust="spacing" textLength="70.2393" x="187.8804" y="340.9734">controller</text></g><!--cluster application--><g class="cluster" data-qualified-name="application" data-source-line="27" id="ent0007"><rect fill="#DDDDDD" height="418.13" rx="2.5" ry="2.5" style="stroke:#000000;stroke-width:1.5;" width="823" x="7" y="555.8783"/><text fill="#000000" font-family="sans-serif" font-size="14" font-weight="bold" lengthAdjust="spacing" textLength="79.9326" x="378.5337" y="571.4134">application</text></g><!--cluster domain--><g class="cluster" data-qualified-name="domain" data-source-line="53" id="ent0013"><rect fill="none" height="868.67" rx="2.5" ry="2.5" style="stroke:#000000;stroke-width:1.5;" width="2131" x="105" y="1023.0083"/><text fill="#000000" font-family="sans-serif" font-size="14" font-weight="bold" lengthAdjust="spacing" textLength="53.7715" x="1143.6143" y="1038.5434">domain</text></g><!--cluster user--><g class="cluster" data-qualified-name="domain.user" data-source-line="52" id="ent0011"><rect fill="#DDDDDD" height="641.21" rx="2.5" ry="2.5" style="stroke:#000000;stroke-width:1.5;" width="1677" x="129" y="1066.0083"/><text fill="#000000" font-family="sans-serif" font-size="14" font-weight="bold" lengthAdjust="spacing" textLength="31.6777" x="951.6611" y="1081.5434">user</text></g><!--cluster auth--><g class="cluster" data-qualified-name="domain.auth" data-source-line="109" id="ent0019"><rect fill="#DDDDDD" height="325.42" rx="2.5" ry="2.5" style="stroke:#000000;stroke-width:1.5;" width="382" x="1830" y="1542.2583"/><text fill="#000000" font-family="sans-serif" font-size="14" font-weight="bold" lengthAdjust="spacing" textLength="32.293" x="2004.8535" y="1557.7934">auth</text></g><!--cluster repository--><g class="cluster" data-qualified-name="repository" data-source-line="124" id="ent0022"><rect fill="#DDDDDD" height="164.95" rx="2.5" ry="2.5" style="stroke:#000000;stroke-width:1.5;" width="344" x="854" y="800.8083"/><text fill="#000000" font-family="sans-serif" font-size="14" font-weight="bold" lengthAdjust="spacing" textLength="74.3955" x="988.8022" y="816.3434">repository</text></g><!--class AuthenticationUI--><g class="entity" data-qualified-name="ui.console.AuthenticationUI" data-source-line="9" id="ent0003"><rect fill="#F1F1F1" height="113.9531" rx="2.5" ry="2.5" style="stroke:#181818;stroke-width:0.5;" width="262.2842" x="91.86" y="122.4883"/><ellipse cx="162.1266" cy="138.4883" fill="#C2C2C2" rx="11" ry="11" style="stroke:#181818;stroke-width:1;"/><path d="M165.0997,144.1313 Q164.5187,144.4302 163.8795,144.5796 Q163.2404,144.729 162.5348,144.729 Q160.028,144.729 158.7081,143.0771 Q157.3883,141.4253 157.3883,138.3042 Q157.3883,135.1748 158.7081,133.5229 Q160.028,131.8711 162.5348,131.8711 Q163.2404,131.8711 163.8878,132.0205 Q164.5353,132.1699 165.0997,132.4688 L165.0997,135.1914 Q164.4689,134.6104 163.8754,134.3406 Q163.2819,134.0708 162.651,134.0708 Q161.3063,134.0708 160.6215,135.1375 Q159.9367,136.2041 159.9367,138.3042 Q159.9367,140.396 160.6215,141.4626 Q161.3063,142.5293 162.651,142.5293 Q163.2819,142.5293 163.8754,142.2595 Q164.4689,141.9897 165.0997,141.4087 Z " fill="#000000"/><text fill="#000000" font-family="sans-serif" font-size="14" lengthAdjust="spacing" textLength="113.251" x="182.6266" y="143.7793">AuthenticationUI</text><line style="stroke:#181818;stroke-width:0.5;" x1="92.86" x2="353.1442" y1="154.4883" y2="154.4883"/><text fill="#000000" font-family="sans-serif" font-size="14" lengthAdjust="spacing" textLength="250.2842" x="97.86" y="172.0234">-controller: AuthenticationController</text><text fill="#000000" font-family="sans-serif" font-size="14" lengthAdjust="spacing" textLength="123.252" x="97.86" y="188.5117">-scanner: Scanner</text><line style="stroke:#181818;stroke-width:0.5;" x1="92.86" x2="353.1442" y1="195.4648" y2="195.4648"/><text fill="#000000" font-family="sans-serif" font-size="14" lengthAdjust="spacing" textLength="80.9033" x="97.86" y="213">+run(): void</text><text fill="#000000" font-family="sans-serif" font-size="14" lengthAdjust="spacing" textLength="101.6982" x="97.86" y="229.4883">+logout(): void</text></g><!--class AuthenticationController--><g class="entity" data-qualified-name="controller.AuthenticationController" data-source-line="18" id="ent0006"><rect fill="#F1F1F1" height="130.4414" rx="2.5" ry="2.5" style="stroke:#181818;stroke-width:0.5;" width="363.4697" x="41.27" y="360.4383"/><ellipse cx="134.9155" cy="376.4383" fill="#C2C2C2" rx="11" ry="11" style="stroke:#181818;stroke-width:1;"/><path d="M137.8887,382.0813 Q137.3076,382.3802 136.6684,382.5296 Q136.0293,382.679 135.3237,382.679 Q132.8169,382.679 131.4971,381.0271 Q130.1772,379.3753 130.1772,376.2542 Q130.1772,373.1248 131.4971,371.4729 Q132.8169,369.8211 135.3237,369.8211 Q136.0293,369.8211 136.6767,369.9705 Q137.3242,370.1199 137.8887,370.4188 L137.8887,373.1414 Q137.2578,372.5604 136.6643,372.2906 Q136.0708,372.0208 135.4399,372.0208 Q134.0952,372.0208 133.4104,373.0875 Q132.7256,374.1541 132.7256,376.2542 Q132.7256,378.346 133.4104,379.4126 Q134.0952,380.4793 135.4399,380.4793 Q136.0708,380.4793 136.6643,380.2095 Q137.2578,379.9397 137.8887,379.3587 Z " fill="#000000"/><text fill="#000000" font-family="sans-serif" font-size="14" lengthAdjust="spacing" textLength="167.6787" x="155.4155" y="381.7293">AuthenticationController</text><line style="stroke:#181818;stroke-width:0.5;" x1="42.27" x2="403.7397" y1="392.4383" y2="392.4383"/><text fill="#000000" font-family="sans-serif" font-size="14" lengthAdjust="spacing" textLength="308.7314" x="47.27" y="409.9734">-authenticationService: AuthenticationService</text><line style="stroke:#181818;stroke-width:0.5;" x1="42.27" x2="403.7397" y1="416.9266" y2="416.9266"/><text fill="#000000" font-family="sans-serif" font-size="14" lengthAdjust="spacing" textLength="351.4697" x="47.27" y="434.4617">+authenticate(email: String, password: String): User</text><text fill="#000000" font-family="sans-serif" font-size="14" lengthAdjust="spacing" textLength="101.6982" x="47.27" y="450.95">+logout(): void</text><text fill="#000000" font-family="sans-serif" font-size="14" lengthAdjust="spacing" textLength="157.4111" x="47.27" y="467.4383">+isLoggedIn(): boolean</text><text fill="#000000" font-family="sans-serif" font-size="14" lengthAdjust="spacing" textLength="138.8652" x="47.27" y="483.9266">+currentUser(): User</text></g><!--class AuthenticationService--><g class="entity" data-qualified-name="application.AuthenticationService" data-source-line="28" id="ent0008"><rect fill="#F1F1F1" height="146.9297" rx="2.5" ry="2.5" style="stroke:#181818;stroke-width:0.5;" width="400.8896" x="22.56" y="590.8783"/><ellipse cx="145.33" cy="606.8783" fill="#C2C2C2" rx="11" ry="11" style="stroke:#181818;stroke-width:1;"/><path d="M148.3032,612.5213 Q147.7221,612.8202 147.0829,612.9696 Q146.4438,613.119 145.7382,613.119 Q143.2314,613.119 141.9116,611.4671 Q140.5917,609.8153 140.5917,606.6942 Q140.5917,603.5648 141.9116,601.9129 Q143.2314,600.2611 145.7382,600.2611 Q146.4438,600.2611 147.0913,600.4105 Q147.7387,600.5599 148.3032,600.8588 L148.3032,603.5814 Q147.6723,603.0004 147.0788,602.7306 Q146.4853,602.4608 145.8544,602.4608 Q144.5097,602.4608 143.8249,603.5275 Q143.1401,604.5941 143.1401,606.6942 Q143.1401,608.786 143.8249,609.8526 Q144.5097,610.9193 145.8544,610.9193 Q146.4853,610.9193 147.0788,610.6495 Q147.6723,610.3797 148.3032,609.7987 Z " fill="#000000"/><text fill="#000000" font-family="sans-serif" font-size="14" lengthAdjust="spacing" textLength="146.8496" x="165.83" y="612.1693">AuthenticationService</text><line style="stroke:#181818;stroke-width:0.5;" x1="23.56" x2="422.4496" y1="622.8783" y2="622.8783"/><text fill="#000000" font-family="sans-serif" font-size="14" lengthAdjust="spacing" textLength="220.9307" x="28.56" y="640.4134">-userRepository: UserRepository</text><text fill="#000000" font-family="sans-serif" font-size="14" lengthAdjust="spacing" textLength="243.6123" x="28.56" y="656.9017">-session: AuthenticatedUserSession</text><line style="stroke:#181818;stroke-width:0.5;" x1="23.56" x2="422.4496" y1="663.8548" y2="663.8548"/><text fill="#000000" font-family="sans-serif" font-size="14" lengthAdjust="spacing" textLength="388.8896" x="28.56" y="681.39">+authenticate(emailValue: String, password: String): User</text><text fill="#000000" font-family="sans-serif" font-size="14" lengthAdjust="spacing" textLength="101.6982" x="28.56" y="697.8783">+logout(): void</text><text fill="#000000" font-family="sans-serif" font-size="14" lengthAdjust="spacing" textLength="157.4111" x="28.56" y="714.3666">+isLoggedIn(): boolean</text><text fill="#000000" font-family="sans-serif" font-size="14" lengthAdjust="spacing" textLength="138.8652" x="28.56" y="730.8548">+currentUser(): User</text></g><!--class AuthorizationService--><g class="entity" data-qualified-name="application.AuthorizationService" data-source-line="37" id="ent0009"><rect fill="#F1F1F1" height="97.4648" rx="2.5" ry="2.5" style="stroke:#181818;stroke-width:0.5;" width="355.2324" x="458.38" y="615.6083"/><ellipse cx="561.5924" cy="631.6083" fill="#C2C2C2" rx="11" ry="11" style="stroke:#181818;stroke-width:1;"/><path d="M564.5655,637.2513 Q563.9845,637.5502 563.3453,637.6996 Q562.7062,637.849 562.0006,637.849 Q559.4938,637.849 558.1739,636.1971 Q556.8541,634.5453 556.8541,631.4242 Q556.8541,628.2948 558.1739,626.6429 Q559.4938,624.9911 562.0006,624.9911 Q562.7062,624.9911 563.3536,625.1405 Q564.0011,625.2899 564.5655,625.5888 L564.5655,628.3114 Q563.9347,627.7304 563.3412,627.4606 Q562.7477,627.1908 562.1168,627.1908 Q560.7721,627.1908 560.0873,628.2575 Q559.4025,629.3241 559.4025,631.4242 Q559.4025,633.516 560.0873,634.5826 Q560.7721,635.6493 562.1168,635.6493 Q562.7477,635.6493 563.3412,635.3795 Q563.9347,635.1097 564.5655,634.5287 Z " fill="#000000"/><text fill="#000000" font-family="sans-serif" font-size="14" lengthAdjust="spacing" textLength="140.3076" x="582.0924" y="636.8993">AuthorizationService</text><line style="stroke:#181818;stroke-width:0.5;" x1="459.38" x2="812.6124" y1="647.6083" y2="647.6083"/><text fill="#000000" font-family="sans-serif" font-size="14" lengthAdjust="spacing" textLength="243.6123" x="464.38" y="665.1434">-session: AuthenticatedUserSession</text><line style="stroke:#181818;stroke-width:0.5;" x1="459.38" x2="812.6124" y1="672.0966" y2="672.0966"/><text fill="#000000" font-family="sans-serif" font-size="14" lengthAdjust="spacing" textLength="332.6777" x="464.38" y="689.6317">+isAuthorized(permissionName: String): boolean</text><text fill="#000000" font-family="sans-serif" font-size="14" lengthAdjust="spacing" textLength="343.2324" x="464.38" y="706.12">+requirePermission(permissionName: String): void</text></g><!--class AuthenticatedUserSession--><g class="entity" data-qualified-name="application.AuthenticatedUserSession" data-source-line="43" id="ent0010"><rect fill="#F1F1F1" height="130.4414" rx="2.5" ry="2.5" style="stroke:#181818;stroke-width:0.5;" width="208.1074" x="376.95" y="827.5683"/><ellipse cx="391.95" cy="843.5683" fill="#C2C2C2" rx="11" ry="11" style="stroke:#181818;stroke-width:1;"/><path d="M394.9231,849.2113 Q394.3421,849.5102 393.7029,849.6596 Q393.0638,849.809 392.3582,849.809 Q389.8514,849.809 388.5315,848.1571 Q387.2117,846.5053 387.2117,843.3842 Q387.2117,840.2548 388.5315,838.6029 Q389.8514,836.9511 392.3582,836.9511 Q393.0638,836.9511 393.7112,837.1005 Q394.3587,837.2499 394.9231,837.5488 L394.9231,840.2714 Q394.2923,839.6904 393.6988,839.4206 Q393.1053,839.1508 392.4744,839.1508 Q391.1297,839.1508 390.4449,840.2175 Q389.7601,841.2841 389.7601,843.3842 Q389.7601,845.476 390.4449,846.5426 Q391.1297,847.6093 392.4744,847.6093 Q393.1053,847.6093 393.6988,847.3395 Q394.2923,847.0697 394.9231,846.4887 Z " fill="#000000"/><text fill="#000000" font-family="sans-serif" font-size="14" lengthAdjust="spacing" textLength="176.1074" x="405.95" y="848.8593">AuthenticatedUserSession</text><line style="stroke:#181818;stroke-width:0.5;" x1="377.95" x2="584.0574" y1="859.5683" y2="859.5683"/><text fill="#000000" font-family="sans-serif" font-size="14" lengthAdjust="spacing" textLength="126.7314" x="382.95" y="877.1034">-currentUser: User</text><line style="stroke:#181818;stroke-width:0.5;" x1="377.95" x2="584.0574" y1="884.0566" y2="884.0566"/><text fill="#000000" font-family="sans-serif" font-size="14" lengthAdjust="spacing" textLength="157.4111" x="382.95" y="901.5917">+isLoggedIn(): boolean</text><text fill="#000000" font-family="sans-serif" font-size="14" lengthAdjust="spacing" textLength="138.8652" x="382.95" y="918.08">+currentUser(): User</text><text fill="#000000" font-family="sans-serif" font-size="14" lengthAdjust="spacing" textLength="160.4873" x="382.95" y="934.5683">+login(user: User): void</text><text fill="#000000" font-family="sans-serif" font-size="14" lengthAdjust="spacing" textLength="101.6982" x="382.95" y="951.0566">+logout(): void</text></g><!--class User--><g class="entity" data-qualified-name="domain.user.User" data-source-line="53" id="ent0012"><rect fill="#F1F1F1" height="394.2539" rx="2.5" ry="2.5" style="stroke:#181818;stroke-width:0.5;" width="428.0488" x="975.98" y="1101.0083"/><ellipse cx="1170.5718" cy="1117.0083" fill="#C2C2C2" rx="11" ry="11" style="stroke:#181818;stroke-width:1;"/><path d="M1173.5449,1122.6513 Q1172.9639,1122.9502 1172.3247,1123.0996 Q1171.6856,1123.249 1170.98,1123.249 Q1168.4732,1123.249 1167.1533,1121.5971 Q1165.8335,1119.9453 1165.8335,1116.8242 Q1165.8335,1113.6948 1167.1533,1112.0429 Q1168.4732,1110.3911 1170.98,1110.3911 Q1171.6856,1110.3911 1172.333,1110.5405 Q1172.9805,1110.6899 1173.5449,1110.9888 L1173.5449,1113.7114 Q1172.9141,1113.1304 1172.3206,1112.8606 Q1171.7271,1112.5908 1171.0962,1112.5908 Q1169.7515,1112.5908 1169.0667,1113.6575 Q1168.3819,1114.7241 1168.3819,1116.8242 Q1168.3819,1118.916 1169.0667,1119.9826 Q1169.7515,1121.0493 1171.0962,1121.0493 Q1171.7271,1121.0493 1172.3206,1120.7795 Q1172.9141,1120.5097 1173.5449,1119.9287 Z " fill="#000000"/><text fill="#000000" font-family="sans-serif" font-size="14" lengthAdjust="spacing" textLength="30.3652" x="1191.0718" y="1122.2993">User</text><line style="stroke:#181818;stroke-width:0.5;" x1="976.98" x2="1403.0288" y1="1133.0083" y2="1133.0083"/><text fill="#000000" font-family="sans-serif" font-size="14" lengthAdjust="spacing" textLength="90.1387" x="981.98" y="1150.5434">-email: Email</text><text fill="#000000" font-family="sans-serif" font-size="14" lengthAdjust="spacing" textLength="94.2197" x="981.98" y="1167.0317">-name: String</text><text fill="#000000" font-family="sans-serif" font-size="14" lengthAdjust="spacing" textLength="209.9453" x="981.98" y="1183.52">-phoneNumber: PhoneNumber</text><text fill="#000000" font-family="sans-serif" font-size="14" lengthAdjust="spacing" textLength="153.5967" x="981.98" y="1200.0083">-credential: Credential</text><text fill="#000000" font-family="sans-serif" font-size="14" lengthAdjust="spacing" textLength="122.4043" x="981.98" y="1216.4966">-roles: Set&lt;Role&gt;</text><text fill="#000000" font-family="sans-serif" font-size="14" lengthAdjust="spacing" textLength="256.375" x="981.98" y="1232.9848">-securityClearance: SecurityClearance</text><text fill="#000000" font-family="sans-serif" font-size="14" lengthAdjust="spacing" textLength="248.1582" x="981.98" y="1249.4731">-skillsAssessment: SkillsAssessment</text><text fill="#000000" font-family="sans-serif" font-size="14" lengthAdjust="spacing" textLength="124.9268" x="981.98" y="1265.9614">-enabled: boolean</text><line style="stroke:#181818;stroke-width:0.5;" x1="976.98" x2="1403.0288" y1="1272.9145" y2="1272.9145"/><text fill="#000000" font-family="sans-serif" font-size="14" lengthAdjust="spacing" textLength="102.2725" x="981.98" y="1290.4497">+email(): Email</text><text fill="#000000" font-family="sans-serif" font-size="14" lengthAdjust="spacing" textLength="106.3535" x="981.98" y="1306.938">+name(): String</text><text fill="#000000" font-family="sans-serif" font-size="14" lengthAdjust="spacing" textLength="222.0791" x="981.98" y="1323.4263">+phoneNumber(): PhoneNumber</text><text fill="#000000" font-family="sans-serif" font-size="14" lengthAdjust="spacing" textLength="134.5381" x="981.98" y="1339.9145">+roles(): Set&lt;Role&gt;</text><text fill="#000000" font-family="sans-serif" font-size="14" lengthAdjust="spacing" textLength="110.2295" x="981.98" y="1356.4028">+status(): String</text><text fill="#000000" font-family="sans-serif" font-size="14" lengthAdjust="spacing" textLength="148.0322" x="981.98" y="1372.8911">+isEnabled(): boolean</text><text fill="#000000" font-family="sans-serif" font-size="14" lengthAdjust="spacing" textLength="153.4258" x="981.98" y="1389.3794">+isDisabled(): boolean</text><text fill="#000000" font-family="sans-serif" font-size="14" lengthAdjust="spacing" textLength="102.6758" x="981.98" y="1405.8677">+enable(): void</text><text fill="#000000" font-family="sans-serif" font-size="14" lengthAdjust="spacing" textLength="106.1826" x="981.98" y="1422.3559">+disable(): void</text><text fill="#000000" font-family="sans-serif" font-size="14" lengthAdjust="spacing" textLength="317.4473" x="981.98" y="1438.8442">+matchesPassword(password: String): boolean</text><text fill="#000000" font-family="sans-serif" font-size="14" lengthAdjust="spacing" textLength="338.8369" x="981.98" y="1455.3325">+hasPermission(permission: Permission): boolean</text><text fill="#000000" font-family="sans-serif" font-size="14" lengthAdjust="spacing" textLength="416.0488" x="981.98" y="1471.8208">+hasValidSecurityClearance(currentDate: LocalDate): boolean</text><text fill="#000000" font-family="sans-serif" font-size="14" lengthAdjust="spacing" textLength="411.9404" x="981.98" y="1488.3091">+hasValidSkillsAssessment(currentDate: LocalDate): boolean</text></g><!--class Email--><g class="entity" data-qualified-name="domain.user.Email" data-source-line="77" id="ent0014"><rect fill="#F1F1F1" height="97.4648" rx="2.5" ry="2.5" style="stroke:#181818;stroke-width:0.5;" width="153.0596" x="1389.47" y="1585.5083"/><ellipse cx="1443.5081" cy="1601.5083" fill="#C2C2C2" rx="11" ry="11" style="stroke:#181818;stroke-width:1;"/><path d="M1446.4812,1607.1513 Q1445.9002,1607.4502 1445.261,1607.5996 Q1444.6219,1607.749 1443.9163,1607.749 Q1441.4095,1607.749 1440.0896,1606.0971 Q1438.7698,1604.4453 1438.7698,1601.3242 Q1438.7698,1598.1948 1440.0896,1596.5429 Q1441.4095,1594.8911 1443.9163,1594.8911 Q1444.6219,1594.8911 1445.2693,1595.0405 Q1445.9168,1595.1899 1446.4812,1595.4888 L1446.4812,1598.2114 Q1445.8504,1597.6304 1445.2569,1597.3606 Q1444.6634,1597.0908 1444.0325,1597.0908 Q1442.6878,1597.0908 1442.003,1598.1575 Q1441.3181,1599.2241 1441.3181,1601.3242 Q1441.3181,1603.416 1442.003,1604.4826 Q1442.6878,1605.5493 1444.0325,1605.5493 Q1444.6634,1605.5493 1445.2569,1605.2795 Q1445.8504,1605.0097 1446.4812,1604.4287 Z " fill="#000000"/><text fill="#000000" font-family="sans-serif" font-size="14" lengthAdjust="spacing" textLength="36.4834" x="1464.0081" y="1606.7993">Email</text><line style="stroke:#181818;stroke-width:0.5;" x1="1390.47" x2="1541.5296" y1="1617.5083" y2="1617.5083"/><text fill="#000000" font-family="sans-serif" font-size="14" lengthAdjust="spacing" textLength="92.4424" x="1395.47" y="1635.0434">-value: String</text><line style="stroke:#181818;stroke-width:0.5;" x1="1390.47" x2="1541.5296" y1="1641.9966" y2="1641.9966"/><text fill="#000000" font-family="sans-serif" font-size="14" lengthAdjust="spacing" textLength="141.0596" x="1395.47" y="1659.5317">+Email(value: String)</text><text fill="#000000" font-family="sans-serif" font-size="14" lengthAdjust="spacing" textLength="104.5762" x="1395.47" y="1676.02">+value(): String</text></g><!--class PhoneNumber--><g class="entity" data-qualified-name="domain.user.PhoneNumber" data-source-line="83" id="ent0015"><rect fill="#F1F1F1" height="97.4648" rx="2.5" ry="2.5" style="stroke:#181818;stroke-width:0.5;" width="212.5322" x="1577.73" y="1585.5083"/><ellipse cx="1631.7681" cy="1601.5083" fill="#C2C2C2" rx="11" ry="11" style="stroke:#181818;stroke-width:1;"/><path d="M1634.7412,1607.1513 Q1634.1602,1607.4502 1633.521,1607.5996 Q1632.8819,1607.749 1632.1763,1607.749 Q1629.6695,1607.749 1628.3496,1606.0971 Q1627.0298,1604.4453 1627.0298,1601.3242 Q1627.0298,1598.1948 1628.3496,1596.5429 Q1629.6695,1594.8911 1632.1763,1594.8911 Q1632.8819,1594.8911 1633.5293,1595.0405 Q1634.1768,1595.1899 1634.7412,1595.4888 L1634.7412,1598.2114 Q1634.1104,1597.6304 1633.5169,1597.3606 Q1632.9234,1597.0908 1632.2925,1597.0908 Q1630.9478,1597.0908 1630.263,1598.1575 Q1629.5781,1599.2241 1629.5781,1601.3242 Q1629.5781,1603.416 1630.263,1604.4826 Q1630.9478,1605.5493 1632.2925,1605.5493 Q1632.9234,1605.5493 1633.5169,1605.2795 Q1634.1104,1605.0097 1634.7412,1604.4287 Z " fill="#000000"/><text fill="#000000" font-family="sans-serif" font-size="14" lengthAdjust="spacing" textLength="95.9561" x="1652.2681" y="1606.7993">PhoneNumber</text><line style="stroke:#181818;stroke-width:0.5;" x1="1578.73" x2="1789.2622" y1="1617.5083" y2="1617.5083"/><text fill="#000000" font-family="sans-serif" font-size="14" lengthAdjust="spacing" textLength="92.4424" x="1583.73" y="1635.0434">-value: String</text><line style="stroke:#181818;stroke-width:0.5;" x1="1578.73" x2="1789.2622" y1="1641.9966" y2="1641.9966"/><text fill="#000000" font-family="sans-serif" font-size="14" lengthAdjust="spacing" textLength="200.5322" x="1583.73" y="1659.5317">+PhoneNumber(value: String)</text><text fill="#000000" font-family="sans-serif" font-size="14" lengthAdjust="spacing" textLength="104.5762" x="1583.73" y="1676.02">+value(): String</text></g><!--class Credential--><g class="entity" data-qualified-name="domain.user.Credential" data-source-line="89" id="ent0016"><rect fill="#F1F1F1" height="97.4648" rx="2.5" ry="2.5" style="stroke:#181818;stroke-width:0.5;" width="288.9512" x="144.52" y="1585.5083"/><ellipse cx="249.9575" cy="1601.5083" fill="#C2C2C2" rx="11" ry="11" style="stroke:#181818;stroke-width:1;"/><path d="M252.9306,1607.1513 Q252.3496,1607.4502 251.7104,1607.5996 Q251.0713,1607.749 250.3657,1607.749 Q247.8589,1607.749 246.539,1606.0971 Q245.2192,1604.4453 245.2192,1601.3242 Q245.2192,1598.1948 246.539,1596.5429 Q247.8589,1594.8911 250.3657,1594.8911 Q251.0713,1594.8911 251.7187,1595.0405 Q252.3662,1595.1899 252.9306,1595.4888 L252.9306,1598.2114 Q252.2998,1597.6304 251.7063,1597.3606 Q251.1128,1597.0908 250.4819,1597.0908 Q249.1372,1597.0908 248.4524,1598.1575 Q247.7676,1599.2241 247.7676,1601.3242 Q247.7676,1603.416 248.4524,1604.4826 Q249.1372,1605.5493 250.4819,1605.5493 Q251.1128,1605.5493 251.7063,1605.2795 Q252.2998,1605.0097 252.9306,1604.4287 Z " fill="#000000"/><text fill="#000000" font-family="sans-serif" font-size="14" lengthAdjust="spacing" textLength="69.5762" x="270.4575" y="1606.7993">Credential</text><line style="stroke:#181818;stroke-width:0.5;" x1="145.52" x2="432.4712" y1="1617.5083" y2="1617.5083"/><text fill="#000000" font-family="sans-serif" font-size="14" lengthAdjust="spacing" textLength="155.5176" x="150.52" y="1635.0434">-passwordHash: String</text><line style="stroke:#181818;stroke-width:0.5;" x1="145.52" x2="432.4712" y1="1641.9966" y2="1641.9966"/><text fill="#000000" font-family="sans-serif" font-size="14" lengthAdjust="spacing" textLength="226.5566" x="150.52" y="1659.5317">+Credential(rawPassword: String)</text><text fill="#000000" font-family="sans-serif" font-size="14" lengthAdjust="spacing" textLength="276.9512" x="150.52" y="1676.02">+matches(rawPassword: String): boolean</text></g><!--class SecurityClearance--><g class="entity" data-qualified-name="domain.user.SecurityClearance" data-source-line="95" id="ent0017"><rect fill="#F1F1F1" height="97.4648" rx="2.5" ry="2.5" style="stroke:#181818;stroke-width:0.5;" width="327.7998" x="468.1" y="1585.5083"/><ellipse cx="567.7953" cy="1601.5083" fill="#C2C2C2" rx="11" ry="11" style="stroke:#181818;stroke-width:1;"/><path d="M570.7685,1607.1513 Q570.1874,1607.4502 569.5482,1607.5996 Q568.9091,1607.749 568.2035,1607.749 Q565.6967,1607.749 564.3769,1606.0971 Q563.057,1604.4453 563.057,1601.3242 Q563.057,1598.1948 564.3769,1596.5429 Q565.6967,1594.8911 568.2035,1594.8911 Q568.9091,1594.8911 569.5565,1595.0405 Q570.204,1595.1899 570.7685,1595.4888 L570.7685,1598.2114 Q570.1376,1597.6304 569.5441,1597.3606 Q568.9506,1597.0908 568.3197,1597.0908 Q566.975,1597.0908 566.2902,1598.1575 Q565.6054,1599.2241 565.6054,1601.3242 Q565.6054,1603.416 566.2902,1604.4826 Q566.975,1605.5493 568.3197,1605.5493 Q568.9506,1605.5493 569.5441,1605.2795 Q570.1376,1605.0097 570.7685,1604.4287 Z " fill="#000000"/><text fill="#000000" font-family="sans-serif" font-size="14" lengthAdjust="spacing" textLength="119.9092" x="588.2953" y="1606.7993">SecurityClearance</text><line style="stroke:#181818;stroke-width:0.5;" x1="469.1" x2="794.8998" y1="1617.5083" y2="1617.5083"/><text fill="#000000" font-family="sans-serif" font-size="14" lengthAdjust="spacing" textLength="183.7568" x="474.1" y="1635.0434">-expirationDate: LocalDate</text><line style="stroke:#181818;stroke-width:0.5;" x1="469.1" x2="794.8998" y1="1641.9966" y2="1641.9966"/><text fill="#000000" font-family="sans-serif" font-size="14" lengthAdjust="spacing" textLength="315.7998" x="474.1" y="1659.5317">+SecurityClearance(expirationDate: LocalDate)</text><text fill="#000000" font-family="sans-serif" font-size="14" lengthAdjust="spacing" textLength="283.7666" x="474.1" y="1676.02">+isValid(currentDate: LocalDate): boolean</text></g><!--class SkillsAssessment--><g class="entity" data-qualified-name="domain.user.SkillsAssessment" data-source-line="101" id="ent0018"><rect fill="#F1F1F1" height="113.9531" rx="2.5" ry="2.5" style="stroke:#181818;stroke-width:0.5;" width="523.3145" x="831.34" y="1577.2583"/><ellipse cx="1030.8468" cy="1593.2583" fill="#C2C2C2" rx="11" ry="11" style="stroke:#181818;stroke-width:1;"/><path d="M1033.82,1598.9013 Q1033.2389,1599.2002 1032.5998,1599.3496 Q1031.9606,1599.499 1031.255,1599.499 Q1028.7482,1599.499 1027.4284,1597.8471 Q1026.1086,1596.1953 1026.1086,1593.0742 Q1026.1086,1589.9448 1027.4284,1588.2929 Q1028.7482,1586.6411 1031.255,1586.6411 Q1031.9606,1586.6411 1032.6081,1586.7905 Q1033.2555,1586.9399 1033.82,1587.2388 L1033.82,1589.9614 Q1033.1891,1589.3804 1032.5956,1589.1106 Q1032.0021,1588.8408 1031.3713,1588.8408 Q1030.0265,1588.8408 1029.3417,1589.9075 Q1028.6569,1590.9741 1028.6569,1593.0742 Q1028.6569,1595.166 1029.3417,1596.2326 Q1030.0265,1597.2993 1031.3713,1597.2993 Q1032.0021,1597.2993 1032.5956,1597.0295 Q1033.1891,1596.7597 1033.82,1596.1787 Z " fill="#000000"/><text fill="#000000" font-family="sans-serif" font-size="14" lengthAdjust="spacing" textLength="115.8008" x="1051.3468" y="1598.5493">SkillsAssessment</text><line style="stroke:#181818;stroke-width:0.5;" x1="832.34" x2="1353.6545" y1="1609.2583" y2="1609.2583"/><text fill="#000000" font-family="sans-serif" font-size="14" lengthAdjust="spacing" textLength="193.3545" x="837.34" y="1626.7934">-assessmentDate: LocalDate</text><text fill="#000000" font-family="sans-serif" font-size="14" lengthAdjust="spacing" textLength="189.2666" x="837.34" y="1643.2817">-validityPeriodInMonths: int</text><line style="stroke:#181818;stroke-width:0.5;" x1="832.34" x2="1353.6545" y1="1650.2348" y2="1650.2348"/><text fill="#000000" font-family="sans-serif" font-size="14" lengthAdjust="spacing" textLength="511.3145" x="837.34" y="1667.77">+SkillsAssessment(assessmentDate: LocalDate, validityPeriodInMonths: int)</text><text fill="#000000" font-family="sans-serif" font-size="14" lengthAdjust="spacing" textLength="283.7666" x="837.34" y="1684.2583">+isValid(currentDate: LocalDate): boolean</text></g><!--class Role--><g class="entity" data-qualified-name="domain.auth.Role" data-source-line="110" id="ent0020"><rect fill="#F1F1F1" height="113.9531" rx="2.5" ry="2.5" style="stroke:#181818;stroke-width:0.5;" width="350.8369" x="1845.58" y="1577.2583"/><ellipse cx="2002.099" cy="1593.2583" fill="#C2C2C2" rx="11" ry="11" style="stroke:#181818;stroke-width:1;"/><path d="M2005.0722,1598.9013 Q2004.4911,1599.2002 2003.852,1599.3496 Q2003.2128,1599.499 2002.5072,1599.499 Q2000.0004,1599.499 1998.6806,1597.8471 Q1997.3608,1596.1953 1997.3608,1593.0742 Q1997.3608,1589.9448 1998.6806,1588.2929 Q2000.0004,1586.6411 2002.5072,1586.6411 Q2003.2128,1586.6411 2003.8603,1586.7905 Q2004.5077,1586.9399 2005.0722,1587.2388 L2005.0722,1589.9614 Q2004.4413,1589.3804 2003.8478,1589.1106 Q2003.2543,1588.8408 2002.6235,1588.8408 Q2001.2787,1588.8408 2000.5939,1589.9075 Q1999.9091,1590.9741 1999.9091,1593.0742 Q1999.9091,1595.166 2000.5939,1596.2326 Q2001.2787,1597.2993 2002.6235,1597.2993 Q2003.2543,1597.2993 2003.8478,1597.0295 Q2004.4413,1596.7597 2005.0722,1596.1787 Z " fill="#000000"/><text fill="#000000" font-family="sans-serif" font-size="14" lengthAdjust="spacing" textLength="29.2988" x="2022.599" y="1598.5493">Role</text><line style="stroke:#181818;stroke-width:0.5;" x1="1846.58" x2="2195.4169" y1="1609.2583" y2="1609.2583"/><text fill="#000000" font-family="sans-serif" font-size="14" lengthAdjust="spacing" textLength="94.2197" x="1851.58" y="1626.7934">-name: String</text><text fill="#000000" font-family="sans-serif" font-size="14" lengthAdjust="spacing" textLength="215.9883" x="1851.58" y="1643.2817">-permissions: Set&lt;Permission&gt;</text><line style="stroke:#181818;stroke-width:0.5;" x1="1846.58" x2="2195.4169" y1="1650.2348" y2="1650.2348"/><text fill="#000000" font-family="sans-serif" font-size="14" lengthAdjust="spacing" textLength="106.3535" x="1851.58" y="1667.77">+name(): String</text><text fill="#000000" font-family="sans-serif" font-size="14" lengthAdjust="spacing" textLength="338.8369" x="1851.58" y="1684.2583">+hasPermission(permission: Permission): boolean</text></g><!--class Permission--><g class="entity" data-qualified-name="domain.auth.Permission" data-source-line="117" id="ent0021"><rect fill="#F1F1F1" height="97.4648" rx="2.5" ry="2.5" style="stroke:#181818;stroke-width:0.5;" width="192.3457" x="1924.83" y="1754.2183"/><ellipse cx="1979.7568" cy="1770.2183" fill="#C2C2C2" rx="11" ry="11" style="stroke:#181818;stroke-width:1;"/><path d="M1982.7299,1775.8613 Q1982.1488,1776.1602 1981.5097,1776.3096 Q1980.8705,1776.459 1980.165,1776.459 Q1977.6581,1776.459 1976.3383,1774.8071 Q1975.0185,1773.1553 1975.0185,1770.0342 Q1975.0185,1766.9048 1976.3383,1765.2529 Q1977.6581,1763.6011 1980.165,1763.6011 Q1980.8705,1763.6011 1981.518,1763.7505 Q1982.1654,1763.8999 1982.7299,1764.1988 L1982.7299,1766.9214 Q1982.099,1766.3404 1981.5055,1766.0706 Q1980.912,1765.8008 1980.2812,1765.8008 Q1978.9364,1765.8008 1978.2516,1766.8675 Q1977.5668,1767.9341 1977.5668,1770.0342 Q1977.5668,1772.126 1978.2516,1773.1926 Q1978.9364,1774.2593 1980.2812,1774.2593 Q1980.912,1774.2593 1981.5055,1773.9895 Q1982.099,1773.7197 1982.7299,1773.1387 Z " fill="#000000"/><text fill="#000000" font-family="sans-serif" font-size="14" lengthAdjust="spacing" textLength="73.9922" x="2000.2568" y="1775.5093">Permission</text><line style="stroke:#181818;stroke-width:0.5;" x1="1925.83" x2="2116.1757" y1="1786.2183" y2="1786.2183"/><text fill="#000000" font-family="sans-serif" font-size="14" lengthAdjust="spacing" textLength="94.2197" x="1930.83" y="1803.7534">-name: String</text><line style="stroke:#181818;stroke-width:0.5;" x1="1925.83" x2="2116.1757" y1="1810.7066" y2="1810.7066"/><text fill="#000000" font-family="sans-serif" font-size="14" lengthAdjust="spacing" textLength="180.3457" x="1930.83" y="1828.2417">+Permission(name: String)</text><text fill="#000000" font-family="sans-serif" font-size="14" lengthAdjust="spacing" textLength="106.3535" x="1930.83" y="1844.73">+name(): String</text></g><!--class UserRepository--><g class="entity" data-qualified-name="repository.UserRepository" data-source-line="125" id="ent0023"><rect fill="#F1F1F1" height="113.9531" rx="2.5" ry="2.5" style="stroke:#181818;stroke-width:0.5;" width="312.3369" x="869.83" y="835.8083"/><ellipse cx="970.5029" cy="851.8083" fill="#B1B1B1" rx="11" ry="11" style="stroke:#181818;stroke-width:1;"/><path d="M966.4306,847.5734 L966.4306,845.4152 L973.81,845.4152 L973.81,847.5734 L971.3446,847.5734 L971.3446,855.6501 L973.81,855.6501 L973.81,857.8083 L966.4306,857.8083 L966.4306,855.6501 L968.8959,855.6501 L968.8959,847.5734 Z " fill="#000000"/><text fill="#000000" font-family="sans-serif" font-size="14" font-style="italic" lengthAdjust="spacing" textLength="102.4912" x="991.0029" y="857.0993">UserRepository</text><line style="stroke:#181818;stroke-width:0.5;" x1="870.83" x2="1181.1669" y1="867.8083" y2="867.8083"/><line style="stroke:#181818;stroke-width:0.5;" x1="870.83" x2="1181.1669" y1="875.8083" y2="875.8083"/><text fill="#000000" font-family="sans-serif" font-size="14" lengthAdjust="spacing" textLength="300.3369" x="875.83" y="893.3434">+findByEmail(email: Email): Optional&lt;User&gt;</text><text fill="#000000" font-family="sans-serif" font-size="14" lengthAdjust="spacing" textLength="257.2021" x="875.83" y="909.8317">+existsByEmail(email: Email): boolean</text><text fill="#000000" font-family="sans-serif" font-size="14" lengthAdjust="spacing" textLength="150.0488" x="875.83" y="926.32">+findAll(): List&lt;User&gt;</text><text fill="#000000" font-family="sans-serif" font-size="14" lengthAdjust="spacing" textLength="157.9512" x="875.83" y="942.8083">+save(user: User): User</text></g><!--link AuthenticationUI to AuthenticationController--><g class="link" data-entity-1="ent0003" data-entity-2="ent0006" data-link-type="dependency" data-source-line="133" id="lnk24"><path codeLine="133" d="M223,236.7883 C223,273.5583 223,315.6583 223,353.9783" fill="none" id="AuthenticationUI-to-AuthenticationController" style="stroke:#181818;stroke-width:1;"/><polygon fill="#181818" points="223,359.9783,227,350.9783,223,354.9783,219,350.9783,223,359.9783" style="stroke:#181818;stroke-width:1;"/><polygon fill="#000000" points="228,306.0936,230.9389,297.0485,225.0611,297.0485,228,306.0936" style="stroke:#000000;stroke-width:1;"/><text fill="#000000" font-family="sans-serif" font-size="13" lengthAdjust="spacing" textLength="28.5645" x="237" y="306.0066">uses</text></g><!--link AuthenticationController to AuthenticationService--><g class="link" data-entity-1="ent0006" data-entity-2="ent0008" data-link-type="dependency" data-source-line="134" id="lnk25"><path codeLine="134" d="M223,491.3383 C223,521.9983 223,552.7483 223,584.3983" fill="none" id="AuthenticationController-to-AuthenticationService" style="stroke:#181818;stroke-width:1;"/><polygon fill="#181818" points="223,590.3983,227,581.3983,223,585.3983,219,581.3983,223,590.3983" style="stroke:#181818;stroke-width:1;"/><polygon fill="#000000" points="228,536.5336,230.9389,527.4885,225.0611,527.4885,228,536.5336" style="stroke:#000000;stroke-width:1;"/><text fill="#000000" font-family="sans-serif" font-size="13" lengthAdjust="spacing" textLength="28.5645" x="237" y="536.4466">uses</text></g><!--link AuthenticationService to UserRepository--><g class="link" data-entity-1="ent0008" data-entity-2="ent0023" data-link-type="dependency" data-source-line="135" id="lnk26"><path codeLine="135" d="M423.65,733.5283 C429.48,735.0383 435.27,736.4683 441,737.8083 C610.98,777.7283 663.4,740.5383 830,792.8083 C863.83,803.4183 893.61,816.6331 924.62,832.6631" fill="none" id="AuthenticationService-to-UserRepository" style="stroke:#181818;stroke-width:1;"/><polygon fill="#181818" points="929.95,835.4183,923.7918,827.7321,925.5083,833.1223,920.1182,834.8388,929.95,835.4183" style="stroke:#181818;stroke-width:1;"/><polygon fill="#000000" points="811.1049,777.4342,802.8024,772.7953,801.6614,778.5613,811.1049,777.4342" style="stroke:#000000;stroke-width:1;"/><text fill="#000000" font-family="sans-serif" font-size="13" lengthAdjust="spacing" textLength="54.9644" x="815.2" y="781.3766">searches</text></g><!--link AuthenticationService to AuthenticatedUserSession--><g class="link" data-entity-1="ent0008" data-entity-2="ent0010" data-link-type="dependency" data-source-line="136" id="lnk27"><path codeLine="136" d="M306.05,738.2383 C338.76,766.9383 371.4803,795.6607 403.1703,823.4707" fill="none" id="AuthenticationService-to-AuthenticatedUserSession" style="stroke:#181818;stroke-width:1;"/><polygon fill="#181818" points="407.68,827.4283,403.5538,818.4854,403.9219,824.1303,398.277,824.4984,407.68,827.4283" style="stroke:#181818;stroke-width:1;"/><polygon fill="#000000" points="360.758,779.7616,355.8982,771.5865,352.0211,776.0043,360.758,779.7616" style="stroke:#000000;stroke-width:1;"/><text fill="#000000" font-family="sans-serif" font-size="13" lengthAdjust="spacing" textLength="50.3433" x="366" y="781.3766">updates</text></g><!--link AuthorizationService to AuthenticatedUserSession--><g class="link" data-entity-1="ent0009" data-entity-2="ent0010" data-link-type="dependency" data-source-line="137" id="lnk28"><path codeLine="137" d="M603.13,713.3683 C580.47,746.4683 553.4798,785.9076 528.6798,822.1276" fill="none" id="AuthorizationService-to-AuthenticatedUserSession" style="stroke:#181818;stroke-width:1;"/><polygon fill="#181818" points="525.29,827.0783,533.6751,821.9121,528.1148,822.9527,527.0742,817.3924,525.29,827.0783" style="stroke:#181818;stroke-width:1;"/><polygon fill="#000000" points="565.3257,780.5895,572.8601,774.7857,568.0098,771.4655,565.3257,780.5895" style="stroke:#000000;stroke-width:1;"/><text fill="#000000" font-family="sans-serif" font-size="13" lengthAdjust="spacing" textLength="34.5503" x="577.15" y="781.3766">reads</text></g><!--link AuthorizationService to User--><g class="link" data-entity-1="ent0009" data-entity-2="ent0012" data-link-type="dependency" data-source-line="138" id="lnk29"><path codeLine="138" d="M813.96,681.7683 C960.07,699.3783 1150.4,733.1983 1198,792.8083 C1265.69,877.5683 1267.0251,992.4765 1249.3151,1094.6065" fill="none" id="AuthorizationService-to-User" style="stroke:#181818;stroke-width:1;"/><polygon fill="#181818" points="1248.29,1100.5183,1253.7689,1092.334,1249.1443,1095.5918,1245.8865,1090.9672,1248.29,1100.5183" style="stroke:#181818;stroke-width:1;"/><polygon fill="#000000" points="1266.5881,896.384,1262.047,888.0276,1258.0025,892.2927,1266.5881,896.384" style="stroke:#000000;stroke-width:1;"/><text fill="#000000" font-family="sans-serif" font-size="13" lengthAdjust="spacing" textLength="123.2969" x="1271.96" y="897.8566">checks permissions</text></g><!--link UserRepository to User--><g class="link" data-entity-1="ent0023" data-entity-2="ent0012" data-link-type="dependency" data-source-line="140" id="lnk30"><path codeLine="140" d="M1048.8,949.8683 C1064.95,989.5883 1085.3995,1039.8904 1107.8995,1095.2104" fill="none" id="UserRepository-to-User" style="stroke:#181818;stroke-width:1;"/><polygon fill="#181818" points="1110.16,1100.7683,1110.4745,1090.9244,1108.2762,1096.1367,1103.064,1093.9385,1110.16,1100.7683" style="stroke:#181818;stroke-width:1;"/><polygon fill="#000000" points="1076.8634,1003.2953,1076.1788,993.8094,1070.7339,996.0234,1076.8634,1003.2953" style="stroke:#000000;stroke-width:1;"/><text fill="#000000" font-family="sans-serif" font-size="13" lengthAdjust="spacing" textLength="95.564" x="1083.98" y="1003.5766">retrieves/saves</text></g><!--reverse link User to Email--><g class="link" data-entity-1="ent0012" data-entity-2="ent0014" data-link-type="composition" data-source-line="142" id="lnk31"><path codeLine="142" d="M1359.7918,1504.6705 C1387.3618,1538.0505 1405.97,1560.5683 1426.3,1585.1783" fill="none" id="User-backto-Email" style="stroke:#181818;stroke-width:1;"/><polygon fill="#181818" points="1352.15,1495.4183,1352.8868,1502.5916,1359.7918,1504.6705,1359.055,1497.4971,1352.15,1495.4183" style="stroke:#181818;stroke-width:1;"/></g><!--reverse link User to PhoneNumber--><g class="link" data-entity-1="ent0012" data-entity-2="ent0015" data-link-type="composition" data-source-line="143" id="lnk32"><path codeLine="143" d="M1414.5119,1436.3396 C1466.1719,1469.3496 1510.6,1498.9983 1560,1534.2583 C1582.2,1550.0983 1605.77,1568.4883 1626.33,1585.0883" fill="none" id="User-backto-PhoneNumber" style="stroke:#181818;stroke-width:1;"/><polygon fill="#181818" points="1404.4,1429.8783,1407.3022,1436.4796,1414.5119,1436.3396,1411.6097,1429.7383,1404.4,1429.8783" style="stroke:#181818;stroke-width:1;"/></g><!--reverse link User to Credential--><g class="link" data-entity-1="ent0012" data-entity-2="ent0016" data-link-type="composition" data-source-line="144" id="lnk33"><path codeLine="144" d="M963.9235,1355.818 C813.6335,1396.838 621.55,1456.4083 451,1534.2583 C419.82,1548.4983 387.24,1567.4983 359.54,1585.0483" fill="none" id="User-backto-Credential" style="stroke:#181818;stroke-width:1;"/><polygon fill="#181818" points="975.5,1352.6583,968.6585,1350.3793,963.9235,1355.818,970.765,1358.097,975.5,1352.6583" style="stroke:#181818;stroke-width:1;"/></g><!--reverse link User to SecurityClearance--><g class="link" data-entity-1="ent0012" data-entity-2="ent0017" data-link-type="composition" data-source-line="145" id="lnk34"><path codeLine="145" d="M965.5644,1433.5127 C873.2044,1488.8127 781.11,1543.9583 712.27,1585.1783" fill="none" id="User-backto-SecurityClearance" style="stroke:#181818;stroke-width:1;"/><polygon fill="#181818" points="975.86,1427.3483,968.6574,1426.9986,965.5644,1433.5127,972.767,1433.8624,975.86,1427.3483" style="stroke:#181818;stroke-width:1;"/></g><!--reverse link User to SkillsAssessment--><g class="link" data-entity-1="ent0012" data-entity-2="ent0018" data-link-type="composition" data-source-line="146" id="lnk35"><path codeLine="146" d="M1129.6644,1506.9425 C1121.0044,1536.7725 1116.07,1553.7883 1109.3,1577.0883" fill="none" id="User-backto-SkillsAssessment" style="stroke:#181818;stroke-width:1;"/><polygon fill="#181818" points="1133.01,1495.4183,1127.4958,1500.0652,1129.6644,1506.9425,1135.1786,1502.2956,1133.01,1495.4183" style="stroke:#181818;stroke-width:1;"/></g><!--reverse link User to Role--><g class="link" data-entity-1="ent0012" data-entity-2="ent0020" data-link-type="aggregation" data-source-line="147" id="lnk36"><path codeLine="147" d="M1415.7394,1381.1758 C1534.7894,1425.3858 1673.83,1478.6883 1806,1534.2583 C1837.44,1547.4783 1871.09,1562.5283 1902.22,1576.8383" fill="none" id="User-backto-Role" style="stroke:#181818;stroke-width:1;"/><polygon fill="none" points="1404.49,1376.9983,1408.7222,1382.8368,1415.7394,1381.1758,1411.5072,1375.3373,1404.49,1376.9983" style="stroke:#181818;stroke-width:1;"/><text fill="#000000" font-family="sans-serif" font-size="13" lengthAdjust="spacing" textLength="8.2202" x="1412.3458" y="1377.1368">1</text><text fill="#000000" font-family="sans-serif" font-size="13" lengthAdjust="spacing" textLength="22.7119" x="1864.4466" y="1566.5163">1..*</text></g><!--reverse link Role to Permission--><g class="link" data-entity-1="ent0020" data-entity-2="ent0021" data-link-type="aggregation" data-source-line="148" id="lnk37"><path codeLine="148" d="M2021,1703.6783 C2021,1723.8883 2021,1734.4683 2021,1753.9083" fill="none" id="Role-backto-Permission" style="stroke:#181818;stroke-width:1;"/><polygon fill="none" points="2021,1691.6783,2017,1697.6783,2021,1703.6783,2025,1697.6783,2021,1691.6783" style="stroke:#181818;stroke-width:1;"/><text fill="#000000" font-family="sans-serif" font-size="13" lengthAdjust="spacing" textLength="8.2202" x="2012.5504" y="1711.7737">1</text><text fill="#000000" font-family="sans-serif" font-size="13" lengthAdjust="spacing" textLength="6.2651" x="2014.5964" y="1743.5472">*</text></g><?plantuml-src nLTBRzD04BxxLwp2nIMa576BgagbHQ9IWOgetBVsD5brlMjsroa5yT-PNJlsh1yXb0Evn9dtVFFmn0adWTskJjwUB2ukayG-25LommjMQAMpZT45C6Sg89oIPmzy3IltXAe6CiVLMb81k-6vVXHgpUwvj9IJIMxjkND6t5KEhZAjLk87i9CaQOooMIMEaMorX1bxSHa-x6V2y1EKsNdbDg2SoBWJMjrUDKp_MJ3KT4PB2MRP4xneEKJSPbmfBxkg7rhMd9bAfKTBjjKY9rIfrxfo4UDNyej4tmLmIFHTK54MF19QWTcA3Fe9DMGI756350ek92Q6KAlrAwoPjO_Qv3iAPd1heuH7KgiPmbxhzHhogm38dSRAS4NuMMKCklNcKces1eQNfMmYFmIP9hi8bWejVu5IM-6qUQezTRzfMS5Qj14X1haNNzMSlQ1zvRA2_unS3nTjn8z9MFucMs5tvY1FIp2521AVU04als6a1hvLmi1Dgp6jJ0PZlBfHRF7qTdWCG7ukbcs9X4ghrl0p9ZlNs1pgsDiORs1lDqgd6S7t_ekG5S6BaCkDLl2fAkvyZ3VT3ugFWTo3oD7gHVjC172NW4NRu4w_uEDPr2M8a71F5uYRuShlarMVHCKVX9JstFhcAj0FIlSeD575xoJaOsK967XKOnJc0GLFx-4mfpXu_XWIyphHe3v8TSwiuwwoeyQ5VL_7Ejv4mbuAkuTV9peowNcjDi8fkCisO6-QBPAEh9EXdmstewE6SBJFKugulaG-A6tQpCSbpj-INUkCI_-utqYlueVPYCO-L3qQYYtThiHfa4mZxX5X1qQlf94dqYS7-IFo_-2rcyB8wQx87xZTZFZkj5B37s_w7J7idb6nFR0FoX_lfU-bCE5rqgiaSJnie4cjesY0GkSyerFwpHOVH2rvAk9GQ95Zn3WXGkDhuYFULXjSXeAigld0JJff-jK-Y_-GyyWxnTyWu-yKlzeY9APU7krQQDP_joVE3bcwprWuyVIrKd-ETawaKofnj3_I63hJ7dvzvB0yOEuvDdry89B8vknUgFpTKxrqw7iQNNukVPDpUUhLANhmNLXd9xI6QzIxE9VXvNUDYWDpbcyXFadYqtdmHsUnE9l-_x3qvx5bPycan51zTqrEwExONh47vHBl2MxyQjghDNdreSSoH-9EVN3W_a7R0C_twePZRCammkp1ql50fQIN394tWFq6Mx2lVNLQOVPoiMWkcFOdFKnQ8hdAMjhmpEfO_PigS6PlPamZT_Rc-FZbBEo092o2be7KReQItm00?></g></svg>