<?plantuml 1.2026.2?><svg xmlns="http://www.w3.org/2000/svg" xmlns:xlink="http://www.w3.org/1999/xlink" contentStyleType="text/css" data-diagram-type="SEQUENCE" height="798px" preserveAspectRatio="none" style="width:697px;height:798px;background:#FFFFFF;" version="1.1" viewBox="0 0 697 798" width="697px" zoomAndPan="magnify"><defs/><g><g><title>Backoffice Operator</title><rect fill="#FFFFFF" height="615.9238" style="stroke:#181818;stroke-width:1;" width="10" x="84.9956" y="91.4883"/></g><g><title>.System</title><rect fill="#FFFFFF" height="29.3105" style="stroke:#181818;stroke-width:1;" width="10" x="394.5737" y="112.7988"/></g><g><title>.System</title><rect fill="#FFFFFF" height="535.9922" style="stroke:#181818;stroke-width:1;" width="10" x="394.5737" y="171.4199"/></g><rect fill="none" height="133.1973" style="stroke:#000000;stroke-width:1.5;" width="542.8218" x="10" y="567.2148"/><g class="participant-lifeline" data-entity-uid="part1" data-qualified-name="BackofficeOperator" id="part1-lifeline"><g><title>Backoffice Operator</title><rect fill="#000000" fill-opacity="0.00000" height="635.9238" width="8" x="85.9956" y="81.4883"/><line style="stroke:#181818;stroke-width:0.5;stroke-dasharray:5,5;" x1="89" x2="89" y1="81.4883" y2="717.4121"/></g></g><g class="participant-lifeline" data-entity-uid="part2" data-qualified-name="System" id="part2-lifeline"><g><title>.System</title><rect fill="#000000" fill-opacity="0.00000" height="635.9238" width="8" x="395.5737" y="81.4883"/><line style="stroke:#181818;stroke-width:0.5;stroke-dasharray:5,5;" x1="399.3101" x2="399.3101" y1="81.4883" y2="717.4121"/></g></g><g class="participant participant-head" data-entity-uid="part1" data-qualified-name="BackofficeOperator" id="part1-head"><text fill="#000000" font-family="sans-serif" font-size="14" lengthAdjust="spacing" textLength="133.9912" x="20" y="78.5352">Backoffice Operator</text><ellipse cx="89.9956" cy="13.5" fill="#E3E3E3" rx="8" ry="8" style="stroke:#181818;stroke-width:0.5;"/><path d="M89.9956,21.5 L89.9956,48.5 M76.9956,29.5 L102.9956,29.5 M89.9956,48.5 L76.9956,63.5 M89.9956,48.5 L102.9956,63.5" fill="none" style="stroke:#181818;stroke-width:0.5;"/></g><g class="participant participant-tail" data-entity-uid="part1" data-qualified-name="BackofficeOperator" id="part1-tail"><text fill="#000000" font-family="sans-serif" font-size="14" lengthAdjust="spacing" textLength="133.9912" x="20" y="729.9473">Backoffice Operator</text><ellipse cx="89.9956" cy="741.4004" fill="#E3E3E3" rx="8" ry="8" style="stroke:#181818;stroke-width:0.5;"/><path d="M89.9956,749.4004 L89.9956,776.4004 M76.9956,757.4004 L102.9956,757.4004 M89.9956,776.4004 L76.9956,791.4004 M89.9956,776.4004 L102.9956,791.4004" fill="none" style="stroke:#181818;stroke-width:0.5;"/></g><g class="participant participant-head" data-entity-uid="part2" data-qualified-name="System" id="part2-head"><rect fill="#E3E3E3" height="30.4883" rx="2.5" ry="2.5" style="stroke:#181818;stroke-width:0.5;" width="66.5273" x="366.3101" y="50"/><text fill="#000000" font-family="sans-serif" font-size="14" lengthAdjust="spacing" textLength="52.5273" x="373.3101" y="70.5352">:System</text></g><g class="participant participant-tail" data-entity-uid="part2" data-qualified-name="System" id="part2-tail"><rect fill="#E3E3E3" height="30.4883" rx="2.5" ry="2.5" style="stroke:#181818;stroke-width:0.5;" width="66.5273" x="366.3101" y="716.4121"/><text fill="#000000" font-family="sans-serif" font-size="14" lengthAdjust="spacing" textLength="52.5273" x="373.3101" y="736.9473">:System</text></g><g><title>Backoffice Operator</title><rect fill="#FFFFFF" height="615.9238" style="stroke:#181818;stroke-width:1;" width="10" x="84.9956" y="91.4883"/></g><g><title>.System</title><rect fill="#FFFFFF" height="29.3105" style="stroke:#181818;stroke-width:1;" width="10" x="394.5737" y="112.7988"/></g><g><title>.System</title><rect fill="#FFFFFF" height="535.9922" style="stroke:#181818;stroke-width:1;" width="10" x="394.5737" y="171.4199"/></g><g class="message" data-entity-1="part1" data-entity-2="part2" id="msg1"><polygon fill="#181818" points="382.5737,108.7988,392.5737,112.7988,382.5737,116.7988,386.5737,112.7988" style="stroke:#181818;stroke-width:1;"/><line style="stroke:#181818;stroke-width:1;" x1="94.9956" x2="388.5737" y1="112.7988" y2="112.7988"/><text fill="#000000" font-family="sans-serif" font-size="13" font-weight="bold" lengthAdjust="spacing" textLength="8.5757" x="142.1458" y="108.0566">1</text><text fill="#000000" font-family="sans-serif" font-size="13" lengthAdjust="spacing" textLength="192.7021" x="154.7214" y="108.0566">Requests to register an airport</text></g><g class="message" data-entity-1="part2" data-entity-2="part1" id="msg2"><polygon fill="#181818" points="105.9956,138.1094,95.9956,142.1094,105.9956,146.1094,101.9956,142.1094" style="stroke:#181818;stroke-width:1;"/><line style="stroke:#181818;stroke-width:1;stroke-dasharray:2,2;" x1="99.9956" x2="398.5737" y1="142.1094" y2="142.1094"/><text fill="#000000" font-family="sans-serif" font-size="13" font-weight="bold" lengthAdjust="spacing" textLength="8.5757" x="109.4956" y="137.3672">2</text><text fill="#000000" font-family="sans-serif" font-size="13" lengthAdjust="spacing" textLength="263.0024" x="122.0713" y="137.3672">Requests airport data and air control area</text></g><g class="message" data-entity-1="part1" data-entity-2="part2" id="msg3"><polygon fill="#181818" points="382.5737,167.4199,392.5737,171.4199,382.5737,175.4199,386.5737,171.4199" style="stroke:#181818;stroke-width:1;"/><line style="stroke:#181818;stroke-width:1;" x1="94.9956" x2="388.5737" y1="171.4199" y2="171.4199"/><text fill="#000000" font-family="sans-serif" font-size="13" font-weight="bold" lengthAdjust="spacing" textLength="8.5757" x="172.8652" y="166.6777">3</text><text fill="#000000" font-family="sans-serif" font-size="13" lengthAdjust="spacing" textLength="131.2632" x="185.4409" y="166.6777">Provides airport data</text></g><g class="message" data-entity-1="part2" data-entity-2="part2" id="msg4"><line style="stroke:#181818;stroke-width:1;stroke-dasharray:2,2;" x1="404.5737" x2="446.5737" y1="200.7305" y2="200.7305"/><line style="stroke:#181818;stroke-width:1;stroke-dasharray:2,2;" x1="446.5737" x2="446.5737" y1="200.7305" y2="213.7305"/><line style="stroke:#181818;stroke-width:1;stroke-dasharray:2,2;" x1="405.5737" x2="446.5737" y1="213.7305" y2="213.7305"/><polygon fill="#181818" points="415.5737,209.7305,405.5737,213.7305,415.5737,217.7305,411.5737,213.7305" style="stroke:#181818;stroke-width:1;"/><text fill="#000000" font-family="sans-serif" font-size="13" font-weight="bold" lengthAdjust="spacing" textLength="8.5757" x="411.5737" y="195.9883">4</text><text fill="#000000" font-family="sans-serif" font-size="13" lengthAdjust="spacing" textLength="266.4746" x="424.1494" y="195.9883">Check if Backoffice Operator is authorized</text></g><g class="message" data-entity-1="part2" data-entity-2="part2" id="msg5"><line style="stroke:#181818;stroke-width:1;stroke-dasharray:2,2;" x1="404.5737" x2="446.5737" y1="243.041" y2="243.041"/><line style="stroke:#181818;stroke-width:1;stroke-dasharray:2,2;" x1="446.5737" x2="446.5737" y1="243.041" y2="256.041"/><line style="stroke:#181818;stroke-width:1;stroke-dasharray:2,2;" x1="405.5737" x2="446.5737" y1="256.041" y2="256.041"/><polygon fill="#181818" points="415.5737,252.041,405.5737,256.041,415.5737,260.041,411.5737,256.041" style="stroke:#181818;stroke-width:1;"/><text fill="#000000" font-family="sans-serif" font-size="13" font-weight="bold" lengthAdjust="spacing" textLength="8.5757" x="411.5737" y="238.2988">5</text><text fill="#000000" font-family="sans-serif" font-size="13" lengthAdjust="spacing" textLength="150.814" x="424.1494" y="238.2988">Validate air control area</text></g><g class="message" data-entity-1="part2" data-entity-2="part2" id="msg6"><line style="stroke:#181818;stroke-width:1;stroke-dasharray:2,2;" x1="404.5737" x2="446.5737" y1="285.3516" y2="285.3516"/><line style="stroke:#181818;stroke-width:1;stroke-dasharray:2,2;" x1="446.5737" x2="446.5737" y1="285.3516" y2="298.3516"/><line style="stroke:#181818;stroke-width:1;stroke-dasharray:2,2;" x1="405.5737" x2="446.5737" y1="298.3516" y2="298.3516"/><polygon fill="#181818" points="415.5737,294.3516,405.5737,298.3516,415.5737,302.3516,411.5737,298.3516" style="stroke:#181818;stroke-width:1;"/><text fill="#000000" font-family="sans-serif" font-size="13" font-weight="bold" lengthAdjust="spacing" textLength="8.5757" x="411.5737" y="280.6094">6</text><text fill="#000000" font-family="sans-serif" font-size="13" lengthAdjust="spacing" textLength="186.3228" x="424.1494" y="280.6094">Validate airport required data</text></g><g class="message" data-entity-1="part2" data-entity-2="part2" id="msg7"><line style="stroke:#181818;stroke-width:1;stroke-dasharray:2,2;" x1="404.5737" x2="446.5737" y1="327.6621" y2="327.6621"/><line style="stroke:#181818;stroke-width:1;stroke-dasharray:2,2;" x1="446.5737" x2="446.5737" y1="327.6621" y2="340.6621"/><line style="stroke:#181818;stroke-width:1;stroke-dasharray:2,2;" x1="405.5737" x2="446.5737" y1="340.6621" y2="340.6621"/><polygon fill="#181818" points="415.5737,336.6621,405.5737,340.6621,415.5737,344.6621,411.5737,340.6621" style="stroke:#181818;stroke-width:1;"/><text fill="#000000" font-family="sans-serif" font-size="13" font-weight="bold" lengthAdjust="spacing" textLength="8.5757" x="411.5737" y="322.9199">7</text><text fill="#000000" font-family="sans-serif" font-size="13" lengthAdjust="spacing" textLength="118.8599" x="424.1494" y="322.9199">Validate IATA code</text></g><g class="message" data-entity-1="part2" data-entity-2="part2" id="msg8"><line style="stroke:#181818;stroke-width:1;stroke-dasharray:2,2;" x1="404.5737" x2="446.5737" y1="369.9727" y2="369.9727"/><line style="stroke:#181818;stroke-width:1;stroke-dasharray:2,2;" x1="446.5737" x2="446.5737" y1="369.9727" y2="382.9727"/><line style="stroke:#181818;stroke-width:1;stroke-dasharray:2,2;" x1="405.5737" x2="446.5737" y1="382.9727" y2="382.9727"/><polygon fill="#181818" points="415.5737,378.9727,405.5737,382.9727,415.5737,386.9727,411.5737,382.9727" style="stroke:#181818;stroke-width:1;"/><text fill="#000000" font-family="sans-serif" font-size="13" font-weight="bold" lengthAdjust="spacing" textLength="8.5757" x="411.5737" y="365.2305">8</text><text fill="#000000" font-family="sans-serif" font-size="13" lengthAdjust="spacing" textLength="120.7642" x="424.1494" y="365.2305">Validate ICAO code</text></g><g class="message" data-entity-1="part2" data-entity-2="part2" id="msg9"><line style="stroke:#181818;stroke-width:1;stroke-dasharray:2,2;" x1="404.5737" x2="446.5737" y1="412.2832" y2="412.2832"/><line style="stroke:#181818;stroke-width:1;stroke-dasharray:2,2;" x1="446.5737" x2="446.5737" y1="412.2832" y2="425.2832"/><line style="stroke:#181818;stroke-width:1;stroke-dasharray:2,2;" x1="405.5737" x2="446.5737" y1="425.2832" y2="425.2832"/><polygon fill="#181818" points="415.5737,421.2832,405.5737,425.2832,415.5737,429.2832,411.5737,425.2832" style="stroke:#181818;stroke-width:1;"/><text fill="#000000" font-family="sans-serif" font-size="13" font-weight="bold" lengthAdjust="spacing" textLength="8.5757" x="411.5737" y="407.541">9</text><text fill="#000000" font-family="sans-serif" font-size="13" lengthAdjust="spacing" textLength="182.8252" x="424.1494" y="407.541">Check IATA code uniqueness</text></g><g class="message" data-entity-1="part2" data-entity-2="part2" id="msg10"><line style="stroke:#181818;stroke-width:1;stroke-dasharray:2,2;" x1="404.5737" x2="446.5737" y1="454.5938" y2="454.5938"/><line style="stroke:#181818;stroke-width:1;stroke-dasharray:2,2;" x1="446.5737" x2="446.5737" y1="454.5938" y2="467.5938"/><line style="stroke:#181818;stroke-width:1;stroke-dasharray:2,2;" x1="405.5737" x2="446.5737" y1="467.5938" y2="467.5938"/><polygon fill="#181818" points="415.5737,463.5938,405.5737,467.5938,415.5737,471.5938,411.5737,467.5938" style="stroke:#181818;stroke-width:1;"/><text fill="#000000" font-family="sans-serif" font-size="13" font-weight="bold" lengthAdjust="spacing" textLength="17.1514" x="411.5737" y="449.8516">10</text><text fill="#000000" font-family="sans-serif" font-size="13" lengthAdjust="spacing" textLength="184.7295" x="432.7251" y="449.8516">Check ICAO code uniqueness</text></g><g class="message" data-entity-1="part2" data-entity-2="part2" id="msg11"><line style="stroke:#181818;stroke-width:1;stroke-dasharray:2,2;" x1="404.5737" x2="446.5737" y1="496.9043" y2="496.9043"/><line style="stroke:#181818;stroke-width:1;stroke-dasharray:2,2;" x1="446.5737" x2="446.5737" y1="496.9043" y2="509.9043"/><line style="stroke:#181818;stroke-width:1;stroke-dasharray:2,2;" x1="405.5737" x2="446.5737" y1="509.9043" y2="509.9043"/><polygon fill="#181818" points="415.5737,505.9043,405.5737,509.9043,415.5737,513.9043,411.5737,509.9043" style="stroke:#181818;stroke-width:1;"/><text fill="#000000" font-family="sans-serif" font-size="13" font-weight="bold" lengthAdjust="spacing" textLength="17.1514" x="411.5737" y="492.1621">11</text><text fill="#000000" font-family="sans-serif" font-size="13" lengthAdjust="spacing" textLength="128.6416" x="432.7251" y="492.1621">Validate coordinates</text></g><g class="message" data-entity-1="part2" data-entity-2="part2" id="msg12"><line style="stroke:#181818;stroke-width:1;stroke-dasharray:2,2;" x1="404.5737" x2="446.5737" y1="539.2148" y2="539.2148"/><line style="stroke:#181818;stroke-width:1;stroke-dasharray:2,2;" x1="446.5737" x2="446.5737" y1="539.2148" y2="552.2148"/><line style="stroke:#181818;stroke-width:1;stroke-dasharray:2,2;" x1="405.5737" x2="446.5737" y1="552.2148" y2="552.2148"/><polygon fill="#181818" points="415.5737,548.2148,405.5737,552.2148,415.5737,556.2148,411.5737,552.2148" style="stroke:#181818;stroke-width:1;"/><text fill="#000000" font-family="sans-serif" font-size="13" font-weight="bold" lengthAdjust="spacing" textLength="17.1514" x="411.5737" y="534.4727">12</text><text fill="#000000" font-family="sans-serif" font-size="13" lengthAdjust="spacing" textLength="111.5981" x="432.7251" y="534.4727">Validate elevation</text></g><path d="M10,567.2148 L72.1387,567.2148 L72.1387,574.5254 L62.1387,584.5254 L10,584.5254 L10,567.2148" fill="#EEEEEE" style="stroke:#000000;stroke-width:1.5;"/><rect fill="none" height="133.1973" style="stroke:#000000;stroke-width:1.5;" width="542.8218" x="10" y="567.2148"/><text fill="#000000" font-family="sans-serif" font-size="13" font-weight="bold" lengthAdjust="spacing" textLength="17.1387" x="25" y="580.7832">alt</text><text fill="#000000" font-family="sans-serif" font-size="11" font-weight="bold" lengthAdjust="spacing" textLength="119.7593" x="87.1387" y="579.8496">[airport data is valid]</text><g class="message" data-entity-1="part2" data-entity-2="part2" id="msg13"><line style="stroke:#181818;stroke-width:1;stroke-dasharray:2,2;" x1="404.5737" x2="446.5737" y1="605.8359" y2="605.8359"/><line style="stroke:#181818;stroke-width:1;stroke-dasharray:2,2;" x1="446.5737" x2="446.5737" y1="605.8359" y2="618.8359"/><line style="stroke:#181818;stroke-width:1;stroke-dasharray:2,2;" x1="405.5737" x2="446.5737" y1="618.8359" y2="618.8359"/><polygon fill="#181818" points="415.5737,614.8359,405.5737,618.8359,415.5737,622.8359,411.5737,618.8359" style="stroke:#181818;stroke-width:1;"/><text fill="#000000" font-family="sans-serif" font-size="13" font-weight="bold" lengthAdjust="spacing" textLength="17.1514" x="411.5737" y="601.0938">13</text><text fill="#000000" font-family="sans-serif" font-size="13" lengthAdjust="spacing" textLength="98.0967" x="432.7251" y="601.0938">Register airport</text></g><g class="message" data-entity-1="part2" data-entity-2="part1" id="msg14"><polygon fill="#181818" points="105.9956,644.1465,95.9956,648.1465,105.9956,652.1465,101.9956,648.1465" style="stroke:#181818;stroke-width:1;"/><line style="stroke:#181818;stroke-width:1;stroke-dasharray:2,2;" x1="99.9956" x2="393.5737" y1="648.1465" y2="648.1465"/><text fill="#000000" font-family="sans-serif" font-size="13" font-weight="bold" lengthAdjust="spacing" textLength="17.1514" x="138.115" y="643.4043">14</text><text fill="#000000" font-family="sans-serif" font-size="13" lengthAdjust="spacing" textLength="192.188" x="159.2664" y="643.4043">Airport registered successfully</text></g><line style="stroke:#000000;stroke-width:1;stroke-dasharray:2,2;" x1="10" x2="552.8218" y1="657.1465" y2="657.1465"/><text fill="#000000" font-family="sans-serif" font-size="11" font-weight="bold" lengthAdjust="spacing" textLength="130.5605" x="15" y="667.7813">[airport data is invalid]</text><g class="message" data-entity-1="part2" data-entity-2="part1" id="msg15"><polygon fill="#181818" points="105.9956,688.4121,95.9956,692.4121,105.9956,696.4121,101.9956,692.4121" style="stroke:#181818;stroke-width:1;"/><line style="stroke:#181818;stroke-width:1;stroke-dasharray:2,2;" x1="99.9956" x2="393.5737" y1="692.4121" y2="692.4121"/><text fill="#000000" font-family="sans-serif" font-size="13" font-weight="bold" lengthAdjust="spacing" textLength="17.1514" x="163.9055" y="687.6699">15</text><text fill="#000000" font-family="sans-serif" font-size="13" lengthAdjust="spacing" textLength="140.6069" x="185.0569" y="687.6699">Display error message</text></g><?plantuml-src XPF1Rjim38RlUWeYzxv03mEyxhB3qA4TTkSasY4YIov5PyYUVdJiUacZnJx9rC-FloYg73WDADX3drFsUyazWSf8hgmx0_e3TlIgfqWWv1LJ5oy5POyX_-RKGOknNEtGsqZ9qpSgnH1Dv2w1fwGa3aVDQUn_sTAXroom-soLSjko9tWUID22Ey02_-BlOMTyPSy39eNTu-kfAFLdxRmy8_c8IhLaTnk3XqzBAZp2osIxQ07DTk2EBIo02P1boA8NyANQalbWa0hw0hWG8A2Y4SCK09-JIew0GkW2VOHlkVqk-SY1hk5tFQwfJtlo1-0MAfq7DkAe-opyXq8r_IT63bE9crDigSy-nRh2Gc4sV3VbQ_EZiGg1DcHFpVF_PVDfLnICYQVnjDcy9tz7RibN4pvd2PnikI6aI7P1d9DTLjJhsR3c7oUT0_jgb9TrBfUX_22ipc6pTdvEjjwNqNixKZl6U79ap_V61wUgasg1Bro6Y2SW4VllvsVlA0LN6UoBIEMH_WK0?></g></svg>