<?plantuml 1.2026.2?><svg xmlns="http://www.w3.org/2000/svg" xmlns:xlink="http://www.w3.org/1999/xlink" contentStyleType="text/css" data-diagram-type="CLASS" height="1175.2px" preserveAspectRatio="none" style="width:1619px;height:1175px;background:#FFFFFF;" version="1.1" viewBox="0 0 1619 1175" width="1619.2px" zoomAndPan="magnify"><title>US041-CD</title><defs/><g><g class="title" data-source-line="1"><text fill="#000000" font-family="sans-serif" font-size="11.2" font-weight="bold" lengthAdjust="spacing" textLength="60.8234" x="773.5883" y="18.8281">US041-CD</text></g><!--cluster ui--><g class="cluster" data-qualified-name="ui" data-source-line="9" id="ent0004"><rect fill="none" height="225.128" rx="2" ry="2" style="stroke:#000000;stroke-width:1.2;" width="260.8" x="108.8" y="35.5906"/><text fill="#000000" font-family="sans-serif" font-size="11.2" font-weight="bold" lengthAdjust="spacing" textLength="10.9977" x="233.7012" y="48.0188">ui</text></g><!--cluster console--><g class="cluster" data-qualified-name="ui.console" data-source-line="8" id="ent0002"><rect fill="#DDDDDD" height="171.528" rx="2" ry="2" style="stroke:#000000;stroke-width:1.2;" width="222.4" x="128" y="69.9906"/><text fill="#000000" font-family="sans-serif" font-size="11.2" font-weight="bold" lengthAdjust="spacing" textLength="44.1602" x="217.1199" y="82.4188">console</text></g><!--cluster controller--><g class="cluster" data-qualified-name="controller" data-source-line="20" id="ent0005"><rect fill="#DDDDDD" height="92.392" rx="2" ry="2" style="stroke:#000000;stroke-width:1.2;" width="467.2" x="5.6" y="299.9186"/><text fill="#000000" font-family="sans-serif" font-size="11.2" font-weight="bold" lengthAdjust="spacing" textLength="56.1914" x="211.1043" y="312.3468">controller</text></g><!--cluster application--><g class="cluster" data-qualified-name="application" data-source-line="26" id="ent0007"><rect fill="#DDDDDD" height="301.528" rx="2" ry="2" style="stroke:#000000;stroke-width:1.2;" width="677.6" x="5.6" y="431.5106"/><text fill="#000000" font-family="sans-serif" font-size="11.2" font-weight="bold" lengthAdjust="spacing" textLength="63.9461" x="312.427" y="443.9388">application</text></g><!--cluster domain--><g class="cluster" data-qualified-name="domain" data-source-line="51" id="ent0012"><rect fill="#DDDDDD" height="398.696" rx="2" ry="2" style="stroke:#000000;stroke-width:1.2;" width="952.8" x="8.8" y="772.2386"/><text fill="#000000" font-family="sans-serif" font-size="11.2" font-weight="bold" lengthAdjust="spacing" textLength="43.0172" x="463.6914" y="784.6668">domain</text></g><!--cluster repository--><g class="cluster" data-qualified-name="repository" data-source-line="99" id="ent0021"><rect fill="#DDDDDD" height="105.584" rx="2" ry="2" style="stroke:#000000;stroke-width:1.2;" width="912" x="702.4" y="614.2626"/><text fill="#000000" font-family="sans-serif" font-size="11.2" font-weight="bold" lengthAdjust="spacing" textLength="59.5164" x="1128.6418" y="626.6908">repository</text></g><!--class RegisterWeatherDataUI--><g class="entity" data-qualified-name="ui.console.RegisterWeatherDataUI" data-source-line="9" id="ent0003"><rect fill="#F1F1F1" height="130.7344" rx="2" ry="2" style="stroke:#181818;stroke-width:0.4;" width="197.4078" x="140.496" y="97.9906"/><ellipse cx="173.9339" cy="110.7906" fill="#C2C2C2" rx="8.8" ry="8.8" style="stroke:#181818;stroke-width:0.8;"/><path d="M176.3124,115.3051 Q175.8476,115.5441 175.3363,115.6637 Q174.8249,115.7832 174.2605,115.7832 Q172.255,115.7832 171.1992,114.4617 Q170.1433,113.1402 170.1433,110.6434 Q170.1433,108.1398 171.1992,106.8184 Q172.255,105.4969 174.2605,105.4969 Q174.8249,105.4969 175.3429,105.6164 Q175.8609,105.7359 176.3124,105.975 L176.3124,108.1531 Q175.8078,107.6883 175.333,107.4725 Q174.8581,107.2566 174.3535,107.2566 Q173.2777,107.2566 172.7298,108.11 Q172.182,108.9633 172.182,110.6434 Q172.182,112.3168 172.7298,113.1701 Q173.2777,114.0234 174.3535,114.0234 Q174.8581,114.0234 175.333,113.8076 Q175.8078,113.5918 176.3124,113.127 Z " fill="#000000"/><text fill="#000000" font-family="sans-serif" font-size="11.2" lengthAdjust="spacing" textLength="124.168" x="189.8979" y="115.0234">RegisterWeatherDataUI</text><line style="stroke:#181818;stroke-width:0.4;" x1="141.296" x2="337.1038" y1="123.5906" y2="123.5906"/><text fill="#000000" font-family="sans-serif" font-size="11.2" lengthAdjust="spacing" textLength="152.6711" x="145.296" y="137.6188">-airControlAreaCode: String</text><text fill="#000000" font-family="sans-serif" font-size="11.2" lengthAdjust="spacing" textLength="144.2766" x="145.296" y="150.8094">-dateTime: LocalDateTime</text><text fill="#000000" font-family="sans-serif" font-size="11.2" lengthAdjust="spacing" textLength="126.2844" x="145.296" y="164">-windDirection: double</text><text fill="#000000" font-family="sans-serif" font-size="11.2" lengthAdjust="spacing" textLength="109.4516" x="145.296" y="177.1906">-windSpeed: double</text><line style="stroke:#181818;stroke-width:0.4;" x1="141.296" x2="337.1038" y1="182.7531" y2="182.7531"/><text fill="#000000" font-family="sans-serif" font-size="11.2" lengthAdjust="spacing" textLength="82.0969" x="145.296" y="196.7813">+requestData()</text><text fill="#000000" font-family="sans-serif" font-size="11.2" lengthAdjust="spacing" textLength="187.8078" x="145.296" y="209.9719">+displayMessage(message: String)</text><text fill="#000000" font-family="sans-serif" font-size="11.2" lengthAdjust="spacing" textLength="167.7922" x="145.296" y="223.1625">+displayError(message: String)</text></g><!--class RegisterWeatherDataController--><g class="entity" data-qualified-name="controller.RegisterWeatherDataController" data-source-line="21" id="ent0006"><rect fill="#F1F1F1" height="51.5906" rx="2" ry="2" style="stroke:#181818;stroke-width:0.4;" width="441.3359" x="18.536" y="327.9186"/><ellipse cx="151.9489" cy="340.7186" fill="#C2C2C2" rx="8.8" ry="8.8" style="stroke:#181818;stroke-width:0.8;"/><path d="M154.3274,345.2331 Q153.8626,345.4721 153.3512,345.5917 Q152.8399,345.7112 152.2755,345.7112 Q150.27,345.7112 149.2141,344.3897 Q148.1583,343.0682 148.1583,340.5714 Q148.1583,338.0678 149.2141,336.7464 Q150.27,335.4249 152.2755,335.4249 Q152.8399,335.4249 153.3579,335.5444 Q153.8758,335.6639 154.3274,335.903 L154.3274,338.0811 Q153.8227,337.6163 153.3479,337.4005 Q152.8731,337.1846 152.3684,337.1846 Q151.2926,337.1846 150.7448,338.038 Q150.1969,338.8913 150.1969,340.5714 Q150.1969,342.2448 150.7448,343.0981 Q151.2926,343.9514 152.3684,343.9514 Q152.8731,343.9514 153.3479,343.7356 Q153.8227,343.5198 154.3274,343.055 Z " fill="#000000"/><text fill="#000000" font-family="sans-serif" font-size="11.2" lengthAdjust="spacing" textLength="167.7102" x="168.3489" y="344.9514">RegisterWeatherDataController</text><line style="stroke:#181818;stroke-width:0.4;" x1="19.336" x2="459.0719" y1="353.5186" y2="353.5186"/><line style="stroke:#181818;stroke-width:0.4;" x1="19.336" x2="459.0719" y1="359.9186" y2="359.9186"/><text fill="#000000" font-family="sans-serif" font-size="11.2" lengthAdjust="spacing" textLength="431.7359" x="23.336" y="373.9468">+registerWeatherData(request: RegisterWeatherDataRequest): WeatherDataDTO</text></g><!--class RegisterWeatherDataService--><g class="entity" data-qualified-name="application.RegisterWeatherDataService" data-source-line="27" id="ent0008"><rect fill="#F1F1F1" height="51.5906" rx="2" ry="2" style="stroke:#181818;stroke-width:0.4;" width="441.3359" x="18.536" y="485.8946"/><ellipse cx="160.2805" cy="498.6946" fill="#C2C2C2" rx="8.8" ry="8.8" style="stroke:#181818;stroke-width:0.8;"/><path d="M162.659,503.2091 Q162.1942,503.4481 161.6829,503.5677 Q161.1715,503.6872 160.6071,503.6872 Q158.6016,503.6872 157.5458,502.3657 Q156.4899,501.0442 156.4899,498.5474 Q156.4899,496.0438 157.5458,494.7224 Q158.6016,493.4009 160.6071,493.4009 Q161.1715,493.4009 161.6895,493.5204 Q162.2075,493.6399 162.659,493.879 L162.659,496.0571 Q162.1544,495.5923 161.6796,495.3765 Q161.2048,495.1606 160.7001,495.1606 Q159.6243,495.1606 159.0764,496.014 Q158.5286,496.8673 158.5286,498.5474 Q158.5286,500.2208 159.0764,501.0741 Q159.6243,501.9274 160.7001,501.9274 Q161.2048,501.9274 161.6796,501.7116 Q162.1544,501.4958 162.659,501.031 Z " fill="#000000"/><text fill="#000000" font-family="sans-serif" font-size="11.2" lengthAdjust="spacing" textLength="151.0469" x="176.6805" y="502.9274">RegisterWeatherDataService</text><line style="stroke:#181818;stroke-width:0.4;" x1="19.336" x2="459.0719" y1="511.4946" y2="511.4946"/><line style="stroke:#181818;stroke-width:0.4;" x1="19.336" x2="459.0719" y1="517.8946" y2="517.8946"/><text fill="#000000" font-family="sans-serif" font-size="11.2" lengthAdjust="spacing" textLength="431.7359" x="23.336" y="531.9228">+registerWeatherData(request: RegisterWeatherDataRequest): WeatherDataDTO</text></g><!--class AuthorizationService--><g class="entity" data-qualified-name="application.AuthorizationService" data-source-line="31" id="ent0009"><rect fill="#F1F1F1" height="51.5906" rx="2" ry="2" style="stroke:#181818;stroke-width:0.4;" width="333.7547" x="18.72" y="648.8626"/><ellipse cx="126.0743" cy="661.6626" fill="#C2C2C2" rx="8.8" ry="8.8" style="stroke:#181818;stroke-width:0.8;"/><path d="M128.4528,666.1771 Q127.988,666.4161 127.4766,666.5357 Q126.9653,666.6552 126.4009,666.6552 Q124.3954,666.6552 123.3395,665.3337 Q122.2837,664.0122 122.2837,661.5154 Q122.2837,659.0118 123.3395,657.6904 Q124.3954,656.3689 126.4009,656.3689 Q126.9653,656.3689 127.4833,656.4884 Q128.0013,656.6079 128.4528,656.847 L128.4528,659.0251 Q127.9481,658.5603 127.4733,658.3445 Q126.9985,658.1286 126.4938,658.1286 Q125.418,658.1286 124.8702,658.982 Q124.3223,659.8353 124.3223,661.5154 Q124.3223,663.1888 124.8702,664.0421 Q125.418,664.8954 126.4938,664.8954 Q126.9985,664.8954 127.4733,664.6796 Q127.9481,664.4638 128.4528,663.999 Z " fill="#000000"/><text fill="#000000" font-family="sans-serif" font-size="11.2" lengthAdjust="spacing" textLength="112.2461" x="142.4743" y="665.8954">AuthorizationService</text><line style="stroke:#181818;stroke-width:0.4;" x1="19.52" x2="351.6747" y1="674.4626" y2="674.4626"/><line style="stroke:#181818;stroke-width:0.4;" x1="19.52" x2="351.6747" y1="680.8626" y2="680.8626"/><text fill="#000000" font-family="sans-serif" font-size="11.2" lengthAdjust="spacing" textLength="324.1547" x="23.52" y="694.8908">+isAuthorized(user: User, permission: Permission): boolean</text></g><!--class RegisterWeatherDataRequest--><g class="entity" data-qualified-name="application.RegisterWeatherDataRequest" data-source-line="35" id="ent0010"><rect fill="#F1F1F1" height="104.3531" rx="2" ry="2" style="stroke:#181818;stroke-width:0.4;" width="182.2414" x="488.08" y="459.5106"/><ellipse cx="500.08" cy="472.3106" fill="#C2C2C2" rx="8.8" ry="8.8" style="stroke:#181818;stroke-width:0.8;"/><path d="M502.4585,476.8251 Q501.9937,477.0641 501.4823,477.1837 Q500.971,477.3032 500.4066,477.3032 Q498.4011,477.3032 497.3452,475.9817 Q496.2894,474.6602 496.2894,472.1634 Q496.2894,469.6598 497.3452,468.3384 Q498.4011,467.0169 500.4066,467.0169 Q500.971,467.0169 501.489,467.1364 Q502.007,467.2559 502.4585,467.495 L502.4585,469.6731 Q501.9538,469.2083 501.479,468.9925 Q501.0042,468.7766 500.4995,468.7766 Q499.4238,468.7766 498.8759,469.63 Q498.328,470.4833 498.328,472.1634 Q498.328,473.8368 498.8759,474.6901 Q499.4238,475.5434 500.4995,475.5434 Q501.0042,475.5434 501.479,475.3276 Q501.9538,475.1118 502.4585,474.647 Z " fill="#000000"/><text fill="#000000" font-family="sans-serif" font-size="11.2" lengthAdjust="spacing" textLength="156.6414" x="511.28" y="476.5434">RegisterWeatherDataRequest</text><line style="stroke:#181818;stroke-width:0.4;" x1="488.88" x2="669.5214" y1="485.1106" y2="485.1106"/><text fill="#000000" font-family="sans-serif" font-size="11.2" lengthAdjust="spacing" textLength="152.6711" x="492.88" y="499.1388">-airControlAreaCode: String</text><text fill="#000000" font-family="sans-serif" font-size="11.2" lengthAdjust="spacing" textLength="144.2766" x="492.88" y="512.3294">-dateTime: LocalDateTime</text><text fill="#000000" font-family="sans-serif" font-size="11.2" lengthAdjust="spacing" textLength="126.2844" x="492.88" y="525.52">-windDirection: double</text><text fill="#000000" font-family="sans-serif" font-size="11.2" lengthAdjust="spacing" textLength="109.4516" x="492.88" y="538.7106">-windSpeed: double</text><text fill="#000000" font-family="sans-serif" font-size="11.2" lengthAdjust="spacing" textLength="143.8445" x="492.88" y="551.9013">-sourceDescription: String</text><line style="stroke:#181818;stroke-width:0.4;" x1="488.88" x2="669.5214" y1="557.4638" y2="557.4638"/></g><!--class WeatherDataDTO--><g class="entity" data-qualified-name="application.WeatherDataDTO" data-source-line="43" id="ent0011"><rect fill="#F1F1F1" height="91.1625" rx="2" ry="2" style="stroke:#181818;stroke-width:0.4;" width="162.2711" x="380.464" y="629.0786"/><ellipse cx="412.0759" cy="641.8786" fill="#C2C2C2" rx="8.8" ry="8.8" style="stroke:#181818;stroke-width:0.8;"/><path d="M414.4544,646.3931 Q413.9896,646.6321 413.4783,646.7517 Q412.9669,646.8712 412.4025,646.8712 Q410.397,646.8712 409.3411,645.5497 Q408.2853,644.2282 408.2853,641.7314 Q408.2853,639.2278 409.3411,637.9064 Q410.397,636.5849 412.4025,636.5849 Q412.9669,636.5849 413.4849,636.7044 Q414.0029,636.8239 414.4544,637.063 L414.4544,639.2411 Q413.9497,638.7763 413.4749,638.5605 Q413.0001,638.3446 412.4954,638.3446 Q411.4197,638.3446 410.8718,639.198 Q410.324,640.0513 410.324,641.7314 Q410.324,643.4048 410.8718,644.2581 Q411.4197,645.1114 412.4954,645.1114 Q413.0001,645.1114 413.4749,644.8956 Q413.9497,644.6798 414.4544,644.215 Z " fill="#000000"/><text fill="#000000" font-family="sans-serif" font-size="11.2" lengthAdjust="spacing" textLength="93.0891" x="427.6341" y="646.1114">WeatherDataDTO</text><line style="stroke:#181818;stroke-width:0.4;" x1="381.264" x2="541.9351" y1="654.6786" y2="654.6786"/><text fill="#000000" font-family="sans-serif" font-size="11.2" lengthAdjust="spacing" textLength="152.6711" x="385.264" y="668.7068">-airControlAreaCode: String</text><text fill="#000000" font-family="sans-serif" font-size="11.2" lengthAdjust="spacing" textLength="144.2766" x="385.264" y="681.8974">-dateTime: LocalDateTime</text><text fill="#000000" font-family="sans-serif" font-size="11.2" lengthAdjust="spacing" textLength="126.2844" x="385.264" y="695.088">-windDirection: double</text><text fill="#000000" font-family="sans-serif" font-size="11.2" lengthAdjust="spacing" textLength="109.4516" x="385.264" y="708.2786">-windSpeed: double</text><line style="stroke:#181818;stroke-width:0.4;" x1="381.264" x2="541.9351" y1="713.8411" y2="713.8411"/></g><!--class User--><g class="entity" data-qualified-name="domain.User" data-source-line="52" id="ent0013"><rect fill="#F1F1F1" height="77.9719" rx="2" ry="2" style="stroke:#181818;stroke-width:0.4;" width="280.6695" x="35.664" y="813.4306"/><ellipse cx="160.4527" cy="826.2306" fill="#C2C2C2" rx="8.8" ry="8.8" style="stroke:#181818;stroke-width:0.8;"/><path d="M162.8312,830.7451 Q162.3663,830.9841 161.855,831.1037 Q161.3437,831.2232 160.7792,831.2232 Q158.7738,831.2232 157.7179,829.9017 Q156.662,828.5802 156.662,826.0834 Q156.662,823.5798 157.7179,822.2584 Q158.7738,820.9369 160.7792,820.9369 Q161.3437,820.9369 161.8617,821.0564 Q162.3796,821.1759 162.8312,821.415 L162.8312,823.5931 Q162.3265,823.1283 161.8517,822.9125 Q161.3769,822.6966 160.8722,822.6966 Q159.7964,822.6966 159.2486,823.55 Q158.7007,824.4033 158.7007,826.0834 Q158.7007,827.7568 159.2486,828.6101 Q159.7964,829.4634 160.8722,829.4634 Q161.3769,829.4634 161.8517,829.2476 Q162.3265,829.0318 162.8312,828.567 Z " fill="#000000"/><text fill="#000000" font-family="sans-serif" font-size="11.2" lengthAdjust="spacing" textLength="24.2922" x="176.8527" y="830.4634">User</text><line style="stroke:#181818;stroke-width:0.4;" x1="36.464" x2="315.5335" y1="839.0306" y2="839.0306"/><text fill="#000000" font-family="sans-serif" font-size="11.2" lengthAdjust="spacing" textLength="72.1109" x="40.464" y="853.0588">-email: Email</text><text fill="#000000" font-family="sans-serif" font-size="11.2" lengthAdjust="spacing" textLength="100.5703" x="40.464" y="866.2494">-roles: List&lt;Role&gt;</text><line style="stroke:#181818;stroke-width:0.4;" x1="36.464" x2="315.5335" y1="871.8119" y2="871.8119"/><text fill="#000000" font-family="sans-serif" font-size="11.2" lengthAdjust="spacing" textLength="271.0695" x="40.464" y="885.84">+hasPermission(permission: Permission): boolean</text></g><!--class Role--><g class="entity" data-qualified-name="domain.Role" data-source-line="58" id="ent0014"><rect fill="#F1F1F1" height="64.7813" rx="2" ry="2" style="stroke:#181818;stroke-width:0.4;" width="185.0375" x="21.88" y="973.1746"/><ellipse cx="99.2792" cy="985.9746" fill="#C2C2C2" rx="8.8" ry="8.8" style="stroke:#181818;stroke-width:0.8;"/><path d="M101.6577,990.4891 Q101.1929,990.7281 100.6816,990.8477 Q100.1702,990.9672 99.6058,990.9672 Q97.6003,990.9672 96.5445,989.6457 Q95.4886,988.3242 95.4886,985.8274 Q95.4886,983.3238 96.5445,982.0024 Q97.6003,980.6809 99.6058,980.6809 Q100.1702,980.6809 100.6882,980.8004 Q101.2062,980.9199 101.6577,981.159 L101.6577,983.3371 Q101.153,982.8723 100.6782,982.6565 Q100.2034,982.4406 99.6988,982.4406 Q98.623,982.4406 98.0751,983.294 Q97.5273,984.1473 97.5273,985.8274 Q97.5273,987.5008 98.0751,988.3541 Q98.623,989.2074 99.6988,989.2074 Q100.2034,989.2074 100.6782,988.9916 Q101.153,988.7758 101.6577,988.311 Z " fill="#000000"/><text fill="#000000" font-family="sans-serif" font-size="11.2" lengthAdjust="spacing" textLength="23.4391" x="115.6792" y="990.2074">Role</text><line style="stroke:#181818;stroke-width:0.4;" x1="22.68" x2="206.1175" y1="998.7746" y2="998.7746"/><text fill="#000000" font-family="sans-serif" font-size="11.2" lengthAdjust="spacing" textLength="75.3758" x="26.68" y="1012.8028">-name: String</text><text fill="#000000" font-family="sans-serif" font-size="11.2" lengthAdjust="spacing" textLength="175.4375" x="26.68" y="1025.9934">-permissions: List&lt;Permission&gt;</text><line style="stroke:#181818;stroke-width:0.4;" x1="22.68" x2="206.1175" y1="1031.5559" y2="1031.5559"/></g><!--class Permission--><g class="entity" data-qualified-name="domain.Permission" data-source-line="63" id="ent0015"><rect fill="#F1F1F1" height="51.5906" rx="2" ry="2" style="stroke:#181818;stroke-width:0.4;" width="84.9758" x="71.912" y="1106.5426"/><ellipse cx="83.9939" cy="1119.3426" fill="#C2C2C2" rx="8.8" ry="8.8" style="stroke:#181818;stroke-width:0.8;"/><path d="M86.3724,1123.8571 Q85.9076,1124.0961 85.3963,1124.2157 Q84.8849,1124.3352 84.3205,1124.3352 Q82.315,1124.3352 81.2591,1123.0137 Q80.2033,1121.6922 80.2033,1119.1954 Q80.2033,1116.6918 81.2591,1115.3704 Q82.315,1114.0489 84.3205,1114.0489 Q84.8849,1114.0489 85.4029,1114.1684 Q85.9209,1114.2879 86.3724,1114.527 L86.3724,1116.7051 Q85.8677,1116.2403 85.3929,1116.0245 Q84.9181,1115.8086 84.4134,1115.8086 Q83.3377,1115.8086 82.7898,1116.662 Q82.242,1117.5153 82.242,1119.1954 Q82.242,1120.8688 82.7898,1121.7221 Q83.3377,1122.5754 84.4134,1122.5754 Q84.9181,1122.5754 85.3929,1122.3596 Q85.8677,1122.1438 86.3724,1121.679 Z " fill="#000000"/><text fill="#000000" font-family="sans-serif" font-size="11.2" lengthAdjust="spacing" textLength="59.1938" x="95.2121" y="1123.5754">Permission</text><line style="stroke:#181818;stroke-width:0.4;" x1="72.712" x2="156.0878" y1="1132.1426" y2="1132.1426"/><text fill="#000000" font-family="sans-serif" font-size="11.2" lengthAdjust="spacing" textLength="75.3758" x="76.712" y="1146.1708">-name: String</text><line style="stroke:#181818;stroke-width:0.4;" x1="72.712" x2="156.0878" y1="1151.7333" y2="1151.7333"/></g><!--class AirControlArea--><g class="entity" data-qualified-name="domain.AirControlArea" data-source-line="67" id="ent0016"><rect fill="#F1F1F1" height="77.9719" rx="2" ry="2" style="stroke:#181818;stroke-width:0.4;" width="176.2" x="346.296" y="966.5826"/><ellipse cx="390.6202" cy="979.3826" fill="#C2C2C2" rx="8.8" ry="8.8" style="stroke:#181818;stroke-width:0.8;"/><path d="M392.9987,983.8971 Q392.5339,984.1361 392.0226,984.2557 Q391.5112,984.3752 390.9468,984.3752 Q388.9413,984.3752 387.8855,983.0537 Q386.8296,981.7322 386.8296,979.2354 Q386.8296,976.7318 387.8855,975.4104 Q388.9413,974.0889 390.9468,974.0889 Q391.5112,974.0889 392.0292,974.2084 Q392.5472,974.3279 392.9987,974.567 L392.9987,976.7451 Q392.494,976.2803 392.0192,976.0645 Q391.5444,975.8486 391.0398,975.8486 Q389.964,975.8486 389.4161,976.702 Q388.8683,977.5553 388.8683,979.2354 Q388.8683,980.9088 389.4161,981.7621 Q389.964,982.6154 391.0398,982.6154 Q391.5444,982.6154 392.0192,982.3996 Q392.494,982.1838 392.9987,981.719 Z " fill="#000000"/><text fill="#000000" font-family="sans-serif" font-size="11.2" lengthAdjust="spacing" textLength="80.7516" x="407.0202" y="983.6154">AirControlArea</text><line style="stroke:#181818;stroke-width:0.4;" x1="347.096" x2="521.696" y1="992.1826" y2="992.1826"/><text fill="#000000" font-family="sans-serif" font-size="11.2" lengthAdjust="spacing" textLength="71.4492" x="351.096" y="1006.2108">-code: String</text><text fill="#000000" font-family="sans-serif" font-size="11.2" lengthAdjust="spacing" textLength="75.3758" x="351.096" y="1019.4014">-name: String</text><text fill="#000000" font-family="sans-serif" font-size="11.2" lengthAdjust="spacing" textLength="166.6" x="351.096" y="1032.592">-geographicBoundaries: String</text><line style="stroke:#181818;stroke-width:0.4;" x1="347.096" x2="521.696" y1="1038.1545" y2="1038.1545"/></g><!--class WeatherData--><g class="entity" data-qualified-name="domain.WeatherData" data-source-line="73" id="ent0017"><rect fill="#F1F1F1" height="104.3531" rx="2" ry="2" style="stroke:#181818;stroke-width:0.4;" width="604.1625" x="344.32" y="800.2386"/><ellipse cx="608.5427" cy="813.0386" fill="#C2C2C2" rx="8.8" ry="8.8" style="stroke:#181818;stroke-width:0.8;"/><path d="M610.9212,817.5531 Q610.4563,817.7921 609.945,817.9117 Q609.4337,818.0312 608.8692,818.0312 Q606.8638,818.0312 605.8079,816.7097 Q604.752,815.3882 604.752,812.8914 Q604.752,810.3878 605.8079,809.0664 Q606.8638,807.7449 608.8692,807.7449 Q609.4337,807.7449 609.9516,807.8644 Q610.4696,807.9839 610.9212,808.223 L610.9212,810.4011 Q610.4165,809.9363 609.9417,809.7205 Q609.4669,809.5046 608.9622,809.5046 Q607.8864,809.5046 607.3386,810.358 Q606.7907,811.2113 606.7907,812.8914 Q606.7907,814.5648 607.3386,815.4181 Q607.8864,816.2714 608.9622,816.2714 Q609.4669,816.2714 609.9417,816.0556 Q610.4165,815.8398 610.9212,815.375 Z " fill="#000000"/><text fill="#000000" font-family="sans-serif" font-size="11.2" lengthAdjust="spacing" textLength="68.9172" x="624.9427" y="817.2714">WeatherData</text><line style="stroke:#181818;stroke-width:0.4;" x1="345.12" x2="947.6825" y1="825.8386" y2="825.8386"/><text fill="#000000" font-family="sans-serif" font-size="11.2" lengthAdjust="spacing" textLength="173.5289" x="349.12" y="839.8668">-airControlArea: AirControlArea</text><text fill="#000000" font-family="sans-serif" font-size="11.2" lengthAdjust="spacing" textLength="144.2766" x="349.12" y="853.0574">-dateTime: LocalDateTime</text><text fill="#000000" font-family="sans-serif" font-size="11.2" lengthAdjust="spacing" textLength="66.2539" x="349.12" y="866.248">-wind: Wind</text><text fill="#000000" font-family="sans-serif" font-size="11.2" lengthAdjust="spacing" textLength="130.0578" x="349.12" y="879.4386">-source: WeatherSource</text><line style="stroke:#181818;stroke-width:0.4;" x1="345.12" x2="947.6825" y1="885.0011" y2="885.0011"/><text fill="#000000" font-family="sans-serif" font-size="11.2" lengthAdjust="spacing" textLength="594.5625" x="349.12" y="899.0293">+WeatherData(airControlArea: AirControlArea, dateTime: LocalDateTime, wind: Wind, source: WeatherSource)</text></g><!--class Wind--><g class="entity" data-qualified-name="domain.Wind" data-source-line="81" id="ent0018"><rect fill="#F1F1F1" height="104.3531" rx="2" ry="2" style="stroke:#181818;stroke-width:0.4;" width="254.3156" x="550.44" y="953.3906"/><ellipse cx="660.7884" cy="966.1906" fill="#C2C2C2" rx="8.8" ry="8.8" style="stroke:#181818;stroke-width:0.8;"/><path d="M663.167,970.7051 Q662.7021,970.9441 662.1908,971.0637 Q661.6795,971.1832 661.115,971.1832 Q659.1095,971.1832 658.0537,969.8617 Q656.9978,968.5402 656.9978,966.0434 Q656.9978,963.5398 658.0537,962.2184 Q659.1095,960.8969 661.115,960.8969 Q661.6795,960.8969 662.1974,961.0164 Q662.7154,961.1359 663.167,961.375 L663.167,963.5531 Q662.6623,963.0883 662.1875,962.8725 Q661.7127,962.6566 661.208,962.6566 Q660.1322,962.6566 659.5843,963.51 Q659.0365,964.3633 659.0365,966.0434 Q659.0365,967.7168 659.5843,968.5701 Q660.1322,969.4234 661.208,969.4234 Q661.7127,969.4234 662.1875,969.2076 Q662.6623,968.9918 663.167,968.527 Z " fill="#000000"/><text fill="#000000" font-family="sans-serif" font-size="11.2" lengthAdjust="spacing" textLength="26.8188" x="677.1884" y="970.4234">Wind</text><line style="stroke:#181818;stroke-width:0.4;" x1="551.24" x2="803.9556" y1="978.9906" y2="978.9906"/><text fill="#000000" font-family="sans-serif" font-size="11.2" lengthAdjust="spacing" textLength="99.0773" x="555.24" y="993.0188">-direction: double</text><text fill="#000000" font-family="sans-serif" font-size="11.2" lengthAdjust="spacing" textLength="83.2617" x="555.24" y="1006.2094">-speed: double</text><line style="stroke:#181818;stroke-width:0.4;" x1="551.24" x2="803.9556" y1="1011.7719" y2="1011.7719"/><text fill="#000000" font-family="sans-serif" font-size="11.2" lengthAdjust="spacing" textLength="219.4719" x="555.24" y="1025.8">+Wind(direction: double, speed: double)</text><text fill="#000000" font-family="sans-serif" font-size="11.2" lengthAdjust="spacing" textLength="244.7156" x="555.24" y="1038.9906">+isValidDirection(direction: double): boolean</text><text fill="#000000" font-family="sans-serif" font-size="11.2" lengthAdjust="spacing" textLength="212.0672" x="555.24" y="1052.1813">+isValidSpeed(speed: double): boolean</text></g><!--class WeatherSource--><g class="entity" data-qualified-name="domain.WeatherSource" data-source-line="89" id="ent0019"><rect fill="#F1F1F1" height="64.7813" rx="2" ry="2" style="stroke:#181818;stroke-width:0.4;" width="116.0055" x="832.4" y="973.1746"/><ellipse cx="848.9067" cy="985.9746" fill="#C2C2C2" rx="8.8" ry="8.8" style="stroke:#181818;stroke-width:0.8;"/><path d="M851.2852,990.4891 Q850.8204,990.7281 850.309,990.8477 Q849.7977,990.9672 849.2332,990.9672 Q847.2278,990.9672 846.1719,989.6457 Q845.1161,988.3242 845.1161,985.8274 Q845.1161,983.3238 846.1719,982.0024 Q847.2278,980.6809 849.2332,980.6809 Q849.7977,980.6809 850.3157,980.8004 Q850.8336,980.9199 851.2852,981.159 L851.2852,983.3371 Q850.7805,982.8723 850.3057,982.6565 Q849.8309,982.4406 849.3262,982.4406 Q848.2504,982.4406 847.7026,983.294 Q847.1547,984.1473 847.1547,985.8274 Q847.1547,987.5008 847.7026,988.3541 Q848.2504,989.2074 849.3262,989.2074 Q849.8309,989.2074 850.3057,988.9916 Q850.7805,988.7758 851.2852,988.311 Z " fill="#000000"/><text fill="#000000" font-family="sans-serif" font-size="11.2" lengthAdjust="spacing" textLength="80.3906" x="861.1082" y="990.2074">WeatherSource</text><line style="stroke:#181818;stroke-width:0.4;" x1="833.2" x2="947.6055" y1="998.7746" y2="998.7746"/><text fill="#000000" font-family="sans-serif" font-size="11.2" lengthAdjust="spacing" textLength="68.8734" x="837.2" y="1012.8028">-type: String</text><text fill="#000000" font-family="sans-serif" font-size="11.2" lengthAdjust="spacing" textLength="106.4055" x="837.2" y="1025.9934">-description: String</text><line style="stroke:#181818;stroke-width:0.4;" x1="833.2" x2="947.6055" y1="1031.5559" y2="1031.5559"/></g><!--class Email--><g class="entity" data-qualified-name="domain.Email" data-source-line="94" id="ent0020"><rect fill="#F1F1F1" height="51.5906" rx="2" ry="2" style="stroke:#181818;stroke-width:0.4;" width="83.5539" x="235.024" y="979.7746"/><ellipse cx="259.9692" cy="992.5746" fill="#C2C2C2" rx="8.8" ry="8.8" style="stroke:#181818;stroke-width:0.8;"/><path d="M262.3478,997.0891 Q261.8829,997.3281 261.3716,997.4477 Q260.8603,997.5672 260.2958,997.5672 Q258.2903,997.5672 257.2345,996.2457 Q256.1786,994.9242 256.1786,992.4274 Q256.1786,989.9238 257.2345,988.6024 Q258.2903,987.2809 260.2958,987.2809 Q260.8603,987.2809 261.3782,987.4004 Q261.8962,987.5199 262.3478,987.759 L262.3478,989.9371 Q261.8431,989.4723 261.3683,989.2565 Q260.8935,989.0406 260.3888,989.0406 Q259.313,989.0406 258.7651,989.894 Q258.2173,990.7473 258.2173,992.4274 Q258.2173,994.1008 258.7651,994.9541 Q259.313,995.8074 260.3888,995.8074 Q260.8935,995.8074 261.3683,995.5916 Q261.8431,995.3758 262.3478,994.911 Z " fill="#000000"/><text fill="#000000" font-family="sans-serif" font-size="11.2" lengthAdjust="spacing" textLength="29.1867" x="274.046" y="996.8074">Email</text><line style="stroke:#181818;stroke-width:0.4;" x1="235.824" x2="317.7779" y1="1005.3746" y2="1005.3746"/><text fill="#000000" font-family="sans-serif" font-size="11.2" lengthAdjust="spacing" textLength="73.9539" x="239.824" y="1019.4028">-value: String</text><line style="stroke:#181818;stroke-width:0.4;" x1="235.824" x2="317.7779" y1="1024.9653" y2="1024.9653"/></g><!--class AirControlAreaRepository--><g class="entity" data-qualified-name="repository.AirControlAreaRepository" data-source-line="100" id="ent0022"><rect fill="#F1F1F1" height="51.5906" rx="2" ry="2" style="stroke:#181818;stroke-width:0.4;" width="304.3984" x="715" y="648.8626"/><ellipse cx="794.573" cy="661.6626" fill="#B1B1B1" rx="8.8" ry="8.8" style="stroke:#181818;stroke-width:0.8;"/><path d="M791.3152,658.2747 L791.3152,656.5482 L797.2188,656.5482 L797.2188,658.2747 L795.2465,658.2747 L795.2465,664.7361 L797.2188,664.7361 L797.2188,666.4626 L791.3152,666.4626 L791.3152,664.7361 L793.2875,664.7361 L793.2875,658.2747 Z " fill="#000000"/><text fill="#000000" font-family="sans-serif" font-size="11.2" font-style="italic" lengthAdjust="spacing" textLength="138.4523" x="810.973" y="665.8954">AirControlAreaRepository</text><line style="stroke:#181818;stroke-width:0.4;" x1="715.8" x2="1018.5984" y1="674.4626" y2="674.4626"/><line style="stroke:#181818;stroke-width:0.4;" x1="715.8" x2="1018.5984" y1="680.8626" y2="680.8626"/><text fill="#000000" font-family="sans-serif" font-size="11.2" lengthAdjust="spacing" textLength="294.7984" x="719.8" y="694.8908">+findByCode(code: String): Optional&lt;AirControlArea&gt;</text></g><!--class WeatherDataRepository--><g class="entity" data-qualified-name="repository.WeatherDataRepository" data-source-line="104" id="ent0023"><rect fill="#F1F1F1" height="64.7813" rx="2" ry="2" style="stroke:#181818;stroke-width:0.4;" width="554.0742" x="1047.76" y="642.2626"/><ellipse cx="1258.0881" cy="655.0626" fill="#B1B1B1" rx="8.8" ry="8.8" style="stroke:#181818;stroke-width:0.8;"/><path d="M1254.8303,651.6747 L1254.8303,649.9482 L1260.7338,649.9482 L1260.7338,651.6747 L1258.7616,651.6747 L1258.7616,658.1361 L1260.7338,658.1361 L1260.7338,659.8626 L1254.8303,659.8626 L1254.8303,658.1361 L1256.8026,658.1361 L1256.8026,651.6747 Z " fill="#000000"/><text fill="#000000" font-family="sans-serif" font-size="11.2" font-style="italic" lengthAdjust="spacing" textLength="126.618" x="1274.4881" y="659.2954">WeatherDataRepository</text><line style="stroke:#181818;stroke-width:0.4;" x1="1048.56" x2="1601.0342" y1="667.8626" y2="667.8626"/><line style="stroke:#181818;stroke-width:0.4;" x1="1048.56" x2="1601.0342" y1="674.2626" y2="674.2626"/><text fill="#000000" font-family="sans-serif" font-size="11.2" lengthAdjust="spacing" textLength="214.1398" x="1052.56" y="688.2908">+save(weatherData: WeatherData): void</text><text fill="#000000" font-family="sans-serif" font-size="11.2" lengthAdjust="spacing" textLength="544.4742" x="1052.56" y="701.4814">+findByAreaAndDateTime(area: AirControlArea, dateTime: LocalDateTime): Optional&lt;WeatherData&gt;</text></g><!--link RegisterWeatherDataUI to RegisterWeatherDataController--><g class="link" data-entity-1="ent0003" data-entity-2="ent0006" data-link-type="dependency" data-source-line="110" id="lnk24"><path codeLine="110" d="M239.2,229.1186 C239.2,263.0306 239.2,297.7746 239.2,322.8706" fill="none" id="RegisterWeatherDataUI-to-RegisterWeatherDataController" style="stroke:#181818;stroke-width:0.8;"/><polygon fill="#181818" points="239.2,327.6706,242.4,320.4706,239.2,323.6706,236,320.4706,239.2,327.6706" style="stroke:#181818;stroke-width:0.8;"/><polygon fill="#000000" points="243.2,284.4428,245.5511,277.2068,240.8489,277.2068,243.2,284.4428" style="stroke:#000000;stroke-width:0.8;"/><text fill="#000000" font-family="sans-serif" font-size="10.4" lengthAdjust="spacing" textLength="22.8516" x="250.4" y="284.3733">uses</text></g><!--link RegisterWeatherDataController to RegisterWeatherDataService--><g class="link" data-entity-1="ent0006" data-entity-2="ent0008" data-link-type="dependency" data-source-line="111" id="lnk25"><path codeLine="111" d="M239.2,379.6386 C239.2,408.7346 239.2,451.5906 239.2,480.7666" fill="none" id="RegisterWeatherDataController-to-RegisterWeatherDataService" style="stroke:#181818;stroke-width:0.8;"/><polygon fill="#181818" points="239.2,485.5666,242.4,478.3666,239.2,481.5666,236,478.3666,239.2,485.5666" style="stroke:#181818;stroke-width:0.8;"/><polygon fill="#000000" points="243.2,416.0348,245.5511,408.7988,240.8489,408.7988,243.2,416.0348" style="stroke:#000000;stroke-width:0.8;"/><text fill="#000000" font-family="sans-serif" font-size="10.4" lengthAdjust="spacing" textLength="22.8516" x="250.4" y="415.9653">uses</text></g><!--link RegisterWeatherDataService to AuthorizationService--><g class="link" data-entity-1="ent0008" data-entity-2="ent0009" data-link-type="dependency" data-source-line="112" id="lnk26"><path codeLine="112" d="M230.824,537.7026 C220.784,567.9266 205.5685,613.7311 195.5205,643.9951" fill="none" id="RegisterWeatherDataService-to-AuthorizationService" style="stroke:#181818;stroke-width:0.8;"/><polygon fill="#181818" points="194.008,648.5506,199.3137,642.7257,195.2684,644.7544,193.2397,640.7091,194.008,648.5506" style="stroke:#181818;stroke-width:0.8;"/><polygon fill="#000000" points="216.7472,598.5829,221.2593,592.4568,216.7967,590.9746,216.7472,598.5829" style="stroke:#000000;stroke-width:0.8;"/><text fill="#000000" font-family="sans-serif" font-size="10.4" lengthAdjust="spacing" textLength="93.3359" x="225.208" y="598.7173">checks permission</text></g><!--link RegisterWeatherDataService to AirControlAreaRepository--><g class="link" data-entity-1="ent0008" data-entity-2="ent0022" data-link-type="dependency" data-source-line="113" id="lnk27"><path codeLine="113" d="M347.784,537.8786 C387.496,546.7266 432.864,556.3186 474.4,563.8626 C547.224,577.1026 567.536,569.3666 639.2,587.8626 C699.104,603.3346 760.5585,627.313 806.0305,646.641" fill="none" id="RegisterWeatherDataService-to-AirControlAreaRepository" style="stroke:#181818;stroke-width:0.8;"/><polygon fill="#181818" points="810.448,648.5186,805.0735,642.7571,806.7667,646.9539,802.57,648.6471,810.448,648.5186" style="stroke:#181818;stroke-width:0.8;"/><polygon fill="#000000" points="691.8199,595.7106,685.3223,591.7519,684.2365,596.3271,691.8199,595.7106" style="stroke:#000000;stroke-width:0.8;"/><text fill="#000000" font-family="sans-serif" font-size="10.4" lengthAdjust="spacing" textLength="68.3008" x="695.128" y="598.7173">retrieves area</text></g><!--link RegisterWeatherDataService to WeatherDataRepository--><g class="link" data-entity-1="ent0008" data-entity-2="ent0023" data-link-type="dependency" data-source-line="114" id="lnk28"><path codeLine="114" d="M340.808,537.8626 C382.04,547.3266 430.264,557.3426 474.4,563.8626 C721.024,600.3266 787.12,570.4386 1033.6,607.8626 C1089.336,616.3266 1145.5958,628.3936 1197.2518,640.7536" fill="none" id="RegisterWeatherDataService-to-WeatherDataRepository" style="stroke:#181818;stroke-width:0.8;"/><polygon fill="#181818" points="1201.92,641.8706,1195.6623,637.083,1198.0298,640.9398,1194.173,643.3073,1201.92,641.8706" style="stroke:#181818;stroke-width:0.8;"/><polygon fill="#000000" points="985.6994,595.264,978.7955,592.0665,978.2346,596.7352,985.6994,595.264" style="stroke:#000000;stroke-width:0.8;"/><text fill="#000000" font-family="sans-serif" font-size="10.4" lengthAdjust="spacing" textLength="27.5234" x="988.928" y="598.7173">saves</text></g><!--link RegisterWeatherDataService to WeatherData--><g class="link" data-entity-1="ent0008" data-entity-2="ent0017" data-link-type="dependency" data-source-line="115" id="lnk29"><path codeLine="115" d="M363.712,537.8786 C439.952,555.6546 528.216,580.9586 556.8,607.8626 C610.808,658.6946 631.6643,740.1033 640.2083,795.1913" fill="none" id="RegisterWeatherDataService-to-WeatherData" style="stroke:#181818;stroke-width:0.8;"/><polygon fill="#181818" points="640.944,799.9346,643.0027,792.3292,640.3309,795.9819,636.6783,793.3101,640.944,799.9346" style="stroke:#181818;stroke-width:0.8;"/><polygon fill="#000000" points="634.7042,677.5039,631.0088,670.8531,627.8053,674.2954,634.7042,677.5039" style="stroke:#000000;stroke-width:0.8;"/><text fill="#000000" font-family="sans-serif" font-size="10.4" lengthAdjust="spacing" textLength="36.1055" x="638.976" y="678.7093">creates</text></g><!--link RegisterWeatherDataService to WeatherDataDTO--><g class="link" data-entity-1="ent0008" data-entity-2="ent0011" data-link-type="dependency" data-source-line="116" id="lnk30"><path codeLine="116" d="M274.192,537.8786 C307.712,562.1986 355.1389,596.6117 395.6029,625.9717" fill="none" id="RegisterWeatherDataService-to-WeatherDataDTO" style="stroke:#181818;stroke-width:0.8;"/><polygon fill="#181818" points="399.488,628.7906,395.5397,621.9722,396.2505,626.4415,391.7811,627.1523,399.488,628.7906" style="stroke:#181818;stroke-width:0.8;"/><polygon fill="#000000" points="364.3096,597.1359,359.8335,590.9834,357.072,594.7894,364.3096,597.1359" style="stroke:#000000;stroke-width:0.8;"/><text fill="#000000" font-family="sans-serif" font-size="10.4" lengthAdjust="spacing" textLength="36.4051" x="368.272" y="598.7173">returns</text></g><!--link AuthorizationService to User--><g class="link" data-entity-1="ent0009" data-entity-2="ent0013" data-link-type="dependency" data-source-line="118" id="lnk31"><path codeLine="118" d="M184.224,700.6946 C182.624,730.0946 180.2217,774.1818 178.3577,808.3258" fill="none" id="AuthorizationService-to-User" style="stroke:#181818;stroke-width:0.8;"/><polygon fill="#181818" points="178.096,813.1186,181.6837,806.1038,178.314,809.1246,175.2932,805.7549,178.096,813.1186" style="stroke:#181818;stroke-width:0.8;"/><polygon fill="#000000" points="185.4383,756.7569,188.1798,749.6595,183.4845,749.4036,185.4383,756.7569" style="stroke:#000000;stroke-width:0.8;"/><text fill="#000000" font-family="sans-serif" font-size="10.4" lengthAdjust="spacing" textLength="34.2824" x="192.856" y="756.6933">checks</text></g><!--reverse link User to Role--><g class="link" data-entity-1="ent0013" data-entity-2="ent0014" data-link-type="aggregation" data-source-line="119" id="lnk32"><path codeLine="119" d="M156.8405,900.3478 C146.6085,925.5158 136.992,949.1826 127.336,972.9346" fill="none" id="User-backto-Role" style="stroke:#181818;stroke-width:0.8;"/><polygon fill="none" points="160.456,891.4546,155.6839,894.696,156.8405,900.3478,161.6126,897.1064,160.456,891.4546" style="stroke:#181818;stroke-width:0.8;"/><text fill="#000000" font-family="sans-serif" font-size="10.4" lengthAdjust="spacing" textLength="6.5762" x="151.4327" y="907.8603">1</text><text fill="#000000" font-family="sans-serif" font-size="10.4" lengthAdjust="spacing" textLength="18.1695" x="110.4684" y="964.6117">1..*</text></g><!--reverse link Role to Permission--><g class="link" data-entity-1="ent0014" data-entity-2="ent0015" data-link-type="aggregation" data-source-line="120" id="lnk33"><path codeLine="120" d="M114.4,1047.8786 C114.4,1068.9586 114.4,1086.5986 114.4,1106.1906" fill="none" id="Role-backto-Permission" style="stroke:#181818;stroke-width:0.8;"/><polygon fill="none" points="114.4,1038.2786,111.2,1043.0786,114.4,1047.8786,117.6,1043.0786,114.4,1038.2786" style="stroke:#181818;stroke-width:0.8;"/><text fill="#000000" font-family="sans-serif" font-size="10.4" lengthAdjust="spacing" textLength="6.5762" x="107.5042" y="1054.5231">1</text><text fill="#000000" font-family="sans-serif" font-size="10.4" lengthAdjust="spacing" textLength="5.0121" x="109.1484" y="1097.9408">*</text></g><!--reverse link User to Email--><g class="link" data-entity-1="ent0013" data-entity-2="ent0020" data-link-type="composition" data-source-line="121" id="lnk34"><path codeLine="121" d="M206.756,899.4484 C225.068,926.9844 243.944,955.3746 259.92,979.3906" fill="none" id="User-backto-Email" style="stroke:#181818;stroke-width:0.8;"/><polygon fill="#181818" points="201.44,891.4546,201.4334,897.2235,206.756,899.4484,206.7626,893.6795,201.44,891.4546" style="stroke:#181818;stroke-width:0.8;"/></g><!--link WeatherData to AirControlArea--><g class="link" data-entity-1="ent0017" data-entity-2="ent0016" data-link-type="dependency" data-source-line="123" id="lnk35"><path codeLine="123" d="M574.032,904.9426 C545.968,925.0146 518.2887,944.791 492.2727,963.391" fill="none" id="WeatherData-to-AirControlArea" style="stroke:#181818;stroke-width:0.8;"/><polygon fill="#181818" points="488.368,966.1826,496.0862,964.5983,491.6219,963.8563,492.364,959.392,488.368,966.1826" style="stroke:#181818;stroke-width:0.8;"/><text fill="#000000" font-family="sans-serif" font-size="10.4" lengthAdjust="spacing" textLength="5.0121" x="561.5324" y="921.0458">*</text><text fill="#000000" font-family="sans-serif" font-size="10.4" lengthAdjust="spacing" textLength="6.5762" x="489.1202" y="957.8724">1</text></g><!--reverse link WeatherData to Wind--><g class="link" data-entity-1="ent0017" data-entity-2="ent0018" data-link-type="composition" data-source-line="124" id="lnk36"><path codeLine="124" d="M658.9856,914.345 C662.1856,929.873 663.752,937.4866 666.944,953.0146" fill="none" id="WeatherData-backto-Wind" style="stroke:#181818;stroke-width:0.8;"/><polygon fill="#181818" points="657.048,904.9426,654.8827,910.2897,658.9856,914.345,661.151,908.998,657.048,904.9426" style="stroke:#181818;stroke-width:0.8;"/></g><!--reverse link WeatherData to WeatherSource--><g class="link" data-entity-1="ent0017" data-entity-2="ent0019" data-link-type="composition" data-source-line="125" id="lnk37"><path codeLine="125" d="M747.1476,909.7832 C773.1716,924.9112 793,936.9826 818.4,953.3906 C827.816,959.4706 837.72,966.2626 847.056,972.8626" fill="none" id="WeatherData-backto-WeatherSource" style="stroke:#181818;stroke-width:0.8;"/><polygon fill="#181818" points="738.848,904.9586,741.3896,910.1375,747.1476,909.7832,744.606,904.6044,738.848,904.9586" style="stroke:#181818;stroke-width:0.8;"/></g><?plantuml-src pLPBRzim3BxxLmZPnUcIeWLsCee0QT93WGqTahOxgpAR29KjJv9Jf4F_-oZbOIbMqcJ0WFhWXyJ7H_8JQSED0F8mlVXssH-DaqI_yBAYYXQaaALaSoKB84RLuErKbBtG6KpD4bKLC4FBcV05z9pcyfMNC_9CXVPtcA1Q3urH_AasSCjaEULlG2wIP6sKT6f-ZijQ2kYGBsDtaJy9mSifamdCk3QWVW4rSr1ZQkZ3xLh2Ndr2kHh9qYWfXWheIEQGaIcwB6UUK4uDtFC2jxvBHiLu_Ub9O03vcDluk2mpailwIUpkJok0lBNt5RFokmPjBBYqwwtdN5U2Bd-0rXXiMgoU6tWHoHkbf8hBlIVlNjhOAc81wkYqZROgNleizfPakeudYvcPhFQw6V4Mn_Tt4P2qgWHdr2RqQ9HJK0lEu7z2z00CQpENYhyvZ37NN6z484zh3IeZ3tZlaGfKmRLsNFcvVKUNJnAvJCksh_r0FnUT-qJBMZ4OWsQALojz3q4GL9ZWpnD8ICHS5fJluQ0jPu0RK5PavCO-l6MC0pJ2n1fUJV1zuB5aJdN3WVGVg87h0OQI5h5iDPOtI1hxWxRPPlEmyV1816KB55cyXdl0pa3E5Atcd5tBkiofuZP_Hn3f08ko7NWdCmbR0jvRNDzsYgdxz4hhzvp3M7hx8FGypxsumsua8IWTP28_S0Zqdi5aZQGjnLuetmtwtICLl3bmRUKT7WTgxXoceV43j0zI4CHgbbMqMnpJajp13QmjgAXt6U-t1mMLrDn8jTnj4Rp4XlrC4LrOwybM8vWMpvZkwwLjTQb_LZ07Tmuq5LUXdU3GDiw24H7rfEa2qjT6B1Xrw6yXUTu2PZqEiPkkUPdIKrZi1-7v6ZJvZF-gzVk33_v6CeA3LPD1SbXiZw7Dr3vaPIDZJKH7VaRO7DYBzZhi4PRsKIB3FnOiF2mGZytnnwRY1SzScVL9wZOKT6bELBF3sy6kLMarasYQh9ARbzjy3HBttRdi4Ddlu_Fy_ApZvbdYXjfs0rURSRHIEiFrrPHD_02ig7LaLNUwlIzcjLqlRoq6dVml?></g></svg>