<?plantuml 1.2026.2?><svg xmlns="http://www.w3.org/2000/svg" xmlns:xlink="http://www.w3.org/1999/xlink" contentStyleType="text/css" data-diagram-type="SEQUENCE" height="519px" preserveAspectRatio="none" style="width:586px;height:519px;background:#FFFFFF;" version="1.1" viewBox="0 0 586 519" width="586px" zoomAndPan="magnify"><defs/><g><g><title>Administrator</title><rect fill="#FFFFFF" height="336.7051" style="stroke:#181818;stroke-width:1;" width="10" x="74.8604" y="91.4883"/></g><g><title>.System</title><rect fill="#FFFFFF" height="315.3945" style="stroke:#181818;stroke-width:1;" width="10" x="320.5195" y="112.7988"/></g><rect fill="none" height="166.4629" style="stroke:#000000;stroke-width:1.5;" width="368.7832" x="10" y="254.7305"/><rect fill="none" height="90.8867" style="stroke:#000000;stroke-width:1.5;" width="348.7832" x="20" y="279.041"/><g class="participant-lifeline" data-entity-uid="part1" data-qualified-name="Admin" id="part1-lifeline"><g><title>Administrator</title><rect fill="#000000" fill-opacity="0.00000" height="356.7051" width="8" x="75.8604" y="81.4883"/><line style="stroke:#181818;stroke-width:0.5;stroke-dasharray:5,5;" x1="79" x2="79" y1="81.4883" y2="438.1934"/></g></g><g class="participant-lifeline" data-entity-uid="part2" data-qualified-name="System" id="part2-lifeline"><g><title>.System</title><rect fill="#000000" fill-opacity="0.00000" height="356.7051" width="8" x="321.5195" y="81.4883"/><line style="stroke:#181818;stroke-width:0.5;stroke-dasharray:5,5;" x1="325.2559" x2="325.2559" y1="81.4883" y2="438.1934"/></g></g><g class="participant participant-head" data-entity-uid="part1" data-qualified-name="Admin" id="part1-head"><text fill="#000000" font-family="sans-serif" font-size="14" lengthAdjust="spacing" textLength="93.7207" x="30" y="78.5352">Administrator</text><ellipse cx="79.8604" cy="13.5" fill="#E3E3E3" rx="8" ry="8" style="stroke:#181818;stroke-width:0.5;"/><path d="M79.8604,21.5 L79.8604,48.5 M66.8604,29.5 L92.8604,29.5 M79.8604,48.5 L66.8604,63.5 M79.8604,48.5 L92.8604,63.5" fill="none" style="stroke:#181818;stroke-width:0.5;"/></g><g class="participant participant-tail" data-entity-uid="part1" data-qualified-name="Admin" id="part1-tail"><text fill="#000000" font-family="sans-serif" font-size="14" lengthAdjust="spacing" textLength="93.7207" x="30" y="450.7285">Administrator</text><ellipse cx="79.8604" cy="462.1816" fill="#E3E3E3" rx="8" ry="8" style="stroke:#181818;stroke-width:0.5;"/><path d="M79.8604,470.1816 L79.8604,497.1816 M66.8604,478.1816 L92.8604,478.1816 M79.8604,497.1816 L66.8604,512.1816 M79.8604,497.1816 L92.8604,512.1816" fill="none" style="stroke:#181818;stroke-width:0.5;"/></g><g class="participant participant-head" data-entity-uid="part2" data-qualified-name="System" id="part2-head"><rect fill="#E3E3E3" height="30.4883" rx="2.5" ry="2.5" style="stroke:#181818;stroke-width:0.5;" width="66.5273" x="292.2559" y="50"/><text fill="#000000" font-family="sans-serif" font-size="14" lengthAdjust="spacing" textLength="52.5273" x="299.2559" y="70.5352">:System</text></g><g class="participant participant-tail" data-entity-uid="part2" data-qualified-name="System" id="part2-tail"><rect fill="#E3E3E3" height="30.4883" rx="2.5" ry="2.5" style="stroke:#181818;stroke-width:0.5;" width="66.5273" x="292.2559" y="437.1934"/><text fill="#000000" font-family="sans-serif" font-size="14" lengthAdjust="spacing" textLength="52.5273" x="299.2559" y="457.7285">:System</text></g><g><title>Administrator</title><rect fill="#FFFFFF" height="336.7051" style="stroke:#181818;stroke-width:1;" width="10" x="74.8604" y="91.4883"/></g><g><title>.System</title><rect fill="#FFFFFF" height="315.3945" style="stroke:#181818;stroke-width:1;" width="10" x="320.5195" y="112.7988"/></g><g class="message" data-entity-1="part1" data-entity-2="part2" id="msg1"><polygon fill="#181818" points="308.5195,108.7988,318.5195,112.7988,308.5195,116.7988,312.5195,112.7988" style="stroke:#181818;stroke-width:1;"/><line style="stroke:#181818;stroke-width:1;" x1="84.8604" x2="314.5195" y1="112.7988" y2="112.7988"/><text fill="#000000" font-family="sans-serif" font-size="13" font-weight="bold" lengthAdjust="spacing" textLength="8.5757" x="94.3604" y="108.0566">1</text><text fill="#000000" font-family="sans-serif" font-size="13" lengthAdjust="spacing" textLength="204.0835" x="106.936" y="108.0566">Requests to list backoffice users</text></g><g class="message" data-entity-1="part2" data-entity-2="part2" id="msg2"><line style="stroke:#181818;stroke-width:1;stroke-dasharray:2,2;" x1="330.5195" x2="372.5195" y1="142.1094" y2="142.1094"/><line style="stroke:#181818;stroke-width:1;stroke-dasharray:2,2;" x1="372.5195" x2="372.5195" y1="142.1094" y2="155.1094"/><line style="stroke:#181818;stroke-width:1;stroke-dasharray:2,2;" x1="331.5195" x2="372.5195" y1="155.1094" y2="155.1094"/><polygon fill="#181818" points="341.5195,151.1094,331.5195,155.1094,341.5195,159.1094,337.5195,155.1094" style="stroke:#181818;stroke-width:1;"/><text fill="#000000" font-family="sans-serif" font-size="13" font-weight="bold" lengthAdjust="spacing" textLength="8.5757" x="337.5195" y="137.3672">2</text><text fill="#000000" font-family="sans-serif" font-size="13" lengthAdjust="spacing" textLength="229.0806" x="350.0952" y="137.3672">Check if Administrator is authorized</text></g><g class="message" data-entity-1="part2" data-entity-2="part2" id="msg3"><line style="stroke:#181818;stroke-width:1;stroke-dasharray:2,2;" x1="330.5195" x2="372.5195" y1="184.4199" y2="184.4199"/><line style="stroke:#181818;stroke-width:1;stroke-dasharray:2,2;" x1="372.5195" x2="372.5195" y1="184.4199" y2="197.4199"/><line style="stroke:#181818;stroke-width:1;stroke-dasharray:2,2;" x1="331.5195" x2="372.5195" y1="197.4199" y2="197.4199"/><polygon fill="#181818" points="341.5195,193.4199,331.5195,197.4199,341.5195,201.4199,337.5195,197.4199" style="stroke:#181818;stroke-width:1;"/><text fill="#000000" font-family="sans-serif" font-size="13" font-weight="bold" lengthAdjust="spacing" textLength="8.5757" x="337.5195" y="179.6777">3</text><text fill="#000000" font-family="sans-serif" font-size="13" lengthAdjust="spacing" textLength="157.5488" x="350.0952" y="179.6777">Retrieve backoffice users</text></g><g class="message" data-entity-1="part2" data-entity-2="part2" id="msg4"><line style="stroke:#181818;stroke-width:1;stroke-dasharray:2,2;" x1="330.5195" x2="372.5195" y1="226.7305" y2="226.7305"/><line style="stroke:#181818;stroke-width:1;stroke-dasharray:2,2;" x1="372.5195" x2="372.5195" y1="226.7305" y2="239.7305"/><line style="stroke:#181818;stroke-width:1;stroke-dasharray:2,2;" x1="331.5195" x2="372.5195" y1="239.7305" y2="239.7305"/><polygon fill="#181818" points="341.5195,235.7305,331.5195,239.7305,341.5195,243.7305,337.5195,239.7305" style="stroke:#181818;stroke-width:1;"/><text fill="#000000" font-family="sans-serif" font-size="13" font-weight="bold" lengthAdjust="spacing" textLength="8.5757" x="337.5195" y="221.9883">4</text><text fill="#000000" font-family="sans-serif" font-size="13" lengthAdjust="spacing" textLength="175.3159" x="350.0952" y="221.9883">Prepare user list with status</text></g><path d="M10,254.7305 L72.1387,254.7305 L72.1387,262.041 L62.1387,272.041 L10,272.041 L10,254.7305" fill="#EEEEEE" style="stroke:#000000;stroke-width:1.5;"/><rect fill="none" height="166.4629" style="stroke:#000000;stroke-width:1.5;" width="368.7832" x="10" y="254.7305"/><text fill="#000000" font-family="sans-serif" font-size="13" font-weight="bold" lengthAdjust="spacing" textLength="17.1387" x="25" y="268.2988">alt</text><text fill="#000000" font-family="sans-serif" font-size="11" font-weight="bold" lengthAdjust="spacing" textLength="163.8398" x="87.1387" y="267.3652">[administrator is authorized]</text><path d="M20,279.041 L82.1387,279.041 L82.1387,286.3516 L72.1387,296.3516 L20,296.3516 L20,279.041" fill="#EEEEEE" style="stroke:#000000;stroke-width:1.5;"/><rect fill="none" height="90.8867" style="stroke:#000000;stroke-width:1.5;" width="348.7832" x="20" y="279.041"/><text fill="#000000" font-family="sans-serif" font-size="13" font-weight="bold" lengthAdjust="spacing" textLength="17.1387" x="35" y="292.6094">alt</text><text fill="#000000" font-family="sans-serif" font-size="11" font-weight="bold" lengthAdjust="spacing" textLength="70.0874" x="97.1387" y="291.6758">[users exist]</text><g class="message" data-entity-1="part2" data-entity-2="part1" id="msg5"><polygon fill="#181818" points="95.8604,313.6621,85.8604,317.6621,95.8604,321.6621,91.8604,317.6621" style="stroke:#181818;stroke-width:1;"/><line style="stroke:#181818;stroke-width:1;stroke-dasharray:2,2;" x1="89.8604" x2="319.5195" y1="317.6621" y2="317.6621"/><text fill="#000000" font-family="sans-serif" font-size="13" font-weight="bold" lengthAdjust="spacing" textLength="8.5757" x="97.8103" y="312.9199">5</text><text fill="#000000" font-family="sans-serif" font-size="13" lengthAdjust="spacing" textLength="197.1836" x="110.386" y="312.9199">Display list of users with status</text></g><line style="stroke:#000000;stroke-width:1;stroke-dasharray:2,2;" x1="20" x2="368.7832" y1="326.6621" y2="326.6621"/><text fill="#000000" font-family="sans-serif" font-size="11" font-weight="bold" lengthAdjust="spacing" textLength="87.9624" x="25" y="337.2969">[no users exist]</text><g class="message" data-entity-1="part2" data-entity-2="part1" id="msg6"><polygon fill="#181818" points="95.8604,357.9277,85.8604,361.9277,95.8604,365.9277,91.8604,361.9277" style="stroke:#181818;stroke-width:1;"/><line style="stroke:#181818;stroke-width:1;stroke-dasharray:2,2;" x1="89.8604" x2="319.5195" y1="361.9277" y2="361.9277"/><text fill="#000000" font-family="sans-serif" font-size="13" font-weight="bold" lengthAdjust="spacing" textLength="8.5757" x="110.5247" y="357.1855">6</text><text fill="#000000" font-family="sans-serif" font-size="13" lengthAdjust="spacing" textLength="171.7549" x="123.1003" y="357.1855">Display empty list message</text></g><line style="stroke:#000000;stroke-width:1;stroke-dasharray:2,2;" x1="10" x2="378.7832" y1="377.9277" y2="377.9277"/><text fill="#000000" font-family="sans-serif" font-size="11" font-weight="bold" lengthAdjust="spacing" textLength="186.1729" x="15" y="388.5625">[administrator is not authorized]</text><g class="message" data-entity-1="part2" data-entity-2="part1" id="msg7"><polygon fill="#181818" points="95.8604,409.1934,85.8604,413.1934,95.8604,417.1934,91.8604,413.1934" style="stroke:#181818;stroke-width:1;"/><line style="stroke:#181818;stroke-width:1;stroke-dasharray:2,2;" x1="89.8604" x2="319.5195" y1="413.1934" y2="413.1934"/><text fill="#000000" font-family="sans-serif" font-size="13" font-weight="bold" lengthAdjust="spacing" textLength="8.5757" x="97.8008" y="408.4512">7</text><text fill="#000000" font-family="sans-serif" font-size="13" lengthAdjust="spacing" textLength="197.2026" x="110.3765" y="408.4512">Display access denied message</text></g><?plantuml-src bP99RiCm34NtFWMHVIwGHO6WtHOeaXCm4cqJqU2ATDBqz9Kb8t061AWsbiZFzqbBSkGmO48FFePe-XGzWQQH6hbc1ZH7x6Yl5qUGo2Y6pYq5qgEDPmuTjEZa9aFV8mL3doII4Ll7NG13GIarE6eCep_aROD6OuBLrdeEB9em7rU00YNIP9YouG63mcgpluYIB-cwBVLyGgLPtvGFhDzc0MnWDtKYAg0HNBQ0GvugjYqRWb4eoG8oK-VQzHBptfCv0hTmqogmG1wdZub_oJujt94cfXCz-ZvJVoNACrT5RVVCseCewZXrwXJmHGEGrwGf1a0_MLPYqrhOrR-qWG-MmU6b6iLsBbiwJeMKhnP2_2-K_A0psjTNK6d1DeNuC4U8UZ_B2pmQawbWAJ3PgyD4RopTt-WYKX_A7m00?></g></svg>