<?plantuml 1.2026.2?><svg xmlns="http://www.w3.org/2000/svg" xmlns:xlink="http://www.w3.org/1999/xlink" contentStyleType="text/css" data-diagram-type="CLASS" height="1398px" preserveAspectRatio="none" style="width:4566px;height:1398px;background:#FFFFFF;" version="1.1" viewBox="0 0 4566 1398" width="4566px" zoomAndPan="magnify"><title>US112-CD</title><defs/><g><g class="title" data-source-line="1"><text fill="#000000" font-family="sans-serif" font-size="14" font-weight="bold" lengthAdjust="spacing" textLength="76.0293" x="2238.1454" y="23.5352">US112-CD</text></g><!--cluster ui--><g class="cluster" data-qualified-name="ui" data-source-line="9" id="ent0004"><rect fill="none" height="248.44" rx="2.5" ry="2.5" style="stroke:#000000;stroke-width:1.5;" width="440" x="136" y="44.4883"/><text fill="#000000" font-family="sans-serif" font-size="14" font-weight="bold" lengthAdjust="spacing" textLength="13.7471" x="349.1265" y="60.0234">ui</text></g><!--cluster console--><g class="cluster" data-qualified-name="ui.console" data-source-line="8" id="ent0002"><rect fill="#DDDDDD" height="181.44" rx="2.5" ry="2.5" style="stroke:#000000;stroke-width:1.5;" width="392" x="160" y="87.4883"/><text fill="#000000" font-family="sans-serif" font-size="14" font-weight="bold" lengthAdjust="spacing" textLength="55.2002" x="328.3999" y="103.0234">console</text></g><!--cluster controller--><g class="cluster" data-qualified-name="controller" data-source-line="18" id="ent0005"><rect fill="#DDDDDD" height="115.49" rx="2.5" ry="2.5" style="stroke:#000000;stroke-width:1.5;" width="698" x="7" y="341.9283"/><text fill="#000000" font-family="sans-serif" font-size="14" font-weight="bold" lengthAdjust="spacing" textLength="70.2393" x="320.8804" y="357.4634">controller</text></g><!--cluster application--><g class="cluster" data-qualified-name="application" data-source-line="24" id="ent0007"><rect fill="#DDDDDD" height="343.93" rx="2.5" ry="2.5" style="stroke:#000000;stroke-width:1.5;" width="1171" x="7" y="541.1683"/><text fill="#000000" font-family="sans-serif" font-size="14" font-weight="bold" lengthAdjust="spacing" textLength="79.9326" x="552.5337" y="556.7034">application</text></g><!--cluster reporting--><g class="cluster" data-qualified-name="reporting" data-source-line="57" id="ent0016"><rect fill="none" height="616.64" rx="2.5" ry="2.5" style="stroke:#000000;stroke-width:1.5;" width="3339" x="1202" y="506.4183"/><text fill="#000000" font-family="sans-serif" font-size="14" font-weight="bold" lengthAdjust="spacing" textLength="67.8057" x="2837.5972" y="521.9534">reporting</text></g><!--cluster core--><g class="cluster" data-qualified-name="reporting.core" data-source-line="56" id="ent0014"><rect fill="#DDDDDD" height="362.42" rx="2.5" ry="2.5" style="stroke:#000000;stroke-width:1.5;" width="2828" x="1676" y="720.1483"/><text fill="#000000" font-family="sans-serif" font-size="14" font-weight="bold" lengthAdjust="spacing" textLength="30.96" x="3074.52" y="735.6834">core</text></g><!--cluster monthly--><g class="cluster" data-qualified-name="reporting.monthly" data-source-line="129" id="ent0031"><rect fill="#DDDDDD" height="549.64" rx="2.5" ry="2.5" style="stroke:#000000;stroke-width:1.5;" width="426" x="1226" y="549.4183"/><text fill="#000000" font-family="sans-serif" font-size="14" font-weight="bold" lengthAdjust="spacing" textLength="59.2949" x="1409.3525" y="564.9534">monthly</text></g><!--cluster domain--><g class="cluster" data-qualified-name="domain" data-source-line="147" id="ent0035"><rect fill="#DDDDDD" height="458.42" rx="2.5" ry="2.5" style="stroke:#000000;stroke-width:1.5;" width="403" x="289" y="934.0983"/><text fill="#000000" font-family="sans-serif" font-size="14" font-weight="bold" lengthAdjust="spacing" textLength="53.7715" x="463.6143" y="949.6334">domain</text></g><!--class GenerateMonthlyReportUI--><g class="entity" data-qualified-name="ui.console.GenerateMonthlyReportUI" data-source-line="9" id="ent0003"><rect fill="#F1F1F1" height="130.4414" rx="2.5" ry="2.5" style="stroke:#181818;stroke-width:0.5;" width="360.8311" x="175.58" y="122.4883"/><ellipse cx="264.5976" cy="138.4883" fill="#C2C2C2" rx="11" ry="11" style="stroke:#181818;stroke-width:1;"/><path d="M267.5707,144.1313 Q266.9897,144.4302 266.3505,144.5796 Q265.7113,144.729 265.0058,144.729 Q262.4989,144.729 261.1791,143.0771 Q259.8593,141.4253 259.8593,138.3042 Q259.8593,135.1748 261.1791,133.5229 Q262.4989,131.8711 265.0058,131.8711 Q265.7113,131.8711 266.3588,132.0205 Q267.0063,132.1699 267.5707,132.4688 L267.5707,135.1914 Q266.9399,134.6104 266.3464,134.3406 Q265.7529,134.0708 265.122,134.0708 Q263.7773,134.0708 263.0925,135.1375 Q262.4076,136.2041 262.4076,138.3042 Q262.4076,140.396 263.0925,141.4626 Q263.7773,142.5293 265.122,142.5293 Q265.7529,142.5293 266.3464,142.2595 Q266.9399,141.9897 267.5707,141.4087 Z " fill="#000000"/><text fill="#000000" font-family="sans-serif" font-size="14" lengthAdjust="spacing" textLength="174.2959" x="285.0976" y="143.7793">GenerateMonthlyReportUI</text><line style="stroke:#181818;stroke-width:0.5;" x1="176.58" x2="535.4111" y1="154.4883" y2="154.4883"/><text fill="#000000" font-family="sans-serif" font-size="14" lengthAdjust="spacing" textLength="79.2148" x="181.58" y="172.0234">-month: int</text><text fill="#000000" font-family="sans-serif" font-size="14" lengthAdjust="spacing" textLength="63.5059" x="181.58" y="188.5117">-year: int</text><line style="stroke:#181818;stroke-width:0.5;" x1="176.58" x2="535.4111" y1="195.4648" y2="195.4648"/><text fill="#000000" font-family="sans-serif" font-size="14" lengthAdjust="spacing" textLength="102.6211" x="181.58" y="213">+requestData()</text><text fill="#000000" font-family="sans-serif" font-size="14" lengthAdjust="spacing" textLength="348.8311" x="181.58" y="229.4883">+displayResult(result: ReportGenerationResultDTO)</text><text fill="#000000" font-family="sans-serif" font-size="14" lengthAdjust="spacing" textLength="209.7402" x="181.58" y="245.9766">+displayError(message: String)</text></g><!--class GenerateMonthlyReportController--><g class="entity" data-qualified-name="controller.GenerateMonthlyReportController" data-source-line="19" id="ent0006"><rect fill="#F1F1F1" height="64.4883" rx="2.5" ry="2.5" style="stroke:#181818;stroke-width:0.5;" width="666.6572" x="22.67" y="376.9283"/><ellipse cx="237.3868" cy="392.9283" fill="#C2C2C2" rx="11" ry="11" style="stroke:#181818;stroke-width:1;"/><path d="M240.3599,398.5713 Q239.7789,398.8702 239.1397,399.0196 Q238.5006,399.169 237.795,399.169 Q235.2882,399.169 233.9683,397.5171 Q232.6485,395.8653 232.6485,392.7442 Q232.6485,389.6148 233.9683,387.9629 Q235.2882,386.3111 237.795,386.3111 Q238.5006,386.3111 239.148,386.4605 Q239.7955,386.6099 240.3599,386.9088 L240.3599,389.6314 Q239.7291,389.0504 239.1356,388.7806 Q238.5421,388.5108 237.9112,388.5108 Q236.5665,388.5108 235.8817,389.5775 Q235.1969,390.6441 235.1969,392.7442 Q235.1969,394.836 235.8817,395.9026 Q236.5665,396.9693 237.9112,396.9693 Q238.5421,396.9693 239.1356,396.6995 Q239.7291,396.4297 240.3599,395.8487 Z " fill="#000000"/><text fill="#000000" font-family="sans-serif" font-size="14" lengthAdjust="spacing" textLength="228.7236" x="257.8868" y="398.2193">GenerateMonthlyReportController</text><line style="stroke:#181818;stroke-width:0.5;" x1="23.67" x2="688.3272" y1="408.9283" y2="408.9283"/><line style="stroke:#181818;stroke-width:0.5;" x1="23.67" x2="688.3272" y1="416.9283" y2="416.9283"/><text fill="#000000" font-family="sans-serif" font-size="14" lengthAdjust="spacing" textLength="654.6572" x="28.67" y="434.4634">+generateMonthlyReport(request: GenerateMonthlyReportRequest): ReportGenerationResultDTO</text></g><!--class GenerateMonthlyReportService--><g class="entity" data-qualified-name="application.GenerateMonthlyReportService" data-source-line="25" id="ent0008"><rect fill="#F1F1F1" height="64.4883" rx="2.5" ry="2.5" style="stroke:#181818;stroke-width:0.5;" width="666.6572" x="22.67" y="584.4183"/><ellipse cx="247.8013" cy="600.4183" fill="#C2C2C2" rx="11" ry="11" style="stroke:#181818;stroke-width:1;"/><path d="M250.7745,606.0613 Q250.1934,606.3602 249.5543,606.5096 Q248.9151,606.659 248.2096,606.659 Q245.7027,606.659 244.3829,605.0071 Q243.0631,603.3553 243.0631,600.2342 Q243.0631,597.1048 244.3829,595.4529 Q245.7027,593.8011 248.2096,593.8011 Q248.9151,593.8011 249.5626,593.9505 Q250.21,594.0999 250.7745,594.3988 L250.7745,597.1214 Q250.1436,596.5404 249.5501,596.2706 Q248.9566,596.0008 248.3258,596.0008 Q246.981,596.0008 246.2962,597.0675 Q245.6114,598.1341 245.6114,600.2342 Q245.6114,602.326 246.2962,603.3926 Q246.981,604.4593 248.3258,604.4593 Q248.9566,604.4593 249.5501,604.1895 Q250.1436,603.9197 250.7745,603.3387 Z " fill="#000000"/><text fill="#000000" font-family="sans-serif" font-size="14" lengthAdjust="spacing" textLength="207.8945" x="268.3013" y="605.7093">GenerateMonthlyReportService</text><line style="stroke:#181818;stroke-width:0.5;" x1="23.67" x2="688.3272" y1="616.4183" y2="616.4183"/><line style="stroke:#181818;stroke-width:0.5;" x1="23.67" x2="688.3272" y1="624.4183" y2="624.4183"/><text fill="#000000" font-family="sans-serif" font-size="14" lengthAdjust="spacing" textLength="654.6572" x="28.67" y="641.9534">+generateMonthlyReport(request: GenerateMonthlyReportRequest): ReportGenerationResultDTO</text></g><!--class GenerateMonthlyReportRequest--><g class="entity" data-qualified-name="application.GenerateMonthlyReportRequest" data-source-line="29" id="ent0009"><rect fill="#F1F1F1" height="80.9766" rx="2.5" ry="2.5" style="stroke:#181818;stroke-width:0.5;" width="246.8877" x="724.56" y="576.1683"/><ellipse cx="739.56" cy="592.1683" fill="#C2C2C2" rx="11" ry="11" style="stroke:#181818;stroke-width:1;"/><path d="M742.5331,597.8113 Q741.9521,598.1102 741.3129,598.2596 Q740.6738,598.409 739.9682,598.409 Q737.4614,598.409 736.1415,596.7571 Q734.8217,595.1053 734.8217,591.9842 Q734.8217,588.8548 736.1415,587.2029 Q737.4614,585.5511 739.9682,585.5511 Q740.6738,585.5511 741.3212,585.7005 Q741.9687,585.8499 742.5331,586.1488 L742.5331,588.8714 Q741.9023,588.2904 741.3088,588.0206 Q740.7153,587.7508 740.0844,587.7508 Q738.7397,587.7508 738.0549,588.8175 Q737.3701,589.8841 737.3701,591.9842 Q737.3701,594.076 738.0549,595.1426 Q738.7397,596.2093 740.0844,596.2093 Q740.7153,596.2093 741.3088,595.9395 Q741.9023,595.6697 742.5331,595.0887 Z " fill="#000000"/><text fill="#000000" font-family="sans-serif" font-size="14" lengthAdjust="spacing" textLength="214.8877" x="753.56" y="597.4593">GenerateMonthlyReportRequest</text><line style="stroke:#181818;stroke-width:0.5;" x1="725.56" x2="970.4477" y1="608.1683" y2="608.1683"/><text fill="#000000" font-family="sans-serif" font-size="14" lengthAdjust="spacing" textLength="79.2148" x="730.56" y="625.7034">-month: int</text><text fill="#000000" font-family="sans-serif" font-size="14" lengthAdjust="spacing" textLength="63.5059" x="730.56" y="642.1917">-year: int</text><line style="stroke:#181818;stroke-width:0.5;" x1="725.56" x2="970.4477" y1="649.1448" y2="649.1448"/></g><!--class ReportGenerationResultDTO--><g class="entity" data-qualified-name="application.ReportGenerationResultDTO" data-source-line="34" id="ent0010"><rect fill="#F1F1F1" height="130.4414" rx="2.5" ry="2.5" style="stroke:#181818;stroke-width:0.5;" width="223.4404" x="23.28" y="738.6583"/><ellipse cx="38.28" cy="754.6583" fill="#C2C2C2" rx="11" ry="11" style="stroke:#181818;stroke-width:1;"/><path d="M41.2531,760.3013 Q40.6721,760.6002 40.0329,760.7496 Q39.3938,760.899 38.6882,760.899 Q36.1814,760.899 34.8615,759.2471 Q33.5417,757.5953 33.5417,754.4742 Q33.5417,751.3448 34.8615,749.6929 Q36.1814,748.0411 38.6882,748.0411 Q39.3938,748.0411 40.0412,748.1905 Q40.6887,748.3399 41.2531,748.6388 L41.2531,751.3614 Q40.6223,750.7804 40.0288,750.5106 Q39.4353,750.2408 38.8044,750.2408 Q37.4597,750.2408 36.7749,751.3075 Q36.0901,752.3741 36.0901,754.4742 Q36.0901,756.566 36.7749,757.6326 Q37.4597,758.6993 38.8044,758.6993 Q39.4353,758.6993 40.0288,758.4295 Q40.6223,758.1597 41.2531,757.5787 Z " fill="#000000"/><text fill="#000000" font-family="sans-serif" font-size="14" lengthAdjust="spacing" textLength="191.4404" x="52.28" y="759.9493">ReportGenerationResultDTO</text><line style="stroke:#181818;stroke-width:0.5;" x1="24.28" x2="245.7204" y1="770.6583" y2="770.6583"/><text fill="#000000" font-family="sans-serif" font-size="14" lengthAdjust="spacing" textLength="123.4775" x="29.28" y="788.1934">-success: boolean</text><text fill="#000000" font-family="sans-serif" font-size="14" lengthAdjust="spacing" textLength="131.6123" x="29.28" y="804.6817">-reportType: String</text><text fill="#000000" font-family="sans-serif" font-size="14" lengthAdjust="spacing" textLength="163.0234" x="29.28" y="821.17">-reportingPeriod: String</text><text fill="#000000" font-family="sans-serif" font-size="14" lengthAdjust="spacing" textLength="107.3652" x="29.28" y="837.6583">-filePath: String</text><text fill="#000000" font-family="sans-serif" font-size="14" lengthAdjust="spacing" textLength="116.334" x="29.28" y="854.1466">-message: String</text><line style="stroke:#181818;stroke-width:0.5;" x1="24.28" x2="245.7204" y1="861.0997" y2="861.0997"/></g><!--class AuthorizationService--><g class="entity" data-qualified-name="application.AuthorizationService" data-source-line="42" id="ent0011"><rect fill="#F1F1F1" height="64.4883" rx="2.5" ry="2.5" style="stroke:#181818;stroke-width:0.5;" width="417.1934" x="281.4" y="771.6383"/><ellipse cx="415.5929" cy="787.6383" fill="#C2C2C2" rx="11" ry="11" style="stroke:#181818;stroke-width:1;"/><path d="M418.566,793.2813 Q417.985,793.5802 417.3458,793.7296 Q416.7066,793.879 416.0011,793.879 Q413.4942,793.879 412.1744,792.2271 Q410.8546,790.5753 410.8546,787.4542 Q410.8546,784.3248 412.1744,782.6729 Q413.4942,781.0211 416.0011,781.0211 Q416.7066,781.0211 417.3541,781.1705 Q418.0016,781.3199 418.566,781.6188 L418.566,784.3414 Q417.9352,783.7604 417.3417,783.4906 Q416.7481,783.2208 416.1173,783.2208 Q414.7726,783.2208 414.0877,784.2875 Q413.4029,785.3541 413.4029,787.4542 Q413.4029,789.546 414.0877,790.6126 Q414.7726,791.6793 416.1173,791.6793 Q416.7481,791.6793 417.3417,791.4095 Q417.9352,791.1397 418.566,790.5587 Z " fill="#000000"/><text fill="#000000" font-family="sans-serif" font-size="14" lengthAdjust="spacing" textLength="140.3076" x="436.0929" y="792.9293">AuthorizationService</text><line style="stroke:#181818;stroke-width:0.5;" x1="282.4" x2="697.5934" y1="803.6383" y2="803.6383"/><line style="stroke:#181818;stroke-width:0.5;" x1="282.4" x2="697.5934" y1="811.6383" y2="811.6383"/><text fill="#000000" font-family="sans-serif" font-size="14" lengthAdjust="spacing" textLength="405.1934" x="287.4" y="829.1734">+isAuthorized(user: User, permission: Permission): boolean</text></g><!--class ReportingPeriodValidator--><g class="entity" data-qualified-name="application.ReportingPeriodValidator" data-source-line="46" id="ent0012"><rect fill="#F1F1F1" height="64.4883" rx="2.5" ry="2.5" style="stroke:#181818;stroke-width:0.5;" width="338.9766" x="733.51" y="771.6383"/><ellipse cx="813.5964" cy="787.6383" fill="#C2C2C2" rx="11" ry="11" style="stroke:#181818;stroke-width:1;"/><path d="M816.5696,793.2813 Q815.9885,793.5802 815.3494,793.7296 Q814.7102,793.879 814.0046,793.879 Q811.4978,793.879 810.178,792.2271 Q808.8581,790.5753 808.8581,787.4542 Q808.8581,784.3248 810.178,782.6729 Q811.4978,781.0211 814.0046,781.0211 Q814.7102,781.0211 815.3577,781.1705 Q816.0051,781.3199 816.5696,781.6188 L816.5696,784.3414 Q815.9387,783.7604 815.3452,783.4906 Q814.7517,783.2208 814.1208,783.2208 Q812.7761,783.2208 812.0913,784.2875 Q811.4065,785.3541 811.4065,787.4542 Q811.4065,789.546 812.0913,790.6126 Q812.7761,791.6793 814.1208,791.6793 Q814.7517,791.6793 815.3452,791.4095 Q815.9387,791.1397 816.5696,790.5587 Z " fill="#000000"/><text fill="#000000" font-family="sans-serif" font-size="14" lengthAdjust="spacing" textLength="170.3037" x="834.0964" y="792.9293">ReportingPeriodValidator</text><line style="stroke:#181818;stroke-width:0.5;" x1="734.51" x2="1071.4866" y1="803.6383" y2="803.6383"/><line style="stroke:#181818;stroke-width:0.5;" x1="734.51" x2="1071.4866" y1="811.6383" y2="811.6383"/><text fill="#000000" font-family="sans-serif" font-size="14" lengthAdjust="spacing" textLength="326.9766" x="739.51" y="829.1734">+validate(month: int, year: int): ValidationResult</text></g><!--class ValidationResult--><g class="entity" data-qualified-name="application.ValidationResult" data-source-line="50" id="ent0013"><rect fill="#F1F1F1" height="80.9766" rx="2.5" ry="2.5" style="stroke:#181818;stroke-width:0.5;" width="155.7939" x="1006.1" y="576.1683"/><ellipse cx="1027.3732" cy="592.1683" fill="#C2C2C2" rx="11" ry="11" style="stroke:#181818;stroke-width:1;"/><path d="M1030.3463,597.8113 Q1029.7653,598.1102 1029.1261,598.2596 Q1028.487,598.409 1027.7814,598.409 Q1025.2746,598.409 1023.9547,596.7571 Q1022.6349,595.1053 1022.6349,591.9842 Q1022.6349,588.8548 1023.9547,587.2029 Q1025.2746,585.5511 1027.7814,585.5511 Q1028.487,585.5511 1029.1344,585.7005 Q1029.7819,585.8499 1030.3463,586.1488 L1030.3463,588.8714 Q1029.7155,588.2904 1029.122,588.0206 Q1028.5285,587.7508 1027.8976,587.7508 Q1026.5529,587.7508 1025.8681,588.8175 Q1025.1833,589.8841 1025.1833,591.9842 Q1025.1833,594.076 1025.8681,595.1426 Q1026.5529,596.2093 1027.8976,596.2093 Q1028.5285,596.2093 1029.122,595.9395 Q1029.7155,595.6697 1030.3463,595.0887 Z " fill="#000000"/><text fill="#000000" font-family="sans-serif" font-size="14" lengthAdjust="spacing" textLength="109.8535" x="1042.7672" y="597.4593">ValidationResult</text><line style="stroke:#181818;stroke-width:0.5;" x1="1007.1" x2="1160.8939" y1="608.1683" y2="608.1683"/><text fill="#000000" font-family="sans-serif" font-size="14" lengthAdjust="spacing" textLength="103.1201" x="1012.1" y="625.7034">-valid: boolean</text><text fill="#000000" font-family="sans-serif" font-size="14" lengthAdjust="spacing" textLength="143.7939" x="1012.1" y="642.1917">-errors: List&lt;String&gt;</text><line style="stroke:#181818;stroke-width:0.5;" x1="1007.1" x2="1160.8939" y1="649.1448" y2="649.1448"/></g><!--class ReportGeneratorRegistry--><g class="entity" data-qualified-name="reporting.core.ReportGeneratorRegistry" data-source-line="57" id="ent0015"><rect fill="#F1F1F1" height="64.4883" rx="2.5" ry="2.5" style="stroke:#181818;stroke-width:0.5;" width="404.0957" x="2274.95" y="771.6383"/><ellipse cx="2389.0965" cy="787.6383" fill="#C2C2C2" rx="11" ry="11" style="stroke:#181818;stroke-width:1;"/><path d="M2392.0696,793.2813 Q2391.4886,793.5802 2390.8494,793.7296 Q2390.2103,793.879 2389.5047,793.879 Q2386.9979,793.879 2385.678,792.2271 Q2384.3582,790.5753 2384.3582,787.4542 Q2384.3582,784.3248 2385.678,782.6729 Q2386.9979,781.0211 2389.5047,781.0211 Q2390.2103,781.0211 2390.8577,781.1705 Q2391.5052,781.3199 2392.0696,781.6188 L2392.0696,784.3414 Q2391.4388,783.7604 2390.8453,783.4906 Q2390.2518,783.2208 2389.6209,783.2208 Q2388.2762,783.2208 2387.5914,784.2875 Q2386.9065,785.3541 2386.9065,787.4542 Q2386.9065,789.546 2387.5914,790.6126 Q2388.2762,791.6793 2389.6209,791.6793 Q2390.2518,791.6793 2390.8453,791.4095 Q2391.4388,791.1397 2392.0696,790.5587 Z " fill="#000000"/><text fill="#000000" font-family="sans-serif" font-size="14" lengthAdjust="spacing" textLength="167.3027" x="2409.5965" y="792.9293">ReportGeneratorRegistry</text><line style="stroke:#181818;stroke-width:0.5;" x1="2275.95" x2="2678.0457" y1="803.6383" y2="803.6383"/><line style="stroke:#181818;stroke-width:0.5;" x1="2275.95" x2="2678.0457" y1="811.6383" y2="811.6383"/><text fill="#000000" font-family="sans-serif" font-size="14" lengthAdjust="spacing" textLength="392.0957" x="2280.95" y="829.1734">+getGenerator(reportType: ReportType): ReportGenerator</text></g><!--class ReportGenerator--><g class="entity" data-qualified-name="reporting.core.ReportGenerator" data-source-line="61" id="ent0017"><rect fill="#F1F1F1" height="64.4883" rx="2.5" ry="2.5" style="stroke:#181818;stroke-width:0.5;" width="377.2236" x="3620.39" y="985.5883"/><ellipse cx="3748.5228" cy="1001.5883" fill="#B1B1B1" rx="11" ry="11" style="stroke:#181818;stroke-width:1;"/><path d="M3744.4505,997.3534 L3744.4505,995.1952 L3751.8299,995.1952 L3751.8299,997.3534 L3749.3646,997.3534 L3749.3646,1005.4301 L3751.8299,1005.4301 L3751.8299,1007.5883 L3744.4505,1007.5883 L3744.4505,1005.4301 L3746.9159,1005.4301 L3746.9159,997.3534 Z " fill="#000000"/><text fill="#000000" font-family="sans-serif" font-size="14" font-style="italic" lengthAdjust="spacing" textLength="112.458" x="3769.0228" y="1006.8793">ReportGenerator</text><line style="stroke:#181818;stroke-width:0.5;" x1="3621.39" x2="3996.6136" y1="1017.5883" y2="1017.5883"/><line style="stroke:#181818;stroke-width:0.5;" x1="3621.39" x2="3996.6136" y1="1025.5883" y2="1025.5883"/><text fill="#000000" font-family="sans-serif" font-size="14" lengthAdjust="spacing" textLength="365.2236" x="3626.39" y="1043.1234">+generate(period: ReportingPeriod): GeneratedReport</text></g><!--class ReportType--><g class="entity" data-qualified-name="reporting.core.ReportType" data-source-line="65" id="ent0018"><rect fill="#F1F1F1" height="64.4883" rx="2.5" ry="2.5" style="stroke:#181818;stroke-width:0.5;" width="109.8066" x="4327.1" y="985.5883"/><ellipse cx="4342.1" cy="1001.5883" fill="#C2C2C2" rx="11" ry="11" style="stroke:#181818;stroke-width:1;"/><path d="M4345.0731,1007.2313 Q4344.4921,1007.5302 4343.8529,1007.6796 Q4343.2138,1007.829 4342.5082,1007.829 Q4340.0014,1007.829 4338.6815,1006.1771 Q4337.3617,1004.5253 4337.3617,1001.4042 Q4337.3617,998.2748 4338.6815,996.6229 Q4340.0014,994.9711 4342.5082,994.9711 Q4343.2138,994.9711 4343.8612,995.1205 Q4344.5087,995.2699 4345.0731,995.5687 L4345.0731,998.2914 Q4344.4423,997.7104 4343.8488,997.4406 Q4343.2553,997.1708 4342.6244,997.1708 Q4341.2797,997.1708 4340.5949,998.2375 Q4339.9101,999.3041 4339.9101,1001.4042 Q4339.9101,1003.496 4340.5949,1004.5626 Q4341.2797,1005.6293 4342.6244,1005.6293 Q4343.2553,1005.6293 4343.8488,1005.3595 Q4344.4423,1005.0897 4345.0731,1004.5087 Z " fill="#000000"/><text fill="#000000" font-family="sans-serif" font-size="14" lengthAdjust="spacing" textLength="77.8066" x="4356.1" y="1006.8793">ReportType</text><line style="stroke:#181818;stroke-width:0.5;" x1="4328.1" x2="4435.9066" y1="1017.5883" y2="1017.5883"/><text fill="#000000" font-family="sans-serif" font-size="14" lengthAdjust="spacing" textLength="94.2197" x="4333.1" y="1035.1234">-name: String</text><line style="stroke:#181818;stroke-width:0.5;" x1="4328.1" x2="4435.9066" y1="1042.0766" y2="1042.0766"/></g><!--class ReportingPeriod--><g class="entity" data-qualified-name="reporting.core.ReportingPeriod" data-source-line="69" id="ent0019"><rect fill="#F1F1F1" height="80.9766" rx="2.5" ry="2.5" style="stroke:#181818;stroke-width:0.5;" width="141.2178" x="2098.39" y="763.3883"/><ellipse cx="2113.39" cy="779.3883" fill="#C2C2C2" rx="11" ry="11" style="stroke:#181818;stroke-width:1;"/><path d="M2116.3631,785.0313 Q2115.7821,785.3302 2115.1429,785.4796 Q2114.5038,785.629 2113.7982,785.629 Q2111.2914,785.629 2109.9715,783.9771 Q2108.6517,782.3253 2108.6517,779.2042 Q2108.6517,776.0748 2109.9715,774.4229 Q2111.2914,772.7711 2113.7982,772.7711 Q2114.5038,772.7711 2115.1512,772.9205 Q2115.7987,773.0699 2116.3631,773.3688 L2116.3631,776.0914 Q2115.7323,775.5104 2115.1388,775.2406 Q2114.5453,774.9708 2113.9144,774.9708 Q2112.5697,774.9708 2111.8849,776.0375 Q2111.2001,777.1041 2111.2001,779.2042 Q2111.2001,781.296 2111.8849,782.3626 Q2112.5697,783.4293 2113.9144,783.4293 Q2114.5453,783.4293 2115.1388,783.1595 Q2115.7323,782.8897 2116.3631,782.3087 Z " fill="#000000"/><text fill="#000000" font-family="sans-serif" font-size="14" lengthAdjust="spacing" textLength="109.2178" x="2127.39" y="784.6793">ReportingPeriod</text><line style="stroke:#181818;stroke-width:0.5;" x1="2099.39" x2="2238.6078" y1="795.3883" y2="795.3883"/><text fill="#000000" font-family="sans-serif" font-size="14" lengthAdjust="spacing" textLength="79.2148" x="2104.39" y="812.9234">-month: int</text><text fill="#000000" font-family="sans-serif" font-size="14" lengthAdjust="spacing" textLength="63.5059" x="2104.39" y="829.4117">-year: int</text><line style="stroke:#181818;stroke-width:0.5;" x1="2099.39" x2="2238.6078" y1="836.3648" y2="836.3648"/></g><!--class GeneratedReport--><g class="entity" data-qualified-name="reporting.core.GeneratedReport" data-source-line="74" id="ent0020"><rect fill="#F1F1F1" height="97.4648" rx="2.5" ry="2.5" style="stroke:#181818;stroke-width:0.5;" width="212.2178" x="4275.89" y="755.1483"/><ellipse cx="4320.3783" cy="771.1483" fill="#C2C2C2" rx="11" ry="11" style="stroke:#181818;stroke-width:1;"/><path d="M4323.3514,776.7913 Q4322.7704,777.0902 4322.1312,777.2396 Q4321.4921,777.389 4320.7865,777.389 Q4318.2796,777.389 4316.9598,775.7371 Q4315.64,774.0853 4315.64,770.9642 Q4315.64,767.8348 4316.9598,766.1829 Q4318.2796,764.5311 4320.7865,764.5311 Q4321.4921,764.5311 4322.1395,764.6805 Q4322.787,764.8299 4323.3514,765.1288 L4323.3514,767.8514 Q4322.7206,767.2704 4322.1271,767.0006 Q4321.5336,766.7308 4320.9027,766.7308 Q4319.558,766.7308 4318.8732,767.7975 Q4318.1883,768.8641 4318.1883,770.9642 Q4318.1883,773.056 4318.8732,774.1226 Q4319.558,775.1893 4320.9027,775.1893 Q4321.5336,775.1893 4322.1271,774.9195 Q4322.7206,774.6497 4323.3514,774.0687 Z " fill="#000000"/><text fill="#000000" font-family="sans-serif" font-size="14" lengthAdjust="spacing" textLength="114.7412" x="4340.8783" y="776.4393">GeneratedReport</text><line style="stroke:#181818;stroke-width:0.5;" x1="4276.89" x2="4487.1078" y1="787.1483" y2="787.1483"/><text fill="#000000" font-family="sans-serif" font-size="14" lengthAdjust="spacing" textLength="169.4492" x="4281.89" y="804.6834">-reportType: ReportType</text><text fill="#000000" font-family="sans-serif" font-size="14" lengthAdjust="spacing" textLength="200.2178" x="4281.89" y="821.1717">-generatedAt: LocalDateTime</text><text fill="#000000" font-family="sans-serif" font-size="14" lengthAdjust="spacing" textLength="108.3496" x="4281.89" y="837.66">-content: String</text><line style="stroke:#181818;stroke-width:0.5;" x1="4276.89" x2="4487.1078" y1="844.6131" y2="844.6131"/></g><!--class ReportTemplateProvider--><g class="entity" data-qualified-name="reporting.core.ReportTemplateProvider" data-source-line="80" id="ent0021"><rect fill="#F1F1F1" height="64.4883" rx="2.5" ry="2.5" style="stroke:#181818;stroke-width:0.5;" width="395.9336" x="2714.03" y="771.6383"/><ellipse cx="2825.7087" cy="787.6383" fill="#C2C2C2" rx="11" ry="11" style="stroke:#181818;stroke-width:1;"/><path d="M2828.6819,793.2813 Q2828.1008,793.5802 2827.4616,793.7296 Q2826.8225,793.879 2826.1169,793.879 Q2823.6101,793.879 2822.2903,792.2271 Q2820.9704,790.5753 2820.9704,787.4542 Q2820.9704,784.3248 2822.2903,782.6729 Q2823.6101,781.0211 2826.1169,781.0211 Q2826.8225,781.0211 2827.4699,781.1705 Q2828.1174,781.3199 2828.6819,781.6188 L2828.6819,784.3414 Q2828.051,783.7604 2827.4575,783.4906 Q2826.864,783.2208 2826.2331,783.2208 Q2824.8884,783.2208 2824.2036,784.2875 Q2823.5188,785.3541 2823.5188,787.4542 Q2823.5188,789.546 2824.2036,790.6126 Q2824.8884,791.6793 2826.2331,791.6793 Q2826.864,791.6793 2827.4575,791.4095 Q2828.051,791.1397 2828.6819,790.5587 Z " fill="#000000"/><text fill="#000000" font-family="sans-serif" font-size="14" lengthAdjust="spacing" textLength="164.0762" x="2846.2087" y="792.9293">ReportTemplateProvider</text><line style="stroke:#181818;stroke-width:0.5;" x1="2715.03" x2="3108.9636" y1="803.6383" y2="803.6383"/><line style="stroke:#181818;stroke-width:0.5;" x1="2715.03" x2="3108.9636" y1="811.6383" y2="811.6383"/><text fill="#000000" font-family="sans-serif" font-size="14" lengthAdjust="spacing" textLength="383.9336" x="2720.03" y="829.1734">+getTemplate(reportType: ReportType): ReportTemplate</text></g><!--class ReportTemplate--><g class="entity" data-qualified-name="reporting.core.ReportTemplate" data-source-line="84" id="ent0022"><rect fill="#F1F1F1" height="97.4648" rx="2.5" ry="2.5" style="stroke:#181818;stroke-width:0.5;" width="140.377" x="2841.81" y="969.0983"/><ellipse cx="2856.81" cy="985.0983" fill="#C2C2C2" rx="11" ry="11" style="stroke:#181818;stroke-width:1;"/><path d="M2859.7831,990.7413 Q2859.2021,991.0402 2858.5629,991.1896 Q2857.9238,991.339 2857.2182,991.339 Q2854.7114,991.339 2853.3915,989.6871 Q2852.0717,988.0353 2852.0717,984.9142 Q2852.0717,981.7848 2853.3915,980.1329 Q2854.7114,978.4811 2857.2182,978.4811 Q2857.9238,978.4811 2858.5712,978.6305 Q2859.2187,978.7799 2859.7831,979.0787 L2859.7831,981.8014 Q2859.1523,981.2204 2858.5588,980.9506 Q2857.9653,980.6808 2857.3344,980.6808 Q2855.9897,980.6808 2855.3049,981.7475 Q2854.6201,982.8141 2854.6201,984.9142 Q2854.6201,987.006 2855.3049,988.0726 Q2855.9897,989.1393 2857.3344,989.1393 Q2857.9653,989.1393 2858.5588,988.8695 Q2859.1523,988.5997 2859.7831,988.0187 Z " fill="#000000"/><text fill="#000000" font-family="sans-serif" font-size="14" lengthAdjust="spacing" textLength="108.377" x="2870.81" y="990.3893">ReportTemplate</text><line style="stroke:#181818;stroke-width:0.5;" x1="2842.81" x2="2981.187" y1="1001.0983" y2="1001.0983"/><text fill="#000000" font-family="sans-serif" font-size="14" lengthAdjust="spacing" textLength="103.4893" x="2847.81" y="1018.6334">-header: String</text><text fill="#000000" font-family="sans-serif" font-size="14" lengthAdjust="spacing" textLength="98.041" x="2847.81" y="1035.1217">-footer: String</text><text fill="#000000" font-family="sans-serif" font-size="14" lengthAdjust="spacing" textLength="118.3438" x="2847.81" y="1051.61">-structure: String</text><line style="stroke:#181818;stroke-width:0.5;" x1="2842.81" x2="2981.187" y1="1058.5631" y2="1058.5631"/></g><!--class ReportBrandingProvider--><g class="entity" data-qualified-name="reporting.core.ReportBrandingProvider" data-source-line="90" id="ent0023"><rect fill="#F1F1F1" height="64.4883" rx="2.5" ry="2.5" style="stroke:#181818;stroke-width:0.5;" width="228.8428" x="3144.58" y="771.6383"/><ellipse cx="3175.617" cy="787.6383" fill="#C2C2C2" rx="11" ry="11" style="stroke:#181818;stroke-width:1;"/><path d="M3178.5901,793.2813 Q3178.0091,793.5802 3177.3699,793.7296 Q3176.7307,793.879 3176.0252,793.879 Q3173.5183,793.879 3172.1985,792.2271 Q3170.8787,790.5753 3170.8787,787.4542 Q3170.8787,784.3248 3172.1985,782.6729 Q3173.5183,781.0211 3176.0252,781.0211 Q3176.7307,781.0211 3177.3782,781.1705 Q3178.0257,781.3199 3178.5901,781.6188 L3178.5901,784.3414 Q3177.9592,783.7604 3177.3657,783.4906 Q3176.7722,783.2208 3176.1414,783.2208 Q3174.7967,783.2208 3174.1118,784.2875 Q3173.427,785.3541 3173.427,787.4542 Q3173.427,789.546 3174.1118,790.6126 Q3174.7967,791.6793 3176.1414,791.6793 Q3176.7722,791.6793 3177.3657,791.4095 Q3177.9592,791.1397 3178.5901,790.5587 Z " fill="#000000"/><text fill="#000000" font-family="sans-serif" font-size="14" lengthAdjust="spacing" textLength="161.2051" x="3193.1807" y="792.9293">ReportBrandingProvider</text><line style="stroke:#181818;stroke-width:0.5;" x1="3145.58" x2="3372.4228" y1="803.6383" y2="803.6383"/><line style="stroke:#181818;stroke-width:0.5;" x1="3145.58" x2="3372.4228" y1="811.6383" y2="811.6383"/><text fill="#000000" font-family="sans-serif" font-size="14" lengthAdjust="spacing" textLength="216.8428" x="3150.58" y="829.1734">+getBranding(): ReportBranding</text></g><!--class ReportBranding--><g class="entity" data-qualified-name="reporting.core.ReportBranding" data-source-line="94" id="ent0024"><rect fill="#F1F1F1" height="97.4648" rx="2.5" ry="2.5" style="stroke:#181818;stroke-width:0.5;" width="193.7266" x="3162.14" y="969.0983"/><ellipse cx="3202.4393" cy="985.0983" fill="#C2C2C2" rx="11" ry="11" style="stroke:#181818;stroke-width:1;"/><path d="M3205.4125,990.7413 Q3204.8314,991.0402 3204.1922,991.1896 Q3203.5531,991.339 3202.8475,991.339 Q3200.3407,991.339 3199.0209,989.6871 Q3197.701,988.0353 3197.701,984.9142 Q3197.701,981.7848 3199.0209,980.1329 Q3200.3407,978.4811 3202.8475,978.4811 Q3203.5531,978.4811 3204.2005,978.6305 Q3204.848,978.7799 3205.4125,979.0787 L3205.4125,981.8014 Q3204.7816,981.2204 3204.1881,980.9506 Q3203.5946,980.6808 3202.9637,980.6808 Q3201.619,980.6808 3200.9342,981.7475 Q3200.2494,982.8141 3200.2494,984.9142 Q3200.2494,987.006 3200.9342,988.0726 Q3201.619,989.1393 3202.9637,989.1393 Q3203.5946,989.1393 3204.1881,988.8695 Q3204.7816,988.5997 3205.4125,988.0187 Z " fill="#000000"/><text fill="#000000" font-family="sans-serif" font-size="14" lengthAdjust="spacing" textLength="105.5059" x="3222.0614" y="990.3893">ReportBranding</text><line style="stroke:#181818;stroke-width:0.5;" x1="3163.14" x2="3354.8666" y1="1001.0983" y2="1001.0983"/><text fill="#000000" font-family="sans-serif" font-size="14" lengthAdjust="spacing" textLength="181.7266" x="3168.14" y="1018.6334">-organizationName: String</text><text fill="#000000" font-family="sans-serif" font-size="14" lengthAdjust="spacing" textLength="116.2998" x="3168.14" y="1035.1217">-logoPath: String</text><text fill="#000000" font-family="sans-serif" font-size="14" lengthAdjust="spacing" textLength="143.1445" x="3168.14" y="1051.61">-colorScheme: String</text><line style="stroke:#181818;stroke-width:0.5;" x1="3163.14" x2="3354.8666" y1="1058.5631" y2="1058.5631"/></g><!--class ReportSectionBuilder--><g class="entity" data-qualified-name="reporting.core.ReportSectionBuilder" data-source-line="100" id="ent0025"><rect fill="#F1F1F1" height="64.4883" rx="2.5" ry="2.5" style="stroke:#181818;stroke-width:0.5;" width="402.9951" x="3408.5" y="771.6383"/><ellipse cx="3535.105" cy="787.6383" fill="#C2C2C2" rx="11" ry="11" style="stroke:#181818;stroke-width:1;"/><path d="M3538.0781,793.2813 Q3537.4971,793.5802 3536.8579,793.7296 Q3536.2188,793.879 3535.5132,793.879 Q3533.0063,793.879 3531.6865,792.2271 Q3530.3667,790.5753 3530.3667,787.4542 Q3530.3667,784.3248 3531.6865,782.6729 Q3533.0063,781.0211 3535.5132,781.0211 Q3536.2188,781.0211 3536.8662,781.1705 Q3537.5137,781.3199 3538.0781,781.6188 L3538.0781,784.3414 Q3537.4473,783.7604 3536.8538,783.4906 Q3536.2603,783.2208 3535.6294,783.2208 Q3534.2847,783.2208 3533.5999,784.2875 Q3532.915,785.3541 3532.915,787.4542 Q3532.915,789.546 3533.5999,790.6126 Q3534.2847,791.6793 3535.6294,791.6793 Q3536.2603,791.6793 3536.8538,791.4095 Q3537.4473,791.1397 3538.0781,790.5587 Z " fill="#000000"/><text fill="#000000" font-family="sans-serif" font-size="14" lengthAdjust="spacing" textLength="141.2852" x="3555.605" y="792.9293">ReportSectionBuilder</text><line style="stroke:#181818;stroke-width:0.5;" x1="3409.5" x2="3810.4951" y1="803.6383" y2="803.6383"/><line style="stroke:#181818;stroke-width:0.5;" x1="3409.5" x2="3810.4951" y1="811.6383" y2="811.6383"/><text fill="#000000" font-family="sans-serif" font-size="14" lengthAdjust="spacing" textLength="390.9951" x="3414.5" y="829.1734">+buildSection(title: String, content: String): ReportSection</text></g><!--class ReportGraphicBuilder--><g class="entity" data-qualified-name="reporting.core.ReportGraphicBuilder" data-source-line="104" id="ent0026"><rect fill="#F1F1F1" height="64.4883" rx="2.5" ry="2.5" style="stroke:#181818;stroke-width:0.5;" width="394.4912" x="3846.75" y="771.6383"/><ellipse cx="3967.4966" cy="787.6383" fill="#C2C2C2" rx="11" ry="11" style="stroke:#181818;stroke-width:1;"/><path d="M3970.4697,793.2813 Q3969.8887,793.5802 3969.2495,793.7296 Q3968.6104,793.879 3967.9048,793.879 Q3965.3979,793.879 3964.0781,792.2271 Q3962.7583,790.5753 3962.7583,787.4542 Q3962.7583,784.3248 3964.0781,782.6729 Q3965.3979,781.0211 3967.9048,781.0211 Q3968.6104,781.0211 3969.2578,781.1705 Q3969.9053,781.3199 3970.4697,781.6188 L3970.4697,784.3414 Q3969.8389,783.7604 3969.2454,783.4906 Q3968.6519,783.2208 3968.021,783.2208 Q3966.6763,783.2208 3965.9915,784.2875 Q3965.3066,785.3541 3965.3066,787.4542 Q3965.3066,789.546 3965.9915,790.6126 Q3966.6763,791.6793 3968.021,791.6793 Q3968.6519,791.6793 3969.2454,791.4095 Q3969.8389,791.1397 3970.4697,790.5587 Z " fill="#000000"/><text fill="#000000" font-family="sans-serif" font-size="14" lengthAdjust="spacing" textLength="144.498" x="3987.9966" y="792.9293">ReportGraphicBuilder</text><line style="stroke:#181818;stroke-width:0.5;" x1="3847.75" x2="4240.2412" y1="803.6383" y2="803.6383"/><line style="stroke:#181818;stroke-width:0.5;" x1="3847.75" x2="4240.2412" y1="811.6383" y2="811.6383"/><text fill="#000000" font-family="sans-serif" font-size="14" lengthAdjust="spacing" textLength="382.4912" x="3852.75" y="829.1734">+buildGraphic(data: Object, type: String): ReportGraphic</text></g><!--class ReportSection--><g class="entity" data-qualified-name="reporting.core.ReportSection" data-source-line="108" id="ent0027"><rect fill="#F1F1F1" height="80.9766" rx="2.5" ry="2.5" style="stroke:#181818;stroke-width:0.5;" width="126.1104" x="3458.94" y="977.3483"/><ellipse cx="3473.94" cy="993.3483" fill="#C2C2C2" rx="11" ry="11" style="stroke:#181818;stroke-width:1;"/><path d="M3476.9131,998.9913 Q3476.3321,999.2902 3475.6929,999.4396 Q3475.0538,999.589 3474.3482,999.589 Q3471.8414,999.589 3470.5215,997.9371 Q3469.2017,996.2853 3469.2017,993.1642 Q3469.2017,990.0348 3470.5215,988.3829 Q3471.8414,986.7311 3474.3482,986.7311 Q3475.0538,986.7311 3475.7012,986.8805 Q3476.3487,987.0299 3476.9131,987.3287 L3476.9131,990.0514 Q3476.2823,989.4704 3475.6888,989.2006 Q3475.0953,988.9308 3474.4644,988.9308 Q3473.1197,988.9308 3472.4349,989.9975 Q3471.7501,991.0641 3471.7501,993.1642 Q3471.7501,995.256 3472.4349,996.3226 Q3473.1197,997.3893 3474.4644,997.3893 Q3475.0953,997.3893 3475.6888,997.1195 Q3476.2823,996.8497 3476.9131,996.2687 Z " fill="#000000"/><text fill="#000000" font-family="sans-serif" font-size="14" lengthAdjust="spacing" textLength="94.1104" x="3487.94" y="998.6393">ReportSection</text><line style="stroke:#181818;stroke-width:0.5;" x1="3459.94" x2="3584.0504" y1="1009.3483" y2="1009.3483"/><text fill="#000000" font-family="sans-serif" font-size="14" lengthAdjust="spacing" textLength="83.2959" x="3464.94" y="1026.8834">-title: String</text><text fill="#000000" font-family="sans-serif" font-size="14" lengthAdjust="spacing" textLength="108.3496" x="3464.94" y="1043.3717">-content: String</text><line style="stroke:#181818;stroke-width:0.5;" x1="3459.94" x2="3584.0504" y1="1050.3248" y2="1050.3248"/></g><!--class ReportGraphic--><g class="entity" data-qualified-name="reporting.core.ReportGraphic" data-source-line="113" id="ent0028"><rect fill="#F1F1F1" height="97.4648" rx="2.5" ry="2.5" style="stroke:#181818;stroke-width:0.5;" width="129.3232" x="4032.34" y="969.0983"/><ellipse cx="4047.34" cy="985.0983" fill="#C2C2C2" rx="11" ry="11" style="stroke:#181818;stroke-width:1;"/><path d="M4050.3131,990.7413 Q4049.7321,991.0402 4049.0929,991.1896 Q4048.4538,991.339 4047.7482,991.339 Q4045.2414,991.339 4043.9215,989.6871 Q4042.6017,988.0353 4042.6017,984.9142 Q4042.6017,981.7848 4043.9215,980.1329 Q4045.2414,978.4811 4047.7482,978.4811 Q4048.4538,978.4811 4049.1012,978.6305 Q4049.7487,978.7799 4050.3131,979.0787 L4050.3131,981.8014 Q4049.6823,981.2204 4049.0888,980.9506 Q4048.4953,980.6808 4047.8644,980.6808 Q4046.5197,980.6808 4045.8349,981.7475 Q4045.1501,982.8141 4045.1501,984.9142 Q4045.1501,987.006 4045.8349,988.0726 Q4046.5197,989.1393 4047.8644,989.1393 Q4048.4953,989.1393 4049.0888,988.8695 Q4049.6823,988.5997 4050.3131,988.0187 Z " fill="#000000"/><text fill="#000000" font-family="sans-serif" font-size="14" lengthAdjust="spacing" textLength="97.3232" x="4061.34" y="990.3893">ReportGraphic</text><line style="stroke:#181818;stroke-width:0.5;" x1="4033.34" x2="4160.6632" y1="1001.0983" y2="1001.0983"/><text fill="#000000" font-family="sans-serif" font-size="14" lengthAdjust="spacing" textLength="83.2959" x="4038.34" y="1018.6334">-title: String</text><text fill="#000000" font-family="sans-serif" font-size="14" lengthAdjust="spacing" textLength="86.0918" x="4038.34" y="1035.1217">-type: String</text><text fill="#000000" font-family="sans-serif" font-size="14" lengthAdjust="spacing" textLength="90.624" x="4038.34" y="1051.61">-data: Object</text><line style="stroke:#181818;stroke-width:0.5;" x1="4033.34" x2="4160.6632" y1="1058.5631" y2="1058.5631"/></g><!--class ReportFileWriter--><g class="entity" data-qualified-name="reporting.core.ReportFileWriter" data-source-line="119" id="ent0029"><rect fill="#F1F1F1" height="64.4883" rx="2.5" ry="2.5" style="stroke:#181818;stroke-width:0.5;" width="371.7275" x="1692.14" y="771.6383"/><ellipse cx="1819.2816" cy="787.6383" fill="#C2C2C2" rx="11" ry="11" style="stroke:#181818;stroke-width:1;"/><path d="M1822.2547,793.2813 Q1821.6737,793.5802 1821.0345,793.7296 Q1820.3954,793.879 1819.6898,793.879 Q1817.183,793.879 1815.8631,792.2271 Q1814.5433,790.5753 1814.5433,787.4542 Q1814.5433,784.3248 1815.8631,782.6729 Q1817.183,781.0211 1819.6898,781.0211 Q1820.3954,781.0211 1821.0428,781.1705 Q1821.6903,781.3199 1822.2547,781.6188 L1822.2547,784.3414 Q1821.6239,783.7604 1821.0304,783.4906 Q1820.4369,783.2208 1819.806,783.2208 Q1818.4613,783.2208 1817.7765,784.2875 Q1817.0917,785.3541 1817.0917,787.4542 Q1817.0917,789.546 1817.7765,790.6126 Q1818.4613,791.6793 1819.806,791.6793 Q1820.4369,791.6793 1821.0304,791.4095 Q1821.6239,791.1397 1822.2547,790.5587 Z " fill="#000000"/><text fill="#000000" font-family="sans-serif" font-size="14" lengthAdjust="spacing" textLength="108.9443" x="1839.7816" y="792.9293">ReportFileWriter</text><line style="stroke:#181818;stroke-width:0.5;" x1="1693.14" x2="2062.8675" y1="803.6383" y2="803.6383"/><line style="stroke:#181818;stroke-width:0.5;" x1="1693.14" x2="2062.8675" y1="811.6383" y2="811.6383"/><text fill="#000000" font-family="sans-serif" font-size="14" lengthAdjust="spacing" textLength="359.7275" x="1698.14" y="829.1734">+save(report: GeneratedReport): ReportFileReference</text></g><!--class ReportFileReference--><g class="entity" data-qualified-name="reporting.core.ReportFileReference" data-source-line="123" id="ent0030"><rect fill="#F1F1F1" height="80.9766" rx="2.5" ry="2.5" style="stroke:#181818;stroke-width:0.5;" width="194.1709" x="1780.91" y="977.3483"/><ellipse cx="1808.0402" cy="993.3483" fill="#C2C2C2" rx="11" ry="11" style="stroke:#181818;stroke-width:1;"/><path d="M1811.0134,998.9913 Q1810.4323,999.2902 1809.7932,999.4396 Q1809.154,999.589 1808.4484,999.589 Q1805.9416,999.589 1804.6218,997.9371 Q1803.3019,996.2853 1803.3019,993.1642 Q1803.3019,990.0348 1804.6218,988.3829 Q1805.9416,986.7311 1808.4484,986.7311 Q1809.154,986.7311 1809.8015,986.8805 Q1810.4489,987.0299 1811.0134,987.3287 L1811.0134,990.0514 Q1810.3825,989.4704 1809.789,989.2006 Q1809.1955,988.9308 1808.5646,988.9308 Q1807.2199,988.9308 1806.5351,989.9975 Q1805.8503,991.0641 1805.8503,993.1642 Q1805.8503,995.256 1806.5351,996.3226 Q1807.2199,997.3893 1808.5646,997.3893 Q1809.1955,997.3893 1809.789,997.1195 Q1810.3825,996.8497 1811.0134,996.2687 Z " fill="#000000"/><text fill="#000000" font-family="sans-serif" font-size="14" lengthAdjust="spacing" textLength="135.2148" x="1824.7358" y="998.6393">ReportFileReference</text><line style="stroke:#181818;stroke-width:0.5;" x1="1781.91" x2="1974.0809" y1="1009.3483" y2="1009.3483"/><text fill="#000000" font-family="sans-serif" font-size="14" lengthAdjust="spacing" textLength="107.3652" x="1786.91" y="1026.8834">-filePath: String</text><text fill="#000000" font-family="sans-serif" font-size="14" lengthAdjust="spacing" textLength="182.1709" x="1786.91" y="1043.3717">-createdAt: LocalDateTime</text><line style="stroke:#181818;stroke-width:0.5;" x1="1781.91" x2="1974.0809" y1="1050.3248" y2="1050.3248"/></g><!--class MonthlyStatisticsReportGenerator--><g class="entity" data-qualified-name="reporting.monthly.MonthlyStatisticsReportGenerator" data-source-line="130" id="ent0032"><rect fill="#F1F1F1" height="64.4883" rx="2.5" ry="2.5" style="stroke:#181818;stroke-width:0.5;" width="377.2236" x="1258.39" y="584.4183"/><ellipse cx="1328.9471" cy="600.4183" fill="#C2C2C2" rx="11" ry="11" style="stroke:#181818;stroke-width:1;"/><path d="M1331.9203,606.0613 Q1331.3392,606.3602 1330.7001,606.5096 Q1330.0609,606.659 1329.3553,606.659 Q1326.8485,606.659 1325.5287,605.0071 Q1324.2088,603.3553 1324.2088,600.2342 Q1324.2088,597.1048 1325.5287,595.4529 Q1326.8485,593.8011 1329.3553,593.8011 Q1330.0609,593.8011 1330.7084,593.9505 Q1331.3558,594.0999 1331.9203,594.3988 L1331.9203,597.1214 Q1331.2894,596.5404 1330.6959,596.2706 Q1330.1024,596.0008 1329.4715,596.0008 Q1328.1268,596.0008 1327.442,597.0675 Q1326.7572,598.1341 1326.7572,600.2342 Q1326.7572,602.326 1327.442,603.3926 Q1328.1268,604.4593 1329.4715,604.4593 Q1330.1024,604.4593 1330.6959,604.1895 Q1331.2894,603.9197 1331.9203,603.3387 Z " fill="#000000"/><text fill="#000000" font-family="sans-serif" font-size="14" lengthAdjust="spacing" textLength="227.6094" x="1349.4471" y="605.7093">MonthlyStatisticsReportGenerator</text><line style="stroke:#181818;stroke-width:0.5;" x1="1259.39" x2="1634.6136" y1="616.4183" y2="616.4183"/><line style="stroke:#181818;stroke-width:0.5;" x1="1259.39" x2="1634.6136" y1="624.4183" y2="624.4183"/><text fill="#000000" font-family="sans-serif" font-size="14" lengthAdjust="spacing" textLength="365.2236" x="1264.39" y="641.9534">+generate(period: ReportingPeriod): GeneratedReport</text></g><!--class MonthlyStatisticsDataCollector--><g class="entity" data-qualified-name="reporting.monthly.MonthlyStatisticsDataCollector" data-source-line="134" id="ent0033"><rect fill="#F1F1F1" height="64.4883" rx="2.5" ry="2.5" style="stroke:#181818;stroke-width:0.5;" width="393.377" x="1242.31" y="771.6383"/><ellipse cx="1331.1225" cy="787.6383" fill="#C2C2C2" rx="11" ry="11" style="stroke:#181818;stroke-width:1;"/><path d="M1334.0956,793.2813 Q1333.5146,793.5802 1332.8754,793.7296 Q1332.2363,793.879 1331.5307,793.879 Q1329.0239,793.879 1327.704,792.2271 Q1326.3842,790.5753 1326.3842,787.4542 Q1326.3842,784.3248 1327.704,782.6729 Q1329.0239,781.0211 1331.5307,781.0211 Q1332.2363,781.0211 1332.8837,781.1705 Q1333.5312,781.3199 1334.0956,781.6188 L1334.0956,784.3414 Q1333.4648,783.7604 1332.8713,783.4906 Q1332.2778,783.2208 1331.6469,783.2208 Q1330.3022,783.2208 1329.6174,784.2875 Q1328.9326,785.3541 1328.9326,787.4542 Q1328.9326,789.546 1329.6174,790.6126 Q1330.3022,791.6793 1331.6469,791.6793 Q1332.2778,791.6793 1332.8713,791.4095 Q1333.4648,791.1397 1334.0956,790.5587 Z " fill="#000000"/><text fill="#000000" font-family="sans-serif" font-size="14" lengthAdjust="spacing" textLength="207.252" x="1351.6225" y="792.9293">MonthlyStatisticsDataCollector</text><line style="stroke:#181818;stroke-width:0.5;" x1="1243.31" x2="1634.687" y1="803.6383" y2="803.6383"/><line style="stroke:#181818;stroke-width:0.5;" x1="1243.31" x2="1634.687" y1="811.6383" y2="811.6383"/><text fill="#000000" font-family="sans-serif" font-size="14" lengthAdjust="spacing" textLength="381.377" x="1248.31" y="829.1734">+collect(period: ReportingPeriod): MonthlyStatisticsData</text></g><!--class MonthlyStatisticsData--><g class="entity" data-qualified-name="reporting.monthly.MonthlyStatisticsData" data-source-line="138" id="ent0034"><rect fill="#F1F1F1" height="130.4414" rx="2.5" ry="2.5" style="stroke:#181818;stroke-width:0.5;" width="185.8379" x="1346.08" y="952.6083"/><ellipse cx="1364.4554" cy="968.6083" fill="#C2C2C2" rx="11" ry="11" style="stroke:#181818;stroke-width:1;"/><path d="M1367.4286,974.2513 Q1366.8475,974.5502 1366.2084,974.6996 Q1365.5692,974.849 1364.8636,974.849 Q1362.3568,974.849 1361.037,973.1971 Q1359.7172,971.5453 1359.7172,968.4242 Q1359.7172,965.2948 1361.037,963.6429 Q1362.3568,961.9911 1364.8636,961.9911 Q1365.5692,961.9911 1366.2167,962.1405 Q1366.8641,962.2899 1367.4286,962.5887 L1367.4286,965.3114 Q1366.7977,964.7304 1366.2042,964.4606 Q1365.6107,964.1908 1364.9799,964.1908 Q1363.6351,964.1908 1362.9503,965.2575 Q1362.2655,966.3241 1362.2655,968.4242 Q1362.2655,970.516 1362.9503,971.5826 Q1363.6351,972.6493 1364.9799,972.6493 Q1365.6107,972.6493 1366.2042,972.3795 Q1366.7977,972.1097 1367.4286,971.5287 Z " fill="#000000"/><text fill="#000000" font-family="sans-serif" font-size="14" lengthAdjust="spacing" textLength="146.3369" x="1379.2055" y="973.8993">MonthlyStatisticsData</text><line style="stroke:#181818;stroke-width:0.5;" x1="1347.08" x2="1530.9179" y1="984.6083" y2="984.6083"/><text fill="#000000" font-family="sans-serif" font-size="14" lengthAdjust="spacing" textLength="144.6143" x="1352.08" y="1002.1434">-totalSimulations: int</text><text fill="#000000" font-family="sans-serif" font-size="14" lengthAdjust="spacing" textLength="111.1729" x="1352.08" y="1018.6317">-totalFlights: int</text><text fill="#000000" font-family="sans-serif" font-size="14" lengthAdjust="spacing" textLength="173.8379" x="1352.08" y="1035.12">-totalSafetyViolations: int</text><text fill="#000000" font-family="sans-serif" font-size="14" lengthAdjust="spacing" textLength="157.5889" x="1352.08" y="1051.6083">-passedValidations: int</text><text fill="#000000" font-family="sans-serif" font-size="14" lengthAdjust="spacing" textLength="147.7451" x="1352.08" y="1068.0966">-failedValidations: int</text><line style="stroke:#181818;stroke-width:0.5;" x1="1347.08" x2="1530.9179" y1="1075.0497" y2="1075.0497"/></g><!--class User--><g class="entity" data-qualified-name="domain.User" data-source-line="148" id="ent0036"><rect fill="#F1F1F1" height="97.4648" rx="2.5" ry="2.5" style="stroke:#181818;stroke-width:0.5;" width="350.8369" x="314.58" y="969.0983"/><ellipse cx="470.5658" cy="985.0983" fill="#C2C2C2" rx="11" ry="11" style="stroke:#181818;stroke-width:1;"/><path d="M473.539,990.7413 Q472.9579,991.0402 472.3188,991.1896 Q471.6796,991.339 470.974,991.339 Q468.4672,991.339 467.1474,989.6871 Q465.8276,988.0353 465.8276,984.9142 Q465.8276,981.7848 467.1474,980.1329 Q468.4672,978.4811 470.974,978.4811 Q471.6796,978.4811 472.3271,978.6305 Q472.9745,978.7799 473.539,979.0787 L473.539,981.8014 Q472.9081,981.2204 472.3146,980.9506 Q471.7211,980.6808 471.0903,980.6808 Q469.7455,980.6808 469.0607,981.7475 Q468.3759,982.8141 468.3759,984.9142 Q468.3759,987.006 469.0607,988.0726 Q469.7455,989.1393 471.0903,989.1393 Q471.7211,989.1393 472.3146,988.8695 Q472.9081,988.5997 473.539,988.0187 Z " fill="#000000"/><text fill="#000000" font-family="sans-serif" font-size="14" lengthAdjust="spacing" textLength="30.3652" x="491.0658" y="990.3893">User</text><line style="stroke:#181818;stroke-width:0.5;" x1="315.58" x2="664.4169" y1="1001.0983" y2="1001.0983"/><text fill="#000000" font-family="sans-serif" font-size="14" lengthAdjust="spacing" textLength="90.1387" x="320.58" y="1018.6334">-email: Email</text><text fill="#000000" font-family="sans-serif" font-size="14" lengthAdjust="spacing" textLength="125.7129" x="320.58" y="1035.1217">-roles: List&lt;Role&gt;</text><line style="stroke:#181818;stroke-width:0.5;" x1="315.58" x2="664.4169" y1="1042.0748" y2="1042.0748"/><text fill="#000000" font-family="sans-serif" font-size="14" lengthAdjust="spacing" textLength="338.8369" x="320.58" y="1059.61">+hasPermission(permission: Permission): boolean</text></g><!--class Role--><g class="entity" data-qualified-name="domain.Role" data-source-line="154" id="ent0037"><rect fill="#F1F1F1" height="80.9766" rx="2.5" ry="2.5" style="stroke:#181818;stroke-width:0.5;" width="231.2969" x="305.35" y="1170.0583"/><ellipse cx="402.099" cy="1186.0583" fill="#C2C2C2" rx="11" ry="11" style="stroke:#181818;stroke-width:1;"/><path d="M405.0722,1191.7013 Q404.4911,1192.0002 403.852,1192.1496 Q403.2128,1192.299 402.5072,1192.299 Q400.0004,1192.299 398.6806,1190.6471 Q397.3607,1188.9953 397.3607,1185.8742 Q397.3607,1182.7448 398.6806,1181.0929 Q400.0004,1179.4411 402.5072,1179.4411 Q403.2128,1179.4411 403.8603,1179.5905 Q404.5077,1179.7399 405.0722,1180.0388 L405.0722,1182.7614 Q404.4413,1182.1804 403.8478,1181.9106 Q403.2543,1181.6408 402.6234,1181.6408 Q401.2787,1181.6408 400.5939,1182.7075 Q399.9091,1183.7741 399.9091,1185.8742 Q399.9091,1187.966 400.5939,1189.0326 Q401.2787,1190.0993 402.6234,1190.0993 Q403.2543,1190.0993 403.8478,1189.8295 Q404.4413,1189.5597 405.0722,1188.9787 Z " fill="#000000"/><text fill="#000000" font-family="sans-serif" font-size="14" lengthAdjust="spacing" textLength="29.2988" x="422.599" y="1191.3493">Role</text><line style="stroke:#181818;stroke-width:0.5;" x1="306.35" x2="535.6469" y1="1202.0583" y2="1202.0583"/><text fill="#000000" font-family="sans-serif" font-size="14" lengthAdjust="spacing" textLength="94.2197" x="311.35" y="1219.5934">-name: String</text><text fill="#000000" font-family="sans-serif" font-size="14" lengthAdjust="spacing" textLength="219.2969" x="311.35" y="1236.0817">-permissions: List&lt;Permission&gt;</text><line style="stroke:#181818;stroke-width:0.5;" x1="306.35" x2="535.6469" y1="1243.0348" y2="1243.0348"/></g><!--class Permission--><g class="entity" data-qualified-name="domain.Permission" data-source-line="159" id="ent0038"><rect fill="#F1F1F1" height="64.4883" rx="2.5" ry="2.5" style="stroke:#181818;stroke-width:0.5;" width="106.2197" x="367.89" y="1312.0283"/><ellipse cx="382.9924" cy="1328.0283" fill="#C2C2C2" rx="11" ry="11" style="stroke:#181818;stroke-width:1;"/><path d="M385.9655,1333.6713 Q385.3845,1333.9702 384.7453,1334.1196 Q384.1062,1334.269 383.4006,1334.269 Q380.8938,1334.269 379.5739,1332.6171 Q378.2541,1330.9653 378.2541,1327.8442 Q378.2541,1324.7148 379.5739,1323.0629 Q380.8938,1321.4111 383.4006,1321.4111 Q384.1062,1321.4111 384.7536,1321.5605 Q385.4011,1321.7099 385.9655,1322.0088 L385.9655,1324.7314 Q385.3347,1324.1504 384.7412,1323.8806 Q384.1477,1323.6108 383.5168,1323.6108 Q382.1721,1323.6108 381.4873,1324.6775 Q380.8025,1325.7441 380.8025,1327.8442 Q380.8025,1329.936 381.4873,1331.0026 Q382.1721,1332.0693 383.5168,1332.0693 Q384.1477,1332.0693 384.7412,1331.7995 Q385.3347,1331.5297 385.9655,1330.9487 Z " fill="#000000"/><text fill="#000000" font-family="sans-serif" font-size="14" lengthAdjust="spacing" textLength="73.9922" x="397.0151" y="1333.3193">Permission</text><line style="stroke:#181818;stroke-width:0.5;" x1="368.89" x2="473.1097" y1="1344.0283" y2="1344.0283"/><text fill="#000000" font-family="sans-serif" font-size="14" lengthAdjust="spacing" textLength="94.2197" x="373.89" y="1361.5634">-name: String</text><line style="stroke:#181818;stroke-width:0.5;" x1="368.89" x2="473.1097" y1="1368.5166" y2="1368.5166"/></g><!--class Email--><g class="entity" data-qualified-name="domain.Email" data-source-line="163" id="ent0039"><rect fill="#F1F1F1" height="64.4883" rx="2.5" ry="2.5" style="stroke:#181818;stroke-width:0.5;" width="104.4424" x="571.78" y="1178.2983"/><ellipse cx="602.9615" cy="1194.2983" fill="#C2C2C2" rx="11" ry="11" style="stroke:#181818;stroke-width:1;"/><path d="M605.9347,1199.9413 Q605.3536,1200.2402 604.7145,1200.3896 Q604.0753,1200.539 603.3697,1200.539 Q600.8629,1200.539 599.5431,1198.8871 Q598.2233,1197.2353 598.2233,1194.1142 Q598.2233,1190.9848 599.5431,1189.3329 Q600.8629,1187.6811 603.3697,1187.6811 Q604.0753,1187.6811 604.7228,1187.8305 Q605.3702,1187.9799 605.9347,1188.2788 L605.9347,1191.0014 Q605.3038,1190.4204 604.7103,1190.1506 Q604.1168,1189.8808 603.486,1189.8808 Q602.1412,1189.8808 601.4564,1190.9475 Q600.7716,1192.0141 600.7716,1194.1142 Q600.7716,1196.206 601.4564,1197.2726 Q602.1412,1198.3393 603.486,1198.3393 Q604.1168,1198.3393 604.7103,1198.0695 Q605.3038,1197.7997 605.9347,1197.2187 Z " fill="#000000"/><text fill="#000000" font-family="sans-serif" font-size="14" lengthAdjust="spacing" textLength="36.4834" x="620.5574" y="1199.5893">Email</text><line style="stroke:#181818;stroke-width:0.5;" x1="572.78" x2="675.2224" y1="1210.2983" y2="1210.2983"/><text fill="#000000" font-family="sans-serif" font-size="14" lengthAdjust="spacing" textLength="92.4424" x="577.78" y="1227.8334">-value: String</text><line style="stroke:#181818;stroke-width:0.5;" x1="572.78" x2="675.2224" y1="1234.7866" y2="1234.7866"/></g><!--link GenerateMonthlyReportUI to GenerateMonthlyReportController--><g class="link" data-entity-1="ent0003" data-entity-2="ent0006" data-link-type="dependency" data-source-line="168" id="lnk40"><path codeLine="168" d="M356,253.3683 C356,293.9483 356,338.4983 356,370.5583" fill="none" id="GenerateMonthlyReportUI-to-GenerateMonthlyReportController" style="stroke:#181818;stroke-width:1;"/><polygon fill="#181818" points="356,376.5583,360,367.5583,356,371.5583,352,367.5583,356,376.5583" style="stroke:#181818;stroke-width:1;"/><polygon fill="#000000" points="361,322.5836,363.9389,313.5385,358.0611,313.5385,361,322.5836" style="stroke:#000000;stroke-width:1;"/><text fill="#000000" font-family="sans-serif" font-size="13" lengthAdjust="spacing" textLength="28.5645" x="370" y="322.4966">uses</text></g><!--link GenerateMonthlyReportController to GenerateMonthlyReportService--><g class="link" data-entity-1="ent0006" data-entity-2="ent0008" data-link-type="dependency" data-source-line="169" id="lnk41"><path codeLine="169" d="M356,441.8283 C356,480.4383 356,539.3383 356,577.9683" fill="none" id="GenerateMonthlyReportController-to-GenerateMonthlyReportService" style="stroke:#181818;stroke-width:1;"/><polygon fill="#181818" points="356,583.9683,360,574.9683,356,578.9683,352,574.9683,356,583.9683" style="stroke:#181818;stroke-width:1;"/><polygon fill="#000000" points="361,487.0736,363.9389,478.0285,358.0611,478.0285,361,487.0736" style="stroke:#000000;stroke-width:1;"/><text fill="#000000" font-family="sans-serif" font-size="13" lengthAdjust="spacing" textLength="28.5645" x="370" y="486.9866">uses</text></g><!--link GenerateMonthlyReportService to AuthorizationService--><g class="link" data-entity-1="ent0008" data-entity-2="ent0011" data-link-type="dependency" data-source-line="170" id="lnk42"><path codeLine="170" d="M378.73,649.0783 C403.37,683.1383 438.9526,732.3274 463.6426,766.4474" fill="none" id="GenerateMonthlyReportService-to-AuthorizationService" style="stroke:#181818;stroke-width:1;"/><polygon fill="#181818" points="467.16,771.3083,465.1244,761.6721,464.2288,767.2576,458.6433,766.362,467.16,771.3083" style="stroke:#181818;stroke-width:1;"/><polygon fill="#000000" points="422.9108,699.8546,419.9901,690.8036,415.2278,694.2489,422.9108,699.8546" style="stroke:#000000;stroke-width:1;"/><text fill="#000000" font-family="sans-serif" font-size="13" lengthAdjust="spacing" textLength="116.6699" x="428.98" y="700.7166">checks permission</text></g><!--link GenerateMonthlyReportService to ReportingPeriodValidator--><g class="link" data-entity-1="ent0008" data-entity-2="ent0012" data-link-type="dependency" data-source-line="171" id="lnk43"><path codeLine="171" d="M502.95,649.3583 C569,665.3483 647.36,686.7683 716,712.1483 C760.68,728.6683 803.6826,749.4988 840.0126,768.4888" fill="none" id="GenerateMonthlyReportService-to-ReportingPeriodValidator" style="stroke:#181818;stroke-width:1;"/><polygon fill="#181818" points="845.33,771.2683,839.2069,763.5542,840.8988,768.9521,835.5009,770.644,845.33,771.2683" style="stroke:#181818;stroke-width:1;"/><polygon fill="#000000" points="697.3042,697.4697,689.7555,691.6846,687.7968,697.2265,697.3042,697.4697" style="stroke:#000000;stroke-width:1;"/><text fill="#000000" font-family="sans-serif" font-size="13" lengthAdjust="spacing" textLength="55.5166" x="701.59" y="700.7166">validates</text></g><!--link GenerateMonthlyReportService to ReportGeneratorRegistry--><g class="link" data-entity-1="ent0008" data-entity-2="ent0015" data-link-type="dependency" data-source-line="172" id="lnk44"><path codeLine="172" d="M634.25,649.3883 C658.84,652.0683 683.37,654.6883 707,657.1483 C846,671.6283 882.02,664.9883 1020,687.1483 C1053.75,692.5683 1061.05,700.2283 1095,704.1483 C1159.13,711.5483 2193.72,699.3883 2257,712.1483 C2313.9,723.6283 2369.2296,747.1729 2412.4296,768.4929" fill="none" id="GenerateMonthlyReportService-to-ReportGeneratorRegistry" style="stroke:#181818;stroke-width:1;"/><polygon fill="#181818" points="2417.81,771.1483,2411.5096,763.5783,2413.3263,768.9355,2407.9691,770.7522,2417.81,771.1483" style="stroke:#181818;stroke-width:1;"/><polygon fill="#000000" points="1104.9888,696.1377,1096.1604,692.6009,1095.7675,698.4656,1104.9888,696.1377" style="stroke:#000000;stroke-width:1;"/><text fill="#000000" font-family="sans-serif" font-size="13" lengthAdjust="spacing" textLength="116.9683" x="1109" y="700.7166">resolves generator</text></g><!--link GenerateMonthlyReportService to ReportFileWriter--><g class="link" data-entity-1="ent0008" data-entity-2="ent0029" data-link-type="dependency" data-source-line="173" id="lnk45"><path codeLine="173" d="M523.04,649.3983 C635.82,669.2683 788.29,693.1283 924,704.1483 C1004.63,710.6983 1572.66,696.3583 1652,712.1483 C1710.26,723.7383 1767.2387,747.3465 1811.6687,768.6265" fill="none" id="GenerateMonthlyReportService-to-ReportFileWriter" style="stroke:#181818;stroke-width:1;"/><polygon fill="#181818" points="1817.08,771.2183,1810.6909,763.723,1812.5705,769.0585,1807.2351,770.9382,1817.08,771.2183" style="stroke:#181818;stroke-width:1;"/><polygon fill="#000000" points="933.9787,696.2642,925.2429,692.5045,924.7014,698.3573,933.9787,696.2642" style="stroke:#000000;stroke-width:1;"/><text fill="#000000" font-family="sans-serif" font-size="13" lengthAdjust="spacing" textLength="77.4287" x="938" y="700.7166">saves report</text></g><!--link GenerateMonthlyReportService to ReportGenerationResultDTO--><g class="link" data-entity-1="ent0008" data-entity-2="ent0010" data-link-type="dependency" data-source-line="174" id="lnk46"><path codeLine="174" d="M318.26,649.2883 C289.17,673.6683 252.5588,704.3546 216.5788,734.5046" fill="none" id="GenerateMonthlyReportService-to-ReportGenerationResultDTO" style="stroke:#181818;stroke-width:1;"/><polygon fill="#181818" points="211.98,738.3583,221.4474,735.6437,215.8124,735.1469,216.3091,729.5119,211.98,738.3583" style="stroke:#181818;stroke-width:1;"/><polygon fill="#000000" points="272.9578,699.0152,281.778,695.4578,278.0025,690.9528,272.9578,699.0152" style="stroke:#000000;stroke-width:1;"/><text fill="#000000" font-family="sans-serif" font-size="13" lengthAdjust="spacing" textLength="45.5063" x="285.79" y="700.7166">returns</text></g><!--link AuthorizationService to User--><g class="link" data-entity-1="ent0011" data-entity-2="ent0036" data-link-type="dependency" data-source-line="176" id="lnk47"><path codeLine="176" d="M490,836.6083 C490,871.5983 490,922.2983 490,962.7483" fill="none" id="AuthorizationService-to-User" style="stroke:#181818;stroke-width:1;"/><polygon fill="#181818" points="490,968.7483,494,959.7483,490,963.7483,486,959.7483,490,968.7483" style="stroke:#181818;stroke-width:1;"/><polygon fill="#000000" points="495,914.7536,497.9389,905.7085,492.0611,905.7085,495,914.7536" style="stroke:#000000;stroke-width:1;"/><text fill="#000000" font-family="sans-serif" font-size="13" lengthAdjust="spacing" textLength="42.853" x="504" y="914.6666">checks</text></g><!--reverse link User to Role--><g class="link" data-entity-1="ent0036" data-entity-2="ent0037" data-link-type="aggregation" data-source-line="177" id="lnk48"><path codeLine="177" d="M468.5068,1078.2422 C457.0068,1110.0222 446.2,1139.8783 435.38,1169.7983" fill="none" id="User-backto-Role" style="stroke:#181818;stroke-width:1;"/><polygon fill="none" points="472.59,1066.9583,466.7871,1071.2392,468.5068,1078.2422,474.3097,1073.9613,472.59,1066.9583" style="stroke:#181818;stroke-width:1;"/><text fill="#000000" font-family="sans-serif" font-size="13" lengthAdjust="spacing" textLength="8.2202" x="461.728" y="1087.1568">1</text><text fill="#000000" font-family="sans-serif" font-size="13" lengthAdjust="spacing" textLength="22.7119" x="413.999" y="1159.4012">1..*</text></g><!--reverse link Role to Permission--><g class="link" data-entity-1="ent0037" data-entity-2="ent0038" data-link-type="aggregation" data-source-line="178" id="lnk49"><path codeLine="178" d="M421,1263.4183 C421,1282.8083 421,1293.7683 421,1311.8883" fill="none" id="Role-backto-Permission" style="stroke:#181818;stroke-width:1;"/><polygon fill="none" points="421,1251.4183,417,1257.4183,421,1263.4183,425,1257.4183,421,1251.4183" style="stroke:#181818;stroke-width:1;"/><text fill="#000000" font-family="sans-serif" font-size="13" lengthAdjust="spacing" textLength="8.2202" x="412.3803" y="1271.7206">1</text><text fill="#000000" font-family="sans-serif" font-size="13" lengthAdjust="spacing" textLength="6.2651" x="414.4086" y="1301.2626">*</text></g><!--reverse link User to Email--><g class="link" data-entity-1="ent0036" data-entity-2="ent0039" data-link-type="composition" data-source-line="179" id="lnk50"><path codeLine="179" d="M530.7101,1076.776 C555.1401,1111.536 580.53,1147.6783 601.76,1177.8983" fill="none" id="User-backto-Email" style="stroke:#181818;stroke-width:1;"/><polygon fill="#181818" points="523.81,1066.9583,523.9875,1074.1672,530.7101,1076.776,530.5326,1069.5671,523.81,1066.9583" style="stroke:#181818;stroke-width:1;"/></g><!--link ReportGeneratorRegistry to ReportGenerator--><g class="link" data-entity-1="ent0015" data-entity-2="ent0017" data-link-type="dependency" data-source-line="181" id="lnk51"><path codeLine="181" d="M2545.05,836.5483 C2587.86,855.3583 2644.72,878.3583 2697,893.0983 C2760.78,911.0883 2777.99,912.1783 2844,918.0983 C2886,921.8683 3561.78,917.1983 3603,926.0983 C3656.67,937.6883 3708.1734,961.0883 3748.5034,982.3683" fill="none" id="ReportGeneratorRegistry-to-ReportGenerator" style="stroke:#181818;stroke-width:1;"/><polygon fill="#181818" points="3753.81,985.1683,3747.7168,977.4305,3749.3878,982.8349,3743.9834,984.506,3753.81,985.1683" style="stroke:#181818;stroke-width:1;"/><polygon fill="#000000" points="2853.9637,910.355,2845.3378,906.3494,2844.6308,912.1846,2853.9637,910.355" style="stroke:#000000;stroke-width:1;"/><text fill="#000000" font-family="sans-serif" font-size="13" lengthAdjust="spacing" textLength="45.5063" x="2858" y="914.6666">returns</text></g><!--reverse link ReportGenerator to MonthlyStatisticsReportGenerator--><g class="link" data-entity-1="ent0017" data-entity-2="ent0032" data-link-type="extension" data-source-line="182" id="lnk52"><path codeLine="182" d="M3880.5868,976.7207 C3920.9068,955.5507 3961.57,937.8883 4015,926.0983 C4104.2,906.4183 4335.83,932.7583 4426,918.0983 C4462.77,912.1183 4483.93,923.1183 4506,893.0983 C4553.64,828.3083 4559.32,772.3583 4506,712.1483 C4458.25,658.2183 2295.36,627.8483 1635.88,619.8283" fill="none" id="ReportGenerator-backto-MonthlyStatisticsReportGenerator" style="stroke:#181818;stroke-width:1;stroke-dasharray:7,7;"/><polygon fill="none" points="3864.65,985.0883,3883.376,982.0329,3877.7976,971.4084,3864.65,985.0883" style="stroke:#181818;stroke-width:1;"/></g><!--link MonthlyStatisticsReportGenerator to MonthlyStatisticsDataCollector--><g class="link" data-entity-1="ent0032" data-entity-2="ent0033" data-link-type="dependency" data-source-line="184" id="lnk53"><path codeLine="184" d="M1445.64,649.0783 C1444.17,683.1383 1442.1,731.1939 1440.62,765.3139" fill="none" id="MonthlyStatisticsReportGenerator-to-MonthlyStatisticsDataCollector" style="stroke:#181818;stroke-width:1;"/><polygon fill="#181818" points="1440.36,771.3083,1444.7463,762.4901,1440.5767,766.313,1436.7538,762.1434,1440.36,771.3083" style="stroke:#181818;stroke-width:1;"/><polygon fill="#000000" points="1448.7343,700.7989,1452.0607,691.889,1446.1883,691.6354,1448.7343,700.7989" style="stroke:#000000;stroke-width:1;"/><text fill="#000000" font-family="sans-serif" font-size="13" lengthAdjust="spacing" textLength="79.0664" x="1457.95" y="700.7166">collects data</text></g><!--link MonthlyStatisticsReportGenerator to ReportTemplateProvider--><g class="link" data-entity-1="ent0032" data-entity-2="ent0021" data-link-type="dependency" data-source-line="185" id="lnk54"><path codeLine="185" d="M1636.06,624.4683 C1934.53,636.4883 2501.14,664.7583 2697,712.1483 C2751.34,725.2983 2804.1776,748.0073 2846.3176,768.5673" fill="none" id="MonthlyStatisticsReportGenerator-to-ReportTemplateProvider" style="stroke:#181818;stroke-width:1;"/><polygon fill="#181818" points="2851.71,771.1983,2845.3753,763.6569,2847.2163,769.0058,2841.8674,770.8468,2851.71,771.1983" style="stroke:#181818;stroke-width:1;"/><polygon fill="#000000" points="2650.9449,696.3947,2642.3108,692.407,2641.6158,698.2436,2650.9449,696.3947" style="stroke:#000000;stroke-width:1;"/><text fill="#000000" font-family="sans-serif" font-size="13" lengthAdjust="spacing" textLength="86.417" x="2654.98" y="700.7166">gets template</text></g><!--link MonthlyStatisticsReportGenerator to ReportBrandingProvider--><g class="link" data-entity-1="ent0032" data-entity-2="ent0023" data-link-type="dependency" data-source-line="186" id="lnk55"><path codeLine="186" d="M1635.85,626.9583 C1889.36,639.6283 2353.7,663.4383 2750,687.1483 C2917.62,697.1783 2968.37,657.0683 3127,712.1483 C3163.51,724.8283 3194.6716,746.6581 3219.7516,767.4581" fill="none" id="MonthlyStatisticsReportGenerator-to-ReportBrandingProvider" style="stroke:#181818;stroke-width:1;"/><polygon fill="#181818" points="3224.37,771.2883,3219.9959,762.464,3220.5214,768.0964,3214.889,768.6219,3224.37,771.2883" style="stroke:#181818;stroke-width:1;"/><polygon fill="#000000" points="3109.5404,696.2453,3100.7904,692.5187,3100.2711,698.3736,3109.5404,696.2453" style="stroke:#000000;stroke-width:1;"/><text fill="#000000" font-family="sans-serif" font-size="13" lengthAdjust="spacing" textLength="87.8135" x="3113.56" y="700.7166">gets branding</text></g><!--link MonthlyStatisticsReportGenerator to ReportSectionBuilder--><g class="link" data-entity-1="ent0032" data-entity-2="ent0025" data-link-type="dependency" data-source-line="187" id="lnk56"><path codeLine="187" d="M1635.89,619.0483 C1959,622.7783 2638.28,636.5183 3210,687.1483 C3290.89,694.3083 3312.63,690.8783 3391,712.1483 C3444.82,726.7583 3497.5775,748.7926 3540.4375,768.6826" fill="none" id="MonthlyStatisticsReportGenerator-to-ReportSectionBuilder" style="stroke:#181818;stroke-width:1;"/><polygon fill="#181818" points="3545.88,771.2083,3539.4,763.7914,3541.3446,769.1035,3536.0324,771.0481,3545.88,771.2083" style="stroke:#181818;stroke-width:1;"/><polygon fill="#000000" points="3367.2446,696.1952,3358.4575,692.5568,3357.9971,698.4166,3367.2446,696.1952" style="stroke:#000000;stroke-width:1;"/><text fill="#000000" font-family="sans-serif" font-size="13" lengthAdjust="spacing" textLength="94.5166" x="3371.26" y="700.7166">builds sections</text></g><!--link MonthlyStatisticsReportGenerator to ReportGraphicBuilder--><g class="link" data-entity-1="ent0032" data-entity-2="ent0026" data-link-type="dependency" data-source-line="188" id="lnk57"><path codeLine="188" d="M1636.08,621.8683 C1994.67,630.3483 2798.2,651.7783 3474,687.1483 C3631.95,695.4183 3675.17,675.3483 3829,712.1483 C3883.57,725.1983 3936.6416,748.0491 3978.8016,768.6991" fill="none" id="MonthlyStatisticsReportGenerator-to-ReportGraphicBuilder" style="stroke:#181818;stroke-width:1;"/><polygon fill="#181818" points="3984.19,771.3383,3977.8669,763.7872,3979.6997,769.1389,3974.348,770.9717,3984.19,771.3383" style="stroke:#181818;stroke-width:1;"/><polygon fill="#000000" points="3795.9302,696.1163,3787.0867,692.6174,3786.719,698.4837,3795.9302,696.1163" style="stroke:#000000;stroke-width:1;"/><text fill="#000000" font-family="sans-serif" font-size="13" lengthAdjust="spacing" textLength="96.5859" x="3799.94" y="700.7166">builds graphics</text></g><!--link MonthlyStatisticsReportGenerator to GeneratedReport--><g class="link" data-entity-1="ent0032" data-entity-2="ent0020" data-link-type="dependency" data-source-line="189" id="lnk58"><path codeLine="189" d="M1635.99,620.2783 C2048.24,626.5983 3059.16,645.3383 3905,687.1483 C4062.53,694.9283 4111,657.6183 4259,712.1483 C4284.77,721.6383 4305.1166,734.5504 4325.7966,751.0204" fill="none" id="MonthlyStatisticsReportGenerator-to-GeneratedReport" style="stroke:#181818;stroke-width:1;"/><polygon fill="#181818" points="4330.49,754.7583,4325.9419,746.0225,4326.5788,751.6433,4320.958,752.2803,4330.49,754.7583" style="stroke:#181818;stroke-width:1;"/><polygon fill="#000000" points="4243.3841,696.0463,4234.4924,692.6717,4234.207,698.5426,4243.3841,696.0463" style="stroke:#000000;stroke-width:1;"/><text fill="#000000" font-family="sans-serif" font-size="13" lengthAdjust="spacing" textLength="45.1318" x="4247.39" y="700.7166">creates</text></g><!--link MonthlyStatisticsDataCollector to MonthlyStatisticsData--><g class="link" data-entity-1="ent0033" data-entity-2="ent0034" data-link-type="dependency" data-source-line="191" id="lnk59"><path codeLine="191" d="M1439,836.6083 C1439,867.0983 1439,908.0583 1439,946.4083" fill="none" id="MonthlyStatisticsDataCollector-to-MonthlyStatisticsData" style="stroke:#181818;stroke-width:1;"/><polygon fill="#181818" points="1439,952.4083,1443,943.4083,1439,947.4083,1435,943.4083,1439,952.4083" style="stroke:#181818;stroke-width:1;"/><polygon fill="#000000" points="1444,914.7536,1446.9389,905.7085,1441.0611,905.7085,1444,914.7536" style="stroke:#000000;stroke-width:1;"/><text fill="#000000" font-family="sans-serif" font-size="13" lengthAdjust="spacing" textLength="45.5063" x="1453" y="914.6666">returns</text></g><!--link ReportTemplateProvider to ReportTemplate--><g class="link" data-entity-1="ent0021" data-entity-2="ent0022" data-link-type="dependency" data-source-line="193" id="lnk60"><path codeLine="193" d="M2912,836.6083 C2912,871.5983 2912,922.2983 2912,962.7483" fill="none" id="ReportTemplateProvider-to-ReportTemplate" style="stroke:#181818;stroke-width:1;"/><polygon fill="#181818" points="2912,968.7483,2916,959.7483,2912,963.7483,2908,959.7483,2912,968.7483" style="stroke:#181818;stroke-width:1;"/><polygon fill="#000000" points="2917,914.7536,2919.9389,905.7085,2914.0611,905.7085,2917,914.7536" style="stroke:#000000;stroke-width:1;"/><text fill="#000000" font-family="sans-serif" font-size="13" lengthAdjust="spacing" textLength="54.0249" x="2926" y="914.6666">provides</text></g><!--link ReportBrandingProvider to ReportBranding--><g class="link" data-entity-1="ent0023" data-entity-2="ent0024" data-link-type="dependency" data-source-line="194" id="lnk61"><path codeLine="194" d="M3259,836.6083 C3259,871.5983 3259,922.2983 3259,962.7483" fill="none" id="ReportBrandingProvider-to-ReportBranding" style="stroke:#181818;stroke-width:1;"/><polygon fill="#181818" points="3259,968.7483,3263,959.7483,3259,963.7483,3255,959.7483,3259,968.7483" style="stroke:#181818;stroke-width:1;"/><polygon fill="#000000" points="3264,914.7536,3266.9389,905.7085,3261.0611,905.7085,3264,914.7536" style="stroke:#000000;stroke-width:1;"/><text fill="#000000" font-family="sans-serif" font-size="13" lengthAdjust="spacing" textLength="54.0249" x="3273" y="914.6666">provides</text></g><!--link ReportSectionBuilder to ReportSection--><g class="link" data-entity-1="ent0025" data-entity-2="ent0027" data-link-type="dependency" data-source-line="195" id="lnk62"><path codeLine="195" d="M3596.83,836.6083 C3581.29,874.0283 3557.7505,930.7168 3540.8705,971.3768" fill="none" id="ReportSectionBuilder-to-ReportSection" style="stroke:#181818;stroke-width:1;"/><polygon fill="#181818" points="3538.57,976.9183,3545.7151,970.1398,3540.4871,972.3004,3538.3265,967.0724,3538.57,976.9183" style="stroke:#181818;stroke-width:1;"/><polygon fill="#000000" points="3571.7226,914.3713,3577.9055,907.1447,3572.477,904.8907,3571.7226,914.3713" style="stroke:#000000;stroke-width:1;"/><text fill="#000000" font-family="sans-serif" font-size="13" lengthAdjust="spacing" textLength="45.1318" x="3582.64" y="914.6666">creates</text></g><!--link ReportGraphicBuilder to ReportGraphic--><g class="link" data-entity-1="ent0026" data-entity-2="ent0028" data-link-type="dependency" data-source-line="196" id="lnk63"><path codeLine="196" d="M4051.93,836.6083 C4060.68,871.5983 4073.4038,922.4777 4083.5238,962.9277" fill="none" id="ReportGraphicBuilder-to-ReportGraphic" style="stroke:#181818;stroke-width:1;"/><polygon fill="#181818" points="4084.98,968.7483,4086.6761,959.0466,4083.7665,963.8978,4078.9153,960.9882,4084.98,968.7483" style="stroke:#181818;stroke-width:1;"/><polygon fill="#000000" points="4078.3032,914.6041,4078.9596,905.1163,4073.2574,906.5424,4078.3032,914.6041" style="stroke:#000000;stroke-width:1;"/><text fill="#000000" font-family="sans-serif" font-size="13" lengthAdjust="spacing" textLength="45.1318" x="4086.09" y="914.6666">creates</text></g><!--link ReportFileWriter to ReportFileReference--><g class="link" data-entity-1="ent0029" data-entity-2="ent0030" data-link-type="dependency" data-source-line="197" id="lnk64"><path codeLine="197" d="M1878,836.6083 C1878,874.0283 1878,930.2583 1878,970.9183" fill="none" id="ReportFileWriter-to-ReportFileReference" style="stroke:#181818;stroke-width:1;"/><polygon fill="#181818" points="1878,976.9183,1882,967.9183,1878,971.9183,1874,967.9183,1878,976.9183" style="stroke:#181818;stroke-width:1;"/><polygon fill="#000000" points="1883,914.7536,1885.9389,905.7085,1880.0611,905.7085,1883,914.7536" style="stroke:#000000;stroke-width:1;"/><text fill="#000000" font-family="sans-serif" font-size="13" lengthAdjust="spacing" textLength="45.5063" x="1892" y="914.6666">returns</text></g><!--link GeneratedReport to ReportType--><g class="link" data-entity-1="ent0020" data-entity-2="ent0018" data-link-type="dependency" data-source-line="198" id="lnk65"><path codeLine="198" d="M4382,852.9783 C4382,893.5283 4382,944.3883 4382,979.3483" fill="none" id="GeneratedReport-to-ReportType" style="stroke:#181818;stroke-width:1;"/><polygon fill="#181818" points="4382,985.3483,4386,976.3483,4382,980.3483,4378,976.3483,4382,985.3483" style="stroke:#181818;stroke-width:1;"/><polygon fill="#000000" points="4387,914.7536,4389.9389,905.7085,4384.0611,905.7085,4387,914.7536" style="stroke:#000000;stroke-width:1;"/><text fill="#000000" font-family="sans-serif" font-size="13" lengthAdjust="spacing" textLength="21.874" x="4396" y="914.6666">has</text></g><?plantuml-src lLTBRzms4BxhLn3kHKwyHjEZ42pWs4aH86sCNJizqzAibZKbgYJbOjFclsUe9qbHgzqMhGvUcJFpSLuSVj9CSo2FspTlVbhTtaMHUcPbHIKjI25AaUwbA81eMOCbgMZwJ7FOwWEQIaWrBNDkAwWzpSIVhCp9Zd9bIr9EbRhHMhAdMiF7L9HRzXN8Zr7KWPABcbtZiX8SBiWFTyr3_ee8Feqn-HbAa5J3BwBKUtxOG2MaVlpOwPXdPNpN-uImKbkB1w3INNkDtlzHWz9tLDFuqbhFcAeuHN1LSntBvYSXxLwT0qoKhVZkuNF0zBsKGiO5A8LH9MIB8PTvg_Sj-cR5Yy5gAJW7UKQyjuEH5VThaeTquox890orQQMNHy8BU4shYhEqKJl3xIt85vR2_-ZpaaSTqhdTum3F-k2WgZfDiHiIyYImjsbfYMG3y72eXaQP277j7YGJMK1ZnpZSK-FoHEJrtzJtcrhlXMHV6yT3vM6gLu4ihXLW4XxnxnMfG1PCAJHBoFtmVkd65yZJ4CaNobb6jN1R-ALTXNYimjMOV8Jlp8OyJ_VnDPmoDFYX8e0vi5YUJqpfjsswre767yg1KqhEZ2Yd8OJSG8wOyk2r_QWGsmsm6TxzzXRIZXMp0N97iLoUKl1qnLNNFLuHBiSJbhMYkRePZvnCbhGuqbZUFl_gW7aUEbZXr5aAVGQo6vmcdqHAEKvxU625hMI6C9HwAPm7A72sQxYNueLba-4xo9SAskijxUD4kWUQcUCtFVz2wA00cwvETIqNo_HEqZ8pjPg9gvV7GmJzoXAY4u6GEIsxMVEhtpsj2XUvc9bbgU12RjCzBBVT5aa9xl6kPjoFviciTV9O6_RJWrtvNJ04swdFJdv9gprBPtVhv37E99gGpq-_8zmLqTQu7qzwgxeGbvDK9uRpMxhRyIH87RwXxBZcjlc0TzHlacalFug-z8TbCeY6f1ZR3Un0Gfd2iGq69IUQ8zTZAc5-CipD_QBb3-7Htv6BhSOcLvgbwhyUpfCD3PUzDTGmzRTBszKZkmN1JjpJxI2XAT-oekRDOLV-i6_a7pZBzpeisz8TwCCN9cO0AlG3il6cdoZiA9OzhE0MDXC5PJCarZ0T9ov0NPwGz-R7leIGJFJKOOFlQolhUwf6UXJ_0zQ4wyVltIuZ0rhloOY_diAEmZCkzIPkdqxLlW6Qp7sahLRhnG-QX23DL6GTBIdEWlKyzZXIhsLWWZGu8NZPfC_AIkqfMBCqDnd8hJeTPyeY4-Gy-7dyWYZvC5PEnhC6STACNzLHgBDTShvqZ5F8D4eJMHJCfh5lpjEGrdNK_7_nveA8rGf_hwzVNJJz7ZLDFmXmTMpNrkWLhhUdC9hBKo27Zfk-xEtVrzUBypkA5YUysNTXAYVzB5RDvOdEd8GwGq8JGz4KqJrfF0jjGlqwjAUUm9s5vX6lf2L0YgXsNPs7vX6h0Irlrqz6yxyVakxYRvfreLIprNHRVgOqqwgXMTLAnnwSr61Qdf2Pb-n95PmuWncTf3fWOWqCTugCRClEX9zhAmFc0p8nzo6gVGS0?></g></svg>