<?plantuml 1.2026.2?><svg xmlns="http://www.w3.org/2000/svg" xmlns:xlink="http://www.w3.org/1999/xlink" contentStyleType="text/css" data-diagram-type="SEQUENCE" height="756px" preserveAspectRatio="none" style="width:783px;height:756px;background:#FFFFFF;" version="1.1" viewBox="0 0 783 756" width="783px" zoomAndPan="magnify"><defs/><g><g><title>Backoffice Operator</title><rect fill="#FFFFFF" height="573.6133" style="stroke:#181818;stroke-width:1;" width="10" x="84.9956" y="91.4883"/></g><g><title>.System</title><rect fill="#FFFFFF" height="29.3105" style="stroke:#181818;stroke-width:1;" width="10" x="424.8013" y="112.7988"/></g><g><title>.System</title><rect fill="#FFFFFF" height="493.6816" style="stroke:#181818;stroke-width:1;" width="10" x="424.8013" y="171.4199"/></g><rect fill="none" height="133.1973" style="stroke:#000000;stroke-width:1.5;" width="665.5156" x="10" y="524.9043"/><g class="participant-lifeline" data-entity-uid="part1" data-qualified-name="BackofficeOperator" id="part1-lifeline"><g><title>Backoffice Operator</title><rect fill="#000000" fill-opacity="0.00000" height="593.6133" width="8" x="85.9956" y="81.4883"/><line style="stroke:#181818;stroke-width:0.5;stroke-dasharray:5,5;" x1="89" x2="89" y1="81.4883" y2="675.1016"/></g></g><g class="participant-lifeline" data-entity-uid="part2" data-qualified-name="System" id="part2-lifeline"><g><title>.System</title><rect fill="#000000" fill-opacity="0.00000" height="593.6133" width="8" x="425.8013" y="81.4883"/><line style="stroke:#181818;stroke-width:0.5;stroke-dasharray:5,5;" x1="429.5376" x2="429.5376" y1="81.4883" y2="675.1016"/></g></g><g class="participant participant-head" data-entity-uid="part1" data-qualified-name="BackofficeOperator" id="part1-head"><text fill="#000000" font-family="sans-serif" font-size="14" lengthAdjust="spacing" textLength="133.9912" x="20" y="78.5352">Backoffice Operator</text><ellipse cx="89.9956" cy="13.5" fill="#E3E3E3" rx="8" ry="8" style="stroke:#181818;stroke-width:0.5;"/><path d="M89.9956,21.5 L89.9956,48.5 M76.9956,29.5 L102.9956,29.5 M89.9956,48.5 L76.9956,63.5 M89.9956,48.5 L102.9956,63.5" fill="none" style="stroke:#181818;stroke-width:0.5;"/></g><g class="participant participant-tail" data-entity-uid="part1" data-qualified-name="BackofficeOperator" id="part1-tail"><text fill="#000000" font-family="sans-serif" font-size="14" lengthAdjust="spacing" textLength="133.9912" x="20" y="687.6367">Backoffice Operator</text><ellipse cx="89.9956" cy="699.0898" fill="#E3E3E3" rx="8" ry="8" style="stroke:#181818;stroke-width:0.5;"/><path d="M89.9956,707.0898 L89.9956,734.0898 M76.9956,715.0898 L102.9956,715.0898 M89.9956,734.0898 L76.9956,749.0898 M89.9956,734.0898 L102.9956,749.0898" fill="none" style="stroke:#181818;stroke-width:0.5;"/></g><g class="participant participant-head" data-entity-uid="part2" data-qualified-name="System" id="part2-head"><rect fill="#E3E3E3" height="30.4883" rx="2.5" ry="2.5" style="stroke:#181818;stroke-width:0.5;" width="66.5273" x="396.5376" y="50"/><text fill="#000000" font-family="sans-serif" font-size="14" lengthAdjust="spacing" textLength="52.5273" x="403.5376" y="70.5352">:System</text></g><g class="participant participant-tail" data-entity-uid="part2" data-qualified-name="System" id="part2-tail"><rect fill="#E3E3E3" height="30.4883" rx="2.5" ry="2.5" style="stroke:#181818;stroke-width:0.5;" width="66.5273" x="396.5376" y="674.1016"/><text fill="#000000" font-family="sans-serif" font-size="14" lengthAdjust="spacing" textLength="52.5273" x="403.5376" y="694.6367">:System</text></g><g><title>Backoffice Operator</title><rect fill="#FFFFFF" height="573.6133" style="stroke:#181818;stroke-width:1;" width="10" x="84.9956" y="91.4883"/></g><g><title>.System</title><rect fill="#FFFFFF" height="29.3105" style="stroke:#181818;stroke-width:1;" width="10" x="424.8013" y="112.7988"/></g><g><title>.System</title><rect fill="#FFFFFF" height="493.6816" style="stroke:#181818;stroke-width:1;" width="10" x="424.8013" y="171.4199"/></g><g class="message" data-entity-1="part1" data-entity-2="part2" id="msg1"><polygon fill="#181818" points="412.8013,108.7988,422.8013,112.7988,412.8013,116.7988,416.8013,112.7988" style="stroke:#181818;stroke-width:1;"/><line style="stroke:#181818;stroke-width:1;" x1="94.9956" x2="418.8013" y1="112.7988" y2="112.7988"/><text fill="#000000" font-family="sans-serif" font-size="13" font-weight="bold" lengthAdjust="spacing" textLength="8.5757" x="111.0264" y="108.0566">1</text><text fill="#000000" font-family="sans-serif" font-size="13" lengthAdjust="spacing" textLength="285.1685" x="123.6021" y="108.0566">Requests to register an aircraft engine model</text></g><g class="message" data-entity-1="part2" data-entity-2="part1" id="msg2"><polygon fill="#181818" points="105.9956,138.1094,95.9956,142.1094,105.9956,146.1094,101.9956,142.1094" style="stroke:#181818;stroke-width:1;"/><line style="stroke:#181818;stroke-width:1;stroke-dasharray:2,2;" x1="99.9956" x2="428.8013" y1="142.1094" y2="142.1094"/><text fill="#000000" font-family="sans-serif" font-size="13" font-weight="bold" lengthAdjust="spacing" textLength="8.5757" x="166.8086" y="137.3672">2</text><text fill="#000000" font-family="sans-serif" font-size="13" lengthAdjust="spacing" textLength="178.604" x="179.3843" y="137.3672">Requests engine model data</text></g><g class="message" data-entity-1="part1" data-entity-2="part2" id="msg3"><polygon fill="#181818" points="412.8013,167.4199,422.8013,171.4199,412.8013,175.4199,416.8013,171.4199" style="stroke:#181818;stroke-width:1;"/><line style="stroke:#181818;stroke-width:1;" x1="94.9956" x2="418.8013" y1="171.4199" y2="171.4199"/><text fill="#000000" font-family="sans-serif" font-size="13" font-weight="bold" lengthAdjust="spacing" textLength="8.5757" x="166.3303" y="166.6777">3</text><text fill="#000000" font-family="sans-serif" font-size="13" lengthAdjust="spacing" textLength="174.5605" x="178.906" y="166.6777">Provides engine model data</text></g><g class="message" data-entity-1="part2" data-entity-2="part2" id="msg4"><line style="stroke:#181818;stroke-width:1;stroke-dasharray:2,2;" x1="434.8013" x2="476.8013" y1="200.7305" y2="200.7305"/><line style="stroke:#181818;stroke-width:1;stroke-dasharray:2,2;" x1="476.8013" x2="476.8013" y1="200.7305" y2="213.7305"/><line style="stroke:#181818;stroke-width:1;stroke-dasharray:2,2;" x1="435.8013" x2="476.8013" y1="213.7305" y2="213.7305"/><polygon fill="#181818" points="445.8013,209.7305,435.8013,213.7305,445.8013,217.7305,441.8013,213.7305" style="stroke:#181818;stroke-width:1;"/><text fill="#000000" font-family="sans-serif" font-size="13" font-weight="bold" lengthAdjust="spacing" textLength="8.5757" x="441.8013" y="195.9883">4</text><text fill="#000000" font-family="sans-serif" font-size="13" lengthAdjust="spacing" textLength="266.4746" x="454.377" y="195.9883">Check if Backoffice Operator is authorized</text></g><g class="message" data-entity-1="part2" data-entity-2="part2" id="msg5"><line style="stroke:#181818;stroke-width:1;stroke-dasharray:2,2;" x1="434.8013" x2="476.8013" y1="243.041" y2="243.041"/><line style="stroke:#181818;stroke-width:1;stroke-dasharray:2,2;" x1="476.8013" x2="476.8013" y1="243.041" y2="256.041"/><line style="stroke:#181818;stroke-width:1;stroke-dasharray:2,2;" x1="435.8013" x2="476.8013" y1="256.041" y2="256.041"/><polygon fill="#181818" points="445.8013,252.041,435.8013,256.041,445.8013,260.041,441.8013,256.041" style="stroke:#181818;stroke-width:1;"/><text fill="#000000" font-family="sans-serif" font-size="13" font-weight="bold" lengthAdjust="spacing" textLength="8.5757" x="441.8013" y="238.2988">5</text><text fill="#000000" font-family="sans-serif" font-size="13" lengthAdjust="spacing" textLength="139.604" x="454.377" y="238.2988">Validate required data</text></g><g class="message" data-entity-1="part2" data-entity-2="part2" id="msg6"><line style="stroke:#181818;stroke-width:1;stroke-dasharray:2,2;" x1="434.8013" x2="476.8013" y1="285.3516" y2="285.3516"/><line style="stroke:#181818;stroke-width:1;stroke-dasharray:2,2;" x1="476.8013" x2="476.8013" y1="285.3516" y2="298.3516"/><line style="stroke:#181818;stroke-width:1;stroke-dasharray:2,2;" x1="435.8013" x2="476.8013" y1="298.3516" y2="298.3516"/><polygon fill="#181818" points="445.8013,294.3516,435.8013,298.3516,445.8013,302.3516,441.8013,298.3516" style="stroke:#181818;stroke-width:1;"/><text fill="#000000" font-family="sans-serif" font-size="13" font-weight="bold" lengthAdjust="spacing" textLength="8.5757" x="441.8013" y="280.6094">6</text><text fill="#000000" font-family="sans-serif" font-size="13" lengthAdjust="spacing" textLength="139.6548" x="454.377" y="280.6094">Validate manufacturer</text></g><g class="message" data-entity-1="part2" data-entity-2="part2" id="msg7"><line style="stroke:#181818;stroke-width:1;stroke-dasharray:2,2;" x1="434.8013" x2="476.8013" y1="327.6621" y2="327.6621"/><line style="stroke:#181818;stroke-width:1;stroke-dasharray:2,2;" x1="476.8013" x2="476.8013" y1="327.6621" y2="340.6621"/><line style="stroke:#181818;stroke-width:1;stroke-dasharray:2,2;" x1="435.8013" x2="476.8013" y1="340.6621" y2="340.6621"/><polygon fill="#181818" points="445.8013,336.6621,435.8013,340.6621,445.8013,344.6621,441.8013,340.6621" style="stroke:#181818;stroke-width:1;"/><text fill="#000000" font-family="sans-serif" font-size="13" font-weight="bold" lengthAdjust="spacing" textLength="8.5757" x="441.8013" y="322.9199">7</text><text fill="#000000" font-family="sans-serif" font-size="13" lengthAdjust="spacing" textLength="128.4512" x="454.377" y="322.9199">Validate engine type</text></g><g class="message" data-entity-1="part2" data-entity-2="part2" id="msg8"><line style="stroke:#181818;stroke-width:1;stroke-dasharray:2,2;" x1="434.8013" x2="476.8013" y1="369.9727" y2="369.9727"/><line style="stroke:#181818;stroke-width:1;stroke-dasharray:2,2;" x1="476.8013" x2="476.8013" y1="369.9727" y2="382.9727"/><line style="stroke:#181818;stroke-width:1;stroke-dasharray:2,2;" x1="435.8013" x2="476.8013" y1="382.9727" y2="382.9727"/><polygon fill="#181818" points="445.8013,378.9727,435.8013,382.9727,445.8013,386.9727,441.8013,382.9727" style="stroke:#181818;stroke-width:1;"/><text fill="#000000" font-family="sans-serif" font-size="13" font-weight="bold" lengthAdjust="spacing" textLength="8.5757" x="441.8013" y="365.2305">8</text><text fill="#000000" font-family="sans-serif" font-size="13" lengthAdjust="spacing" textLength="93.52" x="454.377" y="365.2305">Validate power</text></g><g class="message" data-entity-1="part2" data-entity-2="part2" id="msg9"><line style="stroke:#181818;stroke-width:1;stroke-dasharray:2,2;" x1="434.8013" x2="476.8013" y1="412.2832" y2="412.2832"/><line style="stroke:#181818;stroke-width:1;stroke-dasharray:2,2;" x1="476.8013" x2="476.8013" y1="412.2832" y2="425.2832"/><line style="stroke:#181818;stroke-width:1;stroke-dasharray:2,2;" x1="435.8013" x2="476.8013" y1="425.2832" y2="425.2832"/><polygon fill="#181818" points="445.8013,421.2832,435.8013,425.2832,445.8013,429.2832,441.8013,425.2832" style="stroke:#181818;stroke-width:1;"/><text fill="#000000" font-family="sans-serif" font-size="13" font-weight="bold" lengthAdjust="spacing" textLength="8.5757" x="441.8013" y="407.541">9</text><text fill="#000000" font-family="sans-serif" font-size="13" lengthAdjust="spacing" textLength="109.8145" x="454.377" y="407.541">Validate fuel type</text></g><g class="message" data-entity-1="part2" data-entity-2="part2" id="msg10"><line style="stroke:#181818;stroke-width:1;stroke-dasharray:2,2;" x1="434.8013" x2="476.8013" y1="454.5938" y2="454.5938"/><line style="stroke:#181818;stroke-width:1;stroke-dasharray:2,2;" x1="476.8013" x2="476.8013" y1="454.5938" y2="467.5938"/><line style="stroke:#181818;stroke-width:1;stroke-dasharray:2,2;" x1="435.8013" x2="476.8013" y1="467.5938" y2="467.5938"/><polygon fill="#181818" points="445.8013,463.5938,435.8013,467.5938,445.8013,471.5938,441.8013,467.5938" style="stroke:#181818;stroke-width:1;"/><text fill="#000000" font-family="sans-serif" font-size="13" font-weight="bold" lengthAdjust="spacing" textLength="17.1514" x="441.8013" y="449.8516">10</text><text fill="#000000" font-family="sans-serif" font-size="13" lengthAdjust="spacing" textLength="114.5117" x="462.9526" y="449.8516">Validate efficiency</text></g><g class="message" data-entity-1="part2" data-entity-2="part2" id="msg11"><line style="stroke:#181818;stroke-width:1;stroke-dasharray:2,2;" x1="434.8013" x2="476.8013" y1="496.9043" y2="496.9043"/><line style="stroke:#181818;stroke-width:1;stroke-dasharray:2,2;" x1="476.8013" x2="476.8013" y1="496.9043" y2="509.9043"/><line style="stroke:#181818;stroke-width:1;stroke-dasharray:2,2;" x1="435.8013" x2="476.8013" y1="509.9043" y2="509.9043"/><polygon fill="#181818" points="445.8013,505.9043,435.8013,509.9043,445.8013,513.9043,441.8013,509.9043" style="stroke:#181818;stroke-width:1;"/><text fill="#000000" font-family="sans-serif" font-size="13" font-weight="bold" lengthAdjust="spacing" textLength="17.1514" x="441.8013" y="492.1621">11</text><text fill="#000000" font-family="sans-serif" font-size="13" lengthAdjust="spacing" textLength="313.3203" x="462.9526" y="492.1621">Check model name and manufacturer uniqueness</text></g><path d="M10,524.9043 L72.1387,524.9043 L72.1387,532.2148 L62.1387,542.2148 L10,542.2148 L10,524.9043" fill="#EEEEEE" style="stroke:#000000;stroke-width:1.5;"/><rect fill="none" height="133.1973" style="stroke:#000000;stroke-width:1.5;" width="665.5156" x="10" y="524.9043"/><text fill="#000000" font-family="sans-serif" font-size="13" font-weight="bold" lengthAdjust="spacing" textLength="17.1387" x="25" y="538.4727">alt</text><text fill="#000000" font-family="sans-serif" font-size="11" font-weight="bold" lengthAdjust="spacing" textLength="157.7437" x="87.1387" y="537.5391">[engine model data is valid]</text><g class="message" data-entity-1="part2" data-entity-2="part2" id="msg12"><line style="stroke:#181818;stroke-width:1;stroke-dasharray:2,2;" x1="434.8013" x2="476.8013" y1="563.5254" y2="563.5254"/><line style="stroke:#181818;stroke-width:1;stroke-dasharray:2,2;" x1="476.8013" x2="476.8013" y1="563.5254" y2="576.5254"/><line style="stroke:#181818;stroke-width:1;stroke-dasharray:2,2;" x1="435.8013" x2="476.8013" y1="576.5254" y2="576.5254"/><polygon fill="#181818" points="445.8013,572.5254,435.8013,576.5254,445.8013,580.5254,441.8013,576.5254" style="stroke:#181818;stroke-width:1;"/><text fill="#000000" font-family="sans-serif" font-size="13" font-weight="bold" lengthAdjust="spacing" textLength="17.1514" x="441.8013" y="558.7832">12</text><text fill="#000000" font-family="sans-serif" font-size="13" lengthAdjust="spacing" textLength="190.563" x="462.9526" y="558.7832">Register aircraft engine model</text></g><g class="message" data-entity-1="part2" data-entity-2="part1" id="msg13"><polygon fill="#181818" points="105.9956,601.8359,95.9956,605.8359,105.9956,609.8359,101.9956,605.8359" style="stroke:#181818;stroke-width:1;"/><line style="stroke:#181818;stroke-width:1;stroke-dasharray:2,2;" x1="99.9956" x2="423.8013" y1="605.8359" y2="605.8359"/><text fill="#000000" font-family="sans-serif" font-size="13" font-weight="bold" lengthAdjust="spacing" textLength="17.1514" x="106.9956" y="601.0938">13</text><text fill="#000000" font-family="sans-serif" font-size="13" lengthAdjust="spacing" textLength="284.6543" x="128.147" y="601.0938">Aircraft engine model registered successfully</text></g><line style="stroke:#000000;stroke-width:1;stroke-dasharray:2,2;" x1="10" x2="675.5156" y1="614.8359" y2="614.8359"/><text fill="#000000" font-family="sans-serif" font-size="11" font-weight="bold" lengthAdjust="spacing" textLength="168.5449" x="15" y="625.4707">[engine model data is invalid]</text><g class="message" data-entity-1="part2" data-entity-2="part1" id="msg14"><polygon fill="#181818" points="105.9956,646.1016,95.9956,650.1016,105.9956,654.1016,101.9956,650.1016" style="stroke:#181818;stroke-width:1;"/><line style="stroke:#181818;stroke-width:1;stroke-dasharray:2,2;" x1="99.9956" x2="423.8013" y1="650.1016" y2="650.1016"/><text fill="#000000" font-family="sans-serif" font-size="13" font-weight="bold" lengthAdjust="spacing" textLength="17.1514" x="179.0193" y="645.3594">14</text><text fill="#000000" font-family="sans-serif" font-size="13" lengthAdjust="spacing" textLength="140.6069" x="200.1707" y="645.3594">Display error message</text></g><?plantuml-src XLFBJiGm3BpdAwozymCSa7XS4GWaxYPnkzQcJd6IHUNhSTbbAH1rUqeTUyOUJ_AEPKJ50OOaoMyr3GH5AxbykXdHxx2dvp950YLVKFguJCXR3EcTfOSEO_vrGs-LnDCzvMmGrv5x0KzII1tMagGEhtPqw4jIsDmOK-ewzWGF8obQS0EOuIV-7NQ6NzZpY59WS_ayvKB3L-xX-0N9UopKAdR_Ot1nTIo5ItYQsyubGqasSCyMLa01PFMANG6IdeLCiq1nGNNaFk9S66I3Q06_X8601LsWls3dUdtKjET0BR2rnaxrjrloE-0E6k83Px0rRPFo1uLc-Gj63ZE5sb2i50xKgwa3Iksijwgs-zNCuqnb6cazSKplvx2wQhgSHw9P0ZRJJYjo7KGMjCU24duD15LuDhqvtXOGo_-zpAhkPpe7zhL8dawUQnhkJrdJOzUjofEPRKsvUcyzTZN6oP4zstQZBCrMcvntdCU84v2g_G-7D-z8WcluUX5flD1F?></g></svg>