<?plantuml 1.2026.2?><svg xmlns="http://www.w3.org/2000/svg" xmlns:xlink="http://www.w3.org/1999/xlink" contentStyleType="text/css" data-diagram-type="SEQUENCE" height="629px" preserveAspectRatio="none" style="width:728px;height:629px;background:#FFFFFF;" version="1.1" viewBox="0 0 728 629" width="728px" zoomAndPan="magnify"><defs/><g><g><title>Project Manager</title><rect fill="#FFFFFF" height="446.6816" style="stroke:#181818;stroke-width:1;" width="10" x="72.7148" y="91.4883"/></g><g><title>.System</title><rect fill="#FFFFFF" height="29.3105" style="stroke:#181818;stroke-width:1;" width="10" x="402.4297" y="112.7988"/></g><g><title>.System</title><rect fill="#FFFFFF" height="366.75" style="stroke:#181818;stroke-width:1;" width="10" x="402.4297" y="171.4199"/></g><rect fill="none" height="90.8867" style="stroke:#000000;stroke-width:1.5;" width="440.6934" x="10" y="440.2832"/><g class="participant-lifeline" data-entity-uid="part1" data-qualified-name="PM" id="part1-lifeline"><g><title>Project Manager</title><rect fill="#000000" fill-opacity="0.00000" height="466.6816" width="8" x="73.7148" y="81.4883"/><line style="stroke:#181818;stroke-width:0.5;stroke-dasharray:5,5;" x1="77" x2="77" y1="81.4883" y2="548.1699"/></g></g><g class="participant-lifeline" data-entity-uid="part2" data-qualified-name="System" id="part2-lifeline"><g><title>.System</title><rect fill="#000000" fill-opacity="0.00000" height="466.6816" width="8" x="403.4297" y="81.4883"/><line style="stroke:#181818;stroke-width:0.5;stroke-dasharray:5,5;" x1="407.166" x2="407.166" y1="81.4883" y2="548.1699"/></g></g><g class="participant participant-head" data-entity-uid="part1" data-qualified-name="PM" id="part1-head"><text fill="#000000" font-family="sans-serif" font-size="14" lengthAdjust="spacing" textLength="109.4297" x="20" y="78.5352">Project Manager</text><ellipse cx="77.7148" cy="13.5" fill="#E3E3E3" rx="8" ry="8" style="stroke:#181818;stroke-width:0.5;"/><path d="M77.7148,21.5 L77.7148,48.5 M64.7148,29.5 L90.7148,29.5 M77.7148,48.5 L64.7148,63.5 M77.7148,48.5 L90.7148,63.5" fill="none" style="stroke:#181818;stroke-width:0.5;"/></g><g class="participant participant-tail" data-entity-uid="part1" data-qualified-name="PM" id="part1-tail"><text fill="#000000" font-family="sans-serif" font-size="14" lengthAdjust="spacing" textLength="109.4297" x="20" y="560.7051">Project Manager</text><ellipse cx="77.7148" cy="572.1582" fill="#E3E3E3" rx="8" ry="8" style="stroke:#181818;stroke-width:0.5;"/><path d="M77.7148,580.1582 L77.7148,607.1582 M64.7148,588.1582 L90.7148,588.1582 M77.7148,607.1582 L64.7148,622.1582 M77.7148,607.1582 L90.7148,622.1582" fill="none" style="stroke:#181818;stroke-width:0.5;"/></g><g class="participant participant-head" data-entity-uid="part2" data-qualified-name="System" id="part2-head"><rect fill="#E3E3E3" height="30.4883" rx="2.5" ry="2.5" style="stroke:#181818;stroke-width:0.5;" width="66.5273" x="374.166" y="50"/><text fill="#000000" font-family="sans-serif" font-size="14" lengthAdjust="spacing" textLength="52.5273" x="381.166" y="70.5352">:System</text></g><g class="participant participant-tail" data-entity-uid="part2" data-qualified-name="System" id="part2-tail"><rect fill="#E3E3E3" height="30.4883" rx="2.5" ry="2.5" style="stroke:#181818;stroke-width:0.5;" width="66.5273" x="374.166" y="547.1699"/><text fill="#000000" font-family="sans-serif" font-size="14" lengthAdjust="spacing" textLength="52.5273" x="381.166" y="567.7051">:System</text></g><g><title>Project Manager</title><rect fill="#FFFFFF" height="446.6816" style="stroke:#181818;stroke-width:1;" width="10" x="72.7148" y="91.4883"/></g><g><title>.System</title><rect fill="#FFFFFF" height="29.3105" style="stroke:#181818;stroke-width:1;" width="10" x="402.4297" y="112.7988"/></g><g><title>.System</title><rect fill="#FFFFFF" height="366.75" style="stroke:#181818;stroke-width:1;" width="10" x="402.4297" y="171.4199"/></g><g class="message" data-entity-1="part1" data-entity-2="part2" id="msg1"><polygon fill="#181818" points="390.4297,108.7988,400.4297,112.7988,390.4297,116.7988,394.4297,112.7988" style="stroke:#181818;stroke-width:1;"/><line style="stroke:#181818;stroke-width:1;" x1="82.7148" x2="396.4297" y1="112.7988" y2="112.7988"/><text fill="#000000" font-family="sans-serif" font-size="13" font-weight="bold" lengthAdjust="spacing" textLength="8.5757" x="92.2148" y="108.0566">1</text><text fill="#000000" font-family="sans-serif" font-size="13" lengthAdjust="spacing" textLength="288.1392" x="104.7905" y="108.0566">Requests Core Flight DSL validation capability</text></g><g class="message" data-entity-1="part2" data-entity-2="part1" id="msg2"><polygon fill="#181818" points="93.7148,138.1094,83.7148,142.1094,93.7148,146.1094,89.7148,142.1094" style="stroke:#181818;stroke-width:1;"/><line style="stroke:#181818;stroke-width:1;stroke-dasharray:2,2;" x1="87.7148" x2="406.4297" y1="142.1094" y2="142.1094"/><text fill="#000000" font-family="sans-serif" font-size="13" font-weight="bold" lengthAdjust="spacing" textLength="8.5757" x="113.3643" y="137.3672">2</text><text fill="#000000" font-family="sans-serif" font-size="13" lengthAdjust="spacing" textLength="250.8403" x="125.9399" y="137.3672">Requests DSL file/content for validation</text></g><g class="message" data-entity-1="part1" data-entity-2="part2" id="msg3"><polygon fill="#181818" points="390.4297,167.4199,400.4297,171.4199,390.4297,175.4199,394.4297,171.4199" style="stroke:#181818;stroke-width:1;"/><line style="stroke:#181818;stroke-width:1;" x1="82.7148" x2="396.4297" y1="171.4199" y2="171.4199"/><text fill="#000000" font-family="sans-serif" font-size="13" font-weight="bold" lengthAdjust="spacing" textLength="8.5757" x="156.7705" y="166.6777">3</text><text fill="#000000" font-family="sans-serif" font-size="13" lengthAdjust="spacing" textLength="159.0278" x="169.3462" y="166.6777">Provides DSL file/content</text></g><g class="message" data-entity-1="part2" data-entity-2="part2" id="msg4"><line style="stroke:#181818;stroke-width:1;stroke-dasharray:2,2;" x1="412.4297" x2="454.4297" y1="200.7305" y2="200.7305"/><line style="stroke:#181818;stroke-width:1;stroke-dasharray:2,2;" x1="454.4297" x2="454.4297" y1="200.7305" y2="213.7305"/><line style="stroke:#181818;stroke-width:1;stroke-dasharray:2,2;" x1="413.4297" x2="454.4297" y1="213.7305" y2="213.7305"/><polygon fill="#181818" points="423.4297,209.7305,413.4297,213.7305,423.4297,217.7305,419.4297,213.7305" style="stroke:#181818;stroke-width:1;"/><text fill="#000000" font-family="sans-serif" font-size="13" font-weight="bold" lengthAdjust="spacing" textLength="8.5757" x="419.4297" y="195.9883">4</text><text fill="#000000" font-family="sans-serif" font-size="13" lengthAdjust="spacing" textLength="110.4683" x="432.0054" y="195.9883">Read DSL content</text></g><g class="message" data-entity-1="part2" data-entity-2="part2" id="msg5"><line style="stroke:#181818;stroke-width:1;stroke-dasharray:2,2;" x1="412.4297" x2="454.4297" y1="243.041" y2="243.041"/><line style="stroke:#181818;stroke-width:1;stroke-dasharray:2,2;" x1="454.4297" x2="454.4297" y1="243.041" y2="256.041"/><line style="stroke:#181818;stroke-width:1;stroke-dasharray:2,2;" x1="413.4297" x2="454.4297" y1="256.041" y2="256.041"/><polygon fill="#181818" points="423.4297,252.041,413.4297,256.041,423.4297,260.041,419.4297,256.041" style="stroke:#181818;stroke-width:1;"/><text fill="#000000" font-family="sans-serif" font-size="13" font-weight="bold" lengthAdjust="spacing" textLength="8.5757" x="419.4297" y="238.2988">5</text><text fill="#000000" font-family="sans-serif" font-size="13" lengthAdjust="spacing" textLength="148.5098" x="432.0054" y="238.2988">Perform lexical analysis</text></g><g class="message" data-entity-1="part2" data-entity-2="part2" id="msg6"><line style="stroke:#181818;stroke-width:1;stroke-dasharray:2,2;" x1="412.4297" x2="454.4297" y1="285.3516" y2="285.3516"/><line style="stroke:#181818;stroke-width:1;stroke-dasharray:2,2;" x1="454.4297" x2="454.4297" y1="285.3516" y2="298.3516"/><line style="stroke:#181818;stroke-width:1;stroke-dasharray:2,2;" x1="413.4297" x2="454.4297" y1="298.3516" y2="298.3516"/><polygon fill="#181818" points="423.4297,294.3516,413.4297,298.3516,423.4297,302.3516,419.4297,298.3516" style="stroke:#181818;stroke-width:1;"/><text fill="#000000" font-family="sans-serif" font-size="13" font-weight="bold" lengthAdjust="spacing" textLength="8.5757" x="419.4297" y="280.6094">6</text><text fill="#000000" font-family="sans-serif" font-size="13" lengthAdjust="spacing" textLength="163.6489" x="432.0054" y="280.6094">Perform syntactic analysis</text></g><g class="message" data-entity-1="part2" data-entity-2="part2" id="msg7"><line style="stroke:#181818;stroke-width:1;stroke-dasharray:2,2;" x1="412.4297" x2="454.4297" y1="327.6621" y2="327.6621"/><line style="stroke:#181818;stroke-width:1;stroke-dasharray:2,2;" x1="454.4297" x2="454.4297" y1="327.6621" y2="340.6621"/><line style="stroke:#181818;stroke-width:1;stroke-dasharray:2,2;" x1="413.4297" x2="454.4297" y1="340.6621" y2="340.6621"/><polygon fill="#181818" points="423.4297,336.6621,413.4297,340.6621,423.4297,344.6621,419.4297,340.6621" style="stroke:#181818;stroke-width:1;"/><text fill="#000000" font-family="sans-serif" font-size="13" font-weight="bold" lengthAdjust="spacing" textLength="8.5757" x="419.4297" y="322.9199">7</text><text fill="#000000" font-family="sans-serif" font-size="13" lengthAdjust="spacing" textLength="144.4092" x="432.0054" y="322.9199">Build parse tree or AST</text></g><g class="message" data-entity-1="part2" data-entity-2="part2" id="msg8"><line style="stroke:#181818;stroke-width:1;stroke-dasharray:2,2;" x1="412.4297" x2="454.4297" y1="369.9727" y2="369.9727"/><line style="stroke:#181818;stroke-width:1;stroke-dasharray:2,2;" x1="454.4297" x2="454.4297" y1="369.9727" y2="382.9727"/><line style="stroke:#181818;stroke-width:1;stroke-dasharray:2,2;" x1="413.4297" x2="454.4297" y1="382.9727" y2="382.9727"/><polygon fill="#181818" points="423.4297,378.9727,413.4297,382.9727,423.4297,386.9727,419.4297,382.9727" style="stroke:#181818;stroke-width:1;"/><text fill="#000000" font-family="sans-serif" font-size="13" font-weight="bold" lengthAdjust="spacing" textLength="8.5757" x="419.4297" y="365.2305">8</text><text fill="#000000" font-family="sans-serif" font-size="13" lengthAdjust="spacing" textLength="289.0088" x="432.0054" y="365.2305">Map AST to internal flight plan representation</text></g><g class="message" data-entity-1="part2" data-entity-2="part2" id="msg9"><line style="stroke:#181818;stroke-width:1;stroke-dasharray:2,2;" x1="412.4297" x2="454.4297" y1="412.2832" y2="412.2832"/><line style="stroke:#181818;stroke-width:1;stroke-dasharray:2,2;" x1="454.4297" x2="454.4297" y1="412.2832" y2="425.2832"/><line style="stroke:#181818;stroke-width:1;stroke-dasharray:2,2;" x1="413.4297" x2="454.4297" y1="425.2832" y2="425.2832"/><polygon fill="#181818" points="423.4297,421.2832,413.4297,425.2832,423.4297,429.2832,419.4297,425.2832" style="stroke:#181818;stroke-width:1;"/><text fill="#000000" font-family="sans-serif" font-size="13" font-weight="bold" lengthAdjust="spacing" textLength="8.5757" x="419.4297" y="407.541">9</text><text fill="#000000" font-family="sans-serif" font-size="13" lengthAdjust="spacing" textLength="164.7153" x="432.0054" y="407.541">Perform semantic analysis</text></g><path d="M10,440.2832 L72.1387,440.2832 L72.1387,447.5938 L62.1387,457.5938 L10,457.5938 L10,440.2832" fill="#EEEEEE" style="stroke:#000000;stroke-width:1.5;"/><rect fill="none" height="90.8867" style="stroke:#000000;stroke-width:1.5;" width="440.6934" x="10" y="440.2832"/><text fill="#000000" font-family="sans-serif" font-size="13" font-weight="bold" lengthAdjust="spacing" textLength="17.1387" x="25" y="453.8516">alt</text><text fill="#000000" font-family="sans-serif" font-size="11" font-weight="bold" lengthAdjust="spacing" textLength="120.3555" x="87.1387" y="452.918">[DSL content is valid]</text><g class="message" data-entity-1="part2" data-entity-2="part1" id="msg10"><polygon fill="#181818" points="93.7148,474.9043,83.7148,478.9043,93.7148,482.9043,89.7148,478.9043" style="stroke:#181818;stroke-width:1;"/><line style="stroke:#181818;stroke-width:1;stroke-dasharray:2,2;" x1="87.7148" x2="401.4297" y1="478.9043" y2="478.9043"/><text fill="#000000" font-family="sans-serif" font-size="13" font-weight="bold" lengthAdjust="spacing" textLength="17.1514" x="111.8386" y="474.1621">10</text><text fill="#000000" font-family="sans-serif" font-size="13" lengthAdjust="spacing" textLength="240.3159" x="132.99" y="474.1621">Return valid flight plan representation</text></g><line style="stroke:#000000;stroke-width:1;stroke-dasharray:2,2;" x1="10" x2="450.6934" y1="487.9043" y2="487.9043"/><text fill="#000000" font-family="sans-serif" font-size="11" font-weight="bold" lengthAdjust="spacing" textLength="131.1567" x="15" y="498.5391">[DSL content is invalid]</text><g class="message" data-entity-1="part2" data-entity-2="part1" id="msg11"><polygon fill="#181818" points="93.7148,519.1699,83.7148,523.1699,93.7148,527.1699,89.7148,523.1699" style="stroke:#181818;stroke-width:1;"/><line style="stroke:#181818;stroke-width:1;stroke-dasharray:2,2;" x1="87.7148" x2="401.4297" y1="523.1699" y2="523.1699"/><text fill="#000000" font-family="sans-serif" font-size="13" font-weight="bold" lengthAdjust="spacing" textLength="17.1514" x="119.7192" y="518.4277">11</text><text fill="#000000" font-family="sans-serif" font-size="13" lengthAdjust="spacing" textLength="224.5547" x="140.8706" y="518.4277">Return meaningful validation errors</text></g><?plantuml-src XPF1JiCm38RlUGfhzudx3aW3n8bA4-K5lDJT36bIOdVGjyTT1vHjAZr5zPzFl-q_yiQnnOmDD2acly-f8T3SaPEVIel-3NTKQXy8Cdd5k0jJWUonIXySTr1Za3yLUkyeUYf8n13hmBi8dg9ITjXfYbspjQD3hod3OfFJg_6Xm6Zgl00Ks1JEMCgUMumAYrNPYr9ph8t7utK-eD8WTfi2bhUd4gpWUR0WAd2VCi6ZETWhF9HFSC305IedSuGjRZcmzXFM2Nu2BOrfv0blODGSwCOdwyUirTR2BzHLT8uwjsRj7hYYIzIiYqbdM1slVj-w9jfGDbyD1FfaZm5iig4Nbbcnz5471tvUVjTng2mUMORC484DO5s-NDKMs0urq0GyhD-uK8_BQ0D6orMRIQoBSNYpxgYn94pDEGmwdGImZ9jmOD_b1hNBSHJCUI3ByZcLux_SXZ3QMwYxC8qOvPooE8gLkvACoH-By1S0?></g></svg>