<?plantuml 1.2026.2?><svg xmlns="http://www.w3.org/2000/svg" xmlns:xlink="http://www.w3.org/1999/xlink" contentStyleType="text/css" data-diagram-type="SEQUENCE" height="721px" preserveAspectRatio="none" style="width:650px;height:721px;background:#FFFFFF;" version="1.1" viewBox="0 0 650 721" width="650px" zoomAndPan="magnify"><defs/><g><g><title>User</title><rect fill="#FFFFFF" height="538.5684" style="stroke:#181818;stroke-width:1;" width="10" x="43.1826" y="91.4883"/></g><g><title>.System</title><rect fill="#FFFFFF" height="29.3105" style="stroke:#181818;stroke-width:1;" width="10" x="367.5508" y="112.7988"/></g><g><title>.System</title><rect fill="#FFFFFF" height="458.6367" style="stroke:#181818;stroke-width:1;" width="10" x="367.5508" y="171.4199"/></g><rect fill="none" height="267.3945" style="stroke:#000000;stroke-width:1.5;" width="633.3447" x="10" y="355.6621"/><rect fill="none" height="90.8867" style="stroke:#000000;stroke-width:1.5;" width="395.8145" x="20" y="480.9043"/><g class="participant-lifeline" data-entity-uid="part1" data-qualified-name="User" id="part1-lifeline"><g><title>User</title><rect fill="#000000" fill-opacity="0.00000" height="558.5684" width="8" x="44.1826" y="81.4883"/><line style="stroke:#181818;stroke-width:0.5;stroke-dasharray:5,5;" x1="48" x2="48" y1="81.4883" y2="640.0566"/></g></g><g class="participant-lifeline" data-entity-uid="part2" data-qualified-name="System" id="part2-lifeline"><g><title>.System</title><rect fill="#000000" fill-opacity="0.00000" height="558.5684" width="8" x="368.5508" y="81.4883"/><line style="stroke:#181818;stroke-width:0.5;stroke-dasharray:5,5;" x1="372.2871" x2="372.2871" y1="81.4883" y2="640.0566"/></g></g><g class="participant participant-head" data-entity-uid="part1" data-qualified-name="User" id="part1-head"><text fill="#000000" font-family="sans-serif" font-size="14" lengthAdjust="spacing" textLength="30.3652" x="30" y="78.5352">User</text><ellipse cx="48.1826" cy="13.5" fill="#E3E3E3" rx="8" ry="8" style="stroke:#181818;stroke-width:0.5;"/><path d="M48.1826,21.5 L48.1826,48.5 M35.1826,29.5 L61.1826,29.5 M48.1826,48.5 L35.1826,63.5 M48.1826,48.5 L61.1826,63.5" fill="none" style="stroke:#181818;stroke-width:0.5;"/></g><g class="participant participant-tail" data-entity-uid="part1" data-qualified-name="User" id="part1-tail"><text fill="#000000" font-family="sans-serif" font-size="14" lengthAdjust="spacing" textLength="30.3652" x="30" y="652.5918">User</text><ellipse cx="48.1826" cy="664.0449" fill="#E3E3E3" rx="8" ry="8" style="stroke:#181818;stroke-width:0.5;"/><path d="M48.1826,672.0449 L48.1826,699.0449 M35.1826,680.0449 L61.1826,680.0449 M48.1826,699.0449 L35.1826,714.0449 M48.1826,699.0449 L61.1826,714.0449" fill="none" style="stroke:#181818;stroke-width:0.5;"/></g><g class="participant participant-head" data-entity-uid="part2" data-qualified-name="System" id="part2-head"><rect fill="#E3E3E3" height="30.4883" rx="2.5" ry="2.5" style="stroke:#181818;stroke-width:0.5;" width="66.5273" x="339.2871" y="50"/><text fill="#000000" font-family="sans-serif" font-size="14" lengthAdjust="spacing" textLength="52.5273" x="346.2871" y="70.5352">:System</text></g><g class="participant participant-tail" data-entity-uid="part2" data-qualified-name="System" id="part2-tail"><rect fill="#E3E3E3" height="30.4883" rx="2.5" ry="2.5" style="stroke:#181818;stroke-width:0.5;" width="66.5273" x="339.2871" y="639.0566"/><text fill="#000000" font-family="sans-serif" font-size="14" lengthAdjust="spacing" textLength="52.5273" x="346.2871" y="659.5918">:System</text></g><g><title>User</title><rect fill="#FFFFFF" height="538.5684" style="stroke:#181818;stroke-width:1;" width="10" x="43.1826" y="91.4883"/></g><g><title>.System</title><rect fill="#FFFFFF" height="29.3105" style="stroke:#181818;stroke-width:1;" width="10" x="367.5508" y="112.7988"/></g><g><title>.System</title><rect fill="#FFFFFF" height="458.6367" style="stroke:#181818;stroke-width:1;" width="10" x="367.5508" y="171.4199"/></g><g class="message" data-entity-1="part1" data-entity-2="part2" id="msg1"><polygon fill="#181818" points="355.5508,108.7988,365.5508,112.7988,355.5508,116.7988,359.5508,112.7988" style="stroke:#181818;stroke-width:1;"/><line style="stroke:#181818;stroke-width:1;" x1="53.1826" x2="361.5508" y1="112.7988" y2="112.7988"/><text fill="#000000" font-family="sans-serif" font-size="13" font-weight="bold" lengthAdjust="spacing" textLength="8.5757" x="128.1768" y="108.0566">1</text><text fill="#000000" font-family="sans-serif" font-size="13" lengthAdjust="spacing" textLength="151.8042" x="140.7524" y="108.0566">Requests authentication</text></g><g class="message" data-entity-1="part2" data-entity-2="part1" id="msg2"><polygon fill="#181818" points="64.1826,138.1094,54.1826,142.1094,64.1826,146.1094,60.1826,142.1094" style="stroke:#181818;stroke-width:1;"/><line style="stroke:#181818;stroke-width:1;stroke-dasharray:2,2;" x1="58.1826" x2="371.5508" y1="142.1094" y2="142.1094"/><text fill="#000000" font-family="sans-serif" font-size="13" font-weight="bold" lengthAdjust="spacing" textLength="8.5757" x="113.062" y="137.3672">2</text><text fill="#000000" font-family="sans-serif" font-size="13" lengthAdjust="spacing" textLength="187.0337" x="125.6377" y="137.3672">Requests email and password</text></g><g class="message" data-entity-1="part1" data-entity-2="part2" id="msg3"><polygon fill="#181818" points="355.5508,167.4199,365.5508,171.4199,355.5508,175.4199,359.5508,171.4199" style="stroke:#181818;stroke-width:1;"/><line style="stroke:#181818;stroke-width:1;" x1="53.1826" x2="361.5508" y1="171.4199" y2="171.4199"/><text fill="#000000" font-family="sans-serif" font-size="13" font-weight="bold" lengthAdjust="spacing" textLength="8.5757" x="112.5837" y="166.6777">3</text><text fill="#000000" font-family="sans-serif" font-size="13" lengthAdjust="spacing" textLength="182.9902" x="125.1594" y="166.6777">Provides email and password</text></g><g class="message" data-entity-1="part2" data-entity-2="part2" id="msg4"><line style="stroke:#181818;stroke-width:1;stroke-dasharray:2,2;" x1="377.5508" x2="419.5508" y1="200.7305" y2="200.7305"/><line style="stroke:#181818;stroke-width:1;stroke-dasharray:2,2;" x1="419.5508" x2="419.5508" y1="200.7305" y2="213.7305"/><line style="stroke:#181818;stroke-width:1;stroke-dasharray:2,2;" x1="378.5508" x2="419.5508" y1="213.7305" y2="213.7305"/><polygon fill="#181818" points="388.5508,209.7305,378.5508,213.7305,388.5508,217.7305,384.5508,213.7305" style="stroke:#181818;stroke-width:1;"/><text fill="#000000" font-family="sans-serif" font-size="13" font-weight="bold" lengthAdjust="spacing" textLength="8.5757" x="384.5508" y="195.9883">4</text><text fill="#000000" font-family="sans-serif" font-size="13" lengthAdjust="spacing" textLength="123.6714" x="397.1265" y="195.9883">Validate credentials</text></g><g class="message" data-entity-1="part2" data-entity-2="part2" id="msg5"><line style="stroke:#181818;stroke-width:1;stroke-dasharray:2,2;" x1="377.5508" x2="419.5508" y1="243.041" y2="243.041"/><line style="stroke:#181818;stroke-width:1;stroke-dasharray:2,2;" x1="419.5508" x2="419.5508" y1="243.041" y2="256.041"/><line style="stroke:#181818;stroke-width:1;stroke-dasharray:2,2;" x1="378.5508" x2="419.5508" y1="256.041" y2="256.041"/><polygon fill="#181818" points="388.5508,252.041,378.5508,256.041,388.5508,260.041,384.5508,256.041" style="stroke:#181818;stroke-width:1;"/><text fill="#000000" font-family="sans-serif" font-size="13" font-weight="bold" lengthAdjust="spacing" textLength="8.5757" x="384.5508" y="238.2988">5</text><text fill="#000000" font-family="sans-serif" font-size="13" lengthAdjust="spacing" textLength="151.0488" x="397.1265" y="238.2988">Check if user is enabled</text></g><g class="message" data-entity-1="part2" data-entity-2="part2" id="msg6"><line style="stroke:#181818;stroke-width:1;stroke-dasharray:2,2;" x1="377.5508" x2="419.5508" y1="285.3516" y2="285.3516"/><line style="stroke:#181818;stroke-width:1;stroke-dasharray:2,2;" x1="419.5508" x2="419.5508" y1="285.3516" y2="298.3516"/><line style="stroke:#181818;stroke-width:1;stroke-dasharray:2,2;" x1="378.5508" x2="419.5508" y1="298.3516" y2="298.3516"/><polygon fill="#181818" points="388.5508,294.3516,378.5508,298.3516,388.5508,302.3516,384.5508,298.3516" style="stroke:#181818;stroke-width:1;"/><text fill="#000000" font-family="sans-serif" font-size="13" font-weight="bold" lengthAdjust="spacing" textLength="8.5757" x="384.5508" y="280.6094">6</text><text fill="#000000" font-family="sans-serif" font-size="13" lengthAdjust="spacing" textLength="204.5532" x="397.1265" y="280.6094">Check security clearance validity</text></g><g class="message" data-entity-1="part2" data-entity-2="part2" id="msg7"><line style="stroke:#181818;stroke-width:1;stroke-dasharray:2,2;" x1="377.5508" x2="419.5508" y1="327.6621" y2="327.6621"/><line style="stroke:#181818;stroke-width:1;stroke-dasharray:2,2;" x1="419.5508" x2="419.5508" y1="327.6621" y2="340.6621"/><line style="stroke:#181818;stroke-width:1;stroke-dasharray:2,2;" x1="378.5508" x2="419.5508" y1="340.6621" y2="340.6621"/><polygon fill="#181818" points="388.5508,336.6621,378.5508,340.6621,388.5508,344.6621,384.5508,340.6621" style="stroke:#181818;stroke-width:1;"/><text fill="#000000" font-family="sans-serif" font-size="13" font-weight="bold" lengthAdjust="spacing" textLength="8.5757" x="384.5508" y="322.9199">7</text><text fill="#000000" font-family="sans-serif" font-size="13" lengthAdjust="spacing" textLength="201.2842" x="397.1265" y="322.9199">Check skills assessment validity</text></g><path d="M10,355.6621 L72.1387,355.6621 L72.1387,362.9727 L62.1387,372.9727 L10,372.9727 L10,355.6621" fill="#EEEEEE" style="stroke:#000000;stroke-width:1.5;"/><rect fill="none" height="267.3945" style="stroke:#000000;stroke-width:1.5;" width="633.3447" x="10" y="355.6621"/><text fill="#000000" font-family="sans-serif" font-size="13" font-weight="bold" lengthAdjust="spacing" textLength="17.1387" x="25" y="369.2305">alt</text><text fill="#000000" font-family="sans-serif" font-size="11" font-weight="bold" lengthAdjust="spacing" textLength="134.3203" x="87.1387" y="368.2969">[authentication is valid]</text><g class="message" data-entity-1="part2" data-entity-2="part1" id="msg8"><polygon fill="#181818" points="64.1826,390.2832,54.1826,394.2832,64.1826,398.2832,60.1826,394.2832" style="stroke:#181818;stroke-width:1;"/><line style="stroke:#181818;stroke-width:1;stroke-dasharray:2,2;" x1="58.1826" x2="366.5508" y1="394.2832" y2="394.2832"/><text fill="#000000" font-family="sans-serif" font-size="13" font-weight="bold" lengthAdjust="spacing" textLength="8.5757" x="123.2605" y="389.541">8</text><text fill="#000000" font-family="sans-serif" font-size="13" lengthAdjust="spacing" textLength="161.6367" x="135.8362" y="389.541">Authentication successful</text></g><g class="message" data-entity-1="part1" data-entity-2="part2" id="msg9"><polygon fill="#181818" points="355.5508,419.5938,365.5508,423.5938,355.5508,427.5938,359.5508,423.5938" style="stroke:#181818;stroke-width:1;"/><line style="stroke:#181818;stroke-width:1;" x1="53.1826" x2="361.5508" y1="423.5938" y2="423.5938"/><text fill="#000000" font-family="sans-serif" font-size="13" font-weight="bold" lengthAdjust="spacing" textLength="8.5757" x="65.1826" y="418.8516">9</text><text fill="#000000" font-family="sans-serif" font-size="13" lengthAdjust="spacing" textLength="277.7925" x="77.7583" y="418.8516">Requests access to a protected functionality</text></g><g class="message" data-entity-1="part2" data-entity-2="part2" id="msg10"><line style="stroke:#181818;stroke-width:1;stroke-dasharray:2,2;" x1="377.5508" x2="419.5508" y1="452.9043" y2="452.9043"/><line style="stroke:#181818;stroke-width:1;stroke-dasharray:2,2;" x1="419.5508" x2="419.5508" y1="452.9043" y2="465.9043"/><line style="stroke:#181818;stroke-width:1;stroke-dasharray:2,2;" x1="378.5508" x2="419.5508" y1="465.9043" y2="465.9043"/><polygon fill="#181818" points="388.5508,461.9043,378.5508,465.9043,388.5508,469.9043,384.5508,465.9043" style="stroke:#181818;stroke-width:1;"/><text fill="#000000" font-family="sans-serif" font-size="13" font-weight="bold" lengthAdjust="spacing" textLength="17.1514" x="384.5508" y="448.1621">10</text><text fill="#000000" font-family="sans-serif" font-size="13" lengthAdjust="spacing" textLength="215.6426" x="405.7021" y="448.1621">Check required role or permission</text></g><path d="M20,480.9043 L82.1387,480.9043 L82.1387,488.2148 L72.1387,498.2148 L20,498.2148 L20,480.9043" fill="#EEEEEE" style="stroke:#000000;stroke-width:1.5;"/><rect fill="none" height="90.8867" style="stroke:#000000;stroke-width:1.5;" width="395.8145" x="20" y="480.9043"/><text fill="#000000" font-family="sans-serif" font-size="13" font-weight="bold" lengthAdjust="spacing" textLength="17.1387" x="35" y="494.4727">alt</text><text fill="#000000" font-family="sans-serif" font-size="11" font-weight="bold" lengthAdjust="spacing" textLength="111.2998" x="97.1387" y="493.5391">[user is authorized]</text><g class="message" data-entity-1="part2" data-entity-2="part1" id="msg11"><polygon fill="#181818" points="64.1826,515.5254,54.1826,519.5254,64.1826,523.5254,60.1826,519.5254" style="stroke:#181818;stroke-width:1;"/><line style="stroke:#181818;stroke-width:1;stroke-dasharray:2,2;" x1="58.1826" x2="366.5508" y1="519.5254" y2="519.5254"/><text fill="#000000" font-family="sans-serif" font-size="13" font-weight="bold" lengthAdjust="spacing" textLength="17.1514" x="151.863" y="514.7832">11</text><text fill="#000000" font-family="sans-serif" font-size="13" lengthAdjust="spacing" textLength="95.856" x="173.0144" y="514.7832">Access granted</text></g><line style="stroke:#000000;stroke-width:1;stroke-dasharray:2,2;" x1="20" x2="415.8145" y1="528.5254" y2="528.5254"/><text fill="#000000" font-family="sans-serif" font-size="11" font-weight="bold" lengthAdjust="spacing" textLength="133.6328" x="25" y="539.1602">[user is not authorized]</text><g class="message" data-entity-1="part2" data-entity-2="part1" id="msg12"><polygon fill="#181818" points="64.1826,559.791,54.1826,563.791,64.1826,567.791,60.1826,563.791" style="stroke:#181818;stroke-width:1;"/><line style="stroke:#181818;stroke-width:1;stroke-dasharray:2,2;" x1="58.1826" x2="366.5508" y1="563.791" y2="563.791"/><text fill="#000000" font-family="sans-serif" font-size="13" font-weight="bold" lengthAdjust="spacing" textLength="17.1514" x="155.0051" y="559.0488">12</text><text fill="#000000" font-family="sans-serif" font-size="13" lengthAdjust="spacing" textLength="89.5718" x="176.1565" y="559.0488">Access denied</text></g><line style="stroke:#000000;stroke-width:1;stroke-dasharray:2,2;" x1="10" x2="643.3447" y1="579.791" y2="579.791"/><text fill="#000000" font-family="sans-serif" font-size="11" font-weight="bold" lengthAdjust="spacing" textLength="145.1216" x="15" y="590.4258">[authentication is invalid]</text><g class="message" data-entity-1="part2" data-entity-2="part1" id="msg13"><polygon fill="#181818" points="64.1826,611.0566,54.1826,615.0566,64.1826,619.0566,60.1826,615.0566" style="stroke:#181818;stroke-width:1;"/><line style="stroke:#181818;stroke-width:1;stroke-dasharray:2,2;" x1="58.1826" x2="366.5508" y1="615.0566" y2="615.0566"/><text fill="#000000" font-family="sans-serif" font-size="13" font-weight="bold" lengthAdjust="spacing" textLength="17.1514" x="134.0801" y="610.3145">13</text><text fill="#000000" font-family="sans-serif" font-size="13" lengthAdjust="spacing" textLength="131.4219" x="155.2314" y="610.3145">Authentication failed</text></g><?plantuml-src bLFBJWCn3BpdAwpU-mCSa11d90I2kqcyMwlPP8cTelBrEEc3qa8bzh2AOi-CFNPapMd6WXDCEMM_AdaYq5B9oJ4oer_ZIC-wZGI5l68Qusc2h33a3quZ31ZbHuJUAoLF3oHY57UHnmIUab9nM3MdEhtPqQ7NN63n8bGMW0Bju8n2sVECIM5nyxmLfQb7TyUEuWqgxT9T-yFoTX-66tXgwg829hKoKVQedDC9SC-qHomDt4bEe3GXHy0Kp0QHZro22tIElvH-B7d3WNx5NvC_4hnYvD1oVA7GQZTdVqsyNv5V0mzGMmriYWdV8eKhoKA-5jOj-4Ws9fiFR9gSNLr3hJb6yrB4XZbPITyWXr7FJ6wLzBW3-ouDllkPBTLxenrgT1rmPPOz4JG3mboosZvIWA4ctuXCiTLpfddMIJ4kDbkXPDjeMxoPoiGYVJSQjBLpiBErbGj_qgwJFxhP5JMQcRfF97i9HvAKzLz4Dd4-y2JRc4vsQJ2dVrWys28QP-UxNE6Jc_wQlW00?></g></svg>