<?plantuml 1.2026.2?><svg xmlns="http://www.w3.org/2000/svg" xmlns:xlink="http://www.w3.org/1999/xlink" contentStyleType="text/css" data-diagram-type="CLASS" height="1162.4px" preserveAspectRatio="none" style="width:1284px;height:1162px;background:#FFFFFF;" version="1.1" viewBox="0 0 1284 1162" width="1284px" zoomAndPan="magnify"><title>US032-CD</title><defs/><g><g class="title" data-source-line="1"><text fill="#000000" font-family="sans-serif" font-size="11.2" font-weight="bold" lengthAdjust="spacing" textLength="60.8234" x="605.9883" y="18.8281">US032-CD</text></g><!--cluster ui--><g class="cluster" data-qualified-name="ui" data-source-line="9" id="ent0004"><rect fill="none" height="198.76" rx="2" ry="2" style="stroke:#000000;stroke-width:1.2;" width="260.8" x="276.8" y="35.5906"/><text fill="#000000" font-family="sans-serif" font-size="11.2" font-weight="bold" lengthAdjust="spacing" textLength="10.9977" x="401.7012" y="48.0188">ui</text></g><!--cluster console--><g class="cluster" data-qualified-name="ui.console" data-source-line="8" id="ent0002"><rect fill="#DDDDDD" height="145.16" rx="2" ry="2" style="stroke:#000000;stroke-width:1.2;" width="222.4" x="296" y="69.9906"/><text fill="#000000" font-family="sans-serif" font-size="11.2" font-weight="bold" lengthAdjust="spacing" textLength="44.1602" x="385.1199" y="82.4188">console</text></g><!--cluster controller--><g class="cluster" data-qualified-name="controller" data-source-line="18" id="ent0005"><rect fill="#DDDDDD" height="105.576" rx="2" ry="2" style="stroke:#000000;stroke-width:1.2;" width="238.4" x="288" y="273.5506"/><text fill="#000000" font-family="sans-serif" font-size="11.2" font-weight="bold" lengthAdjust="spacing" textLength="56.1914" x="379.1043" y="285.9788">controller</text></g><!--cluster application--><g class="cluster" data-qualified-name="application" data-source-line="25" id="ent0007"><rect fill="#DDDDDD" height="261.952" rx="2" ry="2" style="stroke:#000000;stroke-width:1.2;" width="520.8" x="5.6" y="418.3266"/><text fill="#000000" font-family="sans-serif" font-size="11.2" font-weight="bold" lengthAdjust="spacing" textLength="63.9461" x="234.027" y="430.7548">application</text></g><!--cluster domain--><g class="cluster" data-qualified-name="domain" data-source-line="43" id="ent0011"><rect fill="#DDDDDD" height="438.272" rx="2" ry="2" style="stroke:#000000;stroke-width:1.2;" width="1089.6" x="189.6" y="719.4786"/><text fill="#000000" font-family="sans-serif" font-size="11.2" font-weight="bold" lengthAdjust="spacing" textLength="43.0172" x="712.8914" y="731.9068">domain</text></g><!--cluster repository--><g class="cluster" data-qualified-name="repository" data-source-line="88" id="ent0019"><rect fill="#DDDDDD" height="105.584" rx="2" ry="2" style="stroke:#000000;stroke-width:1.2;" width="275.2" x="681.6" y="561.5106"/><text fill="#000000" font-family="sans-serif" font-size="11.2" font-weight="bold" lengthAdjust="spacing" textLength="59.5164" x="789.4418" y="573.9388">repository</text></g><!--class ManageUserStatusUI--><g class="entity" data-qualified-name="ui.console.ManageUserStatusUI" data-source-line="9" id="ent0003"><rect fill="#F1F1F1" height="104.3531" rx="2" ry="2" style="stroke:#181818;stroke-width:0.4;" width="197.4078" x="308.496" y="97.9906"/><ellipse cx="348.437" cy="110.7906" fill="#C2C2C2" rx="8.8" ry="8.8" style="stroke:#181818;stroke-width:0.8;"/><path d="M350.8155,115.3051 Q350.3507,115.5441 349.8394,115.6637 Q349.328,115.7832 348.7636,115.7832 Q346.7581,115.7832 345.7023,114.4617 Q344.6464,113.1402 344.6464,110.6434 Q344.6464,108.1398 345.7023,106.8184 Q346.7581,105.4969 348.7636,105.4969 Q349.328,105.4969 349.846,105.6164 Q350.364,105.7359 350.8155,105.975 L350.8155,108.1531 Q350.3108,107.6883 349.836,107.4725 Q349.3612,107.2566 348.8565,107.2566 Q347.7808,107.2566 347.2329,108.11 Q346.6851,108.9633 346.6851,110.6434 Q346.6851,112.3168 347.2329,113.1701 Q347.7808,114.0234 348.8565,114.0234 Q349.3612,114.0234 349.836,113.8076 Q350.3108,113.5918 350.8155,113.127 Z " fill="#000000"/><text fill="#000000" font-family="sans-serif" font-size="11.2" lengthAdjust="spacing" textLength="110.7258" x="364.837" y="115.0234">ManageUserStatusUI</text><line style="stroke:#181818;stroke-width:0.4;" x1="309.296" x2="505.1038" y1="123.5906" y2="123.5906"/><text fill="#000000" font-family="sans-serif" font-size="11.2" lengthAdjust="spacing" textLength="74.9" x="313.296" y="137.6188">-email: String</text><text fill="#000000" font-family="sans-serif" font-size="11.2" lengthAdjust="spacing" textLength="97.7375" x="313.296" y="150.8094">-operation: String</text><line style="stroke:#181818;stroke-width:0.4;" x1="309.296" x2="505.1038" y1="156.3719" y2="156.3719"/><text fill="#000000" font-family="sans-serif" font-size="11.2" lengthAdjust="spacing" textLength="82.0969" x="313.296" y="170.4">+requestData()</text><text fill="#000000" font-family="sans-serif" font-size="11.2" lengthAdjust="spacing" textLength="187.8078" x="313.296" y="183.5906">+displayMessage(message: String)</text><text fill="#000000" font-family="sans-serif" font-size="11.2" lengthAdjust="spacing" textLength="167.7922" x="313.296" y="196.7813">+displayError(message: String)</text></g><!--class ManageUserStatusController--><g class="entity" data-qualified-name="controller.ManageUserStatusController" data-source-line="19" id="ent0006"><rect fill="#F1F1F1" height="64.7813" rx="2" ry="2" style="stroke:#181818;stroke-width:0.4;" width="212.7586" x="300.824" y="301.5506"/><ellipse cx="327.6248" cy="314.3506" fill="#C2C2C2" rx="8.8" ry="8.8" style="stroke:#181818;stroke-width:0.8;"/><path d="M330.0033,318.8651 Q329.5385,319.1041 329.0271,319.2237 Q328.5158,319.3432 327.9513,319.3432 Q325.9459,319.3432 324.89,318.0217 Q323.8342,316.7002 323.8342,314.2034 Q323.8342,311.6998 324.89,310.3784 Q325.9459,309.0569 327.9513,309.0569 Q328.5158,309.0569 329.0338,309.1764 Q329.5517,309.2959 330.0033,309.535 L330.0033,311.7131 Q329.4986,311.2483 329.0238,311.0325 Q328.549,310.8166 328.0443,310.8166 Q326.9685,310.8166 326.4207,311.67 Q325.8728,312.5233 325.8728,314.2034 Q325.8728,315.8768 326.4207,316.7301 Q326.9685,317.5834 328.0443,317.5834 Q328.549,317.5834 329.0238,317.3676 Q329.4986,317.1518 330.0033,316.687 Z " fill="#000000"/><text fill="#000000" font-family="sans-serif" font-size="11.2" lengthAdjust="spacing" textLength="154.268" x="342.1138" y="318.5834">ManageUserStatusController</text><line style="stroke:#181818;stroke-width:0.4;" x1="301.624" x2="512.7826" y1="327.1506" y2="327.1506"/><line style="stroke:#181818;stroke-width:0.4;" x1="301.624" x2="512.7826" y1="333.5506" y2="333.5506"/><text fill="#000000" font-family="sans-serif" font-size="11.2" lengthAdjust="spacing" textLength="203.1586" x="305.624" y="347.5788">+disableUser(email: String): UserDTO</text><text fill="#000000" font-family="sans-serif" font-size="11.2" lengthAdjust="spacing" textLength="200.3531" x="305.624" y="360.7694">+enableUser(email: String): UserDTO</text></g><!--class ManageUserStatusService--><g class="entity" data-qualified-name="application.ManageUserStatusService" data-source-line="26" id="ent0008"><rect fill="#F1F1F1" height="64.7813" rx="2" ry="2" style="stroke:#181818;stroke-width:0.4;" width="212.7586" x="300.824" y="446.3266"/><ellipse cx="335.1233" cy="459.1266" fill="#C2C2C2" rx="8.8" ry="8.8" style="stroke:#181818;stroke-width:0.8;"/><path d="M337.5018,463.6411 Q337.0369,463.8801 336.5256,463.9997 Q336.0143,464.1192 335.4498,464.1192 Q333.4444,464.1192 332.3885,462.7977 Q331.3326,461.4762 331.3326,458.9794 Q331.3326,456.4758 332.3885,455.1544 Q333.4444,453.8329 335.4498,453.8329 Q336.0143,453.8329 336.5322,453.9524 Q337.0502,454.0719 337.5018,454.311 L337.5018,456.4891 Q336.9971,456.0243 336.5223,455.8085 Q336.0475,455.5926 335.5428,455.5926 Q334.467,455.5926 333.9192,456.446 Q333.3713,457.2993 333.3713,458.9794 Q333.3713,460.6528 333.9192,461.5061 Q334.467,462.3594 335.5428,462.3594 Q336.0475,462.3594 336.5223,462.1436 Q336.9971,461.9278 337.5018,461.463 Z " fill="#000000"/><text fill="#000000" font-family="sans-serif" font-size="11.2" lengthAdjust="spacing" textLength="137.6047" x="351.2786" y="463.3594">ManageUserStatusService</text><line style="stroke:#181818;stroke-width:0.4;" x1="301.624" x2="512.7826" y1="471.9266" y2="471.9266"/><line style="stroke:#181818;stroke-width:0.4;" x1="301.624" x2="512.7826" y1="478.3266" y2="478.3266"/><text fill="#000000" font-family="sans-serif" font-size="11.2" lengthAdjust="spacing" textLength="203.1586" x="305.624" y="492.3548">+disableUser(email: String): UserDTO</text><text fill="#000000" font-family="sans-serif" font-size="11.2" lengthAdjust="spacing" textLength="200.3531" x="305.624" y="505.5454">+enableUser(email: String): UserDTO</text></g><!--class AuthorizationService--><g class="entity" data-qualified-name="application.AuthorizationService" data-source-line="31" id="ent0009"><rect fill="#F1F1F1" height="51.5906" rx="2" ry="2" style="stroke:#181818;stroke-width:0.4;" width="333.7547" x="18.72" y="596.1026"/><ellipse cx="126.0743" cy="608.9026" fill="#C2C2C2" rx="8.8" ry="8.8" style="stroke:#181818;stroke-width:0.8;"/><path d="M128.4528,613.4171 Q127.988,613.6561 127.4766,613.7757 Q126.9653,613.8952 126.4009,613.8952 Q124.3954,613.8952 123.3395,612.5737 Q122.2837,611.2522 122.2837,608.7554 Q122.2837,606.2518 123.3395,604.9304 Q124.3954,603.6089 126.4009,603.6089 Q126.9653,603.6089 127.4833,603.7284 Q128.0013,603.8479 128.4528,604.087 L128.4528,606.2651 Q127.9481,605.8003 127.4733,605.5845 Q126.9985,605.3686 126.4938,605.3686 Q125.418,605.3686 124.8702,606.222 Q124.3223,607.0753 124.3223,608.7554 Q124.3223,610.4288 124.8702,611.2821 Q125.418,612.1354 126.4938,612.1354 Q126.9985,612.1354 127.4733,611.9196 Q127.9481,611.7038 128.4528,611.239 Z " fill="#000000"/><text fill="#000000" font-family="sans-serif" font-size="11.2" lengthAdjust="spacing" textLength="112.2461" x="142.4743" y="613.1354">AuthorizationService</text><line style="stroke:#181818;stroke-width:0.4;" x1="19.52" x2="351.6747" y1="621.7026" y2="621.7026"/><line style="stroke:#181818;stroke-width:0.4;" x1="19.52" x2="351.6747" y1="628.1026" y2="628.1026"/><text fill="#000000" font-family="sans-serif" font-size="11.2" lengthAdjust="spacing" textLength="324.1547" x="23.52" y="642.1308">+isAuthorized(user: User, permission: Permission): boolean</text></g><!--class UserDTO--><g class="entity" data-qualified-name="application.UserDTO" data-source-line="35" id="ent0010"><rect fill="#F1F1F1" height="91.1625" rx="2" ry="2" style="stroke:#181818;stroke-width:0.4;" width="132.7672" x="380.816" y="576.3186"/><ellipse cx="419.5676" cy="589.1186" fill="#C2C2C2" rx="8.8" ry="8.8" style="stroke:#181818;stroke-width:0.8;"/><path d="M421.9461,593.6331 Q421.4812,593.8721 420.9699,593.9917 Q420.4586,594.1112 419.8941,594.1112 Q417.8887,594.1112 416.8328,592.7897 Q415.7769,591.4682 415.7769,588.9714 Q415.7769,586.4678 416.8328,585.1464 Q417.8887,583.8249 419.8941,583.8249 Q420.4586,583.8249 420.9765,583.9444 Q421.4945,584.0639 421.9461,584.303 L421.9461,586.4811 Q421.4414,586.0163 420.9666,585.8005 Q420.4918,585.5846 419.9871,585.5846 Q418.9113,585.5846 418.3635,586.438 Q417.8156,587.2913 417.8156,588.9714 Q417.8156,590.6448 418.3635,591.4981 Q418.9113,592.3514 419.9871,592.3514 Q420.4918,592.3514 420.9666,592.1356 Q421.4414,591.9198 421.9461,591.455 Z " fill="#000000"/><text fill="#000000" font-family="sans-serif" font-size="11.2" lengthAdjust="spacing" textLength="48.4641" x="435.9676" y="593.3514">UserDTO</text><line style="stroke:#181818;stroke-width:0.4;" x1="381.616" x2="512.7832" y1="601.9186" y2="601.9186"/><text fill="#000000" font-family="sans-serif" font-size="11.2" lengthAdjust="spacing" textLength="74.9" x="385.616" y="615.9468">-email: String</text><text fill="#000000" font-family="sans-serif" font-size="11.2" lengthAdjust="spacing" textLength="75.3758" x="385.616" y="629.1374">-name: String</text><text fill="#000000" font-family="sans-serif" font-size="11.2" lengthAdjust="spacing" textLength="123.1672" x="385.616" y="642.328">-phoneNumber: String</text><text fill="#000000" font-family="sans-serif" font-size="11.2" lengthAdjust="spacing" textLength="99.9414" x="385.616" y="655.5186">-enabled: boolean</text><line style="stroke:#181818;stroke-width:0.4;" x1="381.616" x2="512.7832" y1="661.0811" y2="661.0811"/></g><!--class User--><g class="entity" data-qualified-name="domain.User" data-source-line="44" id="ent0012"><rect fill="#F1F1F1" height="183.4969" rx="2" ry="2" style="stroke:#181818;stroke-width:0.4;" width="280.6695" x="503.664" y="747.4786"/><ellipse cx="628.4527" cy="760.2786" fill="#C2C2C2" rx="8.8" ry="8.8" style="stroke:#181818;stroke-width:0.8;"/><path d="M630.8312,764.7931 Q630.3663,765.0321 629.855,765.1517 Q629.3437,765.2712 628.7792,765.2712 Q626.7738,765.2712 625.7179,763.9497 Q624.662,762.6282 624.662,760.1314 Q624.662,757.6278 625.7179,756.3064 Q626.7738,754.9849 628.7792,754.9849 Q629.3437,754.9849 629.8617,755.1044 Q630.3796,755.2239 630.8312,755.463 L630.8312,757.6411 Q630.3265,757.1763 629.8517,756.9605 Q629.3769,756.7446 628.8722,756.7446 Q627.7964,756.7446 627.2486,757.598 Q626.7007,758.4513 626.7007,760.1314 Q626.7007,761.8048 627.2486,762.6581 Q627.7964,763.5114 628.8722,763.5114 Q629.3769,763.5114 629.8517,763.2956 Q630.3265,763.0798 630.8312,762.615 Z " fill="#000000"/><text fill="#000000" font-family="sans-serif" font-size="11.2" lengthAdjust="spacing" textLength="24.2922" x="644.8527" y="764.5114">User</text><line style="stroke:#181818;stroke-width:0.4;" x1="504.464" x2="783.5335" y1="773.0786" y2="773.0786"/><text fill="#000000" font-family="sans-serif" font-size="11.2" lengthAdjust="spacing" textLength="72.1109" x="508.464" y="787.1068">-email: Email</text><text fill="#000000" font-family="sans-serif" font-size="11.2" lengthAdjust="spacing" textLength="75.3758" x="508.464" y="800.2974">-name: String</text><text fill="#000000" font-family="sans-serif" font-size="11.2" lengthAdjust="spacing" textLength="167.9563" x="508.464" y="813.488">-phoneNumber: PhoneNumber</text><text fill="#000000" font-family="sans-serif" font-size="11.2" lengthAdjust="spacing" textLength="99.9414" x="508.464" y="826.6786">-enabled: boolean</text><text fill="#000000" font-family="sans-serif" font-size="11.2" lengthAdjust="spacing" textLength="100.5703" x="508.464" y="839.8693">-roles: List&lt;Role&gt;</text><text fill="#000000" font-family="sans-serif" font-size="11.2" lengthAdjust="spacing" textLength="205.1" x="508.464" y="853.0599">-securityClearance: SecurityClearance</text><text fill="#000000" font-family="sans-serif" font-size="11.2" lengthAdjust="spacing" textLength="198.5266" x="508.464" y="866.2505">-skillsAssessment: SkillsAssessment</text><line style="stroke:#181818;stroke-width:0.4;" x1="504.464" x2="783.5335" y1="871.813" y2="871.813"/><text fill="#000000" font-family="sans-serif" font-size="11.2" lengthAdjust="spacing" textLength="82.1406" x="508.464" y="885.8411">+enable(): void</text><text fill="#000000" font-family="sans-serif" font-size="11.2" lengthAdjust="spacing" textLength="84.9461" x="508.464" y="899.0318">+disable(): void</text><text fill="#000000" font-family="sans-serif" font-size="11.2" lengthAdjust="spacing" textLength="118.4258" x="508.464" y="912.2224">+isEnabled(): boolean</text><text fill="#000000" font-family="sans-serif" font-size="11.2" lengthAdjust="spacing" textLength="271.0695" x="508.464" y="925.413">+hasPermission(permission: Permission): boolean</text></g><!--class Email--><g class="entity" data-qualified-name="domain.Email" data-source-line="58" id="ent0013"><rect fill="#F1F1F1" height="64.7813" rx="2" ry="2" style="stroke:#181818;stroke-width:0.4;" width="122.4477" x="202.776" y="979.7826"/><ellipse cx="246.0065" cy="992.5826" fill="#C2C2C2" rx="8.8" ry="8.8" style="stroke:#181818;stroke-width:0.8;"/><path d="M248.385,997.0971 Q247.9201,997.3361 247.4088,997.4557 Q246.8975,997.5752 246.333,997.5752 Q244.3276,997.5752 243.2717,996.2537 Q242.2158,994.9322 242.2158,992.4354 Q242.2158,989.9318 243.2717,988.6104 Q244.3276,987.2889 246.333,987.2889 Q246.8975,987.2889 247.4155,987.4084 Q247.9334,987.5279 248.385,987.767 L248.385,989.9451 Q247.8803,989.4803 247.4055,989.2645 Q246.9307,989.0486 246.426,989.0486 Q245.3502,989.0486 244.8024,989.902 Q244.2545,990.7553 244.2545,992.4354 Q244.2545,994.1088 244.8024,994.9621 Q245.3502,995.8154 246.426,995.8154 Q246.9307,995.8154 247.4055,995.5996 Q247.8803,995.3838 248.385,994.919 Z " fill="#000000"/><text fill="#000000" font-family="sans-serif" font-size="11.2" lengthAdjust="spacing" textLength="29.1867" x="262.4065" y="996.8154">Email</text><line style="stroke:#181818;stroke-width:0.4;" x1="203.576" x2="324.4237" y1="1005.3826" y2="1005.3826"/><text fill="#000000" font-family="sans-serif" font-size="11.2" lengthAdjust="spacing" textLength="73.9539" x="207.576" y="1019.4108">-value: String</text><line style="stroke:#181818;stroke-width:0.4;" x1="203.576" x2="324.4237" y1="1024.9733" y2="1024.9733"/><text fill="#000000" font-family="sans-serif" font-size="11.2" lengthAdjust="spacing" textLength="112.8477" x="207.576" y="1039.0014">+Email(value: String)</text></g><!--class PhoneNumber--><g class="entity" data-qualified-name="domain.PhoneNumber" data-source-line="63" id="ent0014"><rect fill="#F1F1F1" height="64.7813" rx="2" ry="2" style="stroke:#181818;stroke-width:0.4;" width="170.0258" x="353.384" y="979.7826"/><ellipse cx="396.6145" cy="992.5826" fill="#C2C2C2" rx="8.8" ry="8.8" style="stroke:#181818;stroke-width:0.8;"/><path d="M398.993,997.0971 Q398.5281,997.3361 398.0168,997.4557 Q397.5055,997.5752 396.941,997.5752 Q394.9356,997.5752 393.8797,996.2537 Q392.8238,994.9322 392.8238,992.4354 Q392.8238,989.9318 393.8797,988.6104 Q394.9356,987.2889 396.941,987.2889 Q397.5055,987.2889 398.0235,987.4084 Q398.5414,987.5279 398.993,987.767 L398.993,989.9451 Q398.4883,989.4803 398.0135,989.2645 Q397.5387,989.0486 397.034,989.0486 Q395.9582,989.0486 395.4104,989.902 Q394.8625,990.7553 394.8625,992.4354 Q394.8625,994.1088 395.4104,994.9621 Q395.9582,995.8154 397.034,995.8154 Q397.5387,995.8154 398.0135,995.5996 Q398.4883,995.3838 398.993,994.919 Z " fill="#000000"/><text fill="#000000" font-family="sans-serif" font-size="11.2" lengthAdjust="spacing" textLength="76.7648" x="413.0145" y="996.8154">PhoneNumber</text><line style="stroke:#181818;stroke-width:0.4;" x1="354.184" x2="522.6098" y1="1005.3826" y2="1005.3826"/><text fill="#000000" font-family="sans-serif" font-size="11.2" lengthAdjust="spacing" textLength="73.9539" x="358.184" y="1019.4108">-value: String</text><line style="stroke:#181818;stroke-width:0.4;" x1="354.184" x2="522.6098" y1="1024.9733" y2="1024.9733"/><text fill="#000000" font-family="sans-serif" font-size="11.2" lengthAdjust="spacing" textLength="160.4258" x="358.184" y="1039.0014">+PhoneNumber(value: String)</text></g><!--class Role--><g class="entity" data-qualified-name="domain.Role" data-source-line="68" id="ent0015"><rect fill="#F1F1F1" height="64.7813" rx="2" ry="2" style="stroke:#181818;stroke-width:0.4;" width="185.0375" x="551.48" y="979.7826"/><ellipse cx="628.8792" cy="992.5826" fill="#C2C2C2" rx="8.8" ry="8.8" style="stroke:#181818;stroke-width:0.8;"/><path d="M631.2577,997.0971 Q630.7929,997.3361 630.2816,997.4557 Q629.7702,997.5752 629.2058,997.5752 Q627.2003,997.5752 626.1445,996.2537 Q625.0886,994.9322 625.0886,992.4354 Q625.0886,989.9318 626.1445,988.6104 Q627.2003,987.2889 629.2058,987.2889 Q629.7702,987.2889 630.2882,987.4084 Q630.8062,987.5279 631.2577,987.767 L631.2577,989.9451 Q630.753,989.4803 630.2782,989.2645 Q629.8034,989.0486 629.2988,989.0486 Q628.223,989.0486 627.6751,989.902 Q627.1273,990.7553 627.1273,992.4354 Q627.1273,994.1088 627.6751,994.9621 Q628.223,995.8154 629.2988,995.8154 Q629.8034,995.8154 630.2782,995.5996 Q630.753,995.3838 631.2577,994.919 Z " fill="#000000"/><text fill="#000000" font-family="sans-serif" font-size="11.2" lengthAdjust="spacing" textLength="23.4391" x="645.2792" y="996.8154">Role</text><line style="stroke:#181818;stroke-width:0.4;" x1="552.28" x2="735.7175" y1="1005.3826" y2="1005.3826"/><text fill="#000000" font-family="sans-serif" font-size="11.2" lengthAdjust="spacing" textLength="75.3758" x="556.28" y="1019.4108">-name: String</text><text fill="#000000" font-family="sans-serif" font-size="11.2" lengthAdjust="spacing" textLength="175.4375" x="556.28" y="1032.6014">-permissions: List&lt;Permission&gt;</text><line style="stroke:#181818;stroke-width:0.4;" x1="552.28" x2="735.7175" y1="1038.1639" y2="1038.1639"/></g><!--class Permission--><g class="entity" data-qualified-name="domain.Permission" data-source-line="73" id="ent0016"><rect fill="#F1F1F1" height="51.5906" rx="2" ry="2" style="stroke:#181818;stroke-width:0.4;" width="84.9758" x="601.512" y="1093.3586"/><ellipse cx="613.5939" cy="1106.1586" fill="#C2C2C2" rx="8.8" ry="8.8" style="stroke:#181818;stroke-width:0.8;"/><path d="M615.9724,1110.6731 Q615.5076,1110.9121 614.9963,1111.0317 Q614.4849,1111.1512 613.9205,1111.1512 Q611.915,1111.1512 610.8591,1109.8297 Q609.8033,1108.5082 609.8033,1106.0114 Q609.8033,1103.5078 610.8591,1102.1864 Q611.915,1100.8649 613.9205,1100.8649 Q614.4849,1100.8649 615.0029,1100.9844 Q615.5209,1101.1039 615.9724,1101.343 L615.9724,1103.5211 Q615.4677,1103.0563 614.9929,1102.8405 Q614.5181,1102.6246 614.0134,1102.6246 Q612.9377,1102.6246 612.3898,1103.478 Q611.842,1104.3313 611.842,1106.0114 Q611.842,1107.6848 612.3898,1108.5381 Q612.9377,1109.3914 614.0134,1109.3914 Q614.5181,1109.3914 614.9929,1109.1756 Q615.4677,1108.9598 615.9724,1108.495 Z " fill="#000000"/><text fill="#000000" font-family="sans-serif" font-size="11.2" lengthAdjust="spacing" textLength="59.1938" x="624.8121" y="1110.3914">Permission</text><line style="stroke:#181818;stroke-width:0.4;" x1="602.312" x2="685.6878" y1="1118.9586" y2="1118.9586"/><text fill="#000000" font-family="sans-serif" font-size="11.2" lengthAdjust="spacing" textLength="75.3758" x="606.312" y="1132.9868">-name: String</text><line style="stroke:#181818;stroke-width:0.4;" x1="602.312" x2="685.6878" y1="1138.5493" y2="1138.5493"/></g><!--class SecurityClearance--><g class="entity" data-qualified-name="domain.SecurityClearance" data-source-line="77" id="ent0017"><rect fill="#F1F1F1" height="64.7813" rx="2" ry="2" style="stroke:#181818;stroke-width:0.4;" width="236.6133" x="764.896" y="979.7826"/><ellipse cx="831.839" cy="992.5826" fill="#C2C2C2" rx="8.8" ry="8.8" style="stroke:#181818;stroke-width:0.8;"/><path d="M834.2175,997.0971 Q833.7526,997.3361 833.2413,997.4557 Q832.73,997.5752 832.1655,997.5752 Q830.1601,997.5752 829.1042,996.2537 Q828.0483,994.9322 828.0483,992.4354 Q828.0483,989.9318 829.1042,988.6104 Q830.1601,987.2889 832.1655,987.2889 Q832.73,987.2889 833.248,987.4084 Q833.7659,987.5279 834.2175,987.767 L834.2175,989.9451 Q833.7128,989.4803 833.238,989.2645 Q832.7632,989.0486 832.2585,989.0486 Q831.1827,989.0486 830.6349,989.902 Q830.087,990.7553 830.087,992.4354 Q830.087,994.1088 830.6349,994.9621 Q831.1827,995.8154 832.2585,995.8154 Q832.7632,995.8154 833.238,995.5996 Q833.7128,995.3838 834.2175,994.919 Z " fill="#000000"/><text fill="#000000" font-family="sans-serif" font-size="11.2" lengthAdjust="spacing" textLength="95.9273" x="848.239" y="996.8154">SecurityClearance</text><line style="stroke:#181818;stroke-width:0.4;" x1="765.696" x2="1000.7093" y1="1005.3826" y2="1005.3826"/><text fill="#000000" font-family="sans-serif" font-size="11.2" lengthAdjust="spacing" textLength="147.0055" x="769.696" y="1019.4108">-expirationDate: LocalDate</text><line style="stroke:#181818;stroke-width:0.4;" x1="765.696" x2="1000.7093" y1="1024.9733" y2="1024.9733"/><text fill="#000000" font-family="sans-serif" font-size="11.2" lengthAdjust="spacing" textLength="227.0133" x="769.696" y="1039.0014">+isValid(currentDate: LocalDate): boolean</text></g><!--class SkillsAssessment--><g class="entity" data-qualified-name="domain.SkillsAssessment" data-source-line="82" id="ent0018"><rect fill="#F1F1F1" height="64.7813" rx="2" ry="2" style="stroke:#181818;stroke-width:0.4;" width="236.6133" x="1029.696" y="979.7826"/><ellipse cx="1098.2823" cy="992.5826" fill="#C2C2C2" rx="8.8" ry="8.8" style="stroke:#181818;stroke-width:0.8;"/><path d="M1100.6608,997.0971 Q1100.196,997.3361 1099.6847,997.4557 Q1099.1733,997.5752 1098.6089,997.5752 Q1096.6034,997.5752 1095.5476,996.2537 Q1094.4917,994.9322 1094.4917,992.4354 Q1094.4917,989.9318 1095.5476,988.6104 Q1096.6034,987.2889 1098.6089,987.2889 Q1099.1733,987.2889 1099.6913,987.4084 Q1100.2093,987.5279 1100.6608,987.767 L1100.6608,989.9451 Q1100.1562,989.4803 1099.6814,989.2645 Q1099.2065,989.0486 1098.7019,989.0486 Q1097.6261,989.0486 1097.0782,989.902 Q1096.5304,990.7553 1096.5304,992.4354 Q1096.5304,994.1088 1097.0782,994.9621 Q1097.6261,995.8154 1098.7019,995.8154 Q1099.2065,995.8154 1099.6814,995.5996 Q1100.1562,995.3838 1100.6608,994.919 Z " fill="#000000"/><text fill="#000000" font-family="sans-serif" font-size="11.2" lengthAdjust="spacing" textLength="92.6406" x="1114.6823" y="996.8154">SkillsAssessment</text><line style="stroke:#181818;stroke-width:0.4;" x1="1030.496" x2="1265.5093" y1="1005.3826" y2="1005.3826"/><text fill="#000000" font-family="sans-serif" font-size="11.2" lengthAdjust="spacing" textLength="175.5469" x="1034.496" y="1019.4108">-lastAssessmentDate: LocalDate</text><line style="stroke:#181818;stroke-width:0.4;" x1="1030.496" x2="1265.5093" y1="1024.9733" y2="1024.9733"/><text fill="#000000" font-family="sans-serif" font-size="11.2" lengthAdjust="spacing" textLength="227.0133" x="1034.496" y="1039.0014">+isValid(currentDate: LocalDate): boolean</text></g><!--class UserRepository--><g class="entity" data-qualified-name="repository.UserRepository" data-source-line="89" id="ent0020"><rect fill="#F1F1F1" height="64.7813" rx="2" ry="2" style="stroke:#181818;stroke-width:0.4;" width="249.8695" x="694.264" y="589.5106"/><ellipse cx="774.8023" cy="602.3106" fill="#B1B1B1" rx="8.8" ry="8.8" style="stroke:#181818;stroke-width:0.8;"/><path d="M771.5445,598.9227 L771.5445,597.1962 L777.448,597.1962 L777.448,598.9227 L775.4757,598.9227 L775.4757,605.3841 L777.448,605.3841 L777.448,607.1106 L771.5445,607.1106 L771.5445,605.3841 L773.5167,605.3841 L773.5167,598.9227 Z " fill="#000000"/><text fill="#000000" font-family="sans-serif" font-size="11.2" font-style="italic" lengthAdjust="spacing" textLength="81.993" x="791.2023" y="606.5434">UserRepository</text><line style="stroke:#181818;stroke-width:0.4;" x1="695.064" x2="943.3335" y1="615.1106" y2="615.1106"/><line style="stroke:#181818;stroke-width:0.4;" x1="695.064" x2="943.3335" y1="621.5106" y2="621.5106"/><text fill="#000000" font-family="sans-serif" font-size="11.2" lengthAdjust="spacing" textLength="240.2695" x="699.064" y="635.5388">+findByEmail(email: Email): Optional&lt;User&gt;</text><text fill="#000000" font-family="sans-serif" font-size="11.2" lengthAdjust="spacing" textLength="125.032" x="699.064" y="648.7294">+save(user: User): void</text></g><!--link ManageUserStatusUI to ManageUserStatusController--><g class="link" data-entity-1="ent0003" data-entity-2="ent0006" data-link-type="dependency" data-source-line="95" id="lnk21"><path codeLine="95" d="M407.2,202.6866 C407.2,234.4546 407.2,269.3346 407.2,296.5346" fill="none" id="ManageUserStatusUI-to-ManageUserStatusController" style="stroke:#181818;stroke-width:0.8;"/><polygon fill="#181818" points="407.2,301.3346,410.4,294.1346,407.2,297.3346,404,294.1346,407.2,301.3346" style="stroke:#181818;stroke-width:0.8;"/><polygon fill="#000000" points="411.2,258.0748,413.5511,250.8388,408.8489,250.8388,411.2,258.0748" style="stroke:#000000;stroke-width:0.8;"/><text fill="#000000" font-family="sans-serif" font-size="10.4" lengthAdjust="spacing" textLength="22.8516" x="418.4" y="258.0053">uses</text></g><!--link ManageUserStatusController to ManageUserStatusService--><g class="link" data-entity-1="ent0006" data-entity-2="ent0008" data-link-type="dependency" data-source-line="96" id="lnk22"><path codeLine="96" d="M407.2,366.5186 C407.2,390.1586 407.2,417.5026 407.2,441.1826" fill="none" id="ManageUserStatusController-to-ManageUserStatusService" style="stroke:#181818;stroke-width:0.8;"/><polygon fill="#181818" points="407.2,445.9826,410.4,438.7826,407.2,441.9826,404,438.7826,407.2,445.9826" style="stroke:#181818;stroke-width:0.8;"/><polygon fill="#000000" points="411.2,402.8508,413.5511,395.6148,408.8489,395.6148,411.2,402.8508" style="stroke:#000000;stroke-width:0.8;"/><text fill="#000000" font-family="sans-serif" font-size="10.4" lengthAdjust="spacing" textLength="22.8516" x="418.4" y="402.7813">uses</text></g><!--link ManageUserStatusService to AuthorizationService--><g class="link" data-entity-1="ent0008" data-entity-2="ent0009" data-link-type="dependency" data-source-line="97" id="lnk23"><path codeLine="97" d="M351.696,511.4306 C338.832,519.0386 325.264,527.2386 312.8,535.1106 C281.584,554.8226 250.8591,575.6432 225.6111,593.1152" fill="none" id="ManageUserStatusService-to-AuthorizationService" style="stroke:#181818;stroke-width:0.8;"/><polygon fill="#181818" points="221.664,595.8466,229.4055,594.3809,224.9532,593.5704,225.7636,589.1181,221.664,595.8466" style="stroke:#181818;stroke-width:0.8;"/><polygon fill="#000000" points="313.4429,544.2097,320.7943,542.2486,318.2376,538.3021,313.4429,544.2097" style="stroke:#000000;stroke-width:0.8;"/><text fill="#000000" font-family="sans-serif" font-size="10.4" lengthAdjust="spacing" textLength="93.3359" x="324" y="545.9653">checks permission</text></g><!--link ManageUserStatusService to UserRepository--><g class="link" data-entity-1="ent0008" data-entity-2="ent0020" data-link-type="dependency" data-source-line="98" id="lnk24"><path codeLine="98" d="M513.672,505.9986 C562.672,519.1586 621.24,536.2706 672.8,555.1106 C699.768,564.9666 724.3789,575.5607 749.3709,587.1127" fill="none" id="ManageUserStatusService-to-UserRepository" style="stroke:#181818;stroke-width:0.8;"/><polygon fill="#181818" points="753.728,589.1266,748.535,583.201,750.0971,587.4483,745.8498,589.0104,753.728,589.1266" style="stroke:#181818;stroke-width:0.8;"/><polygon fill="#000000" points="659.4943,543.3365,653.4172,538.7586,651.887,543.205,659.4943,543.3365" style="stroke:#000000;stroke-width:0.8;"/><text fill="#000000" font-family="sans-serif" font-size="10.4" lengthAdjust="spacing" textLength="76.4512" x="662.912" y="545.9653">retrieves/saves</text></g><!--link ManageUserStatusService to User--><g class="link" data-entity-1="ent0008" data-entity-2="ent0012" data-link-type="dependency" data-source-line="99" id="lnk25"><path codeLine="99" d="M473.88,511.5026 C493.008,523.1426 512.608,537.7826 527.2,555.1106 C533.912,563.0866 574.4236,663.0594 606.1996,742.8274" fill="none" id="ManageUserStatusService-to-User" style="stroke:#181818;stroke-width:0.8;"/><polygon fill="#181818" points="607.976,747.2866,608.2843,739.4136,606.4957,743.5706,602.3387,741.782,607.976,747.2866" style="stroke:#181818;stroke-width:0.8;"/><polygon fill="#000000" points="588.2661,625.4989,586.7141,618.0505,582.6324,620.3852,588.2661,625.4989" style="stroke:#000000;stroke-width:0.8;"/><text fill="#000000" font-family="sans-serif" font-size="10.4" lengthAdjust="spacing" textLength="85.3379" x="593.48" y="625.9573">enables/disables</text></g><!--link ManageUserStatusService to UserDTO--><g class="link" data-entity-1="ent0008" data-entity-2="ent0010" data-link-type="dependency" data-source-line="100" id="lnk26"><path codeLine="100" d="M416.176,511.2946 C421.568,530.3746 427.2068,550.3235 433.1588,571.3875" fill="none" id="ManageUserStatusService-to-UserDTO" style="stroke:#181818;stroke-width:0.8;"/><polygon fill="#181818" points="434.464,576.0066,435.5856,568.2078,433.3763,572.1573,429.4268,569.9481,434.464,576.0066" style="stroke:#181818;stroke-width:0.8;"/><polygon fill="#000000" points="431.0878,545.8841,431.3825,538.2813,426.8574,539.5602,431.0878,545.8841" style="stroke:#000000;stroke-width:0.8;"/><text fill="#000000" font-family="sans-serif" font-size="10.4" lengthAdjust="spacing" textLength="36.4051" x="437.2" y="545.9653">returns</text></g><!--link UserRepository to User--><g class="link" data-entity-1="ent0020" data-entity-2="ent0012" data-link-type="dependency" data-source-line="102" id="lnk27"><path codeLine="102" d="M793.352,654.5346 C773.456,679.0306 747.9462,710.4408 721.1302,743.4568" fill="none" id="UserRepository-to-User" style="stroke:#181818;stroke-width:0.8;"/><polygon fill="#181818" points="718.104,747.1826,725.1272,743.6113,720.6258,744.0777,720.1594,739.5764,718.104,747.1826" style="stroke:#181818;stroke-width:0.8;"/><polygon fill="#000000" points="759.0062,703.1078,765.3932,698.9732,761.7431,696.0086,759.0062,703.1078" style="stroke:#000000;stroke-width:0.8;"/><text fill="#000000" font-family="sans-serif" font-size="10.4" lengthAdjust="spacing" textLength="30.9309" x="768.728" y="703.9333">stores</text></g><!--reverse link User to Email--><g class="link" data-entity-1="ent0012" data-entity-2="ent0013" data-link-type="composition" data-source-line="103" id="lnk28"><path codeLine="103" d="M494.5605,907.4088 C433.2805,935.0408 373.392,962.0466 325.392,983.6866" fill="none" id="User-backto-Email" style="stroke:#181818;stroke-width:0.8;"/><polygon fill="#181818" points="503.312,903.4626,497.6209,902.5185,494.5605,907.4088,500.2517,908.3529,503.312,903.4626" style="stroke:#181818;stroke-width:0.8;"/></g><!--reverse link User to PhoneNumber--><g class="link" data-entity-1="ent0012" data-entity-2="ent0014" data-link-type="composition" data-source-line="104" id="lnk29"><path codeLine="104" d="M527.2018,937.3612 C506.3938,954.7052 493.32,965.5986 476.664,979.4786" fill="none" id="User-backto-PhoneNumber" style="stroke:#181818;stroke-width:0.8;"/><polygon fill="#181818" points="534.576,931.2146,528.84,931.8299,527.2018,937.3612,532.9378,936.746,534.576,931.2146" style="stroke:#181818;stroke-width:0.8;"/></g><!--reverse link User to SecurityClearance--><g class="link" data-entity-1="ent0012" data-entity-2="ent0017" data-link-type="composition" data-source-line="105" id="lnk30"><path codeLine="105" d="M779.1078,936.8057 C803.3158,954.1497 819.304,965.5986 838.68,979.4786" fill="none" id="User-backto-SecurityClearance" style="stroke:#181818;stroke-width:0.8;"/><polygon fill="#181818" points="771.304,931.2146,773.3422,936.6114,779.1078,936.8057,777.0696,931.4089,771.304,931.2146" style="stroke:#181818;stroke-width:0.8;"/></g><!--reverse link User to SkillsAssessment--><g class="link" data-entity-1="ent0012" data-entity-2="ent0018" data-link-type="composition" data-source-line="106" id="lnk31"><path codeLine="106" d="M793.8172,890.9603 C879.8812,920.2163 978.52,953.7506 1054.232,979.4946" fill="none" id="User-backto-SkillsAssessment" style="stroke:#181818;stroke-width:0.8;"/><polygon fill="#181818" points="784.728,887.8706,788.2427,892.4452,793.8172,890.9603,790.3025,886.3858,784.728,887.8706" style="stroke:#181818;stroke-width:0.8;"/></g><!--reverse link User to Role--><g class="link" data-entity-1="ent0012" data-entity-2="ent0015" data-link-type="aggregation" data-source-line="107" id="lnk32"><path codeLine="107" d="M644,940.8146 C644,958.2386 644,965.7586 644,979.6706" fill="none" id="User-backto-Role" style="stroke:#181818;stroke-width:0.8;"/><polygon fill="none" points="644,931.2146,640.8,936.0146,644,940.8146,647.2,936.0146,644,931.2146" style="stroke:#181818;stroke-width:0.8;"/><text fill="#000000" font-family="sans-serif" font-size="10.4" lengthAdjust="spacing" textLength="6.5762" x="637.4007" y="947.5546">1</text><text fill="#000000" font-family="sans-serif" font-size="10.4" lengthAdjust="spacing" textLength="18.1695" x="624.9367" y="971.129">1..*</text></g><!--reverse link Role to Permission--><g class="link" data-entity-1="ent0015" data-entity-2="ent0016" data-link-type="aggregation" data-source-line="108" id="lnk33"><path codeLine="108" d="M644,1054.4706 C644,1069.9826 644,1078.7506 644,1093.2466" fill="none" id="Role-backto-Permission" style="stroke:#181818;stroke-width:0.8;"/><polygon fill="none" points="644,1044.8706,640.8,1049.6706,644,1054.4706,647.2,1049.6706,644,1044.8706" style="stroke:#181818;stroke-width:0.8;"/><text fill="#000000" font-family="sans-serif" font-size="10.4" lengthAdjust="spacing" textLength="6.5762" x="637.1042" y="1061.1125">1</text><text fill="#000000" font-family="sans-serif" font-size="10.4" lengthAdjust="spacing" textLength="5.0121" x="638.7269" y="1084.746">*</text></g><?plantuml-src lLR9Rjim4BthAmZt8ZTrblPc10RIE8S0IHF4JU-qDB49KwJAeTmwHVwzGygMgIME0XJLHTBCc_rn92ki1FOuE_toUNGvZI9S2PLpmpEMQQMJfT4PC6iA23GvJrPy0JEx8LC3YULg8KC0BdcgVmcrO4zSOgX994UyiDQ8UM7XEj5g9fw1dKRHrYaR5EAOnAWb3DY7gR_OduZHvOtPBLU4UqGmCyjjWO_NMxMxHWmoBkIOpIY4MWHodOFXLcZLqXrH3JyBG3lbbiV3G9uAp2NVt08YXOopyhvpq86yCaQRRjnBz18KIHLQewK4qw_8omeV5El3yhdqkBXM-73Cd73w_Iv0W-e5hcVAyroAn7UkNwepC6kHmF_8CyZYeh1BRSIpJxGh1O4x2AHnGMvAPvyOyI8JY9uPzzKpnPfhuY1NxLZR97hHJl4CEiJvKYluLcHpbqTBMpOWRQOGZYNL5F2LYRZykfAxShTtvdQ_VtahmL95B0KSink1zlo1dYU13Y4fZB2RIx8nN2KkUbCKmbT2Ihn0fFEKWRA4RaXQf8bfRcijqZRtEZG2hyewuc6xaYEsvBZdG_n-clXsr-QmvhA0ZltZaN5DEspx2qRHosk0VzEtcrJDwMlSg2hVpNZVYqb7ofNoiFEQKOiITIx_paMvo6bTavSRdN3f7ck3_S6bI6FoOuWb3U2XcJK9LWjD2BjN_RFmuR4sa6iKLfjDysWBPS4ySUg6EzuF5Qwsv9w4IhzkIZg5XvvYtkMkProUE_D9O8Dy3S5238-9pwtZUpiQJGvzeSQCt26RH0SmNIvsQ_jL-nt06NSk_35Bbf2iCE3f6suQpHpJlm3H4jQ09wunsCESZChbWoVRNTF7odr0VBJ2A8UF6fa4tf44tgT__pWQRJTvzHekwKhOtgnxLNEDUitWRC0qQGTdnySV1tubH7ulL0gIxazqz1S0?></g></svg>