<?plantuml 1.2026.2?><svg xmlns="http://www.w3.org/2000/svg" xmlns:xlink="http://www.w3.org/1999/xlink" contentStyleType="text/css" data-diagram-type="CLASS" height="1576px" preserveAspectRatio="none" style="width:1662px;height:1576px;background:#FFFFFF;" version="1.1" viewBox="0 0 1662 1576" width="1662px" zoomAndPan="magnify"><title>US032-CD</title><defs/><g><g class="title" data-source-line="1"><text fill="#000000" font-family="sans-serif" font-size="14" font-weight="bold" lengthAdjust="spacing" textLength="76.0293" x="785.9854" y="23.5352">US032-CD</text></g><!--cluster ui--><g class="cluster" data-qualified-name="ui" data-source-line="9" id="ent0004"><rect fill="none" height="231.95" rx="2.5" ry="2.5" style="stroke:#000000;stroke-width:1.5;" width="404" x="179" y="44.4883"/><text fill="#000000" font-family="sans-serif" font-size="14" font-weight="bold" lengthAdjust="spacing" textLength="13.7471" x="374.1265" y="60.0234">ui</text></g><!--cluster console--><g class="cluster" data-qualified-name="ui.console" data-source-line="8" id="ent0002"><rect fill="#DDDDDD" height="164.95" rx="2.5" ry="2.5" style="stroke:#000000;stroke-width:1.5;" width="356" x="203" y="87.4883"/><text fill="#000000" font-family="sans-serif" font-size="14" font-weight="bold" lengthAdjust="spacing" textLength="55.2002" x="353.3999" y="103.0234">console</text></g><!--cluster controller--><g class="cluster" data-qualified-name="controller" data-source-line="17" id="ent0005"><rect fill="#DDDDDD" height="131.98" rx="2.5" ry="2.5" style="stroke:#000000;stroke-width:1.5;" width="623" x="43" y="325.4383"/><text fill="#000000" font-family="sans-serif" font-size="14" font-weight="bold" lengthAdjust="spacing" textLength="70.2393" x="319.3804" y="340.9734">controller</text></g><!--cluster application--><g class="cluster" data-qualified-name="application" data-source-line="29" id="ent0008"><rect fill="#DDDDDD" height="327.44" rx="2.5" ry="2.5" style="stroke:#000000;stroke-width:1.5;" width="683" x="7" y="506.4183"/><text fill="#000000" font-family="sans-serif" font-size="14" font-weight="bold" lengthAdjust="spacing" textLength="79.9326" x="308.5337" y="521.9534">application</text></g><!--cluster domain--><g class="cluster" data-qualified-name="domain" data-source-line="49" id="ent0014"><rect fill="none" height="687.3" rx="2.5" ry="2.5" style="stroke:#000000;stroke-width:1.5;" width="1548" x="108" y="882.8583"/><text fill="#000000" font-family="sans-serif" font-size="14" font-weight="bold" lengthAdjust="spacing" textLength="53.7715" x="855.1143" y="898.3934">domain</text></g><!--cluster user--><g class="cluster" data-qualified-name="domain.user" data-source-line="48" id="ent0012"><rect fill="#DDDDDD" height="492.81" rx="2.5" ry="2.5" style="stroke:#000000;stroke-width:1.5;" width="1094" x="132" y="925.8583"/><text fill="#000000" font-family="sans-serif" font-size="14" font-weight="bold" lengthAdjust="spacing" textLength="31.6777" x="663.1611" y="941.3934">user</text></g><!--cluster auth--><g class="cluster" data-qualified-name="domain.auth" data-source-line="89" id="ent0019"><rect fill="#DDDDDD" height="275.95" rx="2.5" ry="2.5" style="stroke:#000000;stroke-width:1.5;" width="382" x="1250" y="1270.2083"/><text fill="#000000" font-family="sans-serif" font-size="14" font-weight="bold" lengthAdjust="spacing" textLength="32.293" x="1424.8535" y="1285.7434">auth</text></g><!--cluster repository--><g class="cluster" data-qualified-name="repository" data-source-line="101" id="ent0022"><rect fill="#DDDDDD" height="131.98" rx="2.5" ry="2.5" style="stroke:#000000;stroke-width:1.5;" width="344" x="714" y="701.8783"/><text fill="#000000" font-family="sans-serif" font-size="14" font-weight="bold" lengthAdjust="spacing" textLength="74.3955" x="848.8022" y="717.4134">repository</text></g><!--class EnableDisableUserUI--><g class="entity" data-qualified-name="ui.console.EnableDisableUserUI" data-source-line="9" id="ent0003"><rect fill="#F1F1F1" height="113.9531" rx="2.5" ry="2.5" style="stroke:#181818;stroke-width:0.5;" width="324.457" x="218.77" y="122.4883"/><ellipse cx="307.3364" cy="138.4883" fill="#C2C2C2" rx="11" ry="11" style="stroke:#181818;stroke-width:1;"/><path d="M310.3096,144.1313 Q309.7285,144.4302 309.0893,144.5796 Q308.4502,144.729 307.7446,144.729 Q305.2378,144.729 303.9179,143.0771 Q302.5981,141.4253 302.5981,138.3042 Q302.5981,135.1748 303.9179,133.5229 Q305.2378,131.8711 307.7446,131.8711 Q308.4502,131.8711 309.0976,132.0205 Q309.7451,132.1699 310.3096,132.4688 L310.3096,135.1914 Q309.6787,134.6104 309.0852,134.3406 Q308.4917,134.0708 307.8608,134.0708 Q306.5161,134.0708 305.8313,135.1375 Q305.1465,136.2041 305.1465,138.3042 Q305.1465,140.396 305.8313,141.4626 Q306.5161,142.5293 307.8608,142.5293 Q308.4917,142.5293 309.0852,142.2595 Q309.6787,141.9897 310.3096,141.4087 Z " fill="#000000"/><text fill="#000000" font-family="sans-serif" font-size="14" lengthAdjust="spacing" textLength="138.8242" x="327.8364" y="143.7793">EnableDisableUserUI</text><line style="stroke:#181818;stroke-width:0.5;" x1="219.77" x2="542.227" y1="154.4883" y2="154.4883"/><text fill="#000000" font-family="sans-serif" font-size="14" lengthAdjust="spacing" textLength="303.5566" x="224.77" y="172.0234">-enableUserController: EnableUserController</text><text fill="#000000" font-family="sans-serif" font-size="14" lengthAdjust="spacing" textLength="312.457" x="224.77" y="188.5117">-disableUserController: DisableUserController</text><text fill="#000000" font-family="sans-serif" font-size="14" lengthAdjust="spacing" textLength="123.252" x="224.77" y="205">-scanner: Scanner</text><line style="stroke:#181818;stroke-width:0.5;" x1="219.77" x2="542.227" y1="211.9531" y2="211.9531"/><text fill="#000000" font-family="sans-serif" font-size="14" lengthAdjust="spacing" textLength="80.9033" x="224.77" y="229.4883">+run(): void</text></g><!--class EnableUserController--><g class="entity" data-qualified-name="controller.EnableUserController" data-source-line="18" id="ent0006"><rect fill="#F1F1F1" height="80.9766" rx="2.5" ry="2.5" style="stroke:#181818;stroke-width:0.5;" width="273.8984" x="59.05" y="360.4383"/><ellipse cx="120.153" cy="376.4383" fill="#C2C2C2" rx="11" ry="11" style="stroke:#181818;stroke-width:1;"/><path d="M123.1262,382.0813 Q122.5451,382.3802 121.906,382.5296 Q121.2668,382.679 120.5612,382.679 Q118.0544,382.679 116.7346,381.0271 Q115.4147,379.3753 115.4147,376.2542 Q115.4147,373.1248 116.7346,371.4729 Q118.0544,369.8211 120.5612,369.8211 Q121.2668,369.8211 121.9143,369.9705 Q122.5617,370.1199 123.1262,370.4188 L123.1262,373.1414 Q122.4953,372.5604 121.9018,372.2906 Q121.3083,372.0208 120.6774,372.0208 Q119.3327,372.0208 118.6479,373.0875 Q117.9631,374.1541 117.9631,376.2542 Q117.9631,378.346 118.6479,379.4126 Q119.3327,380.4793 120.6774,380.4793 Q121.3083,380.4793 121.9018,380.2095 Q122.4953,379.9397 123.1262,379.3587 Z " fill="#000000"/><text fill="#000000" font-family="sans-serif" font-size="14" lengthAdjust="spacing" textLength="143.1924" x="140.653" y="381.7293">EnableUserController</text><line style="stroke:#181818;stroke-width:0.5;" x1="60.05" x2="331.9484" y1="392.4383" y2="392.4383"/><text fill="#000000" font-family="sans-serif" font-size="14" lengthAdjust="spacing" textLength="261.8984" x="65.05" y="409.9734">-enableUserService: EnableUserService</text><line style="stroke:#181818;stroke-width:0.5;" x1="60.05" x2="331.9484" y1="416.9266" y2="416.9266"/><text fill="#000000" font-family="sans-serif" font-size="14" lengthAdjust="spacing" textLength="220.2266" x="65.05" y="434.4617">+enableUser(email: String): User</text></g><!--class DisableUserController--><g class="entity" data-qualified-name="controller.DisableUserController" data-source-line="23" id="ent0007"><rect fill="#F1F1F1" height="80.9766" rx="2.5" ry="2.5" style="stroke:#181818;stroke-width:0.5;" width="282.7988" x="367.6" y="360.4383"/><ellipse cx="430.4564" cy="376.4383" fill="#C2C2C2" rx="11" ry="11" style="stroke:#181818;stroke-width:1;"/><path d="M433.4296,382.0813 Q432.8485,382.3802 432.2094,382.5296 Q431.5702,382.679 430.8646,382.679 Q428.3578,382.679 427.038,381.0271 Q425.7182,379.3753 425.7182,376.2542 Q425.7182,373.1248 427.038,371.4729 Q428.3578,369.8211 430.8646,369.8211 Q431.5702,369.8211 432.2177,369.9705 Q432.8651,370.1199 433.4296,370.4188 L433.4296,373.1414 Q432.7987,372.5604 432.2052,372.2906 Q431.6117,372.0208 430.9809,372.0208 Q429.6361,372.0208 428.9513,373.0875 Q428.2665,374.1541 428.2665,376.2542 Q428.2665,378.346 428.9513,379.4126 Q429.6361,380.4793 430.9809,380.4793 Q431.6117,380.4793 432.2052,380.2095 Q432.7987,379.9397 433.4296,379.3587 Z " fill="#000000"/><text fill="#000000" font-family="sans-serif" font-size="14" lengthAdjust="spacing" textLength="148.5859" x="450.9564" y="381.7293">DisableUserController</text><line style="stroke:#181818;stroke-width:0.5;" x1="368.6" x2="649.3988" y1="392.4383" y2="392.4383"/><text fill="#000000" font-family="sans-serif" font-size="14" lengthAdjust="spacing" textLength="270.7988" x="373.6" y="409.9734">-disableUserService: DisableUserService</text><line style="stroke:#181818;stroke-width:0.5;" x1="368.6" x2="649.3988" y1="416.9266" y2="416.9266"/><text fill="#000000" font-family="sans-serif" font-size="14" lengthAdjust="spacing" textLength="223.7334" x="373.6" y="434.4617">+disableUser(email: String): User</text></g><!--class EnableUserService--><g class="entity" data-qualified-name="application.EnableUserService" data-source-line="30" id="ent0009"><rect fill="#F1F1F1" height="97.4648" rx="2.5" ry="2.5" style="stroke:#181818;stroke-width:0.5;" width="307.6475" x="23.18" y="541.4183"/><ellipse cx="111.5721" cy="557.4183" fill="#C2C2C2" rx="11" ry="11" style="stroke:#181818;stroke-width:1;"/><path d="M114.5452,563.0613 Q113.9642,563.3602 113.325,563.5096 Q112.6859,563.659 111.9803,563.659 Q109.4735,563.659 108.1536,562.0071 Q106.8338,560.3553 106.8338,557.2342 Q106.8338,554.1048 108.1536,552.4529 Q109.4735,550.8011 111.9803,550.8011 Q112.6859,550.8011 113.3333,550.9505 Q113.9808,551.0999 114.5452,551.3988 L114.5452,554.1214 Q113.9144,553.5404 113.3209,553.2706 Q112.7274,553.0008 112.0965,553.0008 Q110.7518,553.0008 110.067,554.0675 Q109.3821,555.1341 109.3821,557.2342 Q109.3821,559.326 110.067,560.3926 Q110.7518,561.4593 112.0965,561.4593 Q112.7274,561.4593 113.3209,561.1895 Q113.9144,560.9197 114.5452,560.3387 Z " fill="#000000"/><text fill="#000000" font-family="sans-serif" font-size="14" lengthAdjust="spacing" textLength="122.3633" x="132.0721" y="562.7093">EnableUserService</text><line style="stroke:#181818;stroke-width:0.5;" x1="24.18" x2="329.8275" y1="573.4183" y2="573.4183"/><text fill="#000000" font-family="sans-serif" font-size="14" lengthAdjust="spacing" textLength="220.9307" x="29.18" y="590.9534">-userRepository: UserRepository</text><text fill="#000000" font-family="sans-serif" font-size="14" lengthAdjust="spacing" textLength="295.6475" x="29.18" y="607.4417">-authorizationService: AuthorizationService</text><line style="stroke:#181818;stroke-width:0.5;" x1="24.18" x2="329.8275" y1="614.3948" y2="614.3948"/><text fill="#000000" font-family="sans-serif" font-size="14" lengthAdjust="spacing" textLength="257.6465" x="29.18" y="631.93">+enableUser(emailValue: String): User</text></g><!--class DisableUserService--><g class="entity" data-qualified-name="application.DisableUserService" data-source-line="36" id="ent0010"><rect fill="#F1F1F1" height="97.4648" rx="2.5" ry="2.5" style="stroke:#181818;stroke-width:0.5;" width="307.6475" x="366.18" y="541.4183"/><ellipse cx="451.8753" cy="557.4183" fill="#C2C2C2" rx="11" ry="11" style="stroke:#181818;stroke-width:1;"/><path d="M454.8485,563.0613 Q454.2674,563.3602 453.6282,563.5096 Q452.9891,563.659 452.2835,563.659 Q449.7767,563.659 448.4569,562.0071 Q447.137,560.3553 447.137,557.2342 Q447.137,554.1048 448.4569,552.4529 Q449.7767,550.8011 452.2835,550.8011 Q452.9891,550.8011 453.6365,550.9505 Q454.284,551.0999 454.8485,551.3988 L454.8485,554.1214 Q454.2176,553.5404 453.6241,553.2706 Q453.0306,553.0008 452.3997,553.0008 Q451.055,553.0008 450.3702,554.0675 Q449.6854,555.1341 449.6854,557.2342 Q449.6854,559.326 450.3702,560.3926 Q451.055,561.4593 452.3997,561.4593 Q453.0306,561.4593 453.6241,561.1895 Q454.2176,560.9197 454.8485,560.3387 Z " fill="#000000"/><text fill="#000000" font-family="sans-serif" font-size="14" lengthAdjust="spacing" textLength="127.7568" x="472.3753" y="562.7093">DisableUserService</text><line style="stroke:#181818;stroke-width:0.5;" x1="367.18" x2="672.8275" y1="573.4183" y2="573.4183"/><text fill="#000000" font-family="sans-serif" font-size="14" lengthAdjust="spacing" textLength="220.9307" x="372.18" y="590.9534">-userRepository: UserRepository</text><text fill="#000000" font-family="sans-serif" font-size="14" lengthAdjust="spacing" textLength="295.6475" x="372.18" y="607.4417">-authorizationService: AuthorizationService</text><line style="stroke:#181818;stroke-width:0.5;" x1="367.18" x2="672.8275" y1="614.3948" y2="614.3948"/><text fill="#000000" font-family="sans-serif" font-size="14" lengthAdjust="spacing" textLength="261.1533" x="372.18" y="631.93">+disableUser(emailValue: String): User</text></g><!--class AuthorizationService--><g class="entity" data-qualified-name="application.AuthorizationService" data-source-line="42" id="ent0011"><rect fill="#F1F1F1" height="80.9766" rx="2.5" ry="2.5" style="stroke:#181818;stroke-width:0.5;" width="355.2324" x="74.38" y="736.8783"/><ellipse cx="177.5924" cy="752.8783" fill="#C2C2C2" rx="11" ry="11" style="stroke:#181818;stroke-width:1;"/><path d="M180.5655,758.5213 Q179.9845,758.8202 179.3453,758.9696 Q178.7062,759.119 178.0006,759.119 Q175.4938,759.119 174.1739,757.4671 Q172.8541,755.8153 172.8541,752.6942 Q172.8541,749.5648 174.1739,747.9129 Q175.4938,746.2611 178.0006,746.2611 Q178.7062,746.2611 179.3536,746.4105 Q180.0011,746.5599 180.5655,746.8588 L180.5655,749.5814 Q179.9347,749.0004 179.3412,748.7306 Q178.7477,748.4608 178.1168,748.4608 Q176.7721,748.4608 176.0873,749.5275 Q175.4025,750.5941 175.4025,752.6942 Q175.4025,754.786 176.0873,755.8526 Q176.7721,756.9193 178.1168,756.9193 Q178.7477,756.9193 179.3412,756.6495 Q179.9347,756.3797 180.5655,755.7987 Z " fill="#000000"/><text fill="#000000" font-family="sans-serif" font-size="14" lengthAdjust="spacing" textLength="140.3076" x="198.0924" y="758.1693">AuthorizationService</text><line style="stroke:#181818;stroke-width:0.5;" x1="75.38" x2="428.6124" y1="768.8783" y2="768.8783"/><line style="stroke:#181818;stroke-width:0.5;" x1="75.38" x2="428.6124" y1="776.8783" y2="776.8783"/><text fill="#000000" font-family="sans-serif" font-size="14" lengthAdjust="spacing" textLength="332.6777" x="80.38" y="794.4134">+isAuthorized(permissionName: String): boolean</text><text fill="#000000" font-family="sans-serif" font-size="14" lengthAdjust="spacing" textLength="343.2324" x="80.38" y="810.9017">+requirePermission(permissionName: String): void</text></g><!--class User--><g class="entity" data-qualified-name="domain.user.User" data-source-line="49" id="ent0013"><rect fill="#F1F1F1" height="262.3477" rx="2.5" ry="2.5" style="stroke:#181818;stroke-width:0.5;" width="350.8369" x="710.58" y="960.8583"/><ellipse cx="866.5658" cy="976.8583" fill="#C2C2C2" rx="11" ry="11" style="stroke:#181818;stroke-width:1;"/><path d="M869.539,982.5013 Q868.9579,982.8002 868.3188,982.9496 Q867.6796,983.099 866.974,983.099 Q864.4672,983.099 863.1474,981.4471 Q861.8276,979.7953 861.8276,976.6742 Q861.8276,973.5448 863.1474,971.8929 Q864.4672,970.2411 866.974,970.2411 Q867.6796,970.2411 868.3271,970.3905 Q868.9745,970.5399 869.539,970.8388 L869.539,973.5614 Q868.9081,972.9804 868.3146,972.7106 Q867.7211,972.4408 867.0903,972.4408 Q865.7455,972.4408 865.0607,973.5075 Q864.3759,974.5741 864.3759,976.6742 Q864.3759,978.766 865.0607,979.8326 Q865.7455,980.8993 867.0903,980.8993 Q867.7211,980.8993 868.3146,980.6295 Q868.9081,980.3597 869.539,979.7787 Z " fill="#000000"/><text fill="#000000" font-family="sans-serif" font-size="14" lengthAdjust="spacing" textLength="30.3652" x="887.0658" y="982.1493">User</text><line style="stroke:#181818;stroke-width:0.5;" x1="711.58" x2="1060.4169" y1="992.8583" y2="992.8583"/><text fill="#000000" font-family="sans-serif" font-size="14" lengthAdjust="spacing" textLength="90.1387" x="716.58" y="1010.3934">-email: Email</text><text fill="#000000" font-family="sans-serif" font-size="14" lengthAdjust="spacing" textLength="94.2197" x="716.58" y="1026.8817">-name: String</text><text fill="#000000" font-family="sans-serif" font-size="14" lengthAdjust="spacing" textLength="209.9453" x="716.58" y="1043.37">-phoneNumber: PhoneNumber</text><text fill="#000000" font-family="sans-serif" font-size="14" lengthAdjust="spacing" textLength="124.9268" x="716.58" y="1059.8583">-enabled: boolean</text><text fill="#000000" font-family="sans-serif" font-size="14" lengthAdjust="spacing" textLength="122.4043" x="716.58" y="1076.3466">-roles: Set&lt;Role&gt;</text><text fill="#000000" font-family="sans-serif" font-size="14" lengthAdjust="spacing" textLength="256.375" x="716.58" y="1092.8348">-securityClearance: SecurityClearance</text><text fill="#000000" font-family="sans-serif" font-size="14" lengthAdjust="spacing" textLength="248.1582" x="716.58" y="1109.3231">-skillsAssessment: SkillsAssessment</text><line style="stroke:#181818;stroke-width:0.5;" x1="711.58" x2="1060.4169" y1="1116.2763" y2="1116.2763"/><text fill="#000000" font-family="sans-serif" font-size="14" lengthAdjust="spacing" textLength="102.6758" x="716.58" y="1133.8114">+enable(): void</text><text fill="#000000" font-family="sans-serif" font-size="14" lengthAdjust="spacing" textLength="106.1826" x="716.58" y="1150.2997">+disable(): void</text><text fill="#000000" font-family="sans-serif" font-size="14" lengthAdjust="spacing" textLength="148.0322" x="716.58" y="1166.788">+isEnabled(): boolean</text><text fill="#000000" font-family="sans-serif" font-size="14" lengthAdjust="spacing" textLength="153.4258" x="716.58" y="1183.2763">+isDisabled(): boolean</text><text fill="#000000" font-family="sans-serif" font-size="14" lengthAdjust="spacing" textLength="110.2295" x="716.58" y="1199.7645">+status(): String</text><text fill="#000000" font-family="sans-serif" font-size="14" lengthAdjust="spacing" textLength="338.8369" x="716.58" y="1216.2528">+hasPermission(permission: Permission): boolean</text></g><!--class Email--><g class="entity" data-qualified-name="domain.user.Email" data-source-line="65" id="ent0015"><rect fill="#F1F1F1" height="97.4648" rx="2.5" ry="2.5" style="stroke:#181818;stroke-width:0.5;" width="153.0596" x="809.47" y="1305.2083"/><ellipse cx="863.5081" cy="1321.2083" fill="#C2C2C2" rx="11" ry="11" style="stroke:#181818;stroke-width:1;"/><path d="M866.4812,1326.8513 Q865.9002,1327.1502 865.261,1327.2996 Q864.6219,1327.449 863.9163,1327.449 Q861.4095,1327.449 860.0896,1325.7971 Q858.7698,1324.1453 858.7698,1321.0242 Q858.7698,1317.8948 860.0896,1316.2429 Q861.4095,1314.5911 863.9163,1314.5911 Q864.6219,1314.5911 865.2693,1314.7405 Q865.9168,1314.8899 866.4812,1315.1888 L866.4812,1317.9114 Q865.8504,1317.3304 865.2569,1317.0606 Q864.6634,1316.7908 864.0325,1316.7908 Q862.6878,1316.7908 862.003,1317.8575 Q861.3181,1318.9241 861.3181,1321.0242 Q861.3181,1323.116 862.003,1324.1826 Q862.6878,1325.2493 864.0325,1325.2493 Q864.6634,1325.2493 865.2569,1324.9795 Q865.8504,1324.7097 866.4812,1324.1287 Z " fill="#000000"/><text fill="#000000" font-family="sans-serif" font-size="14" lengthAdjust="spacing" textLength="36.4834" x="884.0081" y="1326.4993">Email</text><line style="stroke:#181818;stroke-width:0.5;" x1="810.47" x2="961.5296" y1="1337.2083" y2="1337.2083"/><text fill="#000000" font-family="sans-serif" font-size="14" lengthAdjust="spacing" textLength="92.4424" x="815.47" y="1354.7434">-value: String</text><line style="stroke:#181818;stroke-width:0.5;" x1="810.47" x2="961.5296" y1="1361.6966" y2="1361.6966"/><text fill="#000000" font-family="sans-serif" font-size="14" lengthAdjust="spacing" textLength="141.0596" x="815.47" y="1379.2317">+Email(value: String)</text><text fill="#000000" font-family="sans-serif" font-size="14" lengthAdjust="spacing" textLength="104.5762" x="815.47" y="1395.72">+value(): String</text></g><!--class PhoneNumber--><g class="entity" data-qualified-name="domain.user.PhoneNumber" data-source-line="71" id="ent0016"><rect fill="#F1F1F1" height="97.4648" rx="2.5" ry="2.5" style="stroke:#181818;stroke-width:0.5;" width="212.5322" x="997.73" y="1305.2083"/><ellipse cx="1051.7681" cy="1321.2083" fill="#C2C2C2" rx="11" ry="11" style="stroke:#181818;stroke-width:1;"/><path d="M1054.7412,1326.8513 Q1054.1602,1327.1502 1053.521,1327.2996 Q1052.8819,1327.449 1052.1763,1327.449 Q1049.6695,1327.449 1048.3496,1325.7971 Q1047.0298,1324.1453 1047.0298,1321.0242 Q1047.0298,1317.8948 1048.3496,1316.2429 Q1049.6695,1314.5911 1052.1763,1314.5911 Q1052.8819,1314.5911 1053.5293,1314.7405 Q1054.1768,1314.8899 1054.7412,1315.1888 L1054.7412,1317.9114 Q1054.1104,1317.3304 1053.5169,1317.0606 Q1052.9234,1316.7908 1052.2925,1316.7908 Q1050.9478,1316.7908 1050.263,1317.8575 Q1049.5781,1318.9241 1049.5781,1321.0242 Q1049.5781,1323.116 1050.263,1324.1826 Q1050.9478,1325.2493 1052.2925,1325.2493 Q1052.9234,1325.2493 1053.5169,1324.9795 Q1054.1104,1324.7097 1054.7412,1324.1287 Z " fill="#000000"/><text fill="#000000" font-family="sans-serif" font-size="14" lengthAdjust="spacing" textLength="95.9561" x="1072.2681" y="1326.4993">PhoneNumber</text><line style="stroke:#181818;stroke-width:0.5;" x1="998.73" x2="1209.2622" y1="1337.2083" y2="1337.2083"/><text fill="#000000" font-family="sans-serif" font-size="14" lengthAdjust="spacing" textLength="92.4424" x="1003.73" y="1354.7434">-value: String</text><line style="stroke:#181818;stroke-width:0.5;" x1="998.73" x2="1209.2622" y1="1361.6966" y2="1361.6966"/><text fill="#000000" font-family="sans-serif" font-size="14" lengthAdjust="spacing" textLength="200.5322" x="1003.73" y="1379.2317">+PhoneNumber(value: String)</text><text fill="#000000" font-family="sans-serif" font-size="14" lengthAdjust="spacing" textLength="104.5762" x="1003.73" y="1395.72">+value(): String</text></g><!--class SecurityClearance--><g class="entity" data-qualified-name="domain.user.SecurityClearance" data-source-line="77" id="ent0017"><rect fill="#F1F1F1" height="80.9766" rx="2.5" ry="2.5" style="stroke:#181818;stroke-width:0.5;" width="295.7666" x="148.12" y="1313.4483"/><ellipse cx="231.7987" cy="1329.4483" fill="#C2C2C2" rx="11" ry="11" style="stroke:#181818;stroke-width:1;"/><path d="M234.7719,1335.0913 Q234.1908,1335.3902 233.5516,1335.5396 Q232.9125,1335.689 232.2069,1335.689 Q229.7001,1335.689 228.3803,1334.0371 Q227.0604,1332.3853 227.0604,1329.2642 Q227.0604,1326.1348 228.3803,1324.4829 Q229.7001,1322.8311 232.2069,1322.8311 Q232.9125,1322.8311 233.5599,1322.9805 Q234.2074,1323.1299 234.7719,1323.4288 L234.7719,1326.1514 Q234.141,1325.5704 233.5475,1325.3006 Q232.954,1325.0308 232.3231,1325.0308 Q230.9784,1325.0308 230.2936,1326.0975 Q229.6088,1327.1641 229.6088,1329.2642 Q229.6088,1331.356 230.2936,1332.4226 Q230.9784,1333.4893 232.3231,1333.4893 Q232.954,1333.4893 233.5475,1333.2195 Q234.141,1332.9497 234.7719,1332.3687 Z " fill="#000000"/><text fill="#000000" font-family="sans-serif" font-size="14" lengthAdjust="spacing" textLength="119.9092" x="252.2987" y="1334.7393">SecurityClearance</text><line style="stroke:#181818;stroke-width:0.5;" x1="149.12" x2="442.8866" y1="1345.4483" y2="1345.4483"/><text fill="#000000" font-family="sans-serif" font-size="14" lengthAdjust="spacing" textLength="183.7568" x="154.12" y="1362.9834">-expirationDate: LocalDate</text><line style="stroke:#181818;stroke-width:0.5;" x1="149.12" x2="442.8866" y1="1369.9366" y2="1369.9366"/><text fill="#000000" font-family="sans-serif" font-size="14" lengthAdjust="spacing" textLength="283.7666" x="154.12" y="1387.4717">+isValid(currentDate: LocalDate): boolean</text></g><!--class SkillsAssessment--><g class="entity" data-qualified-name="domain.user.SkillsAssessment" data-source-line="82" id="ent0018"><rect fill="#F1F1F1" height="97.4648" rx="2.5" ry="2.5" style="stroke:#181818;stroke-width:0.5;" width="295.7666" x="479.12" y="1305.2083"/><ellipse cx="564.8529" cy="1321.2083" fill="#C2C2C2" rx="11" ry="11" style="stroke:#181818;stroke-width:1;"/><path d="M567.8261,1326.8513 Q567.245,1327.1502 566.6058,1327.2996 Q565.9667,1327.449 565.2611,1327.449 Q562.7543,1327.449 561.4345,1325.7971 Q560.1146,1324.1453 560.1146,1321.0242 Q560.1146,1317.8948 561.4345,1316.2429 Q562.7543,1314.5911 565.2611,1314.5911 Q565.9667,1314.5911 566.6141,1314.7405 Q567.2616,1314.8899 567.8261,1315.1888 L567.8261,1317.9114 Q567.1952,1317.3304 566.6017,1317.0606 Q566.0082,1316.7908 565.3773,1316.7908 Q564.0326,1316.7908 563.3478,1317.8575 Q562.663,1318.9241 562.663,1321.0242 Q562.663,1323.116 563.3478,1324.1826 Q564.0326,1325.2493 565.3773,1325.2493 Q566.0082,1325.2493 566.6017,1324.9795 Q567.1952,1324.7097 567.8261,1324.1287 Z " fill="#000000"/><text fill="#000000" font-family="sans-serif" font-size="14" lengthAdjust="spacing" textLength="115.8008" x="585.3529" y="1326.4993">SkillsAssessment</text><line style="stroke:#181818;stroke-width:0.5;" x1="480.12" x2="773.8866" y1="1337.2083" y2="1337.2083"/><text fill="#000000" font-family="sans-serif" font-size="14" lengthAdjust="spacing" textLength="193.3545" x="485.12" y="1354.7434">-assessmentDate: LocalDate</text><text fill="#000000" font-family="sans-serif" font-size="14" lengthAdjust="spacing" textLength="189.2666" x="485.12" y="1371.2317">-validityPeriodInMonths: int</text><line style="stroke:#181818;stroke-width:0.5;" x1="480.12" x2="773.8866" y1="1378.1848" y2="1378.1848"/><text fill="#000000" font-family="sans-serif" font-size="14" lengthAdjust="spacing" textLength="283.7666" x="485.12" y="1395.72">+isValid(currentDate: LocalDate): boolean</text></g><!--class Role--><g class="entity" data-qualified-name="domain.auth.Role" data-source-line="90" id="ent0020"><rect fill="#F1F1F1" height="97.4648" rx="2.5" ry="2.5" style="stroke:#181818;stroke-width:0.5;" width="350.8369" x="1265.58" y="1305.2083"/><ellipse cx="1422.099" cy="1321.2083" fill="#C2C2C2" rx="11" ry="11" style="stroke:#181818;stroke-width:1;"/><path d="M1425.0722,1326.8513 Q1424.4911,1327.1502 1423.852,1327.2996 Q1423.2128,1327.449 1422.5072,1327.449 Q1420.0004,1327.449 1418.6806,1325.7971 Q1417.3608,1324.1453 1417.3608,1321.0242 Q1417.3608,1317.8948 1418.6806,1316.2429 Q1420.0004,1314.5911 1422.5072,1314.5911 Q1423.2128,1314.5911 1423.8603,1314.7405 Q1424.5077,1314.8899 1425.0722,1315.1888 L1425.0722,1317.9114 Q1424.4413,1317.3304 1423.8478,1317.0606 Q1423.2543,1316.7908 1422.6235,1316.7908 Q1421.2787,1316.7908 1420.5939,1317.8575 Q1419.9091,1318.9241 1419.9091,1321.0242 Q1419.9091,1323.116 1420.5939,1324.1826 Q1421.2787,1325.2493 1422.6235,1325.2493 Q1423.2543,1325.2493 1423.8478,1324.9795 Q1424.4413,1324.7097 1425.0722,1324.1287 Z " fill="#000000"/><text fill="#000000" font-family="sans-serif" font-size="14" lengthAdjust="spacing" textLength="29.2988" x="1442.599" y="1326.4993">Role</text><line style="stroke:#181818;stroke-width:0.5;" x1="1266.58" x2="1615.4169" y1="1337.2083" y2="1337.2083"/><text fill="#000000" font-family="sans-serif" font-size="14" lengthAdjust="spacing" textLength="94.2197" x="1271.58" y="1354.7434">-name: String</text><text fill="#000000" font-family="sans-serif" font-size="14" lengthAdjust="spacing" textLength="215.9883" x="1271.58" y="1371.2317">-permissions: Set&lt;Permission&gt;</text><line style="stroke:#181818;stroke-width:0.5;" x1="1266.58" x2="1615.4169" y1="1378.1848" y2="1378.1848"/><text fill="#000000" font-family="sans-serif" font-size="14" lengthAdjust="spacing" textLength="338.8369" x="1271.58" y="1395.72">+hasPermission(permission: Permission): boolean</text></g><!--class Permission--><g class="entity" data-qualified-name="domain.auth.Permission" data-source-line="96" id="ent0021"><rect fill="#F1F1F1" height="64.4883" rx="2.5" ry="2.5" style="stroke:#181818;stroke-width:0.5;" width="106.2197" x="1387.89" y="1465.6683"/><ellipse cx="1402.9924" cy="1481.6683" fill="#C2C2C2" rx="11" ry="11" style="stroke:#181818;stroke-width:1;"/><path d="M1405.9655,1487.3113 Q1405.3845,1487.6102 1404.7453,1487.7596 Q1404.1062,1487.909 1403.4006,1487.909 Q1400.8938,1487.909 1399.5739,1486.2571 Q1398.2541,1484.6053 1398.2541,1481.4842 Q1398.2541,1478.3548 1399.5739,1476.7029 Q1400.8938,1475.0511 1403.4006,1475.0511 Q1404.1062,1475.0511 1404.7536,1475.2005 Q1405.4011,1475.3499 1405.9655,1475.6488 L1405.9655,1478.3714 Q1405.3347,1477.7904 1404.7412,1477.5206 Q1404.1477,1477.2508 1403.5168,1477.2508 Q1402.1721,1477.2508 1401.4873,1478.3175 Q1400.8025,1479.3841 1400.8025,1481.4842 Q1400.8025,1483.576 1401.4873,1484.6426 Q1402.1721,1485.7093 1403.5168,1485.7093 Q1404.1477,1485.7093 1404.7412,1485.4395 Q1405.3347,1485.1697 1405.9655,1484.5887 Z " fill="#000000"/><text fill="#000000" font-family="sans-serif" font-size="14" lengthAdjust="spacing" textLength="73.9922" x="1417.0151" y="1486.9593">Permission</text><line style="stroke:#181818;stroke-width:0.5;" x1="1388.89" x2="1493.1097" y1="1497.6683" y2="1497.6683"/><text fill="#000000" font-family="sans-serif" font-size="14" lengthAdjust="spacing" textLength="94.2197" x="1393.89" y="1515.2034">-name: String</text><line style="stroke:#181818;stroke-width:0.5;" x1="1388.89" x2="1493.1097" y1="1522.1566" y2="1522.1566"/></g><!--class UserRepository--><g class="entity" data-qualified-name="repository.UserRepository" data-source-line="102" id="ent0023"><rect fill="#F1F1F1" height="80.9766" rx="2.5" ry="2.5" style="stroke:#181818;stroke-width:0.5;" width="312.3369" x="729.83" y="736.8783"/><ellipse cx="830.5029" cy="752.8783" fill="#B1B1B1" rx="11" ry="11" style="stroke:#181818;stroke-width:1;"/><path d="M826.4306,748.6434 L826.4306,746.4852 L833.81,746.4852 L833.81,748.6434 L831.3446,748.6434 L831.3446,756.7201 L833.81,756.7201 L833.81,758.8783 L826.4306,758.8783 L826.4306,756.7201 L828.8959,756.7201 L828.8959,748.6434 Z " fill="#000000"/><text fill="#000000" font-family="sans-serif" font-size="14" font-style="italic" lengthAdjust="spacing" textLength="102.4912" x="851.0029" y="758.1693">UserRepository</text><line style="stroke:#181818;stroke-width:0.5;" x1="730.83" x2="1041.1669" y1="768.8783" y2="768.8783"/><line style="stroke:#181818;stroke-width:0.5;" x1="730.83" x2="1041.1669" y1="776.8783" y2="776.8783"/><text fill="#000000" font-family="sans-serif" font-size="14" lengthAdjust="spacing" textLength="300.3369" x="735.83" y="794.4134">+findByEmail(email: Email): Optional&lt;User&gt;</text><text fill="#000000" font-family="sans-serif" font-size="14" lengthAdjust="spacing" textLength="157.9512" x="735.83" y="810.9017">+save(user: User): User</text></g><!--link EnableDisableUserUI to EnableUserController--><g class="link" data-entity-1="ent0003" data-entity-2="ent0006" data-link-type="dependency" data-source-line="108" id="lnk24"><path codeLine="108" d="M333.6,236.6983 C301.05,275.3083 262.5177,321.0213 233.4277,355.5213" fill="none" id="EnableDisableUserUI-to-EnableUserController" style="stroke:#181818;stroke-width:1;"/><polygon fill="#181818" points="229.56,360.1083,238.4196,355.8062,232.7831,356.2858,232.3036,350.6493,229.56,360.1083" style="stroke:#181818;stroke-width:1;"/><polygon fill="#000000" points="284.7272,304.9164,292.8043,299.8951,288.3103,296.1066,284.7272,304.9164" style="stroke:#000000;stroke-width:1;"/><text fill="#000000" font-family="sans-serif" font-size="13" lengthAdjust="spacing" textLength="28.5645" x="296.95" y="306.0066">uses</text></g><!--link EnableDisableUserUI to DisableUserController--><g class="link" data-entity-1="ent0003" data-entity-2="ent0007" data-link-type="dependency" data-source-line="109" id="lnk25"><path codeLine="109" d="M413.8,236.6983 C436.31,275.3083 462.6373,320.4253 482.7573,354.9253" fill="none" id="EnableDisableUserUI-to-DisableUserController" style="stroke:#181818;stroke-width:1;"/><polygon fill="#181818" points="485.78,360.1083,484.7013,350.3187,483.2611,355.7891,477.7907,354.3489,485.78,360.1083" style="stroke:#181818;stroke-width:1;"/><polygon fill="#000000" points="460.1791,305.4126,458.1606,296.1187,453.0833,299.0801,460.1791,305.4126" style="stroke:#000000;stroke-width:1;"/><text fill="#000000" font-family="sans-serif" font-size="13" lengthAdjust="spacing" textLength="28.5645" x="466.66" y="306.0066">uses</text></g><!--link EnableUserController to EnableUserService--><g class="link" data-entity-1="ent0006" data-entity-2="ent0009" data-link-type="dependency" data-source-line="110" id="lnk26"><path codeLine="110" d="M191.97,441.6283 C189.02,470.7183 185.6056,504.3789 182.4756,535.2289" fill="none" id="EnableUserController-to-EnableUserService" style="stroke:#181818;stroke-width:1;"/><polygon fill="#181818" points="181.87,541.1983,186.758,532.648,182.3747,536.2238,178.7989,531.8405,181.87,541.1983" style="stroke:#181818;stroke-width:1;"/><polygon fill="#000000" points="192.6954,487.048,196.5321,478.3457,190.6843,477.7525,192.6954,487.048" style="stroke:#000000;stroke-width:1;"/><text fill="#000000" font-family="sans-serif" font-size="13" lengthAdjust="spacing" textLength="28.5645" x="202.2" y="486.9866">uses</text></g><!--link DisableUserController to DisableUserService--><g class="link" data-entity-1="ent0007" data-entity-2="ent0010" data-link-type="dependency" data-source-line="111" id="lnk27"><path codeLine="111" d="M511.33,441.6283 C513.04,470.7183 515.0186,504.3586 516.8286,535.2086" fill="none" id="DisableUserController-to-DisableUserService" style="stroke:#181818;stroke-width:1;"/><polygon fill="#181818" points="517.18,541.1983,520.646,531.9795,516.8871,536.2069,512.6597,532.448,517.18,541.1983" style="stroke:#181818;stroke-width:1;"/><polygon fill="#000000" points="519.4633,487.0649,521.8666,477.863,515.9989,478.2078,519.4633,487.0649" style="stroke:#000000;stroke-width:1;"/><text fill="#000000" font-family="sans-serif" font-size="13" lengthAdjust="spacing" textLength="28.5645" x="528.17" y="486.9866">uses</text></g><!--link EnableUserService to AuthorizationService--><g class="link" data-entity-1="ent0009" data-entity-2="ent0011" data-link-type="dependency" data-source-line="112" id="lnk28"><path codeLine="112" d="M196.51,639.3283 C208.75,669.5583 222.0874,702.4972 233.6274,730.9872" fill="none" id="EnableUserService-to-AuthorizationService" style="stroke:#181818;stroke-width:1;"/><polygon fill="#181818" points="235.88,736.5483,236.2086,726.7049,234.0029,731.914,228.7938,729.7083,235.88,736.5483" style="stroke:#181818;stroke-width:1;"/><polygon fill="#000000" points="221.3767,682.168,220.7057,672.6811,215.2577,674.8873,221.3767,682.168" style="stroke:#000000;stroke-width:1;"/><text fill="#000000" font-family="sans-serif" font-size="13" lengthAdjust="spacing" textLength="116.6699" x="228.5" y="682.4466">checks permission</text></g><!--link DisableUserService to AuthorizationService--><g class="link" data-entity-1="ent0010" data-entity-2="ent0011" data-link-type="dependency" data-source-line="113" id="lnk29"><path codeLine="113" d="M450.29,639.3283 C406.55,669.5583 355.7762,704.6474 314.5462,733.1374" fill="none" id="DisableUserService-to-AuthorizationService" style="stroke:#181818;stroke-width:1;"/><polygon fill="#181818" points="309.61,736.5483,319.2882,734.7227,313.7235,733.7059,314.7403,728.1412,309.61,736.5483" style="stroke:#181818;stroke-width:1;"/><polygon fill="#000000" points="402.9367,680.3762,412.0486,677.6516,408.7069,672.8161,402.9367,680.3762" style="stroke:#000000;stroke-width:1;"/><text fill="#000000" font-family="sans-serif" font-size="13" lengthAdjust="spacing" textLength="116.6699" x="416.05" y="682.4466">checks permission</text></g><!--link EnableUserService to UserRepository--><g class="link" data-entity-1="ent0009" data-entity-2="ent0023" data-link-type="dependency" data-source-line="114" id="lnk30"><path codeLine="114" d="M330.97,635.1583 C337.04,636.4883 343.07,637.7283 349,638.8783 C466.67,661.6483 500.05,642.6383 617,668.8783 C650.46,676.3883 657.95,681.6683 690,693.8783 C724.5,707.0283 756.4288,720.1396 789.2688,734.1096" fill="none" id="EnableUserService-to-UserRepository" style="stroke:#181818;stroke-width:1;"/><polygon fill="#181818" points="794.79,736.4583,788.074,729.2544,790.189,734.501,784.9424,736.616,794.79,736.4583" style="stroke:#181818;stroke-width:1;"/><polygon fill="#000000" points="678.9874,678.5888,670.7663,673.8071,669.5258,679.5526,678.9874,678.5888" style="stroke:#000000;stroke-width:1;"/><text fill="#000000" font-family="sans-serif" font-size="13" lengthAdjust="spacing" textLength="95.564" x="683.1" y="682.4466">retrieves/saves</text></g><!--link DisableUserService to UserRepository--><g class="link" data-entity-1="ent0010" data-entity-2="ent0023" data-link-type="dependency" data-source-line="115" id="lnk31"><path codeLine="115" d="M674.1,607.7683 C724.26,618.9783 777.82,637.6883 820,668.8783 C842.98,685.8783 857.1174,708.0531 867.9674,731.0231" fill="none" id="DisableUserService-to-UserRepository" style="stroke:#181818;stroke-width:1;"/><polygon fill="#181818" points="870.53,736.4483,870.3029,726.602,868.3945,731.9273,863.0692,730.0189,870.53,736.4483" style="stroke:#181818;stroke-width:1;"/><polygon fill="#000000" points="846.7394,680.2161,840.6832,672.8832,837.5296,677.8434,846.7394,680.2161" style="stroke:#000000;stroke-width:1;"/><text fill="#000000" font-family="sans-serif" font-size="13" lengthAdjust="spacing" textLength="95.564" x="851.52" y="682.4466">retrieves/saves</text></g><!--link EnableUserService to User--><g class="link" data-entity-1="ent0009" data-entity-2="ent0013" data-link-type="dependency" data-source-line="116" id="lnk32"><path codeLine="116" d="M331.03,634.8283 C337.09,636.2483 343.09,637.6083 349,638.8783 C433.42,657.1283 468.74,621.5683 541,668.8783 C617.22,718.7883 595.05,769.9583 651,841.8583 C682.31,882.0983 714.9028,918.9738 749.8628,956.0338" fill="none" id="EnableUserService-to-User" style="stroke:#181818;stroke-width:1;"/><polygon fill="#181818" points="753.98,960.3983,750.7139,951.1068,750.549,956.7612,744.8946,956.5963,753.98,960.3983" style="stroke:#181818;stroke-width:1;"/><polygon fill="#000000" points="659.9676,780.5663,654.5787,772.7298,651.0017,777.394,659.9676,780.5663" style="stroke:#000000;stroke-width:1;"/><text fill="#000000" font-family="sans-serif" font-size="13" lengthAdjust="spacing" textLength="48.2993" x="665" y="782.4366">enables</text></g><!--link DisableUserService to User--><g class="link" data-entity-1="ent0010" data-entity-2="ent0013" data-link-type="dependency" data-source-line="117" id="lnk33"><path codeLine="117" d="M674.1,598.6783 C816.03,609.2983 1011.45,634.5383 1058,693.8783 C1120.15,773.0983 1073.7165,873.4032 1011.9065,955.5832" fill="none" id="DisableUserService-to-User" style="stroke:#181818;stroke-width:1;"/><polygon fill="#181818" points="1008.3,960.3783,1016.9065,955.59,1011.3054,956.3824,1010.5131,950.7813,1008.3,960.3783" style="stroke:#181818;stroke-width:1;"/><polygon fill="#000000" points="1094.917,781.1549,1090.8338,772.5655,1086.5649,776.606,1094.917,781.1549" style="stroke:#000000;stroke-width:1;"/><text fill="#000000" font-family="sans-serif" font-size="13" lengthAdjust="spacing" textLength="51.5557" x="1100.48" y="782.4366">disables</text></g><!--link UserRepository to User--><g class="link" data-entity-1="ent0023" data-entity-2="ent0013" data-link-type="dependency" data-source-line="119" id="lnk34"><path codeLine="119" d="M886,818.2883 C886,854.2583 886,903.1983 886,954.3683" fill="none" id="UserRepository-to-User" style="stroke:#181818;stroke-width:1;"/><polygon fill="#181818" points="886,960.3683,890,951.3683,886,955.3683,882,951.3683,886,960.3683" style="stroke:#181818;stroke-width:1;"/><polygon fill="#000000" points="891,863.5136,893.9389,854.4685,888.0611,854.4685,891,863.5136" style="stroke:#000000;stroke-width:1;"/><text fill="#000000" font-family="sans-serif" font-size="13" lengthAdjust="spacing" textLength="95.564" x="900" y="863.4266">retrieves/saves</text></g><!--reverse link User to Email--><g class="link" data-entity-1="ent0013" data-entity-2="ent0015" data-link-type="composition" data-source-line="120" id="lnk35"><path codeLine="120" d="M886,1235.3683 C886,1264.4983 886,1281.5983 886,1304.8283" fill="none" id="User-backto-Email" style="stroke:#181818;stroke-width:1;"/><polygon fill="#181818" points="886,1223.3683,882,1229.3683,886,1235.3683,890,1229.3683,886,1223.3683" style="stroke:#181818;stroke-width:1;"/></g><!--reverse link User to PhoneNumber--><g class="link" data-entity-1="ent0013" data-entity-2="ent0016" data-link-type="composition" data-source-line="121" id="lnk36"><path codeLine="121" d="M1003.031,1232.5628 C1027.461,1261.6928 1044.17,1281.5983 1063.65,1304.8283" fill="none" id="User-backto-PhoneNumber" style="stroke:#181818;stroke-width:1;"/><polygon fill="#181818" points="995.32,1223.3683,996.1107,1230.5359,1003.031,1232.5628,1002.2404,1225.3952,995.32,1223.3683" style="stroke:#181818;stroke-width:1;"/></g><!--reverse link User to SecurityClearance--><g class="link" data-entity-1="ent0013" data-entity-2="ent0017" data-link-type="composition" data-source-line="122" id="lnk37"><path codeLine="122" d="M698.9751,1162.0297 C621.9051,1191.7797 542.13,1224.4883 462,1262.2083 C429.31,1277.5883 394.07,1296.5083 364.5,1313.0783" fill="none" id="User-backto-SecurityClearance" style="stroke:#181818;stroke-width:1;"/><polygon fill="#181818" points="710.17,1157.7083,703.1321,1156.1373,698.9751,1162.0297,706.013,1163.6006,710.17,1157.7083" style="stroke:#181818;stroke-width:1;"/></g><!--reverse link User to SkillsAssessment--><g class="link" data-entity-1="ent0013" data-entity-2="ent0018" data-link-type="composition" data-source-line="123" id="lnk38"><path codeLine="123" d="M747.6493,1231.8681 C718.6193,1260.9981 698.09,1281.5983 674.94,1304.8283" fill="none" id="User-backto-SkillsAssessment" style="stroke:#181818;stroke-width:1;"/><polygon fill="#181818" points="756.12,1223.3683,749.0514,1224.7947,747.6493,1231.8681,754.7179,1230.4418,756.12,1223.3683" style="stroke:#181818;stroke-width:1;"/></g><!--reverse link User to Role--><g class="link" data-entity-1="ent0013" data-entity-2="ent0020" data-link-type="aggregation" data-source-line="124" id="lnk39"><path codeLine="124" d="M1072.4774,1180.3574 C1163.6174,1223.0374 1260.92,1268.6083 1338.4,1304.8883" fill="none" id="User-backto-Role" style="stroke:#181818;stroke-width:1;"/><polygon fill="none" points="1061.61,1175.2683,1065.3473,1181.4353,1072.4774,1180.3574,1068.7401,1174.1904,1061.61,1175.2683" style="stroke:#181818;stroke-width:1;"/><text fill="#000000" font-family="sans-serif" font-size="13" lengthAdjust="spacing" textLength="8.2202" x="1069.192" y="1176.0383">1</text><text fill="#000000" font-family="sans-serif" font-size="13" lengthAdjust="spacing" textLength="22.7119" x="1300.4753" y="1294.5258">1..*</text></g><!--reverse link Role to Permission--><g class="link" data-entity-1="ent0020" data-entity-2="ent0021" data-link-type="aggregation" data-source-line="125" id="lnk40"><path codeLine="125" d="M1441,1415.0083 C1441,1435.5983 1441,1447.0783 1441,1465.4083" fill="none" id="Role-backto-Permission" style="stroke:#181818;stroke-width:1;"/><polygon fill="none" points="1441,1403.0083,1437,1409.0083,1441,1415.0083,1445,1409.0083,1441,1403.0083" style="stroke:#181818;stroke-width:1;"/><text fill="#000000" font-family="sans-serif" font-size="13" lengthAdjust="spacing" textLength="8.2202" x="1432.4775" y="1423.1988">1</text><text fill="#000000" font-family="sans-serif" font-size="13" lengthAdjust="spacing" textLength="6.2651" x="1434.4086" y="1454.7578">*</text></g><?plantuml-src lLRDJzim5B_dhx2wIm6bW-rMeKgCSa3Q6A9YTpTvj5OJExETRcNYVzzp6fBdn2cmJUkboVlylUzOOJDWzulJZn_YotaKcOsG1TSyPxcIAbbhbGEpkWJ2ANYouIjOs1sgQaWibwkC2fWrJzKF8LViWMU6SfAC6tDXhHRBqi9rekH2F08xZQBQA1kLOe9aep8OiNVpwiT-HGn_bJAxadoPmLmOztTlGDzVrtptYnd8PyQbabQhB0CzhRLyAb5AMtDKQnuY4pMJS2cTu6B_qB1Ec2xb-6ZAjaga5VKfUY919esrGq7wVWUYN83UYWHeY3M9e6d5nv1paI5Yh85S8K97h14I0C78FGGaPGs4UOz6C125Go1ecdXHP2BXLYZvKfvgVnx44kbtK2WZhDAxlPVsdGZoqgwL5e-LfoQQYm3rG4w_yQo4joJs_qFkbU1rc4DM2UeJ9iop2AJZ0dGkZ47H6vvJuqk5Gyqb7HBuNWeDjut6iFB08AKAmv0JbxPmXxY8_CdPjzwL-oDaITmHSh5M4cxAVEcc_BPzwOrYseylPZWsOD0gsFCxV9pHrG59gONTNQAAvj8LRz4bKV6Do39pOGmOauEqADsXz3hJMpzU_GCSOVQZb8w3XHAcxji1lh7SbiRnEXayOMjkWlN5T3RF7PjUyrM5yYgufKrBF5MIOuzxHDWLemFHyqJA-of_HFullFQgxdVhpqBeQkxctAA3pohXcNlqYeDZBD8nsj7O21t1Gxdjzf3dcZVa8TTLQaIAuB6KGgNNyWlUYZLslF3wyOq00_FjjbruljrSUR271hbfjdeWs-wR_SDkRQKEW_AZrCs6xmQ9YGJzmB4h_4lWhTy78TDFkttxq_M6GByMhdTuTkxKQQ26Rs7irkP-wVTkSEWpAuvduI-JgRjRXiq6jSAV4nsr3jVtzdns6fsmoOwpdbRVeDC87hWfIzQGR0nf7T_j7re8G-YKTugt4Ri5jc3UkrAPOTUlq1nsYUBxQ_620vIhZuSJZ3e-YLJVUSKuZkFwv3Qlz9esnFuDR5dTWrTnHcSZff0xEfjCZaVLEeYgdT0maDfEPVGR?></g></svg>