<?plantuml 1.2026.2?><svg xmlns="http://www.w3.org/2000/svg" xmlns:xlink="http://www.w3.org/1999/xlink" contentStyleType="text/css" data-diagram-type="CLASS" height="1519px" preserveAspectRatio="none" style="width:2882px;height:1519px;background:#FFFFFF;" version="1.1" viewBox="0 0 2882 1519" width="2882px" zoomAndPan="magnify"><title>US086-CD</title><defs/><g><g class="title" data-source-line="1"><text fill="#000000" font-family="sans-serif" font-size="14" font-weight="bold" lengthAdjust="spacing" textLength="76.0293" x="1395.9854" y="23.5352">US086-CD</text></g><!--cluster ui--><g class="cluster" data-qualified-name="ui" data-source-line="9" id="ent0004"><rect fill="none" height="427.42" rx="2.5" ry="2.5" style="stroke:#000000;stroke-width:1.5;" width="412" x="2418" y="60.9683"/><text fill="#000000" font-family="sans-serif" font-size="14" font-weight="bold" lengthAdjust="spacing" textLength="13.7471" x="2617.1265" y="76.5034">ui</text></g><!--cluster remote--><g class="cluster" data-qualified-name="ui.remote" data-source-line="8" id="ent0002"><rect fill="#DDDDDD" height="360.42" rx="2.5" ry="2.5" style="stroke:#000000;stroke-width:1.5;" width="364" x="2442" y="103.9683"/><text fill="#000000" font-family="sans-serif" font-size="14" font-weight="bold" lengthAdjust="spacing" textLength="50.9619" x="2598.519" y="119.5034">remote</text></g><!--cluster network--><g class="cluster" data-qualified-name="network" data-source-line="23" id="ent0008"><rect fill="none" height="825.34" rx="2.5" ry="2.5" style="stroke:#000000;stroke-width:1.5;" width="1346" x="1048" y="44.4883"/><text fill="#000000" font-family="sans-serif" font-size="14" font-weight="bold" lengthAdjust="spacing" textLength="59.3154" x="1691.3423" y="60.0234">network</text></g><!--cluster client--><g class="cluster" data-qualified-name="network.client" data-source-line="22" id="ent0006"><rect fill="#DDDDDD" height="181.44" rx="2.5" ry="2.5" style="stroke:#000000;stroke-width:1.5;" width="388" x="1931" y="282.9483"/><text fill="#000000" font-family="sans-serif" font-size="14" font-weight="bold" lengthAdjust="spacing" textLength="39.6279" x="2105.186" y="298.4834">client</text></g><!--cluster protocol--><g class="cluster" data-qualified-name="network.protocol" data-source-line="32" id="ent0009"><rect fill="#DDDDDD" height="164.96" rx="2.5" ry="2.5" style="stroke:#000000;stroke-width:1.5;" width="874" x="1496" y="537.3883"/><text fill="#000000" font-family="sans-serif" font-size="14" font-weight="bold" lengthAdjust="spacing" textLength="60.1426" x="1902.9287" y="552.9234">protocol</text></g><!--cluster server--><g class="cluster" data-qualified-name="network.server" data-source-line="54" id="ent0013"><rect fill="#DDDDDD" height="758.34" rx="2.5" ry="2.5" style="stroke:#000000;stroke-width:1.5;" width="400" x="1072" y="87.4883"/><text fill="#000000" font-family="sans-serif" font-size="14" font-weight="bold" lengthAdjust="spacing" textLength="45.3564" x="1249.3218" y="103.0234">server</text></g><!--cluster application--><g class="cluster" data-qualified-name="application" data-source-line="75" id="ent0018"><rect fill="#DDDDDD" height="115.49" rx="2.5" ry="2.5" style="stroke:#000000;stroke-width:1.5;" width="1919" x="259" y="935.3183"/><text fill="#000000" font-family="sans-serif" font-size="14" font-weight="bold" lengthAdjust="spacing" textLength="79.9326" x="1178.5337" y="950.8534">application</text></g><!--cluster domain--><g class="cluster" data-qualified-name="domain" data-source-line="97" id="ent0025"><rect fill="#DDDDDD" height="594.91" rx="2.5" ry="2.5" style="stroke:#000000;stroke-width:1.5;" width="674" x="2202" y="918.8283"/><text fill="#000000" font-family="sans-serif" font-size="14" font-weight="bold" lengthAdjust="spacing" textLength="53.7715" x="2512.1143" y="934.3634">domain</text></g><!--cluster repository--><g class="cluster" data-qualified-name="repository" data-source-line="137" id="ent0034"><rect fill="#DDDDDD" height="115.49" rx="2.5" ry="2.5" style="stroke:#000000;stroke-width:1.5;" width="671" x="7" y="1114.2983"/><text fill="#000000" font-family="sans-serif" font-size="14" font-weight="bold" lengthAdjust="spacing" textLength="74.3955" x="305.3022" y="1129.8334">repository</text></g><!--class AirTransportCompanyApp--><g class="entity" data-qualified-name="ui.remote.AirTransportCompanyApp" data-source-line="9" id="ent0003"><rect fill="#F1F1F1" height="64.4883" rx="2.5" ry="2.5" style="stroke:#181818;stroke-width:0.5;" width="209.1328" x="2488.43" y="138.9683"/><ellipse cx="2503.43" cy="154.9683" fill="#C2C2C2" rx="11" ry="11" style="stroke:#181818;stroke-width:1;"/><path d="M2506.4031,160.6113 Q2505.8221,160.9102 2505.1829,161.0596 Q2504.5438,161.209 2503.8382,161.209 Q2501.3314,161.209 2500.0115,159.5571 Q2498.6917,157.9053 2498.6917,154.7842 Q2498.6917,151.6548 2500.0115,150.0029 Q2501.3314,148.3511 2503.8382,148.3511 Q2504.5438,148.3511 2505.1912,148.5005 Q2505.8387,148.6499 2506.4031,148.9488 L2506.4031,151.6714 Q2505.7723,151.0904 2505.1788,150.8206 Q2504.5853,150.5508 2503.9544,150.5508 Q2502.6097,150.5508 2501.9249,151.6175 Q2501.2401,152.6841 2501.2401,154.7842 Q2501.2401,156.876 2501.9249,157.9426 Q2502.6097,159.0093 2503.9544,159.0093 Q2504.5853,159.0093 2505.1788,158.7395 Q2505.7723,158.4697 2506.4031,157.8887 Z " fill="#000000"/><text fill="#000000" font-family="sans-serif" font-size="14" lengthAdjust="spacing" textLength="177.1328" x="2517.43" y="160.2593">AirTransportCompanyApp</text><line style="stroke:#181818;stroke-width:0.5;" x1="2489.43" x2="2696.5628" y1="170.9683" y2="170.9683"/><line style="stroke:#181818;stroke-width:0.5;" x1="2489.43" x2="2696.5628" y1="178.9683" y2="178.9683"/><text fill="#000000" font-family="sans-serif" font-size="14" lengthAdjust="spacing" textLength="51.3037" x="2494.43" y="196.5034">+start()</text></g><!--class RemoteAccessClientUI--><g class="entity" data-qualified-name="ui.remote.RemoteAccessClientUI" data-source-line="13" id="ent0005"><rect fill="#F1F1F1" height="130.4414" rx="2.5" ry="2.5" style="stroke:#181818;stroke-width:0.5;" width="331.7031" x="2458.15" y="317.9483"/><ellipse cx="2544.4161" cy="333.9483" fill="#C2C2C2" rx="11" ry="11" style="stroke:#181818;stroke-width:1;"/><path d="M2547.3893,339.5913 Q2546.8082,339.8902 2546.169,340.0396 Q2545.5299,340.189 2544.8243,340.189 Q2542.3175,340.189 2540.9977,338.5371 Q2539.6778,336.8853 2539.6778,333.7642 Q2539.6778,330.6348 2540.9977,328.9829 Q2542.3175,327.3311 2544.8243,327.3311 Q2545.5299,327.3311 2546.1773,327.4805 Q2546.8248,327.6299 2547.3893,327.9288 L2547.3893,330.6514 Q2546.7584,330.0704 2546.1649,329.8006 Q2545.5714,329.5308 2544.9405,329.5308 Q2543.5958,329.5308 2542.911,330.5975 Q2542.2262,331.6641 2542.2262,333.7642 Q2542.2262,335.856 2542.911,336.9226 Q2543.5958,337.9893 2544.9405,337.9893 Q2545.5714,337.9893 2546.1649,337.7195 Q2546.7584,337.4497 2547.3893,336.8687 Z " fill="#000000"/><text fill="#000000" font-family="sans-serif" font-size="14" lengthAdjust="spacing" textLength="150.6709" x="2564.9161" y="339.2393">RemoteAccessClientUI</text><line style="stroke:#181818;stroke-width:0.5;" x1="2459.15" x2="2788.8531" y1="349.9483" y2="349.9483"/><line style="stroke:#181818;stroke-width:0.5;" x1="2459.15" x2="2788.8531" y1="357.9483" y2="357.9483"/><text fill="#000000" font-family="sans-serif" font-size="14" lengthAdjust="spacing" textLength="148.1484" x="2464.15" y="375.4834">+requestCredentials()</text><text fill="#000000" font-family="sans-serif" font-size="14" lengthAdjust="spacing" textLength="203.9092" x="2464.15" y="391.9717">+displayAvailableOperations()</text><text fill="#000000" font-family="sans-serif" font-size="14" lengthAdjust="spacing" textLength="170.1396" x="2464.15" y="408.46">+requestOperationData()</text><text fill="#000000" font-family="sans-serif" font-size="14" lengthAdjust="spacing" textLength="319.7031" x="2464.15" y="424.9483">+displayResponse(response: RemoteResponse)</text><text fill="#000000" font-family="sans-serif" font-size="14" lengthAdjust="spacing" textLength="209.7402" x="2464.15" y="441.4366">+displayError(message: String)</text></g><!--class TcpClient--><g class="entity" data-qualified-name="network.client.TcpClient" data-source-line="23" id="ent0007"><rect fill="#F1F1F1" height="130.4414" rx="2.5" ry="2.5" style="stroke:#181818;stroke-width:0.5;" width="355.458" x="1947.27" y="317.9483"/><ellipse cx="2088.5791" cy="333.9483" fill="#C2C2C2" rx="11" ry="11" style="stroke:#181818;stroke-width:1;"/><path d="M2091.5522,339.5913 Q2090.9712,339.8902 2090.332,340.0396 Q2089.6929,340.189 2088.9873,340.189 Q2086.4804,340.189 2085.1606,338.5371 Q2083.8408,336.8853 2083.8408,333.7642 Q2083.8408,330.6348 2085.1606,328.9829 Q2086.4804,327.3311 2088.9873,327.3311 Q2089.6929,327.3311 2090.3403,327.4805 Q2090.9878,327.6299 2091.5522,327.9288 L2091.5522,330.6514 Q2090.9214,330.0704 2090.3279,329.8006 Q2089.7344,329.5308 2089.1035,329.5308 Q2087.7588,329.5308 2087.074,330.5975 Q2086.3891,331.6641 2086.3891,333.7642 Q2086.3891,335.856 2087.074,336.9226 Q2087.7588,337.9893 2089.1035,337.9893 Q2089.7344,337.9893 2090.3279,337.7195 Q2090.9214,337.4497 2091.5522,336.8687 Z " fill="#000000"/><text fill="#000000" font-family="sans-serif" font-size="14" lengthAdjust="spacing" textLength="64.3398" x="2109.0791" y="339.2393">TcpClient</text><line style="stroke:#181818;stroke-width:0.5;" x1="1948.27" x2="2301.728" y1="349.9483" y2="349.9483"/><text fill="#000000" font-family="sans-serif" font-size="14" lengthAdjust="spacing" textLength="86.5908" x="1953.27" y="367.4834">-host: String</text><text fill="#000000" font-family="sans-serif" font-size="14" lengthAdjust="spacing" textLength="63.3076" x="1953.27" y="383.9717">-port: int</text><line style="stroke:#181818;stroke-width:0.5;" x1="1948.27" x2="2301.728" y1="390.9248" y2="390.9248"/><text fill="#000000" font-family="sans-serif" font-size="14" lengthAdjust="spacing" textLength="73.5889" x="1953.27" y="408.46">+connect()</text><text fill="#000000" font-family="sans-serif" font-size="14" lengthAdjust="spacing" textLength="343.458" x="1953.27" y="424.9483">+send(request: RemoteRequest): RemoteResponse</text><text fill="#000000" font-family="sans-serif" font-size="14" lengthAdjust="spacing" textLength="54.9883" x="1953.27" y="441.4366">+close()</text></g><!--class RemoteRequest--><g class="entity" data-qualified-name="network.protocol.RemoteRequest" data-source-line="33" id="ent0010"><rect fill="#F1F1F1" height="97.4648" rx="2.5" ry="2.5" style="stroke:#181818;stroke-width:0.5;" width="208.6426" x="2145.68" y="580.6383"/><ellipse cx="2192.9095" cy="596.6383" fill="#C2C2C2" rx="11" ry="11" style="stroke:#181818;stroke-width:1;"/><path d="M2195.8826,602.2813 Q2195.3016,602.5802 2194.6624,602.7296 Q2194.0233,602.879 2193.3177,602.879 Q2190.8109,602.879 2189.491,601.2271 Q2188.1712,599.5753 2188.1712,596.4542 Q2188.1712,593.3248 2189.491,591.6729 Q2190.8109,590.0211 2193.3177,590.0211 Q2194.0233,590.0211 2194.6707,590.1705 Q2195.3182,590.3199 2195.8826,590.6188 L2195.8826,593.3414 Q2195.2518,592.7604 2194.6583,592.4906 Q2194.0648,592.2208 2193.4339,592.2208 Q2192.0892,592.2208 2191.4044,593.2875 Q2190.7196,594.3541 2190.7196,596.4542 Q2190.7196,598.546 2191.4044,599.6126 Q2192.0892,600.6793 2193.4339,600.6793 Q2194.0648,600.6793 2194.6583,600.4095 Q2195.2518,600.1397 2195.8826,599.5587 Z " fill="#000000"/><text fill="#000000" font-family="sans-serif" font-size="14" lengthAdjust="spacing" textLength="105.6836" x="2213.4095" y="601.9293">RemoteRequest</text><line style="stroke:#181818;stroke-width:0.5;" x1="2146.68" x2="2353.3226" y1="612.6383" y2="612.6383"/><text fill="#000000" font-family="sans-serif" font-size="14" lengthAdjust="spacing" textLength="122.1719" x="2151.68" y="630.1734">-operation: String</text><text fill="#000000" font-family="sans-serif" font-size="14" lengthAdjust="spacing" textLength="196.6426" x="2151.68" y="646.6617">-authenticationToken: String</text><text fill="#000000" font-family="sans-serif" font-size="14" lengthAdjust="spacing" textLength="109.9766" x="2151.68" y="663.15">-payload: String</text><line style="stroke:#181818;stroke-width:0.5;" x1="2146.68" x2="2353.3226" y1="670.1031" y2="670.1031"/></g><!--class RemoteResponse--><g class="entity" data-qualified-name="network.protocol.RemoteResponse" data-source-line="39" id="ent0011"><rect fill="#F1F1F1" height="113.9531" rx="2.5" ry="2.5" style="stroke:#181818;stroke-width:0.5;" width="160.9072" x="1949.55" y="572.3883"/><ellipse cx="1970.2756" cy="588.3883" fill="#C2C2C2" rx="11" ry="11" style="stroke:#181818;stroke-width:1;"/><path d="M1973.2488,594.0313 Q1972.6677,594.3302 1972.0286,594.4796 Q1971.3894,594.629 1970.6838,594.629 Q1968.177,594.629 1966.8572,592.9771 Q1965.5374,591.3253 1965.5374,588.2042 Q1965.5374,585.0748 1966.8572,583.4229 Q1968.177,581.7711 1970.6838,581.7711 Q1971.3894,581.7711 1972.0369,581.9205 Q1972.6843,582.0699 1973.2488,582.3688 L1973.2488,585.0914 Q1972.6179,584.5104 1972.0244,584.2406 Q1971.4309,583.9708 1970.8,583.9708 Q1969.4553,583.9708 1968.7705,585.0375 Q1968.0857,586.1041 1968.0857,588.2042 Q1968.0857,590.296 1968.7705,591.3626 Q1969.4553,592.4293 1970.8,592.4293 Q1971.4309,592.4293 1972.0244,592.1595 Q1972.6179,591.8897 1973.2488,591.3087 Z " fill="#000000"/><text fill="#000000" font-family="sans-serif" font-size="14" lengthAdjust="spacing" textLength="116.1836" x="1985.548" y="593.6793">RemoteResponse</text><line style="stroke:#181818;stroke-width:0.5;" x1="1950.55" x2="2109.4572" y1="604.3883" y2="604.3883"/><text fill="#000000" font-family="sans-serif" font-size="14" lengthAdjust="spacing" textLength="123.4775" x="1955.55" y="621.9234">-success: boolean</text><text fill="#000000" font-family="sans-serif" font-size="14" lengthAdjust="spacing" textLength="109.9766" x="1955.55" y="638.4117">-payload: String</text><text fill="#000000" font-family="sans-serif" font-size="14" lengthAdjust="spacing" textLength="125.4121" x="1955.55" y="654.9">-errorCode: String</text><text fill="#000000" font-family="sans-serif" font-size="14" lengthAdjust="spacing" textLength="148.9072" x="1955.55" y="671.3883">-errorMessage: String</text><line style="stroke:#181818;stroke-width:0.5;" x1="1950.55" x2="2109.4572" y1="678.3414" y2="678.3414"/></g><!--class RemoteProtocolCodec--><g class="entity" data-qualified-name="network.protocol.RemoteProtocolCodec" data-source-line="46" id="ent0012"><rect fill="#F1F1F1" height="113.9531" rx="2.5" ry="2.5" style="stroke:#181818;stroke-width:0.5;" width="402.5645" x="1511.72" y="572.3883"/><ellipse cx="1634.179" cy="588.3883" fill="#C2C2C2" rx="11" ry="11" style="stroke:#181818;stroke-width:1;"/><path d="M1637.1521,594.0313 Q1636.5711,594.3302 1635.9319,594.4796 Q1635.2928,594.629 1634.5872,594.629 Q1632.0804,594.629 1630.7605,592.9771 Q1629.4407,591.3253 1629.4407,588.2042 Q1629.4407,585.0748 1630.7605,583.4229 Q1632.0804,581.7711 1634.5872,581.7711 Q1635.2928,581.7711 1635.9402,581.9205 Q1636.5877,582.0699 1637.1521,582.3688 L1637.1521,585.0914 Q1636.5213,584.5104 1635.9278,584.2406 Q1635.3343,583.9708 1634.7034,583.9708 Q1633.3587,583.9708 1632.6739,585.0375 Q1631.989,586.1041 1631.989,588.2042 Q1631.989,590.296 1632.6739,591.3626 Q1633.3587,592.4293 1634.7034,592.4293 Q1635.3343,592.4293 1635.9278,592.1595 Q1636.5213,591.8897 1637.1521,591.3087 Z " fill="#000000"/><text fill="#000000" font-family="sans-serif" font-size="14" lengthAdjust="spacing" textLength="149.1465" x="1654.679" y="593.6793">RemoteProtocolCodec</text><line style="stroke:#181818;stroke-width:0.5;" x1="1512.72" x2="1913.2845" y1="604.3883" y2="604.3883"/><line style="stroke:#181818;stroke-width:0.5;" x1="1512.72" x2="1913.2845" y1="612.3883" y2="612.3883"/><text fill="#000000" font-family="sans-serif" font-size="14" lengthAdjust="spacing" textLength="283.6777" x="1517.72" y="629.9234">+encode(request: RemoteRequest): String</text><text fill="#000000" font-family="sans-serif" font-size="14" lengthAdjust="spacing" textLength="369.5645" x="1517.72" y="646.4117">+decodeRequest(rawMessage: String): RemoteRequest</text><text fill="#000000" font-family="sans-serif" font-size="14" lengthAdjust="spacing" textLength="304.6777" x="1517.72" y="662.9">+encode(response: RemoteResponse): String</text><text fill="#000000" font-family="sans-serif" font-size="14" lengthAdjust="spacing" textLength="390.5645" x="1517.72" y="679.3883">+decodeResponse(rawMessage: String): RemoteResponse</text></g><!--class EmbeddedTcpServer--><g class="entity" data-qualified-name="network.server.EmbeddedTcpServer" data-source-line="55" id="ent0014"><rect fill="#F1F1F1" height="97.4648" rx="2.5" ry="2.5" style="stroke:#181818;stroke-width:0.5;" width="170.1816" x="1258.91" y="122.4883"/><ellipse cx="1273.91" cy="138.4883" fill="#C2C2C2" rx="11" ry="11" style="stroke:#181818;stroke-width:1;"/><path d="M1276.8831,144.1313 Q1276.3021,144.4302 1275.6629,144.5796 Q1275.0238,144.729 1274.3182,144.729 Q1271.8114,144.729 1270.4915,143.0771 Q1269.1717,141.4253 1269.1717,138.3042 Q1269.1717,135.1748 1270.4915,133.5229 Q1271.8114,131.8711 1274.3182,131.8711 Q1275.0238,131.8711 1275.6712,132.0205 Q1276.3187,132.1699 1276.8831,132.4688 L1276.8831,135.1914 Q1276.2523,134.6104 1275.6588,134.3406 Q1275.0653,134.0708 1274.4344,134.0708 Q1273.0897,134.0708 1272.4049,135.1375 Q1271.7201,136.2041 1271.7201,138.3042 Q1271.7201,140.396 1272.4049,141.4626 Q1273.0897,142.5293 1274.4344,142.5293 Q1275.0653,142.5293 1275.6588,142.2595 Q1276.2523,141.9897 1276.8831,141.4087 Z " fill="#000000"/><text fill="#000000" font-family="sans-serif" font-size="14" lengthAdjust="spacing" textLength="138.1816" x="1287.91" y="143.7793">EmbeddedTcpServer</text><line style="stroke:#181818;stroke-width:0.5;" x1="1259.91" x2="1428.0916" y1="154.4883" y2="154.4883"/><text fill="#000000" font-family="sans-serif" font-size="14" lengthAdjust="spacing" textLength="63.3076" x="1264.91" y="172.0234">-port: int</text><line style="stroke:#181818;stroke-width:0.5;" x1="1259.91" x2="1428.0916" y1="178.9766" y2="178.9766"/><text fill="#000000" font-family="sans-serif" font-size="14" lengthAdjust="spacing" textLength="51.3037" x="1264.91" y="196.5117">+start()</text><text fill="#000000" font-family="sans-serif" font-size="14" lengthAdjust="spacing" textLength="50.0186" x="1264.91" y="213">+stop()</text></g><!--class RemoteClientSession--><g class="entity" data-qualified-name="network.server.RemoteClientSession" data-source-line="61" id="ent0015"><rect fill="#F1F1F1" height="80.9766" rx="2.5" ry="2.5" style="stroke:#181818;stroke-width:0.5;" width="173.8115" x="1257.09" y="342.6783"/><ellipse cx="1272.09" cy="358.6783" fill="#C2C2C2" rx="11" ry="11" style="stroke:#181818;stroke-width:1;"/><path d="M1275.0631,364.3213 Q1274.4821,364.6202 1273.8429,364.7696 Q1273.2038,364.919 1272.4982,364.919 Q1269.9914,364.919 1268.6715,363.2671 Q1267.3517,361.6153 1267.3517,358.4942 Q1267.3517,355.3648 1268.6715,353.7129 Q1269.9914,352.0611 1272.4982,352.0611 Q1273.2038,352.0611 1273.8512,352.2105 Q1274.4987,352.3599 1275.0631,352.6588 L1275.0631,355.3814 Q1274.4323,354.8004 1273.8388,354.5306 Q1273.2453,354.2608 1272.6144,354.2608 Q1271.2697,354.2608 1270.5849,355.3275 Q1269.9001,356.3941 1269.9001,358.4942 Q1269.9001,360.586 1270.5849,361.6526 Q1271.2697,362.7193 1272.6144,362.7193 Q1273.2453,362.7193 1273.8388,362.4495 Q1274.4323,362.1797 1275.0631,361.5987 Z " fill="#000000"/><text fill="#000000" font-family="sans-serif" font-size="14" lengthAdjust="spacing" textLength="141.8115" x="1286.09" y="363.9693">RemoteClientSession</text><line style="stroke:#181818;stroke-width:0.5;" x1="1258.09" x2="1429.9015" y1="374.6783" y2="374.6783"/><line style="stroke:#181818;stroke-width:0.5;" x1="1258.09" x2="1429.9015" y1="382.6783" y2="382.6783"/><text fill="#000000" font-family="sans-serif" font-size="14" lengthAdjust="spacing" textLength="143.2061" x="1263.09" y="400.2134">+handleConnection()</text><text fill="#000000" font-family="sans-serif" font-size="14" lengthAdjust="spacing" textLength="54.9883" x="1263.09" y="416.7017">+close()</text></g><!--class RemoteRequestHandler--><g class="entity" data-qualified-name="network.server.RemoteRequestHandler" data-source-line="66" id="ent0016"><rect fill="#F1F1F1" height="64.4883" rx="2.5" ry="2.5" style="stroke:#181818;stroke-width:0.5;" width="368.7881" x="1087.61" y="597.1183"/><ellipse cx="1188.3649" cy="613.1183" fill="#C2C2C2" rx="11" ry="11" style="stroke:#181818;stroke-width:1;"/><path d="M1191.338,618.7613 Q1190.757,619.0602 1190.1178,619.2096 Q1189.4787,619.359 1188.7731,619.359 Q1186.2663,619.359 1184.9464,617.7071 Q1183.6266,616.0553 1183.6266,612.9342 Q1183.6266,609.8048 1184.9464,608.1529 Q1186.2663,606.5011 1188.7731,606.5011 Q1189.4787,606.5011 1190.1261,606.6505 Q1190.7736,606.7999 1191.338,607.0988 L1191.338,609.8214 Q1190.7072,609.2404 1190.1137,608.9706 Q1189.5202,608.7008 1188.8893,608.7008 Q1187.5446,608.7008 1186.8598,609.7675 Q1186.1749,610.8341 1186.1749,612.9342 Q1186.1749,615.026 1186.8598,616.0926 Q1187.5446,617.1593 1188.8893,617.1593 Q1189.5202,617.1593 1190.1137,616.8895 Q1190.7072,616.6197 1191.338,616.0387 Z " fill="#000000"/><text fill="#000000" font-family="sans-serif" font-size="14" lengthAdjust="spacing" textLength="158.7783" x="1208.8649" y="618.4093">RemoteRequestHandler</text><line style="stroke:#181818;stroke-width:0.5;" x1="1088.61" x2="1455.3981" y1="629.1183" y2="629.1183"/><line style="stroke:#181818;stroke-width:0.5;" x1="1088.61" x2="1455.3981" y1="637.1183" y2="637.1183"/><text fill="#000000" font-family="sans-serif" font-size="14" lengthAdjust="spacing" textLength="356.7881" x="1093.61" y="654.6534">+handle(request: RemoteRequest): RemoteResponse</text></g><!--class RemoteOperationRouter--><g class="entity" data-qualified-name="network.server.RemoteOperationRouter" data-source-line="70" id="ent0017"><rect fill="#F1F1F1" height="64.4883" rx="2.5" ry="2.5" style="stroke:#181818;stroke-width:0.5;" width="359.0742" x="1096.46" y="765.3483"/><ellipse cx="1189.856" cy="781.3483" fill="#C2C2C2" rx="11" ry="11" style="stroke:#181818;stroke-width:1;"/><path d="M1192.8291,786.9913 Q1192.2481,787.2902 1191.6089,787.4396 Q1190.9698,787.589 1190.2642,787.589 Q1187.7574,787.589 1186.4375,785.9371 Q1185.1177,784.2853 1185.1177,781.1642 Q1185.1177,778.0348 1186.4375,776.3829 Q1187.7574,774.7311 1190.2642,774.7311 Q1190.9698,774.7311 1191.6172,774.8805 Q1192.2647,775.0299 1192.8291,775.3288 L1192.8291,778.0514 Q1192.1983,777.4704 1191.6048,777.2006 Q1191.0113,776.9308 1190.3804,776.9308 Q1189.0357,776.9308 1188.3509,777.9975 Q1187.6661,779.0641 1187.6661,781.1642 Q1187.6661,783.256 1188.3509,784.3226 Q1189.0357,785.3893 1190.3804,785.3893 Q1191.0113,785.3893 1191.6048,785.1195 Q1192.1983,784.8497 1192.8291,784.2687 Z " fill="#000000"/><text fill="#000000" font-family="sans-serif" font-size="14" lengthAdjust="spacing" textLength="163.7822" x="1210.356" y="786.6393">RemoteOperationRouter</text><line style="stroke:#181818;stroke-width:0.5;" x1="1097.46" x2="1454.5342" y1="797.3483" y2="797.3483"/><line style="stroke:#181818;stroke-width:0.5;" x1="1097.46" x2="1454.5342" y1="805.3483" y2="805.3483"/><text fill="#000000" font-family="sans-serif" font-size="14" lengthAdjust="spacing" textLength="347.0742" x="1102.46" y="822.8834">+route(request: RemoteRequest): RemoteResponse</text></g><!--class AuthenticationService--><g class="entity" data-qualified-name="application.AuthenticationService" data-source-line="76" id="ent0019"><rect fill="#F1F1F1" height="64.4883" rx="2.5" ry="2.5" style="stroke:#181818;stroke-width:0.5;" width="426.5586" x="274.72" y="970.3183"/><ellipse cx="410.3245" cy="986.3183" fill="#C2C2C2" rx="11" ry="11" style="stroke:#181818;stroke-width:1;"/><path d="M413.2976,991.9613 Q412.7166,992.2602 412.0774,992.4096 Q411.4383,992.559 410.7327,992.559 Q408.2259,992.559 406.906,990.9071 Q405.5862,989.2553 405.5862,986.1342 Q405.5862,983.0048 406.906,981.3529 Q408.2259,979.7011 410.7327,979.7011 Q411.4383,979.7011 412.0857,979.8505 Q412.7332,979.9999 413.2976,980.2988 L413.2976,983.0214 Q412.6668,982.4404 412.0733,982.1706 Q411.4798,981.9008 410.8489,981.9008 Q409.5042,981.9008 408.8194,982.9675 Q408.1346,984.0341 408.1346,986.1342 Q408.1346,988.226 408.8194,989.2926 Q409.5042,990.3593 410.8489,990.3593 Q411.4798,990.3593 412.0733,990.0895 Q412.6668,989.8197 413.2976,989.2387 Z " fill="#000000"/><text fill="#000000" font-family="sans-serif" font-size="14" lengthAdjust="spacing" textLength="146.8496" x="430.8245" y="991.6093">AuthenticationService</text><line style="stroke:#181818;stroke-width:0.5;" x1="275.72" x2="700.2786" y1="1002.3183" y2="1002.3183"/><line style="stroke:#181818;stroke-width:0.5;" x1="275.72" x2="700.2786" y1="1010.3183" y2="1010.3183"/><text fill="#000000" font-family="sans-serif" font-size="14" lengthAdjust="spacing" textLength="414.5586" x="280.72" y="1027.8534">+authenticate(credentials: Credentials): AuthenticationToken</text></g><!--class AuthorizationService--><g class="entity" data-qualified-name="application.AuthorizationService" data-source-line="80" id="ent0020"><rect fill="#F1F1F1" height="64.4883" rx="2.5" ry="2.5" style="stroke:#181818;stroke-width:0.5;" width="417.1934" x="736.4" y="970.3183"/><ellipse cx="870.5929" cy="986.3183" fill="#C2C2C2" rx="11" ry="11" style="stroke:#181818;stroke-width:1;"/><path d="M873.566,991.9613 Q872.985,992.2602 872.3458,992.4096 Q871.7066,992.559 871.0011,992.559 Q868.4942,992.559 867.1744,990.9071 Q865.8546,989.2553 865.8546,986.1342 Q865.8546,983.0048 867.1744,981.3529 Q868.4942,979.7011 871.0011,979.7011 Q871.7066,979.7011 872.3541,979.8505 Q873.0016,979.9999 873.566,980.2988 L873.566,983.0214 Q872.9352,982.4404 872.3417,982.1706 Q871.7481,981.9008 871.1173,981.9008 Q869.7726,981.9008 869.0877,982.9675 Q868.4029,984.0341 868.4029,986.1342 Q868.4029,988.226 869.0877,989.2926 Q869.7726,990.3593 871.1173,990.3593 Q871.7481,990.3593 872.3417,990.0895 Q872.9352,989.8197 873.566,989.2387 Z " fill="#000000"/><text fill="#000000" font-family="sans-serif" font-size="14" lengthAdjust="spacing" textLength="140.3076" x="891.0929" y="991.6093">AuthorizationService</text><line style="stroke:#181818;stroke-width:0.5;" x1="737.4" x2="1152.5934" y1="1002.3183" y2="1002.3183"/><line style="stroke:#181818;stroke-width:0.5;" x1="737.4" x2="1152.5934" y1="1010.3183" y2="1010.3183"/><text fill="#000000" font-family="sans-serif" font-size="14" lengthAdjust="spacing" textLength="405.1934" x="742.4" y="1027.8534">+isAuthorized(user: User, permission: Permission): boolean</text></g><!--class CreateFlightPlanService--><g class="entity" data-qualified-name="application.CreateFlightPlanService" data-source-line="84" id="ent0021"><rect fill="#F1F1F1" height="48" rx="2.5" ry="2.5" style="stroke:#181818;stroke-width:0.5;" width="189.7734" x="1398.11" y="978.5683"/><ellipse cx="1413.11" cy="994.5683" fill="#C2C2C2" rx="11" ry="11" style="stroke:#181818;stroke-width:1;"/><path d="M1416.0831,1000.2113 Q1415.5021,1000.5102 1414.8629,1000.6596 Q1414.2238,1000.809 1413.5182,1000.809 Q1411.0114,1000.809 1409.6915,999.1571 Q1408.3717,997.5053 1408.3717,994.3842 Q1408.3717,991.2548 1409.6915,989.6029 Q1411.0114,987.9511 1413.5182,987.9511 Q1414.2238,987.9511 1414.8712,988.1005 Q1415.5187,988.2499 1416.0831,988.5488 L1416.0831,991.2714 Q1415.4523,990.6904 1414.8588,990.4206 Q1414.2653,990.1508 1413.6344,990.1508 Q1412.2897,990.1508 1411.6049,991.2175 Q1410.9201,992.2841 1410.9201,994.3842 Q1410.9201,996.476 1411.6049,997.5426 Q1412.2897,998.6093 1413.6344,998.6093 Q1414.2653,998.6093 1414.8588,998.3395 Q1415.4523,998.0697 1416.0831,997.4887 Z " fill="#000000"/><text fill="#000000" font-family="sans-serif" font-size="14" lengthAdjust="spacing" textLength="157.7734" x="1427.11" y="999.8593">CreateFlightPlanService</text><line style="stroke:#181818;stroke-width:0.5;" x1="1399.11" x2="1586.8834" y1="1010.5683" y2="1010.5683"/><line style="stroke:#181818;stroke-width:0.5;" x1="1399.11" x2="1586.8834" y1="1018.5683" y2="1018.5683"/></g><!--class CreateFlightPlanFromFileService--><g class="entity" data-qualified-name="application.CreateFlightPlanFromFileService" data-source-line="87" id="ent0022"><rect fill="#F1F1F1" height="48" rx="2.5" ry="2.5" style="stroke:#181818;stroke-width:0.5;" width="248.0771" x="1622.96" y="978.5683"/><ellipse cx="1637.96" cy="994.5683" fill="#C2C2C2" rx="11" ry="11" style="stroke:#181818;stroke-width:1;"/><path d="M1640.9331,1000.2113 Q1640.3521,1000.5102 1639.7129,1000.6596 Q1639.0738,1000.809 1638.3682,1000.809 Q1635.8614,1000.809 1634.5415,999.1571 Q1633.2217,997.5053 1633.2217,994.3842 Q1633.2217,991.2548 1634.5415,989.6029 Q1635.8614,987.9511 1638.3682,987.9511 Q1639.0738,987.9511 1639.7212,988.1005 Q1640.3687,988.2499 1640.9331,988.5488 L1640.9331,991.2714 Q1640.3023,990.6904 1639.7088,990.4206 Q1639.1153,990.1508 1638.4844,990.1508 Q1637.1397,990.1508 1636.4549,991.2175 Q1635.7701,992.2841 1635.7701,994.3842 Q1635.7701,996.476 1636.4549,997.5426 Q1637.1397,998.6093 1638.4844,998.6093 Q1639.1153,998.6093 1639.7088,998.3395 Q1640.3023,998.0697 1640.9331,997.4887 Z " fill="#000000"/><text fill="#000000" font-family="sans-serif" font-size="14" lengthAdjust="spacing" textLength="216.0771" x="1651.96" y="999.8593">CreateFlightPlanFromFileService</text><line style="stroke:#181818;stroke-width:0.5;" x1="1623.96" x2="1870.0371" y1="1010.5683" y2="1010.5683"/><line style="stroke:#181818;stroke-width:0.5;" x1="1623.96" x2="1870.0371" y1="1018.5683" y2="1018.5683"/></g><!--class InsertWeatherDataInFlightService--><g class="entity" data-qualified-name="application.InsertWeatherDataInFlightService" data-source-line="90" id="ent0023"><rect fill="#F1F1F1" height="48" rx="2.5" ry="2.5" style="stroke:#181818;stroke-width:0.5;" width="255.0771" x="1906.46" y="978.5683"/><ellipse cx="1921.46" cy="994.5683" fill="#C2C2C2" rx="11" ry="11" style="stroke:#181818;stroke-width:1;"/><path d="M1924.4331,1000.2113 Q1923.8521,1000.5102 1923.2129,1000.6596 Q1922.5738,1000.809 1921.8682,1000.809 Q1919.3614,1000.809 1918.0415,999.1571 Q1916.7217,997.5053 1916.7217,994.3842 Q1916.7217,991.2548 1918.0415,989.6029 Q1919.3614,987.9511 1921.8682,987.9511 Q1922.5738,987.9511 1923.2212,988.1005 Q1923.8687,988.2499 1924.4331,988.5488 L1924.4331,991.2714 Q1923.8023,990.6904 1923.2088,990.4206 Q1922.6153,990.1508 1921.9844,990.1508 Q1920.6397,990.1508 1919.9549,991.2175 Q1919.2701,992.2841 1919.2701,994.3842 Q1919.2701,996.476 1919.9549,997.5426 Q1920.6397,998.6093 1921.9844,998.6093 Q1922.6153,998.6093 1923.2088,998.3395 Q1923.8023,998.0697 1924.4331,997.4887 Z " fill="#000000"/><text fill="#000000" font-family="sans-serif" font-size="14" lengthAdjust="spacing" textLength="223.0771" x="1935.46" y="999.8593">InsertWeatherDataInFlightService</text><line style="stroke:#181818;stroke-width:0.5;" x1="1907.46" x2="2160.5371" y1="1010.5683" y2="1010.5683"/><line style="stroke:#181818;stroke-width:0.5;" x1="1907.46" x2="2160.5371" y1="1018.5683" y2="1018.5683"/></g><!--class TestFlightPlanService--><g class="entity" data-qualified-name="application.TestFlightPlanService" data-source-line="93" id="ent0024"><rect fill="#F1F1F1" height="48" rx="2.5" ry="2.5" style="stroke:#181818;stroke-width:0.5;" width="174.8164" x="1188.59" y="978.5683"/><ellipse cx="1203.59" cy="994.5683" fill="#C2C2C2" rx="11" ry="11" style="stroke:#181818;stroke-width:1;"/><path d="M1206.5631,1000.2113 Q1205.9821,1000.5102 1205.3429,1000.6596 Q1204.7038,1000.809 1203.9982,1000.809 Q1201.4914,1000.809 1200.1715,999.1571 Q1198.8517,997.5053 1198.8517,994.3842 Q1198.8517,991.2548 1200.1715,989.6029 Q1201.4914,987.9511 1203.9982,987.9511 Q1204.7038,987.9511 1205.3512,988.1005 Q1205.9987,988.2499 1206.5631,988.5488 L1206.5631,991.2714 Q1205.9323,990.6904 1205.3388,990.4206 Q1204.7453,990.1508 1204.1144,990.1508 Q1202.7697,990.1508 1202.0849,991.2175 Q1201.4001,992.2841 1201.4001,994.3842 Q1201.4001,996.476 1202.0849,997.5426 Q1202.7697,998.6093 1204.1144,998.6093 Q1204.7453,998.6093 1205.3388,998.3395 Q1205.9323,998.0697 1206.5631,997.4887 Z " fill="#000000"/><text fill="#000000" font-family="sans-serif" font-size="14" lengthAdjust="spacing" textLength="142.8164" x="1217.59" y="999.8593">TestFlightPlanService</text><line style="stroke:#181818;stroke-width:0.5;" x1="1189.59" x2="1362.4064" y1="1010.5683" y2="1010.5683"/><line style="stroke:#181818;stroke-width:0.5;" x1="1189.59" x2="1362.4064" y1="1018.5683" y2="1018.5683"/></g><!--class User--><g class="entity" data-qualified-name="domain.User" data-source-line="98" id="ent0026"><rect fill="#F1F1F1" height="97.4648" rx="2.5" ry="2.5" style="stroke:#181818;stroke-width:0.5;" width="350.8369" x="2217.58" y="1132.8083"/><ellipse cx="2373.5658" cy="1148.8083" fill="#C2C2C2" rx="11" ry="11" style="stroke:#181818;stroke-width:1;"/><path d="M2376.539,1154.4513 Q2375.9579,1154.7502 2375.3188,1154.8996 Q2374.6796,1155.049 2373.974,1155.049 Q2371.4672,1155.049 2370.1474,1153.3971 Q2368.8276,1151.7453 2368.8276,1148.6242 Q2368.8276,1145.4948 2370.1474,1143.8429 Q2371.4672,1142.1911 2373.974,1142.1911 Q2374.6796,1142.1911 2375.3271,1142.3405 Q2375.9745,1142.4899 2376.539,1142.7888 L2376.539,1145.5114 Q2375.9081,1144.9304 2375.3146,1144.6606 Q2374.7211,1144.3908 2374.0903,1144.3908 Q2372.7455,1144.3908 2372.0607,1145.4575 Q2371.3759,1146.5241 2371.3759,1148.6242 Q2371.3759,1150.716 2372.0607,1151.7826 Q2372.7455,1152.8493 2374.0903,1152.8493 Q2374.7211,1152.8493 2375.3146,1152.5795 Q2375.9081,1152.3097 2376.539,1151.7287 Z " fill="#000000"/><text fill="#000000" font-family="sans-serif" font-size="14" lengthAdjust="spacing" textLength="30.3652" x="2394.0658" y="1154.0993">User</text><line style="stroke:#181818;stroke-width:0.5;" x1="2218.58" x2="2567.4169" y1="1164.8083" y2="1164.8083"/><text fill="#000000" font-family="sans-serif" font-size="14" lengthAdjust="spacing" textLength="90.1387" x="2223.58" y="1182.3434">-email: Email</text><text fill="#000000" font-family="sans-serif" font-size="14" lengthAdjust="spacing" textLength="125.7129" x="2223.58" y="1198.8317">-roles: List&lt;Role&gt;</text><line style="stroke:#181818;stroke-width:0.5;" x1="2218.58" x2="2567.4169" y1="1205.7848" y2="1205.7848"/><text fill="#000000" font-family="sans-serif" font-size="14" lengthAdjust="spacing" textLength="338.8369" x="2223.58" y="1223.32">+hasPermission(permission: Permission): boolean</text></g><!--class Pilot--><g class="entity" data-qualified-name="domain.Pilot" data-source-line="104" id="ent0027"><rect fill="#F1F1F1" height="97.4648" rx="2.5" ry="2.5" style="stroke:#181818;stroke-width:0.5;" width="264.3076" x="2217.85" y="953.8283"/><ellipse cx="2330.9198" cy="969.8283" fill="#C2C2C2" rx="11" ry="11" style="stroke:#181818;stroke-width:1;"/><path d="M2333.893,975.4713 Q2333.3119,975.7702 2332.6728,975.9196 Q2332.0336,976.069 2331.328,976.069 Q2328.8212,976.069 2327.5014,974.4171 Q2326.1815,972.7653 2326.1815,969.6442 Q2326.1815,966.5148 2327.5014,964.8629 Q2328.8212,963.2111 2331.328,963.2111 Q2332.0336,963.2111 2332.6811,963.3605 Q2333.3285,963.5099 2333.893,963.8088 L2333.893,966.5314 Q2333.2621,965.9504 2332.6686,965.6806 Q2332.0751,965.4108 2331.4442,965.4108 Q2330.0995,965.4108 2329.4147,966.4775 Q2328.7299,967.5441 2328.7299,969.6442 Q2328.7299,971.736 2329.4147,972.8026 Q2330.0995,973.8693 2331.4442,973.8693 Q2332.0751,973.8693 2332.6686,973.5995 Q2333.2621,973.3297 2333.893,972.7487 Z " fill="#000000"/><text fill="#000000" font-family="sans-serif" font-size="14" lengthAdjust="spacing" textLength="29.668" x="2351.4198" y="975.1193">Pilot</text><line style="stroke:#181818;stroke-width:0.5;" x1="2218.85" x2="2481.1576" y1="985.8283" y2="985.8283"/><text fill="#000000" font-family="sans-serif" font-size="14" lengthAdjust="spacing" textLength="76.6787" x="2223.85" y="1003.3634">-user: User</text><text fill="#000000" font-family="sans-serif" font-size="14" lengthAdjust="spacing" textLength="252.3076" x="2223.85" y="1019.8517">-licenseNumber: PilotLicenseNumber</text><text fill="#000000" font-family="sans-serif" font-size="14" lengthAdjust="spacing" textLength="110.4688" x="2223.85" y="1036.34">-active: boolean</text><line style="stroke:#181818;stroke-width:0.5;" x1="2218.85" x2="2481.1576" y1="1043.2931" y2="1043.2931"/></g><!--class Role--><g class="entity" data-qualified-name="domain.Role" data-source-line="110" id="ent0028"><rect fill="#F1F1F1" height="80.9766" rx="2.5" ry="2.5" style="stroke:#181818;stroke-width:0.5;" width="231.2969" x="2244.35" y="1291.2783"/><ellipse cx="2341.099" cy="1307.2783" fill="#C2C2C2" rx="11" ry="11" style="stroke:#181818;stroke-width:1;"/><path d="M2344.0722,1312.9213 Q2343.4911,1313.2202 2342.852,1313.3696 Q2342.2128,1313.519 2341.5072,1313.519 Q2339.0004,1313.519 2337.6806,1311.8671 Q2336.3607,1310.2153 2336.3607,1307.0942 Q2336.3607,1303.9648 2337.6806,1302.3129 Q2339.0004,1300.6611 2341.5072,1300.6611 Q2342.2128,1300.6611 2342.8603,1300.8105 Q2343.5077,1300.9599 2344.0722,1301.2588 L2344.0722,1303.9814 Q2343.4413,1303.4004 2342.8478,1303.1306 Q2342.2543,1302.8608 2341.6234,1302.8608 Q2340.2787,1302.8608 2339.5939,1303.9275 Q2338.9091,1304.9941 2338.9091,1307.0942 Q2338.9091,1309.186 2339.5939,1310.2526 Q2340.2787,1311.3193 2341.6234,1311.3193 Q2342.2543,1311.3193 2342.8478,1311.0495 Q2343.4413,1310.7797 2344.0722,1310.1987 Z " fill="#000000"/><text fill="#000000" font-family="sans-serif" font-size="14" lengthAdjust="spacing" textLength="29.2988" x="2361.599" y="1312.5693">Role</text><line style="stroke:#181818;stroke-width:0.5;" x1="2245.35" x2="2474.6469" y1="1323.2783" y2="1323.2783"/><text fill="#000000" font-family="sans-serif" font-size="14" lengthAdjust="spacing" textLength="94.2197" x="2250.35" y="1340.8134">-name: String</text><text fill="#000000" font-family="sans-serif" font-size="14" lengthAdjust="spacing" textLength="219.2969" x="2250.35" y="1357.3017">-permissions: List&lt;Permission&gt;</text><line style="stroke:#181818;stroke-width:0.5;" x1="2245.35" x2="2474.6469" y1="1364.2548" y2="1364.2548"/></g><!--class Permission--><g class="entity" data-qualified-name="domain.Permission" data-source-line="115" id="ent0029"><rect fill="#F1F1F1" height="64.4883" rx="2.5" ry="2.5" style="stroke:#181818;stroke-width:0.5;" width="106.2197" x="2306.89" y="1433.2483"/><ellipse cx="2321.9924" cy="1449.2483" fill="#C2C2C2" rx="11" ry="11" style="stroke:#181818;stroke-width:1;"/><path d="M2324.9655,1454.8913 Q2324.3845,1455.1902 2323.7453,1455.3396 Q2323.1062,1455.489 2322.4006,1455.489 Q2319.8938,1455.489 2318.5739,1453.8371 Q2317.2541,1452.1853 2317.2541,1449.0642 Q2317.2541,1445.9348 2318.5739,1444.2829 Q2319.8938,1442.6311 2322.4006,1442.6311 Q2323.1062,1442.6311 2323.7536,1442.7805 Q2324.4011,1442.9299 2324.9655,1443.2288 L2324.9655,1445.9514 Q2324.3347,1445.3704 2323.7412,1445.1006 Q2323.1477,1444.8308 2322.5168,1444.8308 Q2321.1721,1444.8308 2320.4873,1445.8975 Q2319.8025,1446.9641 2319.8025,1449.0642 Q2319.8025,1451.156 2320.4873,1452.2226 Q2321.1721,1453.2893 2322.5168,1453.2893 Q2323.1477,1453.2893 2323.7412,1453.0195 Q2324.3347,1452.7497 2324.9655,1452.1687 Z " fill="#000000"/><text fill="#000000" font-family="sans-serif" font-size="14" lengthAdjust="spacing" textLength="73.9922" x="2336.0151" y="1454.5393">Permission</text><line style="stroke:#181818;stroke-width:0.5;" x1="2307.89" x2="2412.1097" y1="1465.2483" y2="1465.2483"/><text fill="#000000" font-family="sans-serif" font-size="14" lengthAdjust="spacing" textLength="94.2197" x="2312.89" y="1482.7834">-name: String</text><line style="stroke:#181818;stroke-width:0.5;" x1="2307.89" x2="2412.1097" y1="1489.7366" y2="1489.7366"/></g><!--class Credentials--><g class="entity" data-qualified-name="domain.Credentials" data-source-line="119" id="ent0030"><rect fill="#F1F1F1" height="80.9766" rx="2.5" ry="2.5" style="stroke:#181818;stroke-width:0.5;" width="133.6729" x="2517.16" y="962.0783"/><ellipse cx="2543.392" cy="978.0783" fill="#C2C2C2" rx="11" ry="11" style="stroke:#181818;stroke-width:1;"/><path d="M2546.3651,983.7213 Q2545.7841,984.0202 2545.1449,984.1696 Q2544.5058,984.319 2543.8002,984.319 Q2541.2933,984.319 2539.9735,982.6671 Q2538.6537,981.0153 2538.6537,977.8942 Q2538.6537,974.7648 2539.9735,973.1129 Q2541.2933,971.4611 2543.8002,971.4611 Q2544.5058,971.4611 2545.1532,971.6105 Q2545.8007,971.7599 2546.3651,972.0588 L2546.3651,974.7814 Q2545.7343,974.2004 2545.1408,973.9306 Q2544.5473,973.6608 2543.9164,973.6608 Q2542.5717,973.6608 2541.8869,974.7275 Q2541.202,975.7941 2541.202,977.8942 Q2541.202,979.986 2541.8869,981.0526 Q2542.5717,982.1193 2543.9164,982.1193 Q2544.5473,982.1193 2545.1408,981.8495 Q2545.7343,981.5797 2546.3651,980.9987 Z " fill="#000000"/><text fill="#000000" font-family="sans-serif" font-size="14" lengthAdjust="spacing" textLength="76.7129" x="2559.888" y="983.3693">Credentials</text><line style="stroke:#181818;stroke-width:0.5;" x1="2518.16" x2="2649.8329" y1="994.0783" y2="994.0783"/><text fill="#000000" font-family="sans-serif" font-size="14" lengthAdjust="spacing" textLength="93.625" x="2523.16" y="1011.6134">-email: String</text><text fill="#000000" font-family="sans-serif" font-size="14" lengthAdjust="spacing" textLength="121.6729" x="2523.16" y="1028.1017">-password: String</text><line style="stroke:#181818;stroke-width:0.5;" x1="2518.16" x2="2649.8329" y1="1035.0548" y2="1035.0548"/></g><!--class AuthenticationToken--><g class="entity" data-qualified-name="domain.AuthenticationToken" data-source-line="124" id="ent0031"><rect fill="#F1F1F1" height="64.4883" rx="2.5" ry="2.5" style="stroke:#181818;stroke-width:0.5;" width="173.6406" x="2686.18" y="970.3183"/><ellipse cx="2701.18" cy="986.3183" fill="#C2C2C2" rx="11" ry="11" style="stroke:#181818;stroke-width:1;"/><path d="M2704.1531,991.9613 Q2703.5721,992.2602 2702.9329,992.4096 Q2702.2938,992.559 2701.5882,992.559 Q2699.0814,992.559 2697.7615,990.9071 Q2696.4417,989.2553 2696.4417,986.1342 Q2696.4417,983.0048 2697.7615,981.3529 Q2699.0814,979.7011 2701.5882,979.7011 Q2702.2938,979.7011 2702.9412,979.8505 Q2703.5887,979.9999 2704.1531,980.2988 L2704.1531,983.0214 Q2703.5223,982.4404 2702.9288,982.1706 Q2702.3353,981.9008 2701.7044,981.9008 Q2700.3597,981.9008 2699.6749,982.9675 Q2698.9901,984.0341 2698.9901,986.1342 Q2698.9901,988.226 2699.6749,989.2926 Q2700.3597,990.3593 2701.7044,990.3593 Q2702.3353,990.3593 2702.9288,990.0895 Q2703.5223,989.8197 2704.1531,989.2387 Z " fill="#000000"/><text fill="#000000" font-family="sans-serif" font-size="14" lengthAdjust="spacing" textLength="141.6406" x="2715.18" y="991.6093">AuthenticationToken</text><line style="stroke:#181818;stroke-width:0.5;" x1="2687.18" x2="2858.8206" y1="1002.3183" y2="1002.3183"/><text fill="#000000" font-family="sans-serif" font-size="14" lengthAdjust="spacing" textLength="92.4424" x="2692.18" y="1019.8534">-value: String</text><line style="stroke:#181818;stroke-width:0.5;" x1="2687.18" x2="2858.8206" y1="1026.8066" y2="1026.8066"/></g><!--class PilotLicenseNumber--><g class="entity" data-qualified-name="domain.PilotLicenseNumber" data-source-line="128" id="ent0032"><rect fill="#F1F1F1" height="64.4883" rx="2.5" ry="2.5" style="stroke:#181818;stroke-width:0.5;" width="166.2168" x="2603.89" y="1149.2983"/><ellipse cx="2618.89" cy="1165.2983" fill="#C2C2C2" rx="11" ry="11" style="stroke:#181818;stroke-width:1;"/><path d="M2621.8631,1170.9413 Q2621.2821,1171.2402 2620.6429,1171.3896 Q2620.0038,1171.539 2619.2982,1171.539 Q2616.7914,1171.539 2615.4715,1169.8871 Q2614.1517,1168.2353 2614.1517,1165.1142 Q2614.1517,1161.9848 2615.4715,1160.3329 Q2616.7914,1158.6811 2619.2982,1158.6811 Q2620.0038,1158.6811 2620.6512,1158.8305 Q2621.2987,1158.9799 2621.8631,1159.2788 L2621.8631,1162.0014 Q2621.2323,1161.4204 2620.6388,1161.1506 Q2620.0453,1160.8808 2619.4144,1160.8808 Q2618.0697,1160.8808 2617.3849,1161.9475 Q2616.7001,1163.0141 2616.7001,1165.1142 Q2616.7001,1167.206 2617.3849,1168.2726 Q2618.0697,1169.3393 2619.4144,1169.3393 Q2620.0453,1169.3393 2620.6388,1169.0695 Q2621.2323,1168.7997 2621.8631,1168.2187 Z " fill="#000000"/><text fill="#000000" font-family="sans-serif" font-size="14" lengthAdjust="spacing" textLength="134.2168" x="2632.89" y="1170.5893">PilotLicenseNumber</text><line style="stroke:#181818;stroke-width:0.5;" x1="2604.89" x2="2769.1068" y1="1181.2983" y2="1181.2983"/><text fill="#000000" font-family="sans-serif" font-size="14" lengthAdjust="spacing" textLength="92.4424" x="2609.89" y="1198.8334">-value: String</text><line style="stroke:#181818;stroke-width:0.5;" x1="2604.89" x2="2769.1068" y1="1205.7866" y2="1205.7866"/></g><!--class Email--><g class="entity" data-qualified-name="domain.Email" data-source-line="132" id="ent0033"><rect fill="#F1F1F1" height="64.4883" rx="2.5" ry="2.5" style="stroke:#181818;stroke-width:0.5;" width="104.4424" x="2510.78" y="1299.5183"/><ellipse cx="2541.9615" cy="1315.5183" fill="#C2C2C2" rx="11" ry="11" style="stroke:#181818;stroke-width:1;"/><path d="M2544.9347,1321.1613 Q2544.3536,1321.4602 2543.7145,1321.6096 Q2543.0753,1321.759 2542.3697,1321.759 Q2539.8629,1321.759 2538.5431,1320.1071 Q2537.2233,1318.4553 2537.2233,1315.3342 Q2537.2233,1312.2048 2538.5431,1310.5529 Q2539.8629,1308.9011 2542.3697,1308.9011 Q2543.0753,1308.9011 2543.7228,1309.0505 Q2544.3702,1309.1999 2544.9347,1309.4988 L2544.9347,1312.2214 Q2544.3038,1311.6404 2543.7103,1311.3706 Q2543.1168,1311.1008 2542.486,1311.1008 Q2541.1412,1311.1008 2540.4564,1312.1675 Q2539.7716,1313.2341 2539.7716,1315.3342 Q2539.7716,1317.426 2540.4564,1318.4926 Q2541.1412,1319.5593 2542.486,1319.5593 Q2543.1168,1319.5593 2543.7103,1319.2895 Q2544.3038,1319.0197 2544.9347,1318.4387 Z " fill="#000000"/><text fill="#000000" font-family="sans-serif" font-size="14" lengthAdjust="spacing" textLength="36.4834" x="2559.5574" y="1320.8093">Email</text><line style="stroke:#181818;stroke-width:0.5;" x1="2511.78" x2="2614.2224" y1="1331.5183" y2="1331.5183"/><text fill="#000000" font-family="sans-serif" font-size="14" lengthAdjust="spacing" textLength="92.4424" x="2516.78" y="1349.0534">-value: String</text><line style="stroke:#181818;stroke-width:0.5;" x1="2511.78" x2="2614.2224" y1="1356.0066" y2="1356.0066"/></g><!--class UserRepository--><g class="entity" data-qualified-name="repository.UserRepository" data-source-line="138" id="ent0035"><rect fill="#F1F1F1" height="64.4883" rx="2.5" ry="2.5" style="stroke:#181818;stroke-width:0.5;" width="312.3369" x="349.83" y="1149.2983"/><ellipse cx="450.5029" cy="1165.2983" fill="#B1B1B1" rx="11" ry="11" style="stroke:#181818;stroke-width:1;"/><path d="M446.4306,1161.0634 L446.4306,1158.9052 L453.81,1158.9052 L453.81,1161.0634 L451.3446,1161.0634 L451.3446,1169.1401 L453.81,1169.1401 L453.81,1171.2983 L446.4306,1171.2983 L446.4306,1169.1401 L448.8959,1169.1401 L448.8959,1161.0634 Z " fill="#000000"/><text fill="#000000" font-family="sans-serif" font-size="14" font-style="italic" lengthAdjust="spacing" textLength="102.4912" x="471.0029" y="1170.5893">UserRepository</text><line style="stroke:#181818;stroke-width:0.5;" x1="350.83" x2="661.1669" y1="1181.2983" y2="1181.2983"/><line style="stroke:#181818;stroke-width:0.5;" x1="350.83" x2="661.1669" y1="1189.2983" y2="1189.2983"/><text fill="#000000" font-family="sans-serif" font-size="14" lengthAdjust="spacing" textLength="300.3369" x="355.83" y="1206.8334">+findByEmail(email: Email): Optional&lt;User&gt;</text></g><!--class PilotRepository--><g class="entity" data-qualified-name="repository.PilotRepository" data-source-line="142" id="ent0036"><rect fill="#F1F1F1" height="64.4883" rx="2.5" ry="2.5" style="stroke:#181818;stroke-width:0.5;" width="292.0615" x="22.97" y="1149.2983"/><ellipse cx="113.8538" cy="1165.2983" fill="#B1B1B1" rx="11" ry="11" style="stroke:#181818;stroke-width:1;"/><path d="M109.7815,1161.0634 L109.7815,1158.9052 L117.1609,1158.9052 L117.1609,1161.0634 L114.6956,1161.0634 L114.6956,1169.1401 L117.1609,1169.1401 L117.1609,1171.2983 L109.7815,1171.2983 L109.7815,1169.1401 L112.2469,1169.1401 L112.2469,1161.0634 Z " fill="#000000"/><text fill="#000000" font-family="sans-serif" font-size="14" font-style="italic" lengthAdjust="spacing" textLength="101.7939" x="134.3538" y="1170.5893">PilotRepository</text><line style="stroke:#181818;stroke-width:0.5;" x1="23.97" x2="314.0315" y1="1181.2983" y2="1181.2983"/><line style="stroke:#181818;stroke-width:0.5;" x1="23.97" x2="314.0315" y1="1189.2983" y2="1189.2983"/><text fill="#000000" font-family="sans-serif" font-size="14" lengthAdjust="spacing" textLength="280.0615" x="28.97" y="1206.8334">+findByUser(user: User): Optional&lt;Pilot&gt;</text></g><!--link AirTransportCompanyApp to RemoteAccessClientUI--><g class="link" data-entity-1="ent0003" data-entity-2="ent0005" data-link-type="dependency" data-source-line="147" id="lnk37"><path codeLine="147" d="M2597.64,203.6483 C2602.07,233.6183 2607.9827,273.7328 2613.5727,311.5528" fill="none" id="AirTransportCompanyApp-to-RemoteAccessClientUI" style="stroke:#181818;stroke-width:1;"/><polygon fill="#181818" points="2614.45,317.4883,2617.0911,308.0001,2613.7189,312.542,2609.177,309.1699,2614.45,317.4883" style="stroke:#181818;stroke-width:1;"/><polygon fill="#000000" points="2612.3704,263.5499,2613.9565,254.1726,2608.1417,255.0312,2612.3704,263.5499" style="stroke:#000000;stroke-width:1;"/><text fill="#000000" font-family="sans-serif" font-size="13" lengthAdjust="spacing" textLength="28.5645" x="2620.64" y="263.5166">uses</text></g><!--link AirTransportCompanyApp to TcpClient--><g class="link" data-entity-1="ent0003" data-entity-2="ent0007" data-link-type="dependency" data-source-line="148" id="lnk38"><path codeLine="148" d="M2522.43,203.8783 C2455.53,233.8883 2358.5044,277.4225 2274.3544,315.1725" fill="none" id="AirTransportCompanyApp-to-TcpClient" style="stroke:#181818;stroke-width:1;"/><polygon fill="#181818" points="2268.88,317.6283,2278.7288,317.5941,2273.442,315.5818,2275.4544,310.2949,2268.88,317.6283" style="stroke:#181818;stroke-width:1;"/><polygon fill="#000000" points="2415.1181,260.6502,2424.5737,259.6292,2422.1677,254.2664,2415.1181,260.6502" style="stroke:#000000;stroke-width:1;"/><text fill="#000000" font-family="sans-serif" font-size="13" lengthAdjust="spacing" textLength="28.5645" x="2428.68" y="263.5166">uses</text></g><!--link RemoteAccessClientUI to RemoteRequest--><g class="link" data-entity-1="ent0005" data-entity-2="ent0010" data-link-type="dependency" data-source-line="149" id="lnk39"><path codeLine="149" d="M2525.25,448.6483 C2462.05,489.9083 2386.4339,539.2779 2328.8039,576.9079" fill="none" id="RemoteAccessClientUI-to-RemoteRequest" style="stroke:#181818;stroke-width:1;"/><polygon fill="#181818" points="2323.78,580.1883,2333.5027,578.617,2327.9665,577.4546,2329.1289,571.9185,2323.78,580.1883" style="stroke:#181818;stroke-width:1;"/><polygon fill="#000000" points="2437.8133,515.777,2446.9938,513.293,2443.7804,508.3713,2437.8133,515.777" style="stroke:#000000;stroke-width:1;"/><text fill="#000000" font-family="sans-serif" font-size="13" lengthAdjust="spacing" textLength="45.1318" x="2451" y="517.9566">creates</text></g><!--link TcpClient to RemoteProtocolCodec--><g class="link" data-entity-1="ent0007" data-entity-2="ent0012" data-link-type="dependency" data-source-line="150" id="lnk40"><path codeLine="150" d="M2015.94,448.8083 C1951.34,487.0983 1875.4115,532.099 1813.3915,568.859" fill="none" id="TcpClient-to-RemoteProtocolCodec" style="stroke:#181818;stroke-width:1;"/><polygon fill="#181818" points="1808.23,571.9183,1818.0117,570.7704,1812.5312,569.3689,1813.9327,563.8884,1808.23,571.9183" style="stroke:#181818;stroke-width:1;"/><polygon fill="#000000" points="1919.6987,515.5929,1928.9783,513.5093,1925.9813,508.4529,1919.6987,515.5929" style="stroke:#000000;stroke-width:1;"/><text fill="#000000" font-family="sans-serif" font-size="13" lengthAdjust="spacing" textLength="110.9443" x="1933" y="517.9566">encodes/decodes</text></g><!--link TcpClient to RemoteRequest--><g class="link" data-entity-1="ent0007" data-entity-2="ent0010" data-link-type="dependency" data-source-line="151" id="lnk41"><path codeLine="151" d="M2158.01,448.6483 C2179.13,489.9083 2203.3463,537.2172 2222.6063,574.8472" fill="none" id="TcpClient-to-RemoteRequest" style="stroke:#181818;stroke-width:1;"/><polygon fill="#181818" points="2225.34,580.1883,2224.8002,570.3542,2223.0619,575.7374,2217.6788,573.9992,2225.34,580.1883" style="stroke:#181818;stroke-width:1;"/><polygon fill="#000000" points="2202.2582,517.4944,2200.753,508.1037,2195.5208,510.7819,2202.2582,517.4944" style="stroke:#000000;stroke-width:1;"/><text fill="#000000" font-family="sans-serif" font-size="13" lengthAdjust="spacing" textLength="36.7466" x="2208.98" y="517.9566">sends</text></g><!--link TcpClient to RemoteResponse--><g class="link" data-entity-1="ent0007" data-entity-2="ent0011" data-link-type="dependency" data-source-line="152" id="lnk42"><path codeLine="152" d="M2099.92,448.6483 C2084.96,487.0883 2068.3459,529.8167 2054.0059,566.6667" fill="none" id="TcpClient-to-RemoteResponse" style="stroke:#181818;stroke-width:1;"/><polygon fill="#181818" points="2051.83,572.2583,2058.8216,565.3216,2053.6433,567.5987,2051.3662,562.4204,2051.83,572.2583" style="stroke:#181818;stroke-width:1;"/><polygon fill="#000000" points="2080.6872,517.7033,2086.7056,510.3393,2081.2277,508.2081,2080.6872,517.7033" style="stroke:#000000;stroke-width:1;"/><text fill="#000000" font-family="sans-serif" font-size="13" lengthAdjust="spacing" textLength="50.8193" x="2091.5" y="517.9566">receives</text></g><!--link EmbeddedTcpServer to RemoteClientSession--><g class="link" data-entity-1="ent0014" data-entity-2="ent0015" data-link-type="dependency" data-source-line="154" id="lnk43"><path codeLine="154" d="M1344,220.3883 C1344,257.3083 1344,301.6483 1344,336.3283" fill="none" id="EmbeddedTcpServer-to-RemoteClientSession" style="stroke:#181818;stroke-width:1;"/><polygon fill="#181818" points="1344,342.3283,1348,333.3283,1344,337.3283,1340,333.3283,1344,342.3283" style="stroke:#181818;stroke-width:1;"/><polygon fill="#000000" points="1349,263.6036,1351.9389,254.5585,1346.0611,254.5585,1349,263.6036" style="stroke:#000000;stroke-width:1;"/><text fill="#000000" font-family="sans-serif" font-size="13" lengthAdjust="spacing" textLength="45.1318" x="1358" y="263.5166">creates</text></g><!--link RemoteClientSession to RemoteProtocolCodec--><g class="link" data-entity-1="ent0015" data-entity-2="ent0012" data-link-type="dependency" data-source-line="155" id="lnk44"><path codeLine="155" d="M1404.11,423.9483 C1464.86,464.1583 1554.2964,523.3471 1622.7664,568.6571" fill="none" id="RemoteClientSession-to-RemoteProtocolCodec" style="stroke:#181818;stroke-width:1;"/><polygon fill="#181818" points="1627.77,571.9683,1622.472,563.6658,1623.6003,569.209,1618.0571,570.3373,1627.77,571.9683" style="stroke:#181818;stroke-width:1;"/><polygon fill="#000000" points="1559.7596,515.803,1553.8387,508.3603,1550.5948,513.2619,1559.7596,515.803" style="stroke:#000000;stroke-width:1;"/><text fill="#000000" font-family="sans-serif" font-size="13" lengthAdjust="spacing" textLength="110.9443" x="1564.59" y="517.9566">encodes/decodes</text></g><!--link RemoteClientSession to RemoteRequestHandler--><g class="link" data-entity-1="ent0015" data-entity-2="ent0016" data-link-type="dependency" data-source-line="156" id="lnk45"><path codeLine="156" d="M1332.27,423.9483 C1318.05,472.1983 1296.0571,546.7933 1283.0171,591.0133" fill="none" id="RemoteClientSession-to-RemoteRequestHandler" style="stroke:#181818;stroke-width:1;"/><polygon fill="#181818" points="1281.32,596.7683,1287.7023,589.2672,1282.7342,591.9725,1280.029,587.0044,1281.32,596.7683" style="stroke:#181818;stroke-width:1;"/><polygon fill="#000000" points="1311.5861,517.8395,1316.9628,509.9946,1311.3249,508.3325,1311.5861,517.8395" style="stroke:#000000;stroke-width:1;"/><text fill="#000000" font-family="sans-serif" font-size="13" lengthAdjust="spacing" textLength="60.4424" x="1322" y="517.9566">delegates</text></g><!--link RemoteRequestHandler to AuthenticationService--><g class="link" data-entity-1="ent0016" data-entity-2="ent0019" data-link-type="dependency" data-source-line="157" id="lnk46"><path codeLine="157" d="M1139.48,662.0183 C1053.29,685.0683 939.72,720.1283 845,765.3483 C721.59,824.2483 595.8956,916.8239 532.2856,966.3139" fill="none" id="RemoteRequestHandler-to-AuthenticationService" style="stroke:#181818;stroke-width:1;"/><polygon fill="#181818" points="527.55,969.9983,537.1096,967.6288,531.4963,966.928,532.1971,961.3147,527.55,969.9983" style="stroke:#181818;stroke-width:1;"/><polygon fill="#000000" points="845.5299,799.9837,854.9331,798.5587,852.2996,793.3038,845.5299,799.9837" style="stroke:#000000;stroke-width:1;"/><text fill="#000000" font-family="sans-serif" font-size="13" lengthAdjust="spacing" textLength="84.6777" x="859" y="802.6566">authenticates</text></g><!--link RemoteRequestHandler to AuthorizationService--><g class="link" data-entity-1="ent0016" data-entity-2="ent0020" data-link-type="dependency" data-source-line="158" id="lnk47"><path codeLine="158" d="M1154.8,662.0983 C1099.5,682.8383 1037.2,715.5483 998,765.3483 C950.29,825.9483 943.7353,915.0383 943.8553,964.0383" fill="none" id="RemoteRequestHandler-to-AuthorizationService" style="stroke:#181818;stroke-width:1;"/><polygon fill="#181818" points="943.87,970.0383,947.8479,961.0285,943.8578,965.0383,939.848,961.0481,943.87,970.0383" style="stroke:#181818;stroke-width:1;"/><polygon fill="#000000" points="1000.1365,801.8423,1007.7259,796.1107,1002.9074,792.7444,1000.1365,801.8423" style="stroke:#000000;stroke-width:1;"/><text fill="#000000" font-family="sans-serif" font-size="13" lengthAdjust="spacing" textLength="66.5615" x="1012" y="802.6566">authorizes</text></g><!--link RemoteRequestHandler to RemoteOperationRouter--><g class="link" data-entity-1="ent0016" data-entity-2="ent0017" data-link-type="dependency" data-source-line="159" id="lnk48"><path codeLine="159" d="M1272.76,662.0283 C1273.47,691.5983 1274.3858,729.51 1275.0958,759.05" fill="none" id="RemoteRequestHandler-to-RemoteOperationRouter" style="stroke:#181818;stroke-width:1;"/><polygon fill="#181818" points="1275.24,765.0483,1279.0226,755.9548,1275.1199,760.0497,1271.0249,756.147,1275.24,765.0483" style="stroke:#181818;stroke-width:1;"/><polygon fill="#000000" points="1279.6003,732.0021,1282.3207,722.8889,1276.4446,723.0304,1279.6003,732.0021" style="stroke:#000000;stroke-width:1;"/><text fill="#000000" font-family="sans-serif" font-size="13" lengthAdjust="spacing" textLength="40.1045" x="1288.48" y="731.9166">routes</text></g><!--link RemoteOperationRouter to CreateFlightPlanService--><g class="link" data-entity-1="ent0017" data-entity-2="ent0021" data-link-type="dependency" data-source-line="160" id="lnk49"><path codeLine="160" d="M1309.91,830.2983 C1353.77,871.3383 1424.7879,937.7598 1463.7279,974.1798" fill="none" id="RemoteOperationRouter-to-CreateFlightPlanService" style="stroke:#181818;stroke-width:1;"/><polygon fill="#181818" points="1468.11,978.2783,1464.2692,969.2092,1464.4583,974.8629,1458.8046,975.0519,1468.11,978.2783" style="stroke:#181818;stroke-width:1;"/><polygon fill="#000000" points="1393.1515,897.8992,1388.5535,889.574,1384.5382,893.8666,1393.1515,897.8992" style="stroke:#000000;stroke-width:1;"/><text fill="#000000" font-family="sans-serif" font-size="13" lengthAdjust="spacing" textLength="60.4424" x="1398.5" y="899.3966">delegates</text></g><!--link RemoteOperationRouter to CreateFlightPlanFromFileService--><g class="link" data-entity-1="ent0017" data-entity-2="ent0022" data-link-type="dependency" data-source-line="161" id="lnk50"><path codeLine="161" d="M1390.58,830.2783 C1455.07,849.9183 1536.21,877.7183 1605,910.8283 C1644.94,930.0583 1682.4476,954.8349 1710.4076,974.6849" fill="none" id="RemoteOperationRouter-to-CreateFlightPlanFromFileService" style="stroke:#181818;stroke-width:1;"/><polygon fill="#181818" points="1715.3,978.1583,1710.2769,969.6866,1711.223,975.2638,1705.6458,976.2099,1715.3,978.1583" style="stroke:#181818;stroke-width:1;"/><polygon fill="#000000" points="1589.007,896.5411,1581.9727,890.1404,1579.5539,895.4975,1589.007,896.5411" style="stroke:#000000;stroke-width:1;"/><text fill="#000000" font-family="sans-serif" font-size="13" lengthAdjust="spacing" textLength="60.4424" x="1593.45" y="899.3966">delegates</text></g><!--link RemoteOperationRouter to InsertWeatherDataInFlightService--><g class="link" data-entity-1="ent0017" data-entity-2="ent0023" data-link-type="dependency" data-source-line="162" id="lnk51"><path codeLine="162" d="M1455.9,813.4883 C1580.73,828.1183 1749.05,856.5283 1889,910.8283 C1931.91,927.4783 1971.2036,953.6502 1999.3236,974.5402" fill="none" id="RemoteOperationRouter-to-InsertWeatherDataInFlightService" style="stroke:#181818;stroke-width:1;"/><polygon fill="#181818" points="2004.14,978.1183,1999.3008,969.5403,2000.1263,975.1366,1994.5301,975.9622,2004.14,978.1183" style="stroke:#181818;stroke-width:1;"/><polygon fill="#000000" points="1867.3739,895.9043,1859.5367,890.5164,1857.8666,896.1519,1867.3739,895.9043" style="stroke:#000000;stroke-width:1;"/><text fill="#000000" font-family="sans-serif" font-size="13" lengthAdjust="spacing" textLength="60.4424" x="1871.58" y="899.3966">delegates</text></g><!--link RemoteOperationRouter to TestFlightPlanService--><g class="link" data-entity-1="ent0017" data-entity-2="ent0024" data-link-type="dependency" data-source-line="163" id="lnk52"><path codeLine="163" d="M1276,830.2983 C1276,871.3383 1276,935.8583 1276,972.2783" fill="none" id="RemoteOperationRouter-to-TestFlightPlanService" style="stroke:#181818;stroke-width:1;"/><polygon fill="#181818" points="1276,978.2783,1280,969.2783,1276,973.2783,1272,969.2783,1276,978.2783" style="stroke:#181818;stroke-width:1;"/><polygon fill="#000000" points="1281,899.4836,1283.9389,890.4385,1278.0611,890.4385,1281,899.4836" style="stroke:#000000;stroke-width:1;"/><text fill="#000000" font-family="sans-serif" font-size="13" lengthAdjust="spacing" textLength="60.4424" x="1290" y="899.3966">delegates</text></g><!--link AuthenticationService to UserRepository--><g class="link" data-entity-1="ent0019" data-entity-2="ent0035" data-link-type="dependency" data-source-line="165" id="lnk53"><path codeLine="165" d="M491.22,1035.2083 C494.48,1067.3183 498.9023,1110.7891 502.1723,1142.9091" fill="none" id="AuthenticationService-to-UserRepository" style="stroke:#181818;stroke-width:1;"/><polygon fill="#181818" points="502.78,1148.8783,505.8479,1139.5194,502.2736,1143.904,497.889,1140.3297,502.78,1148.8783" style="stroke:#181818;stroke-width:1;"/><polygon fill="#000000" points="503.0459,1094.9279,505.0546,1085.6319,499.2069,1086.2266,503.0459,1094.9279" style="stroke:#000000;stroke-width:1;"/><text fill="#000000" font-family="sans-serif" font-size="13" lengthAdjust="spacing" textLength="85.7124" x="511.54" y="1094.8666">retrieves user</text></g><!--link RemoteRequestHandler to PilotRepository--><g class="link" data-entity-1="ent0016" data-entity-2="ent0036" data-link-type="dependency" data-source-line="166" id="lnk54"><path codeLine="166" d="M1087.31,658.5783 C827.49,701.9683 372.98,792.5883 259,910.8283 C194.08,978.1783 176.5034,1087.6329 171.4634,1143.0529" fill="none" id="RemoteRequestHandler-to-PilotRepository" style="stroke:#181818;stroke-width:1;"/><polygon fill="#181818" points="170.92,1149.0283,175.7187,1140.4275,171.3728,1144.0488,167.7516,1139.703,170.92,1149.0283" style="stroke:#181818;stroke-width:1;"/><polygon fill="#000000" points="286.2803,896.8215,295.6499,895.1899,292.9014,889.9942,286.2803,896.8215" style="stroke:#000000;stroke-width:1;"/><text fill="#000000" font-family="sans-serif" font-size="13" lengthAdjust="spacing" textLength="84.189" x="299.7" y="899.3966">resolves pilot</text></g><!--link AuthorizationService to User--><g class="link" data-entity-1="ent0020" data-entity-2="ent0026" data-link-type="dependency" data-source-line="167" id="lnk55"><path codeLine="167" d="M1061.06,1035.2483 C1096.17,1043.9283 1134.97,1052.6383 1171,1058.8083 C1540.46,1122.0483 1972.8218,1155.4622 2211.1818,1170.4322" fill="none" id="AuthorizationService-to-User" style="stroke:#181818;stroke-width:1;"/><polygon fill="#181818" points="2217.17,1170.8083,2208.4384,1166.252,2212.1798,1170.4949,2207.937,1174.2363,2217.17,1170.8083" style="stroke:#181818;stroke-width:1;"/><polygon fill="#000000" points="1413.2258,1090.5372,1404.5856,1086.5625,1403.8995,1092.4002,1413.2258,1090.5372" style="stroke:#000000;stroke-width:1;"/><text fill="#000000" font-family="sans-serif" font-size="13" lengthAdjust="spacing" textLength="42.853" x="1417.26" y="1094.8666">checks</text></g><!--link Pilot to User--><g class="link" data-entity-1="ent0027" data-entity-2="ent0026" data-link-type="dependency" data-source-line="169" id="lnk56"><path codeLine="169" d="M2361.64,1051.4583 C2367.76,1076.6383 2373.8135,1101.5879 2379.9335,1126.7779" fill="none" id="Pilot-to-User" style="stroke:#181818;stroke-width:1;"/><polygon fill="#181818" points="2381.35,1132.6083,2383.1122,1122.9183,2380.1696,1127.7496,2375.3383,1124.807,2381.35,1132.6083" style="stroke:#181818;stroke-width:1;"/><text fill="#000000" font-family="sans-serif" font-size="13" lengthAdjust="spacing" textLength="8.2202" x="2354.7293" y="1071.9794">1</text><text fill="#000000" font-family="sans-serif" font-size="13" lengthAdjust="spacing" textLength="8.2202" x="2371.0678" y="1121.9109">1</text></g><!--reverse link Pilot to PilotLicenseNumber--><g class="link" data-entity-1="ent0027" data-entity-2="ent0032" data-link-type="composition" data-source-line="170" id="lnk57"><path codeLine="170" d="M2485.7532,1056.4405 C2522.4332,1072.2205 2551.05,1086.1783 2586,1106.2983 C2607.69,1118.7783 2630.28,1135.0283 2648.57,1149.1483" fill="none" id="Pilot-backto-PilotLicenseNumber" style="stroke:#181818;stroke-width:1;"/><polygon fill="#181818" points="2474.73,1051.6983,2478.6608,1057.7438,2485.7532,1056.4405,2481.8224,1050.395,2474.73,1051.6983" style="stroke:#181818;stroke-width:1;"/></g><!--reverse link User to Role--><g class="link" data-entity-1="ent0026" data-entity-2="ent0028" data-link-type="aggregation" data-source-line="172" id="lnk58"><path codeLine="172" d="M2379.6811,1242.3812 C2375.3511,1261.8212 2373.02,1272.2783 2368.9,1290.8083" fill="none" id="User-backto-Role" style="stroke:#181818;stroke-width:1;"/><polygon fill="none" points="2382.29,1230.6683,2377.0812,1235.6551,2379.6811,1242.3812,2384.8899,1237.3944,2382.29,1230.6683" style="stroke:#181818;stroke-width:1;"/><text fill="#000000" font-family="sans-serif" font-size="13" lengthAdjust="spacing" textLength="8.2202" x="2372.3283" y="1250.8668">1</text><text fill="#000000" font-family="sans-serif" font-size="13" lengthAdjust="spacing" textLength="22.7119" x="2346.6223" y="1280.6783">1..*</text></g><!--reverse link Role to Permission--><g class="link" data-entity-1="ent0028" data-entity-2="ent0029" data-link-type="aggregation" data-source-line="173" id="lnk59"><path codeLine="173" d="M2360,1384.6383 C2360,1404.0283 2360,1414.9883 2360,1433.1083" fill="none" id="Role-backto-Permission" style="stroke:#181818;stroke-width:1;"/><polygon fill="none" points="2360,1372.6383,2356,1378.6383,2360,1384.6383,2364,1378.6383,2360,1372.6383" style="stroke:#181818;stroke-width:1;"/><text fill="#000000" font-family="sans-serif" font-size="13" lengthAdjust="spacing" textLength="8.2202" x="2351.3803" y="1392.9406">1</text><text fill="#000000" font-family="sans-serif" font-size="13" lengthAdjust="spacing" textLength="6.2651" x="2353.4086" y="1422.4826">*</text></g><!--reverse link User to Email--><g class="link" data-entity-1="ent0026" data-entity-2="ent0033" data-link-type="composition" data-source-line="174" id="lnk60"><path codeLine="174" d="M2457.2359,1238.5532 C2483.0259,1261.0332 2503.96,1279.2883 2526.82,1299.2183" fill="none" id="User-backto-Email" style="stroke:#181818;stroke-width:1;"/><polygon fill="#181818" points="2448.19,1230.6683,2450.0846,1237.626,2457.2359,1238.5532,2455.3413,1231.5954,2448.19,1230.6683" style="stroke:#181818;stroke-width:1;"/></g><?plantuml-src bLTBRziu4BxhLn3kHMdhjBqi5a9Xm7KQR80-0Zj1pumqiGbJf9Qa4hYB_lSTKf95ofGI-v0udFbcEC-FCSnm8FURZt__DLzT9OdUCr5HHKjIIY7pdP8b4ADgy2GLpVTq2njpGAY2t52nvRw2tj52FZEn9O-KQr-ISwhrqXZ57ce3DxaK6_ORoCSaQOsIMSqk5PJIm8oykN8Vybz2yEEmPCdKdQ92LrAPbImhAWxBgcfLxESTqOOgarwuap-9Xrqxkyiy1wrNd84mzpS1Ki6_DMYpKb2WaE7bMpEDk62wulImVAACqmSEFojGr30fGhNMob5wHGsDsLa3HY4qfAhzahKtx0GHp5Ubf4fB302JbP4DPb9ikr3_U6aKO9wbsb_cBivuBk_ogac3buGvsKbjEilUiKruHfWmtgMmVWBh7mIdGHHfcu8-8FVdnJ10tnINc8cfI2ebZSmbZySIE0hYaLqT8a7HsknifNEdS2Vt4DEgw85BMWIII6DrKGNUTUtQBICFKdAWuWMpZGHibLUoW37Pzx01ncvqswRCcig3JWUHuzbudGPkiV_00bg5LD7dmHKk1ZPYlaQwVC9RDo1JxhnMYZUE1lK4AjusNyi7A0eeS1GsJYqeNgpd_UtIdSXgVDqq4xR1wsE71JNOKL5mM3KpXCB0Q3WFOut-ZpEX8cRF6i68W-FsMalSrA47PO_ETE0NXbOLRqTkPCa7OsaBmt88hk0DBgHvlwypuYrllCloTC1F8xPAKh7VezwOxbIWI6lifupSuy_t19DKCbVPZDmUlr-4qnxumklXbQyvs-xCBQS3TvEgrqZ6rup31EG64wxCByJjG5dUkH4DVW9pXrKRluzVjqAMb8sKpEOZc1r0NPxXWE4lxrXXNh1AtvWsdzVuVH5qhkwJc9wVsrl6PRZx-rfvXzXxW7dwKUFiezIXllbdFa7WP3x1X4yRG-1Iq3AsjljekkZxc1QHK8x2QUF3XkbQFrQA2AzfZHjoWjWYunDOVgAydhZGQMhFGRlMUH7WDwY2Icfcf3eCcnHtEAX7Yerjcs5zr0l6_969uil1kKtzziMU-rdP153-sSA3UlMMNRIJfYtOsn--NGTUz36Dl7FdyqNy6PlPNjTaCGNittj7xQYjtadtdif8xfQHXVHMUhtmeP6rbAy_D3m-XkgjsqVZk5RxhChiFnk0usWrarFcxY4Xv_gNZydF2MCQFs3b3Dyn7BQ1wu6AnSRPBWiuxaK39_pLu1rdJOBZT9yr9DyZXmeMEiPbiRXVWnyIt6ljlCXwhpKKfy8GdSJBPU63rMBx5JSLs8QrGpzLXU7ki5WjkOLMZjKMIRJAdLlRv3l8z-w63G_EFisSsFvs3DWSlvtFOvINE2jMLwB2xDFbvTkP8xV4CTnHWASzDpKWQx6X-Vy1?></g></svg>